<?xml version="1.0" encoding="UTF-8" standalone="no"?>
<svg
   version="1.1"
   width="64.050797mm"
   height="163.97667mm"
   viewBox="0 0 64.050797 163.97667"
   id="svg74631"
   xmlns="http://www.w3.org/2000/svg"
   xmlns:svg="http://www.w3.org/2000/svg">
  <defs
     id="defs74635" />
  <title
     id="title73235">SVG Image created as cluster-pcb-User_Drawings.svg date 2024/10/21 14:25:02 </title>
  <desc
     id="desc73237">Image generated by PCBNEW </desc>
  <g
     style="fill:#000000;fill-opacity:1;stroke:#000000;stroke-linecap:round;stroke-linejoin:round;stroke-opacity:1"
     id="g73239"
     transform="translate(-68.5492,-21.4)" />
  <g
     style="fill:#000000;fill-opacity:0;stroke:#000000;stroke-width:0;stroke-linecap:round;stroke-linejoin:round;stroke-opacity:1"
     id="g73241"
     transform="translate(-68.5492,-21.4)" />
  <g
     style="fill:#c2c2c2;fill-opacity:0;stroke:#c2c2c2;stroke-width:0;stroke-linecap:round;stroke-linejoin:round;stroke-opacity:1"
     id="g73243"
     transform="translate(-68.5492,-21.4)" />
  <g
     style="fill:#c2c2c2;fill-opacity:0;stroke:#c2c2c2;stroke-width:0.4;stroke-linecap:round;stroke-linejoin:round;stroke-opacity:1"
     id="g73269"
     transform="translate(-68.5492,-21.4)">
    <path
       style="fill:none;fill-opacity:0;stroke:#c2c2c2;stroke-width:0.4;stroke-linecap:round;stroke-linejoin:round;stroke-opacity:1"
       d="m 82.4,21.6 h 20 v 75 h -20 z"
       id="path73245" />
    <path
       d="m 132.4,26.6 v 150"
       id="path73247" />
    <path
       d="m 77.4,21.6 a 5,5 0 0 0 -5,5"
       id="path73249" />
    <path
       d="m 77.4,21.6 h 50"
       id="path73251" />
    <path
       d="m 94.9,101.6 h 15"
       id="path73253" />
    <path
       d="M 72.4,176.6 V 26.6"
       id="path73255" />
    <path
       d="m 127.4,181.6 a 5,5 0 0 0 5,-5"
       id="path73257" />
    <path
       d="m 102.4,109.1 v -15"
       id="path73259" />
    <path
       d="m 92.4,94.1 v -70"
       id="path73261" />
    <path
       d="m 132.4,26.6 a 5,5 0 0 0 -5,-5"
       id="path73263" />
    <path
       d="m 127.4,181.6 h -50"
       id="path73265" />
    <path
       d="m 72.4,176.6 a 5,5 0 0 0 5,5"
       id="path73267" />
  </g>
  <g
     style="fill:#c2c2c2;fill-opacity:0;stroke:#c2c2c2;stroke-width:0.5;stroke-linecap:round;stroke-linejoin:round;stroke-opacity:1"
     id="g73385"
     transform="translate(-68.5492,-21.4)">
    <text
       x="87.400002"
       y="172.60001"
       textLength="12.719"
       font-size="2.6667px"
       lengthAdjust="spacingAndGlyphs"
       text-anchor="middle"
       opacity="0"
       id="text73271">3.2 mm</text>
    <g
       class="stroked-text"
       id="g73383">
      <desc
         id="desc73273">3.2 mm</desc>
      <path
         d="m 81.8762,170.4992 h 1.2381"
         id="path73275" />
      <path
         d="m 83.1143,170.4992 -0.6667,0.7619"
         id="path73277" />
      <path
         d="m 82.4476,171.2611 h 0.2857"
         id="path73279" />
      <path
         d="m 82.7333,171.2611 0.1905,0.0953"
         id="path73281" />
      <path
         d="m 82.9238,171.3564 0.0952,0.0952"
         id="path73283" />
      <path
         d="m 83.019,171.4516 0.0953,0.1905"
         id="path73285" />
      <path
         d="m 83.1143,171.6421 v 0.4762"
         id="path73287" />
      <path
         d="m 83.1143,172.1183 -0.0953,0.1905"
         id="path73289" />
      <path
         d="m 83.019,172.3088 -0.0952,0.0952"
         id="path73291" />
      <path
         d="m 82.9238,172.404 -0.1905,0.0952"
         id="path73293" />
      <path
         d="M 82.7333,172.4992 H 82.1619"
         id="path73295" />
      <path
         d="M 82.1619,172.4992 81.9714,172.404"
         id="path73297" />
      <path
         d="m 81.9714,172.404 -0.0952,-0.0952"
         id="path73299" />
      <path
         d="m 83.9714,172.3088 0.0953,0.0952"
         id="path73301" />
      <path
         d="m 84.0667,172.404 -0.0953,0.0952"
         id="path73303" />
      <path
         d="M 83.9714,172.4992 83.8762,172.404"
         id="path73305" />
      <path
         d="m 83.8762,172.404 0.0952,-0.0952"
         id="path73307" />
      <path
         d="m 83.9714,172.3088 v 0.1904"
         id="path73309" />
      <path
         d="m 84.8286,170.6897 0.0952,-0.0952"
         id="path73311" />
      <path
         d="m 84.9238,170.5945 0.1905,-0.0953"
         id="path73313" />
      <path
         d="m 85.1143,170.4992 h 0.4762"
         id="path73315" />
      <path
         d="m 85.5905,170.4992 0.1905,0.0953"
         id="path73317" />
      <path
         d="m 85.781,170.5945 0.0952,0.0952"
         id="path73319" />
      <path
         d="m 85.8762,170.6897 0.0952,0.1905"
         id="path73321" />
      <path
         d="m 85.9714,170.8802 v 0.1905"
         id="path73323" />
      <path
         d="m 85.9714,171.0707 -0.0952,0.2857"
         id="path73325" />
      <path
         d="m 85.8762,171.3564 -1.1429,1.1428"
         id="path73327" />
      <path
         d="m 84.7333,172.4992 h 1.2381"
         id="path73329" />
      <path
         d="m 88.3524,172.4992 v -1.3333"
         id="path73331" />
      <path
         d="m 88.3524,171.3564 0.0952,-0.0953"
         id="path73333" />
      <path
         d="m 88.4476,171.2611 0.1905,-0.0952"
         id="path73335" />
      <path
         d="m 88.6381,171.1659 h 0.2857"
         id="path73337" />
      <path
         d="m 88.9238,171.1659 0.1905,0.0952"
         id="path73339" />
      <path
         d="m 89.1143,171.2611 0.0952,0.1905"
         id="path73341" />
      <path
         d="m 89.2095,171.4516 v 1.0476"
         id="path73343" />
      <path
         d="m 89.2095,171.4516 0.0953,-0.1905"
         id="path73345" />
      <path
         d="m 89.3048,171.2611 0.1904,-0.0952"
         id="path73347" />
      <path
         d="M 89.4952,171.1659 H 89.781"
         id="path73349" />
      <path
         d="m 89.781,171.1659 0.1904,0.0952"
         id="path73351" />
      <path
         d="m 89.9714,171.2611 0.0953,0.1905"
         id="path73353" />
      <path
         d="m 90.0667,171.4516 v 1.0476"
         id="path73355" />
      <path
         d="m 91.019,172.4992 v -1.3333"
         id="path73357" />
      <path
         d="m 91.019,171.3564 0.0953,-0.0953"
         id="path73359" />
      <path
         d="m 91.1143,171.2611 0.1905,-0.0952"
         id="path73361" />
      <path
         d="m 91.3048,171.1659 h 0.2857"
         id="path73363" />
      <path
         d="m 91.5905,171.1659 0.1905,0.0952"
         id="path73365" />
      <path
         d="m 91.781,171.2611 0.0952,0.1905"
         id="path73367" />
      <path
         d="m 91.8762,171.4516 v 1.0476"
         id="path73369" />
      <path
         d="m 91.8762,171.4516 0.0952,-0.1905"
         id="path73371" />
      <path
         d="m 91.9714,171.2611 0.1905,-0.0952"
         id="path73373" />
      <path
         d="m 92.1619,171.1659 h 0.2857"
         id="path73375" />
      <path
         d="m 92.4476,171.1659 0.1905,0.0952"
         id="path73377" />
      <path
         d="m 92.6381,171.2611 0.0952,0.1905"
         id="path73379" />
      <path
         d="m 92.7333,171.4516 v 1.0476"
         id="path73381" />
    </g>
  </g>
  <g
     style="fill:#c2c2c2;fill-opacity:0;stroke:#c2c2c2;stroke-width:0.4;stroke-linecap:round;stroke-linejoin:round;stroke-opacity:1"
     id="g73403"
     transform="translate(-68.5492,-21.4)">
    <path
       d="m 75.8,176.1 v -5.0864"
       id="path73387" />
    <path
       d="M 79,171.0136 V 176.1"
       id="path73389" />
    <path
       d="M 75.8,171.6 H 79"
       id="path73391" />
    <path
       d="M 75.8,171.6 H 79"
       id="path73393" />
    <path
       d="m 75.8,171.6 1.1265,-0.5864"
       id="path73395" />
    <path
       d="m 75.8,171.6 1.1265,0.5864"
       id="path73397" />
    <path
       d="m 79,171.6 -1.1265,0.5864"
       id="path73399" />
    <path
       d="m 79,171.6 -1.1265,-0.5864"
       id="path73401" />
  </g>
  <g
     style="fill:#c2c2c2;fill-opacity:0;stroke:#c2c2c2;stroke-width:0.5;stroke-linecap:round;stroke-linejoin:round;stroke-opacity:1"
     id="g73513"
     transform="translate(-68.5492,-21.4)">
    <text
       x="97.400002"
       y="120.1"
       textLength="11.7667"
       font-size="2.6667px"
       lengthAdjust="spacingAndGlyphs"
       text-anchor="middle"
       opacity="0"
       id="text73405">10 mm</text>
    <g
       class="stroked-text"
       id="g73511">
      <desc
         id="desc73407">10 mm</desc>
      <path
         d="M 93.5905,119.9992 H 92.4476"
         id="path73409" />
      <path
         d="m 93.019,119.9992 v -2"
         id="path73411" />
      <path
         d="m 93.019,117.9992 -0.1904,0.2858"
         id="path73413" />
      <path
         d="m 92.8286,118.285 -0.1905,0.1904"
         id="path73415" />
      <path
         d="m 92.6381,118.4754 -0.1905,0.0953"
         id="path73417" />
      <path
         d="M 94.8286,117.9992 H 95.019"
         id="path73419" />
      <path
         d="m 95.019,117.9992 0.1905,0.0953"
         id="path73421" />
      <path
         d="m 95.2095,118.0945 0.0953,0.0952"
         id="path73423" />
      <path
         d="M 95.3048,118.1897 95.4,118.3802"
         id="path73425" />
      <path
         d="m 95.4,118.3802 0.0952,0.3809"
         id="path73427" />
      <path
         d="m 95.4952,118.7611 v 0.4762"
         id="path73429" />
      <path
         d="M 95.4952,119.2373 95.4,119.6183"
         id="path73431" />
      <path
         d="m 95.4,119.6183 -0.0952,0.1905"
         id="path73433" />
      <path
         d="m 95.3048,119.8088 -0.0953,0.0952"
         id="path73435" />
      <path
         d="m 95.2095,119.904 -0.1905,0.0952"
         id="path73437" />
      <path
         d="M 95.019,119.9992 H 94.8286"
         id="path73439" />
      <path
         d="M 94.8286,119.9992 94.6381,119.904"
         id="path73441" />
      <path
         d="m 94.6381,119.904 -0.0952,-0.0952"
         id="path73443" />
      <path
         d="m 94.5429,119.8088 -0.0953,-0.1905"
         id="path73445" />
      <path
         d="m 94.4476,119.6183 -0.0952,-0.381"
         id="path73447" />
      <path
         d="m 94.3524,119.2373 v -0.4762"
         id="path73449" />
      <path
         d="m 94.3524,118.7611 0.0952,-0.3809"
         id="path73451" />
      <path
         d="m 94.4476,118.3802 0.0953,-0.1905"
         id="path73453" />
      <path
         d="m 94.5429,118.1897 0.0952,-0.0952"
         id="path73455" />
      <path
         d="m 94.6381,118.0945 0.1905,-0.0953"
         id="path73457" />
      <path
         d="m 97.8762,119.9992 v -1.3333"
         id="path73459" />
      <path
         d="m 97.8762,118.8564 0.0952,-0.0953"
         id="path73461" />
      <path
         d="m 97.9714,118.7611 0.1905,-0.0952"
         id="path73463" />
      <path
         d="m 98.1619,118.6659 h 0.2857"
         id="path73465" />
      <path
         d="m 98.4476,118.6659 0.1905,0.0952"
         id="path73467" />
      <path
         d="m 98.6381,118.7611 0.0952,0.1905"
         id="path73469" />
      <path
         d="m 98.7333,118.9516 v 1.0476"
         id="path73471" />
      <path
         d="m 98.7333,118.9516 0.0953,-0.1905"
         id="path73473" />
      <path
         d="m 98.8286,118.7611 0.1904,-0.0952"
         id="path73475" />
      <path
         d="m 99.019,118.6659 h 0.2858"
         id="path73477" />
      <path
         d="m 99.3048,118.6659 0.1904,0.0952"
         id="path73479" />
      <path
         d="m 99.4952,118.7611 0.0953,0.1905"
         id="path73481" />
      <path
         d="m 99.5905,118.9516 v 1.0476"
         id="path73483" />
      <path
         d="m 100.5429,119.9992 v -1.3333"
         id="path73485" />
      <path
         d="m 100.5429,118.8564 0.0952,-0.0953"
         id="path73487" />
      <path
         d="m 100.6381,118.7611 0.1905,-0.0952"
         id="path73489" />
      <path
         d="m 100.8286,118.6659 h 0.2857"
         id="path73491" />
      <path
         d="m 101.1143,118.6659 0.1905,0.0952"
         id="path73493" />
      <path
         d="m 101.3048,118.7611 0.0952,0.1905"
         id="path73495" />
      <path
         d="m 101.4,118.9516 v 1.0476"
         id="path73497" />
      <path
         d="m 101.4,118.9516 0.0952,-0.1905"
         id="path73499" />
      <path
         d="m 101.4952,118.7611 0.1905,-0.0952"
         id="path73501" />
      <path
         d="m 101.6857,118.6659 h 0.2857"
         id="path73503" />
      <path
         d="m 101.9714,118.6659 0.1905,0.0952"
         id="path73505" />
      <path
         d="m 102.1619,118.7611 0.0952,0.1905"
         id="path73507" />
      <path
         d="m 102.2571,118.9516 v 1.0476"
         id="path73509" />
    </g>
  </g>
  <g
     style="fill:#c2c2c2;fill-opacity:0;stroke:#c2c2c2;stroke-width:0.4;stroke-linecap:round;stroke-linejoin:round;stroke-opacity:1"
     id="g73527"
     transform="translate(-68.5492,-21.4)">
    <path
       d="m 92.4,102.1 v 15.0864"
       id="path73515" />
    <path
       d="M 102.4,117.1864 V 102.1"
       id="path73517" />
    <path
       d="m 92.4,116.6 1.1265,-0.5864"
       id="path73519" />
    <path
       d="m 92.4,116.6 1.1265,0.5864"
       id="path73521" />
    <path
       d="m 102.4,116.6 -1.1265,0.5864"
       id="path73523" />
    <path
       d="m 102.4,116.6 -1.1265,-0.5864"
       id="path73525" />
  </g>
  <g
     style="fill:#c2c2c2;fill-opacity:0;stroke:#c2c2c2;stroke-width:0.5;stroke-linecap:round;stroke-linejoin:round;stroke-opacity:1"
     id="g73669"
     transform="translate(-68.5492,-21.4)">
    <text
       x="102.4"
       y="185.10001"
       textLength="11.7667"
       font-size="2.6667px"
       lengthAdjust="spacingAndGlyphs"
       text-anchor="middle"
       opacity="0"
       id="text73529">60 mm</text>
    <g
       class="stroked-text"
       id="g73667">
      <desc
         id="desc73531">60 mm</desc>
      <path
         d="M 98.4,182.9992 H 98.019"
         id="path73533" />
      <path
         d="m 98.019,182.9992 -0.1904,0.0953"
         id="path73535" />
      <path
         d="m 97.8286,183.0945 -0.0953,0.0952"
         id="path73537" />
      <path
         d="m 97.7333,183.1897 -0.1904,0.2857"
         id="path73539" />
      <path
         d="m 97.5429,183.4754 -0.0953,0.381"
         id="path73541" />
      <path
         d="m 97.4476,183.8564 v 0.7619"
         id="path73543" />
      <path
         d="m 97.4476,184.6183 0.0953,0.1905"
         id="path73545" />
      <path
         d="m 97.5429,184.8088 0.0952,0.0952"
         id="path73547" />
      <path
         d="m 97.6381,184.904 0.1905,0.0952"
         id="path73549" />
      <path
         d="m 97.8286,184.9992 h 0.3809"
         id="path73551" />
      <path
         d="M 98.2095,184.9992 98.4,184.904"
         id="path73553" />
      <path
         d="m 98.4,184.904 0.0952,-0.0952"
         id="path73555" />
      <path
         d="m 98.4952,184.8088 0.0953,-0.1905"
         id="path73557" />
      <path
         d="m 98.5905,184.6183 v -0.4762"
         id="path73559" />
      <path
         d="m 98.5905,184.1421 -0.0953,-0.1905"
         id="path73561" />
      <path
         d="M 98.4952,183.9516 98.4,183.8564"
         id="path73563" />
      <path
         d="m 98.4,183.8564 -0.1905,-0.0953"
         id="path73565" />
      <path
         d="M 98.2095,183.7611 H 97.8286"
         id="path73567" />
      <path
         d="m 97.8286,183.7611 -0.1905,0.0953"
         id="path73569" />
      <path
         d="m 97.6381,183.8564 -0.0952,0.0952"
         id="path73571" />
      <path
         d="m 97.5429,183.9516 -0.0953,0.1905"
         id="path73573" />
      <path
         d="m 99.8286,182.9992 h 0.1904"
         id="path73575" />
      <path
         d="m 100.019,182.9992 0.1905,0.0953"
         id="path73577" />
      <path
         d="m 100.2095,183.0945 0.0953,0.0952"
         id="path73579" />
      <path
         d="m 100.3048,183.1897 0.0952,0.1905"
         id="path73581" />
      <path
         d="m 100.4,183.3802 0.0952,0.3809"
         id="path73583" />
      <path
         d="m 100.4952,183.7611 v 0.4762"
         id="path73585" />
      <path
         d="m 100.4952,184.2373 -0.0952,0.381"
         id="path73587" />
      <path
         d="m 100.4,184.6183 -0.0952,0.1905"
         id="path73589" />
      <path
         d="m 100.3048,184.8088 -0.0953,0.0952"
         id="path73591" />
      <path
         d="m 100.2095,184.904 -0.1905,0.0952"
         id="path73593" />
      <path
         d="M 100.019,184.9992 H 99.8286"
         id="path73595" />
      <path
         d="M 99.8286,184.9992 99.6381,184.904"
         id="path73597" />
      <path
         d="m 99.6381,184.904 -0.0952,-0.0952"
         id="path73599" />
      <path
         d="m 99.5429,184.8088 -0.0953,-0.1905"
         id="path73601" />
      <path
         d="m 99.4476,184.6183 -0.0952,-0.381"
         id="path73603" />
      <path
         d="m 99.3524,184.2373 v -0.4762"
         id="path73605" />
      <path
         d="m 99.3524,183.7611 0.0952,-0.3809"
         id="path73607" />
      <path
         d="m 99.4476,183.3802 0.0953,-0.1905"
         id="path73609" />
      <path
         d="m 99.5429,183.1897 0.0952,-0.0952"
         id="path73611" />
      <path
         d="m 99.6381,183.0945 0.1905,-0.0953"
         id="path73613" />
      <path
         d="m 102.8762,184.9992 v -1.3333"
         id="path73615" />
      <path
         d="m 102.8762,183.8564 0.0952,-0.0953"
         id="path73617" />
      <path
         d="m 102.9714,183.7611 0.1905,-0.0952"
         id="path73619" />
      <path
         d="m 103.1619,183.6659 h 0.2857"
         id="path73621" />
      <path
         d="m 103.4476,183.6659 0.1905,0.0952"
         id="path73623" />
      <path
         d="m 103.6381,183.7611 0.0952,0.1905"
         id="path73625" />
      <path
         d="m 103.7333,183.9516 v 1.0476"
         id="path73627" />
      <path
         d="m 103.7333,183.9516 0.0953,-0.1905"
         id="path73629" />
      <path
         d="m 103.8286,183.7611 0.1904,-0.0952"
         id="path73631" />
      <path
         d="m 104.019,183.6659 h 0.2858"
         id="path73633" />
      <path
         d="m 104.3048,183.6659 0.1904,0.0952"
         id="path73635" />
      <path
         d="m 104.4952,183.7611 0.0953,0.1905"
         id="path73637" />
      <path
         d="m 104.5905,183.9516 v 1.0476"
         id="path73639" />
      <path
         d="m 105.5429,184.9992 v -1.3333"
         id="path73641" />
      <path
         d="m 105.5429,183.8564 0.0952,-0.0953"
         id="path73643" />
      <path
         d="m 105.6381,183.7611 0.1905,-0.0952"
         id="path73645" />
      <path
         d="m 105.8286,183.6659 h 0.2857"
         id="path73647" />
      <path
         d="m 106.1143,183.6659 0.1905,0.0952"
         id="path73649" />
      <path
         d="m 106.3048,183.7611 0.0952,0.1905"
         id="path73651" />
      <path
         d="m 106.4,183.9516 v 1.0476"
         id="path73653" />
      <path
         d="m 106.4,183.9516 0.0952,-0.1905"
         id="path73655" />
      <path
         d="m 106.4952,183.7611 0.1905,-0.0952"
         id="path73657" />
      <path
         d="m 106.6857,183.6659 h 0.2857"
         id="path73659" />
      <path
         d="m 106.9714,183.6659 0.1905,0.0952"
         id="path73661" />
      <path
         d="m 107.1619,183.7611 0.0952,0.1905"
         id="path73663" />
      <path
         d="m 107.2571,183.9516 v 1.0476"
         id="path73665" />
    </g>
  </g>
  <g
     style="fill:#c2c2c2;fill-opacity:0;stroke:#c2c2c2;stroke-width:0.4;stroke-linecap:round;stroke-linejoin:round;stroke-opacity:1"
     id="g73687"
     transform="translate(-68.5492,-21.4)">
    <path
       d="m 132.4,177.1 v 7.5864"
       id="path73671" />
    <path
       d="M 72.4,184.6864 V 177.6"
       id="path73673" />
    <path
       d="M 132.4,184.1 H 109.2833"
       id="path73675" />
    <path
       d="M 95.5167,184.1 H 72.4"
       id="path73677" />
    <path
       d="m 132.4,184.1 -1.1265,0.5864"
       id="path73679" />
    <path
       d="m 132.4,184.1 -1.1265,-0.5864"
       id="path73681" />
    <path
       d="m 72.4,184.1 1.1265,-0.5864"
       id="path73683" />
    <path
       d="m 72.4,184.1 1.1265,0.5864"
       id="path73685" />
  </g>
  <g
     style="fill:#c2c2c2;fill-opacity:0;stroke:#c2c2c2;stroke-width:0.5;stroke-linecap:round;stroke-linejoin:round;stroke-opacity:1"
     id="g73841"
     transform="translate(-68.5492,-21.4)">
    <g
       transform="rotate(-90,69.9,101.6)"
       id="g73691">
      <text
         x="69.900002"
         y="102.6"
         textLength="13.6714"
         font-size="2.6667px"
         lengthAdjust="spacingAndGlyphs"
         text-anchor="middle"
         opacity="0"
         id="text73689">160 mm</text>
    </g>
    <g
       class="stroked-text"
       id="g73839">
      <desc
         id="desc73693">160 mm</desc>
      <path
         d="m 70.7992,106.3619 v 1.1429"
         id="path73695" />
      <path
         d="m 70.7992,106.9333 h -2"
         id="path73697" />
      <path
         d="m 68.7992,106.9333 0.2858,0.1905"
         id="path73699" />
      <path
         d="m 69.085,107.1238 0.1904,0.1905"
         id="path73701" />
      <path
         d="m 69.2754,107.3143 0.0953,0.1905"
         id="path73703" />
      <path
         d="m 68.7992,104.6476 v 0.381"
         id="path73705" />
      <path
         d="m 68.7992,105.0286 0.0953,0.1904"
         id="path73707" />
      <path
         d="m 68.8945,105.219 0.0952,0.0953"
         id="path73709" />
      <path
         d="m 68.9897,105.3143 0.2857,0.1905"
         id="path73711" />
      <path
         d="m 69.2754,105.5048 0.381,0.0952"
         id="path73713" />
      <path
         d="m 69.6564,105.6 h 0.7619"
         id="path73715" />
      <path
         d="m 70.4183,105.6 0.1905,-0.0952"
         id="path73717" />
      <path
         d="m 70.6088,105.5048 0.0952,-0.0953"
         id="path73719" />
      <path
         d="m 70.704,105.4095 0.0952,-0.1905"
         id="path73721" />
      <path
         d="m 70.7992,105.219 v -0.3809"
         id="path73723" />
      <path
         d="M 70.7992,104.8381 70.704,104.6476"
         id="path73725" />
      <path
         d="m 70.704,104.6476 -0.0952,-0.0952"
         id="path73727" />
      <path
         d="m 70.6088,104.5524 -0.1905,-0.0953"
         id="path73729" />
      <path
         d="M 70.4183,104.4571 H 69.9421"
         id="path73731" />
      <path
         d="m 69.9421,104.4571 -0.1905,0.0953"
         id="path73733" />
      <path
         d="m 69.7516,104.5524 -0.0952,0.0952"
         id="path73735" />
      <path
         d="m 69.6564,104.6476 -0.0953,0.1905"
         id="path73737" />
      <path
         d="m 69.5611,104.8381 v 0.3809"
         id="path73739" />
      <path
         d="m 69.5611,105.219 0.0953,0.1905"
         id="path73741" />
      <path
         d="m 69.6564,105.4095 0.0952,0.0953"
         id="path73743" />
      <path
         d="M 69.7516,105.5048 69.9421,105.6"
         id="path73745" />
      <path
         d="m 68.7992,103.219 v -0.1904"
         id="path73747" />
      <path
         d="m 68.7992,103.0286 0.0953,-0.1905"
         id="path73749" />
      <path
         d="m 68.8945,102.8381 0.0952,-0.0952"
         id="path73751" />
      <path
         d="m 68.9897,102.7429 0.1905,-0.0953"
         id="path73753" />
      <path
         d="m 69.1802,102.6476 0.3809,-0.0952"
         id="path73755" />
      <path
         d="m 69.5611,102.5524 h 0.4762"
         id="path73757" />
      <path
         d="m 70.0373,102.5524 0.381,0.0952"
         id="path73759" />
      <path
         d="m 70.4183,102.6476 0.1905,0.0953"
         id="path73761" />
      <path
         d="m 70.6088,102.7429 0.0952,0.0952"
         id="path73763" />
      <path
         d="m 70.704,102.8381 0.0952,0.1905"
         id="path73765" />
      <path
         d="m 70.7992,103.0286 v 0.1904"
         id="path73767" />
      <path
         d="m 70.7992,103.219 -0.0952,0.1905"
         id="path73769" />
      <path
         d="m 70.704,103.4095 -0.0952,0.0953"
         id="path73771" />
      <path
         d="M 70.6088,103.5048 70.4183,103.6"
         id="path73773" />
      <path
         d="m 70.4183,103.6 -0.381,0.0952"
         id="path73775" />
      <path
         d="M 70.0373,103.6952 H 69.5611"
         id="path73777" />
      <path
         d="M 69.5611,103.6952 69.1802,103.6"
         id="path73779" />
      <path
         d="m 69.1802,103.6 -0.1905,-0.0952"
         id="path73781" />
      <path
         d="m 68.9897,103.5048 -0.0952,-0.0953"
         id="path73783" />
      <path
         d="M 68.8945,103.4095 68.7992,103.219"
         id="path73785" />
      <path
         d="M 70.7992,100.1714 H 69.4659"
         id="path73787" />
      <path
         d="m 69.6564,100.1714 -0.0953,-0.0952"
         id="path73789" />
      <path
         d="M 69.5611,100.0762 69.4659,99.8857"
         id="path73791" />
      <path
         d="M 69.4659,99.8857 V 99.6"
         id="path73793" />
      <path
         d="m 69.4659,99.6 0.0952,-0.1905"
         id="path73795" />
      <path
         d="m 69.5611,99.4095 0.1905,-0.0952"
         id="path73797" />
      <path
         d="m 69.7516,99.3143 h 1.0476"
         id="path73799" />
      <path
         d="M 69.7516,99.3143 69.5611,99.219"
         id="path73801" />
      <path
         d="M 69.5611,99.219 69.4659,99.0286"
         id="path73803" />
      <path
         d="M 69.4659,99.0286 V 98.7429"
         id="path73805" />
      <path
         d="m 69.4659,98.7429 0.0952,-0.1905"
         id="path73807" />
      <path
         d="m 69.5611,98.5524 0.1905,-0.0953"
         id="path73809" />
      <path
         d="m 69.7516,98.4571 h 1.0476"
         id="path73811" />
      <path
         d="M 70.7992,97.5048 H 69.4659"
         id="path73813" />
      <path
         d="M 69.6564,97.5048 69.5611,97.4095"
         id="path73815" />
      <path
         d="M 69.5611,97.4095 69.4659,97.219"
         id="path73817" />
      <path
         d="M 69.4659,97.219 V 96.9333"
         id="path73819" />
      <path
         d="m 69.4659,96.9333 0.0952,-0.1904"
         id="path73821" />
      <path
         d="m 69.5611,96.7429 0.1905,-0.0953"
         id="path73823" />
      <path
         d="m 69.7516,96.6476 h 1.0476"
         id="path73825" />
      <path
         d="M 69.7516,96.6476 69.5611,96.5524"
         id="path73827" />
      <path
         d="M 69.5611,96.5524 69.4659,96.3619"
         id="path73829" />
      <path
         d="M 69.4659,96.3619 V 96.0762"
         id="path73831" />
      <path
         d="m 69.4659,96.0762 0.0952,-0.1905"
         id="path73833" />
      <path
         d="m 69.5611,95.8857 0.1905,-0.0952"
         id="path73835" />
      <path
         d="m 69.7516,95.7905 h 1.0476"
         id="path73837" />
    </g>
  </g>
  <g
     style="fill:#c2c2c2;fill-opacity:0;stroke:#c2c2c2;stroke-width:0.4;stroke-linecap:round;stroke-linejoin:round;stroke-opacity:1"
     id="g73859"
     transform="translate(-68.5492,-21.4)">
    <path
       d="M 76.9,21.6 H 69.3136"
       id="path73843" />
    <path
       d="M 69.3136,181.6 H 76.9"
       id="path73845" />
    <path
       d="M 69.9,21.6 V 93.7643"
       id="path73847" />
    <path
       d="M 69.9,109.4357 V 181.6"
       id="path73849" />
    <path
       d="m 69.9,21.6 0.5864,1.1265"
       id="path73851" />
    <path
       d="m 69.9,21.6 -0.5864,1.1265"
       id="path73853" />
    <path
       d="m 69.9,181.6 -0.5864,-1.1265"
       id="path73855" />
    <path
       d="m 69.9,181.6 0.5864,-1.1265"
       id="path73857" />
  </g>
  <g
     style="fill:#c2c2c2;fill-opacity:0;stroke:#c2c2c2;stroke-width:0.5;stroke-linecap:round;stroke-linejoin:round;stroke-opacity:1"
     id="g74001"
     transform="translate(-68.5492,-21.4)">
    <g
       transform="rotate(-90,127.4,101.6)"
       id="g73863">
      <text
         x="127.4"
         y="102.6"
         textLength="13.6714"
         font-size="2.6667px"
         lengthAdjust="spacingAndGlyphs"
         text-anchor="middle"
         opacity="0"
         id="text73861">150 mm</text>
    </g>
    <g
       class="stroked-text"
       id="g73999">
      <desc
         id="desc73865">150 mm</desc>
      <path
         d="m 128.2992,106.3619 v 1.1429"
         id="path73867" />
      <path
         d="m 128.2992,106.9333 h -2"
         id="path73869" />
      <path
         d="m 126.2992,106.9333 0.2858,0.1905"
         id="path73871" />
      <path
         d="m 126.585,107.1238 0.1904,0.1905"
         id="path73873" />
      <path
         d="m 126.7754,107.3143 0.0953,0.1905"
         id="path73875" />
      <path
         d="m 126.2992,104.5524 v 0.9524"
         id="path73877" />
      <path
         d="m 126.2992,105.5048 0.9524,0.0952"
         id="path73879" />
      <path
         d="m 127.2516,105.6 -0.0952,-0.0952"
         id="path73881" />
      <path
         d="m 127.1564,105.5048 -0.0953,-0.1905"
         id="path73883" />
      <path
         d="m 127.0611,105.3143 v -0.4762"
         id="path73885" />
      <path
         d="m 127.0611,104.8381 0.0953,-0.1905"
         id="path73887" />
      <path
         d="m 127.1564,104.6476 0.0952,-0.0952"
         id="path73889" />
      <path
         d="m 127.2516,104.5524 0.1905,-0.0953"
         id="path73891" />
      <path
         d="m 127.4421,104.4571 h 0.4762"
         id="path73893" />
      <path
         d="m 127.9183,104.4571 0.1905,0.0953"
         id="path73895" />
      <path
         d="m 128.1088,104.5524 0.0952,0.0952"
         id="path73897" />
      <path
         d="m 128.204,104.6476 0.0952,0.1905"
         id="path73899" />
      <path
         d="m 128.2992,104.8381 v 0.4762"
         id="path73901" />
      <path
         d="m 128.2992,105.3143 -0.0952,0.1905"
         id="path73903" />
      <path
         d="M 128.204,105.5048 128.1088,105.6"
         id="path73905" />
      <path
         d="m 126.2992,103.219 v -0.1904"
         id="path73907" />
      <path
         d="m 126.2992,103.0286 0.0953,-0.1905"
         id="path73909" />
      <path
         d="m 126.3945,102.8381 0.0952,-0.0952"
         id="path73911" />
      <path
         d="m 126.4897,102.7429 0.1905,-0.0953"
         id="path73913" />
      <path
         d="m 126.6802,102.6476 0.3809,-0.0952"
         id="path73915" />
      <path
         d="m 127.0611,102.5524 h 0.4762"
         id="path73917" />
      <path
         d="m 127.5373,102.5524 0.381,0.0952"
         id="path73919" />
      <path
         d="m 127.9183,102.6476 0.1905,0.0953"
         id="path73921" />
      <path
         d="m 128.1088,102.7429 0.0952,0.0952"
         id="path73923" />
      <path
         d="m 128.204,102.8381 0.0952,0.1905"
         id="path73925" />
      <path
         d="m 128.2992,103.0286 v 0.1904"
         id="path73927" />
      <path
         d="m 128.2992,103.219 -0.0952,0.1905"
         id="path73929" />
      <path
         d="m 128.204,103.4095 -0.0952,0.0953"
         id="path73931" />
      <path
         d="M 128.1088,103.5048 127.9183,103.6"
         id="path73933" />
      <path
         d="m 127.9183,103.6 -0.381,0.0952"
         id="path73935" />
      <path
         d="m 127.5373,103.6952 h -0.4762"
         id="path73937" />
      <path
         d="M 127.0611,103.6952 126.6802,103.6"
         id="path73939" />
      <path
         d="m 126.6802,103.6 -0.1905,-0.0952"
         id="path73941" />
      <path
         d="m 126.4897,103.5048 -0.0952,-0.0953"
         id="path73943" />
      <path
         d="m 126.3945,103.4095 -0.0953,-0.1905"
         id="path73945" />
      <path
         d="m 128.2992,100.1714 h -1.3333"
         id="path73947" />
      <path
         d="m 127.1564,100.1714 -0.0953,-0.0952"
         id="path73949" />
      <path
         d="m 127.0611,100.0762 -0.0952,-0.1905"
         id="path73951" />
      <path
         d="M 126.9659,99.8857 V 99.6"
         id="path73953" />
      <path
         d="m 126.9659,99.6 0.0952,-0.1905"
         id="path73955" />
      <path
         d="m 127.0611,99.4095 0.1905,-0.0952"
         id="path73957" />
      <path
         d="m 127.2516,99.3143 h 1.0476"
         id="path73959" />
      <path
         d="M 127.2516,99.3143 127.0611,99.219"
         id="path73961" />
      <path
         d="m 127.0611,99.219 -0.0952,-0.1904"
         id="path73963" />
      <path
         d="M 126.9659,99.0286 V 98.7429"
         id="path73965" />
      <path
         d="m 126.9659,98.7429 0.0952,-0.1905"
         id="path73967" />
      <path
         d="m 127.0611,98.5524 0.1905,-0.0953"
         id="path73969" />
      <path
         d="m 127.2516,98.4571 h 1.0476"
         id="path73971" />
      <path
         d="m 128.2992,97.5048 h -1.3333"
         id="path73973" />
      <path
         d="m 127.1564,97.5048 -0.0953,-0.0953"
         id="path73975" />
      <path
         d="M 127.0611,97.4095 126.9659,97.219"
         id="path73977" />
      <path
         d="M 126.9659,97.219 V 96.9333"
         id="path73979" />
      <path
         d="m 126.9659,96.9333 0.0952,-0.1904"
         id="path73981" />
      <path
         d="m 127.0611,96.7429 0.1905,-0.0953"
         id="path73983" />
      <path
         d="m 127.2516,96.6476 h 1.0476"
         id="path73985" />
      <path
         d="m 127.2516,96.6476 -0.1905,-0.0952"
         id="path73987" />
      <path
         d="m 127.0611,96.5524 -0.0952,-0.1905"
         id="path73989" />
      <path
         d="M 126.9659,96.3619 V 96.0762"
         id="path73991" />
      <path
         d="m 126.9659,96.0762 0.0952,-0.1905"
         id="path73993" />
      <path
         d="m 127.0611,95.8857 0.1905,-0.0952"
         id="path73995" />
      <path
         d="m 127.2516,95.7905 h 1.0476"
         id="path73997" />
    </g>
  </g>
  <g
     style="fill:#c2c2c2;fill-opacity:1;stroke:#c2c2c2;stroke-width:0;stroke-linecap:round;stroke-linejoin:round;stroke-opacity:1"
     id="g74007"
     transform="translate(-68.5492,-21.4)">
    <circle
       cx="127.4"
       cy="26.6"
       r="0.2"
       id="circle74003" />
    <circle
       cx="127.4"
       cy="176.60001"
       r="0.2"
       id="circle74005" />
  </g>
  <g
     style="fill:#c2c2c2;fill-opacity:1;stroke:#c2c2c2;stroke-width:0.4;stroke-linecap:round;stroke-linejoin:round;stroke-opacity:1"
     id="g74009"
     transform="translate(-68.5492,-21.4)" />
  <g
     style="fill:#c2c2c2;fill-opacity:0;stroke:#c2c2c2;stroke-width:0.4;stroke-linecap:round;stroke-linejoin:round;stroke-opacity:1"
     id="g74023"
     transform="translate(-68.5492,-21.4)">
    <path
       d="M 127.4,26.6 V 93.7643"
       id="path74011" />
    <path
       d="M 127.4,109.4357 V 176.6"
       id="path74013" />
    <path
       d="m 127.4,26.6 0.5864,1.1265"
       id="path74015" />
    <path
       d="m 127.4,26.6 -0.5864,1.1265"
       id="path74017" />
    <path
       d="m 127.4,176.6 -0.5864,-1.1265"
       id="path74019" />
    <path
       d="m 127.4,176.6 0.5864,-1.1265"
       id="path74021" />
  </g>
  <g
     style="fill:#c2c2c2;fill-opacity:0;stroke:#c2c2c2;stroke-width:0.5;stroke-linecap:round;stroke-linejoin:round;stroke-opacity:1"
     id="g74153"
     transform="translate(-68.5492,-21.4)">
    <text
       x="102.4"
       y="177.60001"
       textLength="11.7667"
       font-size="2.6667px"
       lengthAdjust="spacingAndGlyphs"
       text-anchor="middle"
       opacity="0"
       id="text74025">50 mm</text>
    <g
       class="stroked-text"
       id="g74151">
      <desc
         id="desc74027">50 mm</desc>
      <path
         d="M 98.4952,175.4992 H 97.5429"
         id="path74029" />
      <path
         d="m 97.5429,175.4992 -0.0953,0.9524"
         id="path74031" />
      <path
         d="m 97.4476,176.4516 0.0953,-0.0952"
         id="path74033" />
      <path
         d="m 97.5429,176.3564 0.1904,-0.0953"
         id="path74035" />
      <path
         d="m 97.7333,176.2611 h 0.4762"
         id="path74037" />
      <path
         d="M 98.2095,176.2611 98.4,176.3564"
         id="path74039" />
      <path
         d="m 98.4,176.3564 0.0952,0.0952"
         id="path74041" />
      <path
         d="m 98.4952,176.4516 0.0953,0.1905"
         id="path74043" />
      <path
         d="m 98.5905,176.6421 v 0.4762"
         id="path74045" />
      <path
         d="m 98.5905,177.1183 -0.0953,0.1905"
         id="path74047" />
      <path
         d="M 98.4952,177.3088 98.4,177.404"
         id="path74049" />
      <path
         d="m 98.4,177.404 -0.1905,0.0952"
         id="path74051" />
      <path
         d="M 98.2095,177.4992 H 97.7333"
         id="path74053" />
      <path
         d="M 97.7333,177.4992 97.5429,177.404"
         id="path74055" />
      <path
         d="m 97.5429,177.404 -0.0953,-0.0952"
         id="path74057" />
      <path
         d="m 99.8286,175.4992 h 0.1904"
         id="path74059" />
      <path
         d="m 100.019,175.4992 0.1905,0.0953"
         id="path74061" />
      <path
         d="m 100.2095,175.5945 0.0953,0.0952"
         id="path74063" />
      <path
         d="m 100.3048,175.6897 0.0952,0.1905"
         id="path74065" />
      <path
         d="m 100.4,175.8802 0.0952,0.3809"
         id="path74067" />
      <path
         d="m 100.4952,176.2611 v 0.4762"
         id="path74069" />
      <path
         d="m 100.4952,176.7373 -0.0952,0.381"
         id="path74071" />
      <path
         d="m 100.4,177.1183 -0.0952,0.1905"
         id="path74073" />
      <path
         d="m 100.3048,177.3088 -0.0953,0.0952"
         id="path74075" />
      <path
         d="m 100.2095,177.404 -0.1905,0.0952"
         id="path74077" />
      <path
         d="M 100.019,177.4992 H 99.8286"
         id="path74079" />
      <path
         d="M 99.8286,177.4992 99.6381,177.404"
         id="path74081" />
      <path
         d="m 99.6381,177.404 -0.0952,-0.0952"
         id="path74083" />
      <path
         d="m 99.5429,177.3088 -0.0953,-0.1905"
         id="path74085" />
      <path
         d="m 99.4476,177.1183 -0.0952,-0.381"
         id="path74087" />
      <path
         d="m 99.3524,176.7373 v -0.4762"
         id="path74089" />
      <path
         d="m 99.3524,176.2611 0.0952,-0.3809"
         id="path74091" />
      <path
         d="m 99.4476,175.8802 0.0953,-0.1905"
         id="path74093" />
      <path
         d="m 99.5429,175.6897 0.0952,-0.0952"
         id="path74095" />
      <path
         d="m 99.6381,175.5945 0.1905,-0.0953"
         id="path74097" />
      <path
         d="m 102.8762,177.4992 v -1.3333"
         id="path74099" />
      <path
         d="m 102.8762,176.3564 0.0952,-0.0953"
         id="path74101" />
      <path
         d="m 102.9714,176.2611 0.1905,-0.0952"
         id="path74103" />
      <path
         d="m 103.1619,176.1659 h 0.2857"
         id="path74105" />
      <path
         d="m 103.4476,176.1659 0.1905,0.0952"
         id="path74107" />
      <path
         d="m 103.6381,176.2611 0.0952,0.1905"
         id="path74109" />
      <path
         d="m 103.7333,176.4516 v 1.0476"
         id="path74111" />
      <path
         d="m 103.7333,176.4516 0.0953,-0.1905"
         id="path74113" />
      <path
         d="m 103.8286,176.2611 0.1904,-0.0952"
         id="path74115" />
      <path
         d="m 104.019,176.1659 h 0.2858"
         id="path74117" />
      <path
         d="m 104.3048,176.1659 0.1904,0.0952"
         id="path74119" />
      <path
         d="m 104.4952,176.2611 0.0953,0.1905"
         id="path74121" />
      <path
         d="m 104.5905,176.4516 v 1.0476"
         id="path74123" />
      <path
         d="m 105.5429,177.4992 v -1.3333"
         id="path74125" />
      <path
         d="m 105.5429,176.3564 0.0952,-0.0953"
         id="path74127" />
      <path
         d="m 105.6381,176.2611 0.1905,-0.0952"
         id="path74129" />
      <path
         d="m 105.8286,176.1659 h 0.2857"
         id="path74131" />
      <path
         d="m 106.1143,176.1659 0.1905,0.0952"
         id="path74133" />
      <path
         d="m 106.3048,176.2611 0.0952,0.1905"
         id="path74135" />
      <path
         d="m 106.4,176.4516 v 1.0476"
         id="path74137" />
      <path
         d="m 106.4,176.4516 0.0952,-0.1905"
         id="path74139" />
      <path
         d="m 106.4952,176.2611 0.1905,-0.0952"
         id="path74141" />
      <path
         d="m 106.6857,176.1659 h 0.2857"
         id="path74143" />
      <path
         d="m 106.9714,176.1659 0.1905,0.0952"
         id="path74145" />
      <path
         d="m 107.1619,176.2611 0.0952,0.1905"
         id="path74147" />
      <path
         d="m 107.2571,176.4516 v 1.0476"
         id="path74149" />
    </g>
  </g>
  <g
     style="fill:#c2c2c2;fill-opacity:1;stroke:#c2c2c2;stroke-width:0;stroke-linecap:round;stroke-linejoin:round;stroke-opacity:1"
     id="g74159"
     transform="translate(-68.5492,-21.4)">
    <circle
       cx="77.400002"
       cy="176.60001"
       r="0.2"
       id="circle74155" />
    <circle
       cx="127.4"
       cy="176.60001"
       r="0.2"
       id="circle74157" />
  </g>
  <g
     style="fill:#c2c2c2;fill-opacity:1;stroke:#c2c2c2;stroke-width:0.4;stroke-linecap:round;stroke-linejoin:round;stroke-opacity:1"
     id="g74161"
     transform="translate(-68.5492,-21.4)" />
  <g
     style="fill:#c2c2c2;fill-opacity:0;stroke:#c2c2c2;stroke-width:0.4;stroke-linecap:round;stroke-linejoin:round;stroke-opacity:1"
     id="g74395"
     transform="translate(-68.5492,-21.4)">
    <path
       d="M 77.4,176.6 H 95.5167"
       id="path74163" />
    <path
       d="M 109.2833,176.6 H 127.4"
       id="path74165" />
    <path
       d="m 77.4,176.6 1.1265,-0.5864"
       id="path74167" />
    <path
       d="m 77.4,176.6 1.1265,0.5864"
       id="path74169" />
    <path
       d="m 127.4,176.6 -1.1265,0.5864"
       id="path74171" />
    <path
       d="m 127.4,176.6 -1.1265,-0.5864"
       id="path74173" />
    <circle
       cx="127.4"
       cy="176.60001"
       r="1.6"
       id="circle74175" />
    <circle
       cx="77.400002"
       cy="26.6"
       r="1.6"
       id="circle74177" />
    <circle
       cx="127.4"
       cy="26.6"
       r="1.6"
       id="circle74179" />
    <circle
       cx="77.400002"
       cy="176.60001"
       r="1.6"
       id="circle74181" />
    <g
       id="g74183" />
    <g
       id="g74185" />
    <g
       id="g74187" />
    <g
       id="g74189" />
    <g
       id="g74191" />
    <g
       id="g74193" />
    <g
       id="g74195" />
    <g
       id="g74197" />
    <g
       id="g74199" />
    <g
       id="g74201" />
    <g
       id="g74203" />
    <g
       id="g74205" />
    <g
       id="g74207" />
    <g
       id="g74209" />
    <g
       id="g74211" />
    <g
       id="g74213" />
    <g
       id="g74215" />
    <g
       id="g74217" />
    <g
       id="g74219" />
    <g
       id="g74221" />
    <g
       id="g74223" />
    <g
       id="g74225" />
    <g
       id="g74227" />
    <g
       id="g74229" />
    <g
       id="g74231" />
    <g
       id="g74233" />
    <g
       id="g74235" />
    <g
       id="g74237" />
    <g
       id="g74239" />
    <g
       id="g74241" />
    <g
       id="g74243" />
    <g
       id="g74245" />
    <g
       id="g74247" />
    <g
       id="g74249" />
    <g
       id="g74251" />
    <g
       id="g74253" />
    <g
       id="g74255" />
    <g
       id="g74257" />
    <g
       id="g74259" />
    <g
       id="g74261" />
    <g
       id="g74263" />
    <g
       id="g74265" />
    <g
       id="g74267" />
    <g
       id="g74269" />
    <g
       id="g74271" />
    <g
       id="g74273" />
    <g
       id="g74275" />
    <g
       id="g74277" />
    <g
       id="g74279" />
    <g
       id="g74281" />
    <g
       id="g74283" />
    <g
       id="g74285" />
    <g
       id="g74287" />
    <g
       id="g74289" />
    <g
       id="g74291" />
    <g
       id="g74293" />
    <g
       id="g74295" />
    <g
       id="g74297" />
    <g
       id="g74299" />
    <g
       id="g74301" />
    <g
       id="g74303" />
    <g
       id="g74305" />
    <g
       id="g74307" />
    <g
       id="g74309" />
    <g
       id="g74311" />
    <g
       id="g74313" />
    <g
       id="g74315" />
    <g
       id="g74317" />
    <g
       id="g74319" />
    <g
       id="g74321" />
    <g
       id="g74323" />
    <g
       id="g74325" />
    <g
       id="g74327" />
    <g
       id="g74329" />
    <g
       id="g74331" />
    <g
       id="g74333" />
    <g
       id="g74335" />
    <g
       id="g74337" />
    <g
       id="g74339" />
    <g
       id="g74341" />
    <g
       id="g74343" />
    <g
       id="g74345" />
    <g
       id="g74347" />
    <g
       id="g74349" />
    <g
       id="g74351" />
    <g
       id="g74353" />
    <g
       id="g74355" />
    <g
       id="g74357" />
    <g
       id="g74359" />
    <g
       id="g74361" />
    <g
       id="g74363" />
    <g
       id="g74365" />
    <g
       id="g74367" />
    <g
       id="g74369" />
    <g
       id="g74371" />
    <g
       id="g74373" />
    <g
       id="g74375" />
    <g
       id="g74377" />
    <g
       id="g74379" />
    <g
       id="g74381" />
    <g
       id="g74383" />
    <g
       id="g74385" />
    <g
       id="g74387" />
    <g
       id="g74389" />
    <g
       id="g74391" />
    <g
       id="g74393" />
  </g>
  <g
     style="fill:#000000;fill-opacity:0;stroke:#000000;stroke-width:0.4;stroke-linecap:round;stroke-linejoin:round;stroke-opacity:1"
     id="g74397"
     transform="translate(-68.5492,-21.4)" />
  <g
     style="fill:#d0d2cd;fill-opacity:0;stroke:#d0d2cd;stroke-width:0.4;stroke-linecap:round;stroke-linejoin:round;stroke-opacity:1"
     id="g74399"
     transform="translate(-68.5492,-21.4)" />
  <g
     style="fill:#d0d2cd;fill-opacity:0;stroke:#d0d2cd;stroke-width:0.1;stroke-linecap:round;stroke-linejoin:round;stroke-opacity:1"
     id="g74629"
     transform="translate(-68.5492,-21.4)">
    <path
       d="m 77.4,21.6 a 5,5 0 0 0 -5,5"
       id="path74401" />
    <path
       d="M 72.4,176.6 V 26.6"
       id="path74403" />
    <path
       d="m 132.4,26.6 v 150"
       id="path74405" />
    <path
       d="m 127.4,181.6 a 5,5 0 0 0 5,-5"
       id="path74407" />
    <path
       d="m 132.4,26.6 a 5,5 0 0 0 -5,-5"
       id="path74409" />
    <path
       d="m 72.4,176.6 a 5,5 0 0 0 5,5"
       id="path74411" />
    <path
       d="m 127.4,181.6 h -50"
       id="path74413" />
    <path
       d="m 77.4,21.6 h 50"
       id="path74415" />
    <g
       id="g74417" />
    <g
       id="g74419" />
    <g
       id="g74421" />
    <g
       id="g74423" />
    <g
       id="g74425" />
    <g
       id="g74427" />
    <g
       id="g74429" />
    <g
       id="g74431" />
    <g
       id="g74433" />
    <g
       id="g74435" />
    <g
       id="g74437" />
    <g
       id="g74439" />
    <g
       id="g74441" />
    <g
       id="g74443" />
    <g
       id="g74445" />
    <g
       id="g74447" />
    <g
       id="g74449" />
    <g
       id="g74451" />
    <g
       id="g74453" />
    <g
       id="g74455" />
    <g
       id="g74457" />
    <g
       id="g74459" />
    <g
       id="g74461" />
    <g
       id="g74463" />
    <g
       id="g74465" />
    <g
       id="g74467" />
    <g
       id="g74469" />
    <g
       id="g74471" />
    <g
       id="g74473" />
    <g
       id="g74475" />
    <g
       id="g74477" />
    <g
       id="g74479" />
    <g
       id="g74481" />
    <g
       id="g74483" />
    <g
       id="g74485" />
    <g
       id="g74487" />
    <g
       id="g74489" />
    <g
       id="g74491" />
    <g
       id="g74493" />
    <g
       id="g74495" />
    <g
       id="g74497" />
    <g
       id="g74499" />
    <g
       id="g74501" />
    <g
       id="g74503" />
    <g
       id="g74505" />
    <g
       id="g74507" />
    <g
       id="g74509" />
    <g
       id="g74511" />
    <g
       id="g74513" />
    <g
       id="g74515" />
    <g
       id="g74517" />
    <g
       id="g74519" />
    <g
       id="g74521" />
    <g
       id="g74523" />
    <g
       id="g74525" />
    <g
       id="g74527" />
    <g
       id="g74529" />
    <g
       id="g74531" />
    <g
       id="g74533" />
    <g
       id="g74535" />
    <g
       id="g74537" />
    <g
       id="g74539" />
    <g
       id="g74541" />
    <g
       id="g74543" />
    <g
       id="g74545" />
    <g
       id="g74547" />
    <g
       id="g74549" />
    <g
       id="g74551" />
    <g
       id="g74553" />
    <g
       id="g74555" />
    <g
       id="g74557" />
    <g
       id="g74559" />
    <g
       id="g74561" />
    <g
       id="g74563" />
    <g
       id="g74565" />
    <g
       id="g74567" />
    <g
       id="g74569" />
    <g
       id="g74571" />
    <g
       id="g74573" />
    <g
       id="g74575" />
    <g
       id="g74577" />
    <g
       id="g74579" />
    <g
       id="g74581" />
    <g
       id="g74583" />
    <g
       id="g74585" />
    <g
       id="g74587" />
    <g
       id="g74589" />
    <g
       id="g74591" />
    <g
       id="g74593" />
    <g
       id="g74595" />
    <g
       id="g74597" />
    <g
       id="g74599" />
    <g
       id="g74601" />
    <g
       id="g74603" />
    <g
       id="g74605" />
    <g
       id="g74607" />
    <g
       id="g74609" />
    <g
       id="g74611" />
    <g
       id="g74613" />
    <g
       id="g74615" />
    <g
       id="g74617" />
    <g
       id="g74619" />
    <g
       id="g74621" />
    <g
       id="g74623" />
    <g
       id="g74625" />
    <g
       id="g74627" />
  </g>
</svg>
