<?xml version="1.0" encoding="UTF-8" standalone="no"?>
<svg
   version="1.1"
   width="64.050797mm"
   height="163.97667mm"
   viewBox="0 0 64.050797 163.97667"
   id="svg72618"
   xmlns="http://www.w3.org/2000/svg"
   xmlns:svg="http://www.w3.org/2000/svg">
  <defs
     id="defs72622" />
  <title
     id="title71222">SVG Image created as cluster-pcb-User_Drawings.svg date 2024/09/13 15:16:44 </title>
  <desc
     id="desc71224">Image generated by PCBNEW </desc>
  <g
     style="fill:#000000;fill-opacity:1;stroke:#000000;stroke-linecap:round;stroke-linejoin:round;stroke-opacity:1"
     id="g71226"
     transform="translate(-68.5492,-21.4)" />
  <g
     style="fill:#000000;fill-opacity:0;stroke:#000000;stroke-width:0;stroke-linecap:round;stroke-linejoin:round;stroke-opacity:1"
     id="g71228"
     transform="translate(-68.5492,-21.4)" />
  <g
     style="fill:#c2c2c2;fill-opacity:0;stroke:#c2c2c2;stroke-width:0;stroke-linecap:round;stroke-linejoin:round;stroke-opacity:1"
     id="g71230"
     transform="translate(-68.5492,-21.4)" />
  <g
     style="fill:#c2c2c2;fill-opacity:0;stroke:#c2c2c2;stroke-width:0.4;stroke-linecap:round;stroke-linejoin:round;stroke-opacity:1"
     id="g71256"
     transform="translate(-68.5492,-21.4)">
    <path
       style="fill:none;fill-opacity:0;stroke:#c2c2c2;stroke-width:0.4;stroke-linecap:round;stroke-linejoin:round;stroke-opacity:1"
       d="m 82.4,21.6 h 20 v 75 h -20 z"
       id="path71232" />
    <path
       d="m 132.4,26.6 v 150"
       id="path71234" />
    <path
       d="m 77.4,21.6 a 5,5 0 0 0 -5,5"
       id="path71236" />
    <path
       d="m 77.4,21.6 h 50"
       id="path71238" />
    <path
       d="m 94.9,101.6 h 15"
       id="path71240" />
    <path
       d="M 72.4,176.6 V 26.6"
       id="path71242" />
    <path
       d="m 127.4,181.6 a 5,5 0 0 0 5,-5"
       id="path71244" />
    <path
       d="m 102.4,109.1 v -15"
       id="path71246" />
    <path
       d="m 92.4,94.1 v -70"
       id="path71248" />
    <path
       d="m 132.4,26.6 a 5,5 0 0 0 -5,-5"
       id="path71250" />
    <path
       d="m 127.4,181.6 h -50"
       id="path71252" />
    <path
       d="m 72.4,176.6 a 5,5 0 0 0 5,5"
       id="path71254" />
  </g>
  <g
     style="fill:#c2c2c2;fill-opacity:0;stroke:#c2c2c2;stroke-width:0.5;stroke-linecap:round;stroke-linejoin:round;stroke-opacity:1"
     id="g71372"
     transform="translate(-68.5492,-21.4)">
    <text
       x="87.400002"
       y="172.60001"
       textLength="12.719"
       font-size="2.6667px"
       lengthAdjust="spacingAndGlyphs"
       text-anchor="middle"
       opacity="0"
       id="text71258">3.2 mm</text>
    <g
       class="stroked-text"
       id="g71370">
      <desc
         id="desc71260">3.2 mm</desc>
      <path
         d="m 81.8762,170.4992 h 1.2381"
         id="path71262" />
      <path
         d="m 83.1143,170.4992 -0.6667,0.7619"
         id="path71264" />
      <path
         d="m 82.4476,171.2611 h 0.2857"
         id="path71266" />
      <path
         d="m 82.7333,171.2611 0.1905,0.0953"
         id="path71268" />
      <path
         d="m 82.9238,171.3564 0.0952,0.0952"
         id="path71270" />
      <path
         d="m 83.019,171.4516 0.0953,0.1905"
         id="path71272" />
      <path
         d="m 83.1143,171.6421 v 0.4762"
         id="path71274" />
      <path
         d="m 83.1143,172.1183 -0.0953,0.1905"
         id="path71276" />
      <path
         d="m 83.019,172.3088 -0.0952,0.0952"
         id="path71278" />
      <path
         d="m 82.9238,172.404 -0.1905,0.0952"
         id="path71280" />
      <path
         d="M 82.7333,172.4992 H 82.1619"
         id="path71282" />
      <path
         d="M 82.1619,172.4992 81.9714,172.404"
         id="path71284" />
      <path
         d="m 81.9714,172.404 -0.0952,-0.0952"
         id="path71286" />
      <path
         d="m 83.9714,172.3088 0.0953,0.0952"
         id="path71288" />
      <path
         d="m 84.0667,172.404 -0.0953,0.0952"
         id="path71290" />
      <path
         d="M 83.9714,172.4992 83.8762,172.404"
         id="path71292" />
      <path
         d="m 83.8762,172.404 0.0952,-0.0952"
         id="path71294" />
      <path
         d="m 83.9714,172.3088 v 0.1904"
         id="path71296" />
      <path
         d="m 84.8286,170.6897 0.0952,-0.0952"
         id="path71298" />
      <path
         d="m 84.9238,170.5945 0.1905,-0.0953"
         id="path71300" />
      <path
         d="m 85.1143,170.4992 h 0.4762"
         id="path71302" />
      <path
         d="m 85.5905,170.4992 0.1905,0.0953"
         id="path71304" />
      <path
         d="m 85.781,170.5945 0.0952,0.0952"
         id="path71306" />
      <path
         d="m 85.8762,170.6897 0.0952,0.1905"
         id="path71308" />
      <path
         d="m 85.9714,170.8802 v 0.1905"
         id="path71310" />
      <path
         d="m 85.9714,171.0707 -0.0952,0.2857"
         id="path71312" />
      <path
         d="m 85.8762,171.3564 -1.1429,1.1428"
         id="path71314" />
      <path
         d="m 84.7333,172.4992 h 1.2381"
         id="path71316" />
      <path
         d="m 88.3524,172.4992 v -1.3333"
         id="path71318" />
      <path
         d="m 88.3524,171.3564 0.0952,-0.0953"
         id="path71320" />
      <path
         d="m 88.4476,171.2611 0.1905,-0.0952"
         id="path71322" />
      <path
         d="m 88.6381,171.1659 h 0.2857"
         id="path71324" />
      <path
         d="m 88.9238,171.1659 0.1905,0.0952"
         id="path71326" />
      <path
         d="m 89.1143,171.2611 0.0952,0.1905"
         id="path71328" />
      <path
         d="m 89.2095,171.4516 v 1.0476"
         id="path71330" />
      <path
         d="m 89.2095,171.4516 0.0953,-0.1905"
         id="path71332" />
      <path
         d="m 89.3048,171.2611 0.1904,-0.0952"
         id="path71334" />
      <path
         d="M 89.4952,171.1659 H 89.781"
         id="path71336" />
      <path
         d="m 89.781,171.1659 0.1904,0.0952"
         id="path71338" />
      <path
         d="m 89.9714,171.2611 0.0953,0.1905"
         id="path71340" />
      <path
         d="m 90.0667,171.4516 v 1.0476"
         id="path71342" />
      <path
         d="m 91.019,172.4992 v -1.3333"
         id="path71344" />
      <path
         d="m 91.019,171.3564 0.0953,-0.0953"
         id="path71346" />
      <path
         d="m 91.1143,171.2611 0.1905,-0.0952"
         id="path71348" />
      <path
         d="m 91.3048,171.1659 h 0.2857"
         id="path71350" />
      <path
         d="m 91.5905,171.1659 0.1905,0.0952"
         id="path71352" />
      <path
         d="m 91.781,171.2611 0.0952,0.1905"
         id="path71354" />
      <path
         d="m 91.8762,171.4516 v 1.0476"
         id="path71356" />
      <path
         d="m 91.8762,171.4516 0.0952,-0.1905"
         id="path71358" />
      <path
         d="m 91.9714,171.2611 0.1905,-0.0952"
         id="path71360" />
      <path
         d="m 92.1619,171.1659 h 0.2857"
         id="path71362" />
      <path
         d="m 92.4476,171.1659 0.1905,0.0952"
         id="path71364" />
      <path
         d="m 92.6381,171.2611 0.0952,0.1905"
         id="path71366" />
      <path
         d="m 92.7333,171.4516 v 1.0476"
         id="path71368" />
    </g>
  </g>
  <g
     style="fill:#c2c2c2;fill-opacity:0;stroke:#c2c2c2;stroke-width:0.4;stroke-linecap:round;stroke-linejoin:round;stroke-opacity:1"
     id="g71390"
     transform="translate(-68.5492,-21.4)">
    <path
       d="m 75.8,176.1 v -5.0864"
       id="path71374" />
    <path
       d="M 79,171.0136 V 176.1"
       id="path71376" />
    <path
       d="M 75.8,171.6 H 79"
       id="path71378" />
    <path
       d="M 75.8,171.6 H 79"
       id="path71380" />
    <path
       d="m 75.8,171.6 1.1265,-0.5864"
       id="path71382" />
    <path
       d="m 75.8,171.6 1.1265,0.5864"
       id="path71384" />
    <path
       d="m 79,171.6 -1.1265,0.5864"
       id="path71386" />
    <path
       d="m 79,171.6 -1.1265,-0.5864"
       id="path71388" />
  </g>
  <g
     style="fill:#c2c2c2;fill-opacity:0;stroke:#c2c2c2;stroke-width:0.5;stroke-linecap:round;stroke-linejoin:round;stroke-opacity:1"
     id="g71500"
     transform="translate(-68.5492,-21.4)">
    <text
       x="97.400002"
       y="120.1"
       textLength="11.7667"
       font-size="2.6667px"
       lengthAdjust="spacingAndGlyphs"
       text-anchor="middle"
       opacity="0"
       id="text71392">10 mm</text>
    <g
       class="stroked-text"
       id="g71498">
      <desc
         id="desc71394">10 mm</desc>
      <path
         d="M 93.5905,119.9992 H 92.4476"
         id="path71396" />
      <path
         d="m 93.019,119.9992 v -2"
         id="path71398" />
      <path
         d="m 93.019,117.9992 -0.1904,0.2858"
         id="path71400" />
      <path
         d="m 92.8286,118.285 -0.1905,0.1904"
         id="path71402" />
      <path
         d="m 92.6381,118.4754 -0.1905,0.0953"
         id="path71404" />
      <path
         d="M 94.8286,117.9992 H 95.019"
         id="path71406" />
      <path
         d="m 95.019,117.9992 0.1905,0.0953"
         id="path71408" />
      <path
         d="m 95.2095,118.0945 0.0953,0.0952"
         id="path71410" />
      <path
         d="M 95.3048,118.1897 95.4,118.3802"
         id="path71412" />
      <path
         d="m 95.4,118.3802 0.0952,0.3809"
         id="path71414" />
      <path
         d="m 95.4952,118.7611 v 0.4762"
         id="path71416" />
      <path
         d="M 95.4952,119.2373 95.4,119.6183"
         id="path71418" />
      <path
         d="m 95.4,119.6183 -0.0952,0.1905"
         id="path71420" />
      <path
         d="m 95.3048,119.8088 -0.0953,0.0952"
         id="path71422" />
      <path
         d="m 95.2095,119.904 -0.1905,0.0952"
         id="path71424" />
      <path
         d="M 95.019,119.9992 H 94.8286"
         id="path71426" />
      <path
         d="M 94.8286,119.9992 94.6381,119.904"
         id="path71428" />
      <path
         d="m 94.6381,119.904 -0.0952,-0.0952"
         id="path71430" />
      <path
         d="m 94.5429,119.8088 -0.0953,-0.1905"
         id="path71432" />
      <path
         d="m 94.4476,119.6183 -0.0952,-0.381"
         id="path71434" />
      <path
         d="m 94.3524,119.2373 v -0.4762"
         id="path71436" />
      <path
         d="m 94.3524,118.7611 0.0952,-0.3809"
         id="path71438" />
      <path
         d="m 94.4476,118.3802 0.0953,-0.1905"
         id="path71440" />
      <path
         d="m 94.5429,118.1897 0.0952,-0.0952"
         id="path71442" />
      <path
         d="m 94.6381,118.0945 0.1905,-0.0953"
         id="path71444" />
      <path
         d="m 97.8762,119.9992 v -1.3333"
         id="path71446" />
      <path
         d="m 97.8762,118.8564 0.0952,-0.0953"
         id="path71448" />
      <path
         d="m 97.9714,118.7611 0.1905,-0.0952"
         id="path71450" />
      <path
         d="m 98.1619,118.6659 h 0.2857"
         id="path71452" />
      <path
         d="m 98.4476,118.6659 0.1905,0.0952"
         id="path71454" />
      <path
         d="m 98.6381,118.7611 0.0952,0.1905"
         id="path71456" />
      <path
         d="m 98.7333,118.9516 v 1.0476"
         id="path71458" />
      <path
         d="m 98.7333,118.9516 0.0953,-0.1905"
         id="path71460" />
      <path
         d="m 98.8286,118.7611 0.1904,-0.0952"
         id="path71462" />
      <path
         d="m 99.019,118.6659 h 0.2858"
         id="path71464" />
      <path
         d="m 99.3048,118.6659 0.1904,0.0952"
         id="path71466" />
      <path
         d="m 99.4952,118.7611 0.0953,0.1905"
         id="path71468" />
      <path
         d="m 99.5905,118.9516 v 1.0476"
         id="path71470" />
      <path
         d="m 100.5429,119.9992 v -1.3333"
         id="path71472" />
      <path
         d="m 100.5429,118.8564 0.0952,-0.0953"
         id="path71474" />
      <path
         d="m 100.6381,118.7611 0.1905,-0.0952"
         id="path71476" />
      <path
         d="m 100.8286,118.6659 h 0.2857"
         id="path71478" />
      <path
         d="m 101.1143,118.6659 0.1905,0.0952"
         id="path71480" />
      <path
         d="m 101.3048,118.7611 0.0952,0.1905"
         id="path71482" />
      <path
         d="m 101.4,118.9516 v 1.0476"
         id="path71484" />
      <path
         d="m 101.4,118.9516 0.0952,-0.1905"
         id="path71486" />
      <path
         d="m 101.4952,118.7611 0.1905,-0.0952"
         id="path71488" />
      <path
         d="m 101.6857,118.6659 h 0.2857"
         id="path71490" />
      <path
         d="m 101.9714,118.6659 0.1905,0.0952"
         id="path71492" />
      <path
         d="m 102.1619,118.7611 0.0952,0.1905"
         id="path71494" />
      <path
         d="m 102.2571,118.9516 v 1.0476"
         id="path71496" />
    </g>
  </g>
  <g
     style="fill:#c2c2c2;fill-opacity:0;stroke:#c2c2c2;stroke-width:0.4;stroke-linecap:round;stroke-linejoin:round;stroke-opacity:1"
     id="g71514"
     transform="translate(-68.5492,-21.4)">
    <path
       d="m 92.4,102.1 v 15.0864"
       id="path71502" />
    <path
       d="M 102.4,117.1864 V 102.1"
       id="path71504" />
    <path
       d="m 92.4,116.6 1.1265,-0.5864"
       id="path71506" />
    <path
       d="m 92.4,116.6 1.1265,0.5864"
       id="path71508" />
    <path
       d="m 102.4,116.6 -1.1265,0.5864"
       id="path71510" />
    <path
       d="m 102.4,116.6 -1.1265,-0.5864"
       id="path71512" />
  </g>
  <g
     style="fill:#c2c2c2;fill-opacity:0;stroke:#c2c2c2;stroke-width:0.5;stroke-linecap:round;stroke-linejoin:round;stroke-opacity:1"
     id="g71656"
     transform="translate(-68.5492,-21.4)">
    <text
       x="102.4"
       y="185.10001"
       textLength="11.7667"
       font-size="2.6667px"
       lengthAdjust="spacingAndGlyphs"
       text-anchor="middle"
       opacity="0"
       id="text71516">60 mm</text>
    <g
       class="stroked-text"
       id="g71654">
      <desc
         id="desc71518">60 mm</desc>
      <path
         d="M 98.4,182.9992 H 98.019"
         id="path71520" />
      <path
         d="m 98.019,182.9992 -0.1904,0.0953"
         id="path71522" />
      <path
         d="m 97.8286,183.0945 -0.0953,0.0952"
         id="path71524" />
      <path
         d="m 97.7333,183.1897 -0.1904,0.2857"
         id="path71526" />
      <path
         d="m 97.5429,183.4754 -0.0953,0.381"
         id="path71528" />
      <path
         d="m 97.4476,183.8564 v 0.7619"
         id="path71530" />
      <path
         d="m 97.4476,184.6183 0.0953,0.1905"
         id="path71532" />
      <path
         d="m 97.5429,184.8088 0.0952,0.0952"
         id="path71534" />
      <path
         d="m 97.6381,184.904 0.1905,0.0952"
         id="path71536" />
      <path
         d="m 97.8286,184.9992 h 0.3809"
         id="path71538" />
      <path
         d="M 98.2095,184.9992 98.4,184.904"
         id="path71540" />
      <path
         d="m 98.4,184.904 0.0952,-0.0952"
         id="path71542" />
      <path
         d="m 98.4952,184.8088 0.0953,-0.1905"
         id="path71544" />
      <path
         d="m 98.5905,184.6183 v -0.4762"
         id="path71546" />
      <path
         d="m 98.5905,184.1421 -0.0953,-0.1905"
         id="path71548" />
      <path
         d="M 98.4952,183.9516 98.4,183.8564"
         id="path71550" />
      <path
         d="m 98.4,183.8564 -0.1905,-0.0953"
         id="path71552" />
      <path
         d="M 98.2095,183.7611 H 97.8286"
         id="path71554" />
      <path
         d="m 97.8286,183.7611 -0.1905,0.0953"
         id="path71556" />
      <path
         d="m 97.6381,183.8564 -0.0952,0.0952"
         id="path71558" />
      <path
         d="m 97.5429,183.9516 -0.0953,0.1905"
         id="path71560" />
      <path
         d="m 99.8286,182.9992 h 0.1904"
         id="path71562" />
      <path
         d="m 100.019,182.9992 0.1905,0.0953"
         id="path71564" />
      <path
         d="m 100.2095,183.0945 0.0953,0.0952"
         id="path71566" />
      <path
         d="m 100.3048,183.1897 0.0952,0.1905"
         id="path71568" />
      <path
         d="m 100.4,183.3802 0.0952,0.3809"
         id="path71570" />
      <path
         d="m 100.4952,183.7611 v 0.4762"
         id="path71572" />
      <path
         d="m 100.4952,184.2373 -0.0952,0.381"
         id="path71574" />
      <path
         d="m 100.4,184.6183 -0.0952,0.1905"
         id="path71576" />
      <path
         d="m 100.3048,184.8088 -0.0953,0.0952"
         id="path71578" />
      <path
         d="m 100.2095,184.904 -0.1905,0.0952"
         id="path71580" />
      <path
         d="M 100.019,184.9992 H 99.8286"
         id="path71582" />
      <path
         d="M 99.8286,184.9992 99.6381,184.904"
         id="path71584" />
      <path
         d="m 99.6381,184.904 -0.0952,-0.0952"
         id="path71586" />
      <path
         d="m 99.5429,184.8088 -0.0953,-0.1905"
         id="path71588" />
      <path
         d="m 99.4476,184.6183 -0.0952,-0.381"
         id="path71590" />
      <path
         d="m 99.3524,184.2373 v -0.4762"
         id="path71592" />
      <path
         d="m 99.3524,183.7611 0.0952,-0.3809"
         id="path71594" />
      <path
         d="m 99.4476,183.3802 0.0953,-0.1905"
         id="path71596" />
      <path
         d="m 99.5429,183.1897 0.0952,-0.0952"
         id="path71598" />
      <path
         d="m 99.6381,183.0945 0.1905,-0.0953"
         id="path71600" />
      <path
         d="m 102.8762,184.9992 v -1.3333"
         id="path71602" />
      <path
         d="m 102.8762,183.8564 0.0952,-0.0953"
         id="path71604" />
      <path
         d="m 102.9714,183.7611 0.1905,-0.0952"
         id="path71606" />
      <path
         d="m 103.1619,183.6659 h 0.2857"
         id="path71608" />
      <path
         d="m 103.4476,183.6659 0.1905,0.0952"
         id="path71610" />
      <path
         d="m 103.6381,183.7611 0.0952,0.1905"
         id="path71612" />
      <path
         d="m 103.7333,183.9516 v 1.0476"
         id="path71614" />
      <path
         d="m 103.7333,183.9516 0.0953,-0.1905"
         id="path71616" />
      <path
         d="m 103.8286,183.7611 0.1904,-0.0952"
         id="path71618" />
      <path
         d="m 104.019,183.6659 h 0.2858"
         id="path71620" />
      <path
         d="m 104.3048,183.6659 0.1904,0.0952"
         id="path71622" />
      <path
         d="m 104.4952,183.7611 0.0953,0.1905"
         id="path71624" />
      <path
         d="m 104.5905,183.9516 v 1.0476"
         id="path71626" />
      <path
         d="m 105.5429,184.9992 v -1.3333"
         id="path71628" />
      <path
         d="m 105.5429,183.8564 0.0952,-0.0953"
         id="path71630" />
      <path
         d="m 105.6381,183.7611 0.1905,-0.0952"
         id="path71632" />
      <path
         d="m 105.8286,183.6659 h 0.2857"
         id="path71634" />
      <path
         d="m 106.1143,183.6659 0.1905,0.0952"
         id="path71636" />
      <path
         d="m 106.3048,183.7611 0.0952,0.1905"
         id="path71638" />
      <path
         d="m 106.4,183.9516 v 1.0476"
         id="path71640" />
      <path
         d="m 106.4,183.9516 0.0952,-0.1905"
         id="path71642" />
      <path
         d="m 106.4952,183.7611 0.1905,-0.0952"
         id="path71644" />
      <path
         d="m 106.6857,183.6659 h 0.2857"
         id="path71646" />
      <path
         d="m 106.9714,183.6659 0.1905,0.0952"
         id="path71648" />
      <path
         d="m 107.1619,183.7611 0.0952,0.1905"
         id="path71650" />
      <path
         d="m 107.2571,183.9516 v 1.0476"
         id="path71652" />
    </g>
  </g>
  <g
     style="fill:#c2c2c2;fill-opacity:0;stroke:#c2c2c2;stroke-width:0.4;stroke-linecap:round;stroke-linejoin:round;stroke-opacity:1"
     id="g71674"
     transform="translate(-68.5492,-21.4)">
    <path
       d="m 132.4,177.1 v 7.5864"
       id="path71658" />
    <path
       d="M 72.4,184.6864 V 177.6"
       id="path71660" />
    <path
       d="M 132.4,184.1 H 109.2833"
       id="path71662" />
    <path
       d="M 95.5167,184.1 H 72.4"
       id="path71664" />
    <path
       d="m 132.4,184.1 -1.1265,0.5864"
       id="path71666" />
    <path
       d="m 132.4,184.1 -1.1265,-0.5864"
       id="path71668" />
    <path
       d="m 72.4,184.1 1.1265,-0.5864"
       id="path71670" />
    <path
       d="m 72.4,184.1 1.1265,0.5864"
       id="path71672" />
  </g>
  <g
     style="fill:#c2c2c2;fill-opacity:0;stroke:#c2c2c2;stroke-width:0.5;stroke-linecap:round;stroke-linejoin:round;stroke-opacity:1"
     id="g71828"
     transform="translate(-68.5492,-21.4)">
    <g
       transform="rotate(-90,69.9,101.6)"
       id="g71678">
      <text
         x="69.900002"
         y="102.6"
         textLength="13.6714"
         font-size="2.6667px"
         lengthAdjust="spacingAndGlyphs"
         text-anchor="middle"
         opacity="0"
         id="text71676">160 mm</text>
    </g>
    <g
       class="stroked-text"
       id="g71826">
      <desc
         id="desc71680">160 mm</desc>
      <path
         d="m 70.7992,106.3619 v 1.1429"
         id="path71682" />
      <path
         d="m 70.7992,106.9333 h -2"
         id="path71684" />
      <path
         d="m 68.7992,106.9333 0.2858,0.1905"
         id="path71686" />
      <path
         d="m 69.085,107.1238 0.1904,0.1905"
         id="path71688" />
      <path
         d="m 69.2754,107.3143 0.0953,0.1905"
         id="path71690" />
      <path
         d="m 68.7992,104.6476 v 0.381"
         id="path71692" />
      <path
         d="m 68.7992,105.0286 0.0953,0.1904"
         id="path71694" />
      <path
         d="m 68.8945,105.219 0.0952,0.0953"
         id="path71696" />
      <path
         d="m 68.9897,105.3143 0.2857,0.1905"
         id="path71698" />
      <path
         d="m 69.2754,105.5048 0.381,0.0952"
         id="path71700" />
      <path
         d="m 69.6564,105.6 h 0.7619"
         id="path71702" />
      <path
         d="m 70.4183,105.6 0.1905,-0.0952"
         id="path71704" />
      <path
         d="m 70.6088,105.5048 0.0952,-0.0953"
         id="path71706" />
      <path
         d="m 70.704,105.4095 0.0952,-0.1905"
         id="path71708" />
      <path
         d="m 70.7992,105.219 v -0.3809"
         id="path71710" />
      <path
         d="M 70.7992,104.8381 70.704,104.6476"
         id="path71712" />
      <path
         d="m 70.704,104.6476 -0.0952,-0.0952"
         id="path71714" />
      <path
         d="m 70.6088,104.5524 -0.1905,-0.0953"
         id="path71716" />
      <path
         d="M 70.4183,104.4571 H 69.9421"
         id="path71718" />
      <path
         d="m 69.9421,104.4571 -0.1905,0.0953"
         id="path71720" />
      <path
         d="m 69.7516,104.5524 -0.0952,0.0952"
         id="path71722" />
      <path
         d="m 69.6564,104.6476 -0.0953,0.1905"
         id="path71724" />
      <path
         d="m 69.5611,104.8381 v 0.3809"
         id="path71726" />
      <path
         d="m 69.5611,105.219 0.0953,0.1905"
         id="path71728" />
      <path
         d="m 69.6564,105.4095 0.0952,0.0953"
         id="path71730" />
      <path
         d="M 69.7516,105.5048 69.9421,105.6"
         id="path71732" />
      <path
         d="m 68.7992,103.219 v -0.1904"
         id="path71734" />
      <path
         d="m 68.7992,103.0286 0.0953,-0.1905"
         id="path71736" />
      <path
         d="m 68.8945,102.8381 0.0952,-0.0952"
         id="path71738" />
      <path
         d="m 68.9897,102.7429 0.1905,-0.0953"
         id="path71740" />
      <path
         d="m 69.1802,102.6476 0.3809,-0.0952"
         id="path71742" />
      <path
         d="m 69.5611,102.5524 h 0.4762"
         id="path71744" />
      <path
         d="m 70.0373,102.5524 0.381,0.0952"
         id="path71746" />
      <path
         d="m 70.4183,102.6476 0.1905,0.0953"
         id="path71748" />
      <path
         d="m 70.6088,102.7429 0.0952,0.0952"
         id="path71750" />
      <path
         d="m 70.704,102.8381 0.0952,0.1905"
         id="path71752" />
      <path
         d="m 70.7992,103.0286 v 0.1904"
         id="path71754" />
      <path
         d="m 70.7992,103.219 -0.0952,0.1905"
         id="path71756" />
      <path
         d="m 70.704,103.4095 -0.0952,0.0953"
         id="path71758" />
      <path
         d="M 70.6088,103.5048 70.4183,103.6"
         id="path71760" />
      <path
         d="m 70.4183,103.6 -0.381,0.0952"
         id="path71762" />
      <path
         d="M 70.0373,103.6952 H 69.5611"
         id="path71764" />
      <path
         d="M 69.5611,103.6952 69.1802,103.6"
         id="path71766" />
      <path
         d="m 69.1802,103.6 -0.1905,-0.0952"
         id="path71768" />
      <path
         d="m 68.9897,103.5048 -0.0952,-0.0953"
         id="path71770" />
      <path
         d="M 68.8945,103.4095 68.7992,103.219"
         id="path71772" />
      <path
         d="M 70.7992,100.1714 H 69.4659"
         id="path71774" />
      <path
         d="m 69.6564,100.1714 -0.0953,-0.0952"
         id="path71776" />
      <path
         d="M 69.5611,100.0762 69.4659,99.8857"
         id="path71778" />
      <path
         d="M 69.4659,99.8857 V 99.6"
         id="path71780" />
      <path
         d="m 69.4659,99.6 0.0952,-0.1905"
         id="path71782" />
      <path
         d="m 69.5611,99.4095 0.1905,-0.0952"
         id="path71784" />
      <path
         d="m 69.7516,99.3143 h 1.0476"
         id="path71786" />
      <path
         d="M 69.7516,99.3143 69.5611,99.219"
         id="path71788" />
      <path
         d="M 69.5611,99.219 69.4659,99.0286"
         id="path71790" />
      <path
         d="M 69.4659,99.0286 V 98.7429"
         id="path71792" />
      <path
         d="m 69.4659,98.7429 0.0952,-0.1905"
         id="path71794" />
      <path
         d="m 69.5611,98.5524 0.1905,-0.0953"
         id="path71796" />
      <path
         d="m 69.7516,98.4571 h 1.0476"
         id="path71798" />
      <path
         d="M 70.7992,97.5048 H 69.4659"
         id="path71800" />
      <path
         d="M 69.6564,97.5048 69.5611,97.4095"
         id="path71802" />
      <path
         d="M 69.5611,97.4095 69.4659,97.219"
         id="path71804" />
      <path
         d="M 69.4659,97.219 V 96.9333"
         id="path71806" />
      <path
         d="m 69.4659,96.9333 0.0952,-0.1904"
         id="path71808" />
      <path
         d="m 69.5611,96.7429 0.1905,-0.0953"
         id="path71810" />
      <path
         d="m 69.7516,96.6476 h 1.0476"
         id="path71812" />
      <path
         d="M 69.7516,96.6476 69.5611,96.5524"
         id="path71814" />
      <path
         d="M 69.5611,96.5524 69.4659,96.3619"
         id="path71816" />
      <path
         d="M 69.4659,96.3619 V 96.0762"
         id="path71818" />
      <path
         d="m 69.4659,96.0762 0.0952,-0.1905"
         id="path71820" />
      <path
         d="m 69.5611,95.8857 0.1905,-0.0952"
         id="path71822" />
      <path
         d="m 69.7516,95.7905 h 1.0476"
         id="path71824" />
    </g>
  </g>
  <g
     style="fill:#c2c2c2;fill-opacity:0;stroke:#c2c2c2;stroke-width:0.4;stroke-linecap:round;stroke-linejoin:round;stroke-opacity:1"
     id="g71846"
     transform="translate(-68.5492,-21.4)">
    <path
       d="M 76.9,21.6 H 69.3136"
       id="path71830" />
    <path
       d="M 69.3136,181.6 H 76.9"
       id="path71832" />
    <path
       d="M 69.9,21.6 V 93.7643"
       id="path71834" />
    <path
       d="M 69.9,109.4357 V 181.6"
       id="path71836" />
    <path
       d="m 69.9,21.6 0.5864,1.1265"
       id="path71838" />
    <path
       d="m 69.9,21.6 -0.5864,1.1265"
       id="path71840" />
    <path
       d="m 69.9,181.6 -0.5864,-1.1265"
       id="path71842" />
    <path
       d="m 69.9,181.6 0.5864,-1.1265"
       id="path71844" />
  </g>
  <g
     style="fill:#c2c2c2;fill-opacity:0;stroke:#c2c2c2;stroke-width:0.5;stroke-linecap:round;stroke-linejoin:round;stroke-opacity:1"
     id="g71988"
     transform="translate(-68.5492,-21.4)">
    <g
       transform="rotate(-90,127.4,101.6)"
       id="g71850">
      <text
         x="127.4"
         y="102.6"
         textLength="13.6714"
         font-size="2.6667px"
         lengthAdjust="spacingAndGlyphs"
         text-anchor="middle"
         opacity="0"
         id="text71848">150 mm</text>
    </g>
    <g
       class="stroked-text"
       id="g71986">
      <desc
         id="desc71852">150 mm</desc>
      <path
         d="m 128.2992,106.3619 v 1.1429"
         id="path71854" />
      <path
         d="m 128.2992,106.9333 h -2"
         id="path71856" />
      <path
         d="m 126.2992,106.9333 0.2858,0.1905"
         id="path71858" />
      <path
         d="m 126.585,107.1238 0.1904,0.1905"
         id="path71860" />
      <path
         d="m 126.7754,107.3143 0.0953,0.1905"
         id="path71862" />
      <path
         d="m 126.2992,104.5524 v 0.9524"
         id="path71864" />
      <path
         d="m 126.2992,105.5048 0.9524,0.0952"
         id="path71866" />
      <path
         d="m 127.2516,105.6 -0.0952,-0.0952"
         id="path71868" />
      <path
         d="m 127.1564,105.5048 -0.0953,-0.1905"
         id="path71870" />
      <path
         d="m 127.0611,105.3143 v -0.4762"
         id="path71872" />
      <path
         d="m 127.0611,104.8381 0.0953,-0.1905"
         id="path71874" />
      <path
         d="m 127.1564,104.6476 0.0952,-0.0952"
         id="path71876" />
      <path
         d="m 127.2516,104.5524 0.1905,-0.0953"
         id="path71878" />
      <path
         d="m 127.4421,104.4571 h 0.4762"
         id="path71880" />
      <path
         d="m 127.9183,104.4571 0.1905,0.0953"
         id="path71882" />
      <path
         d="m 128.1088,104.5524 0.0952,0.0952"
         id="path71884" />
      <path
         d="m 128.204,104.6476 0.0952,0.1905"
         id="path71886" />
      <path
         d="m 128.2992,104.8381 v 0.4762"
         id="path71888" />
      <path
         d="m 128.2992,105.3143 -0.0952,0.1905"
         id="path71890" />
      <path
         d="M 128.204,105.5048 128.1088,105.6"
         id="path71892" />
      <path
         d="m 126.2992,103.219 v -0.1904"
         id="path71894" />
      <path
         d="m 126.2992,103.0286 0.0953,-0.1905"
         id="path71896" />
      <path
         d="m 126.3945,102.8381 0.0952,-0.0952"
         id="path71898" />
      <path
         d="m 126.4897,102.7429 0.1905,-0.0953"
         id="path71900" />
      <path
         d="m 126.6802,102.6476 0.3809,-0.0952"
         id="path71902" />
      <path
         d="m 127.0611,102.5524 h 0.4762"
         id="path71904" />
      <path
         d="m 127.5373,102.5524 0.381,0.0952"
         id="path71906" />
      <path
         d="m 127.9183,102.6476 0.1905,0.0953"
         id="path71908" />
      <path
         d="m 128.1088,102.7429 0.0952,0.0952"
         id="path71910" />
      <path
         d="m 128.204,102.8381 0.0952,0.1905"
         id="path71912" />
      <path
         d="m 128.2992,103.0286 v 0.1904"
         id="path71914" />
      <path
         d="m 128.2992,103.219 -0.0952,0.1905"
         id="path71916" />
      <path
         d="m 128.204,103.4095 -0.0952,0.0953"
         id="path71918" />
      <path
         d="M 128.1088,103.5048 127.9183,103.6"
         id="path71920" />
      <path
         d="m 127.9183,103.6 -0.381,0.0952"
         id="path71922" />
      <path
         d="m 127.5373,103.6952 h -0.4762"
         id="path71924" />
      <path
         d="M 127.0611,103.6952 126.6802,103.6"
         id="path71926" />
      <path
         d="m 126.6802,103.6 -0.1905,-0.0952"
         id="path71928" />
      <path
         d="m 126.4897,103.5048 -0.0952,-0.0953"
         id="path71930" />
      <path
         d="m 126.3945,103.4095 -0.0953,-0.1905"
         id="path71932" />
      <path
         d="m 128.2992,100.1714 h -1.3333"
         id="path71934" />
      <path
         d="m 127.1564,100.1714 -0.0953,-0.0952"
         id="path71936" />
      <path
         d="m 127.0611,100.0762 -0.0952,-0.1905"
         id="path71938" />
      <path
         d="M 126.9659,99.8857 V 99.6"
         id="path71940" />
      <path
         d="m 126.9659,99.6 0.0952,-0.1905"
         id="path71942" />
      <path
         d="m 127.0611,99.4095 0.1905,-0.0952"
         id="path71944" />
      <path
         d="m 127.2516,99.3143 h 1.0476"
         id="path71946" />
      <path
         d="M 127.2516,99.3143 127.0611,99.219"
         id="path71948" />
      <path
         d="m 127.0611,99.219 -0.0952,-0.1904"
         id="path71950" />
      <path
         d="M 126.9659,99.0286 V 98.7429"
         id="path71952" />
      <path
         d="m 126.9659,98.7429 0.0952,-0.1905"
         id="path71954" />
      <path
         d="m 127.0611,98.5524 0.1905,-0.0953"
         id="path71956" />
      <path
         d="m 127.2516,98.4571 h 1.0476"
         id="path71958" />
      <path
         d="m 128.2992,97.5048 h -1.3333"
         id="path71960" />
      <path
         d="m 127.1564,97.5048 -0.0953,-0.0953"
         id="path71962" />
      <path
         d="M 127.0611,97.4095 126.9659,97.219"
         id="path71964" />
      <path
         d="M 126.9659,97.219 V 96.9333"
         id="path71966" />
      <path
         d="m 126.9659,96.9333 0.0952,-0.1904"
         id="path71968" />
      <path
         d="m 127.0611,96.7429 0.1905,-0.0953"
         id="path71970" />
      <path
         d="m 127.2516,96.6476 h 1.0476"
         id="path71972" />
      <path
         d="m 127.2516,96.6476 -0.1905,-0.0952"
         id="path71974" />
      <path
         d="m 127.0611,96.5524 -0.0952,-0.1905"
         id="path71976" />
      <path
         d="M 126.9659,96.3619 V 96.0762"
         id="path71978" />
      <path
         d="m 126.9659,96.0762 0.0952,-0.1905"
         id="path71980" />
      <path
         d="m 127.0611,95.8857 0.1905,-0.0952"
         id="path71982" />
      <path
         d="m 127.2516,95.7905 h 1.0476"
         id="path71984" />
    </g>
  </g>
  <g
     style="fill:#c2c2c2;fill-opacity:1;stroke:#c2c2c2;stroke-width:0;stroke-linecap:round;stroke-linejoin:round;stroke-opacity:1"
     id="g71994"
     transform="translate(-68.5492,-21.4)">
    <circle
       cx="127.4"
       cy="26.6"
       r="0.2"
       id="circle71990" />
    <circle
       cx="127.4"
       cy="176.60001"
       r="0.2"
       id="circle71992" />
  </g>
  <g
     style="fill:#c2c2c2;fill-opacity:1;stroke:#c2c2c2;stroke-width:0.4;stroke-linecap:round;stroke-linejoin:round;stroke-opacity:1"
     id="g71996"
     transform="translate(-68.5492,-21.4)" />
  <g
     style="fill:#c2c2c2;fill-opacity:0;stroke:#c2c2c2;stroke-width:0.4;stroke-linecap:round;stroke-linejoin:round;stroke-opacity:1"
     id="g72010"
     transform="translate(-68.5492,-21.4)">
    <path
       d="M 127.4,26.6 V 93.7643"
       id="path71998" />
    <path
       d="M 127.4,109.4357 V 176.6"
       id="path72000" />
    <path
       d="m 127.4,26.6 0.5864,1.1265"
       id="path72002" />
    <path
       d="m 127.4,26.6 -0.5864,1.1265"
       id="path72004" />
    <path
       d="m 127.4,176.6 -0.5864,-1.1265"
       id="path72006" />
    <path
       d="m 127.4,176.6 0.5864,-1.1265"
       id="path72008" />
  </g>
  <g
     style="fill:#c2c2c2;fill-opacity:0;stroke:#c2c2c2;stroke-width:0.5;stroke-linecap:round;stroke-linejoin:round;stroke-opacity:1"
     id="g72140"
     transform="translate(-68.5492,-21.4)">
    <text
       x="102.4"
       y="177.60001"
       textLength="11.7667"
       font-size="2.6667px"
       lengthAdjust="spacingAndGlyphs"
       text-anchor="middle"
       opacity="0"
       id="text72012">50 mm</text>
    <g
       class="stroked-text"
       id="g72138">
      <desc
         id="desc72014">50 mm</desc>
      <path
         d="M 98.4952,175.4992 H 97.5429"
         id="path72016" />
      <path
         d="m 97.5429,175.4992 -0.0953,0.9524"
         id="path72018" />
      <path
         d="m 97.4476,176.4516 0.0953,-0.0952"
         id="path72020" />
      <path
         d="m 97.5429,176.3564 0.1904,-0.0953"
         id="path72022" />
      <path
         d="m 97.7333,176.2611 h 0.4762"
         id="path72024" />
      <path
         d="M 98.2095,176.2611 98.4,176.3564"
         id="path72026" />
      <path
         d="m 98.4,176.3564 0.0952,0.0952"
         id="path72028" />
      <path
         d="m 98.4952,176.4516 0.0953,0.1905"
         id="path72030" />
      <path
         d="m 98.5905,176.6421 v 0.4762"
         id="path72032" />
      <path
         d="m 98.5905,177.1183 -0.0953,0.1905"
         id="path72034" />
      <path
         d="M 98.4952,177.3088 98.4,177.404"
         id="path72036" />
      <path
         d="m 98.4,177.404 -0.1905,0.0952"
         id="path72038" />
      <path
         d="M 98.2095,177.4992 H 97.7333"
         id="path72040" />
      <path
         d="M 97.7333,177.4992 97.5429,177.404"
         id="path72042" />
      <path
         d="m 97.5429,177.404 -0.0953,-0.0952"
         id="path72044" />
      <path
         d="m 99.8286,175.4992 h 0.1904"
         id="path72046" />
      <path
         d="m 100.019,175.4992 0.1905,0.0953"
         id="path72048" />
      <path
         d="m 100.2095,175.5945 0.0953,0.0952"
         id="path72050" />
      <path
         d="m 100.3048,175.6897 0.0952,0.1905"
         id="path72052" />
      <path
         d="m 100.4,175.8802 0.0952,0.3809"
         id="path72054" />
      <path
         d="m 100.4952,176.2611 v 0.4762"
         id="path72056" />
      <path
         d="m 100.4952,176.7373 -0.0952,0.381"
         id="path72058" />
      <path
         d="m 100.4,177.1183 -0.0952,0.1905"
         id="path72060" />
      <path
         d="m 100.3048,177.3088 -0.0953,0.0952"
         id="path72062" />
      <path
         d="m 100.2095,177.404 -0.1905,0.0952"
         id="path72064" />
      <path
         d="M 100.019,177.4992 H 99.8286"
         id="path72066" />
      <path
         d="M 99.8286,177.4992 99.6381,177.404"
         id="path72068" />
      <path
         d="m 99.6381,177.404 -0.0952,-0.0952"
         id="path72070" />
      <path
         d="m 99.5429,177.3088 -0.0953,-0.1905"
         id="path72072" />
      <path
         d="m 99.4476,177.1183 -0.0952,-0.381"
         id="path72074" />
      <path
         d="m 99.3524,176.7373 v -0.4762"
         id="path72076" />
      <path
         d="m 99.3524,176.2611 0.0952,-0.3809"
         id="path72078" />
      <path
         d="m 99.4476,175.8802 0.0953,-0.1905"
         id="path72080" />
      <path
         d="m 99.5429,175.6897 0.0952,-0.0952"
         id="path72082" />
      <path
         d="m 99.6381,175.5945 0.1905,-0.0953"
         id="path72084" />
      <path
         d="m 102.8762,177.4992 v -1.3333"
         id="path72086" />
      <path
         d="m 102.8762,176.3564 0.0952,-0.0953"
         id="path72088" />
      <path
         d="m 102.9714,176.2611 0.1905,-0.0952"
         id="path72090" />
      <path
         d="m 103.1619,176.1659 h 0.2857"
         id="path72092" />
      <path
         d="m 103.4476,176.1659 0.1905,0.0952"
         id="path72094" />
      <path
         d="m 103.6381,176.2611 0.0952,0.1905"
         id="path72096" />
      <path
         d="m 103.7333,176.4516 v 1.0476"
         id="path72098" />
      <path
         d="m 103.7333,176.4516 0.0953,-0.1905"
         id="path72100" />
      <path
         d="m 103.8286,176.2611 0.1904,-0.0952"
         id="path72102" />
      <path
         d="m 104.019,176.1659 h 0.2858"
         id="path72104" />
      <path
         d="m 104.3048,176.1659 0.1904,0.0952"
         id="path72106" />
      <path
         d="m 104.4952,176.2611 0.0953,0.1905"
         id="path72108" />
      <path
         d="m 104.5905,176.4516 v 1.0476"
         id="path72110" />
      <path
         d="m 105.5429,177.4992 v -1.3333"
         id="path72112" />
      <path
         d="m 105.5429,176.3564 0.0952,-0.0953"
         id="path72114" />
      <path
         d="m 105.6381,176.2611 0.1905,-0.0952"
         id="path72116" />
      <path
         d="m 105.8286,176.1659 h 0.2857"
         id="path72118" />
      <path
         d="m 106.1143,176.1659 0.1905,0.0952"
         id="path72120" />
      <path
         d="m 106.3048,176.2611 0.0952,0.1905"
         id="path72122" />
      <path
         d="m 106.4,176.4516 v 1.0476"
         id="path72124" />
      <path
         d="m 106.4,176.4516 0.0952,-0.1905"
         id="path72126" />
      <path
         d="m 106.4952,176.2611 0.1905,-0.0952"
         id="path72128" />
      <path
         d="m 106.6857,176.1659 h 0.2857"
         id="path72130" />
      <path
         d="m 106.9714,176.1659 0.1905,0.0952"
         id="path72132" />
      <path
         d="m 107.1619,176.2611 0.0952,0.1905"
         id="path72134" />
      <path
         d="m 107.2571,176.4516 v 1.0476"
         id="path72136" />
    </g>
  </g>
  <g
     style="fill:#c2c2c2;fill-opacity:1;stroke:#c2c2c2;stroke-width:0;stroke-linecap:round;stroke-linejoin:round;stroke-opacity:1"
     id="g72146"
     transform="translate(-68.5492,-21.4)">
    <circle
       cx="77.400002"
       cy="176.60001"
       r="0.2"
       id="circle72142" />
    <circle
       cx="127.4"
       cy="176.60001"
       r="0.2"
       id="circle72144" />
  </g>
  <g
     style="fill:#c2c2c2;fill-opacity:1;stroke:#c2c2c2;stroke-width:0.4;stroke-linecap:round;stroke-linejoin:round;stroke-opacity:1"
     id="g72148"
     transform="translate(-68.5492,-21.4)" />
  <g
     style="fill:#c2c2c2;fill-opacity:0;stroke:#c2c2c2;stroke-width:0.4;stroke-linecap:round;stroke-linejoin:round;stroke-opacity:1"
     id="g72382"
     transform="translate(-68.5492,-21.4)">
    <path
       d="M 77.4,176.6 H 95.5167"
       id="path72150" />
    <path
       d="M 109.2833,176.6 H 127.4"
       id="path72152" />
    <path
       d="m 77.4,176.6 1.1265,-0.5864"
       id="path72154" />
    <path
       d="m 77.4,176.6 1.1265,0.5864"
       id="path72156" />
    <path
       d="m 127.4,176.6 -1.1265,0.5864"
       id="path72158" />
    <path
       d="m 127.4,176.6 -1.1265,-0.5864"
       id="path72160" />
    <circle
       cx="127.4"
       cy="176.60001"
       r="1.6"
       id="circle72162" />
    <circle
       cx="77.400002"
       cy="26.6"
       r="1.6"
       id="circle72164" />
    <circle
       cx="127.4"
       cy="26.6"
       r="1.6"
       id="circle72166" />
    <circle
       cx="77.400002"
       cy="176.60001"
       r="1.6"
       id="circle72168" />
    <g
       id="g72170" />
    <g
       id="g72172" />
    <g
       id="g72174" />
    <g
       id="g72176" />
    <g
       id="g72178" />
    <g
       id="g72180" />
    <g
       id="g72182" />
    <g
       id="g72184" />
    <g
       id="g72186" />
    <g
       id="g72188" />
    <g
       id="g72190" />
    <g
       id="g72192" />
    <g
       id="g72194" />
    <g
       id="g72196" />
    <g
       id="g72198" />
    <g
       id="g72200" />
    <g
       id="g72202" />
    <g
       id="g72204" />
    <g
       id="g72206" />
    <g
       id="g72208" />
    <g
       id="g72210" />
    <g
       id="g72212" />
    <g
       id="g72214" />
    <g
       id="g72216" />
    <g
       id="g72218" />
    <g
       id="g72220" />
    <g
       id="g72222" />
    <g
       id="g72224" />
    <g
       id="g72226" />
    <g
       id="g72228" />
    <g
       id="g72230" />
    <g
       id="g72232" />
    <g
       id="g72234" />
    <g
       id="g72236" />
    <g
       id="g72238" />
    <g
       id="g72240" />
    <g
       id="g72242" />
    <g
       id="g72244" />
    <g
       id="g72246" />
    <g
       id="g72248" />
    <g
       id="g72250" />
    <g
       id="g72252" />
    <g
       id="g72254" />
    <g
       id="g72256" />
    <g
       id="g72258" />
    <g
       id="g72260" />
    <g
       id="g72262" />
    <g
       id="g72264" />
    <g
       id="g72266" />
    <g
       id="g72268" />
    <g
       id="g72270" />
    <g
       id="g72272" />
    <g
       id="g72274" />
    <g
       id="g72276" />
    <g
       id="g72278" />
    <g
       id="g72280" />
    <g
       id="g72282" />
    <g
       id="g72284" />
    <g
       id="g72286" />
    <g
       id="g72288" />
    <g
       id="g72290" />
    <g
       id="g72292" />
    <g
       id="g72294" />
    <g
       id="g72296" />
    <g
       id="g72298" />
    <g
       id="g72300" />
    <g
       id="g72302" />
    <g
       id="g72304" />
    <g
       id="g72306" />
    <g
       id="g72308" />
    <g
       id="g72310" />
    <g
       id="g72312" />
    <g
       id="g72314" />
    <g
       id="g72316" />
    <g
       id="g72318" />
    <g
       id="g72320" />
    <g
       id="g72322" />
    <g
       id="g72324" />
    <g
       id="g72326" />
    <g
       id="g72328" />
    <g
       id="g72330" />
    <g
       id="g72332" />
    <g
       id="g72334" />
    <g
       id="g72336" />
    <g
       id="g72338" />
    <g
       id="g72340" />
    <g
       id="g72342" />
    <g
       id="g72344" />
    <g
       id="g72346" />
    <g
       id="g72348" />
    <g
       id="g72350" />
    <g
       id="g72352" />
    <g
       id="g72354" />
    <g
       id="g72356" />
    <g
       id="g72358" />
    <g
       id="g72360" />
    <g
       id="g72362" />
    <g
       id="g72364" />
    <g
       id="g72366" />
    <g
       id="g72368" />
    <g
       id="g72370" />
    <g
       id="g72372" />
    <g
       id="g72374" />
    <g
       id="g72376" />
    <g
       id="g72378" />
    <g
       id="g72380" />
  </g>
  <g
     style="fill:#000000;fill-opacity:0;stroke:#000000;stroke-width:0.4;stroke-linecap:round;stroke-linejoin:round;stroke-opacity:1"
     id="g72384"
     transform="translate(-68.5492,-21.4)" />
  <g
     style="fill:#d0d2cd;fill-opacity:0;stroke:#d0d2cd;stroke-width:0.4;stroke-linecap:round;stroke-linejoin:round;stroke-opacity:1"
     id="g72386"
     transform="translate(-68.5492,-21.4)" />
  <g
     style="fill:#d0d2cd;fill-opacity:0;stroke:#d0d2cd;stroke-width:0.1;stroke-linecap:round;stroke-linejoin:round;stroke-opacity:1"
     id="g72616"
     transform="translate(-68.5492,-21.4)">
    <path
       d="m 77.4,21.6 a 5,5 0 0 0 -5,5"
       id="path72388" />
    <path
       d="M 72.4,176.6 V 26.6"
       id="path72390" />
    <path
       d="m 132.4,26.6 v 150"
       id="path72392" />
    <path
       d="m 127.4,181.6 a 5,5 0 0 0 5,-5"
       id="path72394" />
    <path
       d="m 132.4,26.6 a 5,5 0 0 0 -5,-5"
       id="path72396" />
    <path
       d="m 72.4,176.6 a 5,5 0 0 0 5,5"
       id="path72398" />
    <path
       d="m 127.4,181.6 h -50"
       id="path72400" />
    <path
       d="m 77.4,21.6 h 50"
       id="path72402" />
    <g
       id="g72404" />
    <g
       id="g72406" />
    <g
       id="g72408" />
    <g
       id="g72410" />
    <g
       id="g72412" />
    <g
       id="g72414" />
    <g
       id="g72416" />
    <g
       id="g72418" />
    <g
       id="g72420" />
    <g
       id="g72422" />
    <g
       id="g72424" />
    <g
       id="g72426" />
    <g
       id="g72428" />
    <g
       id="g72430" />
    <g
       id="g72432" />
    <g
       id="g72434" />
    <g
       id="g72436" />
    <g
       id="g72438" />
    <g
       id="g72440" />
    <g
       id="g72442" />
    <g
       id="g72444" />
    <g
       id="g72446" />
    <g
       id="g72448" />
    <g
       id="g72450" />
    <g
       id="g72452" />
    <g
       id="g72454" />
    <g
       id="g72456" />
    <g
       id="g72458" />
    <g
       id="g72460" />
    <g
       id="g72462" />
    <g
       id="g72464" />
    <g
       id="g72466" />
    <g
       id="g72468" />
    <g
       id="g72470" />
    <g
       id="g72472" />
    <g
       id="g72474" />
    <g
       id="g72476" />
    <g
       id="g72478" />
    <g
       id="g72480" />
    <g
       id="g72482" />
    <g
       id="g72484" />
    <g
       id="g72486" />
    <g
       id="g72488" />
    <g
       id="g72490" />
    <g
       id="g72492" />
    <g
       id="g72494" />
    <g
       id="g72496" />
    <g
       id="g72498" />
    <g
       id="g72500" />
    <g
       id="g72502" />
    <g
       id="g72504" />
    <g
       id="g72506" />
    <g
       id="g72508" />
    <g
       id="g72510" />
    <g
       id="g72512" />
    <g
       id="g72514" />
    <g
       id="g72516" />
    <g
       id="g72518" />
    <g
       id="g72520" />
    <g
       id="g72522" />
    <g
       id="g72524" />
    <g
       id="g72526" />
    <g
       id="g72528" />
    <g
       id="g72530" />
    <g
       id="g72532" />
    <g
       id="g72534" />
    <g
       id="g72536" />
    <g
       id="g72538" />
    <g
       id="g72540" />
    <g
       id="g72542" />
    <g
       id="g72544" />
    <g
       id="g72546" />
    <g
       id="g72548" />
    <g
       id="g72550" />
    <g
       id="g72552" />
    <g
       id="g72554" />
    <g
       id="g72556" />
    <g
       id="g72558" />
    <g
       id="g72560" />
    <g
       id="g72562" />
    <g
       id="g72564" />
    <g
       id="g72566" />
    <g
       id="g72568" />
    <g
       id="g72570" />
    <g
       id="g72572" />
    <g
       id="g72574" />
    <g
       id="g72576" />
    <g
       id="g72578" />
    <g
       id="g72580" />
    <g
       id="g72582" />
    <g
       id="g72584" />
    <g
       id="g72586" />
    <g
       id="g72588" />
    <g
       id="g72590" />
    <g
       id="g72592" />
    <g
       id="g72594" />
    <g
       id="g72596" />
    <g
       id="g72598" />
    <g
       id="g72600" />
    <g
       id="g72602" />
    <g
       id="g72604" />
    <g
       id="g72606" />
    <g
       id="g72608" />
    <g
       id="g72610" />
    <g
       id="g72612" />
    <g
       id="g72614" />
  </g>
</svg>
