<?xml version="1.0" encoding="UTF-8" standalone="no"?>
<svg
   version="1.1"
   width="64.050797mm"
   height="163.97667mm"
   viewBox="0 0 64.050797 163.97667"
   id="svg47191"
   xmlns="http://www.w3.org/2000/svg"
   xmlns:svg="http://www.w3.org/2000/svg">
  <defs
     id="defs47195" />
  <title
     id="title45899">SVG Image created as cluster-pcb-User_Drawings.svg date 2024/07/26 17:37:40 </title>
  <desc
     id="desc45901">Image generated by PCBNEW </desc>
  <g
     style="fill:#000000;fill-opacity:1;stroke:#000000;stroke-linecap:round;stroke-linejoin:round;stroke-opacity:1"
     id="g45903"
     transform="translate(-68.5492,-21.4)" />
  <g
     style="fill:#000000;fill-opacity:0;stroke:#000000;stroke-width:0;stroke-linecap:round;stroke-linejoin:round;stroke-opacity:1"
     id="g45905"
     transform="translate(-68.5492,-21.4)" />
  <g
     style="fill:#c2c2c2;fill-opacity:0;stroke:#c2c2c2;stroke-width:0;stroke-linecap:round;stroke-linejoin:round;stroke-opacity:1"
     id="g45907"
     transform="translate(-68.5492,-21.4)" />
  <g
     style="fill:#c2c2c2;fill-opacity:0;stroke:#c2c2c2;stroke-width:0.4;stroke-linecap:round;stroke-linejoin:round;stroke-opacity:1"
     id="g45933"
     transform="translate(-68.5492,-21.4)">
    <path
       style="fill:none;fill-opacity:0;stroke:#c2c2c2;stroke-width:0.4;stroke-linecap:round;stroke-linejoin:round;stroke-opacity:1"
       d="m 82.4,21.6 h 20 v 75 h -20 z"
       id="path45909" />
    <path
       d="m 132.4,26.6 v 150"
       id="path45911" />
    <path
       d="m 77.4,21.6 a 5,5 0 0 0 -5,5"
       id="path45913" />
    <path
       d="m 77.4,21.6 h 50"
       id="path45915" />
    <path
       d="m 94.9,101.6 h 15"
       id="path45917" />
    <path
       d="M 72.4,176.6 V 26.6"
       id="path45919" />
    <path
       d="m 127.4,181.6 a 5,5 0 0 0 5,-5"
       id="path45921" />
    <path
       d="m 102.4,109.1 v -15"
       id="path45923" />
    <path
       d="m 92.4,94.1 v -70"
       id="path45925" />
    <path
       d="m 132.4,26.6 a 5,5 0 0 0 -5,-5"
       id="path45927" />
    <path
       d="m 127.4,181.6 h -50"
       id="path45929" />
    <path
       d="m 72.4,176.6 a 5,5 0 0 0 5,5"
       id="path45931" />
  </g>
  <g
     style="fill:#c2c2c2;fill-opacity:0;stroke:#c2c2c2;stroke-width:0.5;stroke-linecap:round;stroke-linejoin:round;stroke-opacity:1"
     id="g46049"
     transform="translate(-68.5492,-21.4)">
    <text
       x="87.400002"
       y="172.60001"
       textLength="12.719"
       font-size="2.6667px"
       lengthAdjust="spacingAndGlyphs"
       text-anchor="middle"
       opacity="0"
       id="text45935">3.2 mm</text>
    <g
       class="stroked-text"
       id="g46047">
      <desc
         id="desc45937">3.2 mm</desc>
      <path
         d="m 81.8762,170.4992 h 1.2381"
         id="path45939" />
      <path
         d="m 83.1143,170.4992 -0.6667,0.7619"
         id="path45941" />
      <path
         d="m 82.4476,171.2611 h 0.2857"
         id="path45943" />
      <path
         d="m 82.7333,171.2611 0.1905,0.0953"
         id="path45945" />
      <path
         d="m 82.9238,171.3564 0.0952,0.0952"
         id="path45947" />
      <path
         d="m 83.019,171.4516 0.0953,0.1905"
         id="path45949" />
      <path
         d="m 83.1143,171.6421 v 0.4762"
         id="path45951" />
      <path
         d="m 83.1143,172.1183 -0.0953,0.1905"
         id="path45953" />
      <path
         d="m 83.019,172.3088 -0.0952,0.0952"
         id="path45955" />
      <path
         d="m 82.9238,172.404 -0.1905,0.0952"
         id="path45957" />
      <path
         d="M 82.7333,172.4992 H 82.1619"
         id="path45959" />
      <path
         d="M 82.1619,172.4992 81.9714,172.404"
         id="path45961" />
      <path
         d="m 81.9714,172.404 -0.0952,-0.0952"
         id="path45963" />
      <path
         d="m 83.9714,172.3088 0.0953,0.0952"
         id="path45965" />
      <path
         d="m 84.0667,172.404 -0.0953,0.0952"
         id="path45967" />
      <path
         d="M 83.9714,172.4992 83.8762,172.404"
         id="path45969" />
      <path
         d="m 83.8762,172.404 0.0952,-0.0952"
         id="path45971" />
      <path
         d="m 83.9714,172.3088 v 0.1904"
         id="path45973" />
      <path
         d="m 84.8286,170.6897 0.0952,-0.0952"
         id="path45975" />
      <path
         d="m 84.9238,170.5945 0.1905,-0.0953"
         id="path45977" />
      <path
         d="m 85.1143,170.4992 h 0.4762"
         id="path45979" />
      <path
         d="m 85.5905,170.4992 0.1905,0.0953"
         id="path45981" />
      <path
         d="m 85.781,170.5945 0.0952,0.0952"
         id="path45983" />
      <path
         d="m 85.8762,170.6897 0.0952,0.1905"
         id="path45985" />
      <path
         d="m 85.9714,170.8802 v 0.1905"
         id="path45987" />
      <path
         d="m 85.9714,171.0707 -0.0952,0.2857"
         id="path45989" />
      <path
         d="m 85.8762,171.3564 -1.1429,1.1428"
         id="path45991" />
      <path
         d="m 84.7333,172.4992 h 1.2381"
         id="path45993" />
      <path
         d="m 88.3524,172.4992 v -1.3333"
         id="path45995" />
      <path
         d="m 88.3524,171.3564 0.0952,-0.0953"
         id="path45997" />
      <path
         d="m 88.4476,171.2611 0.1905,-0.0952"
         id="path45999" />
      <path
         d="m 88.6381,171.1659 h 0.2857"
         id="path46001" />
      <path
         d="m 88.9238,171.1659 0.1905,0.0952"
         id="path46003" />
      <path
         d="m 89.1143,171.2611 0.0952,0.1905"
         id="path46005" />
      <path
         d="m 89.2095,171.4516 v 1.0476"
         id="path46007" />
      <path
         d="m 89.2095,171.4516 0.0953,-0.1905"
         id="path46009" />
      <path
         d="m 89.3048,171.2611 0.1904,-0.0952"
         id="path46011" />
      <path
         d="M 89.4952,171.1659 H 89.781"
         id="path46013" />
      <path
         d="m 89.781,171.1659 0.1904,0.0952"
         id="path46015" />
      <path
         d="m 89.9714,171.2611 0.0953,0.1905"
         id="path46017" />
      <path
         d="m 90.0667,171.4516 v 1.0476"
         id="path46019" />
      <path
         d="m 91.019,172.4992 v -1.3333"
         id="path46021" />
      <path
         d="m 91.019,171.3564 0.0953,-0.0953"
         id="path46023" />
      <path
         d="m 91.1143,171.2611 0.1905,-0.0952"
         id="path46025" />
      <path
         d="m 91.3048,171.1659 h 0.2857"
         id="path46027" />
      <path
         d="m 91.5905,171.1659 0.1905,0.0952"
         id="path46029" />
      <path
         d="m 91.781,171.2611 0.0952,0.1905"
         id="path46031" />
      <path
         d="m 91.8762,171.4516 v 1.0476"
         id="path46033" />
      <path
         d="m 91.8762,171.4516 0.0952,-0.1905"
         id="path46035" />
      <path
         d="m 91.9714,171.2611 0.1905,-0.0952"
         id="path46037" />
      <path
         d="m 92.1619,171.1659 h 0.2857"
         id="path46039" />
      <path
         d="m 92.4476,171.1659 0.1905,0.0952"
         id="path46041" />
      <path
         d="m 92.6381,171.2611 0.0952,0.1905"
         id="path46043" />
      <path
         d="m 92.7333,171.4516 v 1.0476"
         id="path46045" />
    </g>
  </g>
  <g
     style="fill:#c2c2c2;fill-opacity:0;stroke:#c2c2c2;stroke-width:0.4;stroke-linecap:round;stroke-linejoin:round;stroke-opacity:1"
     id="g46067"
     transform="translate(-68.5492,-21.4)">
    <path
       d="m 75.8,176.1 v -5.0864"
       id="path46051" />
    <path
       d="M 79,171.0136 V 176.1"
       id="path46053" />
    <path
       d="M 75.8,171.6 H 79"
       id="path46055" />
    <path
       d="M 75.8,171.6 H 79"
       id="path46057" />
    <path
       d="m 75.8,171.6 1.1265,-0.5864"
       id="path46059" />
    <path
       d="m 75.8,171.6 1.1265,0.5864"
       id="path46061" />
    <path
       d="m 79,171.6 -1.1265,0.5864"
       id="path46063" />
    <path
       d="m 79,171.6 -1.1265,-0.5864"
       id="path46065" />
  </g>
  <g
     style="fill:#c2c2c2;fill-opacity:0;stroke:#c2c2c2;stroke-width:0.5;stroke-linecap:round;stroke-linejoin:round;stroke-opacity:1"
     id="g46177"
     transform="translate(-68.5492,-21.4)">
    <text
       x="97.400002"
       y="120.1"
       textLength="11.7667"
       font-size="2.6667px"
       lengthAdjust="spacingAndGlyphs"
       text-anchor="middle"
       opacity="0"
       id="text46069">10 mm</text>
    <g
       class="stroked-text"
       id="g46175">
      <desc
         id="desc46071">10 mm</desc>
      <path
         d="M 93.5905,119.9992 H 92.4476"
         id="path46073" />
      <path
         d="m 93.019,119.9992 v -2"
         id="path46075" />
      <path
         d="m 93.019,117.9992 -0.1904,0.2858"
         id="path46077" />
      <path
         d="m 92.8286,118.285 -0.1905,0.1904"
         id="path46079" />
      <path
         d="m 92.6381,118.4754 -0.1905,0.0953"
         id="path46081" />
      <path
         d="M 94.8286,117.9992 H 95.019"
         id="path46083" />
      <path
         d="m 95.019,117.9992 0.1905,0.0953"
         id="path46085" />
      <path
         d="m 95.2095,118.0945 0.0953,0.0952"
         id="path46087" />
      <path
         d="M 95.3048,118.1897 95.4,118.3802"
         id="path46089" />
      <path
         d="m 95.4,118.3802 0.0952,0.3809"
         id="path46091" />
      <path
         d="m 95.4952,118.7611 v 0.4762"
         id="path46093" />
      <path
         d="M 95.4952,119.2373 95.4,119.6183"
         id="path46095" />
      <path
         d="m 95.4,119.6183 -0.0952,0.1905"
         id="path46097" />
      <path
         d="m 95.3048,119.8088 -0.0953,0.0952"
         id="path46099" />
      <path
         d="m 95.2095,119.904 -0.1905,0.0952"
         id="path46101" />
      <path
         d="M 95.019,119.9992 H 94.8286"
         id="path46103" />
      <path
         d="M 94.8286,119.9992 94.6381,119.904"
         id="path46105" />
      <path
         d="m 94.6381,119.904 -0.0952,-0.0952"
         id="path46107" />
      <path
         d="m 94.5429,119.8088 -0.0953,-0.1905"
         id="path46109" />
      <path
         d="m 94.4476,119.6183 -0.0952,-0.381"
         id="path46111" />
      <path
         d="m 94.3524,119.2373 v -0.4762"
         id="path46113" />
      <path
         d="m 94.3524,118.7611 0.0952,-0.3809"
         id="path46115" />
      <path
         d="m 94.4476,118.3802 0.0953,-0.1905"
         id="path46117" />
      <path
         d="m 94.5429,118.1897 0.0952,-0.0952"
         id="path46119" />
      <path
         d="m 94.6381,118.0945 0.1905,-0.0953"
         id="path46121" />
      <path
         d="m 97.8762,119.9992 v -1.3333"
         id="path46123" />
      <path
         d="m 97.8762,118.8564 0.0952,-0.0953"
         id="path46125" />
      <path
         d="m 97.9714,118.7611 0.1905,-0.0952"
         id="path46127" />
      <path
         d="m 98.1619,118.6659 h 0.2857"
         id="path46129" />
      <path
         d="m 98.4476,118.6659 0.1905,0.0952"
         id="path46131" />
      <path
         d="m 98.6381,118.7611 0.0952,0.1905"
         id="path46133" />
      <path
         d="m 98.7333,118.9516 v 1.0476"
         id="path46135" />
      <path
         d="m 98.7333,118.9516 0.0953,-0.1905"
         id="path46137" />
      <path
         d="m 98.8286,118.7611 0.1904,-0.0952"
         id="path46139" />
      <path
         d="m 99.019,118.6659 h 0.2858"
         id="path46141" />
      <path
         d="m 99.3048,118.6659 0.1904,0.0952"
         id="path46143" />
      <path
         d="m 99.4952,118.7611 0.0953,0.1905"
         id="path46145" />
      <path
         d="m 99.5905,118.9516 v 1.0476"
         id="path46147" />
      <path
         d="m 100.5429,119.9992 v -1.3333"
         id="path46149" />
      <path
         d="m 100.5429,118.8564 0.0952,-0.0953"
         id="path46151" />
      <path
         d="m 100.6381,118.7611 0.1905,-0.0952"
         id="path46153" />
      <path
         d="m 100.8286,118.6659 h 0.2857"
         id="path46155" />
      <path
         d="m 101.1143,118.6659 0.1905,0.0952"
         id="path46157" />
      <path
         d="m 101.3048,118.7611 0.0952,0.1905"
         id="path46159" />
      <path
         d="m 101.4,118.9516 v 1.0476"
         id="path46161" />
      <path
         d="m 101.4,118.9516 0.0952,-0.1905"
         id="path46163" />
      <path
         d="m 101.4952,118.7611 0.1905,-0.0952"
         id="path46165" />
      <path
         d="m 101.6857,118.6659 h 0.2857"
         id="path46167" />
      <path
         d="m 101.9714,118.6659 0.1905,0.0952"
         id="path46169" />
      <path
         d="m 102.1619,118.7611 0.0952,0.1905"
         id="path46171" />
      <path
         d="m 102.2571,118.9516 v 1.0476"
         id="path46173" />
    </g>
  </g>
  <g
     style="fill:#c2c2c2;fill-opacity:0;stroke:#c2c2c2;stroke-width:0.4;stroke-linecap:round;stroke-linejoin:round;stroke-opacity:1"
     id="g46191"
     transform="translate(-68.5492,-21.4)">
    <path
       d="m 92.4,102.1 v 15.0864"
       id="path46179" />
    <path
       d="M 102.4,117.1864 V 102.1"
       id="path46181" />
    <path
       d="m 92.4,116.6 1.1265,-0.5864"
       id="path46183" />
    <path
       d="m 92.4,116.6 1.1265,0.5864"
       id="path46185" />
    <path
       d="m 102.4,116.6 -1.1265,0.5864"
       id="path46187" />
    <path
       d="m 102.4,116.6 -1.1265,-0.5864"
       id="path46189" />
  </g>
  <g
     style="fill:#c2c2c2;fill-opacity:0;stroke:#c2c2c2;stroke-width:0.5;stroke-linecap:round;stroke-linejoin:round;stroke-opacity:1"
     id="g46333"
     transform="translate(-68.5492,-21.4)">
    <text
       x="102.4"
       y="185.10001"
       textLength="11.7667"
       font-size="2.6667px"
       lengthAdjust="spacingAndGlyphs"
       text-anchor="middle"
       opacity="0"
       id="text46193">60 mm</text>
    <g
       class="stroked-text"
       id="g46331">
      <desc
         id="desc46195">60 mm</desc>
      <path
         d="M 98.4,182.9992 H 98.019"
         id="path46197" />
      <path
         d="m 98.019,182.9992 -0.1904,0.0953"
         id="path46199" />
      <path
         d="m 97.8286,183.0945 -0.0953,0.0952"
         id="path46201" />
      <path
         d="m 97.7333,183.1897 -0.1904,0.2857"
         id="path46203" />
      <path
         d="m 97.5429,183.4754 -0.0953,0.381"
         id="path46205" />
      <path
         d="m 97.4476,183.8564 v 0.7619"
         id="path46207" />
      <path
         d="m 97.4476,184.6183 0.0953,0.1905"
         id="path46209" />
      <path
         d="m 97.5429,184.8088 0.0952,0.0952"
         id="path46211" />
      <path
         d="m 97.6381,184.904 0.1905,0.0952"
         id="path46213" />
      <path
         d="m 97.8286,184.9992 h 0.3809"
         id="path46215" />
      <path
         d="M 98.2095,184.9992 98.4,184.904"
         id="path46217" />
      <path
         d="m 98.4,184.904 0.0952,-0.0952"
         id="path46219" />
      <path
         d="m 98.4952,184.8088 0.0953,-0.1905"
         id="path46221" />
      <path
         d="m 98.5905,184.6183 v -0.4762"
         id="path46223" />
      <path
         d="m 98.5905,184.1421 -0.0953,-0.1905"
         id="path46225" />
      <path
         d="M 98.4952,183.9516 98.4,183.8564"
         id="path46227" />
      <path
         d="m 98.4,183.8564 -0.1905,-0.0953"
         id="path46229" />
      <path
         d="M 98.2095,183.7611 H 97.8286"
         id="path46231" />
      <path
         d="m 97.8286,183.7611 -0.1905,0.0953"
         id="path46233" />
      <path
         d="m 97.6381,183.8564 -0.0952,0.0952"
         id="path46235" />
      <path
         d="m 97.5429,183.9516 -0.0953,0.1905"
         id="path46237" />
      <path
         d="m 99.8286,182.9992 h 0.1904"
         id="path46239" />
      <path
         d="m 100.019,182.9992 0.1905,0.0953"
         id="path46241" />
      <path
         d="m 100.2095,183.0945 0.0953,0.0952"
         id="path46243" />
      <path
         d="m 100.3048,183.1897 0.0952,0.1905"
         id="path46245" />
      <path
         d="m 100.4,183.3802 0.0952,0.3809"
         id="path46247" />
      <path
         d="m 100.4952,183.7611 v 0.4762"
         id="path46249" />
      <path
         d="m 100.4952,184.2373 -0.0952,0.381"
         id="path46251" />
      <path
         d="m 100.4,184.6183 -0.0952,0.1905"
         id="path46253" />
      <path
         d="m 100.3048,184.8088 -0.0953,0.0952"
         id="path46255" />
      <path
         d="m 100.2095,184.904 -0.1905,0.0952"
         id="path46257" />
      <path
         d="M 100.019,184.9992 H 99.8286"
         id="path46259" />
      <path
         d="M 99.8286,184.9992 99.6381,184.904"
         id="path46261" />
      <path
         d="m 99.6381,184.904 -0.0952,-0.0952"
         id="path46263" />
      <path
         d="m 99.5429,184.8088 -0.0953,-0.1905"
         id="path46265" />
      <path
         d="m 99.4476,184.6183 -0.0952,-0.381"
         id="path46267" />
      <path
         d="m 99.3524,184.2373 v -0.4762"
         id="path46269" />
      <path
         d="m 99.3524,183.7611 0.0952,-0.3809"
         id="path46271" />
      <path
         d="m 99.4476,183.3802 0.0953,-0.1905"
         id="path46273" />
      <path
         d="m 99.5429,183.1897 0.0952,-0.0952"
         id="path46275" />
      <path
         d="m 99.6381,183.0945 0.1905,-0.0953"
         id="path46277" />
      <path
         d="m 102.8762,184.9992 v -1.3333"
         id="path46279" />
      <path
         d="m 102.8762,183.8564 0.0952,-0.0953"
         id="path46281" />
      <path
         d="m 102.9714,183.7611 0.1905,-0.0952"
         id="path46283" />
      <path
         d="m 103.1619,183.6659 h 0.2857"
         id="path46285" />
      <path
         d="m 103.4476,183.6659 0.1905,0.0952"
         id="path46287" />
      <path
         d="m 103.6381,183.7611 0.0952,0.1905"
         id="path46289" />
      <path
         d="m 103.7333,183.9516 v 1.0476"
         id="path46291" />
      <path
         d="m 103.7333,183.9516 0.0953,-0.1905"
         id="path46293" />
      <path
         d="m 103.8286,183.7611 0.1904,-0.0952"
         id="path46295" />
      <path
         d="m 104.019,183.6659 h 0.2858"
         id="path46297" />
      <path
         d="m 104.3048,183.6659 0.1904,0.0952"
         id="path46299" />
      <path
         d="m 104.4952,183.7611 0.0953,0.1905"
         id="path46301" />
      <path
         d="m 104.5905,183.9516 v 1.0476"
         id="path46303" />
      <path
         d="m 105.5429,184.9992 v -1.3333"
         id="path46305" />
      <path
         d="m 105.5429,183.8564 0.0952,-0.0953"
         id="path46307" />
      <path
         d="m 105.6381,183.7611 0.1905,-0.0952"
         id="path46309" />
      <path
         d="m 105.8286,183.6659 h 0.2857"
         id="path46311" />
      <path
         d="m 106.1143,183.6659 0.1905,0.0952"
         id="path46313" />
      <path
         d="m 106.3048,183.7611 0.0952,0.1905"
         id="path46315" />
      <path
         d="m 106.4,183.9516 v 1.0476"
         id="path46317" />
      <path
         d="m 106.4,183.9516 0.0952,-0.1905"
         id="path46319" />
      <path
         d="m 106.4952,183.7611 0.1905,-0.0952"
         id="path46321" />
      <path
         d="m 106.6857,183.6659 h 0.2857"
         id="path46323" />
      <path
         d="m 106.9714,183.6659 0.1905,0.0952"
         id="path46325" />
      <path
         d="m 107.1619,183.7611 0.0952,0.1905"
         id="path46327" />
      <path
         d="m 107.2571,183.9516 v 1.0476"
         id="path46329" />
    </g>
  </g>
  <g
     style="fill:#c2c2c2;fill-opacity:0;stroke:#c2c2c2;stroke-width:0.4;stroke-linecap:round;stroke-linejoin:round;stroke-opacity:1"
     id="g46351"
     transform="translate(-68.5492,-21.4)">
    <path
       d="m 132.4,177.1 v 7.5864"
       id="path46335" />
    <path
       d="M 72.4,184.6864 V 177.6"
       id="path46337" />
    <path
       d="M 132.4,184.1 H 109.2833"
       id="path46339" />
    <path
       d="M 95.5167,184.1 H 72.4"
       id="path46341" />
    <path
       d="m 132.4,184.1 -1.1265,0.5864"
       id="path46343" />
    <path
       d="m 132.4,184.1 -1.1265,-0.5864"
       id="path46345" />
    <path
       d="m 72.4,184.1 1.1265,-0.5864"
       id="path46347" />
    <path
       d="m 72.4,184.1 1.1265,0.5864"
       id="path46349" />
  </g>
  <g
     style="fill:#c2c2c2;fill-opacity:0;stroke:#c2c2c2;stroke-width:0.5;stroke-linecap:round;stroke-linejoin:round;stroke-opacity:1"
     id="g46505"
     transform="translate(-68.5492,-21.4)">
    <g
       transform="rotate(-90,69.9,101.6)"
       id="g46355">
      <text
         x="69.900002"
         y="102.6"
         textLength="13.6714"
         font-size="2.6667px"
         lengthAdjust="spacingAndGlyphs"
         text-anchor="middle"
         opacity="0"
         id="text46353">160 mm</text>
    </g>
    <g
       class="stroked-text"
       id="g46503">
      <desc
         id="desc46357">160 mm</desc>
      <path
         d="m 70.7992,106.3619 v 1.1429"
         id="path46359" />
      <path
         d="m 70.7992,106.9333 h -2"
         id="path46361" />
      <path
         d="m 68.7992,106.9333 0.2858,0.1905"
         id="path46363" />
      <path
         d="m 69.085,107.1238 0.1904,0.1905"
         id="path46365" />
      <path
         d="m 69.2754,107.3143 0.0953,0.1905"
         id="path46367" />
      <path
         d="m 68.7992,104.6476 v 0.381"
         id="path46369" />
      <path
         d="m 68.7992,105.0286 0.0953,0.1904"
         id="path46371" />
      <path
         d="m 68.8945,105.219 0.0952,0.0953"
         id="path46373" />
      <path
         d="m 68.9897,105.3143 0.2857,0.1905"
         id="path46375" />
      <path
         d="m 69.2754,105.5048 0.381,0.0952"
         id="path46377" />
      <path
         d="m 69.6564,105.6 h 0.7619"
         id="path46379" />
      <path
         d="m 70.4183,105.6 0.1905,-0.0952"
         id="path46381" />
      <path
         d="m 70.6088,105.5048 0.0952,-0.0953"
         id="path46383" />
      <path
         d="m 70.704,105.4095 0.0952,-0.1905"
         id="path46385" />
      <path
         d="m 70.7992,105.219 v -0.3809"
         id="path46387" />
      <path
         d="M 70.7992,104.8381 70.704,104.6476"
         id="path46389" />
      <path
         d="m 70.704,104.6476 -0.0952,-0.0952"
         id="path46391" />
      <path
         d="m 70.6088,104.5524 -0.1905,-0.0953"
         id="path46393" />
      <path
         d="M 70.4183,104.4571 H 69.9421"
         id="path46395" />
      <path
         d="m 69.9421,104.4571 -0.1905,0.0953"
         id="path46397" />
      <path
         d="m 69.7516,104.5524 -0.0952,0.0952"
         id="path46399" />
      <path
         d="m 69.6564,104.6476 -0.0953,0.1905"
         id="path46401" />
      <path
         d="m 69.5611,104.8381 v 0.3809"
         id="path46403" />
      <path
         d="m 69.5611,105.219 0.0953,0.1905"
         id="path46405" />
      <path
         d="m 69.6564,105.4095 0.0952,0.0953"
         id="path46407" />
      <path
         d="M 69.7516,105.5048 69.9421,105.6"
         id="path46409" />
      <path
         d="m 68.7992,103.219 v -0.1904"
         id="path46411" />
      <path
         d="m 68.7992,103.0286 0.0953,-0.1905"
         id="path46413" />
      <path
         d="m 68.8945,102.8381 0.0952,-0.0952"
         id="path46415" />
      <path
         d="m 68.9897,102.7429 0.1905,-0.0953"
         id="path46417" />
      <path
         d="m 69.1802,102.6476 0.3809,-0.0952"
         id="path46419" />
      <path
         d="m 69.5611,102.5524 h 0.4762"
         id="path46421" />
      <path
         d="m 70.0373,102.5524 0.381,0.0952"
         id="path46423" />
      <path
         d="m 70.4183,102.6476 0.1905,0.0953"
         id="path46425" />
      <path
         d="m 70.6088,102.7429 0.0952,0.0952"
         id="path46427" />
      <path
         d="m 70.704,102.8381 0.0952,0.1905"
         id="path46429" />
      <path
         d="m 70.7992,103.0286 v 0.1904"
         id="path46431" />
      <path
         d="m 70.7992,103.219 -0.0952,0.1905"
         id="path46433" />
      <path
         d="m 70.704,103.4095 -0.0952,0.0953"
         id="path46435" />
      <path
         d="M 70.6088,103.5048 70.4183,103.6"
         id="path46437" />
      <path
         d="m 70.4183,103.6 -0.381,0.0952"
         id="path46439" />
      <path
         d="M 70.0373,103.6952 H 69.5611"
         id="path46441" />
      <path
         d="M 69.5611,103.6952 69.1802,103.6"
         id="path46443" />
      <path
         d="m 69.1802,103.6 -0.1905,-0.0952"
         id="path46445" />
      <path
         d="m 68.9897,103.5048 -0.0952,-0.0953"
         id="path46447" />
      <path
         d="M 68.8945,103.4095 68.7992,103.219"
         id="path46449" />
      <path
         d="M 70.7992,100.1714 H 69.4659"
         id="path46451" />
      <path
         d="m 69.6564,100.1714 -0.0953,-0.0952"
         id="path46453" />
      <path
         d="M 69.5611,100.0762 69.4659,99.8857"
         id="path46455" />
      <path
         d="M 69.4659,99.8857 V 99.6"
         id="path46457" />
      <path
         d="m 69.4659,99.6 0.0952,-0.1905"
         id="path46459" />
      <path
         d="m 69.5611,99.4095 0.1905,-0.0952"
         id="path46461" />
      <path
         d="m 69.7516,99.3143 h 1.0476"
         id="path46463" />
      <path
         d="M 69.7516,99.3143 69.5611,99.219"
         id="path46465" />
      <path
         d="M 69.5611,99.219 69.4659,99.0286"
         id="path46467" />
      <path
         d="M 69.4659,99.0286 V 98.7429"
         id="path46469" />
      <path
         d="m 69.4659,98.7429 0.0952,-0.1905"
         id="path46471" />
      <path
         d="m 69.5611,98.5524 0.1905,-0.0953"
         id="path46473" />
      <path
         d="m 69.7516,98.4571 h 1.0476"
         id="path46475" />
      <path
         d="M 70.7992,97.5048 H 69.4659"
         id="path46477" />
      <path
         d="M 69.6564,97.5048 69.5611,97.4095"
         id="path46479" />
      <path
         d="M 69.5611,97.4095 69.4659,97.219"
         id="path46481" />
      <path
         d="M 69.4659,97.219 V 96.9333"
         id="path46483" />
      <path
         d="m 69.4659,96.9333 0.0952,-0.1904"
         id="path46485" />
      <path
         d="m 69.5611,96.7429 0.1905,-0.0953"
         id="path46487" />
      <path
         d="m 69.7516,96.6476 h 1.0476"
         id="path46489" />
      <path
         d="M 69.7516,96.6476 69.5611,96.5524"
         id="path46491" />
      <path
         d="M 69.5611,96.5524 69.4659,96.3619"
         id="path46493" />
      <path
         d="M 69.4659,96.3619 V 96.0762"
         id="path46495" />
      <path
         d="m 69.4659,96.0762 0.0952,-0.1905"
         id="path46497" />
      <path
         d="m 69.5611,95.8857 0.1905,-0.0952"
         id="path46499" />
      <path
         d="m 69.7516,95.7905 h 1.0476"
         id="path46501" />
    </g>
  </g>
  <g
     style="fill:#c2c2c2;fill-opacity:0;stroke:#c2c2c2;stroke-width:0.4;stroke-linecap:round;stroke-linejoin:round;stroke-opacity:1"
     id="g46523"
     transform="translate(-68.5492,-21.4)">
    <path
       d="M 76.9,21.6 H 69.3136"
       id="path46507" />
    <path
       d="M 69.3136,181.6 H 76.9"
       id="path46509" />
    <path
       d="M 69.9,21.6 V 93.7643"
       id="path46511" />
    <path
       d="M 69.9,109.4357 V 181.6"
       id="path46513" />
    <path
       d="m 69.9,21.6 0.5864,1.1265"
       id="path46515" />
    <path
       d="m 69.9,21.6 -0.5864,1.1265"
       id="path46517" />
    <path
       d="m 69.9,181.6 -0.5864,-1.1265"
       id="path46519" />
    <path
       d="m 69.9,181.6 0.5864,-1.1265"
       id="path46521" />
  </g>
  <g
     style="fill:#c2c2c2;fill-opacity:0;stroke:#c2c2c2;stroke-width:0.5;stroke-linecap:round;stroke-linejoin:round;stroke-opacity:1"
     id="g46665"
     transform="translate(-68.5492,-21.4)">
    <g
       transform="rotate(-90,127.4,101.6)"
       id="g46527">
      <text
         x="127.4"
         y="102.6"
         textLength="13.6714"
         font-size="2.6667px"
         lengthAdjust="spacingAndGlyphs"
         text-anchor="middle"
         opacity="0"
         id="text46525">150 mm</text>
    </g>
    <g
       class="stroked-text"
       id="g46663">
      <desc
         id="desc46529">150 mm</desc>
      <path
         d="m 128.2992,106.3619 v 1.1429"
         id="path46531" />
      <path
         d="m 128.2992,106.9333 h -2"
         id="path46533" />
      <path
         d="m 126.2992,106.9333 0.2858,0.1905"
         id="path46535" />
      <path
         d="m 126.585,107.1238 0.1904,0.1905"
         id="path46537" />
      <path
         d="m 126.7754,107.3143 0.0953,0.1905"
         id="path46539" />
      <path
         d="m 126.2992,104.5524 v 0.9524"
         id="path46541" />
      <path
         d="m 126.2992,105.5048 0.9524,0.0952"
         id="path46543" />
      <path
         d="m 127.2516,105.6 -0.0952,-0.0952"
         id="path46545" />
      <path
         d="m 127.1564,105.5048 -0.0953,-0.1905"
         id="path46547" />
      <path
         d="m 127.0611,105.3143 v -0.4762"
         id="path46549" />
      <path
         d="m 127.0611,104.8381 0.0953,-0.1905"
         id="path46551" />
      <path
         d="m 127.1564,104.6476 0.0952,-0.0952"
         id="path46553" />
      <path
         d="m 127.2516,104.5524 0.1905,-0.0953"
         id="path46555" />
      <path
         d="m 127.4421,104.4571 h 0.4762"
         id="path46557" />
      <path
         d="m 127.9183,104.4571 0.1905,0.0953"
         id="path46559" />
      <path
         d="m 128.1088,104.5524 0.0952,0.0952"
         id="path46561" />
      <path
         d="m 128.204,104.6476 0.0952,0.1905"
         id="path46563" />
      <path
         d="m 128.2992,104.8381 v 0.4762"
         id="path46565" />
      <path
         d="m 128.2992,105.3143 -0.0952,0.1905"
         id="path46567" />
      <path
         d="M 128.204,105.5048 128.1088,105.6"
         id="path46569" />
      <path
         d="m 126.2992,103.219 v -0.1904"
         id="path46571" />
      <path
         d="m 126.2992,103.0286 0.0953,-0.1905"
         id="path46573" />
      <path
         d="m 126.3945,102.8381 0.0952,-0.0952"
         id="path46575" />
      <path
         d="m 126.4897,102.7429 0.1905,-0.0953"
         id="path46577" />
      <path
         d="m 126.6802,102.6476 0.3809,-0.0952"
         id="path46579" />
      <path
         d="m 127.0611,102.5524 h 0.4762"
         id="path46581" />
      <path
         d="m 127.5373,102.5524 0.381,0.0952"
         id="path46583" />
      <path
         d="m 127.9183,102.6476 0.1905,0.0953"
         id="path46585" />
      <path
         d="m 128.1088,102.7429 0.0952,0.0952"
         id="path46587" />
      <path
         d="m 128.204,102.8381 0.0952,0.1905"
         id="path46589" />
      <path
         d="m 128.2992,103.0286 v 0.1904"
         id="path46591" />
      <path
         d="m 128.2992,103.219 -0.0952,0.1905"
         id="path46593" />
      <path
         d="m 128.204,103.4095 -0.0952,0.0953"
         id="path46595" />
      <path
         d="M 128.1088,103.5048 127.9183,103.6"
         id="path46597" />
      <path
         d="m 127.9183,103.6 -0.381,0.0952"
         id="path46599" />
      <path
         d="m 127.5373,103.6952 h -0.4762"
         id="path46601" />
      <path
         d="M 127.0611,103.6952 126.6802,103.6"
         id="path46603" />
      <path
         d="m 126.6802,103.6 -0.1905,-0.0952"
         id="path46605" />
      <path
         d="m 126.4897,103.5048 -0.0952,-0.0953"
         id="path46607" />
      <path
         d="m 126.3945,103.4095 -0.0953,-0.1905"
         id="path46609" />
      <path
         d="m 128.2992,100.1714 h -1.3333"
         id="path46611" />
      <path
         d="m 127.1564,100.1714 -0.0953,-0.0952"
         id="path46613" />
      <path
         d="m 127.0611,100.0762 -0.0952,-0.1905"
         id="path46615" />
      <path
         d="M 126.9659,99.8857 V 99.6"
         id="path46617" />
      <path
         d="m 126.9659,99.6 0.0952,-0.1905"
         id="path46619" />
      <path
         d="m 127.0611,99.4095 0.1905,-0.0952"
         id="path46621" />
      <path
         d="m 127.2516,99.3143 h 1.0476"
         id="path46623" />
      <path
         d="M 127.2516,99.3143 127.0611,99.219"
         id="path46625" />
      <path
         d="m 127.0611,99.219 -0.0952,-0.1904"
         id="path46627" />
      <path
         d="M 126.9659,99.0286 V 98.7429"
         id="path46629" />
      <path
         d="m 126.9659,98.7429 0.0952,-0.1905"
         id="path46631" />
      <path
         d="m 127.0611,98.5524 0.1905,-0.0953"
         id="path46633" />
      <path
         d="m 127.2516,98.4571 h 1.0476"
         id="path46635" />
      <path
         d="m 128.2992,97.5048 h -1.3333"
         id="path46637" />
      <path
         d="m 127.1564,97.5048 -0.0953,-0.0953"
         id="path46639" />
      <path
         d="M 127.0611,97.4095 126.9659,97.219"
         id="path46641" />
      <path
         d="M 126.9659,97.219 V 96.9333"
         id="path46643" />
      <path
         d="m 126.9659,96.9333 0.0952,-0.1904"
         id="path46645" />
      <path
         d="m 127.0611,96.7429 0.1905,-0.0953"
         id="path46647" />
      <path
         d="m 127.2516,96.6476 h 1.0476"
         id="path46649" />
      <path
         d="m 127.2516,96.6476 -0.1905,-0.0952"
         id="path46651" />
      <path
         d="m 127.0611,96.5524 -0.0952,-0.1905"
         id="path46653" />
      <path
         d="M 126.9659,96.3619 V 96.0762"
         id="path46655" />
      <path
         d="m 126.9659,96.0762 0.0952,-0.1905"
         id="path46657" />
      <path
         d="m 127.0611,95.8857 0.1905,-0.0952"
         id="path46659" />
      <path
         d="m 127.2516,95.7905 h 1.0476"
         id="path46661" />
    </g>
  </g>
  <g
     style="fill:#c2c2c2;fill-opacity:1;stroke:#c2c2c2;stroke-width:0;stroke-linecap:round;stroke-linejoin:round;stroke-opacity:1"
     id="g46671"
     transform="translate(-68.5492,-21.4)">
    <circle
       cx="127.4"
       cy="26.6"
       r="0.2"
       id="circle46667" />
    <circle
       cx="127.4"
       cy="176.60001"
       r="0.2"
       id="circle46669" />
  </g>
  <g
     style="fill:#c2c2c2;fill-opacity:1;stroke:#c2c2c2;stroke-width:0.4;stroke-linecap:round;stroke-linejoin:round;stroke-opacity:1"
     id="g46673"
     transform="translate(-68.5492,-21.4)" />
  <g
     style="fill:#c2c2c2;fill-opacity:0;stroke:#c2c2c2;stroke-width:0.4;stroke-linecap:round;stroke-linejoin:round;stroke-opacity:1"
     id="g46687"
     transform="translate(-68.5492,-21.4)">
    <path
       d="M 127.4,26.6 V 93.7643"
       id="path46675" />
    <path
       d="M 127.4,109.4357 V 176.6"
       id="path46677" />
    <path
       d="m 127.4,26.6 0.5864,1.1265"
       id="path46679" />
    <path
       d="m 127.4,26.6 -0.5864,1.1265"
       id="path46681" />
    <path
       d="m 127.4,176.6 -0.5864,-1.1265"
       id="path46683" />
    <path
       d="m 127.4,176.6 0.5864,-1.1265"
       id="path46685" />
  </g>
  <g
     style="fill:#c2c2c2;fill-opacity:0;stroke:#c2c2c2;stroke-width:0.5;stroke-linecap:round;stroke-linejoin:round;stroke-opacity:1"
     id="g46817"
     transform="translate(-68.5492,-21.4)">
    <text
       x="102.4"
       y="177.60001"
       textLength="11.7667"
       font-size="2.6667px"
       lengthAdjust="spacingAndGlyphs"
       text-anchor="middle"
       opacity="0"
       id="text46689">50 mm</text>
    <g
       class="stroked-text"
       id="g46815">
      <desc
         id="desc46691">50 mm</desc>
      <path
         d="M 98.4952,175.4992 H 97.5429"
         id="path46693" />
      <path
         d="m 97.5429,175.4992 -0.0953,0.9524"
         id="path46695" />
      <path
         d="m 97.4476,176.4516 0.0953,-0.0952"
         id="path46697" />
      <path
         d="m 97.5429,176.3564 0.1904,-0.0953"
         id="path46699" />
      <path
         d="m 97.7333,176.2611 h 0.4762"
         id="path46701" />
      <path
         d="M 98.2095,176.2611 98.4,176.3564"
         id="path46703" />
      <path
         d="m 98.4,176.3564 0.0952,0.0952"
         id="path46705" />
      <path
         d="m 98.4952,176.4516 0.0953,0.1905"
         id="path46707" />
      <path
         d="m 98.5905,176.6421 v 0.4762"
         id="path46709" />
      <path
         d="m 98.5905,177.1183 -0.0953,0.1905"
         id="path46711" />
      <path
         d="M 98.4952,177.3088 98.4,177.404"
         id="path46713" />
      <path
         d="m 98.4,177.404 -0.1905,0.0952"
         id="path46715" />
      <path
         d="M 98.2095,177.4992 H 97.7333"
         id="path46717" />
      <path
         d="M 97.7333,177.4992 97.5429,177.404"
         id="path46719" />
      <path
         d="m 97.5429,177.404 -0.0953,-0.0952"
         id="path46721" />
      <path
         d="m 99.8286,175.4992 h 0.1904"
         id="path46723" />
      <path
         d="m 100.019,175.4992 0.1905,0.0953"
         id="path46725" />
      <path
         d="m 100.2095,175.5945 0.0953,0.0952"
         id="path46727" />
      <path
         d="m 100.3048,175.6897 0.0952,0.1905"
         id="path46729" />
      <path
         d="m 100.4,175.8802 0.0952,0.3809"
         id="path46731" />
      <path
         d="m 100.4952,176.2611 v 0.4762"
         id="path46733" />
      <path
         d="m 100.4952,176.7373 -0.0952,0.381"
         id="path46735" />
      <path
         d="m 100.4,177.1183 -0.0952,0.1905"
         id="path46737" />
      <path
         d="m 100.3048,177.3088 -0.0953,0.0952"
         id="path46739" />
      <path
         d="m 100.2095,177.404 -0.1905,0.0952"
         id="path46741" />
      <path
         d="M 100.019,177.4992 H 99.8286"
         id="path46743" />
      <path
         d="M 99.8286,177.4992 99.6381,177.404"
         id="path46745" />
      <path
         d="m 99.6381,177.404 -0.0952,-0.0952"
         id="path46747" />
      <path
         d="m 99.5429,177.3088 -0.0953,-0.1905"
         id="path46749" />
      <path
         d="m 99.4476,177.1183 -0.0952,-0.381"
         id="path46751" />
      <path
         d="m 99.3524,176.7373 v -0.4762"
         id="path46753" />
      <path
         d="m 99.3524,176.2611 0.0952,-0.3809"
         id="path46755" />
      <path
         d="m 99.4476,175.8802 0.0953,-0.1905"
         id="path46757" />
      <path
         d="m 99.5429,175.6897 0.0952,-0.0952"
         id="path46759" />
      <path
         d="m 99.6381,175.5945 0.1905,-0.0953"
         id="path46761" />
      <path
         d="m 102.8762,177.4992 v -1.3333"
         id="path46763" />
      <path
         d="m 102.8762,176.3564 0.0952,-0.0953"
         id="path46765" />
      <path
         d="m 102.9714,176.2611 0.1905,-0.0952"
         id="path46767" />
      <path
         d="m 103.1619,176.1659 h 0.2857"
         id="path46769" />
      <path
         d="m 103.4476,176.1659 0.1905,0.0952"
         id="path46771" />
      <path
         d="m 103.6381,176.2611 0.0952,0.1905"
         id="path46773" />
      <path
         d="m 103.7333,176.4516 v 1.0476"
         id="path46775" />
      <path
         d="m 103.7333,176.4516 0.0953,-0.1905"
         id="path46777" />
      <path
         d="m 103.8286,176.2611 0.1904,-0.0952"
         id="path46779" />
      <path
         d="m 104.019,176.1659 h 0.2858"
         id="path46781" />
      <path
         d="m 104.3048,176.1659 0.1904,0.0952"
         id="path46783" />
      <path
         d="m 104.4952,176.2611 0.0953,0.1905"
         id="path46785" />
      <path
         d="m 104.5905,176.4516 v 1.0476"
         id="path46787" />
      <path
         d="m 105.5429,177.4992 v -1.3333"
         id="path46789" />
      <path
         d="m 105.5429,176.3564 0.0952,-0.0953"
         id="path46791" />
      <path
         d="m 105.6381,176.2611 0.1905,-0.0952"
         id="path46793" />
      <path
         d="m 105.8286,176.1659 h 0.2857"
         id="path46795" />
      <path
         d="m 106.1143,176.1659 0.1905,0.0952"
         id="path46797" />
      <path
         d="m 106.3048,176.2611 0.0952,0.1905"
         id="path46799" />
      <path
         d="m 106.4,176.4516 v 1.0476"
         id="path46801" />
      <path
         d="m 106.4,176.4516 0.0952,-0.1905"
         id="path46803" />
      <path
         d="m 106.4952,176.2611 0.1905,-0.0952"
         id="path46805" />
      <path
         d="m 106.6857,176.1659 h 0.2857"
         id="path46807" />
      <path
         d="m 106.9714,176.1659 0.1905,0.0952"
         id="path46809" />
      <path
         d="m 107.1619,176.2611 0.0952,0.1905"
         id="path46811" />
      <path
         d="m 107.2571,176.4516 v 1.0476"
         id="path46813" />
    </g>
  </g>
  <g
     style="fill:#c2c2c2;fill-opacity:1;stroke:#c2c2c2;stroke-width:0;stroke-linecap:round;stroke-linejoin:round;stroke-opacity:1"
     id="g46823"
     transform="translate(-68.5492,-21.4)">
    <circle
       cx="77.400002"
       cy="176.60001"
       r="0.2"
       id="circle46819" />
    <circle
       cx="127.4"
       cy="176.60001"
       r="0.2"
       id="circle46821" />
  </g>
  <g
     style="fill:#c2c2c2;fill-opacity:1;stroke:#c2c2c2;stroke-width:0.4;stroke-linecap:round;stroke-linejoin:round;stroke-opacity:1"
     id="g46825"
     transform="translate(-68.5492,-21.4)" />
  <g
     style="fill:#c2c2c2;fill-opacity:0;stroke:#c2c2c2;stroke-width:0.4;stroke-linecap:round;stroke-linejoin:round;stroke-opacity:1"
     id="g47007"
     transform="translate(-68.5492,-21.4)">
    <path
       d="M 77.4,176.6 H 95.5167"
       id="path46827" />
    <path
       d="M 109.2833,176.6 H 127.4"
       id="path46829" />
    <path
       d="m 77.4,176.6 1.1265,-0.5864"
       id="path46831" />
    <path
       d="m 77.4,176.6 1.1265,0.5864"
       id="path46833" />
    <path
       d="m 127.4,176.6 -1.1265,0.5864"
       id="path46835" />
    <path
       d="m 127.4,176.6 -1.1265,-0.5864"
       id="path46837" />
    <circle
       cx="127.4"
       cy="176.60001"
       r="1.6"
       id="circle46839" />
    <circle
       cx="77.400002"
       cy="26.6"
       r="1.6"
       id="circle46841" />
    <circle
       cx="127.4"
       cy="26.6"
       r="1.6"
       id="circle46843" />
    <circle
       cx="77.400002"
       cy="176.60001"
       r="1.6"
       id="circle46845" />
    <g
       id="g46847" />
    <g
       id="g46849" />
    <g
       id="g46851" />
    <g
       id="g46853" />
    <g
       id="g46855" />
    <g
       id="g46857" />
    <g
       id="g46859" />
    <g
       id="g46861" />
    <g
       id="g46863" />
    <g
       id="g46865" />
    <g
       id="g46867" />
    <g
       id="g46869" />
    <g
       id="g46871" />
    <g
       id="g46873" />
    <g
       id="g46875" />
    <g
       id="g46877" />
    <g
       id="g46879" />
    <g
       id="g46881" />
    <g
       id="g46883" />
    <g
       id="g46885" />
    <g
       id="g46887" />
    <g
       id="g46889" />
    <g
       id="g46891" />
    <g
       id="g46893" />
    <g
       id="g46895" />
    <g
       id="g46897" />
    <g
       id="g46899" />
    <g
       id="g46901" />
    <g
       id="g46903" />
    <g
       id="g46905" />
    <g
       id="g46907" />
    <g
       id="g46909" />
    <g
       id="g46911" />
    <g
       id="g46913" />
    <g
       id="g46915" />
    <g
       id="g46917" />
    <g
       id="g46919" />
    <g
       id="g46921" />
    <g
       id="g46923" />
    <g
       id="g46925" />
    <g
       id="g46927" />
    <g
       id="g46929" />
    <g
       id="g46931" />
    <g
       id="g46933" />
    <g
       id="g46935" />
    <g
       id="g46937" />
    <g
       id="g46939" />
    <g
       id="g46941" />
    <g
       id="g46943" />
    <g
       id="g46945" />
    <g
       id="g46947" />
    <g
       id="g46949" />
    <g
       id="g46951" />
    <g
       id="g46953" />
    <g
       id="g46955" />
    <g
       id="g46957" />
    <g
       id="g46959" />
    <g
       id="g46961" />
    <g
       id="g46963" />
    <g
       id="g46965" />
    <g
       id="g46967" />
    <g
       id="g46969" />
    <g
       id="g46971" />
    <g
       id="g46973" />
    <g
       id="g46975" />
    <g
       id="g46977" />
    <g
       id="g46979" />
    <g
       id="g46981" />
    <g
       id="g46983" />
    <g
       id="g46985" />
    <g
       id="g46987" />
    <g
       id="g46989" />
    <g
       id="g46991" />
    <g
       id="g46993" />
    <g
       id="g46995" />
    <g
       id="g46997" />
    <g
       id="g46999" />
    <g
       id="g47001" />
    <g
       id="g47003" />
    <g
       id="g47005" />
  </g>
  <g
     style="fill:#000000;fill-opacity:0;stroke:#000000;stroke-width:0.4;stroke-linecap:round;stroke-linejoin:round;stroke-opacity:1"
     id="g47009"
     transform="translate(-68.5492,-21.4)" />
  <g
     style="fill:#d0d2cd;fill-opacity:0;stroke:#d0d2cd;stroke-width:0.4;stroke-linecap:round;stroke-linejoin:round;stroke-opacity:1"
     id="g47011"
     transform="translate(-68.5492,-21.4)" />
  <g
     style="fill:#d0d2cd;fill-opacity:0;stroke:#d0d2cd;stroke-width:0.1;stroke-linecap:round;stroke-linejoin:round;stroke-opacity:1"
     id="g47189"
     transform="translate(-68.5492,-21.4)">
    <path
       d="m 77.4,21.6 a 5,5 0 0 0 -5,5"
       id="path47013" />
    <path
       d="M 72.4,176.6 V 26.6"
       id="path47015" />
    <path
       d="m 132.4,26.6 v 150"
       id="path47017" />
    <path
       d="m 127.4,181.6 a 5,5 0 0 0 5,-5"
       id="path47019" />
    <path
       d="m 132.4,26.6 a 5,5 0 0 0 -5,-5"
       id="path47021" />
    <path
       d="m 72.4,176.6 a 5,5 0 0 0 5,5"
       id="path47023" />
    <path
       d="m 127.4,181.6 h -50"
       id="path47025" />
    <path
       d="m 77.4,21.6 h 50"
       id="path47027" />
    <g
       id="g47029" />
    <g
       id="g47031" />
    <g
       id="g47033" />
    <g
       id="g47035" />
    <g
       id="g47037" />
    <g
       id="g47039" />
    <g
       id="g47041" />
    <g
       id="g47043" />
    <g
       id="g47045" />
    <g
       id="g47047" />
    <g
       id="g47049" />
    <g
       id="g47051" />
    <g
       id="g47053" />
    <g
       id="g47055" />
    <g
       id="g47057" />
    <g
       id="g47059" />
    <g
       id="g47061" />
    <g
       id="g47063" />
    <g
       id="g47065" />
    <g
       id="g47067" />
    <g
       id="g47069" />
    <g
       id="g47071" />
    <g
       id="g47073" />
    <g
       id="g47075" />
    <g
       id="g47077" />
    <g
       id="g47079" />
    <g
       id="g47081" />
    <g
       id="g47083" />
    <g
       id="g47085" />
    <g
       id="g47087" />
    <g
       id="g47089" />
    <g
       id="g47091" />
    <g
       id="g47093" />
    <g
       id="g47095" />
    <g
       id="g47097" />
    <g
       id="g47099" />
    <g
       id="g47101" />
    <g
       id="g47103" />
    <g
       id="g47105" />
    <g
       id="g47107" />
    <g
       id="g47109" />
    <g
       id="g47111" />
    <g
       id="g47113" />
    <g
       id="g47115" />
    <g
       id="g47117" />
    <g
       id="g47119" />
    <g
       id="g47121" />
    <g
       id="g47123" />
    <g
       id="g47125" />
    <g
       id="g47127" />
    <g
       id="g47129" />
    <g
       id="g47131" />
    <g
       id="g47133" />
    <g
       id="g47135" />
    <g
       id="g47137" />
    <g
       id="g47139" />
    <g
       id="g47141" />
    <g
       id="g47143" />
    <g
       id="g47145" />
    <g
       id="g47147" />
    <g
       id="g47149" />
    <g
       id="g47151" />
    <g
       id="g47153" />
    <g
       id="g47155" />
    <g
       id="g47157" />
    <g
       id="g47159" />
    <g
       id="g47161" />
    <g
       id="g47163" />
    <g
       id="g47165" />
    <g
       id="g47167" />
    <g
       id="g47169" />
    <g
       id="g47171" />
    <g
       id="g47173" />
    <g
       id="g47175" />
    <g
       id="g47177" />
    <g
       id="g47179" />
    <g
       id="g47181" />
    <g
       id="g47183" />
    <g
       id="g47185" />
    <g
       id="g47187" />
  </g>
</svg>
