<?xml version="1.0" encoding="UTF-8" standalone="no"?>
<svg
   version="1.1"
   width="64.050797mm"
   height="163.97667mm"
   viewBox="0 0 64.050797 163.97667"
   id="svg42289"
   xmlns="http://www.w3.org/2000/svg"
   xmlns:svg="http://www.w3.org/2000/svg">
  <defs
     id="defs42293" />
  <title
     id="title41069">SVG Image created as cluster-pcb-User_Drawings.svg date 2024/08/26 15:01:53 </title>
  <desc
     id="desc41071">Image generated by PCBNEW </desc>
  <g
     style="fill:#000000;fill-opacity:1;stroke:#000000;stroke-linecap:round;stroke-linejoin:round;stroke-opacity:1"
     id="g41073"
     transform="translate(-68.5492,-21.4)" />
  <g
     style="fill:#000000;fill-opacity:0;stroke:#000000;stroke-width:0;stroke-linecap:round;stroke-linejoin:round;stroke-opacity:1"
     id="g41075"
     transform="translate(-68.5492,-21.4)" />
  <g
     style="fill:#c2c2c2;fill-opacity:0;stroke:#c2c2c2;stroke-width:0;stroke-linecap:round;stroke-linejoin:round;stroke-opacity:1"
     id="g41077"
     transform="translate(-68.5492,-21.4)" />
  <g
     style="fill:#c2c2c2;fill-opacity:0;stroke:#c2c2c2;stroke-width:0.4;stroke-linecap:round;stroke-linejoin:round;stroke-opacity:1"
     id="g41103"
     transform="translate(-68.5492,-21.4)">
    <path
       style="fill:none;fill-opacity:0;stroke:#c2c2c2;stroke-width:0.4;stroke-linecap:round;stroke-linejoin:round;stroke-opacity:1"
       d="m 82.4,21.6 h 20 v 75 h -20 z"
       id="path41079" />
    <path
       d="m 132.4,26.6 v 150"
       id="path41081" />
    <path
       d="m 77.4,21.6 a 5,5 0 0 0 -5,5"
       id="path41083" />
    <path
       d="m 77.4,21.6 h 50"
       id="path41085" />
    <path
       d="m 94.9,101.6 h 15"
       id="path41087" />
    <path
       d="M 72.4,176.6 V 26.6"
       id="path41089" />
    <path
       d="m 127.4,181.6 a 5,5 0 0 0 5,-5"
       id="path41091" />
    <path
       d="m 102.4,109.1 v -15"
       id="path41093" />
    <path
       d="m 92.4,94.1 v -70"
       id="path41095" />
    <path
       d="m 132.4,26.6 a 5,5 0 0 0 -5,-5"
       id="path41097" />
    <path
       d="m 127.4,181.6 h -50"
       id="path41099" />
    <path
       d="m 72.4,176.6 a 5,5 0 0 0 5,5"
       id="path41101" />
  </g>
  <g
     style="fill:#c2c2c2;fill-opacity:0;stroke:#c2c2c2;stroke-width:0.5;stroke-linecap:round;stroke-linejoin:round;stroke-opacity:1"
     id="g41219"
     transform="translate(-68.5492,-21.4)">
    <text
       x="87.400002"
       y="172.60001"
       textLength="12.719"
       font-size="2.6667px"
       lengthAdjust="spacingAndGlyphs"
       text-anchor="middle"
       opacity="0"
       id="text41105">3.2 mm</text>
    <g
       class="stroked-text"
       id="g41217">
      <desc
         id="desc41107">3.2 mm</desc>
      <path
         d="m 81.8762,170.4992 h 1.2381"
         id="path41109" />
      <path
         d="m 83.1143,170.4992 -0.6667,0.7619"
         id="path41111" />
      <path
         d="m 82.4476,171.2611 h 0.2857"
         id="path41113" />
      <path
         d="m 82.7333,171.2611 0.1905,0.0953"
         id="path41115" />
      <path
         d="m 82.9238,171.3564 0.0952,0.0952"
         id="path41117" />
      <path
         d="m 83.019,171.4516 0.0953,0.1905"
         id="path41119" />
      <path
         d="m 83.1143,171.6421 v 0.4762"
         id="path41121" />
      <path
         d="m 83.1143,172.1183 -0.0953,0.1905"
         id="path41123" />
      <path
         d="m 83.019,172.3088 -0.0952,0.0952"
         id="path41125" />
      <path
         d="m 82.9238,172.404 -0.1905,0.0952"
         id="path41127" />
      <path
         d="M 82.7333,172.4992 H 82.1619"
         id="path41129" />
      <path
         d="M 82.1619,172.4992 81.9714,172.404"
         id="path41131" />
      <path
         d="m 81.9714,172.404 -0.0952,-0.0952"
         id="path41133" />
      <path
         d="m 83.9714,172.3088 0.0953,0.0952"
         id="path41135" />
      <path
         d="m 84.0667,172.404 -0.0953,0.0952"
         id="path41137" />
      <path
         d="M 83.9714,172.4992 83.8762,172.404"
         id="path41139" />
      <path
         d="m 83.8762,172.404 0.0952,-0.0952"
         id="path41141" />
      <path
         d="m 83.9714,172.3088 v 0.1904"
         id="path41143" />
      <path
         d="m 84.8286,170.6897 0.0952,-0.0952"
         id="path41145" />
      <path
         d="m 84.9238,170.5945 0.1905,-0.0953"
         id="path41147" />
      <path
         d="m 85.1143,170.4992 h 0.4762"
         id="path41149" />
      <path
         d="m 85.5905,170.4992 0.1905,0.0953"
         id="path41151" />
      <path
         d="m 85.781,170.5945 0.0952,0.0952"
         id="path41153" />
      <path
         d="m 85.8762,170.6897 0.0952,0.1905"
         id="path41155" />
      <path
         d="m 85.9714,170.8802 v 0.1905"
         id="path41157" />
      <path
         d="m 85.9714,171.0707 -0.0952,0.2857"
         id="path41159" />
      <path
         d="m 85.8762,171.3564 -1.1429,1.1428"
         id="path41161" />
      <path
         d="m 84.7333,172.4992 h 1.2381"
         id="path41163" />
      <path
         d="m 88.3524,172.4992 v -1.3333"
         id="path41165" />
      <path
         d="m 88.3524,171.3564 0.0952,-0.0953"
         id="path41167" />
      <path
         d="m 88.4476,171.2611 0.1905,-0.0952"
         id="path41169" />
      <path
         d="m 88.6381,171.1659 h 0.2857"
         id="path41171" />
      <path
         d="m 88.9238,171.1659 0.1905,0.0952"
         id="path41173" />
      <path
         d="m 89.1143,171.2611 0.0952,0.1905"
         id="path41175" />
      <path
         d="m 89.2095,171.4516 v 1.0476"
         id="path41177" />
      <path
         d="m 89.2095,171.4516 0.0953,-0.1905"
         id="path41179" />
      <path
         d="m 89.3048,171.2611 0.1904,-0.0952"
         id="path41181" />
      <path
         d="M 89.4952,171.1659 H 89.781"
         id="path41183" />
      <path
         d="m 89.781,171.1659 0.1904,0.0952"
         id="path41185" />
      <path
         d="m 89.9714,171.2611 0.0953,0.1905"
         id="path41187" />
      <path
         d="m 90.0667,171.4516 v 1.0476"
         id="path41189" />
      <path
         d="m 91.019,172.4992 v -1.3333"
         id="path41191" />
      <path
         d="m 91.019,171.3564 0.0953,-0.0953"
         id="path41193" />
      <path
         d="m 91.1143,171.2611 0.1905,-0.0952"
         id="path41195" />
      <path
         d="m 91.3048,171.1659 h 0.2857"
         id="path41197" />
      <path
         d="m 91.5905,171.1659 0.1905,0.0952"
         id="path41199" />
      <path
         d="m 91.781,171.2611 0.0952,0.1905"
         id="path41201" />
      <path
         d="m 91.8762,171.4516 v 1.0476"
         id="path41203" />
      <path
         d="m 91.8762,171.4516 0.0952,-0.1905"
         id="path41205" />
      <path
         d="m 91.9714,171.2611 0.1905,-0.0952"
         id="path41207" />
      <path
         d="m 92.1619,171.1659 h 0.2857"
         id="path41209" />
      <path
         d="m 92.4476,171.1659 0.1905,0.0952"
         id="path41211" />
      <path
         d="m 92.6381,171.2611 0.0952,0.1905"
         id="path41213" />
      <path
         d="m 92.7333,171.4516 v 1.0476"
         id="path41215" />
    </g>
  </g>
  <g
     style="fill:#c2c2c2;fill-opacity:0;stroke:#c2c2c2;stroke-width:0.4;stroke-linecap:round;stroke-linejoin:round;stroke-opacity:1"
     id="g41237"
     transform="translate(-68.5492,-21.4)">
    <path
       d="m 75.8,176.1 v -5.0864"
       id="path41221" />
    <path
       d="M 79,171.0136 V 176.1"
       id="path41223" />
    <path
       d="M 75.8,171.6 H 79"
       id="path41225" />
    <path
       d="M 75.8,171.6 H 79"
       id="path41227" />
    <path
       d="m 75.8,171.6 1.1265,-0.5864"
       id="path41229" />
    <path
       d="m 75.8,171.6 1.1265,0.5864"
       id="path41231" />
    <path
       d="m 79,171.6 -1.1265,0.5864"
       id="path41233" />
    <path
       d="m 79,171.6 -1.1265,-0.5864"
       id="path41235" />
  </g>
  <g
     style="fill:#c2c2c2;fill-opacity:0;stroke:#c2c2c2;stroke-width:0.5;stroke-linecap:round;stroke-linejoin:round;stroke-opacity:1"
     id="g41347"
     transform="translate(-68.5492,-21.4)">
    <text
       x="97.400002"
       y="120.1"
       textLength="11.7667"
       font-size="2.6667px"
       lengthAdjust="spacingAndGlyphs"
       text-anchor="middle"
       opacity="0"
       id="text41239">10 mm</text>
    <g
       class="stroked-text"
       id="g41345">
      <desc
         id="desc41241">10 mm</desc>
      <path
         d="M 93.5905,119.9992 H 92.4476"
         id="path41243" />
      <path
         d="m 93.019,119.9992 v -2"
         id="path41245" />
      <path
         d="m 93.019,117.9992 -0.1904,0.2858"
         id="path41247" />
      <path
         d="m 92.8286,118.285 -0.1905,0.1904"
         id="path41249" />
      <path
         d="m 92.6381,118.4754 -0.1905,0.0953"
         id="path41251" />
      <path
         d="M 94.8286,117.9992 H 95.019"
         id="path41253" />
      <path
         d="m 95.019,117.9992 0.1905,0.0953"
         id="path41255" />
      <path
         d="m 95.2095,118.0945 0.0953,0.0952"
         id="path41257" />
      <path
         d="M 95.3048,118.1897 95.4,118.3802"
         id="path41259" />
      <path
         d="m 95.4,118.3802 0.0952,0.3809"
         id="path41261" />
      <path
         d="m 95.4952,118.7611 v 0.4762"
         id="path41263" />
      <path
         d="M 95.4952,119.2373 95.4,119.6183"
         id="path41265" />
      <path
         d="m 95.4,119.6183 -0.0952,0.1905"
         id="path41267" />
      <path
         d="m 95.3048,119.8088 -0.0953,0.0952"
         id="path41269" />
      <path
         d="m 95.2095,119.904 -0.1905,0.0952"
         id="path41271" />
      <path
         d="M 95.019,119.9992 H 94.8286"
         id="path41273" />
      <path
         d="M 94.8286,119.9992 94.6381,119.904"
         id="path41275" />
      <path
         d="m 94.6381,119.904 -0.0952,-0.0952"
         id="path41277" />
      <path
         d="m 94.5429,119.8088 -0.0953,-0.1905"
         id="path41279" />
      <path
         d="m 94.4476,119.6183 -0.0952,-0.381"
         id="path41281" />
      <path
         d="m 94.3524,119.2373 v -0.4762"
         id="path41283" />
      <path
         d="m 94.3524,118.7611 0.0952,-0.3809"
         id="path41285" />
      <path
         d="m 94.4476,118.3802 0.0953,-0.1905"
         id="path41287" />
      <path
         d="m 94.5429,118.1897 0.0952,-0.0952"
         id="path41289" />
      <path
         d="m 94.6381,118.0945 0.1905,-0.0953"
         id="path41291" />
      <path
         d="m 97.8762,119.9992 v -1.3333"
         id="path41293" />
      <path
         d="m 97.8762,118.8564 0.0952,-0.0953"
         id="path41295" />
      <path
         d="m 97.9714,118.7611 0.1905,-0.0952"
         id="path41297" />
      <path
         d="m 98.1619,118.6659 h 0.2857"
         id="path41299" />
      <path
         d="m 98.4476,118.6659 0.1905,0.0952"
         id="path41301" />
      <path
         d="m 98.6381,118.7611 0.0952,0.1905"
         id="path41303" />
      <path
         d="m 98.7333,118.9516 v 1.0476"
         id="path41305" />
      <path
         d="m 98.7333,118.9516 0.0953,-0.1905"
         id="path41307" />
      <path
         d="m 98.8286,118.7611 0.1904,-0.0952"
         id="path41309" />
      <path
         d="m 99.019,118.6659 h 0.2858"
         id="path41311" />
      <path
         d="m 99.3048,118.6659 0.1904,0.0952"
         id="path41313" />
      <path
         d="m 99.4952,118.7611 0.0953,0.1905"
         id="path41315" />
      <path
         d="m 99.5905,118.9516 v 1.0476"
         id="path41317" />
      <path
         d="m 100.5429,119.9992 v -1.3333"
         id="path41319" />
      <path
         d="m 100.5429,118.8564 0.0952,-0.0953"
         id="path41321" />
      <path
         d="m 100.6381,118.7611 0.1905,-0.0952"
         id="path41323" />
      <path
         d="m 100.8286,118.6659 h 0.2857"
         id="path41325" />
      <path
         d="m 101.1143,118.6659 0.1905,0.0952"
         id="path41327" />
      <path
         d="m 101.3048,118.7611 0.0952,0.1905"
         id="path41329" />
      <path
         d="m 101.4,118.9516 v 1.0476"
         id="path41331" />
      <path
         d="m 101.4,118.9516 0.0952,-0.1905"
         id="path41333" />
      <path
         d="m 101.4952,118.7611 0.1905,-0.0952"
         id="path41335" />
      <path
         d="m 101.6857,118.6659 h 0.2857"
         id="path41337" />
      <path
         d="m 101.9714,118.6659 0.1905,0.0952"
         id="path41339" />
      <path
         d="m 102.1619,118.7611 0.0952,0.1905"
         id="path41341" />
      <path
         d="m 102.2571,118.9516 v 1.0476"
         id="path41343" />
    </g>
  </g>
  <g
     style="fill:#c2c2c2;fill-opacity:0;stroke:#c2c2c2;stroke-width:0.4;stroke-linecap:round;stroke-linejoin:round;stroke-opacity:1"
     id="g41361"
     transform="translate(-68.5492,-21.4)">
    <path
       d="m 92.4,102.1 v 15.0864"
       id="path41349" />
    <path
       d="M 102.4,117.1864 V 102.1"
       id="path41351" />
    <path
       d="m 92.4,116.6 1.1265,-0.5864"
       id="path41353" />
    <path
       d="m 92.4,116.6 1.1265,0.5864"
       id="path41355" />
    <path
       d="m 102.4,116.6 -1.1265,0.5864"
       id="path41357" />
    <path
       d="m 102.4,116.6 -1.1265,-0.5864"
       id="path41359" />
  </g>
  <g
     style="fill:#c2c2c2;fill-opacity:0;stroke:#c2c2c2;stroke-width:0.5;stroke-linecap:round;stroke-linejoin:round;stroke-opacity:1"
     id="g41503"
     transform="translate(-68.5492,-21.4)">
    <text
       x="102.4"
       y="185.10001"
       textLength="11.7667"
       font-size="2.6667px"
       lengthAdjust="spacingAndGlyphs"
       text-anchor="middle"
       opacity="0"
       id="text41363">60 mm</text>
    <g
       class="stroked-text"
       id="g41501">
      <desc
         id="desc41365">60 mm</desc>
      <path
         d="M 98.4,182.9992 H 98.019"
         id="path41367" />
      <path
         d="m 98.019,182.9992 -0.1904,0.0953"
         id="path41369" />
      <path
         d="m 97.8286,183.0945 -0.0953,0.0952"
         id="path41371" />
      <path
         d="m 97.7333,183.1897 -0.1904,0.2857"
         id="path41373" />
      <path
         d="m 97.5429,183.4754 -0.0953,0.381"
         id="path41375" />
      <path
         d="m 97.4476,183.8564 v 0.7619"
         id="path41377" />
      <path
         d="m 97.4476,184.6183 0.0953,0.1905"
         id="path41379" />
      <path
         d="m 97.5429,184.8088 0.0952,0.0952"
         id="path41381" />
      <path
         d="m 97.6381,184.904 0.1905,0.0952"
         id="path41383" />
      <path
         d="m 97.8286,184.9992 h 0.3809"
         id="path41385" />
      <path
         d="M 98.2095,184.9992 98.4,184.904"
         id="path41387" />
      <path
         d="m 98.4,184.904 0.0952,-0.0952"
         id="path41389" />
      <path
         d="m 98.4952,184.8088 0.0953,-0.1905"
         id="path41391" />
      <path
         d="m 98.5905,184.6183 v -0.4762"
         id="path41393" />
      <path
         d="m 98.5905,184.1421 -0.0953,-0.1905"
         id="path41395" />
      <path
         d="M 98.4952,183.9516 98.4,183.8564"
         id="path41397" />
      <path
         d="m 98.4,183.8564 -0.1905,-0.0953"
         id="path41399" />
      <path
         d="M 98.2095,183.7611 H 97.8286"
         id="path41401" />
      <path
         d="m 97.8286,183.7611 -0.1905,0.0953"
         id="path41403" />
      <path
         d="m 97.6381,183.8564 -0.0952,0.0952"
         id="path41405" />
      <path
         d="m 97.5429,183.9516 -0.0953,0.1905"
         id="path41407" />
      <path
         d="m 99.8286,182.9992 h 0.1904"
         id="path41409" />
      <path
         d="m 100.019,182.9992 0.1905,0.0953"
         id="path41411" />
      <path
         d="m 100.2095,183.0945 0.0953,0.0952"
         id="path41413" />
      <path
         d="m 100.3048,183.1897 0.0952,0.1905"
         id="path41415" />
      <path
         d="m 100.4,183.3802 0.0952,0.3809"
         id="path41417" />
      <path
         d="m 100.4952,183.7611 v 0.4762"
         id="path41419" />
      <path
         d="m 100.4952,184.2373 -0.0952,0.381"
         id="path41421" />
      <path
         d="m 100.4,184.6183 -0.0952,0.1905"
         id="path41423" />
      <path
         d="m 100.3048,184.8088 -0.0953,0.0952"
         id="path41425" />
      <path
         d="m 100.2095,184.904 -0.1905,0.0952"
         id="path41427" />
      <path
         d="M 100.019,184.9992 H 99.8286"
         id="path41429" />
      <path
         d="M 99.8286,184.9992 99.6381,184.904"
         id="path41431" />
      <path
         d="m 99.6381,184.904 -0.0952,-0.0952"
         id="path41433" />
      <path
         d="m 99.5429,184.8088 -0.0953,-0.1905"
         id="path41435" />
      <path
         d="m 99.4476,184.6183 -0.0952,-0.381"
         id="path41437" />
      <path
         d="m 99.3524,184.2373 v -0.4762"
         id="path41439" />
      <path
         d="m 99.3524,183.7611 0.0952,-0.3809"
         id="path41441" />
      <path
         d="m 99.4476,183.3802 0.0953,-0.1905"
         id="path41443" />
      <path
         d="m 99.5429,183.1897 0.0952,-0.0952"
         id="path41445" />
      <path
         d="m 99.6381,183.0945 0.1905,-0.0953"
         id="path41447" />
      <path
         d="m 102.8762,184.9992 v -1.3333"
         id="path41449" />
      <path
         d="m 102.8762,183.8564 0.0952,-0.0953"
         id="path41451" />
      <path
         d="m 102.9714,183.7611 0.1905,-0.0952"
         id="path41453" />
      <path
         d="m 103.1619,183.6659 h 0.2857"
         id="path41455" />
      <path
         d="m 103.4476,183.6659 0.1905,0.0952"
         id="path41457" />
      <path
         d="m 103.6381,183.7611 0.0952,0.1905"
         id="path41459" />
      <path
         d="m 103.7333,183.9516 v 1.0476"
         id="path41461" />
      <path
         d="m 103.7333,183.9516 0.0953,-0.1905"
         id="path41463" />
      <path
         d="m 103.8286,183.7611 0.1904,-0.0952"
         id="path41465" />
      <path
         d="m 104.019,183.6659 h 0.2858"
         id="path41467" />
      <path
         d="m 104.3048,183.6659 0.1904,0.0952"
         id="path41469" />
      <path
         d="m 104.4952,183.7611 0.0953,0.1905"
         id="path41471" />
      <path
         d="m 104.5905,183.9516 v 1.0476"
         id="path41473" />
      <path
         d="m 105.5429,184.9992 v -1.3333"
         id="path41475" />
      <path
         d="m 105.5429,183.8564 0.0952,-0.0953"
         id="path41477" />
      <path
         d="m 105.6381,183.7611 0.1905,-0.0952"
         id="path41479" />
      <path
         d="m 105.8286,183.6659 h 0.2857"
         id="path41481" />
      <path
         d="m 106.1143,183.6659 0.1905,0.0952"
         id="path41483" />
      <path
         d="m 106.3048,183.7611 0.0952,0.1905"
         id="path41485" />
      <path
         d="m 106.4,183.9516 v 1.0476"
         id="path41487" />
      <path
         d="m 106.4,183.9516 0.0952,-0.1905"
         id="path41489" />
      <path
         d="m 106.4952,183.7611 0.1905,-0.0952"
         id="path41491" />
      <path
         d="m 106.6857,183.6659 h 0.2857"
         id="path41493" />
      <path
         d="m 106.9714,183.6659 0.1905,0.0952"
         id="path41495" />
      <path
         d="m 107.1619,183.7611 0.0952,0.1905"
         id="path41497" />
      <path
         d="m 107.2571,183.9516 v 1.0476"
         id="path41499" />
    </g>
  </g>
  <g
     style="fill:#c2c2c2;fill-opacity:0;stroke:#c2c2c2;stroke-width:0.4;stroke-linecap:round;stroke-linejoin:round;stroke-opacity:1"
     id="g41521"
     transform="translate(-68.5492,-21.4)">
    <path
       d="m 132.4,177.1 v 7.5864"
       id="path41505" />
    <path
       d="M 72.4,184.6864 V 177.6"
       id="path41507" />
    <path
       d="M 132.4,184.1 H 109.2833"
       id="path41509" />
    <path
       d="M 95.5167,184.1 H 72.4"
       id="path41511" />
    <path
       d="m 132.4,184.1 -1.1265,0.5864"
       id="path41513" />
    <path
       d="m 132.4,184.1 -1.1265,-0.5864"
       id="path41515" />
    <path
       d="m 72.4,184.1 1.1265,-0.5864"
       id="path41517" />
    <path
       d="m 72.4,184.1 1.1265,0.5864"
       id="path41519" />
  </g>
  <g
     style="fill:#c2c2c2;fill-opacity:0;stroke:#c2c2c2;stroke-width:0.5;stroke-linecap:round;stroke-linejoin:round;stroke-opacity:1"
     id="g41675"
     transform="translate(-68.5492,-21.4)">
    <g
       transform="rotate(-90,69.9,101.6)"
       id="g41525">
      <text
         x="69.900002"
         y="102.6"
         textLength="13.6714"
         font-size="2.6667px"
         lengthAdjust="spacingAndGlyphs"
         text-anchor="middle"
         opacity="0"
         id="text41523">160 mm</text>
    </g>
    <g
       class="stroked-text"
       id="g41673">
      <desc
         id="desc41527">160 mm</desc>
      <path
         d="m 70.7992,106.3619 v 1.1429"
         id="path41529" />
      <path
         d="m 70.7992,106.9333 h -2"
         id="path41531" />
      <path
         d="m 68.7992,106.9333 0.2858,0.1905"
         id="path41533" />
      <path
         d="m 69.085,107.1238 0.1904,0.1905"
         id="path41535" />
      <path
         d="m 69.2754,107.3143 0.0953,0.1905"
         id="path41537" />
      <path
         d="m 68.7992,104.6476 v 0.381"
         id="path41539" />
      <path
         d="m 68.7992,105.0286 0.0953,0.1904"
         id="path41541" />
      <path
         d="m 68.8945,105.219 0.0952,0.0953"
         id="path41543" />
      <path
         d="m 68.9897,105.3143 0.2857,0.1905"
         id="path41545" />
      <path
         d="m 69.2754,105.5048 0.381,0.0952"
         id="path41547" />
      <path
         d="m 69.6564,105.6 h 0.7619"
         id="path41549" />
      <path
         d="m 70.4183,105.6 0.1905,-0.0952"
         id="path41551" />
      <path
         d="m 70.6088,105.5048 0.0952,-0.0953"
         id="path41553" />
      <path
         d="m 70.704,105.4095 0.0952,-0.1905"
         id="path41555" />
      <path
         d="m 70.7992,105.219 v -0.3809"
         id="path41557" />
      <path
         d="M 70.7992,104.8381 70.704,104.6476"
         id="path41559" />
      <path
         d="m 70.704,104.6476 -0.0952,-0.0952"
         id="path41561" />
      <path
         d="m 70.6088,104.5524 -0.1905,-0.0953"
         id="path41563" />
      <path
         d="M 70.4183,104.4571 H 69.9421"
         id="path41565" />
      <path
         d="m 69.9421,104.4571 -0.1905,0.0953"
         id="path41567" />
      <path
         d="m 69.7516,104.5524 -0.0952,0.0952"
         id="path41569" />
      <path
         d="m 69.6564,104.6476 -0.0953,0.1905"
         id="path41571" />
      <path
         d="m 69.5611,104.8381 v 0.3809"
         id="path41573" />
      <path
         d="m 69.5611,105.219 0.0953,0.1905"
         id="path41575" />
      <path
         d="m 69.6564,105.4095 0.0952,0.0953"
         id="path41577" />
      <path
         d="M 69.7516,105.5048 69.9421,105.6"
         id="path41579" />
      <path
         d="m 68.7992,103.219 v -0.1904"
         id="path41581" />
      <path
         d="m 68.7992,103.0286 0.0953,-0.1905"
         id="path41583" />
      <path
         d="m 68.8945,102.8381 0.0952,-0.0952"
         id="path41585" />
      <path
         d="m 68.9897,102.7429 0.1905,-0.0953"
         id="path41587" />
      <path
         d="m 69.1802,102.6476 0.3809,-0.0952"
         id="path41589" />
      <path
         d="m 69.5611,102.5524 h 0.4762"
         id="path41591" />
      <path
         d="m 70.0373,102.5524 0.381,0.0952"
         id="path41593" />
      <path
         d="m 70.4183,102.6476 0.1905,0.0953"
         id="path41595" />
      <path
         d="m 70.6088,102.7429 0.0952,0.0952"
         id="path41597" />
      <path
         d="m 70.704,102.8381 0.0952,0.1905"
         id="path41599" />
      <path
         d="m 70.7992,103.0286 v 0.1904"
         id="path41601" />
      <path
         d="m 70.7992,103.219 -0.0952,0.1905"
         id="path41603" />
      <path
         d="m 70.704,103.4095 -0.0952,0.0953"
         id="path41605" />
      <path
         d="M 70.6088,103.5048 70.4183,103.6"
         id="path41607" />
      <path
         d="m 70.4183,103.6 -0.381,0.0952"
         id="path41609" />
      <path
         d="M 70.0373,103.6952 H 69.5611"
         id="path41611" />
      <path
         d="M 69.5611,103.6952 69.1802,103.6"
         id="path41613" />
      <path
         d="m 69.1802,103.6 -0.1905,-0.0952"
         id="path41615" />
      <path
         d="m 68.9897,103.5048 -0.0952,-0.0953"
         id="path41617" />
      <path
         d="M 68.8945,103.4095 68.7992,103.219"
         id="path41619" />
      <path
         d="M 70.7992,100.1714 H 69.4659"
         id="path41621" />
      <path
         d="m 69.6564,100.1714 -0.0953,-0.0952"
         id="path41623" />
      <path
         d="M 69.5611,100.0762 69.4659,99.8857"
         id="path41625" />
      <path
         d="M 69.4659,99.8857 V 99.6"
         id="path41627" />
      <path
         d="m 69.4659,99.6 0.0952,-0.1905"
         id="path41629" />
      <path
         d="m 69.5611,99.4095 0.1905,-0.0952"
         id="path41631" />
      <path
         d="m 69.7516,99.3143 h 1.0476"
         id="path41633" />
      <path
         d="M 69.7516,99.3143 69.5611,99.219"
         id="path41635" />
      <path
         d="M 69.5611,99.219 69.4659,99.0286"
         id="path41637" />
      <path
         d="M 69.4659,99.0286 V 98.7429"
         id="path41639" />
      <path
         d="m 69.4659,98.7429 0.0952,-0.1905"
         id="path41641" />
      <path
         d="m 69.5611,98.5524 0.1905,-0.0953"
         id="path41643" />
      <path
         d="m 69.7516,98.4571 h 1.0476"
         id="path41645" />
      <path
         d="M 70.7992,97.5048 H 69.4659"
         id="path41647" />
      <path
         d="M 69.6564,97.5048 69.5611,97.4095"
         id="path41649" />
      <path
         d="M 69.5611,97.4095 69.4659,97.219"
         id="path41651" />
      <path
         d="M 69.4659,97.219 V 96.9333"
         id="path41653" />
      <path
         d="m 69.4659,96.9333 0.0952,-0.1904"
         id="path41655" />
      <path
         d="m 69.5611,96.7429 0.1905,-0.0953"
         id="path41657" />
      <path
         d="m 69.7516,96.6476 h 1.0476"
         id="path41659" />
      <path
         d="M 69.7516,96.6476 69.5611,96.5524"
         id="path41661" />
      <path
         d="M 69.5611,96.5524 69.4659,96.3619"
         id="path41663" />
      <path
         d="M 69.4659,96.3619 V 96.0762"
         id="path41665" />
      <path
         d="m 69.4659,96.0762 0.0952,-0.1905"
         id="path41667" />
      <path
         d="m 69.5611,95.8857 0.1905,-0.0952"
         id="path41669" />
      <path
         d="m 69.7516,95.7905 h 1.0476"
         id="path41671" />
    </g>
  </g>
  <g
     style="fill:#c2c2c2;fill-opacity:0;stroke:#c2c2c2;stroke-width:0.4;stroke-linecap:round;stroke-linejoin:round;stroke-opacity:1"
     id="g41693"
     transform="translate(-68.5492,-21.4)">
    <path
       d="M 76.9,21.6 H 69.3136"
       id="path41677" />
    <path
       d="M 69.3136,181.6 H 76.9"
       id="path41679" />
    <path
       d="M 69.9,21.6 V 93.7643"
       id="path41681" />
    <path
       d="M 69.9,109.4357 V 181.6"
       id="path41683" />
    <path
       d="m 69.9,21.6 0.5864,1.1265"
       id="path41685" />
    <path
       d="m 69.9,21.6 -0.5864,1.1265"
       id="path41687" />
    <path
       d="m 69.9,181.6 -0.5864,-1.1265"
       id="path41689" />
    <path
       d="m 69.9,181.6 0.5864,-1.1265"
       id="path41691" />
  </g>
  <g
     style="fill:#c2c2c2;fill-opacity:0;stroke:#c2c2c2;stroke-width:0.5;stroke-linecap:round;stroke-linejoin:round;stroke-opacity:1"
     id="g41835"
     transform="translate(-68.5492,-21.4)">
    <g
       transform="rotate(-90,127.4,101.6)"
       id="g41697">
      <text
         x="127.4"
         y="102.6"
         textLength="13.6714"
         font-size="2.6667px"
         lengthAdjust="spacingAndGlyphs"
         text-anchor="middle"
         opacity="0"
         id="text41695">150 mm</text>
    </g>
    <g
       class="stroked-text"
       id="g41833">
      <desc
         id="desc41699">150 mm</desc>
      <path
         d="m 128.2992,106.3619 v 1.1429"
         id="path41701" />
      <path
         d="m 128.2992,106.9333 h -2"
         id="path41703" />
      <path
         d="m 126.2992,106.9333 0.2858,0.1905"
         id="path41705" />
      <path
         d="m 126.585,107.1238 0.1904,0.1905"
         id="path41707" />
      <path
         d="m 126.7754,107.3143 0.0953,0.1905"
         id="path41709" />
      <path
         d="m 126.2992,104.5524 v 0.9524"
         id="path41711" />
      <path
         d="m 126.2992,105.5048 0.9524,0.0952"
         id="path41713" />
      <path
         d="m 127.2516,105.6 -0.0952,-0.0952"
         id="path41715" />
      <path
         d="m 127.1564,105.5048 -0.0953,-0.1905"
         id="path41717" />
      <path
         d="m 127.0611,105.3143 v -0.4762"
         id="path41719" />
      <path
         d="m 127.0611,104.8381 0.0953,-0.1905"
         id="path41721" />
      <path
         d="m 127.1564,104.6476 0.0952,-0.0952"
         id="path41723" />
      <path
         d="m 127.2516,104.5524 0.1905,-0.0953"
         id="path41725" />
      <path
         d="m 127.4421,104.4571 h 0.4762"
         id="path41727" />
      <path
         d="m 127.9183,104.4571 0.1905,0.0953"
         id="path41729" />
      <path
         d="m 128.1088,104.5524 0.0952,0.0952"
         id="path41731" />
      <path
         d="m 128.204,104.6476 0.0952,0.1905"
         id="path41733" />
      <path
         d="m 128.2992,104.8381 v 0.4762"
         id="path41735" />
      <path
         d="m 128.2992,105.3143 -0.0952,0.1905"
         id="path41737" />
      <path
         d="M 128.204,105.5048 128.1088,105.6"
         id="path41739" />
      <path
         d="m 126.2992,103.219 v -0.1904"
         id="path41741" />
      <path
         d="m 126.2992,103.0286 0.0953,-0.1905"
         id="path41743" />
      <path
         d="m 126.3945,102.8381 0.0952,-0.0952"
         id="path41745" />
      <path
         d="m 126.4897,102.7429 0.1905,-0.0953"
         id="path41747" />
      <path
         d="m 126.6802,102.6476 0.3809,-0.0952"
         id="path41749" />
      <path
         d="m 127.0611,102.5524 h 0.4762"
         id="path41751" />
      <path
         d="m 127.5373,102.5524 0.381,0.0952"
         id="path41753" />
      <path
         d="m 127.9183,102.6476 0.1905,0.0953"
         id="path41755" />
      <path
         d="m 128.1088,102.7429 0.0952,0.0952"
         id="path41757" />
      <path
         d="m 128.204,102.8381 0.0952,0.1905"
         id="path41759" />
      <path
         d="m 128.2992,103.0286 v 0.1904"
         id="path41761" />
      <path
         d="m 128.2992,103.219 -0.0952,0.1905"
         id="path41763" />
      <path
         d="m 128.204,103.4095 -0.0952,0.0953"
         id="path41765" />
      <path
         d="M 128.1088,103.5048 127.9183,103.6"
         id="path41767" />
      <path
         d="m 127.9183,103.6 -0.381,0.0952"
         id="path41769" />
      <path
         d="m 127.5373,103.6952 h -0.4762"
         id="path41771" />
      <path
         d="M 127.0611,103.6952 126.6802,103.6"
         id="path41773" />
      <path
         d="m 126.6802,103.6 -0.1905,-0.0952"
         id="path41775" />
      <path
         d="m 126.4897,103.5048 -0.0952,-0.0953"
         id="path41777" />
      <path
         d="m 126.3945,103.4095 -0.0953,-0.1905"
         id="path41779" />
      <path
         d="m 128.2992,100.1714 h -1.3333"
         id="path41781" />
      <path
         d="m 127.1564,100.1714 -0.0953,-0.0952"
         id="path41783" />
      <path
         d="m 127.0611,100.0762 -0.0952,-0.1905"
         id="path41785" />
      <path
         d="M 126.9659,99.8857 V 99.6"
         id="path41787" />
      <path
         d="m 126.9659,99.6 0.0952,-0.1905"
         id="path41789" />
      <path
         d="m 127.0611,99.4095 0.1905,-0.0952"
         id="path41791" />
      <path
         d="m 127.2516,99.3143 h 1.0476"
         id="path41793" />
      <path
         d="M 127.2516,99.3143 127.0611,99.219"
         id="path41795" />
      <path
         d="m 127.0611,99.219 -0.0952,-0.1904"
         id="path41797" />
      <path
         d="M 126.9659,99.0286 V 98.7429"
         id="path41799" />
      <path
         d="m 126.9659,98.7429 0.0952,-0.1905"
         id="path41801" />
      <path
         d="m 127.0611,98.5524 0.1905,-0.0953"
         id="path41803" />
      <path
         d="m 127.2516,98.4571 h 1.0476"
         id="path41805" />
      <path
         d="m 128.2992,97.5048 h -1.3333"
         id="path41807" />
      <path
         d="m 127.1564,97.5048 -0.0953,-0.0953"
         id="path41809" />
      <path
         d="M 127.0611,97.4095 126.9659,97.219"
         id="path41811" />
      <path
         d="M 126.9659,97.219 V 96.9333"
         id="path41813" />
      <path
         d="m 126.9659,96.9333 0.0952,-0.1904"
         id="path41815" />
      <path
         d="m 127.0611,96.7429 0.1905,-0.0953"
         id="path41817" />
      <path
         d="m 127.2516,96.6476 h 1.0476"
         id="path41819" />
      <path
         d="m 127.2516,96.6476 -0.1905,-0.0952"
         id="path41821" />
      <path
         d="m 127.0611,96.5524 -0.0952,-0.1905"
         id="path41823" />
      <path
         d="M 126.9659,96.3619 V 96.0762"
         id="path41825" />
      <path
         d="m 126.9659,96.0762 0.0952,-0.1905"
         id="path41827" />
      <path
         d="m 127.0611,95.8857 0.1905,-0.0952"
         id="path41829" />
      <path
         d="m 127.2516,95.7905 h 1.0476"
         id="path41831" />
    </g>
  </g>
  <g
     style="fill:#c2c2c2;fill-opacity:1;stroke:#c2c2c2;stroke-width:0;stroke-linecap:round;stroke-linejoin:round;stroke-opacity:1"
     id="g41841"
     transform="translate(-68.5492,-21.4)">
    <circle
       cx="127.4"
       cy="26.6"
       r="0.2"
       id="circle41837" />
    <circle
       cx="127.4"
       cy="176.60001"
       r="0.2"
       id="circle41839" />
  </g>
  <g
     style="fill:#c2c2c2;fill-opacity:1;stroke:#c2c2c2;stroke-width:0.4;stroke-linecap:round;stroke-linejoin:round;stroke-opacity:1"
     id="g41843"
     transform="translate(-68.5492,-21.4)" />
  <g
     style="fill:#c2c2c2;fill-opacity:0;stroke:#c2c2c2;stroke-width:0.4;stroke-linecap:round;stroke-linejoin:round;stroke-opacity:1"
     id="g41857"
     transform="translate(-68.5492,-21.4)">
    <path
       d="M 127.4,26.6 V 93.7643"
       id="path41845" />
    <path
       d="M 127.4,109.4357 V 176.6"
       id="path41847" />
    <path
       d="m 127.4,26.6 0.5864,1.1265"
       id="path41849" />
    <path
       d="m 127.4,26.6 -0.5864,1.1265"
       id="path41851" />
    <path
       d="m 127.4,176.6 -0.5864,-1.1265"
       id="path41853" />
    <path
       d="m 127.4,176.6 0.5864,-1.1265"
       id="path41855" />
  </g>
  <g
     style="fill:#c2c2c2;fill-opacity:0;stroke:#c2c2c2;stroke-width:0.5;stroke-linecap:round;stroke-linejoin:round;stroke-opacity:1"
     id="g41987"
     transform="translate(-68.5492,-21.4)">
    <text
       x="102.4"
       y="177.60001"
       textLength="11.7667"
       font-size="2.6667px"
       lengthAdjust="spacingAndGlyphs"
       text-anchor="middle"
       opacity="0"
       id="text41859">50 mm</text>
    <g
       class="stroked-text"
       id="g41985">
      <desc
         id="desc41861">50 mm</desc>
      <path
         d="M 98.4952,175.4992 H 97.5429"
         id="path41863" />
      <path
         d="m 97.5429,175.4992 -0.0953,0.9524"
         id="path41865" />
      <path
         d="m 97.4476,176.4516 0.0953,-0.0952"
         id="path41867" />
      <path
         d="m 97.5429,176.3564 0.1904,-0.0953"
         id="path41869" />
      <path
         d="m 97.7333,176.2611 h 0.4762"
         id="path41871" />
      <path
         d="M 98.2095,176.2611 98.4,176.3564"
         id="path41873" />
      <path
         d="m 98.4,176.3564 0.0952,0.0952"
         id="path41875" />
      <path
         d="m 98.4952,176.4516 0.0953,0.1905"
         id="path41877" />
      <path
         d="m 98.5905,176.6421 v 0.4762"
         id="path41879" />
      <path
         d="m 98.5905,177.1183 -0.0953,0.1905"
         id="path41881" />
      <path
         d="M 98.4952,177.3088 98.4,177.404"
         id="path41883" />
      <path
         d="m 98.4,177.404 -0.1905,0.0952"
         id="path41885" />
      <path
         d="M 98.2095,177.4992 H 97.7333"
         id="path41887" />
      <path
         d="M 97.7333,177.4992 97.5429,177.404"
         id="path41889" />
      <path
         d="m 97.5429,177.404 -0.0953,-0.0952"
         id="path41891" />
      <path
         d="m 99.8286,175.4992 h 0.1904"
         id="path41893" />
      <path
         d="m 100.019,175.4992 0.1905,0.0953"
         id="path41895" />
      <path
         d="m 100.2095,175.5945 0.0953,0.0952"
         id="path41897" />
      <path
         d="m 100.3048,175.6897 0.0952,0.1905"
         id="path41899" />
      <path
         d="m 100.4,175.8802 0.0952,0.3809"
         id="path41901" />
      <path
         d="m 100.4952,176.2611 v 0.4762"
         id="path41903" />
      <path
         d="m 100.4952,176.7373 -0.0952,0.381"
         id="path41905" />
      <path
         d="m 100.4,177.1183 -0.0952,0.1905"
         id="path41907" />
      <path
         d="m 100.3048,177.3088 -0.0953,0.0952"
         id="path41909" />
      <path
         d="m 100.2095,177.404 -0.1905,0.0952"
         id="path41911" />
      <path
         d="M 100.019,177.4992 H 99.8286"
         id="path41913" />
      <path
         d="M 99.8286,177.4992 99.6381,177.404"
         id="path41915" />
      <path
         d="m 99.6381,177.404 -0.0952,-0.0952"
         id="path41917" />
      <path
         d="m 99.5429,177.3088 -0.0953,-0.1905"
         id="path41919" />
      <path
         d="m 99.4476,177.1183 -0.0952,-0.381"
         id="path41921" />
      <path
         d="m 99.3524,176.7373 v -0.4762"
         id="path41923" />
      <path
         d="m 99.3524,176.2611 0.0952,-0.3809"
         id="path41925" />
      <path
         d="m 99.4476,175.8802 0.0953,-0.1905"
         id="path41927" />
      <path
         d="m 99.5429,175.6897 0.0952,-0.0952"
         id="path41929" />
      <path
         d="m 99.6381,175.5945 0.1905,-0.0953"
         id="path41931" />
      <path
         d="m 102.8762,177.4992 v -1.3333"
         id="path41933" />
      <path
         d="m 102.8762,176.3564 0.0952,-0.0953"
         id="path41935" />
      <path
         d="m 102.9714,176.2611 0.1905,-0.0952"
         id="path41937" />
      <path
         d="m 103.1619,176.1659 h 0.2857"
         id="path41939" />
      <path
         d="m 103.4476,176.1659 0.1905,0.0952"
         id="path41941" />
      <path
         d="m 103.6381,176.2611 0.0952,0.1905"
         id="path41943" />
      <path
         d="m 103.7333,176.4516 v 1.0476"
         id="path41945" />
      <path
         d="m 103.7333,176.4516 0.0953,-0.1905"
         id="path41947" />
      <path
         d="m 103.8286,176.2611 0.1904,-0.0952"
         id="path41949" />
      <path
         d="m 104.019,176.1659 h 0.2858"
         id="path41951" />
      <path
         d="m 104.3048,176.1659 0.1904,0.0952"
         id="path41953" />
      <path
         d="m 104.4952,176.2611 0.0953,0.1905"
         id="path41955" />
      <path
         d="m 104.5905,176.4516 v 1.0476"
         id="path41957" />
      <path
         d="m 105.5429,177.4992 v -1.3333"
         id="path41959" />
      <path
         d="m 105.5429,176.3564 0.0952,-0.0953"
         id="path41961" />
      <path
         d="m 105.6381,176.2611 0.1905,-0.0952"
         id="path41963" />
      <path
         d="m 105.8286,176.1659 h 0.2857"
         id="path41965" />
      <path
         d="m 106.1143,176.1659 0.1905,0.0952"
         id="path41967" />
      <path
         d="m 106.3048,176.2611 0.0952,0.1905"
         id="path41969" />
      <path
         d="m 106.4,176.4516 v 1.0476"
         id="path41971" />
      <path
         d="m 106.4,176.4516 0.0952,-0.1905"
         id="path41973" />
      <path
         d="m 106.4952,176.2611 0.1905,-0.0952"
         id="path41975" />
      <path
         d="m 106.6857,176.1659 h 0.2857"
         id="path41977" />
      <path
         d="m 106.9714,176.1659 0.1905,0.0952"
         id="path41979" />
      <path
         d="m 107.1619,176.2611 0.0952,0.1905"
         id="path41981" />
      <path
         d="m 107.2571,176.4516 v 1.0476"
         id="path41983" />
    </g>
  </g>
  <g
     style="fill:#c2c2c2;fill-opacity:1;stroke:#c2c2c2;stroke-width:0;stroke-linecap:round;stroke-linejoin:round;stroke-opacity:1"
     id="g41993"
     transform="translate(-68.5492,-21.4)">
    <circle
       cx="77.400002"
       cy="176.60001"
       r="0.2"
       id="circle41989" />
    <circle
       cx="127.4"
       cy="176.60001"
       r="0.2"
       id="circle41991" />
  </g>
  <g
     style="fill:#c2c2c2;fill-opacity:1;stroke:#c2c2c2;stroke-width:0.4;stroke-linecap:round;stroke-linejoin:round;stroke-opacity:1"
     id="g41995"
     transform="translate(-68.5492,-21.4)" />
  <g
     style="fill:#c2c2c2;fill-opacity:0;stroke:#c2c2c2;stroke-width:0.4;stroke-linecap:round;stroke-linejoin:round;stroke-opacity:1"
     id="g42141"
     transform="translate(-68.5492,-21.4)">
    <path
       d="M 77.4,176.6 H 95.5167"
       id="path41997" />
    <path
       d="M 109.2833,176.6 H 127.4"
       id="path41999" />
    <path
       d="m 77.4,176.6 1.1265,-0.5864"
       id="path42001" />
    <path
       d="m 77.4,176.6 1.1265,0.5864"
       id="path42003" />
    <path
       d="m 127.4,176.6 -1.1265,0.5864"
       id="path42005" />
    <path
       d="m 127.4,176.6 -1.1265,-0.5864"
       id="path42007" />
    <circle
       cx="127.4"
       cy="176.60001"
       r="1.6"
       id="circle42009" />
    <circle
       cx="77.400002"
       cy="26.6"
       r="1.6"
       id="circle42011" />
    <circle
       cx="127.4"
       cy="26.6"
       r="1.6"
       id="circle42013" />
    <circle
       cx="77.400002"
       cy="176.60001"
       r="1.6"
       id="circle42015" />
    <g
       id="g42017" />
    <g
       id="g42019" />
    <g
       id="g42021" />
    <g
       id="g42023" />
    <g
       id="g42025" />
    <g
       id="g42027" />
    <g
       id="g42029" />
    <g
       id="g42031" />
    <g
       id="g42033" />
    <g
       id="g42035" />
    <g
       id="g42037" />
    <g
       id="g42039" />
    <g
       id="g42041" />
    <g
       id="g42043" />
    <g
       id="g42045" />
    <g
       id="g42047" />
    <g
       id="g42049" />
    <g
       id="g42051" />
    <g
       id="g42053" />
    <g
       id="g42055" />
    <g
       id="g42057" />
    <g
       id="g42059" />
    <g
       id="g42061" />
    <g
       id="g42063" />
    <g
       id="g42065" />
    <g
       id="g42067" />
    <g
       id="g42069" />
    <g
       id="g42071" />
    <g
       id="g42073" />
    <g
       id="g42075" />
    <g
       id="g42077" />
    <g
       id="g42079" />
    <g
       id="g42081" />
    <g
       id="g42083" />
    <g
       id="g42085" />
    <g
       id="g42087" />
    <g
       id="g42089" />
    <g
       id="g42091" />
    <g
       id="g42093" />
    <g
       id="g42095" />
    <g
       id="g42097" />
    <g
       id="g42099" />
    <g
       id="g42101" />
    <g
       id="g42103" />
    <g
       id="g42105" />
    <g
       id="g42107" />
    <g
       id="g42109" />
    <g
       id="g42111" />
    <g
       id="g42113" />
    <g
       id="g42115" />
    <g
       id="g42117" />
    <g
       id="g42119" />
    <g
       id="g42121" />
    <g
       id="g42123" />
    <g
       id="g42125" />
    <g
       id="g42127" />
    <g
       id="g42129" />
    <g
       id="g42131" />
    <g
       id="g42133" />
    <g
       id="g42135" />
    <g
       id="g42137" />
    <g
       id="g42139" />
  </g>
  <g
     style="fill:#000000;fill-opacity:0;stroke:#000000;stroke-width:0.4;stroke-linecap:round;stroke-linejoin:round;stroke-opacity:1"
     id="g42143"
     transform="translate(-68.5492,-21.4)" />
  <g
     style="fill:#d0d2cd;fill-opacity:0;stroke:#d0d2cd;stroke-width:0.4;stroke-linecap:round;stroke-linejoin:round;stroke-opacity:1"
     id="g42145"
     transform="translate(-68.5492,-21.4)" />
  <g
     style="fill:#d0d2cd;fill-opacity:0;stroke:#d0d2cd;stroke-width:0.1;stroke-linecap:round;stroke-linejoin:round;stroke-opacity:1"
     id="g42287"
     transform="translate(-68.5492,-21.4)">
    <path
       d="m 77.4,21.6 a 5,5 0 0 0 -5,5"
       id="path42147" />
    <path
       d="M 72.4,176.6 V 26.6"
       id="path42149" />
    <path
       d="m 132.4,26.6 v 150"
       id="path42151" />
    <path
       d="m 127.4,181.6 a 5,5 0 0 0 5,-5"
       id="path42153" />
    <path
       d="m 132.4,26.6 a 5,5 0 0 0 -5,-5"
       id="path42155" />
    <path
       d="m 72.4,176.6 a 5,5 0 0 0 5,5"
       id="path42157" />
    <path
       d="m 127.4,181.6 h -50"
       id="path42159" />
    <path
       d="m 77.4,21.6 h 50"
       id="path42161" />
    <g
       id="g42163" />
    <g
       id="g42165" />
    <g
       id="g42167" />
    <g
       id="g42169" />
    <g
       id="g42171" />
    <g
       id="g42173" />
    <g
       id="g42175" />
    <g
       id="g42177" />
    <g
       id="g42179" />
    <g
       id="g42181" />
    <g
       id="g42183" />
    <g
       id="g42185" />
    <g
       id="g42187" />
    <g
       id="g42189" />
    <g
       id="g42191" />
    <g
       id="g42193" />
    <g
       id="g42195" />
    <g
       id="g42197" />
    <g
       id="g42199" />
    <g
       id="g42201" />
    <g
       id="g42203" />
    <g
       id="g42205" />
    <g
       id="g42207" />
    <g
       id="g42209" />
    <g
       id="g42211" />
    <g
       id="g42213" />
    <g
       id="g42215" />
    <g
       id="g42217" />
    <g
       id="g42219" />
    <g
       id="g42221" />
    <g
       id="g42223" />
    <g
       id="g42225" />
    <g
       id="g42227" />
    <g
       id="g42229" />
    <g
       id="g42231" />
    <g
       id="g42233" />
    <g
       id="g42235" />
    <g
       id="g42237" />
    <g
       id="g42239" />
    <g
       id="g42241" />
    <g
       id="g42243" />
    <g
       id="g42245" />
    <g
       id="g42247" />
    <g
       id="g42249" />
    <g
       id="g42251" />
    <g
       id="g42253" />
    <g
       id="g42255" />
    <g
       id="g42257" />
    <g
       id="g42259" />
    <g
       id="g42261" />
    <g
       id="g42263" />
    <g
       id="g42265" />
    <g
       id="g42267" />
    <g
       id="g42269" />
    <g
       id="g42271" />
    <g
       id="g42273" />
    <g
       id="g42275" />
    <g
       id="g42277" />
    <g
       id="g42279" />
    <g
       id="g42281" />
    <g
       id="g42283" />
    <g
       id="g42285" />
  </g>
</svg>
