M48
; DRILL file {KiCad 7.0.11} date Fri 13 Sep 2024 03:19:16 PM EDT
; FORMAT={-:-/ absolute / metric / decimal}
; #@! TF.CreationDate,2024-09-13T15:19:16-04:00
; #@! TF.GenerationSoftware,Kicad,Pcbnew,7.0.11
; #@! TF.FileFunction,Plated,1,4,PTH
FMAT,2
METRIC
; #@! TA.AperFunction,Plated,PTH,ViaDrill
T1C0.200
; #@! TA.AperFunction,Plated,PTH,ComponentDrill
T2C0.200
; #@! TA.AperFunction,Plated,PTH,ViaDrill
T3C0.250
; #@! TA.AperFunction,Plated,PTH,ComponentDrill
T4C0.254
; #@! TA.AperFunction,Plated,PTH,ComponentDrill
T5C1.000
; #@! TA.AperFunction,Plated,PTH,ComponentDrill
T6C1.200
; #@! TA.AperFunction,Plated,PTH,ComponentDrill
T7C1.500
; #@! TA.AperFunction,Plated,PTH,ComponentDrill
T8C2.000
; #@! TA.AperFunction,Plated,PTH,ComponentDrill
T9C3.200
; #@! TA.AperFunction,Plated,PTH,ComponentDrill
T10C3.750
%
G90
G05
T1
X73.9Y-150.6
X73.9Y-152.1
X73.9Y-153.1
X74.9Y-154.1
X76.4Y-147.6
X76.4Y-148.6
X76.9Y-154.6
X77.9Y-153.6
X77.9Y-154.6
X78.4Y-149.1
X81.904Y-146.075
X84.411Y-144.752
X86.4Y-146.6
X86.4Y-149.1
X86.4Y-151.6
X86.4Y-154.1
X86.4Y-156.6
X86.4Y-159.1
X91.314Y-89.132
X92.225Y-97.819
X92.225Y-113.345
X92.225Y-114.615
X92.225Y-115.885
X92.225Y-118.425
X92.225Y-119.695
X92.225Y-120.965
X92.225Y-122.235
X92.225Y-123.505
X92.225Y-124.775
X92.225Y-126.045
X92.225Y-129.855
X92.917Y-51.857
X93.392Y-94.112
X98.575Y-117.155
X98.575Y-118.425
X98.575Y-119.695
X98.575Y-120.965
X98.575Y-122.235
X98.575Y-123.505
X98.575Y-124.775
X98.575Y-128.585
X99.869Y-129.22
X101.658Y-100.841
X102.349Y-74.349
X102.465Y-133.862
X102.945Y-122.82
X104.443Y-73.216
X113.4Y-46.1
X113.4Y-66.1
X113.4Y-86.1
X113.4Y-106.1
X113.4Y-126.1
X113.4Y-146.1
X113.4Y-166.1
X114.362Y-84.545
X114.4Y-127.1
X114.86Y-72.88
X114.9Y-107.1
X115.9Y-46.6
X115.9Y-47.35
X115.9Y-48.1
X115.9Y-66.6
X115.9Y-67.35
X115.9Y-68.1
X115.9Y-86.6
X115.9Y-87.35
X115.9Y-88.1
X115.9Y-106.6
X115.9Y-107.35
X115.9Y-108.1
X115.9Y-126.6
X115.9Y-127.35
X115.9Y-128.1
X115.9Y-146.6
X115.9Y-147.35
X115.9Y-148.1
X115.9Y-166.6
X115.9Y-167.35
X115.9Y-168.1
X122.9Y-47.6
X122.9Y-67.6
X122.9Y-87.6
X122.9Y-107.6
X122.9Y-127.6
X122.9Y-147.6
X122.9Y-167.6
T2
X75.82Y-151.02
X75.82Y-152.18
X76.4Y-151.6
X76.98Y-151.02
X76.98Y-152.18
T3
X75.4Y-95.6
X78.9Y-49.1
X79.9Y-44.1
X80.4Y-42.1
X80.4Y-116.1
X80.9Y-117.1
X82.752Y-151.08
X83.4Y-110.1
X92.4Y-128.6
X93.9Y-132.1
X96.575Y-149.06
X96.9Y-111.1
X98.4Y-115.6
X100.761Y-103.897
X109.9Y-24.1
X116.9Y-43.6
X116.9Y-63.6
X116.9Y-83.6
X116.9Y-103.6
X116.9Y-123.6
X116.9Y-143.6
X116.9Y-163.6
X119.9Y-43.6
X119.9Y-63.6
X119.9Y-83.6
X119.9Y-103.6
X119.9Y-123.6
X119.9Y-143.6
X119.9Y-163.6
T4
X80.506Y-111.1
X81.294Y-111.1
T5
X83.51Y-47.203
X83.51Y-49.742
X83.51Y-52.282
X83.51Y-54.822
X83.51Y-57.362
X83.51Y-59.902
X83.51Y-62.442
X83.51Y-64.983
X83.51Y-67.522
X83.51Y-70.062
X83.51Y-72.602
X83.51Y-75.142
X83.51Y-77.682
X83.51Y-80.222
X83.51Y-82.763
X83.51Y-85.302
X83.51Y-87.843
X83.51Y-90.382
X83.51Y-92.922
X83.51Y-95.462
X101.29Y-47.203
X101.29Y-49.742
X101.29Y-52.282
X101.29Y-54.822
X101.29Y-57.362
X101.29Y-59.902
X101.29Y-62.442
X101.29Y-64.983
X101.29Y-67.522
X101.29Y-70.062
X101.29Y-72.602
X101.29Y-75.142
X101.29Y-77.682
X101.29Y-80.222
X101.29Y-82.763
X101.29Y-85.302
X101.29Y-87.843
X101.29Y-90.382
X101.29Y-92.922
X101.29Y-95.462
T6
X125.4Y-36.35
X125.4Y-39.85
X125.4Y-43.35
X125.4Y-46.85
X125.4Y-56.35
X125.4Y-59.85
X125.4Y-63.35
X125.4Y-66.85
X125.4Y-76.35
X125.4Y-79.85
X125.4Y-83.35
X125.4Y-86.85
X125.4Y-96.35
X125.4Y-99.85
X125.4Y-103.35
X125.4Y-106.85
X125.4Y-116.35
X125.4Y-119.85
X125.4Y-123.35
X125.4Y-126.85
X125.4Y-136.35
X125.4Y-139.85
X125.4Y-143.35
X125.4Y-146.85
X125.4Y-156.35
X125.4Y-159.85
X125.4Y-163.35
X125.4Y-166.85
T7
X86.075Y-25.203
X87.955Y-37.472
X88.615Y-23.502
X89.225Y-34.932
X90.495Y-37.472
X91.765Y-34.932
X93.035Y-37.472
X94.305Y-34.932
X95.575Y-37.472
X96.185Y-25.203
X96.845Y-34.932
X98.725Y-23.482
X114.86Y-30.6
X119.94Y-30.6
T8
X84.525Y-31.612
X100.275Y-31.612
T9
X77.4Y-26.6
X77.4Y-176.6
X127.4Y-26.6
X127.4Y-176.6
T10
X86.685Y-28.562
X98.115Y-28.562
M30
