G04 #@! TF.GenerationSoftware,KiCad,Pcbnew,7.0.11*
G04 #@! TF.CreationDate,2024-07-26T17:39:15-04:00*
G04 #@! TF.ProjectId,cluster-pcb,636c7573-7465-4722-9d70-63622e6b6963,1.0*
G04 #@! TF.SameCoordinates,Original*
G04 #@! TF.FileFunction,Copper,L3,Inr*
G04 #@! TF.FilePolarity,Positive*
%FSLAX46Y46*%
G04 Gerber Fmt 4.6, Leading zero omitted, Abs format (unit mm)*
G04 Created by KiCad (PCBNEW 7.0.11) date 2024-07-26 17:39:15*
%MOMM*%
%LPD*%
G01*
G04 APERTURE LIST*
G04 #@! TA.AperFunction,ComponentPad*
%ADD10R,2.500000X2.500000*%
G04 #@! TD*
G04 #@! TA.AperFunction,ComponentPad*
%ADD11C,2.500000*%
G04 #@! TD*
G04 #@! TA.AperFunction,ComponentPad*
%ADD12C,6.400000*%
G04 #@! TD*
G04 #@! TA.AperFunction,ComponentPad*
%ADD13C,2.250000*%
G04 #@! TD*
G04 #@! TA.AperFunction,ComponentPad*
%ADD14C,1.750000*%
G04 #@! TD*
G04 #@! TA.AperFunction,ComponentPad*
%ADD15C,4.250000*%
G04 #@! TD*
G04 #@! TA.AperFunction,ComponentPad*
%ADD16R,1.700000X1.700000*%
G04 #@! TD*
G04 #@! TA.AperFunction,ComponentPad*
%ADD17O,1.700000X1.700000*%
G04 #@! TD*
G04 #@! TA.AperFunction,ComponentPad*
%ADD18C,1.700000*%
G04 #@! TD*
G04 #@! TA.AperFunction,ViaPad*
%ADD19C,0.750000*%
G04 #@! TD*
G04 #@! TA.AperFunction,ViaPad*
%ADD20C,0.400000*%
G04 #@! TD*
G04 #@! TA.AperFunction,Conductor*
%ADD21C,0.300000*%
G04 #@! TD*
G04 APERTURE END LIST*
D10*
X114652500Y-30600000D03*
D11*
X109572500Y-30600000D03*
D12*
X127400000Y-176600000D03*
D13*
X100274998Y-31612500D03*
D14*
X98725000Y-23482500D03*
D15*
X98115000Y-28562500D03*
D14*
X96845000Y-34932500D03*
X96185000Y-25202500D03*
X95575000Y-37472500D03*
X94305000Y-34932500D03*
X93035000Y-37472500D03*
X91765000Y-34932500D03*
X90495000Y-37472500D03*
X89225000Y-34932500D03*
X88615000Y-23502500D03*
X87955000Y-37472500D03*
D15*
X86685000Y-28562500D03*
D14*
X86075000Y-25202500D03*
D13*
X84525002Y-31612500D03*
D16*
X101290000Y-95462500D03*
D17*
X101290000Y-92922500D03*
X101290000Y-90382500D03*
X101290000Y-87842500D03*
X101290000Y-85302500D03*
X101290000Y-82762500D03*
X101290000Y-80222500D03*
X101290000Y-77682500D03*
X101290000Y-75142500D03*
X101290000Y-72602500D03*
X101290000Y-70062500D03*
X101290000Y-67522500D03*
X101290000Y-64982500D03*
X101290000Y-62442500D03*
X101290000Y-59902500D03*
X101290000Y-57362500D03*
X101290000Y-54822500D03*
X101290000Y-52282500D03*
X101290000Y-49742500D03*
X101290000Y-47202500D03*
X83510000Y-47202500D03*
X83510000Y-49742500D03*
X83510000Y-52282500D03*
X83510000Y-54822500D03*
X83510000Y-57362500D03*
X83510000Y-59902500D03*
X83510000Y-62442500D03*
X83510000Y-64982500D03*
X83510000Y-67522500D03*
X83510000Y-70062500D03*
X83510000Y-72602500D03*
X83510000Y-75142500D03*
X83510000Y-77682500D03*
X83510000Y-80222500D03*
X83510000Y-82762500D03*
X83510000Y-85302500D03*
X83510000Y-87842500D03*
X83510000Y-90382500D03*
X83510000Y-92922500D03*
D18*
X83510000Y-95462500D03*
D12*
X77400000Y-26600000D03*
X127400000Y-26600000D03*
X77400000Y-176600000D03*
D19*
X125900000Y-81100000D03*
X125900000Y-40100000D03*
X125900000Y-119100000D03*
X125900000Y-61100000D03*
X125900000Y-140100000D03*
X125900000Y-120100000D03*
X77400000Y-36600000D03*
X80900000Y-64100000D03*
X125900000Y-80100000D03*
X125900000Y-62100000D03*
X125900000Y-160100000D03*
X125900000Y-39100000D03*
X125900000Y-82100000D03*
X125900000Y-101100000D03*
X125900000Y-121100000D03*
X125900000Y-41100000D03*
X125900000Y-59100000D03*
X125900000Y-141100000D03*
X125900000Y-159100000D03*
X125900000Y-139100000D03*
X125900000Y-100100000D03*
X125900000Y-102100000D03*
X81400000Y-43600000D03*
X125900000Y-162100000D03*
X125900000Y-99100000D03*
X125900000Y-122100000D03*
X125900000Y-42100000D03*
X125900000Y-79100000D03*
X125900000Y-142100000D03*
X125900000Y-161100000D03*
X125900000Y-60100000D03*
D20*
X118900000Y-36600000D03*
X118400000Y-37099999D03*
X118900000Y-56600000D03*
X118400000Y-57099999D03*
X119900000Y-57600000D03*
X119900000Y-137600000D03*
X119900000Y-117600000D03*
X119900000Y-37600000D03*
X119900000Y-157600000D03*
X119900000Y-97600000D03*
X119900000Y-77600000D03*
X119400000Y-136100001D03*
X119400000Y-76100000D03*
X119400000Y-36100000D03*
X119400000Y-116100001D03*
X119400000Y-96100000D03*
X119400000Y-156100001D03*
X119400000Y-56100000D03*
X118900000Y-76600000D03*
X118400000Y-77099999D03*
X118900000Y-96600000D03*
X118400000Y-97099999D03*
X118900000Y-116600000D03*
X118400000Y-117099999D03*
X118900000Y-136600000D03*
X118400000Y-137099999D03*
X118900000Y-156600000D03*
X118400000Y-157099999D03*
D19*
X123900000Y-152600000D03*
X75400000Y-40600000D03*
X123900000Y-132600000D03*
X123900000Y-32600000D03*
X123900000Y-92600000D03*
X79400000Y-46100000D03*
X123900000Y-52600000D03*
X123900000Y-112600000D03*
X123900000Y-72600000D03*
X120900000Y-32600000D03*
X120900000Y-52600000D03*
X120900000Y-112600000D03*
X120900000Y-92600000D03*
X120900000Y-132600000D03*
X120900000Y-152600000D03*
X120900000Y-72600000D03*
D20*
X79400000Y-62100000D03*
X109400000Y-37100000D03*
D21*
X116298960Y-36600000D02*
X105696460Y-47202500D01*
X118900000Y-36600000D02*
X116298960Y-36600000D01*
X105696460Y-47202500D02*
X101290000Y-47202500D01*
X116400001Y-37099999D02*
X103757500Y-49742500D01*
X118400000Y-37099999D02*
X116400001Y-37099999D01*
X103757500Y-49742500D02*
X101290000Y-49742500D01*
X118900000Y-56600000D02*
X103067500Y-56600000D01*
X103067500Y-56600000D02*
X101290000Y-54822500D01*
X118400000Y-57099999D02*
X101552500Y-57100000D01*
X101552500Y-57100000D02*
X101290000Y-57362500D01*
X119900000Y-77600000D02*
X119900000Y-97600000D01*
X119900000Y-137600000D02*
X119900000Y-157600000D01*
X119900000Y-37600000D02*
X119900000Y-57600000D01*
X119900000Y-57600000D02*
X119900000Y-77600000D01*
X119900000Y-117600000D02*
X119900000Y-137600000D01*
X119900000Y-97600000D02*
X119900000Y-117600000D01*
X119400000Y-116100001D02*
X119400000Y-136100001D01*
X119400000Y-36100000D02*
X119400000Y-56100000D01*
X119400000Y-76100000D02*
X119400000Y-96100000D01*
X119400000Y-56100000D02*
X119400000Y-76100000D01*
X119400000Y-96100000D02*
X119400000Y-116100001D01*
X119400000Y-136100001D02*
X119400000Y-156100001D01*
X101290000Y-59990000D02*
X101290000Y-59902500D01*
X117900000Y-76600000D02*
X101290000Y-59990000D01*
X118900000Y-76600000D02*
X117900000Y-76600000D01*
X118400000Y-77099999D02*
X117798959Y-77099999D01*
X103141460Y-62442500D02*
X101290000Y-62442500D01*
X117798959Y-77099999D02*
X103141460Y-62442500D01*
X118900000Y-85132500D02*
X101290000Y-67522500D01*
X118900000Y-96600000D02*
X118900000Y-85132500D01*
X102862500Y-70062500D02*
X101290000Y-70062500D01*
X118400000Y-85600000D02*
X102862500Y-70062500D01*
X118400000Y-97099999D02*
X118400000Y-85600000D01*
X118900000Y-98600000D02*
X117900000Y-97600000D01*
X118900000Y-116600000D02*
X118900000Y-98600000D01*
X117900000Y-97600000D02*
X117900000Y-86100000D01*
X104402500Y-72602500D02*
X101290000Y-72602500D01*
X117900000Y-86100000D02*
X104402500Y-72602500D01*
X106298960Y-75100000D02*
X101332500Y-75100000D01*
X117475000Y-86276040D02*
X106298960Y-75100000D01*
X118400000Y-117099999D02*
X118400000Y-98701040D01*
X101332500Y-75100000D02*
X101290000Y-75142500D01*
X118400000Y-98701040D02*
X117475000Y-97776040D01*
X117475000Y-97776040D02*
X117475000Y-86276040D01*
X117900000Y-117600000D02*
X117900000Y-99100000D01*
X104102500Y-85302500D02*
X101290000Y-85302500D01*
X118900000Y-136600000D02*
X118900000Y-118600000D01*
X118900000Y-118600000D02*
X117900000Y-117600000D01*
X117900000Y-99100000D02*
X104102500Y-85302500D01*
X104900000Y-87600000D02*
X101532500Y-87600000D01*
X117475000Y-117776040D02*
X117475000Y-100175000D01*
X117475000Y-100175000D02*
X104900000Y-87600000D01*
X118400000Y-118701040D02*
X117475000Y-117776040D01*
X118400000Y-137099999D02*
X118400000Y-118701040D01*
X101532500Y-87600000D02*
X101290000Y-87842500D01*
X118900000Y-156600000D02*
X117900000Y-155600000D01*
X117050000Y-117952080D02*
X117050000Y-100750000D01*
X117050000Y-100750000D02*
X108900000Y-92600000D01*
X117900000Y-155600000D02*
X117900000Y-118802080D01*
X101612500Y-92600000D02*
X101290000Y-92922500D01*
X108900000Y-92600000D02*
X101612500Y-92600000D01*
X117900000Y-118802080D02*
X117050000Y-117952080D01*
X117400000Y-156099999D02*
X117400000Y-118903120D01*
X117400000Y-118903120D02*
X116625000Y-118128120D01*
X118400000Y-157099999D02*
X117400000Y-156099999D01*
X116625000Y-118128120D02*
X116625000Y-101325000D01*
X110762500Y-95462500D02*
X101290000Y-95462500D01*
X116625000Y-101325000D02*
X110762500Y-95462500D01*
X123900000Y-112600000D02*
X123900000Y-132600000D01*
X123900000Y-32600000D02*
X123900000Y-52600000D01*
X123900000Y-92600000D02*
X123900000Y-112600000D01*
X123900000Y-132600000D02*
X123900000Y-152600000D01*
X123900000Y-72600000D02*
X123900000Y-92600000D01*
X123900000Y-52600000D02*
X123900000Y-72600000D01*
X120900000Y-92600000D02*
X120900000Y-112600000D01*
X120900000Y-72600000D02*
X120900000Y-92600000D01*
X120900000Y-132600000D02*
X120900000Y-152600000D01*
X120900000Y-32600000D02*
X120900000Y-52600000D01*
X120900000Y-52600000D02*
X120900000Y-72600000D01*
X120900000Y-112600000D02*
X120900000Y-132600000D01*
X79400000Y-62100000D02*
X79400000Y-47600000D01*
X79400000Y-47600000D02*
X84900000Y-42100000D01*
X84900000Y-42100000D02*
X104400000Y-42100000D01*
X104400000Y-42100000D02*
X109400000Y-37100000D01*
G04 #@! TA.AperFunction,Conductor*
G36*
X127402152Y-21900593D02*
G01*
X127805284Y-21918195D01*
X127813864Y-21918945D01*
X128211776Y-21971332D01*
X128220281Y-21972832D01*
X128331870Y-21997570D01*
X128612108Y-22059698D01*
X128620423Y-22061925D01*
X129003201Y-22182615D01*
X129011317Y-22185569D01*
X129382111Y-22339157D01*
X129389923Y-22342799D01*
X129622022Y-22463623D01*
X129745910Y-22528115D01*
X129753390Y-22532433D01*
X130091882Y-22748076D01*
X130098956Y-22753030D01*
X130334665Y-22933896D01*
X130417354Y-22997345D01*
X130423968Y-23002895D01*
X130719868Y-23274038D01*
X130725961Y-23280131D01*
X130929725Y-23502500D01*
X130997102Y-23576029D01*
X131002654Y-23582645D01*
X131246969Y-23901043D01*
X131251923Y-23908117D01*
X131467566Y-24246609D01*
X131471884Y-24254089D01*
X131657196Y-24610069D01*
X131660846Y-24617896D01*
X131814430Y-24988682D01*
X131817384Y-24996798D01*
X131938069Y-25379560D01*
X131940304Y-25387903D01*
X132027167Y-25779718D01*
X132028667Y-25788223D01*
X132081052Y-26186123D01*
X132081805Y-26194727D01*
X132099406Y-26597847D01*
X132099500Y-26602165D01*
X132099500Y-176597834D01*
X132099406Y-176602152D01*
X132081805Y-177005272D01*
X132081052Y-177013876D01*
X132028667Y-177411776D01*
X132027167Y-177420281D01*
X131940304Y-177812096D01*
X131938069Y-177820439D01*
X131817384Y-178203201D01*
X131814430Y-178211317D01*
X131660846Y-178582103D01*
X131657196Y-178589930D01*
X131471884Y-178945910D01*
X131467566Y-178953390D01*
X131251923Y-179291882D01*
X131246969Y-179298956D01*
X131002654Y-179617354D01*
X130997102Y-179623970D01*
X130725968Y-179919861D01*
X130719861Y-179925968D01*
X130423970Y-180197102D01*
X130417354Y-180202654D01*
X130098956Y-180446969D01*
X130091882Y-180451923D01*
X129753390Y-180667566D01*
X129745910Y-180671884D01*
X129389930Y-180857196D01*
X129382103Y-180860846D01*
X129011317Y-181014430D01*
X129003201Y-181017384D01*
X128620439Y-181138069D01*
X128612096Y-181140304D01*
X128220281Y-181227167D01*
X128211776Y-181228667D01*
X127813876Y-181281052D01*
X127805272Y-181281805D01*
X127402153Y-181299406D01*
X127397835Y-181299500D01*
X77402165Y-181299500D01*
X77397847Y-181299406D01*
X76994727Y-181281805D01*
X76986123Y-181281052D01*
X76588223Y-181228667D01*
X76579718Y-181227167D01*
X76187903Y-181140304D01*
X76179560Y-181138069D01*
X75796798Y-181017384D01*
X75788682Y-181014430D01*
X75417896Y-180860846D01*
X75410069Y-180857196D01*
X75054089Y-180671884D01*
X75046609Y-180667566D01*
X74708117Y-180451923D01*
X74701043Y-180446969D01*
X74382645Y-180202654D01*
X74376029Y-180197102D01*
X74117427Y-179960137D01*
X74080131Y-179925961D01*
X74074038Y-179919868D01*
X73802895Y-179623968D01*
X73797345Y-179617354D01*
X73553030Y-179298956D01*
X73548076Y-179291882D01*
X73332433Y-178953390D01*
X73328115Y-178945910D01*
X73142799Y-178589923D01*
X73139153Y-178582103D01*
X73116917Y-178528421D01*
X72985569Y-178211317D01*
X72982615Y-178203201D01*
X72981606Y-178200000D01*
X72861925Y-177820423D01*
X72859698Y-177812108D01*
X72772832Y-177420281D01*
X72771332Y-177411776D01*
X72718945Y-177013864D01*
X72718195Y-177005284D01*
X72700594Y-176602152D01*
X72700547Y-176600000D01*
X73995006Y-176600000D01*
X74014965Y-176968143D01*
X74074614Y-177331979D01*
X74173242Y-177687206D01*
X74173246Y-177687217D01*
X74309711Y-178029721D01*
X74482403Y-178355453D01*
X74689306Y-178660611D01*
X74689313Y-178660621D01*
X74922925Y-178935650D01*
X76199983Y-177658592D01*
X76265130Y-177734870D01*
X76341405Y-177800014D01*
X75067580Y-179073840D01*
X75195655Y-179195158D01*
X75489156Y-179418272D01*
X75489161Y-179418275D01*
X75805070Y-179608352D01*
X76139676Y-179763157D01*
X76489076Y-179880884D01*
X76849128Y-179960137D01*
X76849127Y-179960137D01*
X77215657Y-180000000D01*
X77584343Y-180000000D01*
X77950872Y-179960137D01*
X78310922Y-179880884D01*
X78310924Y-179880884D01*
X78660323Y-179763157D01*
X78994929Y-179608352D01*
X79310838Y-179418275D01*
X79310843Y-179418272D01*
X79604344Y-179195158D01*
X79732418Y-179073840D01*
X78458593Y-177800015D01*
X78534870Y-177734870D01*
X78600015Y-177658593D01*
X79877073Y-178935651D01*
X80110686Y-178660621D01*
X80110693Y-178660611D01*
X80317596Y-178355453D01*
X80490288Y-178029721D01*
X80626753Y-177687217D01*
X80626757Y-177687206D01*
X80725385Y-177331979D01*
X80785034Y-176968143D01*
X80804993Y-176600000D01*
X123995006Y-176600000D01*
X124014965Y-176968143D01*
X124074614Y-177331979D01*
X124173242Y-177687206D01*
X124173246Y-177687217D01*
X124309711Y-178029721D01*
X124482403Y-178355453D01*
X124689306Y-178660611D01*
X124689313Y-178660621D01*
X124922925Y-178935650D01*
X126199983Y-177658592D01*
X126265130Y-177734870D01*
X126341405Y-177800014D01*
X125067580Y-179073840D01*
X125195655Y-179195158D01*
X125489156Y-179418272D01*
X125489161Y-179418275D01*
X125805070Y-179608352D01*
X126139676Y-179763157D01*
X126489076Y-179880884D01*
X126849128Y-179960137D01*
X126849127Y-179960137D01*
X127215657Y-180000000D01*
X127584343Y-180000000D01*
X127950872Y-179960137D01*
X128310922Y-179880884D01*
X128310924Y-179880884D01*
X128660323Y-179763157D01*
X128994929Y-179608352D01*
X129310838Y-179418275D01*
X129310843Y-179418272D01*
X129604344Y-179195158D01*
X129732418Y-179073840D01*
X128458593Y-177800015D01*
X128534870Y-177734870D01*
X128600015Y-177658593D01*
X129877073Y-178935651D01*
X130110686Y-178660621D01*
X130110693Y-178660611D01*
X130317596Y-178355453D01*
X130490288Y-178029721D01*
X130626753Y-177687217D01*
X130626757Y-177687206D01*
X130725385Y-177331979D01*
X130785034Y-176968143D01*
X130804993Y-176600000D01*
X130785034Y-176231856D01*
X130725385Y-175868020D01*
X130626757Y-175512793D01*
X130626753Y-175512782D01*
X130490288Y-175170278D01*
X130317596Y-174844546D01*
X130110693Y-174539388D01*
X130110686Y-174539378D01*
X129877072Y-174264347D01*
X128600014Y-175541404D01*
X128534870Y-175465130D01*
X128458592Y-175399983D01*
X129732418Y-174126158D01*
X129604344Y-174004841D01*
X129310843Y-173781727D01*
X129310838Y-173781724D01*
X128994929Y-173591647D01*
X128660323Y-173436842D01*
X128310923Y-173319115D01*
X127950871Y-173239862D01*
X127950872Y-173239862D01*
X127584343Y-173200000D01*
X127215657Y-173200000D01*
X126849127Y-173239862D01*
X126489077Y-173319115D01*
X126489075Y-173319115D01*
X126139676Y-173436842D01*
X125805070Y-173591647D01*
X125489161Y-173781724D01*
X125489156Y-173781727D01*
X125195655Y-174004841D01*
X125067580Y-174126158D01*
X126341406Y-175399984D01*
X126265130Y-175465130D01*
X126199984Y-175541406D01*
X124922925Y-174264347D01*
X124689313Y-174539378D01*
X124689306Y-174539388D01*
X124482403Y-174844546D01*
X124309711Y-175170278D01*
X124173246Y-175512782D01*
X124173242Y-175512793D01*
X124074614Y-175868020D01*
X124014965Y-176231856D01*
X123995006Y-176600000D01*
X80804993Y-176600000D01*
X80785034Y-176231856D01*
X80725385Y-175868020D01*
X80626757Y-175512793D01*
X80626753Y-175512782D01*
X80490288Y-175170278D01*
X80317596Y-174844546D01*
X80110693Y-174539388D01*
X80110686Y-174539378D01*
X79877072Y-174264347D01*
X78600014Y-175541404D01*
X78534870Y-175465130D01*
X78458592Y-175399983D01*
X79732418Y-174126158D01*
X79604344Y-174004841D01*
X79310843Y-173781727D01*
X79310838Y-173781724D01*
X78994929Y-173591647D01*
X78660323Y-173436842D01*
X78310923Y-173319115D01*
X77950871Y-173239862D01*
X77950872Y-173239862D01*
X77584343Y-173200000D01*
X77215657Y-173200000D01*
X76849127Y-173239862D01*
X76489077Y-173319115D01*
X76489075Y-173319115D01*
X76139676Y-173436842D01*
X75805070Y-173591647D01*
X75489161Y-173781724D01*
X75489156Y-173781727D01*
X75195655Y-174004841D01*
X75067580Y-174126158D01*
X76341406Y-175399984D01*
X76265130Y-175465130D01*
X76199984Y-175541406D01*
X74922925Y-174264347D01*
X74689313Y-174539378D01*
X74689306Y-174539388D01*
X74482403Y-174844546D01*
X74309711Y-175170278D01*
X74173246Y-175512782D01*
X74173242Y-175512793D01*
X74074614Y-175868020D01*
X74014965Y-176231856D01*
X73995006Y-176600000D01*
X72700547Y-176600000D01*
X72700500Y-176597834D01*
X72700500Y-95462503D01*
X82454417Y-95462503D01*
X82474698Y-95668429D01*
X82474699Y-95668434D01*
X82534768Y-95866454D01*
X82632316Y-96048952D01*
X82763585Y-96208904D01*
X82763590Y-96208910D01*
X82763595Y-96208914D01*
X82923547Y-96340183D01*
X82923548Y-96340183D01*
X82923550Y-96340185D01*
X83106046Y-96437732D01*
X83243997Y-96479578D01*
X83304065Y-96497800D01*
X83304070Y-96497801D01*
X83509997Y-96518083D01*
X83510000Y-96518083D01*
X83510003Y-96518083D01*
X83715929Y-96497801D01*
X83715934Y-96497800D01*
X83913954Y-96437732D01*
X84096450Y-96340185D01*
X84256410Y-96208910D01*
X84387685Y-96048950D01*
X84485232Y-95866454D01*
X84545300Y-95668434D01*
X84545301Y-95668429D01*
X84565583Y-95462503D01*
X84565583Y-95462496D01*
X84545301Y-95256570D01*
X84545300Y-95256565D01*
X84512969Y-95149983D01*
X84485232Y-95058546D01*
X84387685Y-94876050D01*
X84256410Y-94716090D01*
X84106123Y-94592753D01*
X84096452Y-94584816D01*
X83913954Y-94487268D01*
X83715934Y-94427199D01*
X83715929Y-94427198D01*
X83510003Y-94406917D01*
X83509997Y-94406917D01*
X83304070Y-94427198D01*
X83304065Y-94427199D01*
X83106045Y-94487268D01*
X82923547Y-94584816D01*
X82763595Y-94716085D01*
X82763585Y-94716095D01*
X82632316Y-94876047D01*
X82534768Y-95058545D01*
X82474699Y-95256565D01*
X82474698Y-95256570D01*
X82454417Y-95462496D01*
X82454417Y-95462503D01*
X72700500Y-95462503D01*
X72700500Y-92922503D01*
X82454417Y-92922503D01*
X82474698Y-93128429D01*
X82474699Y-93128434D01*
X82534768Y-93326454D01*
X82632316Y-93508952D01*
X82763585Y-93668904D01*
X82763590Y-93668910D01*
X82763595Y-93668914D01*
X82923547Y-93800183D01*
X82923548Y-93800183D01*
X82923550Y-93800185D01*
X83106046Y-93897732D01*
X83243997Y-93939578D01*
X83304065Y-93957800D01*
X83304070Y-93957801D01*
X83509997Y-93978083D01*
X83510000Y-93978083D01*
X83510003Y-93978083D01*
X83715929Y-93957801D01*
X83715934Y-93957800D01*
X83913954Y-93897732D01*
X84096450Y-93800185D01*
X84256410Y-93668910D01*
X84387685Y-93508950D01*
X84485232Y-93326454D01*
X84545300Y-93128434D01*
X84545301Y-93128429D01*
X84565583Y-92922503D01*
X100234417Y-92922503D01*
X100254698Y-93128429D01*
X100254699Y-93128434D01*
X100314768Y-93326454D01*
X100412316Y-93508952D01*
X100543585Y-93668904D01*
X100543590Y-93668910D01*
X100543595Y-93668914D01*
X100703547Y-93800183D01*
X100703548Y-93800183D01*
X100703550Y-93800185D01*
X100886046Y-93897732D01*
X101023997Y-93939578D01*
X101084065Y-93957800D01*
X101084070Y-93957801D01*
X101289997Y-93978083D01*
X101290000Y-93978083D01*
X101290003Y-93978083D01*
X101495929Y-93957801D01*
X101495934Y-93957800D01*
X101693954Y-93897732D01*
X101876450Y-93800185D01*
X102036410Y-93668910D01*
X102167685Y-93508950D01*
X102265232Y-93326454D01*
X102325300Y-93128434D01*
X102325301Y-93128428D01*
X102334030Y-93039797D01*
X102358549Y-92983740D01*
X102411336Y-92952800D01*
X102432553Y-92950500D01*
X108713810Y-92950500D01*
X108772001Y-92969407D01*
X108783814Y-92979496D01*
X110747314Y-94942996D01*
X110775091Y-94997513D01*
X110765520Y-95057945D01*
X110722255Y-95101210D01*
X110677310Y-95112000D01*
X102439500Y-95112000D01*
X102381309Y-95093093D01*
X102345345Y-95043593D01*
X102340500Y-95013000D01*
X102340500Y-94592753D01*
X102340498Y-94592741D01*
X102337711Y-94578731D01*
X102328867Y-94534269D01*
X102284552Y-94467948D01*
X102284548Y-94467945D01*
X102218233Y-94423634D01*
X102218231Y-94423633D01*
X102218228Y-94423632D01*
X102218227Y-94423632D01*
X102159758Y-94412001D01*
X102159748Y-94412000D01*
X100420252Y-94412000D01*
X100420251Y-94412000D01*
X100420241Y-94412001D01*
X100361772Y-94423632D01*
X100361766Y-94423634D01*
X100295451Y-94467945D01*
X100295445Y-94467951D01*
X100251134Y-94534266D01*
X100251132Y-94534272D01*
X100239501Y-94592741D01*
X100239500Y-94592753D01*
X100239500Y-96332246D01*
X100239501Y-96332258D01*
X100251132Y-96390727D01*
X100251134Y-96390733D01*
X100295445Y-96457048D01*
X100295448Y-96457052D01*
X100361769Y-96501367D01*
X100406231Y-96510211D01*
X100420241Y-96512998D01*
X100420246Y-96512998D01*
X100420252Y-96513000D01*
X100420253Y-96513000D01*
X102159747Y-96513000D01*
X102159748Y-96513000D01*
X102218231Y-96501367D01*
X102284552Y-96457052D01*
X102328867Y-96390731D01*
X102340500Y-96332248D01*
X102340500Y-95912000D01*
X102359407Y-95853809D01*
X102408907Y-95817845D01*
X102439500Y-95813000D01*
X110576310Y-95813000D01*
X110634501Y-95831907D01*
X110646314Y-95841996D01*
X116245504Y-101441186D01*
X116273281Y-101495703D01*
X116274500Y-101511190D01*
X116274500Y-118081501D01*
X116272393Y-118101816D01*
X116269957Y-118113433D01*
X116273740Y-118143782D01*
X116274500Y-118156027D01*
X116274500Y-118157162D01*
X116277751Y-118176648D01*
X116278337Y-118180667D01*
X116284427Y-118229513D01*
X116286527Y-118236568D01*
X116288907Y-118243500D01*
X116312322Y-118286766D01*
X116314195Y-118290405D01*
X116335801Y-118334602D01*
X116340078Y-118340592D01*
X116344581Y-118346378D01*
X116380764Y-118379687D01*
X116383717Y-118382519D01*
X117020504Y-119019306D01*
X117048281Y-119073823D01*
X117049500Y-119089310D01*
X117049500Y-156053380D01*
X117047393Y-156073695D01*
X117044957Y-156085312D01*
X117048740Y-156115661D01*
X117049500Y-156127906D01*
X117049500Y-156129041D01*
X117052751Y-156148527D01*
X117053337Y-156152546D01*
X117059427Y-156201392D01*
X117061527Y-156208447D01*
X117063907Y-156215379D01*
X117087322Y-156258645D01*
X117089195Y-156262284D01*
X117110801Y-156306481D01*
X117115078Y-156312471D01*
X117119581Y-156318257D01*
X117155764Y-156351566D01*
X117158717Y-156354398D01*
X117990199Y-157185880D01*
X118010275Y-157218637D01*
X118010817Y-157218362D01*
X118014320Y-157225238D01*
X118014345Y-157225278D01*
X118014352Y-157225300D01*
X118014356Y-157225306D01*
X118071950Y-157338341D01*
X118161658Y-157428049D01*
X118274696Y-157485645D01*
X118400000Y-157505491D01*
X118525304Y-157485645D01*
X118638342Y-157428049D01*
X118728050Y-157338341D01*
X118785646Y-157225303D01*
X118805492Y-157099999D01*
X118806711Y-157092303D01*
X118809318Y-157092715D01*
X118824399Y-157046301D01*
X118873899Y-157010337D01*
X118892413Y-157007404D01*
X118892304Y-157006711D01*
X118900000Y-157005492D01*
X119025304Y-156985646D01*
X119138342Y-156928050D01*
X119228050Y-156838342D01*
X119285646Y-156725304D01*
X119305492Y-156600000D01*
X119306711Y-156592304D01*
X119309318Y-156592716D01*
X119324399Y-156546302D01*
X119373899Y-156510338D01*
X119392412Y-156507405D01*
X119392303Y-156506712D01*
X119399999Y-156505492D01*
X119400000Y-156505493D01*
X119435014Y-156499947D01*
X119495444Y-156509518D01*
X119538709Y-156552782D01*
X119549500Y-156597728D01*
X119549500Y-157381949D01*
X119538710Y-157426893D01*
X119514355Y-157474691D01*
X119514354Y-157474696D01*
X119494508Y-157599999D01*
X119494508Y-157600000D01*
X119514354Y-157725303D01*
X119514355Y-157725307D01*
X119569944Y-157834406D01*
X119571950Y-157838342D01*
X119661658Y-157928050D01*
X119774696Y-157985646D01*
X119900000Y-158005492D01*
X120025304Y-157985646D01*
X120138342Y-157928050D01*
X120228050Y-157838342D01*
X120285646Y-157725304D01*
X120305492Y-157600000D01*
X120285646Y-157474696D01*
X120285644Y-157474692D01*
X120285644Y-157474691D01*
X120261290Y-157426893D01*
X120250500Y-157381949D01*
X120250500Y-152990561D01*
X120269407Y-152932370D01*
X120318907Y-152896406D01*
X120380093Y-152896406D01*
X120428042Y-152930294D01*
X120474286Y-152990561D01*
X120489549Y-153010451D01*
X120609767Y-153102698D01*
X120749764Y-153160687D01*
X120862441Y-153175521D01*
X120899999Y-153180466D01*
X120900000Y-153180466D01*
X120900001Y-153180466D01*
X120930047Y-153176510D01*
X121050236Y-153160687D01*
X121190233Y-153102698D01*
X121310451Y-153010451D01*
X121402698Y-152890233D01*
X121460687Y-152750236D01*
X121480466Y-152600000D01*
X123319534Y-152600000D01*
X123339313Y-152750236D01*
X123397302Y-152890233D01*
X123489549Y-153010451D01*
X123609767Y-153102698D01*
X123749764Y-153160687D01*
X123862441Y-153175521D01*
X123899999Y-153180466D01*
X123900000Y-153180466D01*
X123900001Y-153180466D01*
X123930047Y-153176510D01*
X124050236Y-153160687D01*
X124190233Y-153102698D01*
X124310451Y-153010451D01*
X124402698Y-152890233D01*
X124460687Y-152750236D01*
X124480466Y-152600000D01*
X124460687Y-152449764D01*
X124402698Y-152309767D01*
X124310451Y-152189549D01*
X124289230Y-152173265D01*
X124254576Y-152122841D01*
X124250500Y-152094725D01*
X124250500Y-133105274D01*
X124269407Y-133047083D01*
X124289233Y-133026732D01*
X124310451Y-133010451D01*
X124402698Y-132890233D01*
X124460687Y-132750236D01*
X124480466Y-132600000D01*
X124460687Y-132449764D01*
X124402698Y-132309767D01*
X124310451Y-132189549D01*
X124289230Y-132173265D01*
X124254576Y-132122841D01*
X124250500Y-132094725D01*
X124250500Y-113105274D01*
X124269407Y-113047083D01*
X124289233Y-113026732D01*
X124310451Y-113010451D01*
X124402698Y-112890233D01*
X124460687Y-112750236D01*
X124480466Y-112600000D01*
X124460687Y-112449764D01*
X124402698Y-112309767D01*
X124310451Y-112189549D01*
X124289230Y-112173265D01*
X124254576Y-112122841D01*
X124250500Y-112094725D01*
X124250500Y-93105274D01*
X124269407Y-93047083D01*
X124289233Y-93026732D01*
X124310451Y-93010451D01*
X124402698Y-92890233D01*
X124460687Y-92750236D01*
X124480466Y-92600000D01*
X124460687Y-92449764D01*
X124402698Y-92309767D01*
X124310451Y-92189549D01*
X124289230Y-92173265D01*
X124254576Y-92122841D01*
X124250500Y-92094725D01*
X124250500Y-73105274D01*
X124269407Y-73047083D01*
X124289233Y-73026732D01*
X124310451Y-73010451D01*
X124402698Y-72890233D01*
X124460687Y-72750236D01*
X124480466Y-72600000D01*
X124460687Y-72449764D01*
X124402698Y-72309767D01*
X124310451Y-72189549D01*
X124289230Y-72173265D01*
X124254576Y-72122841D01*
X124250500Y-72094725D01*
X124250500Y-53105274D01*
X124269407Y-53047083D01*
X124289233Y-53026732D01*
X124310451Y-53010451D01*
X124402698Y-52890233D01*
X124460687Y-52750236D01*
X124480466Y-52600000D01*
X124460687Y-52449764D01*
X124402698Y-52309767D01*
X124310451Y-52189549D01*
X124289230Y-52173265D01*
X124254576Y-52122841D01*
X124250500Y-52094725D01*
X124250500Y-33105274D01*
X124269407Y-33047083D01*
X124289233Y-33026732D01*
X124310451Y-33010451D01*
X124402698Y-32890233D01*
X124460687Y-32750236D01*
X124480466Y-32600000D01*
X124460687Y-32449764D01*
X124402698Y-32309767D01*
X124310451Y-32189549D01*
X124190233Y-32097302D01*
X124050236Y-32039313D01*
X124050234Y-32039312D01*
X124050232Y-32039312D01*
X123900001Y-32019534D01*
X123899999Y-32019534D01*
X123749767Y-32039312D01*
X123749761Y-32039314D01*
X123609768Y-32097301D01*
X123489551Y-32189547D01*
X123489547Y-32189551D01*
X123397301Y-32309768D01*
X123339314Y-32449761D01*
X123339312Y-32449767D01*
X123319534Y-32599999D01*
X123319534Y-32600000D01*
X123339313Y-32750236D01*
X123397302Y-32890233D01*
X123489549Y-33010451D01*
X123489553Y-33010454D01*
X123510767Y-33026732D01*
X123545423Y-33077156D01*
X123549500Y-33105274D01*
X123549500Y-52094725D01*
X123530593Y-52152916D01*
X123510769Y-52173266D01*
X123489551Y-52189547D01*
X123489547Y-52189551D01*
X123397301Y-52309768D01*
X123339314Y-52449761D01*
X123339312Y-52449767D01*
X123334222Y-52488434D01*
X123319534Y-52600000D01*
X123339313Y-52750236D01*
X123397302Y-52890233D01*
X123489549Y-53010451D01*
X123489553Y-53010454D01*
X123510767Y-53026732D01*
X123545423Y-53077156D01*
X123549500Y-53105274D01*
X123549500Y-72094725D01*
X123530593Y-72152916D01*
X123510769Y-72173266D01*
X123489551Y-72189547D01*
X123489547Y-72189551D01*
X123397301Y-72309768D01*
X123339314Y-72449761D01*
X123339312Y-72449767D01*
X123319534Y-72599999D01*
X123319534Y-72600000D01*
X123339313Y-72750236D01*
X123397302Y-72890233D01*
X123489549Y-73010451D01*
X123489553Y-73010454D01*
X123510767Y-73026732D01*
X123545423Y-73077156D01*
X123549500Y-73105274D01*
X123549500Y-92094725D01*
X123530593Y-92152916D01*
X123510769Y-92173266D01*
X123489551Y-92189547D01*
X123489547Y-92189551D01*
X123397301Y-92309768D01*
X123339314Y-92449761D01*
X123339312Y-92449767D01*
X123319534Y-92599999D01*
X123319534Y-92600000D01*
X123334880Y-92716570D01*
X123339313Y-92750236D01*
X123397302Y-92890233D01*
X123489549Y-93010451D01*
X123489553Y-93010454D01*
X123510767Y-93026732D01*
X123545423Y-93077156D01*
X123549500Y-93105274D01*
X123549500Y-112094725D01*
X123530593Y-112152916D01*
X123510769Y-112173266D01*
X123489551Y-112189547D01*
X123489547Y-112189551D01*
X123397301Y-112309768D01*
X123339314Y-112449761D01*
X123339312Y-112449767D01*
X123319534Y-112599999D01*
X123319534Y-112600000D01*
X123339313Y-112750236D01*
X123397302Y-112890233D01*
X123489549Y-113010451D01*
X123489553Y-113010454D01*
X123510767Y-113026732D01*
X123545423Y-113077156D01*
X123549500Y-113105274D01*
X123549500Y-132094725D01*
X123530593Y-132152916D01*
X123510769Y-132173266D01*
X123489551Y-132189547D01*
X123489547Y-132189551D01*
X123397301Y-132309768D01*
X123339314Y-132449761D01*
X123339312Y-132449767D01*
X123319534Y-132599999D01*
X123319534Y-132600000D01*
X123339313Y-132750236D01*
X123397302Y-132890233D01*
X123489549Y-133010451D01*
X123489553Y-133010454D01*
X123510767Y-133026732D01*
X123545423Y-133077156D01*
X123549500Y-133105274D01*
X123549500Y-152094725D01*
X123530593Y-152152916D01*
X123510769Y-152173266D01*
X123489551Y-152189547D01*
X123489547Y-152189551D01*
X123397301Y-152309768D01*
X123339314Y-152449761D01*
X123339312Y-152449767D01*
X123319534Y-152599999D01*
X123319534Y-152600000D01*
X121480466Y-152600000D01*
X121460687Y-152449764D01*
X121402698Y-152309767D01*
X121310451Y-152189549D01*
X121289230Y-152173265D01*
X121254576Y-152122841D01*
X121250500Y-152094725D01*
X121250500Y-133105274D01*
X121269407Y-133047083D01*
X121289233Y-133026732D01*
X121310451Y-133010451D01*
X121402698Y-132890233D01*
X121460687Y-132750236D01*
X121480466Y-132600000D01*
X121460687Y-132449764D01*
X121402698Y-132309767D01*
X121310451Y-132189549D01*
X121289230Y-132173265D01*
X121254576Y-132122841D01*
X121250500Y-132094725D01*
X121250500Y-113105274D01*
X121269407Y-113047083D01*
X121289233Y-113026732D01*
X121310451Y-113010451D01*
X121402698Y-112890233D01*
X121460687Y-112750236D01*
X121480466Y-112600000D01*
X121460687Y-112449764D01*
X121402698Y-112309767D01*
X121310451Y-112189549D01*
X121289230Y-112173265D01*
X121254576Y-112122841D01*
X121250500Y-112094725D01*
X121250500Y-93105274D01*
X121269407Y-93047083D01*
X121289233Y-93026732D01*
X121310451Y-93010451D01*
X121402698Y-92890233D01*
X121460687Y-92750236D01*
X121480466Y-92600000D01*
X121460687Y-92449764D01*
X121402698Y-92309767D01*
X121310451Y-92189549D01*
X121289230Y-92173265D01*
X121254576Y-92122841D01*
X121250500Y-92094725D01*
X121250500Y-73105274D01*
X121269407Y-73047083D01*
X121289233Y-73026732D01*
X121310451Y-73010451D01*
X121402698Y-72890233D01*
X121460687Y-72750236D01*
X121480466Y-72600000D01*
X121460687Y-72449764D01*
X121402698Y-72309767D01*
X121310451Y-72189549D01*
X121289230Y-72173265D01*
X121254576Y-72122841D01*
X121250500Y-72094725D01*
X121250500Y-53105274D01*
X121269407Y-53047083D01*
X121289233Y-53026732D01*
X121310451Y-53010451D01*
X121402698Y-52890233D01*
X121460687Y-52750236D01*
X121480466Y-52600000D01*
X121460687Y-52449764D01*
X121402698Y-52309767D01*
X121310451Y-52189549D01*
X121289230Y-52173265D01*
X121254576Y-52122841D01*
X121250500Y-52094725D01*
X121250500Y-33105274D01*
X121269407Y-33047083D01*
X121289233Y-33026732D01*
X121310451Y-33010451D01*
X121402698Y-32890233D01*
X121460687Y-32750236D01*
X121480466Y-32600000D01*
X121460687Y-32449764D01*
X121402698Y-32309767D01*
X121310451Y-32189549D01*
X121190233Y-32097302D01*
X121050236Y-32039313D01*
X121050234Y-32039312D01*
X121050232Y-32039312D01*
X120900001Y-32019534D01*
X120899999Y-32019534D01*
X120749767Y-32039312D01*
X120749761Y-32039314D01*
X120609768Y-32097301D01*
X120489551Y-32189547D01*
X120489547Y-32189551D01*
X120397301Y-32309768D01*
X120339314Y-32449761D01*
X120339312Y-32449767D01*
X120319534Y-32599999D01*
X120319534Y-32600000D01*
X120339313Y-32750236D01*
X120397302Y-32890233D01*
X120489549Y-33010451D01*
X120489553Y-33010454D01*
X120510767Y-33026732D01*
X120545423Y-33077156D01*
X120549500Y-33105274D01*
X120549500Y-52094725D01*
X120530593Y-52152916D01*
X120510769Y-52173266D01*
X120489551Y-52189547D01*
X120489547Y-52189551D01*
X120428042Y-52269706D01*
X120377617Y-52304361D01*
X120316452Y-52302759D01*
X120267911Y-52265512D01*
X120250500Y-52209438D01*
X120250500Y-37818048D01*
X120261291Y-37773102D01*
X120285646Y-37725304D01*
X120305492Y-37600000D01*
X120285646Y-37474696D01*
X120228050Y-37361658D01*
X120138342Y-37271950D01*
X120134406Y-37269944D01*
X120025307Y-37214355D01*
X120025304Y-37214354D01*
X119900000Y-37194508D01*
X119899998Y-37194508D01*
X119864986Y-37200053D01*
X119804554Y-37190481D01*
X119761290Y-37147216D01*
X119750500Y-37102272D01*
X119750500Y-36318048D01*
X119761291Y-36273102D01*
X119765976Y-36263908D01*
X119785646Y-36225304D01*
X119805492Y-36100000D01*
X119785646Y-35974696D01*
X119728050Y-35861658D01*
X119638342Y-35771950D01*
X119634406Y-35769944D01*
X119525307Y-35714355D01*
X119525304Y-35714354D01*
X119400000Y-35694508D01*
X119274696Y-35714354D01*
X119274692Y-35714355D01*
X119161659Y-35771949D01*
X119071949Y-35861659D01*
X119014355Y-35974692D01*
X119014354Y-35974696D01*
X118993289Y-36107696D01*
X118990682Y-36107283D01*
X118975601Y-36153699D01*
X118926101Y-36189663D01*
X118907586Y-36192595D01*
X118907696Y-36193289D01*
X118774696Y-36214354D01*
X118774694Y-36214354D01*
X118726895Y-36238710D01*
X118681950Y-36249500D01*
X116345573Y-36249500D01*
X116325258Y-36247393D01*
X116313645Y-36244958D01*
X116283303Y-36248740D01*
X116271059Y-36249500D01*
X116269919Y-36249500D01*
X116250441Y-36252750D01*
X116246396Y-36253339D01*
X116197568Y-36259426D01*
X116190535Y-36261519D01*
X116183576Y-36263908D01*
X116140321Y-36287317D01*
X116136684Y-36289189D01*
X116092480Y-36310799D01*
X116086502Y-36315066D01*
X116080704Y-36319580D01*
X116047391Y-36355765D01*
X116044561Y-36358715D01*
X105580274Y-46823004D01*
X105525757Y-46850781D01*
X105510270Y-46852000D01*
X102353142Y-46852000D01*
X102294951Y-46833093D01*
X102265832Y-46799669D01*
X102202116Y-46680466D01*
X102167685Y-46616050D01*
X102156727Y-46602698D01*
X102036414Y-46456095D01*
X102036410Y-46456090D01*
X102036404Y-46456085D01*
X101876452Y-46324816D01*
X101693954Y-46227268D01*
X101495934Y-46167199D01*
X101495929Y-46167198D01*
X101290003Y-46146917D01*
X101289997Y-46146917D01*
X101084070Y-46167198D01*
X101084065Y-46167199D01*
X100886045Y-46227268D01*
X100703547Y-46324816D01*
X100543595Y-46456085D01*
X100543585Y-46456095D01*
X100412316Y-46616047D01*
X100314768Y-46798545D01*
X100254699Y-46996565D01*
X100254698Y-46996570D01*
X100234417Y-47202496D01*
X100234417Y-47202503D01*
X100254698Y-47408429D01*
X100254699Y-47408434D01*
X100314768Y-47606454D01*
X100412316Y-47788952D01*
X100543585Y-47948904D01*
X100543590Y-47948910D01*
X100543595Y-47948914D01*
X100703547Y-48080183D01*
X100703548Y-48080183D01*
X100703550Y-48080185D01*
X100886046Y-48177732D01*
X101023997Y-48219578D01*
X101084065Y-48237800D01*
X101084070Y-48237801D01*
X101289997Y-48258083D01*
X101290000Y-48258083D01*
X101290003Y-48258083D01*
X101495929Y-48237801D01*
X101495934Y-48237800D01*
X101693954Y-48177732D01*
X101876450Y-48080185D01*
X102036410Y-47948910D01*
X102167685Y-47788950D01*
X102265232Y-47606454D01*
X102265232Y-47606452D01*
X102265832Y-47605331D01*
X102309938Y-47562925D01*
X102353142Y-47553000D01*
X105212310Y-47553000D01*
X105270501Y-47571907D01*
X105306465Y-47621407D01*
X105306465Y-47682593D01*
X105282314Y-47722004D01*
X103641314Y-49363004D01*
X103586797Y-49390781D01*
X103571310Y-49392000D01*
X102353142Y-49392000D01*
X102294951Y-49373093D01*
X102265832Y-49339669D01*
X102167683Y-49156047D01*
X102036414Y-48996095D01*
X102036410Y-48996090D01*
X102036404Y-48996085D01*
X101876452Y-48864816D01*
X101693954Y-48767268D01*
X101495934Y-48707199D01*
X101495929Y-48707198D01*
X101290003Y-48686917D01*
X101289997Y-48686917D01*
X101084070Y-48707198D01*
X101084065Y-48707199D01*
X100886045Y-48767268D01*
X100703547Y-48864816D01*
X100543595Y-48996085D01*
X100543585Y-48996095D01*
X100412316Y-49156047D01*
X100314768Y-49338545D01*
X100254699Y-49536565D01*
X100254698Y-49536570D01*
X100234417Y-49742496D01*
X100234417Y-49742503D01*
X100254698Y-49948429D01*
X100254699Y-49948434D01*
X100314768Y-50146454D01*
X100412316Y-50328952D01*
X100543585Y-50488904D01*
X100543590Y-50488910D01*
X100543595Y-50488914D01*
X100703547Y-50620183D01*
X100703548Y-50620183D01*
X100703550Y-50620185D01*
X100886046Y-50717732D01*
X101023997Y-50759578D01*
X101084065Y-50777800D01*
X101084070Y-50777801D01*
X101289997Y-50798083D01*
X101290000Y-50798083D01*
X101290003Y-50798083D01*
X101495929Y-50777801D01*
X101495934Y-50777800D01*
X101693954Y-50717732D01*
X101876450Y-50620185D01*
X102036410Y-50488910D01*
X102167685Y-50328950D01*
X102265232Y-50146454D01*
X102265232Y-50146452D01*
X102265832Y-50145331D01*
X102309938Y-50102925D01*
X102353142Y-50093000D01*
X103710881Y-50093000D01*
X103731196Y-50095107D01*
X103733106Y-50095507D01*
X103742815Y-50097543D01*
X103773162Y-50093759D01*
X103785407Y-50093000D01*
X103786543Y-50093000D01*
X103806021Y-50089749D01*
X103810052Y-50089161D01*
X103858893Y-50083073D01*
X103858896Y-50083071D01*
X103865929Y-50080977D01*
X103872875Y-50078592D01*
X103872881Y-50078592D01*
X103916155Y-50055171D01*
X103919779Y-50053307D01*
X103963982Y-50031699D01*
X103963982Y-50031698D01*
X103963984Y-50031698D01*
X103963985Y-50031696D01*
X103969970Y-50027423D01*
X103975755Y-50022920D01*
X103975755Y-50022919D01*
X103975758Y-50022918D01*
X104009079Y-49986720D01*
X104011864Y-49983816D01*
X116516187Y-37479495D01*
X116570704Y-37451718D01*
X116586191Y-37450499D01*
X118181950Y-37450499D01*
X118226894Y-37461288D01*
X118274696Y-37485645D01*
X118400000Y-37505491D01*
X118525304Y-37485645D01*
X118638342Y-37428049D01*
X118728050Y-37338341D01*
X118785646Y-37225303D01*
X118805492Y-37099999D01*
X118806711Y-37092303D01*
X118809318Y-37092715D01*
X118824399Y-37046301D01*
X118873899Y-37010337D01*
X118892412Y-37007404D01*
X118892303Y-37006711D01*
X118899999Y-37005491D01*
X118900000Y-37005492D01*
X118935014Y-36999946D01*
X118995444Y-37009517D01*
X119038709Y-37052781D01*
X119049500Y-37097727D01*
X119049500Y-55881949D01*
X119038710Y-55926893D01*
X119014355Y-55974691D01*
X119014354Y-55974696D01*
X118993289Y-56107696D01*
X118990682Y-56107283D01*
X118975601Y-56153699D01*
X118926101Y-56189663D01*
X118907586Y-56192595D01*
X118907696Y-56193289D01*
X118774696Y-56214354D01*
X118774694Y-56214354D01*
X118726895Y-56238710D01*
X118681950Y-56249500D01*
X103253689Y-56249500D01*
X103195498Y-56230593D01*
X103183685Y-56220504D01*
X102289595Y-55326414D01*
X102261818Y-55271897D01*
X102264862Y-55227672D01*
X102265230Y-55226456D01*
X102265232Y-55226454D01*
X102325300Y-55028434D01*
X102325301Y-55028429D01*
X102345583Y-54822503D01*
X102345583Y-54822496D01*
X102325301Y-54616570D01*
X102325300Y-54616565D01*
X102307078Y-54556497D01*
X102265232Y-54418546D01*
X102167685Y-54236050D01*
X102036410Y-54076090D01*
X102036404Y-54076085D01*
X101876452Y-53944816D01*
X101693954Y-53847268D01*
X101495934Y-53787199D01*
X101495929Y-53787198D01*
X101290003Y-53766917D01*
X101289997Y-53766917D01*
X101084070Y-53787198D01*
X101084065Y-53787199D01*
X100886045Y-53847268D01*
X100703547Y-53944816D01*
X100543595Y-54076085D01*
X100543585Y-54076095D01*
X100412316Y-54236047D01*
X100314768Y-54418545D01*
X100254699Y-54616565D01*
X100254698Y-54616570D01*
X100234417Y-54822496D01*
X100234417Y-54822503D01*
X100254698Y-55028429D01*
X100254699Y-55028434D01*
X100314768Y-55226454D01*
X100412316Y-55408952D01*
X100543585Y-55568904D01*
X100543590Y-55568910D01*
X100543595Y-55568914D01*
X100703547Y-55700183D01*
X100703548Y-55700183D01*
X100703550Y-55700185D01*
X100886046Y-55797732D01*
X101023997Y-55839578D01*
X101084065Y-55857800D01*
X101084070Y-55857801D01*
X101289997Y-55878083D01*
X101290000Y-55878083D01*
X101290003Y-55878083D01*
X101495929Y-55857801D01*
X101495934Y-55857800D01*
X101693954Y-55797732D01*
X101693957Y-55797730D01*
X101695171Y-55797362D01*
X101756344Y-55798563D01*
X101793913Y-55822095D01*
X102552313Y-56580495D01*
X102580090Y-56635012D01*
X102570519Y-56695444D01*
X102527254Y-56738709D01*
X102482309Y-56749499D01*
X102192720Y-56749499D01*
X102134529Y-56730592D01*
X102116192Y-56713304D01*
X102036412Y-56616092D01*
X102036403Y-56616085D01*
X101979042Y-56569009D01*
X101876452Y-56484816D01*
X101693954Y-56387268D01*
X101495934Y-56327199D01*
X101495929Y-56327198D01*
X101290003Y-56306917D01*
X101289997Y-56306917D01*
X101084070Y-56327198D01*
X101084065Y-56327199D01*
X100886045Y-56387268D01*
X100703547Y-56484816D01*
X100543595Y-56616085D01*
X100543585Y-56616095D01*
X100412316Y-56776047D01*
X100314768Y-56958545D01*
X100254699Y-57156565D01*
X100254698Y-57156570D01*
X100234417Y-57362496D01*
X100234417Y-57362503D01*
X100254698Y-57568429D01*
X100254699Y-57568434D01*
X100314768Y-57766454D01*
X100412316Y-57948952D01*
X100543585Y-58108904D01*
X100543590Y-58108910D01*
X100543595Y-58108914D01*
X100703547Y-58240183D01*
X100703548Y-58240183D01*
X100703550Y-58240185D01*
X100886046Y-58337732D01*
X101023997Y-58379578D01*
X101084065Y-58397800D01*
X101084070Y-58397801D01*
X101289997Y-58418083D01*
X101290000Y-58418083D01*
X101290003Y-58418083D01*
X101495929Y-58397801D01*
X101495934Y-58397800D01*
X101693954Y-58337732D01*
X101876450Y-58240185D01*
X102036410Y-58108910D01*
X102167685Y-57948950D01*
X102265232Y-57766454D01*
X102325300Y-57568434D01*
X102326291Y-57558363D01*
X102328121Y-57539796D01*
X102352640Y-57483739D01*
X102405427Y-57452799D01*
X102426644Y-57450499D01*
X118181950Y-57450499D01*
X118226894Y-57461288D01*
X118274696Y-57485645D01*
X118400000Y-57505491D01*
X118525304Y-57485645D01*
X118638342Y-57428049D01*
X118728050Y-57338341D01*
X118785646Y-57225303D01*
X118805492Y-57099999D01*
X118806711Y-57092303D01*
X118809318Y-57092715D01*
X118824399Y-57046301D01*
X118873899Y-57010337D01*
X118892412Y-57007404D01*
X118892303Y-57006711D01*
X118899999Y-57005491D01*
X118900000Y-57005492D01*
X118935014Y-56999946D01*
X118995444Y-57009517D01*
X119038709Y-57052781D01*
X119049500Y-57097727D01*
X119049500Y-75881949D01*
X119038710Y-75926893D01*
X119014355Y-75974691D01*
X119014354Y-75974696D01*
X118993289Y-76107696D01*
X118990682Y-76107283D01*
X118975601Y-76153699D01*
X118926101Y-76189663D01*
X118907586Y-76192595D01*
X118907696Y-76193289D01*
X118774696Y-76214354D01*
X118774694Y-76214354D01*
X118726895Y-76238710D01*
X118681950Y-76249500D01*
X118086190Y-76249500D01*
X118027999Y-76230593D01*
X118016186Y-76220504D01*
X102260338Y-60464656D01*
X102232561Y-60410139D01*
X102242132Y-60349707D01*
X102242967Y-60348106D01*
X102265232Y-60306454D01*
X102325300Y-60108434D01*
X102325301Y-60108429D01*
X102345583Y-59902503D01*
X102345583Y-59902496D01*
X102325301Y-59696570D01*
X102325300Y-59696565D01*
X102307078Y-59636497D01*
X102265232Y-59498546D01*
X102167685Y-59316050D01*
X102036410Y-59156090D01*
X102036404Y-59156085D01*
X101876452Y-59024816D01*
X101693954Y-58927268D01*
X101495934Y-58867199D01*
X101495929Y-58867198D01*
X101290003Y-58846917D01*
X101289997Y-58846917D01*
X101084070Y-58867198D01*
X101084065Y-58867199D01*
X100886045Y-58927268D01*
X100703547Y-59024816D01*
X100543595Y-59156085D01*
X100543585Y-59156095D01*
X100412316Y-59316047D01*
X100314768Y-59498545D01*
X100254699Y-59696565D01*
X100254698Y-59696570D01*
X100234417Y-59902496D01*
X100234417Y-59902503D01*
X100254698Y-60108429D01*
X100254699Y-60108434D01*
X100314768Y-60306454D01*
X100412316Y-60488952D01*
X100543585Y-60648904D01*
X100543590Y-60648910D01*
X100543595Y-60648914D01*
X100703547Y-60780183D01*
X100703548Y-60780183D01*
X100703550Y-60780185D01*
X100886046Y-60877732D01*
X101023997Y-60919578D01*
X101084065Y-60937800D01*
X101084070Y-60937801D01*
X101289997Y-60958083D01*
X101290000Y-60958083D01*
X101290003Y-60958083D01*
X101495929Y-60937801D01*
X101495930Y-60937800D01*
X101495934Y-60937800D01*
X101628036Y-60897727D01*
X101689209Y-60898928D01*
X101726778Y-60922460D01*
X102727314Y-61922996D01*
X102755091Y-61977513D01*
X102745520Y-62037945D01*
X102702255Y-62081210D01*
X102657310Y-62092000D01*
X102353142Y-62092000D01*
X102294951Y-62073093D01*
X102265832Y-62039669D01*
X102265231Y-62038545D01*
X102167685Y-61856050D01*
X102036410Y-61696090D01*
X102036404Y-61696085D01*
X101876452Y-61564816D01*
X101693954Y-61467268D01*
X101495934Y-61407199D01*
X101495929Y-61407198D01*
X101290003Y-61386917D01*
X101289997Y-61386917D01*
X101084070Y-61407198D01*
X101084065Y-61407199D01*
X100886045Y-61467268D01*
X100703547Y-61564816D01*
X100543595Y-61696085D01*
X100543585Y-61696095D01*
X100412316Y-61856047D01*
X100314768Y-62038545D01*
X100254699Y-62236565D01*
X100254698Y-62236570D01*
X100234417Y-62442496D01*
X100234417Y-62442503D01*
X100254698Y-62648429D01*
X100254699Y-62648434D01*
X100314768Y-62846454D01*
X100412316Y-63028952D01*
X100543585Y-63188904D01*
X100543590Y-63188910D01*
X100543595Y-63188914D01*
X100703547Y-63320183D01*
X100703548Y-63320183D01*
X100703550Y-63320185D01*
X100886046Y-63417732D01*
X101023997Y-63459578D01*
X101084065Y-63477800D01*
X101084070Y-63477801D01*
X101289997Y-63498083D01*
X101290000Y-63498083D01*
X101290003Y-63498083D01*
X101495929Y-63477801D01*
X101495934Y-63477800D01*
X101693954Y-63417732D01*
X101876450Y-63320185D01*
X102036410Y-63188910D01*
X102167685Y-63028950D01*
X102265232Y-62846454D01*
X102265232Y-62846452D01*
X102265832Y-62845331D01*
X102309938Y-62802925D01*
X102353142Y-62793000D01*
X102955270Y-62793000D01*
X103013461Y-62811907D01*
X103025274Y-62821996D01*
X117518156Y-77314877D01*
X117531031Y-77330733D01*
X117536001Y-77338341D01*
X117537522Y-77340668D01*
X117561653Y-77359450D01*
X117570837Y-77367559D01*
X117571648Y-77368369D01*
X117571652Y-77368373D01*
X117587732Y-77379855D01*
X117591010Y-77382299D01*
X117629833Y-77412516D01*
X117629837Y-77412517D01*
X117636313Y-77416021D01*
X117642893Y-77419239D01*
X117690061Y-77433281D01*
X117693923Y-77434519D01*
X117704270Y-77438071D01*
X117740471Y-77450499D01*
X117740473Y-77450499D01*
X117747695Y-77451704D01*
X117754998Y-77452614D01*
X117755005Y-77452616D01*
X117804135Y-77450584D01*
X117808226Y-77450499D01*
X118181950Y-77450499D01*
X118226894Y-77461288D01*
X118274696Y-77485645D01*
X118400000Y-77505491D01*
X118525304Y-77485645D01*
X118638342Y-77428049D01*
X118728050Y-77338341D01*
X118785646Y-77225303D01*
X118805492Y-77099999D01*
X118806711Y-77092303D01*
X118809318Y-77092715D01*
X118824399Y-77046301D01*
X118873899Y-77010337D01*
X118892412Y-77007404D01*
X118892303Y-77006711D01*
X118899999Y-77005491D01*
X118900000Y-77005492D01*
X118935014Y-76999946D01*
X118995444Y-77009517D01*
X119038709Y-77052781D01*
X119049500Y-77097727D01*
X119049500Y-84547310D01*
X119030593Y-84605501D01*
X118981093Y-84641465D01*
X118919907Y-84641465D01*
X118880496Y-84617314D01*
X102289595Y-68026413D01*
X102261818Y-67971896D01*
X102264862Y-67927671D01*
X102265230Y-67926457D01*
X102265232Y-67926454D01*
X102325300Y-67728434D01*
X102325301Y-67728429D01*
X102345583Y-67522503D01*
X102345583Y-67522496D01*
X102325301Y-67316570D01*
X102325300Y-67316565D01*
X102307078Y-67256497D01*
X102265232Y-67118546D01*
X102167685Y-66936050D01*
X102036410Y-66776090D01*
X102036404Y-66776085D01*
X101876452Y-66644816D01*
X101693954Y-66547268D01*
X101495934Y-66487199D01*
X101495929Y-66487198D01*
X101290003Y-66466917D01*
X101289997Y-66466917D01*
X101084070Y-66487198D01*
X101084065Y-66487199D01*
X100886045Y-66547268D01*
X100703547Y-66644816D01*
X100543595Y-66776085D01*
X100543585Y-66776095D01*
X100412316Y-66936047D01*
X100314768Y-67118545D01*
X100254699Y-67316565D01*
X100254698Y-67316570D01*
X100234417Y-67522496D01*
X100234417Y-67522503D01*
X100254698Y-67728429D01*
X100254699Y-67728434D01*
X100314768Y-67926454D01*
X100412316Y-68108952D01*
X100543585Y-68268904D01*
X100543590Y-68268910D01*
X100543595Y-68268914D01*
X100703547Y-68400183D01*
X100703548Y-68400183D01*
X100703550Y-68400185D01*
X100886046Y-68497732D01*
X101023997Y-68539578D01*
X101084065Y-68557800D01*
X101084070Y-68557801D01*
X101289997Y-68578083D01*
X101290000Y-68578083D01*
X101290003Y-68578083D01*
X101495929Y-68557801D01*
X101495934Y-68557800D01*
X101693954Y-68497732D01*
X101693957Y-68497730D01*
X101695171Y-68497362D01*
X101756344Y-68498563D01*
X101793913Y-68522095D01*
X102814814Y-69542996D01*
X102842591Y-69597513D01*
X102833020Y-69657945D01*
X102789755Y-69701210D01*
X102744810Y-69712000D01*
X102353142Y-69712000D01*
X102294951Y-69693093D01*
X102265832Y-69659669D01*
X102265231Y-69658545D01*
X102167685Y-69476050D01*
X102036410Y-69316090D01*
X102036404Y-69316085D01*
X101876452Y-69184816D01*
X101693954Y-69087268D01*
X101495934Y-69027199D01*
X101495929Y-69027198D01*
X101290003Y-69006917D01*
X101289997Y-69006917D01*
X101084070Y-69027198D01*
X101084065Y-69027199D01*
X100886045Y-69087268D01*
X100703547Y-69184816D01*
X100543595Y-69316085D01*
X100543585Y-69316095D01*
X100412316Y-69476047D01*
X100314768Y-69658545D01*
X100254699Y-69856565D01*
X100254698Y-69856570D01*
X100234417Y-70062496D01*
X100234417Y-70062503D01*
X100254698Y-70268429D01*
X100254699Y-70268434D01*
X100314768Y-70466454D01*
X100412316Y-70648952D01*
X100543585Y-70808904D01*
X100543590Y-70808910D01*
X100543595Y-70808914D01*
X100703547Y-70940183D01*
X100703548Y-70940183D01*
X100703550Y-70940185D01*
X100886046Y-71037732D01*
X101023997Y-71079578D01*
X101084065Y-71097800D01*
X101084070Y-71097801D01*
X101289997Y-71118083D01*
X101290000Y-71118083D01*
X101290003Y-71118083D01*
X101495929Y-71097801D01*
X101495934Y-71097800D01*
X101693954Y-71037732D01*
X101876450Y-70940185D01*
X102036410Y-70808910D01*
X102167685Y-70648950D01*
X102265232Y-70466454D01*
X102265232Y-70466452D01*
X102265832Y-70465331D01*
X102309938Y-70422925D01*
X102353142Y-70413000D01*
X102676310Y-70413000D01*
X102734501Y-70431907D01*
X102746314Y-70441996D01*
X104387314Y-72082996D01*
X104415091Y-72137513D01*
X104405520Y-72197945D01*
X104362255Y-72241210D01*
X104317310Y-72252000D01*
X102353142Y-72252000D01*
X102294951Y-72233093D01*
X102265832Y-72199669D01*
X102265231Y-72198545D01*
X102167685Y-72016050D01*
X102036410Y-71856090D01*
X102036404Y-71856085D01*
X101876452Y-71724816D01*
X101693954Y-71627268D01*
X101495934Y-71567199D01*
X101495929Y-71567198D01*
X101290003Y-71546917D01*
X101289997Y-71546917D01*
X101084070Y-71567198D01*
X101084065Y-71567199D01*
X100886045Y-71627268D01*
X100703547Y-71724816D01*
X100543595Y-71856085D01*
X100543585Y-71856095D01*
X100412316Y-72016047D01*
X100314768Y-72198545D01*
X100254699Y-72396565D01*
X100254698Y-72396570D01*
X100234417Y-72602496D01*
X100234417Y-72602503D01*
X100254698Y-72808429D01*
X100254699Y-72808434D01*
X100314768Y-73006454D01*
X100412316Y-73188952D01*
X100543585Y-73348904D01*
X100543590Y-73348910D01*
X100543595Y-73348914D01*
X100703547Y-73480183D01*
X100703548Y-73480183D01*
X100703550Y-73480185D01*
X100886046Y-73577732D01*
X101023997Y-73619578D01*
X101084065Y-73637800D01*
X101084070Y-73637801D01*
X101289997Y-73658083D01*
X101290000Y-73658083D01*
X101290003Y-73658083D01*
X101495929Y-73637801D01*
X101495934Y-73637800D01*
X101693954Y-73577732D01*
X101876450Y-73480185D01*
X102036410Y-73348910D01*
X102167685Y-73188950D01*
X102265232Y-73006454D01*
X102265232Y-73006452D01*
X102265832Y-73005331D01*
X102309938Y-72962925D01*
X102353142Y-72953000D01*
X104216310Y-72953000D01*
X104274501Y-72971907D01*
X104286314Y-72981996D01*
X105884814Y-74580496D01*
X105912591Y-74635013D01*
X105903020Y-74695445D01*
X105859755Y-74738710D01*
X105814810Y-74749500D01*
X102330426Y-74749500D01*
X102272235Y-74730593D01*
X102243116Y-74697169D01*
X102209892Y-74635013D01*
X102167685Y-74556050D01*
X102036410Y-74396090D01*
X102036404Y-74396085D01*
X101876452Y-74264816D01*
X101693954Y-74167268D01*
X101495934Y-74107199D01*
X101495929Y-74107198D01*
X101290003Y-74086917D01*
X101289997Y-74086917D01*
X101084070Y-74107198D01*
X101084065Y-74107199D01*
X100886045Y-74167268D01*
X100703547Y-74264816D01*
X100543595Y-74396085D01*
X100543585Y-74396095D01*
X100412316Y-74556047D01*
X100314768Y-74738545D01*
X100254699Y-74936565D01*
X100254698Y-74936570D01*
X100234417Y-75142496D01*
X100234417Y-75142503D01*
X100254698Y-75348429D01*
X100254699Y-75348434D01*
X100314768Y-75546454D01*
X100412316Y-75728952D01*
X100537877Y-75881949D01*
X100543590Y-75888910D01*
X100543595Y-75888914D01*
X100703547Y-76020183D01*
X100703548Y-76020183D01*
X100703550Y-76020185D01*
X100886046Y-76117732D01*
X101004615Y-76153699D01*
X101084065Y-76177800D01*
X101084070Y-76177801D01*
X101289997Y-76198083D01*
X101290000Y-76198083D01*
X101290003Y-76198083D01*
X101495929Y-76177801D01*
X101495934Y-76177800D01*
X101693954Y-76117732D01*
X101876450Y-76020185D01*
X102036410Y-75888910D01*
X102167685Y-75728950D01*
X102265232Y-75546454D01*
X102273025Y-75520762D01*
X102308009Y-75470566D01*
X102365817Y-75450519D01*
X102367762Y-75450500D01*
X106112770Y-75450500D01*
X106170961Y-75469407D01*
X106182774Y-75479496D01*
X117095504Y-86392226D01*
X117123281Y-86446743D01*
X117124500Y-86462230D01*
X117124500Y-97589810D01*
X117105593Y-97648001D01*
X117056093Y-97683965D01*
X116994907Y-97683965D01*
X116955496Y-97659814D01*
X104383301Y-85087619D01*
X104370425Y-85071762D01*
X104363937Y-85061831D01*
X104339808Y-85043051D01*
X104330619Y-85034937D01*
X104329807Y-85034125D01*
X104313725Y-85022643D01*
X104310461Y-85020210D01*
X104271626Y-84989983D01*
X104271624Y-84989982D01*
X104265177Y-84986493D01*
X104258570Y-84983263D01*
X104258566Y-84983260D01*
X104211409Y-84969220D01*
X104207515Y-84967972D01*
X104160987Y-84951999D01*
X104153760Y-84950793D01*
X104146455Y-84949883D01*
X104146454Y-84949883D01*
X104146452Y-84949883D01*
X104097324Y-84951915D01*
X104093233Y-84952000D01*
X102353142Y-84952000D01*
X102294951Y-84933093D01*
X102265832Y-84899669D01*
X102167683Y-84716047D01*
X102036414Y-84556095D01*
X102036410Y-84556090D01*
X102036404Y-84556085D01*
X101876452Y-84424816D01*
X101693954Y-84327268D01*
X101495934Y-84267199D01*
X101495929Y-84267198D01*
X101290003Y-84246917D01*
X101289997Y-84246917D01*
X101084070Y-84267198D01*
X101084065Y-84267199D01*
X100886045Y-84327268D01*
X100703547Y-84424816D01*
X100543595Y-84556085D01*
X100543585Y-84556095D01*
X100412316Y-84716047D01*
X100314768Y-84898545D01*
X100254699Y-85096565D01*
X100254698Y-85096570D01*
X100234417Y-85302496D01*
X100234417Y-85302503D01*
X100254698Y-85508429D01*
X100254699Y-85508434D01*
X100314768Y-85706454D01*
X100412316Y-85888952D01*
X100543585Y-86048904D01*
X100543590Y-86048910D01*
X100543595Y-86048914D01*
X100703547Y-86180183D01*
X100703548Y-86180183D01*
X100703550Y-86180185D01*
X100886046Y-86277732D01*
X101023997Y-86319578D01*
X101084065Y-86337800D01*
X101084070Y-86337801D01*
X101289997Y-86358083D01*
X101290000Y-86358083D01*
X101290003Y-86358083D01*
X101495929Y-86337801D01*
X101495934Y-86337800D01*
X101693954Y-86277732D01*
X101876450Y-86180185D01*
X102036410Y-86048910D01*
X102167685Y-85888950D01*
X102265232Y-85706454D01*
X102265232Y-85706452D01*
X102265832Y-85705331D01*
X102309938Y-85662925D01*
X102353142Y-85653000D01*
X103916310Y-85653000D01*
X103974501Y-85671907D01*
X103986314Y-85681996D01*
X117520504Y-99216186D01*
X117548281Y-99270703D01*
X117549500Y-99286190D01*
X117549500Y-99514810D01*
X117530593Y-99573001D01*
X117481093Y-99608965D01*
X117419907Y-99608965D01*
X117380496Y-99584814D01*
X105180801Y-87385119D01*
X105167925Y-87369262D01*
X105161437Y-87359331D01*
X105137308Y-87340551D01*
X105128119Y-87332437D01*
X105127307Y-87331625D01*
X105111225Y-87320143D01*
X105107961Y-87317710D01*
X105069126Y-87287483D01*
X105069124Y-87287482D01*
X105062677Y-87283993D01*
X105056070Y-87280763D01*
X105056066Y-87280760D01*
X105008909Y-87266720D01*
X105005015Y-87265472D01*
X104958487Y-87249499D01*
X104951260Y-87248293D01*
X104943955Y-87247383D01*
X104943954Y-87247383D01*
X104943952Y-87247383D01*
X104894824Y-87249415D01*
X104890733Y-87249500D01*
X102209134Y-87249500D01*
X102150943Y-87230593D01*
X102132606Y-87213305D01*
X102036412Y-87096092D01*
X102036403Y-87096085D01*
X101979042Y-87049009D01*
X101876452Y-86964816D01*
X101693954Y-86867268D01*
X101495934Y-86807199D01*
X101495929Y-86807198D01*
X101290003Y-86786917D01*
X101289997Y-86786917D01*
X101084070Y-86807198D01*
X101084065Y-86807199D01*
X100886045Y-86867268D01*
X100703547Y-86964816D01*
X100543595Y-87096085D01*
X100543585Y-87096095D01*
X100412316Y-87256047D01*
X100314768Y-87438545D01*
X100254699Y-87636565D01*
X100254698Y-87636570D01*
X100234417Y-87842496D01*
X100234417Y-87842503D01*
X100254698Y-88048429D01*
X100254699Y-88048434D01*
X100314768Y-88246454D01*
X100412316Y-88428952D01*
X100543585Y-88588904D01*
X100543590Y-88588910D01*
X100543595Y-88588914D01*
X100703547Y-88720183D01*
X100703548Y-88720183D01*
X100703550Y-88720185D01*
X100886046Y-88817732D01*
X101023997Y-88859578D01*
X101084065Y-88877800D01*
X101084070Y-88877801D01*
X101289997Y-88898083D01*
X101290000Y-88898083D01*
X101290003Y-88898083D01*
X101495929Y-88877801D01*
X101495934Y-88877800D01*
X101693954Y-88817732D01*
X101876450Y-88720185D01*
X102036410Y-88588910D01*
X102167685Y-88428950D01*
X102265232Y-88246454D01*
X102325300Y-88048434D01*
X102326150Y-88039798D01*
X102350668Y-87983742D01*
X102403454Y-87952801D01*
X102424674Y-87950500D01*
X104713810Y-87950500D01*
X104772001Y-87969407D01*
X104783814Y-87979496D01*
X108884814Y-92080496D01*
X108912591Y-92135013D01*
X108903020Y-92195445D01*
X108859755Y-92238710D01*
X108814810Y-92249500D01*
X102143480Y-92249500D01*
X102085289Y-92230593D01*
X102066952Y-92213305D01*
X102036412Y-92176092D01*
X102036403Y-92176085D01*
X101919928Y-92080496D01*
X101876452Y-92044816D01*
X101693954Y-91947268D01*
X101495934Y-91887199D01*
X101495929Y-91887198D01*
X101290003Y-91866917D01*
X101289997Y-91866917D01*
X101084070Y-91887198D01*
X101084065Y-91887199D01*
X100886045Y-91947268D01*
X100703547Y-92044816D01*
X100543595Y-92176085D01*
X100543585Y-92176095D01*
X100412316Y-92336047D01*
X100314768Y-92518545D01*
X100254699Y-92716565D01*
X100254698Y-92716570D01*
X100234417Y-92922496D01*
X100234417Y-92922503D01*
X84565583Y-92922503D01*
X84565583Y-92922496D01*
X84545301Y-92716570D01*
X84545300Y-92716565D01*
X84527078Y-92656497D01*
X84485232Y-92518546D01*
X84387685Y-92336050D01*
X84366115Y-92309767D01*
X84256414Y-92176095D01*
X84256410Y-92176090D01*
X84216755Y-92143546D01*
X84096452Y-92044816D01*
X83913954Y-91947268D01*
X83715934Y-91887199D01*
X83715929Y-91887198D01*
X83510003Y-91866917D01*
X83509997Y-91866917D01*
X83304070Y-91887198D01*
X83304065Y-91887199D01*
X83106045Y-91947268D01*
X82923547Y-92044816D01*
X82763595Y-92176085D01*
X82763585Y-92176095D01*
X82632316Y-92336047D01*
X82534768Y-92518545D01*
X82474699Y-92716565D01*
X82474698Y-92716570D01*
X82454417Y-92922496D01*
X82454417Y-92922503D01*
X72700500Y-92922503D01*
X72700500Y-90482500D01*
X82464767Y-90482500D01*
X82475190Y-90588331D01*
X82475191Y-90588336D01*
X82535232Y-90786262D01*
X82535234Y-90786267D01*
X82632724Y-90968660D01*
X82632731Y-90968670D01*
X82763940Y-91128550D01*
X82763949Y-91128559D01*
X82923829Y-91259768D01*
X82923839Y-91259775D01*
X83106232Y-91357265D01*
X83106237Y-91357267D01*
X83304166Y-91417308D01*
X83409998Y-91427731D01*
X83410000Y-91427730D01*
X83410000Y-90873264D01*
X83474237Y-90882500D01*
X83545763Y-90882500D01*
X83610000Y-90873264D01*
X83610000Y-91427730D01*
X83610001Y-91427731D01*
X83715833Y-91417308D01*
X83913762Y-91357267D01*
X83913767Y-91357265D01*
X84096160Y-91259775D01*
X84096170Y-91259768D01*
X84256050Y-91128559D01*
X84256059Y-91128550D01*
X84387268Y-90968670D01*
X84387275Y-90968660D01*
X84484765Y-90786267D01*
X84484767Y-90786262D01*
X84544808Y-90588336D01*
X84544809Y-90588331D01*
X84555232Y-90482500D01*
X84001746Y-90482500D01*
X84010000Y-90454389D01*
X84010000Y-90382503D01*
X100234417Y-90382503D01*
X100254698Y-90588429D01*
X100254699Y-90588434D01*
X100314768Y-90786454D01*
X100412316Y-90968952D01*
X100543302Y-91128559D01*
X100543590Y-91128910D01*
X100543595Y-91128914D01*
X100703547Y-91260183D01*
X100703548Y-91260183D01*
X100703550Y-91260185D01*
X100886046Y-91357732D01*
X101023997Y-91399578D01*
X101084065Y-91417800D01*
X101084070Y-91417801D01*
X101289997Y-91438083D01*
X101290000Y-91438083D01*
X101290003Y-91438083D01*
X101495929Y-91417801D01*
X101495934Y-91417800D01*
X101497556Y-91417308D01*
X101693954Y-91357732D01*
X101876450Y-91260185D01*
X102036410Y-91128910D01*
X102167685Y-90968950D01*
X102265232Y-90786454D01*
X102325300Y-90588434D01*
X102325301Y-90588429D01*
X102345583Y-90382503D01*
X102345583Y-90382496D01*
X102325301Y-90176570D01*
X102325300Y-90176565D01*
X102287423Y-90051702D01*
X102265232Y-89978546D01*
X102167685Y-89796050D01*
X102036410Y-89636090D01*
X102036404Y-89636085D01*
X101876452Y-89504816D01*
X101693954Y-89407268D01*
X101495934Y-89347199D01*
X101495929Y-89347198D01*
X101290003Y-89326917D01*
X101289997Y-89326917D01*
X101084070Y-89347198D01*
X101084065Y-89347199D01*
X100886045Y-89407268D01*
X100703547Y-89504816D01*
X100543595Y-89636085D01*
X100543585Y-89636095D01*
X100412316Y-89796047D01*
X100314768Y-89978545D01*
X100254699Y-90176565D01*
X100254698Y-90176570D01*
X100234417Y-90382496D01*
X100234417Y-90382503D01*
X84010000Y-90382503D01*
X84010000Y-90310611D01*
X84001746Y-90282500D01*
X84555232Y-90282500D01*
X84555232Y-90282499D01*
X84544809Y-90176668D01*
X84544808Y-90176663D01*
X84484767Y-89978737D01*
X84484765Y-89978732D01*
X84387275Y-89796339D01*
X84387268Y-89796329D01*
X84256059Y-89636449D01*
X84256050Y-89636440D01*
X84096170Y-89505231D01*
X84096160Y-89505224D01*
X83913767Y-89407734D01*
X83913762Y-89407732D01*
X83715836Y-89347691D01*
X83715831Y-89347690D01*
X83610000Y-89337267D01*
X83610000Y-89891735D01*
X83545763Y-89882500D01*
X83474237Y-89882500D01*
X83410000Y-89891735D01*
X83410000Y-89337267D01*
X83409999Y-89337267D01*
X83304168Y-89347690D01*
X83304163Y-89347691D01*
X83106237Y-89407732D01*
X83106232Y-89407734D01*
X82923839Y-89505224D01*
X82923829Y-89505231D01*
X82763949Y-89636440D01*
X82763940Y-89636449D01*
X82632731Y-89796329D01*
X82632724Y-89796339D01*
X82535234Y-89978732D01*
X82535232Y-89978737D01*
X82475191Y-90176663D01*
X82475190Y-90176668D01*
X82464767Y-90282499D01*
X82464768Y-90282500D01*
X83018254Y-90282500D01*
X83010000Y-90310611D01*
X83010000Y-90454389D01*
X83018254Y-90482500D01*
X82464767Y-90482500D01*
X72700500Y-90482500D01*
X72700500Y-87842503D01*
X82454417Y-87842503D01*
X82474698Y-88048429D01*
X82474699Y-88048434D01*
X82534768Y-88246454D01*
X82632316Y-88428952D01*
X82763585Y-88588904D01*
X82763590Y-88588910D01*
X82763595Y-88588914D01*
X82923547Y-88720183D01*
X82923548Y-88720183D01*
X82923550Y-88720185D01*
X83106046Y-88817732D01*
X83243997Y-88859578D01*
X83304065Y-88877800D01*
X83304070Y-88877801D01*
X83509997Y-88898083D01*
X83510000Y-88898083D01*
X83510003Y-88898083D01*
X83715929Y-88877801D01*
X83715934Y-88877800D01*
X83913954Y-88817732D01*
X84096450Y-88720185D01*
X84256410Y-88588910D01*
X84387685Y-88428950D01*
X84485232Y-88246454D01*
X84545300Y-88048434D01*
X84545301Y-88048429D01*
X84565583Y-87842503D01*
X84565583Y-87842496D01*
X84545301Y-87636570D01*
X84545300Y-87636565D01*
X84527078Y-87576497D01*
X84485232Y-87438546D01*
X84387685Y-87256050D01*
X84380572Y-87247383D01*
X84256414Y-87096095D01*
X84256410Y-87096090D01*
X84256404Y-87096085D01*
X84096452Y-86964816D01*
X83913954Y-86867268D01*
X83715934Y-86807199D01*
X83715929Y-86807198D01*
X83510003Y-86786917D01*
X83509997Y-86786917D01*
X83304070Y-86807198D01*
X83304065Y-86807199D01*
X83106045Y-86867268D01*
X82923547Y-86964816D01*
X82763595Y-87096085D01*
X82763585Y-87096095D01*
X82632316Y-87256047D01*
X82534768Y-87438545D01*
X82474699Y-87636565D01*
X82474698Y-87636570D01*
X82454417Y-87842496D01*
X82454417Y-87842503D01*
X72700500Y-87842503D01*
X72700500Y-85302503D01*
X82454417Y-85302503D01*
X82474698Y-85508429D01*
X82474699Y-85508434D01*
X82534768Y-85706454D01*
X82632316Y-85888952D01*
X82763585Y-86048904D01*
X82763590Y-86048910D01*
X82763595Y-86048914D01*
X82923547Y-86180183D01*
X82923548Y-86180183D01*
X82923550Y-86180185D01*
X83106046Y-86277732D01*
X83243997Y-86319578D01*
X83304065Y-86337800D01*
X83304070Y-86337801D01*
X83509997Y-86358083D01*
X83510000Y-86358083D01*
X83510003Y-86358083D01*
X83715929Y-86337801D01*
X83715934Y-86337800D01*
X83913954Y-86277732D01*
X84096450Y-86180185D01*
X84256410Y-86048910D01*
X84387685Y-85888950D01*
X84485232Y-85706454D01*
X84545300Y-85508434D01*
X84545301Y-85508429D01*
X84565583Y-85302503D01*
X84565583Y-85302496D01*
X84545301Y-85096570D01*
X84545300Y-85096565D01*
X84512968Y-84989982D01*
X84485232Y-84898546D01*
X84387685Y-84716050D01*
X84256410Y-84556090D01*
X84256404Y-84556085D01*
X84096452Y-84424816D01*
X83913954Y-84327268D01*
X83715934Y-84267199D01*
X83715929Y-84267198D01*
X83510003Y-84246917D01*
X83509997Y-84246917D01*
X83304070Y-84267198D01*
X83304065Y-84267199D01*
X83106045Y-84327268D01*
X82923547Y-84424816D01*
X82763595Y-84556085D01*
X82763585Y-84556095D01*
X82632316Y-84716047D01*
X82534768Y-84898545D01*
X82474699Y-85096565D01*
X82474698Y-85096570D01*
X82454417Y-85302496D01*
X82454417Y-85302503D01*
X72700500Y-85302503D01*
X72700500Y-82762503D01*
X82454417Y-82762503D01*
X82474698Y-82968429D01*
X82474699Y-82968434D01*
X82534768Y-83166454D01*
X82632316Y-83348952D01*
X82763585Y-83508904D01*
X82763590Y-83508910D01*
X82763595Y-83508914D01*
X82923547Y-83640183D01*
X82923548Y-83640183D01*
X82923550Y-83640185D01*
X83106046Y-83737732D01*
X83243997Y-83779578D01*
X83304065Y-83797800D01*
X83304070Y-83797801D01*
X83509997Y-83818083D01*
X83510000Y-83818083D01*
X83510003Y-83818083D01*
X83715929Y-83797801D01*
X83715934Y-83797800D01*
X83913954Y-83737732D01*
X84096450Y-83640185D01*
X84256410Y-83508910D01*
X84387685Y-83348950D01*
X84485232Y-83166454D01*
X84545300Y-82968434D01*
X84545301Y-82968429D01*
X84565583Y-82762503D01*
X100234417Y-82762503D01*
X100254698Y-82968429D01*
X100254699Y-82968434D01*
X100314768Y-83166454D01*
X100412316Y-83348952D01*
X100543585Y-83508904D01*
X100543590Y-83508910D01*
X100543595Y-83508914D01*
X100703547Y-83640183D01*
X100703548Y-83640183D01*
X100703550Y-83640185D01*
X100886046Y-83737732D01*
X101023997Y-83779578D01*
X101084065Y-83797800D01*
X101084070Y-83797801D01*
X101289997Y-83818083D01*
X101290000Y-83818083D01*
X101290003Y-83818083D01*
X101495929Y-83797801D01*
X101495934Y-83797800D01*
X101693954Y-83737732D01*
X101876450Y-83640185D01*
X102036410Y-83508910D01*
X102167685Y-83348950D01*
X102265232Y-83166454D01*
X102325300Y-82968434D01*
X102325301Y-82968429D01*
X102345583Y-82762503D01*
X102345583Y-82762496D01*
X102325301Y-82556570D01*
X102325300Y-82556565D01*
X102307078Y-82496497D01*
X102265232Y-82358546D01*
X102167685Y-82176050D01*
X102036410Y-82016090D01*
X102036404Y-82016085D01*
X101876452Y-81884816D01*
X101693954Y-81787268D01*
X101495934Y-81727199D01*
X101495929Y-81727198D01*
X101290003Y-81706917D01*
X101289997Y-81706917D01*
X101084070Y-81727198D01*
X101084065Y-81727199D01*
X100886045Y-81787268D01*
X100703547Y-81884816D01*
X100543595Y-82016085D01*
X100543585Y-82016095D01*
X100412316Y-82176047D01*
X100314768Y-82358545D01*
X100254699Y-82556565D01*
X100254698Y-82556570D01*
X100234417Y-82762496D01*
X100234417Y-82762503D01*
X84565583Y-82762503D01*
X84565583Y-82762496D01*
X84545301Y-82556570D01*
X84545300Y-82556565D01*
X84527078Y-82496497D01*
X84485232Y-82358546D01*
X84387685Y-82176050D01*
X84256410Y-82016090D01*
X84256404Y-82016085D01*
X84096452Y-81884816D01*
X83913954Y-81787268D01*
X83715934Y-81727199D01*
X83715929Y-81727198D01*
X83510003Y-81706917D01*
X83509997Y-81706917D01*
X83304070Y-81727198D01*
X83304065Y-81727199D01*
X83106045Y-81787268D01*
X82923547Y-81884816D01*
X82763595Y-82016085D01*
X82763585Y-82016095D01*
X82632316Y-82176047D01*
X82534768Y-82358545D01*
X82474699Y-82556565D01*
X82474698Y-82556570D01*
X82454417Y-82762496D01*
X82454417Y-82762503D01*
X72700500Y-82762503D01*
X72700500Y-80222503D01*
X82454417Y-80222503D01*
X82474698Y-80428429D01*
X82474699Y-80428434D01*
X82534768Y-80626454D01*
X82632316Y-80808952D01*
X82763585Y-80968904D01*
X82763590Y-80968910D01*
X82763595Y-80968914D01*
X82923547Y-81100183D01*
X82923548Y-81100183D01*
X82923550Y-81100185D01*
X83106046Y-81197732D01*
X83243997Y-81239578D01*
X83304065Y-81257800D01*
X83304070Y-81257801D01*
X83509997Y-81278083D01*
X83510000Y-81278083D01*
X83510003Y-81278083D01*
X83715929Y-81257801D01*
X83715934Y-81257800D01*
X83913954Y-81197732D01*
X84096450Y-81100185D01*
X84256410Y-80968910D01*
X84387685Y-80808950D01*
X84485232Y-80626454D01*
X84545300Y-80428434D01*
X84545301Y-80428429D01*
X84565583Y-80222503D01*
X100234417Y-80222503D01*
X100254698Y-80428429D01*
X100254699Y-80428434D01*
X100314768Y-80626454D01*
X100412316Y-80808952D01*
X100543585Y-80968904D01*
X100543590Y-80968910D01*
X100543595Y-80968914D01*
X100703547Y-81100183D01*
X100703548Y-81100183D01*
X100703550Y-81100185D01*
X100886046Y-81197732D01*
X101023997Y-81239578D01*
X101084065Y-81257800D01*
X101084070Y-81257801D01*
X101289997Y-81278083D01*
X101290000Y-81278083D01*
X101290003Y-81278083D01*
X101495929Y-81257801D01*
X101495934Y-81257800D01*
X101693954Y-81197732D01*
X101876450Y-81100185D01*
X102036410Y-80968910D01*
X102167685Y-80808950D01*
X102265232Y-80626454D01*
X102325300Y-80428434D01*
X102325301Y-80428429D01*
X102345583Y-80222503D01*
X102345583Y-80222496D01*
X102325301Y-80016570D01*
X102325300Y-80016565D01*
X102307078Y-79956497D01*
X102265232Y-79818546D01*
X102167685Y-79636050D01*
X102036410Y-79476090D01*
X102036404Y-79476085D01*
X101876452Y-79344816D01*
X101693954Y-79247268D01*
X101495934Y-79187199D01*
X101495929Y-79187198D01*
X101290003Y-79166917D01*
X101289997Y-79166917D01*
X101084070Y-79187198D01*
X101084065Y-79187199D01*
X100886045Y-79247268D01*
X100703547Y-79344816D01*
X100543595Y-79476085D01*
X100543585Y-79476095D01*
X100412316Y-79636047D01*
X100314768Y-79818545D01*
X100254699Y-80016565D01*
X100254698Y-80016570D01*
X100234417Y-80222496D01*
X100234417Y-80222503D01*
X84565583Y-80222503D01*
X84565583Y-80222496D01*
X84545301Y-80016570D01*
X84545300Y-80016565D01*
X84527078Y-79956497D01*
X84485232Y-79818546D01*
X84387685Y-79636050D01*
X84256410Y-79476090D01*
X84256404Y-79476085D01*
X84096452Y-79344816D01*
X83913954Y-79247268D01*
X83715934Y-79187199D01*
X83715929Y-79187198D01*
X83510003Y-79166917D01*
X83509997Y-79166917D01*
X83304070Y-79187198D01*
X83304065Y-79187199D01*
X83106045Y-79247268D01*
X82923547Y-79344816D01*
X82763595Y-79476085D01*
X82763585Y-79476095D01*
X82632316Y-79636047D01*
X82534768Y-79818545D01*
X82474699Y-80016565D01*
X82474698Y-80016570D01*
X82454417Y-80222496D01*
X82454417Y-80222503D01*
X72700500Y-80222503D01*
X72700500Y-77682503D01*
X82454417Y-77682503D01*
X82474698Y-77888429D01*
X82474699Y-77888434D01*
X82534768Y-78086454D01*
X82632316Y-78268952D01*
X82763585Y-78428904D01*
X82763590Y-78428910D01*
X82763595Y-78428914D01*
X82923547Y-78560183D01*
X82923548Y-78560183D01*
X82923550Y-78560185D01*
X83106046Y-78657732D01*
X83243997Y-78699578D01*
X83304065Y-78717800D01*
X83304070Y-78717801D01*
X83509997Y-78738083D01*
X83510000Y-78738083D01*
X83510003Y-78738083D01*
X83715929Y-78717801D01*
X83715934Y-78717800D01*
X83913954Y-78657732D01*
X84096450Y-78560185D01*
X84256410Y-78428910D01*
X84387685Y-78268950D01*
X84485232Y-78086454D01*
X84545300Y-77888434D01*
X84545301Y-77888429D01*
X84565583Y-77682503D01*
X100234417Y-77682503D01*
X100254698Y-77888429D01*
X100254699Y-77888434D01*
X100314768Y-78086454D01*
X100412316Y-78268952D01*
X100543585Y-78428904D01*
X100543590Y-78428910D01*
X100543595Y-78428914D01*
X100703547Y-78560183D01*
X100703548Y-78560183D01*
X100703550Y-78560185D01*
X100886046Y-78657732D01*
X101023997Y-78699578D01*
X101084065Y-78717800D01*
X101084070Y-78717801D01*
X101289997Y-78738083D01*
X101290000Y-78738083D01*
X101290003Y-78738083D01*
X101495929Y-78717801D01*
X101495934Y-78717800D01*
X101693954Y-78657732D01*
X101876450Y-78560185D01*
X102036410Y-78428910D01*
X102167685Y-78268950D01*
X102265232Y-78086454D01*
X102325300Y-77888434D01*
X102325301Y-77888429D01*
X102345583Y-77682503D01*
X102345583Y-77682496D01*
X102325301Y-77476570D01*
X102325300Y-77476565D01*
X102296705Y-77382299D01*
X102265232Y-77278546D01*
X102167685Y-77096050D01*
X102164948Y-77092715D01*
X102036414Y-76936095D01*
X102036410Y-76936090D01*
X102036404Y-76936085D01*
X101876452Y-76804816D01*
X101693954Y-76707268D01*
X101495934Y-76647199D01*
X101495929Y-76647198D01*
X101290003Y-76626917D01*
X101289997Y-76626917D01*
X101084070Y-76647198D01*
X101084065Y-76647199D01*
X100886045Y-76707268D01*
X100703547Y-76804816D01*
X100543595Y-76936085D01*
X100543585Y-76936095D01*
X100412316Y-77096047D01*
X100314768Y-77278545D01*
X100254699Y-77476565D01*
X100254698Y-77476570D01*
X100234417Y-77682496D01*
X100234417Y-77682503D01*
X84565583Y-77682503D01*
X84565583Y-77682496D01*
X84545301Y-77476570D01*
X84545300Y-77476565D01*
X84516705Y-77382299D01*
X84485232Y-77278546D01*
X84387685Y-77096050D01*
X84384948Y-77092715D01*
X84256414Y-76936095D01*
X84256410Y-76936090D01*
X84256404Y-76936085D01*
X84096452Y-76804816D01*
X83913954Y-76707268D01*
X83715934Y-76647199D01*
X83715929Y-76647198D01*
X83510003Y-76626917D01*
X83509997Y-76626917D01*
X83304070Y-76647198D01*
X83304065Y-76647199D01*
X83106045Y-76707268D01*
X82923547Y-76804816D01*
X82763595Y-76936085D01*
X82763585Y-76936095D01*
X82632316Y-77096047D01*
X82534768Y-77278545D01*
X82474699Y-77476565D01*
X82474698Y-77476570D01*
X82454417Y-77682496D01*
X82454417Y-77682503D01*
X72700500Y-77682503D01*
X72700500Y-75142503D01*
X82454417Y-75142503D01*
X82474698Y-75348429D01*
X82474699Y-75348434D01*
X82534768Y-75546454D01*
X82632316Y-75728952D01*
X82757877Y-75881949D01*
X82763590Y-75888910D01*
X82763595Y-75888914D01*
X82923547Y-76020183D01*
X82923548Y-76020183D01*
X82923550Y-76020185D01*
X83106046Y-76117732D01*
X83224615Y-76153699D01*
X83304065Y-76177800D01*
X83304070Y-76177801D01*
X83509997Y-76198083D01*
X83510000Y-76198083D01*
X83510003Y-76198083D01*
X83715929Y-76177801D01*
X83715934Y-76177800D01*
X83913954Y-76117732D01*
X84096450Y-76020185D01*
X84256410Y-75888910D01*
X84387685Y-75728950D01*
X84485232Y-75546454D01*
X84545300Y-75348434D01*
X84545301Y-75348429D01*
X84565583Y-75142503D01*
X84565583Y-75142496D01*
X84545301Y-74936570D01*
X84545300Y-74936565D01*
X84527078Y-74876497D01*
X84485232Y-74738546D01*
X84387685Y-74556050D01*
X84387683Y-74556048D01*
X84387683Y-74556047D01*
X84256414Y-74396095D01*
X84256410Y-74396090D01*
X84256404Y-74396085D01*
X84096452Y-74264816D01*
X83913954Y-74167268D01*
X83715934Y-74107199D01*
X83715929Y-74107198D01*
X83510003Y-74086917D01*
X83509997Y-74086917D01*
X83304070Y-74107198D01*
X83304065Y-74107199D01*
X83106045Y-74167268D01*
X82923547Y-74264816D01*
X82763595Y-74396085D01*
X82763585Y-74396095D01*
X82632316Y-74556047D01*
X82534768Y-74738545D01*
X82474699Y-74936565D01*
X82474698Y-74936570D01*
X82454417Y-75142496D01*
X82454417Y-75142503D01*
X72700500Y-75142503D01*
X72700500Y-72602503D01*
X82454417Y-72602503D01*
X82474698Y-72808429D01*
X82474699Y-72808434D01*
X82534768Y-73006454D01*
X82632316Y-73188952D01*
X82763585Y-73348904D01*
X82763590Y-73348910D01*
X82763595Y-73348914D01*
X82923547Y-73480183D01*
X82923548Y-73480183D01*
X82923550Y-73480185D01*
X83106046Y-73577732D01*
X83243997Y-73619578D01*
X83304065Y-73637800D01*
X83304070Y-73637801D01*
X83509997Y-73658083D01*
X83510000Y-73658083D01*
X83510003Y-73658083D01*
X83715929Y-73637801D01*
X83715934Y-73637800D01*
X83913954Y-73577732D01*
X84096450Y-73480185D01*
X84256410Y-73348910D01*
X84387685Y-73188950D01*
X84485232Y-73006454D01*
X84545300Y-72808434D01*
X84545301Y-72808429D01*
X84565583Y-72602503D01*
X84565583Y-72602496D01*
X84545301Y-72396570D01*
X84545300Y-72396565D01*
X84512969Y-72289983D01*
X84485232Y-72198546D01*
X84387685Y-72016050D01*
X84256410Y-71856090D01*
X84256404Y-71856085D01*
X84096452Y-71724816D01*
X83913954Y-71627268D01*
X83715934Y-71567199D01*
X83715929Y-71567198D01*
X83510003Y-71546917D01*
X83509997Y-71546917D01*
X83304070Y-71567198D01*
X83304065Y-71567199D01*
X83106045Y-71627268D01*
X82923547Y-71724816D01*
X82763595Y-71856085D01*
X82763585Y-71856095D01*
X82632316Y-72016047D01*
X82534768Y-72198545D01*
X82474699Y-72396565D01*
X82474698Y-72396570D01*
X82454417Y-72602496D01*
X82454417Y-72602503D01*
X72700500Y-72602503D01*
X72700500Y-70062503D01*
X82454417Y-70062503D01*
X82474698Y-70268429D01*
X82474699Y-70268434D01*
X82534768Y-70466454D01*
X82632316Y-70648952D01*
X82763585Y-70808904D01*
X82763590Y-70808910D01*
X82763595Y-70808914D01*
X82923547Y-70940183D01*
X82923548Y-70940183D01*
X82923550Y-70940185D01*
X83106046Y-71037732D01*
X83243997Y-71079578D01*
X83304065Y-71097800D01*
X83304070Y-71097801D01*
X83509997Y-71118083D01*
X83510000Y-71118083D01*
X83510003Y-71118083D01*
X83715929Y-71097801D01*
X83715934Y-71097800D01*
X83913954Y-71037732D01*
X84096450Y-70940185D01*
X84256410Y-70808910D01*
X84387685Y-70648950D01*
X84485232Y-70466454D01*
X84545300Y-70268434D01*
X84545301Y-70268429D01*
X84565583Y-70062503D01*
X84565583Y-70062496D01*
X84545301Y-69856570D01*
X84545300Y-69856565D01*
X84527078Y-69796497D01*
X84485232Y-69658546D01*
X84387685Y-69476050D01*
X84256410Y-69316090D01*
X84256404Y-69316085D01*
X84096452Y-69184816D01*
X83913954Y-69087268D01*
X83715934Y-69027199D01*
X83715929Y-69027198D01*
X83510003Y-69006917D01*
X83509997Y-69006917D01*
X83304070Y-69027198D01*
X83304065Y-69027199D01*
X83106045Y-69087268D01*
X82923547Y-69184816D01*
X82763595Y-69316085D01*
X82763585Y-69316095D01*
X82632316Y-69476047D01*
X82534768Y-69658545D01*
X82474699Y-69856565D01*
X82474698Y-69856570D01*
X82454417Y-70062496D01*
X82454417Y-70062503D01*
X72700500Y-70062503D01*
X72700500Y-67522503D01*
X82454417Y-67522503D01*
X82474698Y-67728429D01*
X82474699Y-67728434D01*
X82534768Y-67926454D01*
X82632316Y-68108952D01*
X82763585Y-68268904D01*
X82763590Y-68268910D01*
X82763595Y-68268914D01*
X82923547Y-68400183D01*
X82923548Y-68400183D01*
X82923550Y-68400185D01*
X83106046Y-68497732D01*
X83243997Y-68539578D01*
X83304065Y-68557800D01*
X83304070Y-68557801D01*
X83509997Y-68578083D01*
X83510000Y-68578083D01*
X83510003Y-68578083D01*
X83715929Y-68557801D01*
X83715934Y-68557800D01*
X83913954Y-68497732D01*
X84096450Y-68400185D01*
X84256410Y-68268910D01*
X84387685Y-68108950D01*
X84485232Y-67926454D01*
X84545300Y-67728434D01*
X84545301Y-67728429D01*
X84565583Y-67522503D01*
X84565583Y-67522496D01*
X84545301Y-67316570D01*
X84545300Y-67316565D01*
X84527078Y-67256497D01*
X84485232Y-67118546D01*
X84387685Y-66936050D01*
X84256410Y-66776090D01*
X84256404Y-66776085D01*
X84096452Y-66644816D01*
X83913954Y-66547268D01*
X83715934Y-66487199D01*
X83715929Y-66487198D01*
X83510003Y-66466917D01*
X83509997Y-66466917D01*
X83304070Y-66487198D01*
X83304065Y-66487199D01*
X83106045Y-66547268D01*
X82923547Y-66644816D01*
X82763595Y-66776085D01*
X82763585Y-66776095D01*
X82632316Y-66936047D01*
X82534768Y-67118545D01*
X82474699Y-67316565D01*
X82474698Y-67316570D01*
X82454417Y-67522496D01*
X82454417Y-67522503D01*
X72700500Y-67522503D01*
X72700500Y-64982503D01*
X82454417Y-64982503D01*
X82474698Y-65188429D01*
X82474699Y-65188434D01*
X82534768Y-65386454D01*
X82632316Y-65568952D01*
X82763585Y-65728904D01*
X82763590Y-65728910D01*
X82763595Y-65728914D01*
X82923547Y-65860183D01*
X82923548Y-65860183D01*
X82923550Y-65860185D01*
X83106046Y-65957732D01*
X83243997Y-65999578D01*
X83304065Y-66017800D01*
X83304070Y-66017801D01*
X83509997Y-66038083D01*
X83510000Y-66038083D01*
X83510003Y-66038083D01*
X83715929Y-66017801D01*
X83715934Y-66017800D01*
X83913954Y-65957732D01*
X84096450Y-65860185D01*
X84256410Y-65728910D01*
X84387685Y-65568950D01*
X84485232Y-65386454D01*
X84545300Y-65188434D01*
X84545301Y-65188429D01*
X84565583Y-64982503D01*
X100234417Y-64982503D01*
X100254698Y-65188429D01*
X100254699Y-65188434D01*
X100314768Y-65386454D01*
X100412316Y-65568952D01*
X100543585Y-65728904D01*
X100543590Y-65728910D01*
X100543595Y-65728914D01*
X100703547Y-65860183D01*
X100703548Y-65860183D01*
X100703550Y-65860185D01*
X100886046Y-65957732D01*
X101023997Y-65999578D01*
X101084065Y-66017800D01*
X101084070Y-66017801D01*
X101289997Y-66038083D01*
X101290000Y-66038083D01*
X101290003Y-66038083D01*
X101495929Y-66017801D01*
X101495934Y-66017800D01*
X101693954Y-65957732D01*
X101876450Y-65860185D01*
X102036410Y-65728910D01*
X102167685Y-65568950D01*
X102265232Y-65386454D01*
X102325300Y-65188434D01*
X102325301Y-65188429D01*
X102345583Y-64982503D01*
X102345583Y-64982496D01*
X102325301Y-64776570D01*
X102325300Y-64776565D01*
X102307078Y-64716497D01*
X102265232Y-64578546D01*
X102167685Y-64396050D01*
X102036410Y-64236090D01*
X102036404Y-64236085D01*
X101876452Y-64104816D01*
X101693954Y-64007268D01*
X101495934Y-63947199D01*
X101495929Y-63947198D01*
X101290003Y-63926917D01*
X101289997Y-63926917D01*
X101084070Y-63947198D01*
X101084065Y-63947199D01*
X100886045Y-64007268D01*
X100703547Y-64104816D01*
X100543595Y-64236085D01*
X100543585Y-64236095D01*
X100412316Y-64396047D01*
X100314768Y-64578545D01*
X100254699Y-64776565D01*
X100254698Y-64776570D01*
X100234417Y-64982496D01*
X100234417Y-64982503D01*
X84565583Y-64982503D01*
X84565583Y-64982496D01*
X84545301Y-64776570D01*
X84545300Y-64776565D01*
X84527078Y-64716497D01*
X84485232Y-64578546D01*
X84387685Y-64396050D01*
X84256410Y-64236090D01*
X84256404Y-64236085D01*
X84096452Y-64104816D01*
X83913954Y-64007268D01*
X83715934Y-63947199D01*
X83715929Y-63947198D01*
X83510003Y-63926917D01*
X83509997Y-63926917D01*
X83304070Y-63947198D01*
X83304065Y-63947199D01*
X83106045Y-64007268D01*
X82923547Y-64104816D01*
X82763595Y-64236085D01*
X82763585Y-64236095D01*
X82632316Y-64396047D01*
X82534768Y-64578545D01*
X82474699Y-64776565D01*
X82474698Y-64776570D01*
X82454417Y-64982496D01*
X82454417Y-64982503D01*
X72700500Y-64982503D01*
X72700500Y-46100000D01*
X78819534Y-46100000D01*
X78839313Y-46250236D01*
X78897302Y-46390233D01*
X78989549Y-46510451D01*
X79109767Y-46602698D01*
X79249764Y-46660687D01*
X79362441Y-46675521D01*
X79399999Y-46680466D01*
X79400000Y-46680466D01*
X79400001Y-46680466D01*
X79430047Y-46676510D01*
X79550236Y-46660687D01*
X79591270Y-46643689D01*
X79652264Y-46638889D01*
X79704433Y-46670858D01*
X79727849Y-46727385D01*
X79713566Y-46786880D01*
X79699158Y-46805158D01*
X79185118Y-47319198D01*
X79169265Y-47332071D01*
X79159335Y-47338559D01*
X79159332Y-47338561D01*
X79140548Y-47362695D01*
X79132437Y-47371880D01*
X79131627Y-47372689D01*
X79131619Y-47372698D01*
X79120133Y-47388786D01*
X79117690Y-47392063D01*
X79087482Y-47430874D01*
X79083981Y-47437343D01*
X79080759Y-47443934D01*
X79066718Y-47491096D01*
X79065470Y-47494990D01*
X79049500Y-47541510D01*
X79048293Y-47548743D01*
X79047383Y-47556047D01*
X79049415Y-47605175D01*
X79049500Y-47609266D01*
X79049500Y-61881949D01*
X79038710Y-61926893D01*
X79014355Y-61974691D01*
X79014354Y-61974696D01*
X78994508Y-62099999D01*
X78994508Y-62100000D01*
X79014354Y-62225303D01*
X79014355Y-62225307D01*
X79020092Y-62236566D01*
X79071950Y-62338342D01*
X79161658Y-62428050D01*
X79274696Y-62485646D01*
X79400000Y-62505492D01*
X79525304Y-62485646D01*
X79609977Y-62442503D01*
X82454417Y-62442503D01*
X82474698Y-62648429D01*
X82474699Y-62648434D01*
X82534768Y-62846454D01*
X82632316Y-63028952D01*
X82763585Y-63188904D01*
X82763590Y-63188910D01*
X82763595Y-63188914D01*
X82923547Y-63320183D01*
X82923548Y-63320183D01*
X82923550Y-63320185D01*
X83106046Y-63417732D01*
X83243997Y-63459578D01*
X83304065Y-63477800D01*
X83304070Y-63477801D01*
X83509997Y-63498083D01*
X83510000Y-63498083D01*
X83510003Y-63498083D01*
X83715929Y-63477801D01*
X83715934Y-63477800D01*
X83913954Y-63417732D01*
X84096450Y-63320185D01*
X84256410Y-63188910D01*
X84387685Y-63028950D01*
X84485232Y-62846454D01*
X84545300Y-62648434D01*
X84545301Y-62648429D01*
X84565583Y-62442503D01*
X84565583Y-62442496D01*
X84545301Y-62236570D01*
X84545300Y-62236565D01*
X84527078Y-62176497D01*
X84485232Y-62038546D01*
X84387685Y-61856050D01*
X84256410Y-61696090D01*
X84256404Y-61696085D01*
X84096452Y-61564816D01*
X83913954Y-61467268D01*
X83715934Y-61407199D01*
X83715929Y-61407198D01*
X83510003Y-61386917D01*
X83509997Y-61386917D01*
X83304070Y-61407198D01*
X83304065Y-61407199D01*
X83106045Y-61467268D01*
X82923547Y-61564816D01*
X82763595Y-61696085D01*
X82763585Y-61696095D01*
X82632316Y-61856047D01*
X82534768Y-62038545D01*
X82474699Y-62236565D01*
X82474698Y-62236570D01*
X82454417Y-62442496D01*
X82454417Y-62442503D01*
X79609977Y-62442503D01*
X79638342Y-62428050D01*
X79728050Y-62338342D01*
X79785646Y-62225304D01*
X79805492Y-62100000D01*
X79785646Y-61974696D01*
X79785644Y-61974692D01*
X79785644Y-61974691D01*
X79761290Y-61926893D01*
X79750500Y-61881949D01*
X79750500Y-59902503D01*
X82454417Y-59902503D01*
X82474698Y-60108429D01*
X82474699Y-60108434D01*
X82534768Y-60306454D01*
X82632316Y-60488952D01*
X82763585Y-60648904D01*
X82763590Y-60648910D01*
X82763595Y-60648914D01*
X82923547Y-60780183D01*
X82923548Y-60780183D01*
X82923550Y-60780185D01*
X83106046Y-60877732D01*
X83243997Y-60919578D01*
X83304065Y-60937800D01*
X83304070Y-60937801D01*
X83509997Y-60958083D01*
X83510000Y-60958083D01*
X83510003Y-60958083D01*
X83715929Y-60937801D01*
X83715934Y-60937800D01*
X83913954Y-60877732D01*
X84096450Y-60780185D01*
X84256410Y-60648910D01*
X84387685Y-60488950D01*
X84485232Y-60306454D01*
X84545300Y-60108434D01*
X84545301Y-60108429D01*
X84565583Y-59902503D01*
X84565583Y-59902496D01*
X84545301Y-59696570D01*
X84545300Y-59696565D01*
X84527078Y-59636497D01*
X84485232Y-59498546D01*
X84387685Y-59316050D01*
X84256410Y-59156090D01*
X84256404Y-59156085D01*
X84096452Y-59024816D01*
X83913954Y-58927268D01*
X83715934Y-58867199D01*
X83715929Y-58867198D01*
X83510003Y-58846917D01*
X83509997Y-58846917D01*
X83304070Y-58867198D01*
X83304065Y-58867199D01*
X83106045Y-58927268D01*
X82923547Y-59024816D01*
X82763595Y-59156085D01*
X82763585Y-59156095D01*
X82632316Y-59316047D01*
X82534768Y-59498545D01*
X82474699Y-59696565D01*
X82474698Y-59696570D01*
X82454417Y-59902496D01*
X82454417Y-59902503D01*
X79750500Y-59902503D01*
X79750500Y-57362503D01*
X82454417Y-57362503D01*
X82474698Y-57568429D01*
X82474699Y-57568434D01*
X82534768Y-57766454D01*
X82632316Y-57948952D01*
X82763585Y-58108904D01*
X82763590Y-58108910D01*
X82763595Y-58108914D01*
X82923547Y-58240183D01*
X82923548Y-58240183D01*
X82923550Y-58240185D01*
X83106046Y-58337732D01*
X83243997Y-58379578D01*
X83304065Y-58397800D01*
X83304070Y-58397801D01*
X83509997Y-58418083D01*
X83510000Y-58418083D01*
X83510003Y-58418083D01*
X83715929Y-58397801D01*
X83715934Y-58397800D01*
X83913954Y-58337732D01*
X84096450Y-58240185D01*
X84256410Y-58108910D01*
X84387685Y-57948950D01*
X84485232Y-57766454D01*
X84545300Y-57568434D01*
X84545301Y-57568429D01*
X84565583Y-57362503D01*
X84565583Y-57362496D01*
X84545301Y-57156570D01*
X84545300Y-57156565D01*
X84525806Y-57092303D01*
X84485232Y-56958546D01*
X84387685Y-56776050D01*
X84365895Y-56749499D01*
X84256414Y-56616095D01*
X84256410Y-56616090D01*
X84213037Y-56580495D01*
X84096452Y-56484816D01*
X83913954Y-56387268D01*
X83715934Y-56327199D01*
X83715929Y-56327198D01*
X83510003Y-56306917D01*
X83509997Y-56306917D01*
X83304070Y-56327198D01*
X83304065Y-56327199D01*
X83106045Y-56387268D01*
X82923547Y-56484816D01*
X82763595Y-56616085D01*
X82763585Y-56616095D01*
X82632316Y-56776047D01*
X82534768Y-56958545D01*
X82474699Y-57156565D01*
X82474698Y-57156570D01*
X82454417Y-57362496D01*
X82454417Y-57362503D01*
X79750500Y-57362503D01*
X79750500Y-54822503D01*
X82454417Y-54822503D01*
X82474698Y-55028429D01*
X82474699Y-55028434D01*
X82534768Y-55226454D01*
X82632316Y-55408952D01*
X82763585Y-55568904D01*
X82763590Y-55568910D01*
X82763595Y-55568914D01*
X82923547Y-55700183D01*
X82923548Y-55700183D01*
X82923550Y-55700185D01*
X83106046Y-55797732D01*
X83243997Y-55839578D01*
X83304065Y-55857800D01*
X83304070Y-55857801D01*
X83509997Y-55878083D01*
X83510000Y-55878083D01*
X83510003Y-55878083D01*
X83715929Y-55857801D01*
X83715934Y-55857800D01*
X83913954Y-55797732D01*
X84096450Y-55700185D01*
X84256410Y-55568910D01*
X84387685Y-55408950D01*
X84485232Y-55226454D01*
X84545300Y-55028434D01*
X84545301Y-55028429D01*
X84565583Y-54822503D01*
X84565583Y-54822496D01*
X84545301Y-54616570D01*
X84545300Y-54616565D01*
X84527078Y-54556497D01*
X84485232Y-54418546D01*
X84387685Y-54236050D01*
X84256410Y-54076090D01*
X84256404Y-54076085D01*
X84096452Y-53944816D01*
X83913954Y-53847268D01*
X83715934Y-53787199D01*
X83715929Y-53787198D01*
X83510003Y-53766917D01*
X83509997Y-53766917D01*
X83304070Y-53787198D01*
X83304065Y-53787199D01*
X83106045Y-53847268D01*
X82923547Y-53944816D01*
X82763595Y-54076085D01*
X82763585Y-54076095D01*
X82632316Y-54236047D01*
X82534768Y-54418545D01*
X82474699Y-54616565D01*
X82474698Y-54616570D01*
X82454417Y-54822496D01*
X82454417Y-54822503D01*
X79750500Y-54822503D01*
X79750500Y-52282503D01*
X82454417Y-52282503D01*
X82474698Y-52488429D01*
X82474699Y-52488434D01*
X82534768Y-52686454D01*
X82632316Y-52868952D01*
X82763585Y-53028904D01*
X82763590Y-53028910D01*
X82763595Y-53028914D01*
X82923547Y-53160183D01*
X82923548Y-53160183D01*
X82923550Y-53160185D01*
X83106046Y-53257732D01*
X83243997Y-53299578D01*
X83304065Y-53317800D01*
X83304070Y-53317801D01*
X83509997Y-53338083D01*
X83510000Y-53338083D01*
X83510003Y-53338083D01*
X83715929Y-53317801D01*
X83715934Y-53317800D01*
X83913954Y-53257732D01*
X84096450Y-53160185D01*
X84256410Y-53028910D01*
X84387685Y-52868950D01*
X84485232Y-52686454D01*
X84545300Y-52488434D01*
X84545301Y-52488429D01*
X84565583Y-52282503D01*
X100234417Y-52282503D01*
X100254698Y-52488429D01*
X100254699Y-52488434D01*
X100314768Y-52686454D01*
X100412316Y-52868952D01*
X100543585Y-53028904D01*
X100543590Y-53028910D01*
X100543595Y-53028914D01*
X100703547Y-53160183D01*
X100703548Y-53160183D01*
X100703550Y-53160185D01*
X100886046Y-53257732D01*
X101023997Y-53299578D01*
X101084065Y-53317800D01*
X101084070Y-53317801D01*
X101289997Y-53338083D01*
X101290000Y-53338083D01*
X101290003Y-53338083D01*
X101495929Y-53317801D01*
X101495934Y-53317800D01*
X101693954Y-53257732D01*
X101876450Y-53160185D01*
X102036410Y-53028910D01*
X102167685Y-52868950D01*
X102265232Y-52686454D01*
X102325300Y-52488434D01*
X102325301Y-52488429D01*
X102345583Y-52282503D01*
X102345583Y-52282496D01*
X102325301Y-52076570D01*
X102325300Y-52076565D01*
X102307078Y-52016497D01*
X102265232Y-51878546D01*
X102167685Y-51696050D01*
X102036410Y-51536090D01*
X102036404Y-51536085D01*
X101876452Y-51404816D01*
X101693954Y-51307268D01*
X101495934Y-51247199D01*
X101495929Y-51247198D01*
X101290003Y-51226917D01*
X101289997Y-51226917D01*
X101084070Y-51247198D01*
X101084065Y-51247199D01*
X100886045Y-51307268D01*
X100703547Y-51404816D01*
X100543595Y-51536085D01*
X100543585Y-51536095D01*
X100412316Y-51696047D01*
X100314768Y-51878545D01*
X100254699Y-52076565D01*
X100254698Y-52076570D01*
X100234417Y-52282496D01*
X100234417Y-52282503D01*
X84565583Y-52282503D01*
X84565583Y-52282496D01*
X84545301Y-52076570D01*
X84545300Y-52076565D01*
X84527078Y-52016497D01*
X84485232Y-51878546D01*
X84387685Y-51696050D01*
X84256410Y-51536090D01*
X84256404Y-51536085D01*
X84096452Y-51404816D01*
X83913954Y-51307268D01*
X83715934Y-51247199D01*
X83715929Y-51247198D01*
X83510003Y-51226917D01*
X83509997Y-51226917D01*
X83304070Y-51247198D01*
X83304065Y-51247199D01*
X83106045Y-51307268D01*
X82923547Y-51404816D01*
X82763595Y-51536085D01*
X82763585Y-51536095D01*
X82632316Y-51696047D01*
X82534768Y-51878545D01*
X82474699Y-52076565D01*
X82474698Y-52076570D01*
X82454417Y-52282496D01*
X82454417Y-52282503D01*
X79750500Y-52282503D01*
X79750500Y-49742503D01*
X82454417Y-49742503D01*
X82474698Y-49948429D01*
X82474699Y-49948434D01*
X82534768Y-50146454D01*
X82632316Y-50328952D01*
X82763585Y-50488904D01*
X82763590Y-50488910D01*
X82763595Y-50488914D01*
X82923547Y-50620183D01*
X82923548Y-50620183D01*
X82923550Y-50620185D01*
X83106046Y-50717732D01*
X83243997Y-50759578D01*
X83304065Y-50777800D01*
X83304070Y-50777801D01*
X83509997Y-50798083D01*
X83510000Y-50798083D01*
X83510003Y-50798083D01*
X83715929Y-50777801D01*
X83715934Y-50777800D01*
X83913954Y-50717732D01*
X84096450Y-50620185D01*
X84256410Y-50488910D01*
X84387685Y-50328950D01*
X84485232Y-50146454D01*
X84545300Y-49948434D01*
X84545301Y-49948429D01*
X84565583Y-49742503D01*
X84565583Y-49742496D01*
X84545301Y-49536570D01*
X84545300Y-49536565D01*
X84527078Y-49476497D01*
X84485232Y-49338546D01*
X84387685Y-49156050D01*
X84256410Y-48996090D01*
X84256404Y-48996085D01*
X84096452Y-48864816D01*
X83913954Y-48767268D01*
X83715934Y-48707199D01*
X83715929Y-48707198D01*
X83510003Y-48686917D01*
X83509997Y-48686917D01*
X83304070Y-48707198D01*
X83304065Y-48707199D01*
X83106045Y-48767268D01*
X82923547Y-48864816D01*
X82763595Y-48996085D01*
X82763585Y-48996095D01*
X82632316Y-49156047D01*
X82534768Y-49338545D01*
X82474699Y-49536565D01*
X82474698Y-49536570D01*
X82454417Y-49742496D01*
X82454417Y-49742503D01*
X79750500Y-49742503D01*
X79750500Y-47786190D01*
X79769407Y-47727999D01*
X79779496Y-47716186D01*
X80293179Y-47202503D01*
X82454417Y-47202503D01*
X82474698Y-47408429D01*
X82474699Y-47408434D01*
X82534768Y-47606454D01*
X82632316Y-47788952D01*
X82763585Y-47948904D01*
X82763590Y-47948910D01*
X82763595Y-47948914D01*
X82923547Y-48080183D01*
X82923548Y-48080183D01*
X82923550Y-48080185D01*
X83106046Y-48177732D01*
X83243997Y-48219578D01*
X83304065Y-48237800D01*
X83304070Y-48237801D01*
X83509997Y-48258083D01*
X83510000Y-48258083D01*
X83510003Y-48258083D01*
X83715929Y-48237801D01*
X83715934Y-48237800D01*
X83913954Y-48177732D01*
X84096450Y-48080185D01*
X84256410Y-47948910D01*
X84387685Y-47788950D01*
X84485232Y-47606454D01*
X84545300Y-47408434D01*
X84545301Y-47408429D01*
X84565583Y-47202503D01*
X84565583Y-47202496D01*
X84545301Y-46996570D01*
X84545300Y-46996565D01*
X84527078Y-46936497D01*
X84485232Y-46798546D01*
X84387685Y-46616050D01*
X84376727Y-46602698D01*
X84256414Y-46456095D01*
X84256410Y-46456090D01*
X84256404Y-46456085D01*
X84096452Y-46324816D01*
X83913954Y-46227268D01*
X83715934Y-46167199D01*
X83715929Y-46167198D01*
X83510003Y-46146917D01*
X83509997Y-46146917D01*
X83304070Y-46167198D01*
X83304065Y-46167199D01*
X83106045Y-46227268D01*
X82923547Y-46324816D01*
X82763595Y-46456085D01*
X82763585Y-46456095D01*
X82632316Y-46616047D01*
X82534768Y-46798545D01*
X82474699Y-46996565D01*
X82474698Y-46996570D01*
X82454417Y-47202496D01*
X82454417Y-47202503D01*
X80293179Y-47202503D01*
X85016186Y-42479496D01*
X85070703Y-42451719D01*
X85086190Y-42450500D01*
X104353381Y-42450500D01*
X104373696Y-42452607D01*
X104375606Y-42453007D01*
X104385315Y-42455043D01*
X104415662Y-42451259D01*
X104427907Y-42450500D01*
X104429043Y-42450500D01*
X104448521Y-42447249D01*
X104452552Y-42446661D01*
X104501393Y-42440573D01*
X104501396Y-42440571D01*
X104508429Y-42438477D01*
X104515375Y-42436092D01*
X104515381Y-42436092D01*
X104558655Y-42412671D01*
X104562279Y-42410807D01*
X104606482Y-42389199D01*
X104606482Y-42389198D01*
X104606484Y-42389198D01*
X104606485Y-42389196D01*
X104612470Y-42384923D01*
X104618255Y-42380420D01*
X104618255Y-42380419D01*
X104618258Y-42380418D01*
X104651579Y-42344220D01*
X104654364Y-42341316D01*
X109485881Y-37509798D01*
X109518638Y-37489727D01*
X109518361Y-37489183D01*
X109525286Y-37485654D01*
X109525298Y-37485646D01*
X109525304Y-37485646D01*
X109638342Y-37428050D01*
X109728050Y-37338342D01*
X109785646Y-37225304D01*
X109805492Y-37100000D01*
X109785646Y-36974696D01*
X109728050Y-36861658D01*
X109638342Y-36771950D01*
X109585128Y-36744836D01*
X109525307Y-36714355D01*
X109525304Y-36714354D01*
X109400000Y-36694508D01*
X109274696Y-36714354D01*
X109274692Y-36714355D01*
X109161659Y-36771949D01*
X109071948Y-36861660D01*
X109014354Y-36974695D01*
X109014347Y-36974717D01*
X109014322Y-36974756D01*
X109010817Y-36981637D01*
X109010275Y-36981360D01*
X108990200Y-37014116D01*
X104283814Y-41720504D01*
X104229297Y-41748281D01*
X104213810Y-41749500D01*
X84946619Y-41749500D01*
X84926304Y-41747393D01*
X84914685Y-41744957D01*
X84895144Y-41747393D01*
X84884338Y-41748740D01*
X84872093Y-41749500D01*
X84870960Y-41749500D01*
X84851482Y-41752750D01*
X84847436Y-41753339D01*
X84798613Y-41759425D01*
X84791538Y-41761532D01*
X84784624Y-41763906D01*
X84784620Y-41763907D01*
X84784619Y-41763908D01*
X84741339Y-41787329D01*
X84737715Y-41789194D01*
X84693521Y-41810799D01*
X84687534Y-41815073D01*
X84681742Y-41819582D01*
X84648420Y-41855777D01*
X84645590Y-41858727D01*
X80105158Y-46399158D01*
X80050641Y-46426935D01*
X79990209Y-46417364D01*
X79946944Y-46374099D01*
X79937373Y-46313667D01*
X79943687Y-46291276D01*
X79960687Y-46250236D01*
X79980466Y-46100000D01*
X79960687Y-45949764D01*
X79902698Y-45809767D01*
X79810451Y-45689549D01*
X79690233Y-45597302D01*
X79550236Y-45539313D01*
X79550234Y-45539312D01*
X79550232Y-45539312D01*
X79400001Y-45519534D01*
X79399999Y-45519534D01*
X79249767Y-45539312D01*
X79249761Y-45539314D01*
X79109768Y-45597301D01*
X78989551Y-45689547D01*
X78989547Y-45689551D01*
X78897301Y-45809768D01*
X78839314Y-45949761D01*
X78839312Y-45949767D01*
X78819534Y-46099999D01*
X78819534Y-46100000D01*
X72700500Y-46100000D01*
X72700500Y-40600000D01*
X74819534Y-40600000D01*
X74839313Y-40750236D01*
X74897302Y-40890233D01*
X74989549Y-41010451D01*
X75109767Y-41102698D01*
X75249764Y-41160687D01*
X75362441Y-41175521D01*
X75399999Y-41180466D01*
X75400000Y-41180466D01*
X75400001Y-41180466D01*
X75430047Y-41176510D01*
X75550236Y-41160687D01*
X75690233Y-41102698D01*
X75810451Y-41010451D01*
X75902698Y-40890233D01*
X75960687Y-40750236D01*
X75980466Y-40600000D01*
X75960687Y-40449764D01*
X75902698Y-40309767D01*
X75810451Y-40189549D01*
X75690233Y-40097302D01*
X75550236Y-40039313D01*
X75550234Y-40039312D01*
X75550232Y-40039312D01*
X75400001Y-40019534D01*
X75399999Y-40019534D01*
X75249767Y-40039312D01*
X75249761Y-40039314D01*
X75109768Y-40097301D01*
X74989551Y-40189547D01*
X74989547Y-40189551D01*
X74897301Y-40309768D01*
X74839314Y-40449761D01*
X74839312Y-40449767D01*
X74819534Y-40599999D01*
X74819534Y-40600000D01*
X72700500Y-40600000D01*
X72700500Y-37472500D01*
X86874892Y-37472500D01*
X86893283Y-37670970D01*
X86922342Y-37773102D01*
X86947829Y-37862680D01*
X87036674Y-38041104D01*
X87156791Y-38200164D01*
X87304090Y-38334445D01*
X87473554Y-38439373D01*
X87659414Y-38511376D01*
X87855340Y-38548000D01*
X88054660Y-38548000D01*
X88250586Y-38511376D01*
X88436446Y-38439373D01*
X88605910Y-38334445D01*
X88753209Y-38200164D01*
X88873326Y-38041104D01*
X88962171Y-37862680D01*
X89016717Y-37670969D01*
X89035108Y-37472500D01*
X89414892Y-37472500D01*
X89433283Y-37670970D01*
X89462342Y-37773102D01*
X89487829Y-37862680D01*
X89576674Y-38041104D01*
X89696791Y-38200164D01*
X89844090Y-38334445D01*
X90013554Y-38439373D01*
X90199414Y-38511376D01*
X90395340Y-38548000D01*
X90594660Y-38548000D01*
X90790586Y-38511376D01*
X90976446Y-38439373D01*
X91145910Y-38334445D01*
X91293209Y-38200164D01*
X91413326Y-38041104D01*
X91502171Y-37862680D01*
X91556717Y-37670969D01*
X91575108Y-37472500D01*
X91954892Y-37472500D01*
X91973283Y-37670970D01*
X92002342Y-37773102D01*
X92027829Y-37862680D01*
X92116674Y-38041104D01*
X92236791Y-38200164D01*
X92384090Y-38334445D01*
X92553554Y-38439373D01*
X92739414Y-38511376D01*
X92935340Y-38548000D01*
X93134660Y-38548000D01*
X93330586Y-38511376D01*
X93516446Y-38439373D01*
X93685910Y-38334445D01*
X93833209Y-38200164D01*
X93953326Y-38041104D01*
X94042171Y-37862680D01*
X94096717Y-37670969D01*
X94115108Y-37472500D01*
X94494892Y-37472500D01*
X94513283Y-37670970D01*
X94542342Y-37773102D01*
X94567829Y-37862680D01*
X94656674Y-38041104D01*
X94776791Y-38200164D01*
X94924090Y-38334445D01*
X95093554Y-38439373D01*
X95279414Y-38511376D01*
X95475340Y-38548000D01*
X95674660Y-38548000D01*
X95870586Y-38511376D01*
X96056446Y-38439373D01*
X96225910Y-38334445D01*
X96373209Y-38200164D01*
X96493326Y-38041104D01*
X96582171Y-37862680D01*
X96636717Y-37670969D01*
X96655108Y-37472500D01*
X96636717Y-37274031D01*
X96582171Y-37082320D01*
X96493326Y-36903896D01*
X96373209Y-36744836D01*
X96225910Y-36610555D01*
X96056446Y-36505627D01*
X95870586Y-36433624D01*
X95870585Y-36433623D01*
X95870583Y-36433623D01*
X95674660Y-36397000D01*
X95475340Y-36397000D01*
X95279416Y-36433623D01*
X95093553Y-36505627D01*
X95093548Y-36505630D01*
X94924094Y-36610552D01*
X94924092Y-36610553D01*
X94924090Y-36610555D01*
X94831998Y-36694508D01*
X94776789Y-36744838D01*
X94656680Y-36903887D01*
X94656670Y-36903903D01*
X94567829Y-37082319D01*
X94513283Y-37274029D01*
X94494892Y-37472500D01*
X94115108Y-37472500D01*
X94096717Y-37274031D01*
X94042171Y-37082320D01*
X93953326Y-36903896D01*
X93833209Y-36744836D01*
X93685910Y-36610555D01*
X93516446Y-36505627D01*
X93330586Y-36433624D01*
X93330585Y-36433623D01*
X93330583Y-36433623D01*
X93134660Y-36397000D01*
X92935340Y-36397000D01*
X92739416Y-36433623D01*
X92553553Y-36505627D01*
X92553548Y-36505630D01*
X92384094Y-36610552D01*
X92384092Y-36610553D01*
X92384090Y-36610555D01*
X92291998Y-36694508D01*
X92236789Y-36744838D01*
X92116680Y-36903887D01*
X92116670Y-36903903D01*
X92027829Y-37082319D01*
X91973283Y-37274029D01*
X91954892Y-37472500D01*
X91575108Y-37472500D01*
X91556717Y-37274031D01*
X91502171Y-37082320D01*
X91413326Y-36903896D01*
X91293209Y-36744836D01*
X91145910Y-36610555D01*
X90976446Y-36505627D01*
X90790586Y-36433624D01*
X90790585Y-36433623D01*
X90790583Y-36433623D01*
X90594660Y-36397000D01*
X90395340Y-36397000D01*
X90199416Y-36433623D01*
X90013553Y-36505627D01*
X90013548Y-36505630D01*
X89844094Y-36610552D01*
X89844092Y-36610553D01*
X89844090Y-36610555D01*
X89751998Y-36694508D01*
X89696789Y-36744838D01*
X89576680Y-36903887D01*
X89576670Y-36903903D01*
X89487829Y-37082319D01*
X89433283Y-37274029D01*
X89414892Y-37472500D01*
X89035108Y-37472500D01*
X89016717Y-37274031D01*
X88962171Y-37082320D01*
X88873326Y-36903896D01*
X88753209Y-36744836D01*
X88605910Y-36610555D01*
X88436446Y-36505627D01*
X88250586Y-36433624D01*
X88250585Y-36433623D01*
X88250583Y-36433623D01*
X88054660Y-36397000D01*
X87855340Y-36397000D01*
X87659416Y-36433623D01*
X87473553Y-36505627D01*
X87473548Y-36505630D01*
X87304094Y-36610552D01*
X87304092Y-36610553D01*
X87304090Y-36610555D01*
X87211998Y-36694508D01*
X87156789Y-36744838D01*
X87036680Y-36903887D01*
X87036670Y-36903903D01*
X86947829Y-37082319D01*
X86893283Y-37274029D01*
X86874892Y-37472500D01*
X72700500Y-37472500D01*
X72700500Y-34932500D01*
X88144892Y-34932500D01*
X88163283Y-35130969D01*
X88217829Y-35322680D01*
X88306674Y-35501104D01*
X88426791Y-35660164D01*
X88574090Y-35794445D01*
X88743554Y-35899373D01*
X88929414Y-35971376D01*
X89125340Y-36008000D01*
X89324660Y-36008000D01*
X89520586Y-35971376D01*
X89706446Y-35899373D01*
X89875910Y-35794445D01*
X90023209Y-35660164D01*
X90143326Y-35501104D01*
X90232171Y-35322680D01*
X90286717Y-35130969D01*
X90305108Y-34932500D01*
X90684892Y-34932500D01*
X90703283Y-35130969D01*
X90757829Y-35322680D01*
X90846674Y-35501104D01*
X90966791Y-35660164D01*
X91114090Y-35794445D01*
X91283554Y-35899373D01*
X91469414Y-35971376D01*
X91665340Y-36008000D01*
X91864660Y-36008000D01*
X92060586Y-35971376D01*
X92246446Y-35899373D01*
X92415910Y-35794445D01*
X92563209Y-35660164D01*
X92683326Y-35501104D01*
X92772171Y-35322680D01*
X92826717Y-35130969D01*
X92845108Y-34932500D01*
X93224892Y-34932500D01*
X93243283Y-35130969D01*
X93297829Y-35322680D01*
X93386674Y-35501104D01*
X93506791Y-35660164D01*
X93654090Y-35794445D01*
X93823554Y-35899373D01*
X94009414Y-35971376D01*
X94205340Y-36008000D01*
X94404660Y-36008000D01*
X94600586Y-35971376D01*
X94786446Y-35899373D01*
X94955910Y-35794445D01*
X95103209Y-35660164D01*
X95223326Y-35501104D01*
X95312171Y-35322680D01*
X95366717Y-35130969D01*
X95385108Y-34932500D01*
X95764892Y-34932500D01*
X95783283Y-35130969D01*
X95837829Y-35322680D01*
X95926674Y-35501104D01*
X96046791Y-35660164D01*
X96194090Y-35794445D01*
X96363554Y-35899373D01*
X96549414Y-35971376D01*
X96745340Y-36008000D01*
X96944660Y-36008000D01*
X97140586Y-35971376D01*
X97326446Y-35899373D01*
X97495910Y-35794445D01*
X97643209Y-35660164D01*
X97763326Y-35501104D01*
X97852171Y-35322680D01*
X97906717Y-35130969D01*
X97925108Y-34932500D01*
X97906717Y-34734031D01*
X97852171Y-34542320D01*
X97763326Y-34363896D01*
X97643209Y-34204836D01*
X97495910Y-34070555D01*
X97326446Y-33965627D01*
X97140586Y-33893624D01*
X97140585Y-33893623D01*
X97140583Y-33893623D01*
X96944660Y-33857000D01*
X96745340Y-33857000D01*
X96549416Y-33893623D01*
X96363553Y-33965627D01*
X96363548Y-33965630D01*
X96194094Y-34070552D01*
X96194092Y-34070553D01*
X96194090Y-34070555D01*
X96046791Y-34204836D01*
X96046789Y-34204838D01*
X95926680Y-34363887D01*
X95926670Y-34363903D01*
X95837829Y-34542319D01*
X95783283Y-34734029D01*
X95783283Y-34734031D01*
X95764892Y-34932500D01*
X95385108Y-34932500D01*
X95366717Y-34734031D01*
X95312171Y-34542320D01*
X95223326Y-34363896D01*
X95103209Y-34204836D01*
X94955910Y-34070555D01*
X94786446Y-33965627D01*
X94600586Y-33893624D01*
X94600585Y-33893623D01*
X94600583Y-33893623D01*
X94404660Y-33857000D01*
X94205340Y-33857000D01*
X94009416Y-33893623D01*
X93823553Y-33965627D01*
X93823548Y-33965630D01*
X93654094Y-34070552D01*
X93654092Y-34070553D01*
X93654090Y-34070555D01*
X93506791Y-34204836D01*
X93506789Y-34204838D01*
X93386680Y-34363887D01*
X93386670Y-34363903D01*
X93297829Y-34542319D01*
X93243283Y-34734029D01*
X93243283Y-34734031D01*
X93224892Y-34932500D01*
X92845108Y-34932500D01*
X92826717Y-34734031D01*
X92772171Y-34542320D01*
X92683326Y-34363896D01*
X92563209Y-34204836D01*
X92415910Y-34070555D01*
X92246446Y-33965627D01*
X92060586Y-33893624D01*
X92060585Y-33893623D01*
X92060583Y-33893623D01*
X91864660Y-33857000D01*
X91665340Y-33857000D01*
X91469416Y-33893623D01*
X91283553Y-33965627D01*
X91283548Y-33965630D01*
X91114094Y-34070552D01*
X91114092Y-34070553D01*
X91114090Y-34070555D01*
X90966791Y-34204836D01*
X90966789Y-34204838D01*
X90846680Y-34363887D01*
X90846670Y-34363903D01*
X90757829Y-34542319D01*
X90703283Y-34734029D01*
X90703283Y-34734031D01*
X90684892Y-34932500D01*
X90305108Y-34932500D01*
X90286717Y-34734031D01*
X90232171Y-34542320D01*
X90143326Y-34363896D01*
X90023209Y-34204836D01*
X89875910Y-34070555D01*
X89706446Y-33965627D01*
X89520586Y-33893624D01*
X89520585Y-33893623D01*
X89520583Y-33893623D01*
X89324660Y-33857000D01*
X89125340Y-33857000D01*
X88929416Y-33893623D01*
X88743553Y-33965627D01*
X88743548Y-33965630D01*
X88574094Y-34070552D01*
X88574092Y-34070553D01*
X88574090Y-34070555D01*
X88426791Y-34204836D01*
X88426789Y-34204838D01*
X88306680Y-34363887D01*
X88306670Y-34363903D01*
X88217829Y-34542319D01*
X88163283Y-34734029D01*
X88163283Y-34734031D01*
X88144892Y-34932500D01*
X72700500Y-34932500D01*
X72700500Y-31612503D01*
X83194439Y-31612503D01*
X83214651Y-31843542D01*
X83214652Y-31843549D01*
X83214653Y-31843550D01*
X83274682Y-32067579D01*
X83366094Y-32263615D01*
X83372700Y-32277780D01*
X83493126Y-32449767D01*
X83505732Y-32467769D01*
X83669733Y-32631770D01*
X83859720Y-32764801D01*
X84069923Y-32862820D01*
X84293952Y-32922849D01*
X84293956Y-32922849D01*
X84293959Y-32922850D01*
X84524999Y-32943063D01*
X84525002Y-32943063D01*
X84525005Y-32943063D01*
X84756044Y-32922850D01*
X84756045Y-32922849D01*
X84756052Y-32922849D01*
X84980081Y-32862820D01*
X85190284Y-32764801D01*
X85380271Y-32631770D01*
X85544272Y-32467769D01*
X85677303Y-32277782D01*
X85775322Y-32067579D01*
X85835351Y-31843550D01*
X85848336Y-31695135D01*
X85855565Y-31612503D01*
X85855565Y-31612496D01*
X85835352Y-31381457D01*
X85835351Y-31381454D01*
X85835351Y-31381450D01*
X85775322Y-31157421D01*
X85677303Y-30947219D01*
X85601862Y-30839478D01*
X85590029Y-30822578D01*
X85572140Y-30764066D01*
X85592060Y-30706214D01*
X85642181Y-30671120D01*
X85703357Y-30672188D01*
X85714905Y-30677001D01*
X85793154Y-30715589D01*
X85793157Y-30715591D01*
X86081818Y-30813578D01*
X86081820Y-30813578D01*
X86081825Y-30813580D01*
X86380810Y-30873052D01*
X86685000Y-30892990D01*
X86989190Y-30873052D01*
X87288175Y-30813580D01*
X87576840Y-30715592D01*
X87850245Y-30580764D01*
X88103712Y-30411402D01*
X88332905Y-30210405D01*
X88533902Y-29981212D01*
X88703264Y-29727745D01*
X88838092Y-29454340D01*
X88936080Y-29165675D01*
X88995552Y-28866690D01*
X89015490Y-28562500D01*
X95784510Y-28562500D01*
X95804447Y-28866687D01*
X95863921Y-29165681D01*
X95961908Y-29454342D01*
X95961910Y-29454346D01*
X96037858Y-29608352D01*
X96096736Y-29727745D01*
X96266098Y-29981212D01*
X96266101Y-29981215D01*
X96266105Y-29981221D01*
X96467086Y-30210395D01*
X96467095Y-30210405D01*
X96467103Y-30210412D01*
X96467104Y-30210413D01*
X96696278Y-30411394D01*
X96696282Y-30411397D01*
X96696288Y-30411402D01*
X96949755Y-30580764D01*
X97077795Y-30643906D01*
X97223153Y-30715589D01*
X97223157Y-30715591D01*
X97511818Y-30813578D01*
X97511820Y-30813578D01*
X97511825Y-30813580D01*
X97810810Y-30873052D01*
X98115000Y-30892990D01*
X98419190Y-30873052D01*
X98718175Y-30813580D01*
X99006840Y-30715592D01*
X99085090Y-30677003D01*
X99145638Y-30668224D01*
X99199787Y-30696712D01*
X99226849Y-30751587D01*
X99216488Y-30811889D01*
X99209971Y-30822577D01*
X99122695Y-30947221D01*
X99024678Y-31157422D01*
X98964647Y-31381457D01*
X98944435Y-31612496D01*
X98944435Y-31612503D01*
X98964647Y-31843542D01*
X98964648Y-31843549D01*
X98964649Y-31843550D01*
X99024678Y-32067579D01*
X99116090Y-32263615D01*
X99122696Y-32277780D01*
X99243122Y-32449767D01*
X99255728Y-32467769D01*
X99419729Y-32631770D01*
X99609716Y-32764801D01*
X99819919Y-32862820D01*
X100043948Y-32922849D01*
X100043952Y-32922849D01*
X100043955Y-32922850D01*
X100274995Y-32943063D01*
X100274998Y-32943063D01*
X100275001Y-32943063D01*
X100506040Y-32922850D01*
X100506041Y-32922849D01*
X100506048Y-32922849D01*
X100730077Y-32862820D01*
X100940280Y-32764801D01*
X101130267Y-32631770D01*
X101294268Y-32467769D01*
X101427299Y-32277782D01*
X101525318Y-32067579D01*
X101585347Y-31843550D01*
X101598332Y-31695135D01*
X101605561Y-31612503D01*
X101605561Y-31612496D01*
X101585348Y-31381457D01*
X101585347Y-31381454D01*
X101585347Y-31381450D01*
X101525318Y-31157421D01*
X101427299Y-30947219D01*
X101294268Y-30757231D01*
X101137037Y-30600000D01*
X108117531Y-30600000D01*
X108137374Y-30839478D01*
X108196365Y-31072428D01*
X108292892Y-31292488D01*
X108292895Y-31292493D01*
X108424324Y-31493660D01*
X108424327Y-31493663D01*
X108478531Y-31552544D01*
X108478532Y-31552545D01*
X108976156Y-31054919D01*
X109023256Y-31118185D01*
X109117040Y-31196879D01*
X108618785Y-31695135D01*
X108776703Y-31818048D01*
X108776706Y-31818050D01*
X108988042Y-31932420D01*
X109215329Y-32010447D01*
X109452350Y-32050000D01*
X109692650Y-32050000D01*
X109929670Y-32010447D01*
X110156957Y-31932420D01*
X110272768Y-31869746D01*
X113202000Y-31869746D01*
X113202001Y-31869758D01*
X113213632Y-31928227D01*
X113213633Y-31928231D01*
X113257948Y-31994552D01*
X113324269Y-32038867D01*
X113368731Y-32047711D01*
X113382741Y-32050498D01*
X113382746Y-32050498D01*
X113382752Y-32050500D01*
X113382753Y-32050500D01*
X115922247Y-32050500D01*
X115922248Y-32050500D01*
X115980731Y-32038867D01*
X116047052Y-31994552D01*
X116091367Y-31928231D01*
X116103000Y-31869748D01*
X116103000Y-29330252D01*
X116091367Y-29271769D01*
X116047052Y-29205448D01*
X116047048Y-29205445D01*
X115980733Y-29161134D01*
X115980731Y-29161133D01*
X115980728Y-29161132D01*
X115980727Y-29161132D01*
X115922258Y-29149501D01*
X115922248Y-29149500D01*
X113382752Y-29149500D01*
X113382751Y-29149500D01*
X113382741Y-29149501D01*
X113324272Y-29161132D01*
X113324266Y-29161134D01*
X113257951Y-29205445D01*
X113257945Y-29205451D01*
X113213634Y-29271766D01*
X113213632Y-29271772D01*
X113202001Y-29330241D01*
X113202000Y-29330253D01*
X113202000Y-31869746D01*
X110272768Y-31869746D01*
X110368291Y-31818051D01*
X110526212Y-31695134D01*
X110028706Y-31197628D01*
X110057873Y-31178445D01*
X110171708Y-31057786D01*
X110666466Y-31552544D01*
X110720678Y-31493654D01*
X110852104Y-31292493D01*
X110852107Y-31292488D01*
X110948634Y-31072428D01*
X111007625Y-30839478D01*
X111027468Y-30600000D01*
X111007625Y-30360521D01*
X110948634Y-30127571D01*
X110852107Y-29907511D01*
X110852104Y-29907506D01*
X110720675Y-29706339D01*
X110720672Y-29706336D01*
X110666467Y-29647454D01*
X110168842Y-30145078D01*
X110121744Y-30081815D01*
X110027958Y-30003118D01*
X110526213Y-29504864D01*
X110526213Y-29504863D01*
X110368296Y-29381951D01*
X110368293Y-29381949D01*
X110156957Y-29267579D01*
X109929670Y-29189552D01*
X109692650Y-29150000D01*
X109452350Y-29150000D01*
X109215329Y-29189552D01*
X108988042Y-29267579D01*
X108776706Y-29381949D01*
X108776703Y-29381951D01*
X108618785Y-29504863D01*
X109116293Y-30002372D01*
X109087127Y-30021555D01*
X108973291Y-30142213D01*
X108478532Y-29647454D01*
X108424321Y-29706344D01*
X108292895Y-29907506D01*
X108292892Y-29907511D01*
X108196365Y-30127571D01*
X108137374Y-30360521D01*
X108117531Y-30600000D01*
X101137037Y-30600000D01*
X101130267Y-30593230D01*
X101130263Y-30593227D01*
X101130262Y-30593226D01*
X100952673Y-30468877D01*
X100940280Y-30460199D01*
X100730077Y-30362180D01*
X100506048Y-30302151D01*
X100506047Y-30302150D01*
X100506040Y-30302149D01*
X100275001Y-30281937D01*
X100274995Y-30281937D01*
X100043955Y-30302149D01*
X99886643Y-30344301D01*
X99825541Y-30341098D01*
X99777991Y-30302593D01*
X99762156Y-30243492D01*
X99784083Y-30186371D01*
X99786550Y-30183442D01*
X99963902Y-29981212D01*
X100133264Y-29727745D01*
X100268092Y-29454340D01*
X100366080Y-29165675D01*
X100425552Y-28866690D01*
X100445490Y-28562500D01*
X100425552Y-28258310D01*
X100366080Y-27959325D01*
X100268092Y-27670660D01*
X100133264Y-27397255D01*
X99963902Y-27143788D01*
X99963897Y-27143782D01*
X99963894Y-27143778D01*
X99762913Y-26914604D01*
X99762912Y-26914603D01*
X99762905Y-26914595D01*
X99690468Y-26851069D01*
X99533721Y-26713605D01*
X99533715Y-26713601D01*
X99533712Y-26713598D01*
X99363701Y-26600000D01*
X123995006Y-26600000D01*
X124014965Y-26968143D01*
X124074614Y-27331979D01*
X124173242Y-27687206D01*
X124173246Y-27687217D01*
X124309711Y-28029721D01*
X124482403Y-28355453D01*
X124689306Y-28660611D01*
X124689313Y-28660621D01*
X124922925Y-28935650D01*
X126199983Y-27658592D01*
X126265130Y-27734870D01*
X126341405Y-27800014D01*
X125067580Y-29073840D01*
X125195655Y-29195158D01*
X125489156Y-29418272D01*
X125489161Y-29418275D01*
X125805070Y-29608352D01*
X126139676Y-29763157D01*
X126489076Y-29880884D01*
X126849128Y-29960137D01*
X126849127Y-29960137D01*
X127215657Y-30000000D01*
X127584343Y-30000000D01*
X127950872Y-29960137D01*
X128310922Y-29880884D01*
X128310924Y-29880884D01*
X128660323Y-29763157D01*
X128994929Y-29608352D01*
X129310838Y-29418275D01*
X129310843Y-29418272D01*
X129604344Y-29195158D01*
X129732418Y-29073840D01*
X128458593Y-27800015D01*
X128534870Y-27734870D01*
X128600015Y-27658593D01*
X129877073Y-28935651D01*
X130110686Y-28660621D01*
X130110693Y-28660611D01*
X130317596Y-28355453D01*
X130490288Y-28029721D01*
X130626753Y-27687217D01*
X130626757Y-27687206D01*
X130725385Y-27331979D01*
X130785034Y-26968143D01*
X130804993Y-26600000D01*
X130785034Y-26231856D01*
X130725385Y-25868020D01*
X130626757Y-25512793D01*
X130626753Y-25512782D01*
X130490288Y-25170278D01*
X130317596Y-24844546D01*
X130110693Y-24539388D01*
X130110686Y-24539378D01*
X129877072Y-24264347D01*
X128600014Y-25541404D01*
X128534870Y-25465130D01*
X128458592Y-25399983D01*
X129732418Y-24126158D01*
X129604344Y-24004841D01*
X129310843Y-23781727D01*
X129310838Y-23781724D01*
X128994929Y-23591647D01*
X128660323Y-23436842D01*
X128310923Y-23319115D01*
X127950871Y-23239862D01*
X127950872Y-23239862D01*
X127584343Y-23200000D01*
X127215657Y-23200000D01*
X126849127Y-23239862D01*
X126489077Y-23319115D01*
X126489075Y-23319115D01*
X126139676Y-23436842D01*
X125805070Y-23591647D01*
X125489161Y-23781724D01*
X125489156Y-23781727D01*
X125195655Y-24004841D01*
X125067580Y-24126158D01*
X126341406Y-25399984D01*
X126265130Y-25465130D01*
X126199984Y-25541406D01*
X124922925Y-24264347D01*
X124689313Y-24539378D01*
X124689306Y-24539388D01*
X124482403Y-24844546D01*
X124309711Y-25170278D01*
X124173246Y-25512782D01*
X124173242Y-25512793D01*
X124074614Y-25868020D01*
X124014965Y-26231856D01*
X123995006Y-26600000D01*
X99363701Y-26600000D01*
X99280245Y-26544236D01*
X99279416Y-26543827D01*
X99006846Y-26409410D01*
X99006842Y-26409408D01*
X98718181Y-26311421D01*
X98419187Y-26251947D01*
X98115000Y-26232010D01*
X97810812Y-26251947D01*
X97511818Y-26311421D01*
X97223157Y-26409408D01*
X97223153Y-26409410D01*
X96949754Y-26544236D01*
X96696292Y-26713595D01*
X96696278Y-26713605D01*
X96467104Y-26914586D01*
X96467086Y-26914604D01*
X96266105Y-27143778D01*
X96266095Y-27143792D01*
X96096736Y-27397254D01*
X95961910Y-27670653D01*
X95961908Y-27670657D01*
X95863921Y-27959318D01*
X95804447Y-28258312D01*
X95784510Y-28562499D01*
X95784510Y-28562500D01*
X89015490Y-28562500D01*
X88995552Y-28258310D01*
X88936080Y-27959325D01*
X88838092Y-27670660D01*
X88703264Y-27397255D01*
X88533902Y-27143788D01*
X88533897Y-27143782D01*
X88533894Y-27143778D01*
X88332913Y-26914604D01*
X88332912Y-26914603D01*
X88332905Y-26914595D01*
X88260468Y-26851069D01*
X88103721Y-26713605D01*
X88103715Y-26713601D01*
X88103712Y-26713598D01*
X87850245Y-26544236D01*
X87849416Y-26543827D01*
X87576846Y-26409410D01*
X87576842Y-26409408D01*
X87288181Y-26311421D01*
X86989187Y-26251947D01*
X86792266Y-26239040D01*
X86783832Y-26238487D01*
X86727003Y-26215815D01*
X86694354Y-26164069D01*
X86698356Y-26103015D01*
X86723612Y-26066538D01*
X86725903Y-26064449D01*
X86725910Y-26064445D01*
X86873209Y-25930164D01*
X86993326Y-25771104D01*
X87082171Y-25592680D01*
X87136717Y-25400969D01*
X87155108Y-25202500D01*
X95104892Y-25202500D01*
X95123283Y-25400969D01*
X95177829Y-25592680D01*
X95266674Y-25771104D01*
X95386791Y-25930164D01*
X95534090Y-26064445D01*
X95703554Y-26169373D01*
X95889414Y-26241376D01*
X96085340Y-26278000D01*
X96284660Y-26278000D01*
X96480586Y-26241376D01*
X96666446Y-26169373D01*
X96835910Y-26064445D01*
X96983209Y-25930164D01*
X97103326Y-25771104D01*
X97192171Y-25592680D01*
X97246717Y-25400969D01*
X97265108Y-25202500D01*
X97246717Y-25004031D01*
X97192171Y-24812320D01*
X97103326Y-24633896D01*
X96983209Y-24474836D01*
X96835910Y-24340555D01*
X96690063Y-24250250D01*
X96666451Y-24235630D01*
X96666446Y-24235627D01*
X96480583Y-24163623D01*
X96284660Y-24127000D01*
X96085340Y-24127000D01*
X95889416Y-24163623D01*
X95703553Y-24235627D01*
X95703548Y-24235630D01*
X95534094Y-24340552D01*
X95534092Y-24340553D01*
X95534090Y-24340555D01*
X95507882Y-24364447D01*
X95386789Y-24474838D01*
X95266680Y-24633887D01*
X95266670Y-24633903D01*
X95177829Y-24812319D01*
X95123283Y-25004029D01*
X95123283Y-25004031D01*
X95104892Y-25202500D01*
X87155108Y-25202500D01*
X87136717Y-25004031D01*
X87082171Y-24812320D01*
X86993326Y-24633896D01*
X86873209Y-24474836D01*
X86725910Y-24340555D01*
X86580063Y-24250250D01*
X86556451Y-24235630D01*
X86556446Y-24235627D01*
X86370583Y-24163623D01*
X86174660Y-24127000D01*
X85975340Y-24127000D01*
X85779416Y-24163623D01*
X85593553Y-24235627D01*
X85593548Y-24235630D01*
X85424094Y-24340552D01*
X85424092Y-24340553D01*
X85424090Y-24340555D01*
X85397882Y-24364447D01*
X85276789Y-24474838D01*
X85156680Y-24633887D01*
X85156670Y-24633903D01*
X85067829Y-24812319D01*
X85013283Y-25004029D01*
X85013283Y-25004031D01*
X84994892Y-25202500D01*
X85013283Y-25400969D01*
X85067829Y-25592680D01*
X85156674Y-25771104D01*
X85276791Y-25930164D01*
X85424090Y-26064445D01*
X85593554Y-26169373D01*
X85767773Y-26236866D01*
X85815203Y-26275517D01*
X85830857Y-26334666D01*
X85808754Y-26391719D01*
X85775796Y-26417970D01*
X85519754Y-26544236D01*
X85266292Y-26713595D01*
X85266278Y-26713605D01*
X85037104Y-26914586D01*
X85037086Y-26914604D01*
X84836105Y-27143778D01*
X84836095Y-27143792D01*
X84666736Y-27397254D01*
X84531910Y-27670653D01*
X84531908Y-27670657D01*
X84433921Y-27959318D01*
X84374447Y-28258312D01*
X84354510Y-28562499D01*
X84354510Y-28562500D01*
X84374447Y-28866687D01*
X84433921Y-29165681D01*
X84531908Y-29454342D01*
X84531910Y-29454346D01*
X84607858Y-29608352D01*
X84666736Y-29727745D01*
X84836098Y-29981212D01*
X84836101Y-29981215D01*
X84836105Y-29981221D01*
X85013411Y-30183399D01*
X85037564Y-30239615D01*
X85024060Y-30299292D01*
X84978059Y-30339634D01*
X84917130Y-30345233D01*
X84913356Y-30344301D01*
X84756052Y-30302151D01*
X84756051Y-30302150D01*
X84756044Y-30302149D01*
X84525005Y-30281937D01*
X84524999Y-30281937D01*
X84293959Y-30302149D01*
X84293952Y-30302151D01*
X84069923Y-30362180D01*
X84024346Y-30383433D01*
X83859722Y-30460198D01*
X83669737Y-30593226D01*
X83505728Y-30757235D01*
X83372700Y-30947220D01*
X83274682Y-31157422D01*
X83214651Y-31381457D01*
X83194439Y-31612496D01*
X83194439Y-31612503D01*
X72700500Y-31612503D01*
X72700500Y-26602165D01*
X72700547Y-26600000D01*
X73995006Y-26600000D01*
X74014965Y-26968143D01*
X74074614Y-27331979D01*
X74173242Y-27687206D01*
X74173246Y-27687217D01*
X74309711Y-28029721D01*
X74482403Y-28355453D01*
X74689306Y-28660611D01*
X74689313Y-28660621D01*
X74922925Y-28935650D01*
X76199983Y-27658592D01*
X76265130Y-27734870D01*
X76341405Y-27800014D01*
X75067580Y-29073840D01*
X75195655Y-29195158D01*
X75489156Y-29418272D01*
X75489161Y-29418275D01*
X75805070Y-29608352D01*
X76139676Y-29763157D01*
X76489076Y-29880884D01*
X76849128Y-29960137D01*
X76849127Y-29960137D01*
X77215657Y-30000000D01*
X77584343Y-30000000D01*
X77950872Y-29960137D01*
X78310922Y-29880884D01*
X78310924Y-29880884D01*
X78660323Y-29763157D01*
X78994929Y-29608352D01*
X79310838Y-29418275D01*
X79310843Y-29418272D01*
X79604344Y-29195158D01*
X79732418Y-29073840D01*
X78458593Y-27800015D01*
X78534870Y-27734870D01*
X78600015Y-27658593D01*
X79877073Y-28935651D01*
X80110686Y-28660621D01*
X80110693Y-28660611D01*
X80317596Y-28355453D01*
X80490288Y-28029721D01*
X80626753Y-27687217D01*
X80626757Y-27687206D01*
X80725385Y-27331979D01*
X80785034Y-26968143D01*
X80804993Y-26600000D01*
X80785034Y-26231856D01*
X80725385Y-25868020D01*
X80626757Y-25512793D01*
X80626753Y-25512782D01*
X80490288Y-25170278D01*
X80317596Y-24844546D01*
X80110693Y-24539388D01*
X80110686Y-24539378D01*
X79877072Y-24264347D01*
X78600014Y-25541404D01*
X78534870Y-25465130D01*
X78458592Y-25399983D01*
X79732418Y-24126158D01*
X79604344Y-24004841D01*
X79310843Y-23781727D01*
X79310838Y-23781724D01*
X78994929Y-23591647D01*
X78802241Y-23502500D01*
X87534892Y-23502500D01*
X87553283Y-23700970D01*
X87576260Y-23781727D01*
X87607829Y-23892680D01*
X87696674Y-24071104D01*
X87816791Y-24230164D01*
X87964090Y-24364445D01*
X88133554Y-24469373D01*
X88319414Y-24541376D01*
X88515340Y-24578000D01*
X88714660Y-24578000D01*
X88910586Y-24541376D01*
X89096446Y-24469373D01*
X89265910Y-24364445D01*
X89413209Y-24230164D01*
X89533326Y-24071104D01*
X89622171Y-23892680D01*
X89676717Y-23700969D01*
X89695108Y-23502500D01*
X89693255Y-23482500D01*
X97644892Y-23482500D01*
X97663283Y-23680970D01*
X97691950Y-23781724D01*
X97717829Y-23872680D01*
X97806674Y-24051104D01*
X97926791Y-24210164D01*
X98074090Y-24344445D01*
X98243554Y-24449373D01*
X98429414Y-24521376D01*
X98625340Y-24558000D01*
X98824660Y-24558000D01*
X99020586Y-24521376D01*
X99206446Y-24449373D01*
X99375910Y-24344445D01*
X99523209Y-24210164D01*
X99643326Y-24051104D01*
X99732171Y-23872680D01*
X99786717Y-23680969D01*
X99805108Y-23482500D01*
X99786717Y-23284031D01*
X99732171Y-23092320D01*
X99643326Y-22913896D01*
X99523209Y-22754836D01*
X99375910Y-22620555D01*
X99206446Y-22515627D01*
X99020586Y-22443624D01*
X99020585Y-22443623D01*
X99020583Y-22443623D01*
X98824660Y-22407000D01*
X98625340Y-22407000D01*
X98429416Y-22443623D01*
X98243553Y-22515627D01*
X98243548Y-22515630D01*
X98074094Y-22620552D01*
X98074092Y-22620553D01*
X98074090Y-22620555D01*
X97931663Y-22750395D01*
X97926789Y-22754838D01*
X97806680Y-22913887D01*
X97806670Y-22913903D01*
X97717829Y-23092319D01*
X97663283Y-23284029D01*
X97644892Y-23482500D01*
X89693255Y-23482500D01*
X89676717Y-23304031D01*
X89622171Y-23112320D01*
X89533326Y-22933896D01*
X89413209Y-22774836D01*
X89265910Y-22640555D01*
X89181178Y-22588091D01*
X89096451Y-22535630D01*
X89096446Y-22535627D01*
X88910583Y-22463623D01*
X88714660Y-22427000D01*
X88515340Y-22427000D01*
X88319416Y-22463623D01*
X88133553Y-22535627D01*
X88133548Y-22535630D01*
X87964094Y-22640552D01*
X87964092Y-22640553D01*
X87964090Y-22640555D01*
X87840711Y-22753030D01*
X87816789Y-22774838D01*
X87696680Y-22933887D01*
X87696670Y-22933903D01*
X87607829Y-23112319D01*
X87553283Y-23304029D01*
X87534892Y-23502500D01*
X78802241Y-23502500D01*
X78660323Y-23436842D01*
X78310923Y-23319115D01*
X77950871Y-23239862D01*
X77950872Y-23239862D01*
X77584343Y-23200000D01*
X77215657Y-23200000D01*
X76849127Y-23239862D01*
X76489077Y-23319115D01*
X76489075Y-23319115D01*
X76139676Y-23436842D01*
X75805070Y-23591647D01*
X75489161Y-23781724D01*
X75489156Y-23781727D01*
X75195655Y-24004841D01*
X75067580Y-24126158D01*
X76341406Y-25399984D01*
X76265130Y-25465130D01*
X76199984Y-25541406D01*
X74922925Y-24264347D01*
X74689313Y-24539378D01*
X74689306Y-24539388D01*
X74482403Y-24844546D01*
X74309711Y-25170278D01*
X74173246Y-25512782D01*
X74173242Y-25512793D01*
X74074614Y-25868020D01*
X74014965Y-26231856D01*
X73995006Y-26600000D01*
X72700547Y-26600000D01*
X72700594Y-26597847D01*
X72702935Y-26544236D01*
X72718195Y-26194713D01*
X72718945Y-26186137D01*
X72771332Y-25788220D01*
X72772832Y-25779718D01*
X72800119Y-25656635D01*
X72859699Y-25387886D01*
X72861924Y-25379581D01*
X72982617Y-24996791D01*
X72985569Y-24988682D01*
X73045272Y-24844546D01*
X73139160Y-24617879D01*
X73142795Y-24610085D01*
X73328120Y-24254079D01*
X73332427Y-24246618D01*
X73548083Y-23908105D01*
X73553021Y-23901054D01*
X73797355Y-23582632D01*
X73802885Y-23576042D01*
X74074049Y-23280119D01*
X74080119Y-23274049D01*
X74376042Y-23002885D01*
X74382632Y-22997355D01*
X74701054Y-22753021D01*
X74708105Y-22748083D01*
X75046618Y-22532427D01*
X75054079Y-22528120D01*
X75410085Y-22342795D01*
X75417879Y-22339160D01*
X75788689Y-22185566D01*
X75796791Y-22182617D01*
X76179581Y-22061924D01*
X76187886Y-22059699D01*
X76579718Y-21972831D01*
X76588220Y-21971332D01*
X76986137Y-21918945D01*
X76994713Y-21918195D01*
X77397847Y-21900593D01*
X77402165Y-21900500D01*
X77447595Y-21900500D01*
X127352405Y-21900500D01*
X127397835Y-21900500D01*
X127402152Y-21900593D01*
G37*
G04 #@! TD.AperFunction*
M02*
