M48
; DRILL file {KiCad 7.0.11} date Mon 21 Oct 2024 02:29:44 PM EDT
; FORMAT={-:-/ absolute / metric / decimal}
; #@! TF.CreationDate,2024-10-21T14:29:44-04:00
; #@! TF.GenerationSoftware,Kicad,Pcbnew,7.0.11
; #@! TF.FileFunction,Plated,1,4,PTH
FMAT,2
METRIC
; #@! TA.AperFunction,Plated,PTH,ViaDrill
T1C0.200
; #@! TA.AperFunction,Plated,PTH,ComponentDrill
T2C0.200
; #@! TA.AperFunction,Plated,PTH,ViaDrill
T3C0.250
; #@! TA.AperFunction,Plated,PTH,ComponentDrill
T4C0.600
; #@! TA.AperFunction,Plated,PTH,ComponentDrill
T5C1.000
; #@! TA.AperFunction,Plated,PTH,ComponentDrill
T6C1.500
; #@! TA.AperFunction,Plated,PTH,ComponentDrill
T7C2.000
; #@! TA.AperFunction,Plated,PTH,ComponentDrill
T8C3.200
; #@! TA.AperFunction,Plated,PTH,ComponentDrill
T9C3.750
%
G90
G05
T1
X73.9Y-150.6
X73.9Y-152.1
X73.9Y-153.1
X74.9Y-154.1
X76.4Y-147.6
X76.4Y-148.6
X76.9Y-154.6
X77.9Y-153.6
X77.9Y-154.6
X78.4Y-149.1
X81.904Y-146.075
X84.411Y-144.752
X86.4Y-146.6
X86.4Y-149.1
X86.4Y-151.6
X86.4Y-154.1
X86.4Y-156.6
X86.4Y-159.1
X91.314Y-89.132
X92.225Y-97.819
X92.225Y-113.345
X92.225Y-114.615
X92.225Y-115.885
X92.225Y-118.425
X92.225Y-119.695
X92.225Y-120.965
X92.225Y-122.235
X92.225Y-123.505
X92.225Y-124.775
X92.225Y-126.045
X92.225Y-129.855
X92.917Y-51.857
X93.392Y-94.112
X98.575Y-117.155
X98.575Y-118.425
X98.575Y-119.695
X98.575Y-120.965
X98.575Y-122.235
X98.575Y-123.505
X98.575Y-124.775
X98.575Y-128.585
X99.869Y-129.22
X101.658Y-100.841
X102.465Y-133.862
X102.945Y-122.82
X103.624Y-73.074
X105.15Y-72.35
X113.4Y-46.1
X113.4Y-66.1
X113.4Y-86.1
X113.4Y-106.1
X113.4Y-126.1
X113.4Y-146.1
X113.4Y-166.1
X114.362Y-84.545
X114.4Y-127.1
X114.86Y-72.88
X114.9Y-107.1
X115.9Y-46.6
X115.9Y-47.35
X115.9Y-48.1
X115.9Y-66.6
X115.9Y-67.35
X115.9Y-68.1
X115.9Y-86.6
X115.9Y-87.35
X115.9Y-88.1
X115.9Y-106.6
X115.9Y-107.35
X115.9Y-108.1
X115.9Y-126.6
X115.9Y-127.35
X115.9Y-128.1
X115.9Y-146.6
X115.9Y-147.35
X115.9Y-148.1
X115.9Y-166.6
X115.9Y-167.35
X115.9Y-168.1
X122.65Y-46.6
X122.65Y-47.6
X122.65Y-66.6
X122.65Y-67.6
X122.65Y-86.6
X122.65Y-87.6
X122.65Y-106.6
X122.65Y-107.6
X122.65Y-126.6
X122.65Y-127.6
X122.65Y-146.6
X122.65Y-147.6
X122.65Y-166.6
X122.65Y-167.6
X123.65Y-41.85
X123.65Y-61.85
X123.65Y-81.85
X123.65Y-101.85
X123.65Y-121.85
X123.65Y-141.85
X123.65Y-161.85
X125.9Y-41.35
X125.9Y-61.35
X125.9Y-81.35
X125.9Y-101.35
X125.9Y-121.35
X125.9Y-141.35
X125.9Y-161.35
T2
X75.9Y-151.1
X75.9Y-152.1
X76.4Y-151.6
X76.9Y-151.1
X76.9Y-152.1
X80.506Y-111.1
X81.294Y-111.1
T3
X75.4Y-95.6
X78.9Y-49.1
X79.9Y-44.1
X80.4Y-42.1
X80.4Y-116.1
X80.9Y-117.1
X82.752Y-151.08
X83.4Y-110.1
X92.4Y-128.6
X93.9Y-132.1
X96.575Y-149.06
X96.9Y-111.1
X98.4Y-115.6
X100.761Y-103.897
X109.9Y-24.1
X116.9Y-43.6
X116.9Y-63.6
X116.9Y-83.6
X116.9Y-103.6
X116.9Y-123.6
X116.9Y-143.6
X116.9Y-163.6
X119.9Y-43.6
X119.9Y-63.6
X119.9Y-83.6
X119.9Y-103.6
X119.9Y-123.6
X119.9Y-143.6
X119.9Y-163.6
X123.65Y-38.35
X123.65Y-58.35
X123.65Y-78.35
X123.65Y-98.35
X123.65Y-118.35
X123.65Y-138.35
X123.65Y-158.35
T5
X83.51Y-47.203
X83.51Y-49.742
X83.51Y-52.282
X83.51Y-54.822
X83.51Y-57.362
X83.51Y-59.902
X83.51Y-62.442
X83.51Y-64.983
X83.51Y-67.522
X83.51Y-70.062
X83.51Y-72.602
X83.51Y-75.142
X83.51Y-77.682
X83.51Y-80.222
X83.51Y-82.763
X83.51Y-85.302
X83.51Y-87.843
X83.51Y-90.382
X83.51Y-92.922
X83.51Y-95.462
X101.29Y-47.203
X101.29Y-49.742
X101.29Y-52.282
X101.29Y-54.822
X101.29Y-57.362
X101.29Y-59.902
X101.29Y-62.442
X101.29Y-64.983
X101.29Y-67.522
X101.29Y-70.062
X101.29Y-72.602
X101.29Y-75.142
X101.29Y-77.682
X101.29Y-80.222
X101.29Y-82.763
X101.29Y-85.302
X101.29Y-87.843
X101.29Y-90.382
X101.29Y-92.922
X101.29Y-95.462
T6
X86.075Y-25.203
X87.955Y-37.472
X88.615Y-23.502
X89.225Y-34.932
X90.495Y-37.472
X91.765Y-34.932
X93.035Y-37.472
X94.305Y-34.932
X95.575Y-37.472
X96.185Y-25.203
X96.845Y-34.932
X98.725Y-23.482
X114.86Y-30.6
X119.94Y-30.6
T7
X84.525Y-31.612
X100.275Y-31.612
T8
X77.4Y-26.6
X77.4Y-176.6
X127.4Y-26.6
X127.4Y-176.6
T9
X86.685Y-28.562
X98.115Y-28.562
T4
X124.95Y-37.28G85X125.85Y-37.28
G05
X124.95Y-45.92G85X125.85Y-45.92
G05
X124.95Y-57.28G85X125.85Y-57.28
G05
X124.95Y-65.92G85X125.85Y-65.92
G05
X124.95Y-77.28G85X125.85Y-77.28
G05
X124.95Y-85.92G85X125.85Y-85.92
G05
X124.95Y-97.28G85X125.85Y-97.28
G05
X124.95Y-105.92G85X125.85Y-105.92
G05
X124.95Y-117.28G85X125.85Y-117.28
G05
X124.95Y-125.92G85X125.85Y-125.92
G05
X124.95Y-137.28G85X125.85Y-137.28
G05
X124.95Y-145.92G85X125.85Y-145.92
G05
X124.95Y-157.28G85X125.85Y-157.28
G05
X124.95Y-165.92G85X125.85Y-165.92
G05
M30
