G04 #@! TF.GenerationSoftware,KiCad,Pcbnew,7.0.11*
G04 #@! TF.CreationDate,2024-10-22T15:27:35-04:00*
G04 #@! TF.ProjectId,cluster-pcb,636c7573-7465-4722-9d70-63622e6b6963,2.1*
G04 #@! TF.SameCoordinates,Original*
G04 #@! TF.FileFunction,Soldermask,Bot*
G04 #@! TF.FilePolarity,Negative*
%FSLAX46Y46*%
G04 Gerber Fmt 4.6, Leading zero omitted, Abs format (unit mm)*
G04 Created by KiCad (PCBNEW 7.0.11) date 2024-10-22 15:27:35*
%MOMM*%
%LPD*%
G01*
G04 APERTURE LIST*
G04 Aperture macros list*
%AMRoundRect*
0 Rectangle with rounded corners*
0 $1 Rounding radius*
0 $2 $3 $4 $5 $6 $7 $8 $9 X,Y pos of 4 corners*
0 Add a 4 corners polygon primitive as box body*
4,1,4,$2,$3,$4,$5,$6,$7,$8,$9,$2,$3,0*
0 Add four circle primitives for the rounded corners*
1,1,$1+$1,$2,$3*
1,1,$1+$1,$4,$5*
1,1,$1+$1,$6,$7*
1,1,$1+$1,$8,$9*
0 Add four rect primitives between the rounded corners*
20,1,$1+$1,$2,$3,$4,$5,0*
20,1,$1+$1,$4,$5,$6,$7,0*
20,1,$1+$1,$6,$7,$8,$9,0*
20,1,$1+$1,$8,$9,$2,$3,0*%
G04 Aperture macros list end*
%ADD10C,0.650000*%
%ADD11O,2.000000X1.100000*%
%ADD12RoundRect,0.102000X1.250000X1.250000X-1.250000X1.250000X-1.250000X-1.250000X1.250000X-1.250000X0*%
%ADD13C,2.704000*%
%ADD14C,6.400000*%
%ADD15C,2.500000*%
%ADD16C,2.000000*%
%ADD17C,4.250000*%
%ADD18RoundRect,0.150000X1.100000X0.600000X-1.100000X0.600000X-1.100000X-0.600000X1.100000X-0.600000X0*%
%ADD19O,2.500000X1.500000*%
%ADD20C,0.700000*%
G04 APERTURE END LIST*
D10*
X125920000Y-144490000D03*
X125920000Y-138710000D03*
D11*
X125400000Y-145920000D03*
X125400000Y-137280000D03*
D10*
X125920000Y-44490000D03*
X125920000Y-38710000D03*
D11*
X125400000Y-45920000D03*
X125400000Y-37280000D03*
D10*
X125920000Y-64490000D03*
X125920000Y-58710000D03*
D11*
X125400000Y-65920000D03*
X125400000Y-57280000D03*
D10*
X125920000Y-124490000D03*
X125920000Y-118710000D03*
D11*
X125400000Y-125920000D03*
X125400000Y-117280000D03*
D10*
X125920000Y-164490000D03*
X125920000Y-158710000D03*
D11*
X125400000Y-165920000D03*
X125400000Y-157280000D03*
D10*
X125920000Y-104490000D03*
X125920000Y-98710000D03*
D11*
X125400000Y-105920000D03*
X125400000Y-97280000D03*
D10*
X125920000Y-84490000D03*
X125920000Y-78710000D03*
D11*
X125400000Y-85920000D03*
X125400000Y-77280000D03*
D12*
X119940000Y-30600000D03*
D13*
X114860000Y-30600000D03*
D14*
X127400000Y-176600000D03*
D15*
X100274998Y-31612500D03*
D16*
X98725000Y-23482500D03*
D17*
X98115000Y-28562500D03*
D16*
X96845000Y-34932500D03*
X96185000Y-25202500D03*
X95575000Y-37472500D03*
X94305000Y-34932500D03*
X93035000Y-37472500D03*
X91765000Y-34932500D03*
X90495000Y-37472500D03*
X89225000Y-34932500D03*
X88615000Y-23502500D03*
X87955000Y-37472500D03*
D17*
X86685000Y-28562500D03*
D16*
X86075000Y-25202500D03*
D15*
X84525002Y-31612500D03*
D18*
X101290000Y-95462500D03*
D19*
X101290000Y-92922500D03*
X101290000Y-90382500D03*
X101290000Y-87842500D03*
X101290000Y-85302500D03*
X101290000Y-82762500D03*
X101290000Y-80222500D03*
X101290000Y-77682500D03*
X101290000Y-75142500D03*
X101290000Y-72602500D03*
X101290000Y-70062500D03*
X101290000Y-67522500D03*
X101290000Y-64982500D03*
X101290000Y-62442500D03*
X101290000Y-59902500D03*
X101290000Y-57362500D03*
X101290000Y-54822500D03*
X101290000Y-52282500D03*
X101290000Y-49742500D03*
X101290000Y-47202500D03*
X83510000Y-47202500D03*
X83510000Y-49742500D03*
X83510000Y-52282500D03*
X83510000Y-54822500D03*
X83510000Y-57362500D03*
X83510000Y-59902500D03*
X83510000Y-62442500D03*
X83510000Y-64982500D03*
X83510000Y-67522500D03*
X83510000Y-70062500D03*
X83510000Y-72602500D03*
X83510000Y-75142500D03*
X83510000Y-77682500D03*
X83510000Y-80222500D03*
X83510000Y-82762500D03*
X83510000Y-85302500D03*
X83510000Y-87842500D03*
X83510000Y-90382500D03*
X83510000Y-92922500D03*
X83510000Y-95462500D03*
D14*
X77400000Y-26600000D03*
X127400000Y-26600000D03*
D20*
X92793700Y-121100000D03*
X92006300Y-121100000D03*
D14*
X77400000Y-176600000D03*
M02*
