G04 #@! TF.GenerationSoftware,KiCad,Pcbnew,7.0.11*
G04 #@! TF.CreationDate,2024-07-26T17:39:15-04:00*
G04 #@! TF.ProjectId,cluster-pcb,636c7573-7465-4722-9d70-63622e6b6963,1.0*
G04 #@! TF.SameCoordinates,Original*
G04 #@! TF.FileFunction,Paste,Top*
G04 #@! TF.FilePolarity,Positive*
%FSLAX46Y46*%
G04 Gerber Fmt 4.6, Leading zero omitted, Abs format (unit mm)*
G04 Created by KiCad (PCBNEW 7.0.11) date 2024-07-26 17:39:15*
%MOMM*%
%LPD*%
G01*
G04 APERTURE LIST*
G04 Aperture macros list*
%AMRoundRect*
0 Rectangle with rounded corners*
0 $1 Rounding radius*
0 $2 $3 $4 $5 $6 $7 $8 $9 X,Y pos of 4 corners*
0 Add a 4 corners polygon primitive as box body*
4,1,4,$2,$3,$4,$5,$6,$7,$8,$9,$2,$3,0*
0 Add four circle primitives for the rounded corners*
1,1,$1+$1,$2,$3*
1,1,$1+$1,$4,$5*
1,1,$1+$1,$6,$7*
1,1,$1+$1,$8,$9*
0 Add four rect primitives between the rounded corners*
20,1,$1+$1,$2,$3,$4,$5,0*
20,1,$1+$1,$4,$5,$6,$7,0*
20,1,$1+$1,$6,$7,$8,$9,0*
20,1,$1+$1,$8,$9,$2,$3,0*%
G04 Aperture macros list end*
%ADD10R,2.600000X2.300000*%
%ADD11R,1.500000X0.600000*%
%ADD12RoundRect,0.250000X-0.362500X-1.425000X0.362500X-1.425000X0.362500X1.425000X-0.362500X1.425000X0*%
%ADD13RoundRect,0.135000X0.185000X-0.135000X0.185000X0.135000X-0.185000X0.135000X-0.185000X-0.135000X0*%
%ADD14RoundRect,0.250000X-0.325000X-1.100000X0.325000X-1.100000X0.325000X1.100000X-0.325000X1.100000X0*%
%ADD15R,2.500000X2.300000*%
%ADD16RoundRect,0.140000X-0.140000X-0.170000X0.140000X-0.170000X0.140000X0.170000X-0.140000X0.170000X0*%
%ADD17R,0.711200X0.254000*%
%ADD18R,1.600200X2.387600*%
%ADD19RoundRect,0.135000X-0.185000X0.135000X-0.185000X-0.135000X0.185000X-0.135000X0.185000X0.135000X0*%
%ADD20RoundRect,0.150000X0.587500X0.150000X-0.587500X0.150000X-0.587500X-0.150000X0.587500X-0.150000X0*%
%ADD21RoundRect,0.250000X-1.000000X-0.650000X1.000000X-0.650000X1.000000X0.650000X-1.000000X0.650000X0*%
%ADD22RoundRect,0.140000X0.140000X0.170000X-0.140000X0.170000X-0.140000X-0.170000X0.140000X-0.170000X0*%
%ADD23RoundRect,0.140000X-0.170000X0.140000X-0.170000X-0.140000X0.170000X-0.140000X0.170000X0.140000X0*%
%ADD24RoundRect,0.250000X-0.350000X0.850000X-0.350000X-0.850000X0.350000X-0.850000X0.350000X0.850000X0*%
%ADD25RoundRect,0.250000X-1.125000X1.275000X-1.125000X-1.275000X1.125000X-1.275000X1.125000X1.275000X0*%
%ADD26R,1.680000X1.010000*%
%ADD27RoundRect,0.135000X-0.135000X-0.185000X0.135000X-0.185000X0.135000X0.185000X-0.135000X0.185000X0*%
%ADD28R,3.098800X5.207000*%
%ADD29R,0.990600X1.143000*%
%ADD30RoundRect,0.140000X0.170000X-0.140000X0.170000X0.140000X-0.170000X0.140000X-0.170000X-0.140000X0*%
G04 APERTURE END LIST*
G36*
X78549500Y-41700001D02*
G01*
X78549500Y-42699999D01*
X78499500Y-42749999D01*
X78224500Y-42749999D01*
X78174500Y-42699999D01*
X78174500Y-41700001D01*
X78224500Y-41649999D01*
X78499500Y-41649999D01*
X78549500Y-41700001D01*
G37*
G36*
X77675001Y-41700001D02*
G01*
X77675001Y-42699999D01*
X77624999Y-42749999D01*
X77474999Y-42749999D01*
X77424999Y-42699999D01*
X77424999Y-41700001D01*
X77474999Y-41649999D01*
X77624999Y-41649999D01*
X77675001Y-41700001D01*
G37*
G36*
X76224999Y-41700499D02*
G01*
X76224999Y-41975500D01*
X76174999Y-42025500D01*
X76024999Y-42025500D01*
X75975000Y-41975500D01*
X75975000Y-41700499D01*
X76024999Y-41650499D01*
X76174999Y-41650499D01*
X76224999Y-41700499D01*
G37*
G36*
X75725000Y-41700499D02*
G01*
X75725000Y-41975500D01*
X75675000Y-42025500D01*
X75525000Y-42025500D01*
X75475001Y-41975500D01*
X75475001Y-41700499D01*
X75525000Y-41650499D01*
X75675000Y-41650499D01*
X75725000Y-41700499D01*
G37*
G36*
X75225001Y-41700499D02*
G01*
X75225001Y-41975500D01*
X75175001Y-42025500D01*
X75024999Y-42025500D01*
X74974999Y-41975500D01*
X74974999Y-41700499D01*
X75024999Y-41650499D01*
X75175001Y-41650499D01*
X75225001Y-41700499D01*
G37*
G36*
X74725000Y-41700499D02*
G01*
X74725000Y-41975500D01*
X74675000Y-42025500D01*
X74525000Y-42025500D01*
X74475000Y-41975500D01*
X74475000Y-41700499D01*
X74525000Y-41650499D01*
X74675000Y-41650499D01*
X74725000Y-41700499D01*
G37*
G36*
X76422499Y-42270000D02*
G01*
X76422499Y-43100001D01*
X76372499Y-43150001D01*
X75957499Y-43150001D01*
X75907499Y-43100001D01*
X75907499Y-42270000D01*
X75957499Y-42220000D01*
X76372499Y-42220000D01*
X76422499Y-42270000D01*
G37*
G36*
X75709999Y-42270000D02*
G01*
X75709999Y-43100001D01*
X75659999Y-43150001D01*
X75140000Y-43150001D01*
X75090000Y-43100001D01*
X75090000Y-42270000D01*
X75140000Y-42220000D01*
X75659999Y-42220000D01*
X75709999Y-42270000D01*
G37*
G36*
X74887501Y-42270000D02*
G01*
X74887501Y-43100001D01*
X74837501Y-43150001D01*
X74422501Y-43150001D01*
X74372501Y-43100001D01*
X74372501Y-42270000D01*
X74422501Y-42220000D01*
X74837501Y-42220000D01*
X74887501Y-42270000D01*
G37*
G36*
X77175000Y-41700001D02*
G01*
X77175000Y-42699999D01*
X77125000Y-42749999D01*
X76975000Y-42749999D01*
X76925000Y-42699999D01*
X76925000Y-41700001D01*
X76975000Y-41650001D01*
X77125000Y-41650001D01*
X77175000Y-41700001D01*
G37*
G36*
X78850000Y-43025000D02*
G01*
X78850000Y-43175000D01*
X78799998Y-43224999D01*
X78099999Y-43224999D01*
X78049999Y-43175000D01*
X78049999Y-43025000D01*
X78099999Y-42975000D01*
X78799998Y-42975000D01*
X78850000Y-43025000D01*
G37*
G36*
X78849500Y-43500000D02*
G01*
X78849500Y-43700000D01*
X78799500Y-43750000D01*
X77374499Y-43750000D01*
X77324499Y-43700000D01*
X77324499Y-43500000D01*
X77374499Y-43450000D01*
X78799500Y-43450000D01*
X78849500Y-43500000D01*
G37*
G36*
X75709999Y-44099999D02*
G01*
X75709999Y-44930000D01*
X75659999Y-44980000D01*
X75140000Y-44980000D01*
X75090000Y-44930000D01*
X75090000Y-44099999D01*
X75140000Y-44049999D01*
X75659999Y-44049999D01*
X75709999Y-44099999D01*
G37*
G36*
X78849998Y-44025000D02*
G01*
X78849998Y-44175000D01*
X78799998Y-44225000D01*
X78099999Y-44225000D01*
X78049999Y-44175000D01*
X78049999Y-44025000D01*
X78099999Y-43975001D01*
X78799998Y-43975001D01*
X78849998Y-44025000D01*
G37*
G36*
X77675001Y-44500001D02*
G01*
X77675001Y-45499999D01*
X77624999Y-45550001D01*
X77474999Y-45550001D01*
X77424999Y-45499999D01*
X77424999Y-44500001D01*
X77474999Y-44450001D01*
X77624999Y-44450001D01*
X77675001Y-44500001D01*
G37*
G36*
X77175000Y-44500001D02*
G01*
X77175000Y-45499999D01*
X77125000Y-45549999D01*
X76975000Y-45549999D01*
X76925000Y-45499999D01*
X76925000Y-44500001D01*
X76975000Y-44450001D01*
X77125000Y-44450001D01*
X77175000Y-44500001D01*
G37*
G36*
X76422499Y-44099999D02*
G01*
X76422499Y-44930000D01*
X76372499Y-44980000D01*
X75957499Y-44980000D01*
X75907499Y-44930000D01*
X75907499Y-44099999D01*
X75957499Y-44049999D01*
X76372499Y-44049999D01*
X76422499Y-44099999D01*
G37*
G36*
X74887501Y-44099999D02*
G01*
X74887501Y-44930000D01*
X74837501Y-44980000D01*
X74422501Y-44980000D01*
X74372501Y-44930000D01*
X74372501Y-44099999D01*
X74422501Y-44049999D01*
X74837501Y-44049999D01*
X74887501Y-44099999D01*
G37*
G36*
X76224999Y-45224500D02*
G01*
X76224999Y-45499501D01*
X76174999Y-45549501D01*
X76024999Y-45549501D01*
X75975000Y-45499501D01*
X75975000Y-45224500D01*
X76024999Y-45174500D01*
X76174999Y-45174500D01*
X76224999Y-45224500D01*
G37*
G36*
X75725000Y-45224500D02*
G01*
X75725000Y-45499501D01*
X75675000Y-45549501D01*
X75525000Y-45549501D01*
X75475001Y-45499501D01*
X75475001Y-45224500D01*
X75525000Y-45174500D01*
X75675000Y-45174500D01*
X75725000Y-45224500D01*
G37*
G36*
X75225001Y-45224500D02*
G01*
X75225001Y-45499501D01*
X75175001Y-45549501D01*
X75024999Y-45549501D01*
X74974999Y-45499501D01*
X74974999Y-45224500D01*
X75024999Y-45174500D01*
X75175001Y-45174500D01*
X75225001Y-45224500D01*
G37*
G36*
X74725000Y-45224500D02*
G01*
X74725000Y-45499501D01*
X74675000Y-45549501D01*
X74525000Y-45549501D01*
X74475000Y-45499501D01*
X74475000Y-45224500D01*
X74525000Y-45174500D01*
X74675000Y-45174500D01*
X74725000Y-45224500D01*
G37*
G36*
X78549500Y-44500001D02*
G01*
X78549500Y-45499999D01*
X78499500Y-45550001D01*
X78224500Y-45550001D01*
X78174500Y-45499999D01*
X78174500Y-44500001D01*
X78224500Y-44450001D01*
X78499500Y-44450001D01*
X78549500Y-44500001D01*
G37*
D10*
X130150000Y-134450000D03*
X130150000Y-148750000D03*
D11*
X127400000Y-146100000D03*
X127400000Y-145099999D03*
X127400000Y-144099999D03*
X127400000Y-143099998D03*
X127400000Y-142099998D03*
X127400000Y-141100000D03*
X127400000Y-140099999D03*
X127400000Y-139099999D03*
X127400000Y-138099998D03*
X127400000Y-137099998D03*
D12*
X110437500Y-142600000D03*
X116362500Y-142600000D03*
D13*
X125400000Y-57110000D03*
X125400000Y-56090000D03*
D14*
X75925000Y-36600000D03*
X78875000Y-36600000D03*
D13*
X125400000Y-137110000D03*
X125400000Y-136090000D03*
D15*
X123550000Y-44600000D03*
X119250000Y-44600000D03*
D16*
X120920000Y-73600000D03*
X121880000Y-73600000D03*
D13*
X125400000Y-157110000D03*
X125400000Y-156090000D03*
D17*
X120901400Y-35599999D03*
X120901400Y-36100001D03*
X120901400Y-36600000D03*
X120901400Y-37099999D03*
X120901400Y-37600001D03*
X123898600Y-37600001D03*
X123898600Y-37099999D03*
X123898600Y-36600000D03*
X123898600Y-36100001D03*
X123898600Y-35599999D03*
D18*
X122400000Y-36600000D03*
D19*
X79400000Y-63090000D03*
X79400000Y-64110000D03*
D20*
X80337500Y-67550000D03*
X80337500Y-65650000D03*
X78462500Y-66600000D03*
D10*
X130150000Y-34450000D03*
X130150000Y-48750000D03*
D11*
X127400000Y-46100000D03*
X127400000Y-45099999D03*
X127400000Y-44099999D03*
X127400000Y-43099998D03*
X127400000Y-42099998D03*
X127400000Y-41100000D03*
X127400000Y-40099999D03*
X127400000Y-39099999D03*
X127400000Y-38099998D03*
X127400000Y-37099998D03*
D12*
X110437500Y-102600000D03*
X116362500Y-102600000D03*
D21*
X119400000Y-140600000D03*
X123400000Y-140600000D03*
D16*
X120920000Y-53600000D03*
X121880000Y-53600000D03*
D22*
X123880000Y-153600000D03*
X122920000Y-153600000D03*
D16*
X120920000Y-113600000D03*
X121880000Y-113600000D03*
X120920000Y-93600000D03*
X121880000Y-93600000D03*
D15*
X123550000Y-84600000D03*
X119250000Y-84600000D03*
D17*
X120901400Y-95599999D03*
X120901400Y-96100001D03*
X120901400Y-96600000D03*
X120901400Y-97099999D03*
X120901400Y-97600001D03*
X123898600Y-97600001D03*
X123898600Y-97099999D03*
X123898600Y-96600000D03*
X123898600Y-96100001D03*
X123898600Y-95599999D03*
D18*
X122400000Y-96600000D03*
D16*
X120920000Y-153600000D03*
X121880000Y-153600000D03*
D12*
X110437500Y-48600000D03*
X116362500Y-48600000D03*
D17*
X120901400Y-115599999D03*
X120901400Y-116100001D03*
X120901400Y-116600000D03*
X120901400Y-117099999D03*
X120901400Y-117600001D03*
X123898600Y-117600001D03*
X123898600Y-117099999D03*
X123898600Y-116600000D03*
X123898600Y-116100001D03*
X123898600Y-115599999D03*
D18*
X122400000Y-116600000D03*
D13*
X125400000Y-117110000D03*
X125400000Y-116090000D03*
X125400000Y-37110000D03*
X125400000Y-36090000D03*
D17*
X120901400Y-135599999D03*
X120901400Y-136100001D03*
X120901400Y-136600000D03*
X120901400Y-137099999D03*
X120901400Y-137600001D03*
X123898600Y-137600001D03*
X123898600Y-137099999D03*
X123898600Y-136600000D03*
X123898600Y-136100001D03*
X123898600Y-135599999D03*
D18*
X122400000Y-136600000D03*
D10*
X130150000Y-54450000D03*
X130150000Y-68750000D03*
D11*
X127400000Y-66100000D03*
X127400000Y-65099999D03*
X127400000Y-64099999D03*
X127400000Y-63099998D03*
X127400000Y-62099998D03*
X127400000Y-61100000D03*
X127400000Y-60099999D03*
X127400000Y-59099999D03*
X127400000Y-58099998D03*
X127400000Y-57099998D03*
D10*
X130150000Y-114450000D03*
X130150000Y-128750000D03*
D11*
X127400000Y-126100000D03*
X127400000Y-125099999D03*
X127400000Y-124099999D03*
X127400000Y-123099998D03*
X127400000Y-122099998D03*
X127400000Y-121100000D03*
X127400000Y-120099999D03*
X127400000Y-119099999D03*
X127400000Y-118099998D03*
X127400000Y-117099998D03*
D12*
X110437500Y-122600000D03*
X116362500Y-122600000D03*
D22*
X123880000Y-113600000D03*
X122920000Y-113600000D03*
D23*
X80400000Y-42120000D03*
X80400000Y-43080000D03*
D22*
X123880000Y-53600000D03*
X122920000Y-53600000D03*
D24*
X111680000Y-36560000D03*
D25*
X110925000Y-41185000D03*
X107875000Y-41185000D03*
X110925000Y-44535000D03*
X107875000Y-44535000D03*
D24*
X107120000Y-36560000D03*
D15*
X123550000Y-144600000D03*
X119250000Y-144600000D03*
D21*
X119400000Y-160600000D03*
X123400000Y-160600000D03*
D17*
X120901400Y-155599999D03*
X120901400Y-156100001D03*
X120901400Y-156600000D03*
X120901400Y-157099999D03*
X120901400Y-157600001D03*
X123898600Y-157600001D03*
X123898600Y-157099999D03*
X123898600Y-156600000D03*
X123898600Y-156100001D03*
X123898600Y-155599999D03*
D18*
X122400000Y-156600000D03*
D26*
X78970000Y-93100000D03*
X75830000Y-93100000D03*
D16*
X120920000Y-33600000D03*
X121880000Y-33600000D03*
D22*
X123880000Y-133600000D03*
X122920000Y-133600000D03*
D10*
X130150000Y-154450000D03*
X130150000Y-168750000D03*
D11*
X127400000Y-166100000D03*
X127400000Y-165099999D03*
X127400000Y-164099999D03*
X127400000Y-163099998D03*
X127400000Y-162099998D03*
X127400000Y-161100000D03*
X127400000Y-160099999D03*
X127400000Y-159099999D03*
X127400000Y-158099998D03*
X127400000Y-157099998D03*
D17*
X120901400Y-75599999D03*
X120901400Y-76100001D03*
X120901400Y-76600000D03*
X120901400Y-77099999D03*
X120901400Y-77600001D03*
X123898600Y-77600001D03*
X123898600Y-77099999D03*
X123898600Y-76600000D03*
X123898600Y-76100001D03*
X123898600Y-75599999D03*
D18*
X122400000Y-76600000D03*
D16*
X76920000Y-39600000D03*
X77880000Y-39600000D03*
D21*
X119400000Y-100600000D03*
X123400000Y-100600000D03*
D12*
X110437500Y-82600000D03*
X116362500Y-82600000D03*
D17*
X120901400Y-55599999D03*
X120901400Y-56100001D03*
X120901400Y-56600000D03*
X120901400Y-57099999D03*
X120901400Y-57600001D03*
X123898600Y-57600001D03*
X123898600Y-57099999D03*
X123898600Y-56600000D03*
X123898600Y-56100001D03*
X123898600Y-55599999D03*
D18*
X122400000Y-56600000D03*
D21*
X119400000Y-40600000D03*
X123400000Y-40600000D03*
D13*
X125400000Y-77110000D03*
X125400000Y-76090000D03*
D22*
X123880000Y-93600000D03*
X122920000Y-93600000D03*
D21*
X119400000Y-60600000D03*
X123400000Y-60600000D03*
D15*
X123550000Y-164600000D03*
X119250000Y-164600000D03*
D21*
X119400000Y-80600000D03*
X123400000Y-80600000D03*
D27*
X108890000Y-34600000D03*
X109910000Y-34600000D03*
D12*
X110437500Y-62600000D03*
X116362500Y-62600000D03*
D15*
X123550000Y-124600000D03*
X119250000Y-124600000D03*
D28*
X121400000Y-26545900D03*
D29*
X120479999Y-30533700D03*
X122320001Y-30533700D03*
D13*
X125400000Y-97110000D03*
X125400000Y-96090000D03*
D10*
X130150000Y-94450000D03*
X130150000Y-108750000D03*
D11*
X127400000Y-106100000D03*
X127400000Y-105099999D03*
X127400000Y-104099999D03*
X127400000Y-103099998D03*
X127400000Y-102099998D03*
X127400000Y-101100000D03*
X127400000Y-100099999D03*
X127400000Y-99099999D03*
X127400000Y-98099998D03*
X127400000Y-97099998D03*
D22*
X123880000Y-33600000D03*
X122920000Y-33600000D03*
X123880000Y-73600000D03*
X122920000Y-73600000D03*
D12*
X110437500Y-162600000D03*
X116362500Y-162600000D03*
D15*
X123550000Y-104600000D03*
X119250000Y-104600000D03*
D10*
X130150000Y-74450000D03*
X130150000Y-88750000D03*
D11*
X127400000Y-86100000D03*
X127400000Y-85099999D03*
X127400000Y-84099999D03*
X127400000Y-83099998D03*
X127400000Y-82099998D03*
X127400000Y-81100000D03*
X127400000Y-80099999D03*
X127400000Y-79099999D03*
X127400000Y-78099998D03*
X127400000Y-77099998D03*
D16*
X120920000Y-133600000D03*
X121880000Y-133600000D03*
D15*
X123550000Y-64600000D03*
X119250000Y-64600000D03*
D30*
X80400000Y-45080000D03*
X80400000Y-44120000D03*
D21*
X119400000Y-120600000D03*
X123400000Y-120600000D03*
M02*
