%TF.GenerationSoftware,KiCad,Pcbnew,7.0.11*%
%TF.CreationDate,2024-07-26T17:40:04-04:00*%
%TF.ProjectId,cluster-pcb,636c7573-7465-4722-9d70-63622e6b6963,1.0*%
%TF.SameCoordinates,Original*%
%TF.FileFunction,Drillmap*%
%TF.FilePolarity,Positive*%
%FSLAX45Y45*%
G04 Gerber Fmt 4.5, Leading zero omitted, Abs format (unit mm)*
G04 Created by KiCad (PCBNEW 7.0.11) date 2024-07-26 17:40:04*
%MOMM*%
%LPD*%
G01*
G04 APERTURE LIST*
%ADD10C,0.100000*%
%ADD11C,0.200000*%
G04 APERTURE END LIST*
D10*
X7740000Y-2160000D02*
G75*
G03*
X7240000Y-2660000I0J-500000D01*
G01*
X7240000Y-17660000D02*
X7240000Y-2660000D01*
X13240000Y-2660000D02*
X13240000Y-17660000D01*
X12740000Y-18160000D02*
G75*
G03*
X13240000Y-17660000I0J500000D01*
G01*
X13240000Y-2660000D02*
G75*
G03*
X12740000Y-2160000I-500000J0D01*
G01*
X7240000Y-17660000D02*
G75*
G03*
X7740000Y-18160000I500000J0D01*
G01*
X12740000Y-18160000D02*
X7740000Y-18160000D01*
X7740000Y-2160000D02*
X12740000Y-2160000D01*
D11*
X7495777Y-18476484D02*
X7495777Y-18276484D01*
X7495777Y-18276484D02*
X7543396Y-18276484D01*
X7543396Y-18276484D02*
X7571967Y-18286008D01*
X7571967Y-18286008D02*
X7591015Y-18305055D01*
X7591015Y-18305055D02*
X7600539Y-18324103D01*
X7600539Y-18324103D02*
X7610062Y-18362198D01*
X7610062Y-18362198D02*
X7610062Y-18390770D01*
X7610062Y-18390770D02*
X7600539Y-18428865D01*
X7600539Y-18428865D02*
X7591015Y-18447912D01*
X7591015Y-18447912D02*
X7571967Y-18466960D01*
X7571967Y-18466960D02*
X7543396Y-18476484D01*
X7543396Y-18476484D02*
X7495777Y-18476484D01*
X7695777Y-18476484D02*
X7695777Y-18343150D01*
X7695777Y-18381246D02*
X7705301Y-18362198D01*
X7705301Y-18362198D02*
X7714824Y-18352674D01*
X7714824Y-18352674D02*
X7733872Y-18343150D01*
X7733872Y-18343150D02*
X7752920Y-18343150D01*
X7819586Y-18476484D02*
X7819586Y-18343150D01*
X7819586Y-18276484D02*
X7810062Y-18286008D01*
X7810062Y-18286008D02*
X7819586Y-18295531D01*
X7819586Y-18295531D02*
X7829110Y-18286008D01*
X7829110Y-18286008D02*
X7819586Y-18276484D01*
X7819586Y-18276484D02*
X7819586Y-18295531D01*
X7943396Y-18476484D02*
X7924348Y-18466960D01*
X7924348Y-18466960D02*
X7914824Y-18447912D01*
X7914824Y-18447912D02*
X7914824Y-18276484D01*
X8048158Y-18476484D02*
X8029110Y-18466960D01*
X8029110Y-18466960D02*
X8019586Y-18447912D01*
X8019586Y-18447912D02*
X8019586Y-18276484D01*
X8276729Y-18476484D02*
X8276729Y-18276484D01*
X8276729Y-18276484D02*
X8343396Y-18419341D01*
X8343396Y-18419341D02*
X8410063Y-18276484D01*
X8410063Y-18276484D02*
X8410063Y-18476484D01*
X8591015Y-18476484D02*
X8591015Y-18371722D01*
X8591015Y-18371722D02*
X8581491Y-18352674D01*
X8581491Y-18352674D02*
X8562444Y-18343150D01*
X8562444Y-18343150D02*
X8524348Y-18343150D01*
X8524348Y-18343150D02*
X8505301Y-18352674D01*
X8591015Y-18466960D02*
X8571967Y-18476484D01*
X8571967Y-18476484D02*
X8524348Y-18476484D01*
X8524348Y-18476484D02*
X8505301Y-18466960D01*
X8505301Y-18466960D02*
X8495777Y-18447912D01*
X8495777Y-18447912D02*
X8495777Y-18428865D01*
X8495777Y-18428865D02*
X8505301Y-18409817D01*
X8505301Y-18409817D02*
X8524348Y-18400293D01*
X8524348Y-18400293D02*
X8571967Y-18400293D01*
X8571967Y-18400293D02*
X8591015Y-18390770D01*
X8686253Y-18343150D02*
X8686253Y-18543150D01*
X8686253Y-18352674D02*
X8705301Y-18343150D01*
X8705301Y-18343150D02*
X8743396Y-18343150D01*
X8743396Y-18343150D02*
X8762444Y-18352674D01*
X8762444Y-18352674D02*
X8771967Y-18362198D01*
X8771967Y-18362198D02*
X8781491Y-18381246D01*
X8781491Y-18381246D02*
X8781491Y-18438389D01*
X8781491Y-18438389D02*
X8771967Y-18457436D01*
X8771967Y-18457436D02*
X8762444Y-18466960D01*
X8762444Y-18466960D02*
X8743396Y-18476484D01*
X8743396Y-18476484D02*
X8705301Y-18476484D01*
X8705301Y-18476484D02*
X8686253Y-18466960D01*
X8867205Y-18457436D02*
X8876729Y-18466960D01*
X8876729Y-18466960D02*
X8867205Y-18476484D01*
X8867205Y-18476484D02*
X8857682Y-18466960D01*
X8857682Y-18466960D02*
X8867205Y-18457436D01*
X8867205Y-18457436D02*
X8867205Y-18476484D01*
X8867205Y-18352674D02*
X8876729Y-18362198D01*
X8876729Y-18362198D02*
X8867205Y-18371722D01*
X8867205Y-18371722D02*
X8857682Y-18362198D01*
X8857682Y-18362198D02*
X8867205Y-18352674D01*
X8867205Y-18352674D02*
X8867205Y-18371722D01*
M02*
