M48
; DRILL file {KiCad 7.0.11} date Tue 22 Oct 2024 03:27:47 PM EDT
; FORMAT={-:-/ absolute / metric / decimal}
; #@! TF.CreationDate,2024-10-22T15:27:47-04:00
; #@! TF.GenerationSoftware,Kicad,Pcbnew,7.0.11
; #@! TF.FileFunction,Plated,1,4,PTH
FMAT,2
METRIC
; #@! TA.AperFunction,Plated,PTH,ComponentDrill
T1C0.200
; #@! TA.AperFunction,Plated,PTH,ViaDrill
T2C0.250
; #@! TA.AperFunction,Plated,PTH,ComponentDrill
T3C0.600
; #@! TA.AperFunction,Plated,PTH,ComponentDrill
T4C1.000
; #@! TA.AperFunction,Plated,PTH,ComponentDrill
T5C1.500
; #@! TA.AperFunction,Plated,PTH,ComponentDrill
T6C2.000
; #@! TA.AperFunction,Plated,PTH,ComponentDrill
T7C3.200
; #@! TA.AperFunction,Plated,PTH,ComponentDrill
T8C3.750
%
G90
G05
T1
X75.9Y-151.1
X75.9Y-152.1
X76.4Y-151.6
X76.9Y-151.1
X76.9Y-152.1
X92.006Y-121.1
X92.794Y-121.1
T2
X73.746Y-42.85
X77.65Y-154.1
X77.9Y-150.1
X78.15Y-153.35
X78.4Y-49.1
X78.9Y-152.6
X79.9Y-41.85
X79.9Y-44.1
X81.986Y-146.266
X84.018Y-142.71
X84.018Y-145.25
X84.018Y-147.79
X84.018Y-150.33
X84.018Y-152.87
X84.018Y-155.41
X84.018Y-157.95
X84.018Y-160.49
X89.86Y-142.71
X95.4Y-118.1
X106.9Y-47.35
X106.9Y-67.35
X106.9Y-87.35
X106.9Y-107.35
X106.9Y-127.35
X106.9Y-147.35
X106.9Y-167.35
X107.4Y-78.6
X108.15Y-46.85
X108.15Y-66.85
X108.15Y-86.85
X108.15Y-106.85
X108.15Y-126.85
X108.15Y-146.85
X108.15Y-166.85
X108.4Y-38.6
X108.4Y-58.6
X108.4Y-98.6
X108.4Y-118.6
X108.4Y-138.6
X108.4Y-158.6
X109.4Y-44.85
X109.4Y-64.85
X109.4Y-84.85
X109.4Y-104.85
X109.4Y-124.85
X109.4Y-144.85
X109.4Y-164.85
X109.9Y-24.1
X110.15Y-47.85
X110.15Y-67.85
X110.15Y-87.85
X110.15Y-107.85
X110.15Y-127.85
X110.15Y-147.85
X110.15Y-167.85
X111.366Y-50.043
X111.4Y-45.187
X111.4Y-65.187
X111.4Y-70.14
X111.4Y-85.1
X111.4Y-90.1
X111.4Y-105.187
X111.4Y-110.14
X111.4Y-125.1
X111.4Y-130.1
X111.4Y-145.187
X111.4Y-150.14
X111.4Y-165.187
X111.4Y-170.1
X111.4Y-172.6
X112.384Y-46.33
X112.384Y-66.33
X112.384Y-86.33
X112.384Y-106.33
X112.384Y-126.33
X112.384Y-146.33
X112.384Y-166.33
X113.4Y-50.6
X113.4Y-70.6
X113.4Y-90.6
X113.4Y-110.6
X113.4Y-130.6
X113.4Y-150.6
X113.4Y-170.6
X114.416Y-47.346
X114.416Y-67.346
X114.416Y-87.346
X114.416Y-107.346
X114.416Y-127.346
X114.416Y-147.346
X114.416Y-167.346
X115.559Y-50.013
X115.559Y-70.013
X115.559Y-110.013
X115.559Y-130.013
X115.559Y-150.013
X115.559Y-170.013
X115.569Y-90.013
T4
X83.51Y-47.203
X83.51Y-49.742
X83.51Y-52.282
X83.51Y-54.822
X83.51Y-57.362
X83.51Y-59.902
X83.51Y-62.442
X83.51Y-64.983
X83.51Y-67.522
X83.51Y-70.062
X83.51Y-72.602
X83.51Y-75.142
X83.51Y-77.682
X83.51Y-80.222
X83.51Y-82.763
X83.51Y-85.302
X83.51Y-87.843
X83.51Y-90.382
X83.51Y-92.922
X83.51Y-95.462
X101.29Y-47.203
X101.29Y-49.742
X101.29Y-52.282
X101.29Y-54.822
X101.29Y-57.362
X101.29Y-59.902
X101.29Y-62.442
X101.29Y-64.983
X101.29Y-67.522
X101.29Y-70.062
X101.29Y-72.602
X101.29Y-75.142
X101.29Y-77.682
X101.29Y-80.222
X101.29Y-82.763
X101.29Y-85.302
X101.29Y-87.843
X101.29Y-90.382
X101.29Y-92.922
X101.29Y-95.462
T5
X86.075Y-25.203
X87.955Y-37.472
X88.615Y-23.502
X89.225Y-34.932
X90.495Y-37.472
X91.765Y-34.932
X93.035Y-37.472
X94.305Y-34.932
X95.575Y-37.472
X96.185Y-25.203
X96.845Y-34.932
X98.725Y-23.482
X114.86Y-30.6
X119.94Y-30.6
T6
X84.525Y-31.612
X100.275Y-31.612
T7
X77.4Y-26.6
X77.4Y-176.6
X127.4Y-26.6
X127.4Y-176.6
T8
X86.685Y-28.562
X98.115Y-28.562
T3
X124.95Y-37.28G85X125.85Y-37.28
G05
X124.95Y-45.92G85X125.85Y-45.92
G05
X124.95Y-57.28G85X125.85Y-57.28
G05
X124.95Y-65.92G85X125.85Y-65.92
G05
X124.95Y-77.28G85X125.85Y-77.28
G05
X124.95Y-85.92G85X125.85Y-85.92
G05
X124.95Y-97.28G85X125.85Y-97.28
G05
X124.95Y-105.92G85X125.85Y-105.92
G05
X124.95Y-117.28G85X125.85Y-117.28
G05
X124.95Y-125.92G85X125.85Y-125.92
G05
X124.95Y-137.28G85X125.85Y-137.28
G05
X124.95Y-145.92G85X125.85Y-145.92
G05
X124.95Y-157.28G85X125.85Y-157.28
G05
X124.95Y-165.92G85X125.85Y-165.92
G05
M30
