G04 #@! TF.GenerationSoftware,KiCad,Pcbnew,7.0.11*
G04 #@! TF.CreationDate,2024-08-26T15:04:01-04:00*
G04 #@! TF.ProjectId,cluster-pcb,636c7573-7465-4722-9d70-63622e6b6963,1.1*
G04 #@! TF.SameCoordinates,Original*
G04 #@! TF.FileFunction,Copper,L3,Inr*
G04 #@! TF.FilePolarity,Positive*
%FSLAX46Y46*%
G04 Gerber Fmt 4.6, Leading zero omitted, Abs format (unit mm)*
G04 Created by KiCad (PCBNEW 7.0.11) date 2024-08-26 15:04:01*
%MOMM*%
%LPD*%
G01*
G04 APERTURE LIST*
G04 #@! TA.AperFunction,ComponentPad*
%ADD10R,2.500000X2.500000*%
G04 #@! TD*
G04 #@! TA.AperFunction,ComponentPad*
%ADD11C,2.500000*%
G04 #@! TD*
G04 #@! TA.AperFunction,ComponentPad*
%ADD12C,6.400000*%
G04 #@! TD*
G04 #@! TA.AperFunction,ComponentPad*
%ADD13C,2.250000*%
G04 #@! TD*
G04 #@! TA.AperFunction,ComponentPad*
%ADD14C,1.750000*%
G04 #@! TD*
G04 #@! TA.AperFunction,ComponentPad*
%ADD15C,4.250000*%
G04 #@! TD*
G04 #@! TA.AperFunction,ComponentPad*
%ADD16R,1.700000X1.700000*%
G04 #@! TD*
G04 #@! TA.AperFunction,ComponentPad*
%ADD17O,1.700000X1.700000*%
G04 #@! TD*
G04 #@! TA.AperFunction,ComponentPad*
%ADD18C,1.700000*%
G04 #@! TD*
G04 #@! TA.AperFunction,ViaPad*
%ADD19C,0.750000*%
G04 #@! TD*
G04 #@! TA.AperFunction,ViaPad*
%ADD20C,0.400000*%
G04 #@! TD*
G04 #@! TA.AperFunction,Conductor*
%ADD21C,0.300000*%
G04 #@! TD*
G04 APERTURE END LIST*
D10*
X114652500Y-30600000D03*
D11*
X109572500Y-30600000D03*
D12*
X127400000Y-176600000D03*
D13*
X100274998Y-31612500D03*
D14*
X98725000Y-23482500D03*
D15*
X98115000Y-28562500D03*
D14*
X96845000Y-34932500D03*
X96185000Y-25202500D03*
X95575000Y-37472500D03*
X94305000Y-34932500D03*
X93035000Y-37472500D03*
X91765000Y-34932500D03*
X90495000Y-37472500D03*
X89225000Y-34932500D03*
X88615000Y-23502500D03*
X87955000Y-37472500D03*
D15*
X86685000Y-28562500D03*
D14*
X86075000Y-25202500D03*
D13*
X84525002Y-31612500D03*
D16*
X101290000Y-95462500D03*
D17*
X101290000Y-92922500D03*
X101290000Y-90382500D03*
X101290000Y-87842500D03*
X101290000Y-85302500D03*
X101290000Y-82762500D03*
X101290000Y-80222500D03*
X101290000Y-77682500D03*
X101290000Y-75142500D03*
X101290000Y-72602500D03*
X101290000Y-70062500D03*
X101290000Y-67522500D03*
X101290000Y-64982500D03*
X101290000Y-62442500D03*
X101290000Y-59902500D03*
X101290000Y-57362500D03*
X101290000Y-54822500D03*
X101290000Y-52282500D03*
X101290000Y-49742500D03*
X101290000Y-47202500D03*
X83510000Y-47202500D03*
X83510000Y-49742500D03*
X83510000Y-52282500D03*
X83510000Y-54822500D03*
X83510000Y-57362500D03*
X83510000Y-59902500D03*
X83510000Y-62442500D03*
X83510000Y-64982500D03*
X83510000Y-67522500D03*
X83510000Y-70062500D03*
X83510000Y-72602500D03*
X83510000Y-75142500D03*
X83510000Y-77682500D03*
X83510000Y-80222500D03*
X83510000Y-82762500D03*
X83510000Y-85302500D03*
X83510000Y-87842500D03*
X83510000Y-90382500D03*
X83510000Y-92922500D03*
D18*
X83510000Y-95462500D03*
D12*
X77400000Y-26600000D03*
X127400000Y-26600000D03*
X77400000Y-176600000D03*
D19*
X125900000Y-119100000D03*
X125900000Y-140100000D03*
X122400000Y-93600000D03*
X125900000Y-159100000D03*
X125900000Y-42100000D03*
X125900000Y-120100000D03*
X125900000Y-41100000D03*
X122400000Y-73600000D03*
X125900000Y-59100000D03*
X125900000Y-142100000D03*
X125900000Y-40100000D03*
X125900000Y-39100000D03*
X125900000Y-141100000D03*
X125900000Y-139100000D03*
X125900000Y-61100000D03*
X125900000Y-81100000D03*
X79900000Y-44100000D03*
X125900000Y-122100000D03*
X125900000Y-62100000D03*
X125900000Y-60100000D03*
X125900000Y-99100000D03*
X122400000Y-133600000D03*
X125900000Y-161100000D03*
X125900000Y-121100000D03*
X125900000Y-162100000D03*
X125900000Y-100100000D03*
X125900000Y-102100000D03*
X122400000Y-53600000D03*
X125900000Y-80100000D03*
X125900000Y-160100000D03*
X125900000Y-101100000D03*
X122400000Y-113600000D03*
X122400000Y-33600000D03*
X125900000Y-79100000D03*
X125900000Y-82100000D03*
X122400000Y-153600000D03*
D20*
X118900000Y-37600000D03*
X118400000Y-38100000D03*
X118900000Y-57600000D03*
X118400000Y-58100000D03*
X119900000Y-118600000D03*
X119900000Y-98600000D03*
X119900000Y-158600000D03*
X119900000Y-38600000D03*
X119900000Y-58600000D03*
X119900000Y-78600000D03*
X119900000Y-138600000D03*
X119400000Y-117100000D03*
X119400000Y-37100000D03*
X119400000Y-57100000D03*
X119400000Y-137100000D03*
X119400000Y-77100000D03*
X119400000Y-157100000D03*
X119400000Y-97100000D03*
X118900000Y-77600000D03*
X118400000Y-78100000D03*
X118900000Y-97600000D03*
X118400000Y-98100000D03*
X118900000Y-117600000D03*
X118400000Y-118100000D03*
X118900000Y-137600000D03*
X118400000Y-138100000D03*
X118900000Y-157600000D03*
X118400000Y-158100000D03*
D19*
X123900000Y-113600000D03*
X123900000Y-73600000D03*
X123900000Y-53600000D03*
X73400000Y-93100000D03*
X123900000Y-153600000D03*
X123900000Y-133600000D03*
X123900000Y-93600000D03*
X123900000Y-33600000D03*
X120900000Y-113600000D03*
X120900000Y-33600000D03*
X120900000Y-153600000D03*
X120900000Y-53600000D03*
X120900000Y-93600000D03*
X120900000Y-73600000D03*
X120900000Y-133600000D03*
D21*
X104297500Y-47202500D02*
X101290000Y-47202500D01*
X113900000Y-37600000D02*
X104297500Y-47202500D01*
X118900000Y-37600000D02*
X113900000Y-37600000D01*
X118400000Y-38100000D02*
X114001040Y-38100000D01*
X114001040Y-38100000D02*
X102358540Y-49742500D01*
X102358540Y-49742500D02*
X101290000Y-49742500D01*
X116122500Y-54822500D02*
X101290000Y-54822500D01*
X118900000Y-57600000D02*
X116122500Y-54822500D01*
X118400000Y-58100000D02*
X117662500Y-57362500D01*
X117662500Y-57362500D02*
X101290000Y-57362500D01*
X119900000Y-58600000D02*
X119900000Y-78600000D01*
X119900000Y-98600000D02*
X119900000Y-118600000D01*
X119900000Y-138600000D02*
X119900000Y-158600000D01*
X119900000Y-78600000D02*
X119900000Y-98600000D01*
X119900000Y-118600000D02*
X119900000Y-138600000D01*
X119900000Y-38600000D02*
X119900000Y-58600000D01*
X119400000Y-117100000D02*
X119400000Y-137100000D01*
X119400000Y-77100000D02*
X119400000Y-97100000D01*
X119400000Y-57100000D02*
X119400000Y-77100000D01*
X119400000Y-97100000D02*
X119400000Y-117100000D01*
X119400000Y-37100000D02*
X119400000Y-57100000D01*
X119400000Y-157100000D02*
X119400000Y-137100000D01*
X118900000Y-77512500D02*
X101290000Y-59902500D01*
X118900000Y-77600000D02*
X118900000Y-77512500D01*
X118400000Y-78100000D02*
X118400000Y-77613540D01*
X118400000Y-77613540D02*
X103228960Y-62442500D01*
X103228960Y-62442500D02*
X101290000Y-62442500D01*
X118900000Y-97600000D02*
X116900000Y-95600000D01*
X116900000Y-83132500D02*
X101290000Y-67522500D01*
X116900000Y-95600000D02*
X116900000Y-83132500D01*
X118400000Y-98100000D02*
X116475000Y-96175000D01*
X116475000Y-85247500D02*
X101290000Y-70062500D01*
X116475000Y-96175000D02*
X116475000Y-85247500D01*
X116050000Y-87362500D02*
X101290000Y-72602500D01*
X116050000Y-96750000D02*
X116050000Y-87362500D01*
X118900000Y-99600000D02*
X116050000Y-96750000D01*
X118900000Y-117600000D02*
X118900000Y-99600000D01*
X118400000Y-99701040D02*
X115625000Y-96926040D01*
X115625000Y-89477500D02*
X101290000Y-75142500D01*
X118400000Y-118100000D02*
X118400000Y-99701040D01*
X115625000Y-96926040D02*
X115625000Y-89477500D01*
X117925000Y-118625000D02*
X117925000Y-101937500D01*
X117925000Y-101937500D02*
X101290000Y-85302500D01*
X118900000Y-137600000D02*
X118900000Y-119600000D01*
X118900000Y-119600000D02*
X117925000Y-118625000D01*
X103400000Y-88100000D02*
X101547500Y-88100000D01*
X118400000Y-138100000D02*
X118400000Y-119701040D01*
X117500000Y-102200000D02*
X103400000Y-88100000D01*
X101547500Y-88100000D02*
X101290000Y-87842500D01*
X118400000Y-119701040D02*
X117500000Y-118801040D01*
X117500000Y-118801040D02*
X117500000Y-102200000D01*
X118975000Y-139346752D02*
X117925000Y-138296752D01*
X117075000Y-108707500D02*
X101290000Y-92922500D01*
X118900000Y-156928248D02*
X118975000Y-156853248D01*
X117075000Y-118977080D02*
X117075000Y-108707500D01*
X118975000Y-156853248D02*
X118975000Y-139346752D01*
X117925000Y-138296752D02*
X117925000Y-119827080D01*
X117925000Y-119827080D02*
X117075000Y-118977080D01*
X118900000Y-157600000D02*
X118900000Y-156928248D01*
X117500000Y-120003121D02*
X117500000Y-138472793D01*
X117500000Y-138472793D02*
X118550000Y-139522792D01*
X118550000Y-139522792D02*
X118550000Y-156677207D01*
X118400000Y-156827207D02*
X118400000Y-158100000D01*
X116650000Y-108883540D02*
X116650000Y-119153121D01*
X118550000Y-156677207D02*
X118400000Y-156827207D01*
X116650000Y-119153121D02*
X117500000Y-120003121D01*
X101290000Y-95462500D02*
X103228960Y-95462500D01*
X103228960Y-95462500D02*
X116650000Y-108883540D01*
X73400000Y-93100000D02*
X73400000Y-132600000D01*
X103400000Y-162600000D02*
X119400000Y-162600000D01*
X73400000Y-132600000D02*
X103400000Y-162600000D01*
X123900000Y-158100000D02*
X123900000Y-153600000D01*
X119400000Y-162600000D02*
X123900000Y-158100000D01*
G04 #@! TA.AperFunction,Conductor*
G36*
X127402152Y-21900593D02*
G01*
X127805284Y-21918195D01*
X127813864Y-21918945D01*
X128211776Y-21971332D01*
X128220281Y-21972832D01*
X128331870Y-21997570D01*
X128612108Y-22059698D01*
X128620423Y-22061925D01*
X129003201Y-22182615D01*
X129011317Y-22185569D01*
X129382111Y-22339157D01*
X129389923Y-22342799D01*
X129622022Y-22463623D01*
X129745910Y-22528115D01*
X129753390Y-22532433D01*
X130091882Y-22748076D01*
X130098956Y-22753030D01*
X130334665Y-22933896D01*
X130417354Y-22997345D01*
X130423968Y-23002895D01*
X130719868Y-23274038D01*
X130725961Y-23280131D01*
X130929725Y-23502500D01*
X130997102Y-23576029D01*
X131002654Y-23582645D01*
X131246969Y-23901043D01*
X131251923Y-23908117D01*
X131467566Y-24246609D01*
X131471884Y-24254089D01*
X131657196Y-24610069D01*
X131660846Y-24617896D01*
X131814430Y-24988682D01*
X131817384Y-24996798D01*
X131938069Y-25379560D01*
X131940304Y-25387903D01*
X132027167Y-25779718D01*
X132028667Y-25788223D01*
X132081052Y-26186123D01*
X132081805Y-26194727D01*
X132099406Y-26597847D01*
X132099500Y-26602165D01*
X132099500Y-176597834D01*
X132099406Y-176602152D01*
X132081805Y-177005272D01*
X132081052Y-177013876D01*
X132028667Y-177411776D01*
X132027167Y-177420281D01*
X131940304Y-177812096D01*
X131938069Y-177820439D01*
X131817384Y-178203201D01*
X131814430Y-178211317D01*
X131660846Y-178582103D01*
X131657196Y-178589930D01*
X131471884Y-178945910D01*
X131467566Y-178953390D01*
X131251923Y-179291882D01*
X131246969Y-179298956D01*
X131002654Y-179617354D01*
X130997102Y-179623970D01*
X130725968Y-179919861D01*
X130719861Y-179925968D01*
X130423970Y-180197102D01*
X130417354Y-180202654D01*
X130098956Y-180446969D01*
X130091882Y-180451923D01*
X129753390Y-180667566D01*
X129745910Y-180671884D01*
X129389930Y-180857196D01*
X129382103Y-180860846D01*
X129011317Y-181014430D01*
X129003201Y-181017384D01*
X128620439Y-181138069D01*
X128612096Y-181140304D01*
X128220281Y-181227167D01*
X128211776Y-181228667D01*
X127813876Y-181281052D01*
X127805272Y-181281805D01*
X127402153Y-181299406D01*
X127397835Y-181299500D01*
X77402165Y-181299500D01*
X77397847Y-181299406D01*
X76994727Y-181281805D01*
X76986123Y-181281052D01*
X76588223Y-181228667D01*
X76579718Y-181227167D01*
X76187903Y-181140304D01*
X76179560Y-181138069D01*
X75796798Y-181017384D01*
X75788682Y-181014430D01*
X75417896Y-180860846D01*
X75410069Y-180857196D01*
X75054089Y-180671884D01*
X75046609Y-180667566D01*
X74708117Y-180451923D01*
X74701043Y-180446969D01*
X74382645Y-180202654D01*
X74376029Y-180197102D01*
X74192183Y-180028638D01*
X74080131Y-179925961D01*
X74074038Y-179919868D01*
X73802895Y-179623968D01*
X73797345Y-179617354D01*
X73790777Y-179608795D01*
X73553030Y-179298956D01*
X73548076Y-179291882D01*
X73332433Y-178953390D01*
X73328115Y-178945910D01*
X73142803Y-178589930D01*
X73139153Y-178582103D01*
X73116917Y-178528421D01*
X72985569Y-178211317D01*
X72982615Y-178203201D01*
X72927982Y-178029927D01*
X72861925Y-177820423D01*
X72859698Y-177812108D01*
X72772832Y-177420281D01*
X72771332Y-177411776D01*
X72750849Y-177256193D01*
X72718945Y-177013864D01*
X72718195Y-177005284D01*
X72700594Y-176602152D01*
X72700547Y-176600000D01*
X73994506Y-176600000D01*
X74014468Y-176968197D01*
X74074126Y-177332087D01*
X74172768Y-177687365D01*
X74172772Y-177687376D01*
X74309255Y-178029927D01*
X74401120Y-178203201D01*
X74481978Y-178355716D01*
X74688910Y-178660917D01*
X74688914Y-178660922D01*
X74688915Y-178660923D01*
X74927622Y-178941951D01*
X74927632Y-178941961D01*
X75195326Y-179195535D01*
X75195330Y-179195538D01*
X75488881Y-179418690D01*
X75804838Y-179608795D01*
X76139497Y-179763625D01*
X76488934Y-179881364D01*
X76488939Y-179881365D01*
X76488942Y-179881366D01*
X76849047Y-179960631D01*
X76849048Y-179960631D01*
X76849052Y-179960632D01*
X77215630Y-180000500D01*
X77584370Y-180000500D01*
X77950948Y-179960632D01*
X78311057Y-179881366D01*
X78311058Y-179881366D01*
X78311060Y-179881365D01*
X78311066Y-179881364D01*
X78660503Y-179763625D01*
X78995162Y-179608795D01*
X79311119Y-179418690D01*
X79604670Y-179195538D01*
X79872373Y-178941956D01*
X80111090Y-178660917D01*
X80318022Y-178355716D01*
X80490743Y-178029930D01*
X80627227Y-177687379D01*
X80725875Y-177332081D01*
X80785531Y-176968199D01*
X80805494Y-176600000D01*
X123994506Y-176600000D01*
X124014468Y-176968197D01*
X124074126Y-177332087D01*
X124172768Y-177687365D01*
X124172772Y-177687376D01*
X124309255Y-178029927D01*
X124401120Y-178203201D01*
X124481978Y-178355716D01*
X124688910Y-178660917D01*
X124688914Y-178660922D01*
X124688915Y-178660923D01*
X124927622Y-178941951D01*
X124927632Y-178941961D01*
X125195326Y-179195535D01*
X125195330Y-179195538D01*
X125488881Y-179418690D01*
X125804838Y-179608795D01*
X126139497Y-179763625D01*
X126488934Y-179881364D01*
X126488939Y-179881365D01*
X126488942Y-179881366D01*
X126849047Y-179960631D01*
X126849048Y-179960631D01*
X126849052Y-179960632D01*
X127215630Y-180000500D01*
X127584370Y-180000500D01*
X127950948Y-179960632D01*
X128311057Y-179881366D01*
X128311058Y-179881366D01*
X128311060Y-179881365D01*
X128311066Y-179881364D01*
X128660503Y-179763625D01*
X128995162Y-179608795D01*
X129311119Y-179418690D01*
X129604670Y-179195538D01*
X129872373Y-178941956D01*
X130111090Y-178660917D01*
X130318022Y-178355716D01*
X130490743Y-178029930D01*
X130627227Y-177687379D01*
X130725875Y-177332081D01*
X130785531Y-176968199D01*
X130805494Y-176600000D01*
X130785531Y-176231801D01*
X130725875Y-175867919D01*
X130627227Y-175512621D01*
X130490743Y-175170070D01*
X130318022Y-174844284D01*
X130111090Y-174539083D01*
X130091399Y-174515901D01*
X129872377Y-174258048D01*
X129872367Y-174258038D01*
X129604673Y-174004464D01*
X129311123Y-173781313D01*
X129311122Y-173781312D01*
X129311119Y-173781310D01*
X128995162Y-173591205D01*
X128880226Y-173538029D01*
X128660508Y-173436377D01*
X128660505Y-173436376D01*
X128660503Y-173436375D01*
X128311066Y-173318636D01*
X128311065Y-173318635D01*
X128311057Y-173318633D01*
X127950952Y-173239368D01*
X127950953Y-173239368D01*
X127584370Y-173199500D01*
X127215630Y-173199500D01*
X126849046Y-173239368D01*
X126488943Y-173318633D01*
X126488941Y-173318633D01*
X126139491Y-173436377D01*
X125804846Y-173591201D01*
X125804840Y-173591204D01*
X125488881Y-173781310D01*
X125488876Y-173781313D01*
X125195326Y-174004464D01*
X124927632Y-174258038D01*
X124927622Y-174258048D01*
X124688915Y-174539076D01*
X124688908Y-174539086D01*
X124481981Y-174844278D01*
X124309255Y-175170072D01*
X124172772Y-175512623D01*
X124172768Y-175512634D01*
X124074126Y-175867912D01*
X124014468Y-176231802D01*
X123994506Y-176600000D01*
X80805494Y-176600000D01*
X80785531Y-176231801D01*
X80725875Y-175867919D01*
X80627227Y-175512621D01*
X80490743Y-175170070D01*
X80318022Y-174844284D01*
X80111090Y-174539083D01*
X80091399Y-174515901D01*
X79872377Y-174258048D01*
X79872367Y-174258038D01*
X79604673Y-174004464D01*
X79311123Y-173781313D01*
X79311122Y-173781312D01*
X79311119Y-173781310D01*
X78995162Y-173591205D01*
X78880226Y-173538029D01*
X78660508Y-173436377D01*
X78660505Y-173436376D01*
X78660503Y-173436375D01*
X78311066Y-173318636D01*
X78311065Y-173318635D01*
X78311057Y-173318633D01*
X77950952Y-173239368D01*
X77950953Y-173239368D01*
X77584370Y-173199500D01*
X77215630Y-173199500D01*
X76849046Y-173239368D01*
X76488943Y-173318633D01*
X76488941Y-173318633D01*
X76139491Y-173436377D01*
X75804846Y-173591201D01*
X75804840Y-173591204D01*
X75488881Y-173781310D01*
X75488876Y-173781313D01*
X75195326Y-174004464D01*
X74927632Y-174258038D01*
X74927622Y-174258048D01*
X74688915Y-174539076D01*
X74688908Y-174539086D01*
X74481981Y-174844278D01*
X74309255Y-175170072D01*
X74172772Y-175512623D01*
X74172768Y-175512634D01*
X74074126Y-175867912D01*
X74014468Y-176231802D01*
X73994506Y-176600000D01*
X72700547Y-176600000D01*
X72700500Y-176597834D01*
X72700500Y-162100000D01*
X125319534Y-162100000D01*
X125339313Y-162250236D01*
X125397302Y-162390233D01*
X125489549Y-162510451D01*
X125609767Y-162602698D01*
X125749764Y-162660687D01*
X125862441Y-162675521D01*
X125899999Y-162680466D01*
X125900000Y-162680466D01*
X125900001Y-162680466D01*
X125930047Y-162676510D01*
X126050236Y-162660687D01*
X126190233Y-162602698D01*
X126310451Y-162510451D01*
X126402698Y-162390233D01*
X126460687Y-162250236D01*
X126480466Y-162100000D01*
X126460687Y-161949764D01*
X126402698Y-161809767D01*
X126310451Y-161689549D01*
X126296106Y-161678541D01*
X126261450Y-161628119D01*
X126263051Y-161566955D01*
X126296106Y-161521458D01*
X126310451Y-161510451D01*
X126402698Y-161390233D01*
X126460687Y-161250236D01*
X126480466Y-161100000D01*
X126460687Y-160949764D01*
X126402698Y-160809767D01*
X126310451Y-160689549D01*
X126296106Y-160678541D01*
X126261450Y-160628119D01*
X126263051Y-160566955D01*
X126296106Y-160521458D01*
X126310451Y-160510451D01*
X126402698Y-160390233D01*
X126460687Y-160250236D01*
X126480466Y-160100000D01*
X126460687Y-159949764D01*
X126402698Y-159809767D01*
X126310451Y-159689549D01*
X126296106Y-159678541D01*
X126261450Y-159628119D01*
X126263051Y-159566955D01*
X126296106Y-159521458D01*
X126310451Y-159510451D01*
X126402698Y-159390233D01*
X126460687Y-159250236D01*
X126480466Y-159100000D01*
X126460687Y-158949764D01*
X126402698Y-158809767D01*
X126310451Y-158689549D01*
X126190233Y-158597302D01*
X126050236Y-158539313D01*
X126050234Y-158539312D01*
X126050232Y-158539312D01*
X125900001Y-158519534D01*
X125899999Y-158519534D01*
X125749767Y-158539312D01*
X125749761Y-158539314D01*
X125609768Y-158597301D01*
X125489551Y-158689547D01*
X125489547Y-158689551D01*
X125397301Y-158809768D01*
X125339314Y-158949761D01*
X125339312Y-158949767D01*
X125334589Y-158985644D01*
X125319534Y-159100000D01*
X125339313Y-159250236D01*
X125397302Y-159390233D01*
X125478963Y-159496655D01*
X125489552Y-159510455D01*
X125503893Y-159521459D01*
X125538548Y-159571883D01*
X125536946Y-159633048D01*
X125503893Y-159678541D01*
X125489552Y-159689544D01*
X125397301Y-159809768D01*
X125339314Y-159949761D01*
X125339312Y-159949767D01*
X125319534Y-160099999D01*
X125319534Y-160100000D01*
X125339313Y-160250236D01*
X125397302Y-160390233D01*
X125478963Y-160496655D01*
X125489552Y-160510455D01*
X125503893Y-160521459D01*
X125538548Y-160571883D01*
X125536946Y-160633048D01*
X125503893Y-160678541D01*
X125489552Y-160689544D01*
X125397301Y-160809768D01*
X125339314Y-160949761D01*
X125339312Y-160949767D01*
X125319534Y-161099999D01*
X125319534Y-161100000D01*
X125339313Y-161250236D01*
X125397302Y-161390233D01*
X125478963Y-161496655D01*
X125489552Y-161510455D01*
X125503893Y-161521459D01*
X125538548Y-161571883D01*
X125536946Y-161633048D01*
X125503893Y-161678541D01*
X125489552Y-161689544D01*
X125397301Y-161809768D01*
X125339314Y-161949761D01*
X125339312Y-161949767D01*
X125319534Y-162099999D01*
X125319534Y-162100000D01*
X72700500Y-162100000D01*
X72700500Y-95462503D01*
X82454417Y-95462503D01*
X82474698Y-95668429D01*
X82474699Y-95668434D01*
X82534768Y-95866454D01*
X82632316Y-96048952D01*
X82763585Y-96208904D01*
X82763590Y-96208910D01*
X82763595Y-96208914D01*
X82923547Y-96340183D01*
X82923548Y-96340183D01*
X82923550Y-96340185D01*
X83106046Y-96437732D01*
X83243997Y-96479578D01*
X83304065Y-96497800D01*
X83304070Y-96497801D01*
X83509997Y-96518083D01*
X83510000Y-96518083D01*
X83510003Y-96518083D01*
X83715929Y-96497801D01*
X83715934Y-96497800D01*
X83913954Y-96437732D01*
X84096450Y-96340185D01*
X84256410Y-96208910D01*
X84387685Y-96048950D01*
X84485232Y-95866454D01*
X84545300Y-95668434D01*
X84545301Y-95668429D01*
X84565583Y-95462503D01*
X84565583Y-95462496D01*
X84545301Y-95256570D01*
X84545300Y-95256565D01*
X84527078Y-95196497D01*
X84485232Y-95058546D01*
X84387685Y-94876050D01*
X84256410Y-94716090D01*
X84246175Y-94707690D01*
X84096452Y-94584816D01*
X83913954Y-94487268D01*
X83715934Y-94427199D01*
X83715929Y-94427198D01*
X83510003Y-94406917D01*
X83509997Y-94406917D01*
X83304070Y-94427198D01*
X83304065Y-94427199D01*
X83106045Y-94487268D01*
X82923547Y-94584816D01*
X82763595Y-94716085D01*
X82763585Y-94716095D01*
X82632316Y-94876047D01*
X82534768Y-95058545D01*
X82474699Y-95256565D01*
X82474698Y-95256570D01*
X82454417Y-95462496D01*
X82454417Y-95462503D01*
X72700500Y-95462503D01*
X72700500Y-92922503D01*
X82454417Y-92922503D01*
X82474698Y-93128429D01*
X82474699Y-93128434D01*
X82534768Y-93326454D01*
X82632316Y-93508952D01*
X82707037Y-93600000D01*
X82763590Y-93668910D01*
X82763595Y-93668914D01*
X82923547Y-93800183D01*
X82923548Y-93800183D01*
X82923550Y-93800185D01*
X83106046Y-93897732D01*
X83213390Y-93930294D01*
X83304065Y-93957800D01*
X83304070Y-93957801D01*
X83509997Y-93978083D01*
X83510000Y-93978083D01*
X83510003Y-93978083D01*
X83715929Y-93957801D01*
X83715934Y-93957800D01*
X83913954Y-93897732D01*
X84096450Y-93800185D01*
X84256410Y-93668910D01*
X84387685Y-93508950D01*
X84485232Y-93326454D01*
X84545300Y-93128434D01*
X84545301Y-93128429D01*
X84565583Y-92922503D01*
X100234417Y-92922503D01*
X100254698Y-93128429D01*
X100254699Y-93128434D01*
X100314768Y-93326454D01*
X100412316Y-93508952D01*
X100487037Y-93600000D01*
X100543590Y-93668910D01*
X100543595Y-93668914D01*
X100703547Y-93800183D01*
X100703548Y-93800183D01*
X100703550Y-93800185D01*
X100886046Y-93897732D01*
X100993390Y-93930294D01*
X101084065Y-93957800D01*
X101084070Y-93957801D01*
X101289997Y-93978083D01*
X101290000Y-93978083D01*
X101290003Y-93978083D01*
X101495929Y-93957801D01*
X101495934Y-93957800D01*
X101693954Y-93897732D01*
X101693957Y-93897730D01*
X101695171Y-93897362D01*
X101756344Y-93898563D01*
X101793913Y-93922095D01*
X102114814Y-94242996D01*
X102142591Y-94297513D01*
X102133020Y-94357945D01*
X102089755Y-94401210D01*
X102044810Y-94412000D01*
X100420252Y-94412000D01*
X100420251Y-94412000D01*
X100420241Y-94412001D01*
X100361772Y-94423632D01*
X100361766Y-94423634D01*
X100295451Y-94467945D01*
X100295445Y-94467951D01*
X100251134Y-94534266D01*
X100251132Y-94534272D01*
X100239501Y-94592741D01*
X100239500Y-94592753D01*
X100239500Y-96332246D01*
X100239501Y-96332258D01*
X100251132Y-96390727D01*
X100251134Y-96390733D01*
X100295445Y-96457048D01*
X100295448Y-96457052D01*
X100361769Y-96501367D01*
X100406231Y-96510211D01*
X100420241Y-96512998D01*
X100420246Y-96512998D01*
X100420252Y-96513000D01*
X100420253Y-96513000D01*
X102159747Y-96513000D01*
X102159748Y-96513000D01*
X102218231Y-96501367D01*
X102284552Y-96457052D01*
X102328867Y-96390731D01*
X102340500Y-96332248D01*
X102340500Y-95912000D01*
X102359407Y-95853809D01*
X102408907Y-95817845D01*
X102439500Y-95813000D01*
X103042770Y-95813000D01*
X103100961Y-95831907D01*
X103112774Y-95841996D01*
X116270504Y-108999725D01*
X116298281Y-109054242D01*
X116299500Y-109069729D01*
X116299500Y-119106502D01*
X116297393Y-119126817D01*
X116294957Y-119138434D01*
X116298740Y-119168783D01*
X116299500Y-119181028D01*
X116299500Y-119182163D01*
X116302751Y-119201649D01*
X116303337Y-119205668D01*
X116308893Y-119250232D01*
X116309427Y-119254514D01*
X116311527Y-119261569D01*
X116313907Y-119268501D01*
X116337322Y-119311767D01*
X116339195Y-119315406D01*
X116360801Y-119359603D01*
X116365078Y-119365593D01*
X116369581Y-119371379D01*
X116405764Y-119404688D01*
X116408717Y-119407520D01*
X117120504Y-120119307D01*
X117148281Y-120173824D01*
X117149500Y-120189311D01*
X117149500Y-138426174D01*
X117147393Y-138446489D01*
X117144957Y-138458106D01*
X117148740Y-138488455D01*
X117149500Y-138500700D01*
X117149500Y-138501835D01*
X117152751Y-138521321D01*
X117153337Y-138525340D01*
X117155319Y-138541234D01*
X117159427Y-138574186D01*
X117161527Y-138581241D01*
X117163907Y-138588173D01*
X117187322Y-138631439D01*
X117189195Y-138635078D01*
X117210801Y-138679275D01*
X117215078Y-138685265D01*
X117219581Y-138691051D01*
X117255764Y-138724360D01*
X117258717Y-138727192D01*
X118170504Y-139638978D01*
X118198281Y-139693495D01*
X118199500Y-139708982D01*
X118199500Y-156485949D01*
X118180593Y-156544140D01*
X118164591Y-156559370D01*
X118165367Y-156560213D01*
X118159332Y-156565768D01*
X118140548Y-156589902D01*
X118132437Y-156599087D01*
X118131627Y-156599896D01*
X118131619Y-156599905D01*
X118120133Y-156615993D01*
X118117690Y-156619270D01*
X118087482Y-156658081D01*
X118083981Y-156664550D01*
X118080759Y-156671141D01*
X118066718Y-156718303D01*
X118065470Y-156722197D01*
X118049500Y-156768717D01*
X118048293Y-156775950D01*
X118047383Y-156783254D01*
X118049415Y-156832382D01*
X118049500Y-156836473D01*
X118049500Y-157881949D01*
X118038710Y-157926893D01*
X118014355Y-157974691D01*
X118014354Y-157974696D01*
X117994508Y-158099999D01*
X117994508Y-158100000D01*
X118014354Y-158225303D01*
X118014355Y-158225307D01*
X118069944Y-158334406D01*
X118071950Y-158338342D01*
X118161658Y-158428050D01*
X118274696Y-158485646D01*
X118400000Y-158505492D01*
X118525304Y-158485646D01*
X118638342Y-158428050D01*
X118728050Y-158338342D01*
X118785646Y-158225304D01*
X118805492Y-158100000D01*
X118805492Y-158099999D01*
X118806711Y-158092304D01*
X118809317Y-158092716D01*
X118824399Y-158046301D01*
X118873899Y-158010337D01*
X118892413Y-158007404D01*
X118892304Y-158006711D01*
X118900000Y-158005492D01*
X119025304Y-157985646D01*
X119138342Y-157928050D01*
X119228050Y-157838342D01*
X119285646Y-157725304D01*
X119305492Y-157600000D01*
X119306711Y-157592304D01*
X119309317Y-157592716D01*
X119324399Y-157546301D01*
X119373899Y-157510337D01*
X119392412Y-157507404D01*
X119392303Y-157506711D01*
X119399999Y-157505491D01*
X119400000Y-157505492D01*
X119435014Y-157499946D01*
X119495444Y-157509517D01*
X119538709Y-157552781D01*
X119549500Y-157597727D01*
X119549500Y-158381949D01*
X119538710Y-158426893D01*
X119514355Y-158474691D01*
X119514354Y-158474696D01*
X119494508Y-158599999D01*
X119494508Y-158600000D01*
X119514354Y-158725303D01*
X119514355Y-158725307D01*
X119557390Y-158809767D01*
X119571950Y-158838342D01*
X119661658Y-158928050D01*
X119774696Y-158985646D01*
X119900000Y-159005492D01*
X120025304Y-158985646D01*
X120138342Y-158928050D01*
X120228050Y-158838342D01*
X120285646Y-158725304D01*
X120305492Y-158600000D01*
X120285646Y-158474696D01*
X120285644Y-158474692D01*
X120285644Y-158474691D01*
X120261290Y-158426893D01*
X120250500Y-158381949D01*
X120250500Y-153990561D01*
X120269407Y-153932370D01*
X120318907Y-153896406D01*
X120380093Y-153896406D01*
X120428042Y-153930294D01*
X120474286Y-153990561D01*
X120489549Y-154010451D01*
X120609767Y-154102698D01*
X120749764Y-154160687D01*
X120862441Y-154175521D01*
X120899999Y-154180466D01*
X120900000Y-154180466D01*
X120900001Y-154180466D01*
X120930047Y-154176510D01*
X121050236Y-154160687D01*
X121190233Y-154102698D01*
X121310451Y-154010451D01*
X121402698Y-153890233D01*
X121460687Y-153750236D01*
X121480466Y-153600000D01*
X121819534Y-153600000D01*
X121839313Y-153750236D01*
X121897302Y-153890233D01*
X121989549Y-154010451D01*
X122109767Y-154102698D01*
X122249764Y-154160687D01*
X122362441Y-154175521D01*
X122399999Y-154180466D01*
X122400000Y-154180466D01*
X122400001Y-154180466D01*
X122430047Y-154176510D01*
X122550236Y-154160687D01*
X122690233Y-154102698D01*
X122810451Y-154010451D01*
X122902698Y-153890233D01*
X122960687Y-153750236D01*
X122980466Y-153600000D01*
X122960687Y-153449764D01*
X122902698Y-153309767D01*
X122810451Y-153189549D01*
X122690233Y-153097302D01*
X122550236Y-153039313D01*
X122550234Y-153039312D01*
X122550232Y-153039312D01*
X122400001Y-153019534D01*
X122399999Y-153019534D01*
X122249767Y-153039312D01*
X122249761Y-153039314D01*
X122109768Y-153097301D01*
X121989551Y-153189547D01*
X121989547Y-153189551D01*
X121897301Y-153309768D01*
X121839314Y-153449761D01*
X121839312Y-153449767D01*
X121819534Y-153599999D01*
X121819534Y-153600000D01*
X121480466Y-153600000D01*
X121460687Y-153449764D01*
X121402698Y-153309767D01*
X121310451Y-153189549D01*
X121190233Y-153097302D01*
X121050236Y-153039313D01*
X121050234Y-153039312D01*
X121050232Y-153039312D01*
X120900001Y-153019534D01*
X120899999Y-153019534D01*
X120749767Y-153039312D01*
X120749761Y-153039314D01*
X120609768Y-153097301D01*
X120489551Y-153189547D01*
X120489547Y-153189551D01*
X120428042Y-153269706D01*
X120377617Y-153304361D01*
X120316452Y-153302759D01*
X120267911Y-153265512D01*
X120250500Y-153209438D01*
X120250500Y-142100000D01*
X125319534Y-142100000D01*
X125339313Y-142250236D01*
X125397302Y-142390233D01*
X125489549Y-142510451D01*
X125609767Y-142602698D01*
X125749764Y-142660687D01*
X125862441Y-142675521D01*
X125899999Y-142680466D01*
X125900000Y-142680466D01*
X125900001Y-142680466D01*
X125930047Y-142676510D01*
X126050236Y-142660687D01*
X126190233Y-142602698D01*
X126310451Y-142510451D01*
X126402698Y-142390233D01*
X126460687Y-142250236D01*
X126480466Y-142100000D01*
X126460687Y-141949764D01*
X126402698Y-141809767D01*
X126310451Y-141689549D01*
X126296106Y-141678541D01*
X126261450Y-141628119D01*
X126263051Y-141566955D01*
X126296106Y-141521458D01*
X126310451Y-141510451D01*
X126402698Y-141390233D01*
X126460687Y-141250236D01*
X126480466Y-141100000D01*
X126460687Y-140949764D01*
X126402698Y-140809767D01*
X126310451Y-140689549D01*
X126296106Y-140678541D01*
X126261450Y-140628119D01*
X126263051Y-140566955D01*
X126296106Y-140521458D01*
X126310451Y-140510451D01*
X126402698Y-140390233D01*
X126460687Y-140250236D01*
X126480466Y-140100000D01*
X126460687Y-139949764D01*
X126402698Y-139809767D01*
X126310451Y-139689549D01*
X126296106Y-139678541D01*
X126261450Y-139628119D01*
X126263051Y-139566955D01*
X126296106Y-139521458D01*
X126310451Y-139510451D01*
X126402698Y-139390233D01*
X126460687Y-139250236D01*
X126480466Y-139100000D01*
X126460687Y-138949764D01*
X126402698Y-138809767D01*
X126310451Y-138689549D01*
X126190233Y-138597302D01*
X126050236Y-138539313D01*
X126050234Y-138539312D01*
X126050232Y-138539312D01*
X125900001Y-138519534D01*
X125899999Y-138519534D01*
X125749767Y-138539312D01*
X125749761Y-138539314D01*
X125609768Y-138597301D01*
X125489551Y-138689547D01*
X125489547Y-138689551D01*
X125397301Y-138809768D01*
X125339314Y-138949761D01*
X125339312Y-138949767D01*
X125319534Y-139099999D01*
X125319534Y-139100000D01*
X125339313Y-139250236D01*
X125397302Y-139390233D01*
X125478963Y-139496655D01*
X125489552Y-139510455D01*
X125503893Y-139521459D01*
X125538548Y-139571883D01*
X125536946Y-139633048D01*
X125503893Y-139678541D01*
X125489552Y-139689544D01*
X125397301Y-139809768D01*
X125339314Y-139949761D01*
X125339312Y-139949767D01*
X125319534Y-140099999D01*
X125319534Y-140100000D01*
X125339313Y-140250236D01*
X125397302Y-140390233D01*
X125478963Y-140496655D01*
X125489552Y-140510455D01*
X125503893Y-140521459D01*
X125538548Y-140571883D01*
X125536946Y-140633048D01*
X125503893Y-140678541D01*
X125489552Y-140689544D01*
X125397301Y-140809768D01*
X125339314Y-140949761D01*
X125339312Y-140949767D01*
X125319534Y-141099999D01*
X125319534Y-141100000D01*
X125339313Y-141250236D01*
X125397302Y-141390233D01*
X125478963Y-141496655D01*
X125489552Y-141510455D01*
X125503893Y-141521459D01*
X125538548Y-141571883D01*
X125536946Y-141633048D01*
X125503893Y-141678541D01*
X125489552Y-141689544D01*
X125397301Y-141809768D01*
X125339314Y-141949761D01*
X125339312Y-141949767D01*
X125319534Y-142099999D01*
X125319534Y-142100000D01*
X120250500Y-142100000D01*
X120250500Y-138818048D01*
X120261291Y-138773102D01*
X120285646Y-138725304D01*
X120305492Y-138600000D01*
X120285646Y-138474696D01*
X120285644Y-138474692D01*
X120285644Y-138474691D01*
X120261290Y-138426893D01*
X120250500Y-138381949D01*
X120250500Y-133990561D01*
X120269407Y-133932370D01*
X120318907Y-133896406D01*
X120380093Y-133896406D01*
X120428042Y-133930294D01*
X120474286Y-133990561D01*
X120489549Y-134010451D01*
X120609767Y-134102698D01*
X120749764Y-134160687D01*
X120862441Y-134175521D01*
X120899999Y-134180466D01*
X120900000Y-134180466D01*
X120900001Y-134180466D01*
X120930047Y-134176510D01*
X121050236Y-134160687D01*
X121190233Y-134102698D01*
X121310451Y-134010451D01*
X121402698Y-133890233D01*
X121460687Y-133750236D01*
X121480466Y-133600000D01*
X121819534Y-133600000D01*
X121839313Y-133750236D01*
X121897302Y-133890233D01*
X121989549Y-134010451D01*
X122109767Y-134102698D01*
X122249764Y-134160687D01*
X122362441Y-134175521D01*
X122399999Y-134180466D01*
X122400000Y-134180466D01*
X122400001Y-134180466D01*
X122430047Y-134176510D01*
X122550236Y-134160687D01*
X122690233Y-134102698D01*
X122810451Y-134010451D01*
X122902698Y-133890233D01*
X122960687Y-133750236D01*
X122980466Y-133600000D01*
X122960687Y-133449764D01*
X122902698Y-133309767D01*
X122810451Y-133189549D01*
X122690233Y-133097302D01*
X122550236Y-133039313D01*
X122550234Y-133039312D01*
X122550232Y-133039312D01*
X122400001Y-133019534D01*
X122399999Y-133019534D01*
X122249767Y-133039312D01*
X122249761Y-133039314D01*
X122109768Y-133097301D01*
X121989551Y-133189547D01*
X121989547Y-133189551D01*
X121897301Y-133309768D01*
X121839314Y-133449761D01*
X121839312Y-133449767D01*
X121819534Y-133599999D01*
X121819534Y-133600000D01*
X121480466Y-133600000D01*
X121460687Y-133449764D01*
X121402698Y-133309767D01*
X121310451Y-133189549D01*
X121190233Y-133097302D01*
X121050236Y-133039313D01*
X121050234Y-133039312D01*
X121050232Y-133039312D01*
X120900001Y-133019534D01*
X120899999Y-133019534D01*
X120749767Y-133039312D01*
X120749761Y-133039314D01*
X120609768Y-133097301D01*
X120489551Y-133189547D01*
X120489547Y-133189551D01*
X120428042Y-133269706D01*
X120377617Y-133304361D01*
X120316452Y-133302759D01*
X120267911Y-133265512D01*
X120250500Y-133209438D01*
X120250500Y-122100000D01*
X125319534Y-122100000D01*
X125339313Y-122250236D01*
X125397302Y-122390233D01*
X125489549Y-122510451D01*
X125609767Y-122602698D01*
X125749764Y-122660687D01*
X125862441Y-122675521D01*
X125899999Y-122680466D01*
X125900000Y-122680466D01*
X125900001Y-122680466D01*
X125930047Y-122676510D01*
X126050236Y-122660687D01*
X126190233Y-122602698D01*
X126310451Y-122510451D01*
X126402698Y-122390233D01*
X126460687Y-122250236D01*
X126480466Y-122100000D01*
X126460687Y-121949764D01*
X126402698Y-121809767D01*
X126310451Y-121689549D01*
X126296106Y-121678541D01*
X126261450Y-121628119D01*
X126263051Y-121566955D01*
X126296106Y-121521458D01*
X126310451Y-121510451D01*
X126402698Y-121390233D01*
X126460687Y-121250236D01*
X126480466Y-121100000D01*
X126460687Y-120949764D01*
X126402698Y-120809767D01*
X126310451Y-120689549D01*
X126296106Y-120678541D01*
X126261450Y-120628119D01*
X126263051Y-120566955D01*
X126296106Y-120521458D01*
X126310451Y-120510451D01*
X126402698Y-120390233D01*
X126460687Y-120250236D01*
X126480466Y-120100000D01*
X126460687Y-119949764D01*
X126402698Y-119809767D01*
X126310451Y-119689549D01*
X126296106Y-119678541D01*
X126261450Y-119628119D01*
X126263051Y-119566955D01*
X126296106Y-119521458D01*
X126310451Y-119510451D01*
X126402698Y-119390233D01*
X126460687Y-119250236D01*
X126480466Y-119100000D01*
X126460687Y-118949764D01*
X126402698Y-118809767D01*
X126310451Y-118689549D01*
X126190233Y-118597302D01*
X126050236Y-118539313D01*
X126050234Y-118539312D01*
X126050232Y-118539312D01*
X125900001Y-118519534D01*
X125899999Y-118519534D01*
X125749767Y-118539312D01*
X125749761Y-118539314D01*
X125609768Y-118597301D01*
X125489551Y-118689547D01*
X125489547Y-118689551D01*
X125397301Y-118809768D01*
X125339314Y-118949761D01*
X125339312Y-118949767D01*
X125319534Y-119099999D01*
X125319534Y-119100000D01*
X125339312Y-119250232D01*
X125339314Y-119250238D01*
X125384614Y-119359603D01*
X125397302Y-119390233D01*
X125410567Y-119407520D01*
X125489552Y-119510455D01*
X125503893Y-119521459D01*
X125538548Y-119571883D01*
X125536946Y-119633048D01*
X125503893Y-119678541D01*
X125489552Y-119689544D01*
X125397301Y-119809768D01*
X125339314Y-119949761D01*
X125339312Y-119949767D01*
X125319534Y-120099999D01*
X125319534Y-120100000D01*
X125339313Y-120250236D01*
X125397302Y-120390233D01*
X125478963Y-120496655D01*
X125489552Y-120510455D01*
X125503893Y-120521459D01*
X125538548Y-120571883D01*
X125536946Y-120633048D01*
X125503893Y-120678541D01*
X125489552Y-120689544D01*
X125397301Y-120809768D01*
X125339314Y-120949761D01*
X125339312Y-120949767D01*
X125319534Y-121099999D01*
X125319534Y-121100000D01*
X125339313Y-121250236D01*
X125397302Y-121390233D01*
X125478963Y-121496655D01*
X125489552Y-121510455D01*
X125503893Y-121521459D01*
X125538548Y-121571883D01*
X125536946Y-121633048D01*
X125503893Y-121678541D01*
X125489552Y-121689544D01*
X125397301Y-121809768D01*
X125339314Y-121949761D01*
X125339312Y-121949767D01*
X125319534Y-122099999D01*
X125319534Y-122100000D01*
X120250500Y-122100000D01*
X120250500Y-118818048D01*
X120261291Y-118773102D01*
X120285646Y-118725304D01*
X120305492Y-118600000D01*
X120285646Y-118474696D01*
X120285644Y-118474692D01*
X120285644Y-118474691D01*
X120261290Y-118426893D01*
X120250500Y-118381949D01*
X120250500Y-113990561D01*
X120269407Y-113932370D01*
X120318907Y-113896406D01*
X120380093Y-113896406D01*
X120428042Y-113930294D01*
X120474286Y-113990561D01*
X120489549Y-114010451D01*
X120609767Y-114102698D01*
X120749764Y-114160687D01*
X120862441Y-114175521D01*
X120899999Y-114180466D01*
X120900000Y-114180466D01*
X120900001Y-114180466D01*
X120930047Y-114176510D01*
X121050236Y-114160687D01*
X121190233Y-114102698D01*
X121310451Y-114010451D01*
X121402698Y-113890233D01*
X121460687Y-113750236D01*
X121480466Y-113600000D01*
X121819534Y-113600000D01*
X121839313Y-113750236D01*
X121897302Y-113890233D01*
X121989549Y-114010451D01*
X122109767Y-114102698D01*
X122249764Y-114160687D01*
X122362441Y-114175521D01*
X122399999Y-114180466D01*
X122400000Y-114180466D01*
X122400001Y-114180466D01*
X122430047Y-114176510D01*
X122550236Y-114160687D01*
X122690233Y-114102698D01*
X122810451Y-114010451D01*
X122902698Y-113890233D01*
X122960687Y-113750236D01*
X122980466Y-113600000D01*
X122960687Y-113449764D01*
X122902698Y-113309767D01*
X122810451Y-113189549D01*
X122690233Y-113097302D01*
X122550236Y-113039313D01*
X122550234Y-113039312D01*
X122550232Y-113039312D01*
X122400001Y-113019534D01*
X122399999Y-113019534D01*
X122249767Y-113039312D01*
X122249761Y-113039314D01*
X122109768Y-113097301D01*
X121989551Y-113189547D01*
X121989547Y-113189551D01*
X121897301Y-113309768D01*
X121839314Y-113449761D01*
X121839312Y-113449767D01*
X121819534Y-113599999D01*
X121819534Y-113600000D01*
X121480466Y-113600000D01*
X121460687Y-113449764D01*
X121402698Y-113309767D01*
X121310451Y-113189549D01*
X121190233Y-113097302D01*
X121050236Y-113039313D01*
X121050234Y-113039312D01*
X121050232Y-113039312D01*
X120900001Y-113019534D01*
X120899999Y-113019534D01*
X120749767Y-113039312D01*
X120749761Y-113039314D01*
X120609768Y-113097301D01*
X120489551Y-113189547D01*
X120489547Y-113189551D01*
X120428042Y-113269706D01*
X120377617Y-113304361D01*
X120316452Y-113302759D01*
X120267911Y-113265512D01*
X120250500Y-113209438D01*
X120250500Y-102100000D01*
X125319534Y-102100000D01*
X125339313Y-102250236D01*
X125397302Y-102390233D01*
X125489549Y-102510451D01*
X125609767Y-102602698D01*
X125749764Y-102660687D01*
X125862441Y-102675521D01*
X125899999Y-102680466D01*
X125900000Y-102680466D01*
X125900001Y-102680466D01*
X125930047Y-102676510D01*
X126050236Y-102660687D01*
X126190233Y-102602698D01*
X126310451Y-102510451D01*
X126402698Y-102390233D01*
X126460687Y-102250236D01*
X126480466Y-102100000D01*
X126460687Y-101949764D01*
X126402698Y-101809767D01*
X126310451Y-101689549D01*
X126296106Y-101678541D01*
X126261450Y-101628119D01*
X126263051Y-101566955D01*
X126296106Y-101521458D01*
X126310451Y-101510451D01*
X126402698Y-101390233D01*
X126460687Y-101250236D01*
X126480466Y-101100000D01*
X126460687Y-100949764D01*
X126402698Y-100809767D01*
X126310451Y-100689549D01*
X126296106Y-100678541D01*
X126261450Y-100628119D01*
X126263051Y-100566955D01*
X126296106Y-100521458D01*
X126310451Y-100510451D01*
X126402698Y-100390233D01*
X126460687Y-100250236D01*
X126480466Y-100100000D01*
X126460687Y-99949764D01*
X126402698Y-99809767D01*
X126310451Y-99689549D01*
X126296106Y-99678541D01*
X126261450Y-99628119D01*
X126263051Y-99566955D01*
X126296106Y-99521458D01*
X126310451Y-99510451D01*
X126402698Y-99390233D01*
X126460687Y-99250236D01*
X126480466Y-99100000D01*
X126460687Y-98949764D01*
X126402698Y-98809767D01*
X126310451Y-98689549D01*
X126190233Y-98597302D01*
X126050236Y-98539313D01*
X126050234Y-98539312D01*
X126050232Y-98539312D01*
X125900001Y-98519534D01*
X125899999Y-98519534D01*
X125749767Y-98539312D01*
X125749761Y-98539314D01*
X125609768Y-98597301D01*
X125489551Y-98689547D01*
X125489547Y-98689551D01*
X125397301Y-98809768D01*
X125339314Y-98949761D01*
X125339312Y-98949767D01*
X125323088Y-99073001D01*
X125319534Y-99100000D01*
X125339313Y-99250236D01*
X125397302Y-99390233D01*
X125478963Y-99496655D01*
X125489552Y-99510455D01*
X125503893Y-99521459D01*
X125538548Y-99571883D01*
X125536946Y-99633048D01*
X125503893Y-99678541D01*
X125489552Y-99689544D01*
X125397301Y-99809768D01*
X125339314Y-99949761D01*
X125339312Y-99949767D01*
X125319534Y-100099999D01*
X125319534Y-100100000D01*
X125339313Y-100250236D01*
X125397302Y-100390233D01*
X125478963Y-100496655D01*
X125489552Y-100510455D01*
X125503893Y-100521459D01*
X125538548Y-100571883D01*
X125536946Y-100633048D01*
X125503893Y-100678541D01*
X125489552Y-100689544D01*
X125397301Y-100809768D01*
X125339314Y-100949761D01*
X125339312Y-100949767D01*
X125319534Y-101099999D01*
X125319534Y-101100000D01*
X125339313Y-101250236D01*
X125397302Y-101390233D01*
X125478963Y-101496655D01*
X125489552Y-101510455D01*
X125503893Y-101521459D01*
X125538548Y-101571883D01*
X125536946Y-101633048D01*
X125503893Y-101678541D01*
X125489552Y-101689544D01*
X125397301Y-101809768D01*
X125339314Y-101949761D01*
X125339312Y-101949767D01*
X125319534Y-102099999D01*
X125319534Y-102100000D01*
X120250500Y-102100000D01*
X120250500Y-98818048D01*
X120261291Y-98773102D01*
X120285646Y-98725304D01*
X120305492Y-98600000D01*
X120285646Y-98474696D01*
X120285644Y-98474692D01*
X120285644Y-98474691D01*
X120261290Y-98426893D01*
X120250500Y-98381949D01*
X120250500Y-93990561D01*
X120269407Y-93932370D01*
X120318907Y-93896406D01*
X120380093Y-93896406D01*
X120428042Y-93930294D01*
X120474286Y-93990561D01*
X120489549Y-94010451D01*
X120609767Y-94102698D01*
X120749764Y-94160687D01*
X120862441Y-94175521D01*
X120899999Y-94180466D01*
X120900000Y-94180466D01*
X120900001Y-94180466D01*
X120930047Y-94176510D01*
X121050236Y-94160687D01*
X121190233Y-94102698D01*
X121310451Y-94010451D01*
X121402698Y-93890233D01*
X121460687Y-93750236D01*
X121480466Y-93600000D01*
X121819534Y-93600000D01*
X121839313Y-93750236D01*
X121897302Y-93890233D01*
X121989549Y-94010451D01*
X122109767Y-94102698D01*
X122249764Y-94160687D01*
X122362441Y-94175521D01*
X122399999Y-94180466D01*
X122400000Y-94180466D01*
X122400001Y-94180466D01*
X122430047Y-94176510D01*
X122550236Y-94160687D01*
X122690233Y-94102698D01*
X122810451Y-94010451D01*
X122902698Y-93890233D01*
X122960687Y-93750236D01*
X122980466Y-93600000D01*
X122960687Y-93449764D01*
X122902698Y-93309767D01*
X122810451Y-93189549D01*
X122690233Y-93097302D01*
X122550236Y-93039313D01*
X122550234Y-93039312D01*
X122550232Y-93039312D01*
X122400001Y-93019534D01*
X122399999Y-93019534D01*
X122249767Y-93039312D01*
X122249761Y-93039314D01*
X122109768Y-93097301D01*
X121989551Y-93189547D01*
X121989547Y-93189551D01*
X121897301Y-93309768D01*
X121839314Y-93449761D01*
X121839312Y-93449767D01*
X121819534Y-93599999D01*
X121819534Y-93600000D01*
X121480466Y-93600000D01*
X121460687Y-93449764D01*
X121402698Y-93309767D01*
X121310451Y-93189549D01*
X121190233Y-93097302D01*
X121050236Y-93039313D01*
X121050234Y-93039312D01*
X121050232Y-93039312D01*
X120900001Y-93019534D01*
X120899999Y-93019534D01*
X120749767Y-93039312D01*
X120749761Y-93039314D01*
X120609768Y-93097301D01*
X120489551Y-93189547D01*
X120489547Y-93189551D01*
X120428042Y-93269706D01*
X120377617Y-93304361D01*
X120316452Y-93302759D01*
X120267911Y-93265512D01*
X120250500Y-93209438D01*
X120250500Y-82100000D01*
X125319534Y-82100000D01*
X125339313Y-82250236D01*
X125397302Y-82390233D01*
X125489549Y-82510451D01*
X125609767Y-82602698D01*
X125749764Y-82660687D01*
X125862441Y-82675521D01*
X125899999Y-82680466D01*
X125900000Y-82680466D01*
X125900001Y-82680466D01*
X125930047Y-82676510D01*
X126050236Y-82660687D01*
X126190233Y-82602698D01*
X126310451Y-82510451D01*
X126402698Y-82390233D01*
X126460687Y-82250236D01*
X126480466Y-82100000D01*
X126460687Y-81949764D01*
X126402698Y-81809767D01*
X126310451Y-81689549D01*
X126296106Y-81678541D01*
X126261450Y-81628119D01*
X126263051Y-81566955D01*
X126296106Y-81521458D01*
X126310451Y-81510451D01*
X126402698Y-81390233D01*
X126460687Y-81250236D01*
X126480466Y-81100000D01*
X126460687Y-80949764D01*
X126402698Y-80809767D01*
X126310451Y-80689549D01*
X126296106Y-80678541D01*
X126261450Y-80628119D01*
X126263051Y-80566955D01*
X126296106Y-80521458D01*
X126310451Y-80510451D01*
X126402698Y-80390233D01*
X126460687Y-80250236D01*
X126480466Y-80100000D01*
X126460687Y-79949764D01*
X126402698Y-79809767D01*
X126310451Y-79689549D01*
X126296106Y-79678541D01*
X126261450Y-79628119D01*
X126263051Y-79566955D01*
X126296106Y-79521458D01*
X126310451Y-79510451D01*
X126402698Y-79390233D01*
X126460687Y-79250236D01*
X126480466Y-79100000D01*
X126460687Y-78949764D01*
X126402698Y-78809767D01*
X126310451Y-78689549D01*
X126190233Y-78597302D01*
X126050236Y-78539313D01*
X126050234Y-78539312D01*
X126050232Y-78539312D01*
X125900001Y-78519534D01*
X125899999Y-78519534D01*
X125749767Y-78539312D01*
X125749761Y-78539314D01*
X125609768Y-78597301D01*
X125489551Y-78689547D01*
X125489547Y-78689551D01*
X125397301Y-78809768D01*
X125339314Y-78949761D01*
X125339312Y-78949767D01*
X125319534Y-79099999D01*
X125319534Y-79100000D01*
X125339312Y-79250232D01*
X125339314Y-79250238D01*
X125378489Y-79344816D01*
X125397302Y-79390233D01*
X125463179Y-79476085D01*
X125489552Y-79510455D01*
X125503893Y-79521459D01*
X125538548Y-79571883D01*
X125536946Y-79633048D01*
X125503893Y-79678541D01*
X125489552Y-79689544D01*
X125397301Y-79809768D01*
X125339314Y-79949761D01*
X125339312Y-79949767D01*
X125319534Y-80099999D01*
X125319534Y-80100000D01*
X125335661Y-80222503D01*
X125339313Y-80250236D01*
X125397302Y-80390233D01*
X125426611Y-80428429D01*
X125489552Y-80510455D01*
X125503893Y-80521459D01*
X125538548Y-80571883D01*
X125536946Y-80633048D01*
X125503893Y-80678541D01*
X125489552Y-80689544D01*
X125397301Y-80809768D01*
X125339314Y-80949761D01*
X125339312Y-80949767D01*
X125319534Y-81099999D01*
X125319534Y-81100000D01*
X125332400Y-81197732D01*
X125339313Y-81250236D01*
X125397302Y-81390233D01*
X125478963Y-81496655D01*
X125489552Y-81510455D01*
X125503893Y-81521459D01*
X125538548Y-81571883D01*
X125536946Y-81633048D01*
X125503893Y-81678541D01*
X125489552Y-81689544D01*
X125397301Y-81809768D01*
X125339314Y-81949761D01*
X125339312Y-81949767D01*
X125330581Y-82016090D01*
X125319534Y-82100000D01*
X120250500Y-82100000D01*
X120250500Y-78818048D01*
X120261291Y-78773102D01*
X120285646Y-78725304D01*
X120305492Y-78600000D01*
X120285646Y-78474696D01*
X120285644Y-78474692D01*
X120285644Y-78474691D01*
X120261290Y-78426893D01*
X120250500Y-78381949D01*
X120250500Y-73990561D01*
X120269407Y-73932370D01*
X120318907Y-73896406D01*
X120380093Y-73896406D01*
X120428042Y-73930294D01*
X120474286Y-73990561D01*
X120489549Y-74010451D01*
X120609767Y-74102698D01*
X120749764Y-74160687D01*
X120862441Y-74175521D01*
X120899999Y-74180466D01*
X120900000Y-74180466D01*
X120900001Y-74180466D01*
X120930047Y-74176510D01*
X121050236Y-74160687D01*
X121190233Y-74102698D01*
X121310451Y-74010451D01*
X121402698Y-73890233D01*
X121460687Y-73750236D01*
X121480466Y-73600000D01*
X121819534Y-73600000D01*
X121824510Y-73637801D01*
X121839313Y-73750236D01*
X121897302Y-73890233D01*
X121989549Y-74010451D01*
X122109767Y-74102698D01*
X122249764Y-74160687D01*
X122362441Y-74175521D01*
X122399999Y-74180466D01*
X122400000Y-74180466D01*
X122400001Y-74180466D01*
X122430047Y-74176510D01*
X122550236Y-74160687D01*
X122690233Y-74102698D01*
X122810451Y-74010451D01*
X122902698Y-73890233D01*
X122960687Y-73750236D01*
X122980466Y-73600000D01*
X122960687Y-73449764D01*
X122902698Y-73309767D01*
X122810451Y-73189549D01*
X122690233Y-73097302D01*
X122550236Y-73039313D01*
X122550234Y-73039312D01*
X122550232Y-73039312D01*
X122400001Y-73019534D01*
X122399999Y-73019534D01*
X122249767Y-73039312D01*
X122249761Y-73039314D01*
X122109768Y-73097301D01*
X121989551Y-73189547D01*
X121989547Y-73189551D01*
X121897301Y-73309768D01*
X121839314Y-73449761D01*
X121839312Y-73449767D01*
X121819534Y-73599999D01*
X121819534Y-73600000D01*
X121480466Y-73600000D01*
X121460687Y-73449764D01*
X121402698Y-73309767D01*
X121310451Y-73189549D01*
X121190233Y-73097302D01*
X121050236Y-73039313D01*
X121050234Y-73039312D01*
X121050232Y-73039312D01*
X120900001Y-73019534D01*
X120899999Y-73019534D01*
X120749767Y-73039312D01*
X120749761Y-73039314D01*
X120609768Y-73097301D01*
X120489551Y-73189547D01*
X120489547Y-73189551D01*
X120428042Y-73269706D01*
X120377617Y-73304361D01*
X120316452Y-73302759D01*
X120267911Y-73265512D01*
X120250500Y-73209438D01*
X120250500Y-62100000D01*
X125319534Y-62100000D01*
X125337513Y-62236570D01*
X125339313Y-62250236D01*
X125397302Y-62390233D01*
X125489549Y-62510451D01*
X125609767Y-62602698D01*
X125749764Y-62660687D01*
X125862441Y-62675521D01*
X125899999Y-62680466D01*
X125900000Y-62680466D01*
X125900001Y-62680466D01*
X125930047Y-62676510D01*
X126050236Y-62660687D01*
X126190233Y-62602698D01*
X126310451Y-62510451D01*
X126402698Y-62390233D01*
X126460687Y-62250236D01*
X126480466Y-62100000D01*
X126460687Y-61949764D01*
X126402698Y-61809767D01*
X126310451Y-61689549D01*
X126296106Y-61678541D01*
X126261450Y-61628119D01*
X126263051Y-61566955D01*
X126296106Y-61521458D01*
X126310451Y-61510451D01*
X126402698Y-61390233D01*
X126460687Y-61250236D01*
X126480466Y-61100000D01*
X126460687Y-60949764D01*
X126402698Y-60809767D01*
X126310451Y-60689549D01*
X126296106Y-60678541D01*
X126261450Y-60628119D01*
X126263051Y-60566955D01*
X126296106Y-60521458D01*
X126310451Y-60510451D01*
X126402698Y-60390233D01*
X126460687Y-60250236D01*
X126480466Y-60100000D01*
X126460687Y-59949764D01*
X126402698Y-59809767D01*
X126310451Y-59689549D01*
X126296106Y-59678541D01*
X126261450Y-59628119D01*
X126263051Y-59566955D01*
X126296106Y-59521458D01*
X126310451Y-59510451D01*
X126402698Y-59390233D01*
X126460687Y-59250236D01*
X126480466Y-59100000D01*
X126460687Y-58949764D01*
X126402698Y-58809767D01*
X126310451Y-58689549D01*
X126190233Y-58597302D01*
X126050236Y-58539313D01*
X126050234Y-58539312D01*
X126050232Y-58539312D01*
X125900001Y-58519534D01*
X125899999Y-58519534D01*
X125749767Y-58539312D01*
X125749761Y-58539314D01*
X125609768Y-58597301D01*
X125489551Y-58689547D01*
X125489547Y-58689551D01*
X125397301Y-58809768D01*
X125339314Y-58949761D01*
X125339312Y-58949767D01*
X125329432Y-59024815D01*
X125319534Y-59100000D01*
X125339313Y-59250236D01*
X125397302Y-59390233D01*
X125478963Y-59496655D01*
X125489552Y-59510455D01*
X125503893Y-59521459D01*
X125538548Y-59571883D01*
X125536946Y-59633048D01*
X125503893Y-59678541D01*
X125489552Y-59689544D01*
X125397301Y-59809768D01*
X125339314Y-59949761D01*
X125339312Y-59949767D01*
X125319534Y-60099999D01*
X125319534Y-60100000D01*
X125339313Y-60250236D01*
X125397302Y-60390233D01*
X125473051Y-60488950D01*
X125489552Y-60510455D01*
X125503893Y-60521459D01*
X125538548Y-60571883D01*
X125536946Y-60633048D01*
X125503893Y-60678541D01*
X125489552Y-60689544D01*
X125397301Y-60809768D01*
X125339314Y-60949761D01*
X125339312Y-60949767D01*
X125319534Y-61099999D01*
X125319534Y-61100000D01*
X125339313Y-61250236D01*
X125397302Y-61390233D01*
X125456413Y-61467268D01*
X125489552Y-61510455D01*
X125503893Y-61521459D01*
X125538548Y-61571883D01*
X125536946Y-61633048D01*
X125503893Y-61678541D01*
X125489552Y-61689544D01*
X125397301Y-61809768D01*
X125339314Y-61949761D01*
X125339312Y-61949767D01*
X125319534Y-62099999D01*
X125319534Y-62100000D01*
X120250500Y-62100000D01*
X120250500Y-58818048D01*
X120261291Y-58773102D01*
X120285646Y-58725304D01*
X120305492Y-58600000D01*
X120285646Y-58474696D01*
X120285644Y-58474692D01*
X120285644Y-58474691D01*
X120261290Y-58426893D01*
X120250500Y-58381949D01*
X120250500Y-53990561D01*
X120269407Y-53932370D01*
X120318907Y-53896406D01*
X120380093Y-53896406D01*
X120428042Y-53930294D01*
X120474286Y-53990561D01*
X120489549Y-54010451D01*
X120609767Y-54102698D01*
X120749764Y-54160687D01*
X120862441Y-54175521D01*
X120899999Y-54180466D01*
X120900000Y-54180466D01*
X120900001Y-54180466D01*
X120930047Y-54176510D01*
X121050236Y-54160687D01*
X121190233Y-54102698D01*
X121310451Y-54010451D01*
X121402698Y-53890233D01*
X121460687Y-53750236D01*
X121480466Y-53600000D01*
X121819534Y-53600000D01*
X121839313Y-53750236D01*
X121897302Y-53890233D01*
X121989549Y-54010451D01*
X122109767Y-54102698D01*
X122249764Y-54160687D01*
X122362441Y-54175521D01*
X122399999Y-54180466D01*
X122400000Y-54180466D01*
X122400001Y-54180466D01*
X122430047Y-54176510D01*
X122550236Y-54160687D01*
X122690233Y-54102698D01*
X122810451Y-54010451D01*
X122902698Y-53890233D01*
X122960687Y-53750236D01*
X122980466Y-53600000D01*
X122960687Y-53449764D01*
X122902698Y-53309767D01*
X122810451Y-53189549D01*
X122690233Y-53097302D01*
X122550236Y-53039313D01*
X122550234Y-53039312D01*
X122550232Y-53039312D01*
X122400001Y-53019534D01*
X122399999Y-53019534D01*
X122249767Y-53039312D01*
X122249761Y-53039314D01*
X122109768Y-53097301D01*
X121989551Y-53189547D01*
X121989547Y-53189551D01*
X121897301Y-53309768D01*
X121839314Y-53449761D01*
X121839312Y-53449767D01*
X121819534Y-53599999D01*
X121819534Y-53600000D01*
X121480466Y-53600000D01*
X121460687Y-53449764D01*
X121402698Y-53309767D01*
X121310451Y-53189549D01*
X121190233Y-53097302D01*
X121050236Y-53039313D01*
X121050234Y-53039312D01*
X121050232Y-53039312D01*
X120900001Y-53019534D01*
X120899999Y-53019534D01*
X120749767Y-53039312D01*
X120749761Y-53039314D01*
X120609768Y-53097301D01*
X120489551Y-53189547D01*
X120489547Y-53189551D01*
X120428042Y-53269706D01*
X120377617Y-53304361D01*
X120316452Y-53302759D01*
X120267911Y-53265512D01*
X120250500Y-53209438D01*
X120250500Y-42100000D01*
X125319534Y-42100000D01*
X125339313Y-42250236D01*
X125397302Y-42390233D01*
X125489549Y-42510451D01*
X125609767Y-42602698D01*
X125749764Y-42660687D01*
X125862441Y-42675521D01*
X125899999Y-42680466D01*
X125900000Y-42680466D01*
X125900001Y-42680466D01*
X125930047Y-42676510D01*
X126050236Y-42660687D01*
X126190233Y-42602698D01*
X126310451Y-42510451D01*
X126402698Y-42390233D01*
X126460687Y-42250236D01*
X126480466Y-42100000D01*
X126460687Y-41949764D01*
X126402698Y-41809767D01*
X126310451Y-41689549D01*
X126296106Y-41678541D01*
X126261450Y-41628119D01*
X126263051Y-41566955D01*
X126296106Y-41521458D01*
X126310451Y-41510451D01*
X126402698Y-41390233D01*
X126460687Y-41250236D01*
X126480466Y-41100000D01*
X126460687Y-40949764D01*
X126402698Y-40809767D01*
X126310451Y-40689549D01*
X126296106Y-40678541D01*
X126261450Y-40628119D01*
X126263051Y-40566955D01*
X126296106Y-40521458D01*
X126310451Y-40510451D01*
X126402698Y-40390233D01*
X126460687Y-40250236D01*
X126480466Y-40100000D01*
X126460687Y-39949764D01*
X126402698Y-39809767D01*
X126310451Y-39689549D01*
X126296106Y-39678541D01*
X126261450Y-39628119D01*
X126263051Y-39566955D01*
X126296106Y-39521458D01*
X126310451Y-39510451D01*
X126402698Y-39390233D01*
X126460687Y-39250236D01*
X126480466Y-39100000D01*
X126460687Y-38949764D01*
X126402698Y-38809767D01*
X126310451Y-38689549D01*
X126190233Y-38597302D01*
X126050236Y-38539313D01*
X126050234Y-38539312D01*
X126050232Y-38539312D01*
X125900001Y-38519534D01*
X125899999Y-38519534D01*
X125749767Y-38539312D01*
X125749761Y-38539314D01*
X125609768Y-38597301D01*
X125489551Y-38689547D01*
X125489547Y-38689551D01*
X125397301Y-38809768D01*
X125339314Y-38949761D01*
X125339312Y-38949767D01*
X125319534Y-39099999D01*
X125319534Y-39100000D01*
X125339313Y-39250236D01*
X125397302Y-39390233D01*
X125478963Y-39496655D01*
X125489552Y-39510455D01*
X125503893Y-39521459D01*
X125538548Y-39571883D01*
X125536946Y-39633048D01*
X125503893Y-39678541D01*
X125489552Y-39689544D01*
X125397301Y-39809768D01*
X125339314Y-39949761D01*
X125339312Y-39949767D01*
X125319534Y-40099999D01*
X125319534Y-40100000D01*
X125339313Y-40250236D01*
X125397302Y-40390233D01*
X125478963Y-40496655D01*
X125489552Y-40510455D01*
X125503893Y-40521459D01*
X125538548Y-40571883D01*
X125536946Y-40633048D01*
X125503893Y-40678541D01*
X125489552Y-40689544D01*
X125397301Y-40809768D01*
X125339314Y-40949761D01*
X125339312Y-40949767D01*
X125319534Y-41099999D01*
X125319534Y-41100000D01*
X125339313Y-41250236D01*
X125397302Y-41390233D01*
X125478963Y-41496655D01*
X125489552Y-41510455D01*
X125503893Y-41521459D01*
X125538548Y-41571883D01*
X125536946Y-41633048D01*
X125503893Y-41678541D01*
X125489552Y-41689544D01*
X125397301Y-41809768D01*
X125339314Y-41949761D01*
X125339312Y-41949767D01*
X125319534Y-42099999D01*
X125319534Y-42100000D01*
X120250500Y-42100000D01*
X120250500Y-38818048D01*
X120261291Y-38773102D01*
X120285646Y-38725304D01*
X120305492Y-38600000D01*
X120285646Y-38474696D01*
X120228050Y-38361658D01*
X120138342Y-38271950D01*
X120134406Y-38269944D01*
X120025307Y-38214355D01*
X120025304Y-38214354D01*
X119900000Y-38194508D01*
X119899998Y-38194508D01*
X119864986Y-38200053D01*
X119804554Y-38190481D01*
X119761290Y-38147216D01*
X119750500Y-38102272D01*
X119750500Y-37318048D01*
X119761291Y-37273102D01*
X119765976Y-37263908D01*
X119785646Y-37225304D01*
X119805492Y-37100000D01*
X119785646Y-36974696D01*
X119728050Y-36861658D01*
X119638342Y-36771950D01*
X119585128Y-36744836D01*
X119525307Y-36714355D01*
X119525304Y-36714354D01*
X119400000Y-36694508D01*
X119274696Y-36714354D01*
X119274692Y-36714355D01*
X119161659Y-36771949D01*
X119071949Y-36861659D01*
X119014355Y-36974692D01*
X119014354Y-36974696D01*
X118993289Y-37107696D01*
X118990682Y-37107283D01*
X118975601Y-37153699D01*
X118926101Y-37189663D01*
X118907586Y-37192595D01*
X118907696Y-37193289D01*
X118774696Y-37214354D01*
X118774694Y-37214354D01*
X118726895Y-37238710D01*
X118681950Y-37249500D01*
X113946619Y-37249500D01*
X113926304Y-37247393D01*
X113914685Y-37244957D01*
X113895144Y-37247393D01*
X113884338Y-37248740D01*
X113872093Y-37249500D01*
X113870960Y-37249500D01*
X113851470Y-37252751D01*
X113847431Y-37253339D01*
X113798607Y-37259426D01*
X113791575Y-37261519D01*
X113784619Y-37263907D01*
X113741344Y-37287325D01*
X113737713Y-37289194D01*
X113693519Y-37310801D01*
X113693517Y-37310802D01*
X113693515Y-37310803D01*
X113687529Y-37315077D01*
X113681742Y-37319582D01*
X113648420Y-37355777D01*
X113645590Y-37358727D01*
X104181314Y-46823004D01*
X104126797Y-46850781D01*
X104111310Y-46852000D01*
X102353142Y-46852000D01*
X102294951Y-46833093D01*
X102265832Y-46799669D01*
X102167683Y-46616047D01*
X102036414Y-46456095D01*
X102036410Y-46456090D01*
X102036404Y-46456085D01*
X101876452Y-46324816D01*
X101693954Y-46227268D01*
X101495934Y-46167199D01*
X101495929Y-46167198D01*
X101290003Y-46146917D01*
X101289997Y-46146917D01*
X101084070Y-46167198D01*
X101084065Y-46167199D01*
X100886045Y-46227268D01*
X100703547Y-46324816D01*
X100543595Y-46456085D01*
X100543585Y-46456095D01*
X100412316Y-46616047D01*
X100314768Y-46798545D01*
X100254699Y-46996565D01*
X100254698Y-46996570D01*
X100234417Y-47202496D01*
X100234417Y-47202503D01*
X100254698Y-47408429D01*
X100254699Y-47408434D01*
X100314768Y-47606454D01*
X100412316Y-47788952D01*
X100543585Y-47948904D01*
X100543590Y-47948910D01*
X100543595Y-47948914D01*
X100703547Y-48080183D01*
X100703548Y-48080183D01*
X100703550Y-48080185D01*
X100886046Y-48177732D01*
X101023997Y-48219578D01*
X101084065Y-48237800D01*
X101084070Y-48237801D01*
X101289997Y-48258083D01*
X101290000Y-48258083D01*
X101290003Y-48258083D01*
X101495929Y-48237801D01*
X101495934Y-48237800D01*
X101693954Y-48177732D01*
X101876450Y-48080185D01*
X102036410Y-47948910D01*
X102167685Y-47788950D01*
X102265232Y-47606454D01*
X102265232Y-47606452D01*
X102265832Y-47605331D01*
X102309938Y-47562925D01*
X102353142Y-47553000D01*
X103813350Y-47553000D01*
X103871541Y-47571907D01*
X103907505Y-47621407D01*
X103907505Y-47682593D01*
X103883354Y-47722004D01*
X102360170Y-49245186D01*
X102305653Y-49272963D01*
X102245221Y-49263392D01*
X102202856Y-49221850D01*
X102167685Y-49156050D01*
X102036410Y-48996090D01*
X102036404Y-48996085D01*
X101876452Y-48864816D01*
X101693954Y-48767268D01*
X101495934Y-48707199D01*
X101495929Y-48707198D01*
X101290003Y-48686917D01*
X101289997Y-48686917D01*
X101084070Y-48707198D01*
X101084065Y-48707199D01*
X100886045Y-48767268D01*
X100703547Y-48864816D01*
X100543595Y-48996085D01*
X100543585Y-48996095D01*
X100412316Y-49156047D01*
X100314768Y-49338545D01*
X100254699Y-49536565D01*
X100254698Y-49536570D01*
X100234417Y-49742496D01*
X100234417Y-49742503D01*
X100254698Y-49948429D01*
X100254699Y-49948434D01*
X100314768Y-50146454D01*
X100412316Y-50328952D01*
X100543585Y-50488904D01*
X100543590Y-50488910D01*
X100543595Y-50488914D01*
X100703547Y-50620183D01*
X100703548Y-50620183D01*
X100703550Y-50620185D01*
X100886046Y-50717732D01*
X101023997Y-50759578D01*
X101084065Y-50777800D01*
X101084070Y-50777801D01*
X101289997Y-50798083D01*
X101290000Y-50798083D01*
X101290003Y-50798083D01*
X101495929Y-50777801D01*
X101495934Y-50777800D01*
X101693954Y-50717732D01*
X101876450Y-50620185D01*
X102036410Y-50488910D01*
X102167685Y-50328950D01*
X102263455Y-50149777D01*
X102307560Y-50107372D01*
X102338521Y-50098207D01*
X102343852Y-50097542D01*
X102343855Y-50097543D01*
X102367433Y-50094603D01*
X102374204Y-50093760D01*
X102386447Y-50093000D01*
X102387583Y-50093000D01*
X102407061Y-50089749D01*
X102411092Y-50089161D01*
X102459933Y-50083073D01*
X102459936Y-50083071D01*
X102466969Y-50080977D01*
X102473915Y-50078592D01*
X102473921Y-50078592D01*
X102517195Y-50055171D01*
X102520819Y-50053307D01*
X102565022Y-50031699D01*
X102565022Y-50031698D01*
X102565024Y-50031698D01*
X102565025Y-50031696D01*
X102571010Y-50027423D01*
X102576795Y-50022920D01*
X102576795Y-50022919D01*
X102576798Y-50022918D01*
X102610119Y-49986720D01*
X102612904Y-49983816D01*
X114117226Y-38479496D01*
X114171743Y-38451719D01*
X114187230Y-38450500D01*
X118181950Y-38450500D01*
X118226894Y-38461289D01*
X118274696Y-38485646D01*
X118400000Y-38505492D01*
X118525304Y-38485646D01*
X118638342Y-38428050D01*
X118728050Y-38338342D01*
X118785646Y-38225304D01*
X118805492Y-38100000D01*
X118806711Y-38092304D01*
X118809317Y-38092716D01*
X118824399Y-38046301D01*
X118873899Y-38010337D01*
X118892412Y-38007404D01*
X118892303Y-38006711D01*
X118899999Y-38005491D01*
X118900000Y-38005492D01*
X118935014Y-37999946D01*
X118995444Y-38009517D01*
X119038709Y-38052781D01*
X119049500Y-38097727D01*
X119049500Y-56881949D01*
X119038710Y-56926893D01*
X119014355Y-56974691D01*
X119014354Y-56974695D01*
X119011390Y-56993409D01*
X118983610Y-57047925D01*
X118929093Y-57075701D01*
X118868661Y-57066127D01*
X118843605Y-57047923D01*
X116403301Y-54607619D01*
X116390425Y-54591762D01*
X116383937Y-54581831D01*
X116359808Y-54563051D01*
X116350619Y-54554937D01*
X116349807Y-54554125D01*
X116333725Y-54542643D01*
X116330461Y-54540210D01*
X116291626Y-54509983D01*
X116291624Y-54509982D01*
X116285177Y-54506493D01*
X116278570Y-54503263D01*
X116278566Y-54503260D01*
X116231409Y-54489220D01*
X116227515Y-54487972D01*
X116180987Y-54471999D01*
X116173760Y-54470793D01*
X116166455Y-54469883D01*
X116166454Y-54469883D01*
X116166452Y-54469883D01*
X116117324Y-54471915D01*
X116113233Y-54472000D01*
X102353142Y-54472000D01*
X102294951Y-54453093D01*
X102265832Y-54419669D01*
X102167683Y-54236047D01*
X102036414Y-54076095D01*
X102036410Y-54076090D01*
X102036404Y-54076085D01*
X101876452Y-53944816D01*
X101693954Y-53847268D01*
X101495934Y-53787199D01*
X101495929Y-53787198D01*
X101290003Y-53766917D01*
X101289997Y-53766917D01*
X101084070Y-53787198D01*
X101084065Y-53787199D01*
X100886045Y-53847268D01*
X100703547Y-53944816D01*
X100543595Y-54076085D01*
X100543585Y-54076095D01*
X100412316Y-54236047D01*
X100314768Y-54418545D01*
X100254699Y-54616565D01*
X100254698Y-54616570D01*
X100234417Y-54822496D01*
X100234417Y-54822503D01*
X100254698Y-55028429D01*
X100254699Y-55028434D01*
X100314768Y-55226454D01*
X100412316Y-55408952D01*
X100543585Y-55568904D01*
X100543590Y-55568910D01*
X100543595Y-55568914D01*
X100703547Y-55700183D01*
X100703548Y-55700183D01*
X100703550Y-55700185D01*
X100886046Y-55797732D01*
X101023997Y-55839578D01*
X101084065Y-55857800D01*
X101084070Y-55857801D01*
X101289997Y-55878083D01*
X101290000Y-55878083D01*
X101290003Y-55878083D01*
X101495929Y-55857801D01*
X101495934Y-55857800D01*
X101693954Y-55797732D01*
X101876450Y-55700185D01*
X102036410Y-55568910D01*
X102167685Y-55408950D01*
X102265232Y-55226454D01*
X102265232Y-55226452D01*
X102265832Y-55225331D01*
X102309938Y-55182925D01*
X102353142Y-55173000D01*
X115936310Y-55173000D01*
X115994501Y-55191907D01*
X116006314Y-55201996D01*
X117647314Y-56842996D01*
X117675091Y-56897513D01*
X117665520Y-56957945D01*
X117622255Y-57001210D01*
X117577310Y-57012000D01*
X102353142Y-57012000D01*
X102294951Y-56993093D01*
X102265832Y-56959669D01*
X102265231Y-56958545D01*
X102167685Y-56776050D01*
X102036410Y-56616090D01*
X102036404Y-56616085D01*
X101876452Y-56484816D01*
X101693954Y-56387268D01*
X101495934Y-56327199D01*
X101495929Y-56327198D01*
X101290003Y-56306917D01*
X101289997Y-56306917D01*
X101084070Y-56327198D01*
X101084065Y-56327199D01*
X100886045Y-56387268D01*
X100703547Y-56484816D01*
X100543595Y-56616085D01*
X100543585Y-56616095D01*
X100412316Y-56776047D01*
X100314768Y-56958545D01*
X100254699Y-57156565D01*
X100254698Y-57156570D01*
X100234417Y-57362496D01*
X100234417Y-57362503D01*
X100254698Y-57568429D01*
X100254699Y-57568434D01*
X100314768Y-57766454D01*
X100412316Y-57948952D01*
X100492208Y-58046301D01*
X100543590Y-58108910D01*
X100543595Y-58108914D01*
X100703547Y-58240183D01*
X100703548Y-58240183D01*
X100703550Y-58240185D01*
X100886046Y-58337732D01*
X101023997Y-58379578D01*
X101084065Y-58397800D01*
X101084070Y-58397801D01*
X101289997Y-58418083D01*
X101290000Y-58418083D01*
X101290003Y-58418083D01*
X101495929Y-58397801D01*
X101495934Y-58397800D01*
X101693954Y-58337732D01*
X101876450Y-58240185D01*
X102036410Y-58108910D01*
X102167685Y-57948950D01*
X102265232Y-57766454D01*
X102265232Y-57766452D01*
X102265832Y-57765331D01*
X102309938Y-57722925D01*
X102353142Y-57713000D01*
X117476310Y-57713000D01*
X117534501Y-57731907D01*
X117546314Y-57741996D01*
X117990199Y-58185881D01*
X118010275Y-58218638D01*
X118010817Y-58218363D01*
X118014320Y-58225239D01*
X118014345Y-58225279D01*
X118014352Y-58225301D01*
X118071639Y-58337731D01*
X118071950Y-58338342D01*
X118161658Y-58428050D01*
X118274696Y-58485646D01*
X118400000Y-58505492D01*
X118525304Y-58485646D01*
X118638342Y-58428050D01*
X118728050Y-58338342D01*
X118785646Y-58225304D01*
X118805492Y-58100000D01*
X118806711Y-58092304D01*
X118809317Y-58092716D01*
X118824399Y-58046301D01*
X118873899Y-58010337D01*
X118892412Y-58007404D01*
X118892303Y-58006711D01*
X118899999Y-58005491D01*
X118900000Y-58005492D01*
X118935014Y-57999946D01*
X118995444Y-58009517D01*
X119038709Y-58052781D01*
X119049500Y-58097727D01*
X119049500Y-76881949D01*
X119038710Y-76926894D01*
X119023399Y-76956944D01*
X118980135Y-77000208D01*
X118919703Y-77009780D01*
X118865186Y-76982003D01*
X118865185Y-76982003D01*
X102289595Y-60406413D01*
X102261818Y-60351896D01*
X102264862Y-60307671D01*
X102265230Y-60306457D01*
X102265232Y-60306454D01*
X102325300Y-60108434D01*
X102325301Y-60108429D01*
X102345583Y-59902503D01*
X102345583Y-59902496D01*
X102325301Y-59696570D01*
X102325300Y-59696565D01*
X102285983Y-59566955D01*
X102265232Y-59498546D01*
X102167685Y-59316050D01*
X102036410Y-59156090D01*
X101968063Y-59099999D01*
X101876452Y-59024816D01*
X101693954Y-58927268D01*
X101495934Y-58867199D01*
X101495929Y-58867198D01*
X101290003Y-58846917D01*
X101289997Y-58846917D01*
X101084070Y-58867198D01*
X101084065Y-58867199D01*
X100886045Y-58927268D01*
X100703547Y-59024816D01*
X100543595Y-59156085D01*
X100543585Y-59156095D01*
X100412316Y-59316047D01*
X100314768Y-59498545D01*
X100254699Y-59696565D01*
X100254698Y-59696570D01*
X100234417Y-59902496D01*
X100234417Y-59902503D01*
X100254698Y-60108429D01*
X100254699Y-60108434D01*
X100314768Y-60306454D01*
X100412316Y-60488952D01*
X100480376Y-60571883D01*
X100543590Y-60648910D01*
X100543595Y-60648914D01*
X100703547Y-60780183D01*
X100703548Y-60780183D01*
X100703550Y-60780185D01*
X100886046Y-60877732D01*
X101023997Y-60919578D01*
X101084065Y-60937800D01*
X101084070Y-60937801D01*
X101289997Y-60958083D01*
X101290000Y-60958083D01*
X101290003Y-60958083D01*
X101495929Y-60937801D01*
X101495934Y-60937800D01*
X101693954Y-60877732D01*
X101693957Y-60877730D01*
X101695171Y-60877362D01*
X101756344Y-60878563D01*
X101793913Y-60902095D01*
X102814814Y-61922996D01*
X102842591Y-61977513D01*
X102833020Y-62037945D01*
X102789755Y-62081210D01*
X102744810Y-62092000D01*
X102353142Y-62092000D01*
X102294951Y-62073093D01*
X102265832Y-62039669D01*
X102265231Y-62038545D01*
X102167685Y-61856050D01*
X102036410Y-61696090D01*
X102015029Y-61678543D01*
X101876452Y-61564816D01*
X101693954Y-61467268D01*
X101495934Y-61407199D01*
X101495929Y-61407198D01*
X101290003Y-61386917D01*
X101289997Y-61386917D01*
X101084070Y-61407198D01*
X101084065Y-61407199D01*
X100886045Y-61467268D01*
X100703547Y-61564816D01*
X100543595Y-61696085D01*
X100543585Y-61696095D01*
X100412316Y-61856047D01*
X100314768Y-62038545D01*
X100254699Y-62236565D01*
X100254698Y-62236570D01*
X100234417Y-62442496D01*
X100234417Y-62442503D01*
X100254698Y-62648429D01*
X100254699Y-62648434D01*
X100314768Y-62846454D01*
X100412316Y-63028952D01*
X100543585Y-63188904D01*
X100543590Y-63188910D01*
X100543595Y-63188914D01*
X100703547Y-63320183D01*
X100703548Y-63320183D01*
X100703550Y-63320185D01*
X100886046Y-63417732D01*
X101023997Y-63459578D01*
X101084065Y-63477800D01*
X101084070Y-63477801D01*
X101289997Y-63498083D01*
X101290000Y-63498083D01*
X101290003Y-63498083D01*
X101495929Y-63477801D01*
X101495934Y-63477800D01*
X101693954Y-63417732D01*
X101876450Y-63320185D01*
X102036410Y-63188910D01*
X102167685Y-63028950D01*
X102265232Y-62846454D01*
X102265232Y-62846452D01*
X102265832Y-62845331D01*
X102309938Y-62802925D01*
X102353142Y-62793000D01*
X103042770Y-62793000D01*
X103100961Y-62811907D01*
X103112774Y-62821996D01*
X118020504Y-77729726D01*
X118048281Y-77784243D01*
X118049500Y-77799730D01*
X118049500Y-77881949D01*
X118038710Y-77926893D01*
X118014355Y-77974691D01*
X118014354Y-77974696D01*
X117994508Y-78099999D01*
X117994508Y-78100000D01*
X118014354Y-78225303D01*
X118014355Y-78225307D01*
X118036593Y-78268950D01*
X118071950Y-78338342D01*
X118161658Y-78428050D01*
X118274696Y-78485646D01*
X118400000Y-78505492D01*
X118525304Y-78485646D01*
X118638342Y-78428050D01*
X118728050Y-78338342D01*
X118785646Y-78225304D01*
X118805492Y-78100000D01*
X118805492Y-78099999D01*
X118806711Y-78092304D01*
X118809317Y-78092716D01*
X118824399Y-78046301D01*
X118873899Y-78010337D01*
X118892412Y-78007404D01*
X118892303Y-78006711D01*
X118899999Y-78005491D01*
X118900000Y-78005492D01*
X118935014Y-77999946D01*
X118995444Y-78009517D01*
X119038709Y-78052781D01*
X119049500Y-78097727D01*
X119049500Y-96881949D01*
X119038710Y-96926893D01*
X119014355Y-96974691D01*
X119014354Y-96974695D01*
X119011390Y-96993409D01*
X118983610Y-97047925D01*
X118929093Y-97075701D01*
X118868661Y-97066127D01*
X118843605Y-97047923D01*
X117279496Y-95483814D01*
X117251719Y-95429297D01*
X117250500Y-95413810D01*
X117250500Y-83179118D01*
X117252607Y-83158802D01*
X117252617Y-83158753D01*
X117255043Y-83147185D01*
X117251260Y-83116836D01*
X117250500Y-83104592D01*
X117250500Y-83103459D01*
X117247249Y-83083978D01*
X117246659Y-83079930D01*
X117240573Y-83031107D01*
X117240572Y-83031105D01*
X117240572Y-83031103D01*
X117238479Y-83024075D01*
X117236092Y-83017122D01*
X117236092Y-83017119D01*
X117212664Y-82973828D01*
X117210811Y-82970227D01*
X117189198Y-82926017D01*
X117189195Y-82926014D01*
X117184916Y-82920021D01*
X117180420Y-82914245D01*
X117180419Y-82914244D01*
X117180418Y-82914242D01*
X117144209Y-82880909D01*
X117141282Y-82878101D01*
X102289595Y-68026413D01*
X102261818Y-67971896D01*
X102264862Y-67927671D01*
X102265230Y-67926457D01*
X102265232Y-67926454D01*
X102325300Y-67728434D01*
X102325301Y-67728429D01*
X102345583Y-67522503D01*
X102345583Y-67522496D01*
X102325301Y-67316570D01*
X102325300Y-67316565D01*
X102307078Y-67256497D01*
X102265232Y-67118546D01*
X102167685Y-66936050D01*
X102036410Y-66776090D01*
X102036404Y-66776085D01*
X101876452Y-66644816D01*
X101693954Y-66547268D01*
X101495934Y-66487199D01*
X101495929Y-66487198D01*
X101290003Y-66466917D01*
X101289997Y-66466917D01*
X101084070Y-66487198D01*
X101084065Y-66487199D01*
X100886045Y-66547268D01*
X100703547Y-66644816D01*
X100543595Y-66776085D01*
X100543585Y-66776095D01*
X100412316Y-66936047D01*
X100314768Y-67118545D01*
X100254699Y-67316565D01*
X100254698Y-67316570D01*
X100234417Y-67522496D01*
X100234417Y-67522503D01*
X100254698Y-67728429D01*
X100254699Y-67728434D01*
X100314768Y-67926454D01*
X100412316Y-68108952D01*
X100543585Y-68268904D01*
X100543590Y-68268910D01*
X100543595Y-68268914D01*
X100703547Y-68400183D01*
X100703548Y-68400183D01*
X100703550Y-68400185D01*
X100886046Y-68497732D01*
X101023997Y-68539578D01*
X101084065Y-68557800D01*
X101084070Y-68557801D01*
X101289997Y-68578083D01*
X101290000Y-68578083D01*
X101290003Y-68578083D01*
X101495929Y-68557801D01*
X101495934Y-68557800D01*
X101693954Y-68497732D01*
X101693957Y-68497730D01*
X101695171Y-68497362D01*
X101756344Y-68498563D01*
X101793913Y-68522095D01*
X116520504Y-83248686D01*
X116548281Y-83303203D01*
X116549500Y-83318690D01*
X116549500Y-84587310D01*
X116530593Y-84645501D01*
X116481093Y-84681465D01*
X116419907Y-84681465D01*
X116380496Y-84657314D01*
X102289595Y-70566413D01*
X102261818Y-70511896D01*
X102264862Y-70467671D01*
X102265230Y-70466457D01*
X102265232Y-70466454D01*
X102325300Y-70268434D01*
X102325301Y-70268429D01*
X102345583Y-70062503D01*
X102345583Y-70062496D01*
X102325301Y-69856570D01*
X102325300Y-69856565D01*
X102307078Y-69796497D01*
X102265232Y-69658546D01*
X102167685Y-69476050D01*
X102036410Y-69316090D01*
X102036404Y-69316085D01*
X101876452Y-69184816D01*
X101693954Y-69087268D01*
X101495934Y-69027199D01*
X101495929Y-69027198D01*
X101290003Y-69006917D01*
X101289997Y-69006917D01*
X101084070Y-69027198D01*
X101084065Y-69027199D01*
X100886045Y-69087268D01*
X100703547Y-69184816D01*
X100543595Y-69316085D01*
X100543585Y-69316095D01*
X100412316Y-69476047D01*
X100314768Y-69658545D01*
X100254699Y-69856565D01*
X100254698Y-69856570D01*
X100234417Y-70062496D01*
X100234417Y-70062503D01*
X100254698Y-70268429D01*
X100254699Y-70268434D01*
X100314768Y-70466454D01*
X100412316Y-70648952D01*
X100543585Y-70808904D01*
X100543590Y-70808910D01*
X100543595Y-70808914D01*
X100703547Y-70940183D01*
X100703548Y-70940183D01*
X100703550Y-70940185D01*
X100886046Y-71037732D01*
X101023997Y-71079578D01*
X101084065Y-71097800D01*
X101084070Y-71097801D01*
X101289997Y-71118083D01*
X101290000Y-71118083D01*
X101290003Y-71118083D01*
X101495929Y-71097801D01*
X101495934Y-71097800D01*
X101693954Y-71037732D01*
X101693957Y-71037730D01*
X101695171Y-71037362D01*
X101756344Y-71038563D01*
X101793913Y-71062095D01*
X116095504Y-85363686D01*
X116123281Y-85418203D01*
X116124500Y-85433690D01*
X116124500Y-86702310D01*
X116105593Y-86760501D01*
X116056093Y-86796465D01*
X115994907Y-86796465D01*
X115955496Y-86772314D01*
X102289595Y-73106413D01*
X102261818Y-73051896D01*
X102264862Y-73007671D01*
X102265230Y-73006457D01*
X102265232Y-73006454D01*
X102325300Y-72808434D01*
X102325301Y-72808429D01*
X102345583Y-72602503D01*
X102345583Y-72602496D01*
X102325301Y-72396570D01*
X102325300Y-72396565D01*
X102307078Y-72336497D01*
X102265232Y-72198546D01*
X102167685Y-72016050D01*
X102036410Y-71856090D01*
X102036404Y-71856085D01*
X101876452Y-71724816D01*
X101693954Y-71627268D01*
X101495934Y-71567199D01*
X101495929Y-71567198D01*
X101290003Y-71546917D01*
X101289997Y-71546917D01*
X101084070Y-71567198D01*
X101084065Y-71567199D01*
X100886045Y-71627268D01*
X100703547Y-71724816D01*
X100543595Y-71856085D01*
X100543585Y-71856095D01*
X100412316Y-72016047D01*
X100314768Y-72198545D01*
X100254699Y-72396565D01*
X100254698Y-72396570D01*
X100234417Y-72602496D01*
X100234417Y-72602503D01*
X100254698Y-72808429D01*
X100254699Y-72808434D01*
X100314768Y-73006454D01*
X100412316Y-73188952D01*
X100475147Y-73265512D01*
X100543590Y-73348910D01*
X100543595Y-73348914D01*
X100703547Y-73480183D01*
X100703548Y-73480183D01*
X100703550Y-73480185D01*
X100886046Y-73577732D01*
X101023997Y-73619578D01*
X101084065Y-73637800D01*
X101084070Y-73637801D01*
X101289997Y-73658083D01*
X101290000Y-73658083D01*
X101290003Y-73658083D01*
X101495929Y-73637801D01*
X101495934Y-73637800D01*
X101693954Y-73577732D01*
X101693957Y-73577730D01*
X101695171Y-73577362D01*
X101756344Y-73578563D01*
X101793913Y-73602095D01*
X115670504Y-87478686D01*
X115698281Y-87533203D01*
X115699500Y-87548690D01*
X115699500Y-88817310D01*
X115680593Y-88875501D01*
X115631093Y-88911465D01*
X115569907Y-88911465D01*
X115530496Y-88887314D01*
X102289595Y-75646413D01*
X102261818Y-75591896D01*
X102264862Y-75547671D01*
X102265230Y-75546457D01*
X102265232Y-75546454D01*
X102325300Y-75348434D01*
X102325301Y-75348429D01*
X102345583Y-75142503D01*
X102345583Y-75142496D01*
X102325301Y-74936570D01*
X102325300Y-74936565D01*
X102307078Y-74876497D01*
X102265232Y-74738546D01*
X102167685Y-74556050D01*
X102036410Y-74396090D01*
X102036404Y-74396085D01*
X101876452Y-74264816D01*
X101693954Y-74167268D01*
X101495934Y-74107199D01*
X101495929Y-74107198D01*
X101290003Y-74086917D01*
X101289997Y-74086917D01*
X101084070Y-74107198D01*
X101084065Y-74107199D01*
X100886045Y-74167268D01*
X100703547Y-74264816D01*
X100543595Y-74396085D01*
X100543585Y-74396095D01*
X100412316Y-74556047D01*
X100314768Y-74738545D01*
X100254699Y-74936565D01*
X100254698Y-74936570D01*
X100234417Y-75142496D01*
X100234417Y-75142503D01*
X100254698Y-75348429D01*
X100254699Y-75348434D01*
X100314768Y-75546454D01*
X100412316Y-75728952D01*
X100543585Y-75888904D01*
X100543590Y-75888910D01*
X100543595Y-75888914D01*
X100703547Y-76020183D01*
X100703548Y-76020183D01*
X100703550Y-76020185D01*
X100886046Y-76117732D01*
X101023997Y-76159578D01*
X101084065Y-76177800D01*
X101084070Y-76177801D01*
X101289997Y-76198083D01*
X101290000Y-76198083D01*
X101290003Y-76198083D01*
X101495929Y-76177801D01*
X101495934Y-76177800D01*
X101693954Y-76117732D01*
X101693957Y-76117730D01*
X101695171Y-76117362D01*
X101756344Y-76118563D01*
X101793913Y-76142095D01*
X115245504Y-89593686D01*
X115273281Y-89648203D01*
X115274500Y-89663690D01*
X115274500Y-96879421D01*
X115272393Y-96899736D01*
X115269957Y-96911353D01*
X115273740Y-96941702D01*
X115274500Y-96953947D01*
X115274500Y-96955082D01*
X115277751Y-96974568D01*
X115278337Y-96978587D01*
X115280185Y-96993409D01*
X115284427Y-97027433D01*
X115286527Y-97034488D01*
X115288907Y-97041420D01*
X115312322Y-97084686D01*
X115314195Y-97088325D01*
X115335801Y-97132522D01*
X115340078Y-97138512D01*
X115344581Y-97144298D01*
X115380764Y-97177607D01*
X115383717Y-97180439D01*
X118020504Y-99817226D01*
X118048281Y-99871743D01*
X118049500Y-99887230D01*
X118049500Y-101327310D01*
X118030593Y-101385501D01*
X117981093Y-101421465D01*
X117919907Y-101421465D01*
X117880496Y-101397314D01*
X102289595Y-85806413D01*
X102261818Y-85751896D01*
X102264862Y-85707671D01*
X102265230Y-85706457D01*
X102265232Y-85706454D01*
X102325300Y-85508434D01*
X102325301Y-85508429D01*
X102345583Y-85302503D01*
X102345583Y-85302496D01*
X102325301Y-85096570D01*
X102325300Y-85096565D01*
X102307078Y-85036497D01*
X102265232Y-84898546D01*
X102167685Y-84716050D01*
X102036410Y-84556090D01*
X102036404Y-84556085D01*
X101876452Y-84424816D01*
X101693954Y-84327268D01*
X101495934Y-84267199D01*
X101495929Y-84267198D01*
X101290003Y-84246917D01*
X101289997Y-84246917D01*
X101084070Y-84267198D01*
X101084065Y-84267199D01*
X100886045Y-84327268D01*
X100703547Y-84424816D01*
X100543595Y-84556085D01*
X100543585Y-84556095D01*
X100412316Y-84716047D01*
X100314768Y-84898545D01*
X100254699Y-85096565D01*
X100254698Y-85096570D01*
X100234417Y-85302496D01*
X100234417Y-85302503D01*
X100254698Y-85508429D01*
X100254699Y-85508434D01*
X100314768Y-85706454D01*
X100412316Y-85888952D01*
X100543585Y-86048904D01*
X100543590Y-86048910D01*
X100543595Y-86048914D01*
X100703547Y-86180183D01*
X100703548Y-86180183D01*
X100703550Y-86180185D01*
X100886046Y-86277732D01*
X101023997Y-86319578D01*
X101084065Y-86337800D01*
X101084070Y-86337801D01*
X101289997Y-86358083D01*
X101290000Y-86358083D01*
X101290003Y-86358083D01*
X101495929Y-86337801D01*
X101495934Y-86337800D01*
X101693954Y-86277732D01*
X101693957Y-86277730D01*
X101695171Y-86277362D01*
X101756344Y-86278563D01*
X101793913Y-86302095D01*
X103072314Y-87580496D01*
X103100091Y-87635013D01*
X103090520Y-87695445D01*
X103047255Y-87738710D01*
X103002310Y-87749500D01*
X102426152Y-87749500D01*
X102367961Y-87730593D01*
X102331997Y-87681093D01*
X102327629Y-87660204D01*
X102325301Y-87636571D01*
X102325300Y-87636565D01*
X102298643Y-87548690D01*
X102265232Y-87438546D01*
X102167685Y-87256050D01*
X102036410Y-87096090D01*
X102036404Y-87096085D01*
X101876452Y-86964816D01*
X101693954Y-86867268D01*
X101495934Y-86807199D01*
X101495929Y-86807198D01*
X101290003Y-86786917D01*
X101289997Y-86786917D01*
X101084070Y-86807198D01*
X101084065Y-86807199D01*
X100886045Y-86867268D01*
X100703547Y-86964816D01*
X100543595Y-87096085D01*
X100543585Y-87096095D01*
X100412316Y-87256047D01*
X100314768Y-87438545D01*
X100254699Y-87636565D01*
X100254698Y-87636570D01*
X100234417Y-87842496D01*
X100234417Y-87842503D01*
X100254698Y-88048429D01*
X100254699Y-88048434D01*
X100314768Y-88246454D01*
X100412316Y-88428952D01*
X100543585Y-88588904D01*
X100543590Y-88588910D01*
X100543595Y-88588914D01*
X100703547Y-88720183D01*
X100703548Y-88720183D01*
X100703550Y-88720185D01*
X100886046Y-88817732D01*
X101023997Y-88859578D01*
X101084065Y-88877800D01*
X101084070Y-88877801D01*
X101289997Y-88898083D01*
X101290000Y-88898083D01*
X101290003Y-88898083D01*
X101495929Y-88877801D01*
X101495934Y-88877800D01*
X101503513Y-88875501D01*
X101693954Y-88817732D01*
X101876450Y-88720185D01*
X102036410Y-88588910D01*
X102120295Y-88486695D01*
X102171826Y-88453708D01*
X102196823Y-88450500D01*
X103213810Y-88450500D01*
X103272001Y-88469407D01*
X103283814Y-88479496D01*
X117120504Y-102316186D01*
X117148281Y-102370703D01*
X117149500Y-102386190D01*
X117149500Y-108047310D01*
X117130593Y-108105501D01*
X117081093Y-108141465D01*
X117019907Y-108141465D01*
X116980496Y-108117314D01*
X102289595Y-93426413D01*
X102261818Y-93371896D01*
X102264862Y-93327671D01*
X102265230Y-93326457D01*
X102265232Y-93326454D01*
X102325300Y-93128434D01*
X102325301Y-93128429D01*
X102345583Y-92922503D01*
X102345583Y-92922496D01*
X102325301Y-92716570D01*
X102325300Y-92716565D01*
X102307078Y-92656497D01*
X102265232Y-92518546D01*
X102167685Y-92336050D01*
X102036410Y-92176090D01*
X102036404Y-92176085D01*
X101876452Y-92044816D01*
X101693954Y-91947268D01*
X101495934Y-91887199D01*
X101495929Y-91887198D01*
X101290003Y-91866917D01*
X101289997Y-91866917D01*
X101084070Y-91887198D01*
X101084065Y-91887199D01*
X100886045Y-91947268D01*
X100703547Y-92044816D01*
X100543595Y-92176085D01*
X100543585Y-92176095D01*
X100412316Y-92336047D01*
X100314768Y-92518545D01*
X100254699Y-92716565D01*
X100254698Y-92716570D01*
X100234417Y-92922496D01*
X100234417Y-92922503D01*
X84565583Y-92922503D01*
X84565583Y-92922496D01*
X84545301Y-92716570D01*
X84545300Y-92716565D01*
X84527078Y-92656497D01*
X84485232Y-92518546D01*
X84387685Y-92336050D01*
X84256410Y-92176090D01*
X84256404Y-92176085D01*
X84096452Y-92044816D01*
X83913954Y-91947268D01*
X83715934Y-91887199D01*
X83715929Y-91887198D01*
X83510003Y-91866917D01*
X83509997Y-91866917D01*
X83304070Y-91887198D01*
X83304065Y-91887199D01*
X83106045Y-91947268D01*
X82923547Y-92044816D01*
X82763595Y-92176085D01*
X82763585Y-92176095D01*
X82632316Y-92336047D01*
X82534768Y-92518545D01*
X82474699Y-92716565D01*
X82474698Y-92716570D01*
X82454417Y-92922496D01*
X82454417Y-92922503D01*
X72700500Y-92922503D01*
X72700500Y-90382503D01*
X82454417Y-90382503D01*
X82474698Y-90588429D01*
X82474699Y-90588434D01*
X82534768Y-90786454D01*
X82632316Y-90968952D01*
X82763585Y-91128904D01*
X82763590Y-91128910D01*
X82763595Y-91128914D01*
X82923547Y-91260183D01*
X82923548Y-91260183D01*
X82923550Y-91260185D01*
X83106046Y-91357732D01*
X83243997Y-91399578D01*
X83304065Y-91417800D01*
X83304070Y-91417801D01*
X83509997Y-91438083D01*
X83510000Y-91438083D01*
X83510003Y-91438083D01*
X83715929Y-91417801D01*
X83715934Y-91417800D01*
X83913954Y-91357732D01*
X84096450Y-91260185D01*
X84256410Y-91128910D01*
X84387685Y-90968950D01*
X84485232Y-90786454D01*
X84545300Y-90588434D01*
X84545301Y-90588429D01*
X84565583Y-90382503D01*
X100234417Y-90382503D01*
X100254698Y-90588429D01*
X100254699Y-90588434D01*
X100314768Y-90786454D01*
X100412316Y-90968952D01*
X100543585Y-91128904D01*
X100543590Y-91128910D01*
X100543595Y-91128914D01*
X100703547Y-91260183D01*
X100703548Y-91260183D01*
X100703550Y-91260185D01*
X100886046Y-91357732D01*
X101023997Y-91399578D01*
X101084065Y-91417800D01*
X101084070Y-91417801D01*
X101289997Y-91438083D01*
X101290000Y-91438083D01*
X101290003Y-91438083D01*
X101495929Y-91417801D01*
X101495934Y-91417800D01*
X101693954Y-91357732D01*
X101876450Y-91260185D01*
X102036410Y-91128910D01*
X102167685Y-90968950D01*
X102265232Y-90786454D01*
X102325300Y-90588434D01*
X102325301Y-90588429D01*
X102345583Y-90382503D01*
X102345583Y-90382496D01*
X102325301Y-90176570D01*
X102325300Y-90176565D01*
X102307078Y-90116497D01*
X102265232Y-89978546D01*
X102167685Y-89796050D01*
X102036410Y-89636090D01*
X102020072Y-89622682D01*
X101876452Y-89504816D01*
X101693954Y-89407268D01*
X101495934Y-89347199D01*
X101495929Y-89347198D01*
X101290003Y-89326917D01*
X101289997Y-89326917D01*
X101084070Y-89347198D01*
X101084065Y-89347199D01*
X100886045Y-89407268D01*
X100703547Y-89504816D01*
X100543595Y-89636085D01*
X100543585Y-89636095D01*
X100412316Y-89796047D01*
X100314768Y-89978545D01*
X100254699Y-90176565D01*
X100254698Y-90176570D01*
X100234417Y-90382496D01*
X100234417Y-90382503D01*
X84565583Y-90382503D01*
X84565583Y-90382496D01*
X84545301Y-90176570D01*
X84545300Y-90176565D01*
X84527078Y-90116497D01*
X84485232Y-89978546D01*
X84387685Y-89796050D01*
X84256410Y-89636090D01*
X84240072Y-89622682D01*
X84096452Y-89504816D01*
X83913954Y-89407268D01*
X83715934Y-89347199D01*
X83715929Y-89347198D01*
X83510003Y-89326917D01*
X83509997Y-89326917D01*
X83304070Y-89347198D01*
X83304065Y-89347199D01*
X83106045Y-89407268D01*
X82923547Y-89504816D01*
X82763595Y-89636085D01*
X82763585Y-89636095D01*
X82632316Y-89796047D01*
X82534768Y-89978545D01*
X82474699Y-90176565D01*
X82474698Y-90176570D01*
X82454417Y-90382496D01*
X82454417Y-90382503D01*
X72700500Y-90382503D01*
X72700500Y-87842503D01*
X82454417Y-87842503D01*
X82474698Y-88048429D01*
X82474699Y-88048434D01*
X82534768Y-88246454D01*
X82632316Y-88428952D01*
X82763585Y-88588904D01*
X82763590Y-88588910D01*
X82763595Y-88588914D01*
X82923547Y-88720183D01*
X82923548Y-88720183D01*
X82923550Y-88720185D01*
X83106046Y-88817732D01*
X83243997Y-88859578D01*
X83304065Y-88877800D01*
X83304070Y-88877801D01*
X83509997Y-88898083D01*
X83510000Y-88898083D01*
X83510003Y-88898083D01*
X83715929Y-88877801D01*
X83715934Y-88877800D01*
X83723513Y-88875501D01*
X83913954Y-88817732D01*
X84096450Y-88720185D01*
X84256410Y-88588910D01*
X84387685Y-88428950D01*
X84485232Y-88246454D01*
X84545300Y-88048434D01*
X84545301Y-88048429D01*
X84565583Y-87842503D01*
X84565583Y-87842496D01*
X84545301Y-87636570D01*
X84545300Y-87636565D01*
X84518643Y-87548690D01*
X84485232Y-87438546D01*
X84387685Y-87256050D01*
X84256410Y-87096090D01*
X84256404Y-87096085D01*
X84096452Y-86964816D01*
X83913954Y-86867268D01*
X83715934Y-86807199D01*
X83715929Y-86807198D01*
X83510003Y-86786917D01*
X83509997Y-86786917D01*
X83304070Y-86807198D01*
X83304065Y-86807199D01*
X83106045Y-86867268D01*
X82923547Y-86964816D01*
X82763595Y-87096085D01*
X82763585Y-87096095D01*
X82632316Y-87256047D01*
X82534768Y-87438545D01*
X82474699Y-87636565D01*
X82474698Y-87636570D01*
X82454417Y-87842496D01*
X82454417Y-87842503D01*
X72700500Y-87842503D01*
X72700500Y-85302503D01*
X82454417Y-85302503D01*
X82474698Y-85508429D01*
X82474699Y-85508434D01*
X82534768Y-85706454D01*
X82632316Y-85888952D01*
X82763585Y-86048904D01*
X82763590Y-86048910D01*
X82763595Y-86048914D01*
X82923547Y-86180183D01*
X82923548Y-86180183D01*
X82923550Y-86180185D01*
X83106046Y-86277732D01*
X83243997Y-86319578D01*
X83304065Y-86337800D01*
X83304070Y-86337801D01*
X83509997Y-86358083D01*
X83510000Y-86358083D01*
X83510003Y-86358083D01*
X83715929Y-86337801D01*
X83715934Y-86337800D01*
X83913954Y-86277732D01*
X84096450Y-86180185D01*
X84256410Y-86048910D01*
X84387685Y-85888950D01*
X84485232Y-85706454D01*
X84545300Y-85508434D01*
X84545301Y-85508429D01*
X84565583Y-85302503D01*
X84565583Y-85302496D01*
X84545301Y-85096570D01*
X84545300Y-85096565D01*
X84527078Y-85036497D01*
X84485232Y-84898546D01*
X84387685Y-84716050D01*
X84256410Y-84556090D01*
X84256404Y-84556085D01*
X84096452Y-84424816D01*
X83913954Y-84327268D01*
X83715934Y-84267199D01*
X83715929Y-84267198D01*
X83510003Y-84246917D01*
X83509997Y-84246917D01*
X83304070Y-84267198D01*
X83304065Y-84267199D01*
X83106045Y-84327268D01*
X82923547Y-84424816D01*
X82763595Y-84556085D01*
X82763585Y-84556095D01*
X82632316Y-84716047D01*
X82534768Y-84898545D01*
X82474699Y-85096565D01*
X82474698Y-85096570D01*
X82454417Y-85302496D01*
X82454417Y-85302503D01*
X72700500Y-85302503D01*
X72700500Y-82762503D01*
X82454417Y-82762503D01*
X82474698Y-82968429D01*
X82474699Y-82968434D01*
X82534768Y-83166454D01*
X82632316Y-83348952D01*
X82763585Y-83508904D01*
X82763590Y-83508910D01*
X82763595Y-83508914D01*
X82923547Y-83640183D01*
X82923548Y-83640183D01*
X82923550Y-83640185D01*
X83106046Y-83737732D01*
X83243997Y-83779578D01*
X83304065Y-83797800D01*
X83304070Y-83797801D01*
X83509997Y-83818083D01*
X83510000Y-83818083D01*
X83510003Y-83818083D01*
X83715929Y-83797801D01*
X83715934Y-83797800D01*
X83913954Y-83737732D01*
X84096450Y-83640185D01*
X84256410Y-83508910D01*
X84387685Y-83348950D01*
X84485232Y-83166454D01*
X84545300Y-82968434D01*
X84545301Y-82968429D01*
X84565583Y-82762503D01*
X100234417Y-82762503D01*
X100254698Y-82968429D01*
X100254699Y-82968434D01*
X100314768Y-83166454D01*
X100412316Y-83348952D01*
X100543585Y-83508904D01*
X100543590Y-83508910D01*
X100543595Y-83508914D01*
X100703547Y-83640183D01*
X100703548Y-83640183D01*
X100703550Y-83640185D01*
X100886046Y-83737732D01*
X101023997Y-83779578D01*
X101084065Y-83797800D01*
X101084070Y-83797801D01*
X101289997Y-83818083D01*
X101290000Y-83818083D01*
X101290003Y-83818083D01*
X101495929Y-83797801D01*
X101495934Y-83797800D01*
X101693954Y-83737732D01*
X101876450Y-83640185D01*
X102036410Y-83508910D01*
X102167685Y-83348950D01*
X102265232Y-83166454D01*
X102325300Y-82968434D01*
X102325301Y-82968429D01*
X102345583Y-82762503D01*
X102345583Y-82762496D01*
X102325301Y-82556570D01*
X102325300Y-82556565D01*
X102307078Y-82496497D01*
X102265232Y-82358546D01*
X102167685Y-82176050D01*
X102036410Y-82016090D01*
X101955591Y-81949764D01*
X101876452Y-81884816D01*
X101693954Y-81787268D01*
X101495934Y-81727199D01*
X101495929Y-81727198D01*
X101290003Y-81706917D01*
X101289997Y-81706917D01*
X101084070Y-81727198D01*
X101084065Y-81727199D01*
X100886045Y-81787268D01*
X100703547Y-81884816D01*
X100543595Y-82016085D01*
X100543585Y-82016095D01*
X100412316Y-82176047D01*
X100314768Y-82358545D01*
X100254699Y-82556565D01*
X100254698Y-82556570D01*
X100234417Y-82762496D01*
X100234417Y-82762503D01*
X84565583Y-82762503D01*
X84565583Y-82762496D01*
X84545301Y-82556570D01*
X84545300Y-82556565D01*
X84527078Y-82496497D01*
X84485232Y-82358546D01*
X84387685Y-82176050D01*
X84256410Y-82016090D01*
X84175591Y-81949764D01*
X84096452Y-81884816D01*
X83913954Y-81787268D01*
X83715934Y-81727199D01*
X83715929Y-81727198D01*
X83510003Y-81706917D01*
X83509997Y-81706917D01*
X83304070Y-81727198D01*
X83304065Y-81727199D01*
X83106045Y-81787268D01*
X82923547Y-81884816D01*
X82763595Y-82016085D01*
X82763585Y-82016095D01*
X82632316Y-82176047D01*
X82534768Y-82358545D01*
X82474699Y-82556565D01*
X82474698Y-82556570D01*
X82454417Y-82762496D01*
X82454417Y-82762503D01*
X72700500Y-82762503D01*
X72700500Y-80222503D01*
X82454417Y-80222503D01*
X82474698Y-80428429D01*
X82474699Y-80428434D01*
X82534768Y-80626454D01*
X82632316Y-80808952D01*
X82632985Y-80809767D01*
X82763590Y-80968910D01*
X82763595Y-80968914D01*
X82923547Y-81100183D01*
X82923548Y-81100183D01*
X82923550Y-81100185D01*
X83106046Y-81197732D01*
X83243997Y-81239578D01*
X83304065Y-81257800D01*
X83304070Y-81257801D01*
X83509997Y-81278083D01*
X83510000Y-81278083D01*
X83510003Y-81278083D01*
X83715929Y-81257801D01*
X83715934Y-81257800D01*
X83913954Y-81197732D01*
X84096450Y-81100185D01*
X84256410Y-80968910D01*
X84387685Y-80808950D01*
X84485232Y-80626454D01*
X84545300Y-80428434D01*
X84545301Y-80428429D01*
X84565583Y-80222503D01*
X100234417Y-80222503D01*
X100254698Y-80428429D01*
X100254699Y-80428434D01*
X100314768Y-80626454D01*
X100412316Y-80808952D01*
X100412985Y-80809767D01*
X100543590Y-80968910D01*
X100543595Y-80968914D01*
X100703547Y-81100183D01*
X100703548Y-81100183D01*
X100703550Y-81100185D01*
X100886046Y-81197732D01*
X101023997Y-81239578D01*
X101084065Y-81257800D01*
X101084070Y-81257801D01*
X101289997Y-81278083D01*
X101290000Y-81278083D01*
X101290003Y-81278083D01*
X101495929Y-81257801D01*
X101495934Y-81257800D01*
X101693954Y-81197732D01*
X101876450Y-81100185D01*
X102036410Y-80968910D01*
X102167685Y-80808950D01*
X102265232Y-80626454D01*
X102325300Y-80428434D01*
X102325301Y-80428429D01*
X102345583Y-80222503D01*
X102345583Y-80222496D01*
X102325301Y-80016570D01*
X102325300Y-80016565D01*
X102305035Y-79949761D01*
X102265232Y-79818546D01*
X102167685Y-79636050D01*
X102165221Y-79633048D01*
X102036414Y-79476095D01*
X102036410Y-79476090D01*
X102036404Y-79476085D01*
X101876452Y-79344816D01*
X101693954Y-79247268D01*
X101495934Y-79187199D01*
X101495929Y-79187198D01*
X101290003Y-79166917D01*
X101289997Y-79166917D01*
X101084070Y-79187198D01*
X101084065Y-79187199D01*
X100886045Y-79247268D01*
X100703547Y-79344816D01*
X100543595Y-79476085D01*
X100543585Y-79476095D01*
X100412316Y-79636047D01*
X100314768Y-79818545D01*
X100254699Y-80016565D01*
X100254698Y-80016570D01*
X100234417Y-80222496D01*
X100234417Y-80222503D01*
X84565583Y-80222503D01*
X84565583Y-80222496D01*
X84545301Y-80016570D01*
X84545300Y-80016565D01*
X84525035Y-79949761D01*
X84485232Y-79818546D01*
X84387685Y-79636050D01*
X84385221Y-79633048D01*
X84256414Y-79476095D01*
X84256410Y-79476090D01*
X84256404Y-79476085D01*
X84096452Y-79344816D01*
X83913954Y-79247268D01*
X83715934Y-79187199D01*
X83715929Y-79187198D01*
X83510003Y-79166917D01*
X83509997Y-79166917D01*
X83304070Y-79187198D01*
X83304065Y-79187199D01*
X83106045Y-79247268D01*
X82923547Y-79344816D01*
X82763595Y-79476085D01*
X82763585Y-79476095D01*
X82632316Y-79636047D01*
X82534768Y-79818545D01*
X82474699Y-80016565D01*
X82474698Y-80016570D01*
X82454417Y-80222496D01*
X82454417Y-80222503D01*
X72700500Y-80222503D01*
X72700500Y-77682503D01*
X82454417Y-77682503D01*
X82474698Y-77888429D01*
X82474699Y-77888434D01*
X82534768Y-78086454D01*
X82632316Y-78268952D01*
X82689263Y-78338342D01*
X82763590Y-78428910D01*
X82763595Y-78428914D01*
X82923547Y-78560183D01*
X82923548Y-78560183D01*
X82923550Y-78560185D01*
X83106046Y-78657732D01*
X83243997Y-78699578D01*
X83304065Y-78717800D01*
X83304070Y-78717801D01*
X83509997Y-78738083D01*
X83510000Y-78738083D01*
X83510003Y-78738083D01*
X83715929Y-78717801D01*
X83715934Y-78717800D01*
X83913954Y-78657732D01*
X84096450Y-78560185D01*
X84256410Y-78428910D01*
X84387685Y-78268950D01*
X84485232Y-78086454D01*
X84545300Y-77888434D01*
X84545301Y-77888429D01*
X84565583Y-77682503D01*
X100234417Y-77682503D01*
X100254698Y-77888429D01*
X100254699Y-77888434D01*
X100314768Y-78086454D01*
X100412316Y-78268952D01*
X100469263Y-78338342D01*
X100543590Y-78428910D01*
X100543595Y-78428914D01*
X100703547Y-78560183D01*
X100703548Y-78560183D01*
X100703550Y-78560185D01*
X100886046Y-78657732D01*
X101023997Y-78699578D01*
X101084065Y-78717800D01*
X101084070Y-78717801D01*
X101289997Y-78738083D01*
X101290000Y-78738083D01*
X101290003Y-78738083D01*
X101495929Y-78717801D01*
X101495934Y-78717800D01*
X101693954Y-78657732D01*
X101876450Y-78560185D01*
X102036410Y-78428910D01*
X102167685Y-78268950D01*
X102265232Y-78086454D01*
X102325300Y-77888434D01*
X102325301Y-77888429D01*
X102345583Y-77682503D01*
X102345583Y-77682496D01*
X102325301Y-77476570D01*
X102325300Y-77476565D01*
X102307078Y-77416497D01*
X102265232Y-77278546D01*
X102167685Y-77096050D01*
X102096885Y-77009780D01*
X102036414Y-76936095D01*
X102036410Y-76936090D01*
X102025205Y-76926894D01*
X101876452Y-76804816D01*
X101693954Y-76707268D01*
X101495934Y-76647199D01*
X101495929Y-76647198D01*
X101290003Y-76626917D01*
X101289997Y-76626917D01*
X101084070Y-76647198D01*
X101084065Y-76647199D01*
X100886045Y-76707268D01*
X100703547Y-76804816D01*
X100543595Y-76936085D01*
X100543585Y-76936095D01*
X100412316Y-77096047D01*
X100314768Y-77278545D01*
X100254699Y-77476565D01*
X100254698Y-77476570D01*
X100234417Y-77682496D01*
X100234417Y-77682503D01*
X84565583Y-77682503D01*
X84565583Y-77682496D01*
X84545301Y-77476570D01*
X84545300Y-77476565D01*
X84527078Y-77416497D01*
X84485232Y-77278546D01*
X84387685Y-77096050D01*
X84316885Y-77009780D01*
X84256414Y-76936095D01*
X84256410Y-76936090D01*
X84245205Y-76926894D01*
X84096452Y-76804816D01*
X83913954Y-76707268D01*
X83715934Y-76647199D01*
X83715929Y-76647198D01*
X83510003Y-76626917D01*
X83509997Y-76626917D01*
X83304070Y-76647198D01*
X83304065Y-76647199D01*
X83106045Y-76707268D01*
X82923547Y-76804816D01*
X82763595Y-76936085D01*
X82763585Y-76936095D01*
X82632316Y-77096047D01*
X82534768Y-77278545D01*
X82474699Y-77476565D01*
X82474698Y-77476570D01*
X82454417Y-77682496D01*
X82454417Y-77682503D01*
X72700500Y-77682503D01*
X72700500Y-75142503D01*
X82454417Y-75142503D01*
X82474698Y-75348429D01*
X82474699Y-75348434D01*
X82534768Y-75546454D01*
X82632316Y-75728952D01*
X82763585Y-75888904D01*
X82763590Y-75888910D01*
X82763595Y-75888914D01*
X82923547Y-76020183D01*
X82923548Y-76020183D01*
X82923550Y-76020185D01*
X83106046Y-76117732D01*
X83243997Y-76159578D01*
X83304065Y-76177800D01*
X83304070Y-76177801D01*
X83509997Y-76198083D01*
X83510000Y-76198083D01*
X83510003Y-76198083D01*
X83715929Y-76177801D01*
X83715934Y-76177800D01*
X83913954Y-76117732D01*
X84096450Y-76020185D01*
X84256410Y-75888910D01*
X84387685Y-75728950D01*
X84485232Y-75546454D01*
X84545300Y-75348434D01*
X84545301Y-75348429D01*
X84565583Y-75142503D01*
X84565583Y-75142496D01*
X84545301Y-74936570D01*
X84545300Y-74936565D01*
X84527078Y-74876497D01*
X84485232Y-74738546D01*
X84387685Y-74556050D01*
X84256410Y-74396090D01*
X84256404Y-74396085D01*
X84096452Y-74264816D01*
X83913954Y-74167268D01*
X83715934Y-74107199D01*
X83715929Y-74107198D01*
X83510003Y-74086917D01*
X83509997Y-74086917D01*
X83304070Y-74107198D01*
X83304065Y-74107199D01*
X83106045Y-74167268D01*
X82923547Y-74264816D01*
X82763595Y-74396085D01*
X82763585Y-74396095D01*
X82632316Y-74556047D01*
X82534768Y-74738545D01*
X82474699Y-74936565D01*
X82474698Y-74936570D01*
X82454417Y-75142496D01*
X82454417Y-75142503D01*
X72700500Y-75142503D01*
X72700500Y-72602503D01*
X82454417Y-72602503D01*
X82474698Y-72808429D01*
X82474699Y-72808434D01*
X82534768Y-73006454D01*
X82632316Y-73188952D01*
X82695147Y-73265512D01*
X82763590Y-73348910D01*
X82763595Y-73348914D01*
X82923547Y-73480183D01*
X82923548Y-73480183D01*
X82923550Y-73480185D01*
X83106046Y-73577732D01*
X83243997Y-73619578D01*
X83304065Y-73637800D01*
X83304070Y-73637801D01*
X83509997Y-73658083D01*
X83510000Y-73658083D01*
X83510003Y-73658083D01*
X83715929Y-73637801D01*
X83715934Y-73637800D01*
X83913954Y-73577732D01*
X84096450Y-73480185D01*
X84256410Y-73348910D01*
X84387685Y-73188950D01*
X84485232Y-73006454D01*
X84545300Y-72808434D01*
X84545301Y-72808429D01*
X84565583Y-72602503D01*
X84565583Y-72602496D01*
X84545301Y-72396570D01*
X84545300Y-72396565D01*
X84527078Y-72336497D01*
X84485232Y-72198546D01*
X84387685Y-72016050D01*
X84256410Y-71856090D01*
X84256404Y-71856085D01*
X84096452Y-71724816D01*
X83913954Y-71627268D01*
X83715934Y-71567199D01*
X83715929Y-71567198D01*
X83510003Y-71546917D01*
X83509997Y-71546917D01*
X83304070Y-71567198D01*
X83304065Y-71567199D01*
X83106045Y-71627268D01*
X82923547Y-71724816D01*
X82763595Y-71856085D01*
X82763585Y-71856095D01*
X82632316Y-72016047D01*
X82534768Y-72198545D01*
X82474699Y-72396565D01*
X82474698Y-72396570D01*
X82454417Y-72602496D01*
X82454417Y-72602503D01*
X72700500Y-72602503D01*
X72700500Y-70062503D01*
X82454417Y-70062503D01*
X82474698Y-70268429D01*
X82474699Y-70268434D01*
X82534768Y-70466454D01*
X82632316Y-70648952D01*
X82763585Y-70808904D01*
X82763590Y-70808910D01*
X82763595Y-70808914D01*
X82923547Y-70940183D01*
X82923548Y-70940183D01*
X82923550Y-70940185D01*
X83106046Y-71037732D01*
X83243997Y-71079578D01*
X83304065Y-71097800D01*
X83304070Y-71097801D01*
X83509997Y-71118083D01*
X83510000Y-71118083D01*
X83510003Y-71118083D01*
X83715929Y-71097801D01*
X83715934Y-71097800D01*
X83913954Y-71037732D01*
X84096450Y-70940185D01*
X84256410Y-70808910D01*
X84387685Y-70648950D01*
X84485232Y-70466454D01*
X84545300Y-70268434D01*
X84545301Y-70268429D01*
X84565583Y-70062503D01*
X84565583Y-70062496D01*
X84545301Y-69856570D01*
X84545300Y-69856565D01*
X84527078Y-69796497D01*
X84485232Y-69658546D01*
X84387685Y-69476050D01*
X84256410Y-69316090D01*
X84256404Y-69316085D01*
X84096452Y-69184816D01*
X83913954Y-69087268D01*
X83715934Y-69027199D01*
X83715929Y-69027198D01*
X83510003Y-69006917D01*
X83509997Y-69006917D01*
X83304070Y-69027198D01*
X83304065Y-69027199D01*
X83106045Y-69087268D01*
X82923547Y-69184816D01*
X82763595Y-69316085D01*
X82763585Y-69316095D01*
X82632316Y-69476047D01*
X82534768Y-69658545D01*
X82474699Y-69856565D01*
X82474698Y-69856570D01*
X82454417Y-70062496D01*
X82454417Y-70062503D01*
X72700500Y-70062503D01*
X72700500Y-67522503D01*
X82454417Y-67522503D01*
X82474698Y-67728429D01*
X82474699Y-67728434D01*
X82534768Y-67926454D01*
X82632316Y-68108952D01*
X82763585Y-68268904D01*
X82763590Y-68268910D01*
X82763595Y-68268914D01*
X82923547Y-68400183D01*
X82923548Y-68400183D01*
X82923550Y-68400185D01*
X83106046Y-68497732D01*
X83243997Y-68539578D01*
X83304065Y-68557800D01*
X83304070Y-68557801D01*
X83509997Y-68578083D01*
X83510000Y-68578083D01*
X83510003Y-68578083D01*
X83715929Y-68557801D01*
X83715934Y-68557800D01*
X83913954Y-68497732D01*
X84096450Y-68400185D01*
X84256410Y-68268910D01*
X84387685Y-68108950D01*
X84485232Y-67926454D01*
X84545300Y-67728434D01*
X84545301Y-67728429D01*
X84565583Y-67522503D01*
X84565583Y-67522496D01*
X84545301Y-67316570D01*
X84545300Y-67316565D01*
X84527078Y-67256497D01*
X84485232Y-67118546D01*
X84387685Y-66936050D01*
X84256410Y-66776090D01*
X84256404Y-66776085D01*
X84096452Y-66644816D01*
X83913954Y-66547268D01*
X83715934Y-66487199D01*
X83715929Y-66487198D01*
X83510003Y-66466917D01*
X83509997Y-66466917D01*
X83304070Y-66487198D01*
X83304065Y-66487199D01*
X83106045Y-66547268D01*
X82923547Y-66644816D01*
X82763595Y-66776085D01*
X82763585Y-66776095D01*
X82632316Y-66936047D01*
X82534768Y-67118545D01*
X82474699Y-67316565D01*
X82474698Y-67316570D01*
X82454417Y-67522496D01*
X82454417Y-67522503D01*
X72700500Y-67522503D01*
X72700500Y-64982503D01*
X82454417Y-64982503D01*
X82474698Y-65188429D01*
X82474699Y-65188434D01*
X82534768Y-65386454D01*
X82632316Y-65568952D01*
X82763585Y-65728904D01*
X82763590Y-65728910D01*
X82763595Y-65728914D01*
X82923547Y-65860183D01*
X82923548Y-65860183D01*
X82923550Y-65860185D01*
X83106046Y-65957732D01*
X83243997Y-65999578D01*
X83304065Y-66017800D01*
X83304070Y-66017801D01*
X83509997Y-66038083D01*
X83510000Y-66038083D01*
X83510003Y-66038083D01*
X83715929Y-66017801D01*
X83715934Y-66017800D01*
X83913954Y-65957732D01*
X84096450Y-65860185D01*
X84256410Y-65728910D01*
X84387685Y-65568950D01*
X84485232Y-65386454D01*
X84545300Y-65188434D01*
X84545301Y-65188429D01*
X84565583Y-64982503D01*
X100234417Y-64982503D01*
X100254698Y-65188429D01*
X100254699Y-65188434D01*
X100314768Y-65386454D01*
X100412316Y-65568952D01*
X100543585Y-65728904D01*
X100543590Y-65728910D01*
X100543595Y-65728914D01*
X100703547Y-65860183D01*
X100703548Y-65860183D01*
X100703550Y-65860185D01*
X100886046Y-65957732D01*
X101023997Y-65999578D01*
X101084065Y-66017800D01*
X101084070Y-66017801D01*
X101289997Y-66038083D01*
X101290000Y-66038083D01*
X101290003Y-66038083D01*
X101495929Y-66017801D01*
X101495934Y-66017800D01*
X101693954Y-65957732D01*
X101876450Y-65860185D01*
X102036410Y-65728910D01*
X102167685Y-65568950D01*
X102265232Y-65386454D01*
X102325300Y-65188434D01*
X102325301Y-65188429D01*
X102345583Y-64982503D01*
X102345583Y-64982496D01*
X102325301Y-64776570D01*
X102325300Y-64776565D01*
X102307078Y-64716497D01*
X102265232Y-64578546D01*
X102167685Y-64396050D01*
X102036410Y-64236090D01*
X102036404Y-64236085D01*
X101876452Y-64104816D01*
X101693954Y-64007268D01*
X101495934Y-63947199D01*
X101495929Y-63947198D01*
X101290003Y-63926917D01*
X101289997Y-63926917D01*
X101084070Y-63947198D01*
X101084065Y-63947199D01*
X100886045Y-64007268D01*
X100703547Y-64104816D01*
X100543595Y-64236085D01*
X100543585Y-64236095D01*
X100412316Y-64396047D01*
X100314768Y-64578545D01*
X100254699Y-64776565D01*
X100254698Y-64776570D01*
X100234417Y-64982496D01*
X100234417Y-64982503D01*
X84565583Y-64982503D01*
X84565583Y-64982496D01*
X84545301Y-64776570D01*
X84545300Y-64776565D01*
X84527078Y-64716497D01*
X84485232Y-64578546D01*
X84387685Y-64396050D01*
X84256410Y-64236090D01*
X84256404Y-64236085D01*
X84096452Y-64104816D01*
X83913954Y-64007268D01*
X83715934Y-63947199D01*
X83715929Y-63947198D01*
X83510003Y-63926917D01*
X83509997Y-63926917D01*
X83304070Y-63947198D01*
X83304065Y-63947199D01*
X83106045Y-64007268D01*
X82923547Y-64104816D01*
X82763595Y-64236085D01*
X82763585Y-64236095D01*
X82632316Y-64396047D01*
X82534768Y-64578545D01*
X82474699Y-64776565D01*
X82474698Y-64776570D01*
X82454417Y-64982496D01*
X82454417Y-64982503D01*
X72700500Y-64982503D01*
X72700500Y-62442503D01*
X82454417Y-62442503D01*
X82474698Y-62648429D01*
X82474699Y-62648434D01*
X82534768Y-62846454D01*
X82632316Y-63028952D01*
X82763585Y-63188904D01*
X82763590Y-63188910D01*
X82763595Y-63188914D01*
X82923547Y-63320183D01*
X82923548Y-63320183D01*
X82923550Y-63320185D01*
X83106046Y-63417732D01*
X83243997Y-63459578D01*
X83304065Y-63477800D01*
X83304070Y-63477801D01*
X83509997Y-63498083D01*
X83510000Y-63498083D01*
X83510003Y-63498083D01*
X83715929Y-63477801D01*
X83715934Y-63477800D01*
X83913954Y-63417732D01*
X84096450Y-63320185D01*
X84256410Y-63188910D01*
X84387685Y-63028950D01*
X84485232Y-62846454D01*
X84545300Y-62648434D01*
X84545301Y-62648429D01*
X84565583Y-62442503D01*
X84565583Y-62442496D01*
X84545301Y-62236570D01*
X84545300Y-62236565D01*
X84527078Y-62176497D01*
X84485232Y-62038546D01*
X84387685Y-61856050D01*
X84256410Y-61696090D01*
X84235029Y-61678543D01*
X84096452Y-61564816D01*
X83913954Y-61467268D01*
X83715934Y-61407199D01*
X83715929Y-61407198D01*
X83510003Y-61386917D01*
X83509997Y-61386917D01*
X83304070Y-61407198D01*
X83304065Y-61407199D01*
X83106045Y-61467268D01*
X82923547Y-61564816D01*
X82763595Y-61696085D01*
X82763585Y-61696095D01*
X82632316Y-61856047D01*
X82534768Y-62038545D01*
X82474699Y-62236565D01*
X82474698Y-62236570D01*
X82454417Y-62442496D01*
X82454417Y-62442503D01*
X72700500Y-62442503D01*
X72700500Y-59902503D01*
X82454417Y-59902503D01*
X82474698Y-60108429D01*
X82474699Y-60108434D01*
X82534768Y-60306454D01*
X82632316Y-60488952D01*
X82700376Y-60571883D01*
X82763590Y-60648910D01*
X82763595Y-60648914D01*
X82923547Y-60780183D01*
X82923548Y-60780183D01*
X82923550Y-60780185D01*
X83106046Y-60877732D01*
X83243997Y-60919578D01*
X83304065Y-60937800D01*
X83304070Y-60937801D01*
X83509997Y-60958083D01*
X83510000Y-60958083D01*
X83510003Y-60958083D01*
X83715929Y-60937801D01*
X83715934Y-60937800D01*
X83913954Y-60877732D01*
X84096450Y-60780185D01*
X84256410Y-60648910D01*
X84387685Y-60488950D01*
X84485232Y-60306454D01*
X84545300Y-60108434D01*
X84545301Y-60108429D01*
X84565583Y-59902503D01*
X84565583Y-59902496D01*
X84545301Y-59696570D01*
X84545300Y-59696565D01*
X84505983Y-59566955D01*
X84485232Y-59498546D01*
X84387685Y-59316050D01*
X84256410Y-59156090D01*
X84188063Y-59099999D01*
X84096452Y-59024816D01*
X83913954Y-58927268D01*
X83715934Y-58867199D01*
X83715929Y-58867198D01*
X83510003Y-58846917D01*
X83509997Y-58846917D01*
X83304070Y-58867198D01*
X83304065Y-58867199D01*
X83106045Y-58927268D01*
X82923547Y-59024816D01*
X82763595Y-59156085D01*
X82763585Y-59156095D01*
X82632316Y-59316047D01*
X82534768Y-59498545D01*
X82474699Y-59696565D01*
X82474698Y-59696570D01*
X82454417Y-59902496D01*
X82454417Y-59902503D01*
X72700500Y-59902503D01*
X72700500Y-57362503D01*
X82454417Y-57362503D01*
X82474698Y-57568429D01*
X82474699Y-57568434D01*
X82534768Y-57766454D01*
X82632316Y-57948952D01*
X82712208Y-58046301D01*
X82763590Y-58108910D01*
X82763595Y-58108914D01*
X82923547Y-58240183D01*
X82923548Y-58240183D01*
X82923550Y-58240185D01*
X83106046Y-58337732D01*
X83243997Y-58379578D01*
X83304065Y-58397800D01*
X83304070Y-58397801D01*
X83509997Y-58418083D01*
X83510000Y-58418083D01*
X83510003Y-58418083D01*
X83715929Y-58397801D01*
X83715934Y-58397800D01*
X83913954Y-58337732D01*
X84096450Y-58240185D01*
X84256410Y-58108910D01*
X84387685Y-57948950D01*
X84485232Y-57766454D01*
X84545300Y-57568434D01*
X84545301Y-57568429D01*
X84565583Y-57362503D01*
X84565583Y-57362496D01*
X84545301Y-57156570D01*
X84545300Y-57156565D01*
X84512969Y-57049983D01*
X84485232Y-56958546D01*
X84387685Y-56776050D01*
X84256410Y-56616090D01*
X84256404Y-56616085D01*
X84096452Y-56484816D01*
X83913954Y-56387268D01*
X83715934Y-56327199D01*
X83715929Y-56327198D01*
X83510003Y-56306917D01*
X83509997Y-56306917D01*
X83304070Y-56327198D01*
X83304065Y-56327199D01*
X83106045Y-56387268D01*
X82923547Y-56484816D01*
X82763595Y-56616085D01*
X82763585Y-56616095D01*
X82632316Y-56776047D01*
X82534768Y-56958545D01*
X82474699Y-57156565D01*
X82474698Y-57156570D01*
X82454417Y-57362496D01*
X82454417Y-57362503D01*
X72700500Y-57362503D01*
X72700500Y-54822503D01*
X82454417Y-54822503D01*
X82474698Y-55028429D01*
X82474699Y-55028434D01*
X82534768Y-55226454D01*
X82632316Y-55408952D01*
X82763585Y-55568904D01*
X82763590Y-55568910D01*
X82763595Y-55568914D01*
X82923547Y-55700183D01*
X82923548Y-55700183D01*
X82923550Y-55700185D01*
X83106046Y-55797732D01*
X83243997Y-55839578D01*
X83304065Y-55857800D01*
X83304070Y-55857801D01*
X83509997Y-55878083D01*
X83510000Y-55878083D01*
X83510003Y-55878083D01*
X83715929Y-55857801D01*
X83715934Y-55857800D01*
X83913954Y-55797732D01*
X84096450Y-55700185D01*
X84256410Y-55568910D01*
X84387685Y-55408950D01*
X84485232Y-55226454D01*
X84545300Y-55028434D01*
X84545301Y-55028429D01*
X84565583Y-54822503D01*
X84565583Y-54822496D01*
X84545301Y-54616570D01*
X84545300Y-54616565D01*
X84512968Y-54509982D01*
X84485232Y-54418546D01*
X84387685Y-54236050D01*
X84256410Y-54076090D01*
X84256404Y-54076085D01*
X84096452Y-53944816D01*
X83913954Y-53847268D01*
X83715934Y-53787199D01*
X83715929Y-53787198D01*
X83510003Y-53766917D01*
X83509997Y-53766917D01*
X83304070Y-53787198D01*
X83304065Y-53787199D01*
X83106045Y-53847268D01*
X82923547Y-53944816D01*
X82763595Y-54076085D01*
X82763585Y-54076095D01*
X82632316Y-54236047D01*
X82534768Y-54418545D01*
X82474699Y-54616565D01*
X82474698Y-54616570D01*
X82454417Y-54822496D01*
X82454417Y-54822503D01*
X72700500Y-54822503D01*
X72700500Y-52282503D01*
X82454417Y-52282503D01*
X82474698Y-52488429D01*
X82474699Y-52488434D01*
X82534768Y-52686454D01*
X82632316Y-52868952D01*
X82755895Y-53019534D01*
X82763590Y-53028910D01*
X82763595Y-53028914D01*
X82923547Y-53160183D01*
X82923548Y-53160183D01*
X82923550Y-53160185D01*
X83106046Y-53257732D01*
X83243997Y-53299578D01*
X83304065Y-53317800D01*
X83304070Y-53317801D01*
X83509997Y-53338083D01*
X83510000Y-53338083D01*
X83510003Y-53338083D01*
X83715929Y-53317801D01*
X83715934Y-53317800D01*
X83742412Y-53309768D01*
X83913954Y-53257732D01*
X84096450Y-53160185D01*
X84256410Y-53028910D01*
X84387685Y-52868950D01*
X84485232Y-52686454D01*
X84545300Y-52488434D01*
X84545301Y-52488429D01*
X84565583Y-52282503D01*
X100234417Y-52282503D01*
X100254698Y-52488429D01*
X100254699Y-52488434D01*
X100314768Y-52686454D01*
X100412316Y-52868952D01*
X100535895Y-53019534D01*
X100543590Y-53028910D01*
X100543595Y-53028914D01*
X100703547Y-53160183D01*
X100703548Y-53160183D01*
X100703550Y-53160185D01*
X100886046Y-53257732D01*
X101023997Y-53299578D01*
X101084065Y-53317800D01*
X101084070Y-53317801D01*
X101289997Y-53338083D01*
X101290000Y-53338083D01*
X101290003Y-53338083D01*
X101495929Y-53317801D01*
X101495934Y-53317800D01*
X101522412Y-53309768D01*
X101693954Y-53257732D01*
X101876450Y-53160185D01*
X102036410Y-53028910D01*
X102167685Y-52868950D01*
X102265232Y-52686454D01*
X102325300Y-52488434D01*
X102325301Y-52488429D01*
X102345583Y-52282503D01*
X102345583Y-52282496D01*
X102325301Y-52076570D01*
X102325300Y-52076565D01*
X102307078Y-52016497D01*
X102265232Y-51878546D01*
X102167685Y-51696050D01*
X102036410Y-51536090D01*
X102036404Y-51536085D01*
X101876452Y-51404816D01*
X101693954Y-51307268D01*
X101495934Y-51247199D01*
X101495929Y-51247198D01*
X101290003Y-51226917D01*
X101289997Y-51226917D01*
X101084070Y-51247198D01*
X101084065Y-51247199D01*
X100886045Y-51307268D01*
X100703547Y-51404816D01*
X100543595Y-51536085D01*
X100543585Y-51536095D01*
X100412316Y-51696047D01*
X100314768Y-51878545D01*
X100254699Y-52076565D01*
X100254698Y-52076570D01*
X100234417Y-52282496D01*
X100234417Y-52282503D01*
X84565583Y-52282503D01*
X84565583Y-52282496D01*
X84545301Y-52076570D01*
X84545300Y-52076565D01*
X84527078Y-52016497D01*
X84485232Y-51878546D01*
X84387685Y-51696050D01*
X84256410Y-51536090D01*
X84256404Y-51536085D01*
X84096452Y-51404816D01*
X83913954Y-51307268D01*
X83715934Y-51247199D01*
X83715929Y-51247198D01*
X83510003Y-51226917D01*
X83509997Y-51226917D01*
X83304070Y-51247198D01*
X83304065Y-51247199D01*
X83106045Y-51307268D01*
X82923547Y-51404816D01*
X82763595Y-51536085D01*
X82763585Y-51536095D01*
X82632316Y-51696047D01*
X82534768Y-51878545D01*
X82474699Y-52076565D01*
X82474698Y-52076570D01*
X82454417Y-52282496D01*
X82454417Y-52282503D01*
X72700500Y-52282503D01*
X72700500Y-49742503D01*
X82454417Y-49742503D01*
X82474698Y-49948429D01*
X82474699Y-49948434D01*
X82534768Y-50146454D01*
X82632316Y-50328952D01*
X82763585Y-50488904D01*
X82763590Y-50488910D01*
X82763595Y-50488914D01*
X82923547Y-50620183D01*
X82923548Y-50620183D01*
X82923550Y-50620185D01*
X83106046Y-50717732D01*
X83243997Y-50759578D01*
X83304065Y-50777800D01*
X83304070Y-50777801D01*
X83509997Y-50798083D01*
X83510000Y-50798083D01*
X83510003Y-50798083D01*
X83715929Y-50777801D01*
X83715934Y-50777800D01*
X83913954Y-50717732D01*
X84096450Y-50620185D01*
X84256410Y-50488910D01*
X84387685Y-50328950D01*
X84485232Y-50146454D01*
X84545300Y-49948434D01*
X84545301Y-49948429D01*
X84565583Y-49742503D01*
X84565583Y-49742496D01*
X84545301Y-49536570D01*
X84545300Y-49536565D01*
X84527078Y-49476497D01*
X84485232Y-49338546D01*
X84387685Y-49156050D01*
X84256410Y-48996090D01*
X84256404Y-48996085D01*
X84096452Y-48864816D01*
X83913954Y-48767268D01*
X83715934Y-48707199D01*
X83715929Y-48707198D01*
X83510003Y-48686917D01*
X83509997Y-48686917D01*
X83304070Y-48707198D01*
X83304065Y-48707199D01*
X83106045Y-48767268D01*
X82923547Y-48864816D01*
X82763595Y-48996085D01*
X82763585Y-48996095D01*
X82632316Y-49156047D01*
X82534768Y-49338545D01*
X82474699Y-49536565D01*
X82474698Y-49536570D01*
X82454417Y-49742496D01*
X82454417Y-49742503D01*
X72700500Y-49742503D01*
X72700500Y-47202503D01*
X82454417Y-47202503D01*
X82474698Y-47408429D01*
X82474699Y-47408434D01*
X82534768Y-47606454D01*
X82632316Y-47788952D01*
X82763585Y-47948904D01*
X82763590Y-47948910D01*
X82763595Y-47948914D01*
X82923547Y-48080183D01*
X82923548Y-48080183D01*
X82923550Y-48080185D01*
X83106046Y-48177732D01*
X83243997Y-48219578D01*
X83304065Y-48237800D01*
X83304070Y-48237801D01*
X83509997Y-48258083D01*
X83510000Y-48258083D01*
X83510003Y-48258083D01*
X83715929Y-48237801D01*
X83715934Y-48237800D01*
X83913954Y-48177732D01*
X84096450Y-48080185D01*
X84256410Y-47948910D01*
X84387685Y-47788950D01*
X84485232Y-47606454D01*
X84545300Y-47408434D01*
X84545301Y-47408429D01*
X84565583Y-47202503D01*
X84565583Y-47202496D01*
X84545301Y-46996570D01*
X84545300Y-46996565D01*
X84527078Y-46936497D01*
X84485232Y-46798546D01*
X84387685Y-46616050D01*
X84256410Y-46456090D01*
X84256404Y-46456085D01*
X84096452Y-46324816D01*
X83913954Y-46227268D01*
X83715934Y-46167199D01*
X83715929Y-46167198D01*
X83510003Y-46146917D01*
X83509997Y-46146917D01*
X83304070Y-46167198D01*
X83304065Y-46167199D01*
X83106045Y-46227268D01*
X82923547Y-46324816D01*
X82763595Y-46456085D01*
X82763585Y-46456095D01*
X82632316Y-46616047D01*
X82534768Y-46798545D01*
X82474699Y-46996565D01*
X82474698Y-46996570D01*
X82454417Y-47202496D01*
X82454417Y-47202503D01*
X72700500Y-47202503D01*
X72700500Y-44100000D01*
X79319534Y-44100000D01*
X79339313Y-44250236D01*
X79397302Y-44390233D01*
X79489549Y-44510451D01*
X79609767Y-44602698D01*
X79749764Y-44660687D01*
X79862441Y-44675521D01*
X79899999Y-44680466D01*
X79900000Y-44680466D01*
X79900001Y-44680466D01*
X79930047Y-44676510D01*
X80050236Y-44660687D01*
X80190233Y-44602698D01*
X80310451Y-44510451D01*
X80402698Y-44390233D01*
X80460687Y-44250236D01*
X80480466Y-44100000D01*
X80460687Y-43949764D01*
X80402698Y-43809767D01*
X80310451Y-43689549D01*
X80190233Y-43597302D01*
X80050236Y-43539313D01*
X80050234Y-43539312D01*
X80050232Y-43539312D01*
X79900001Y-43519534D01*
X79899999Y-43519534D01*
X79749767Y-43539312D01*
X79749761Y-43539314D01*
X79609768Y-43597301D01*
X79489551Y-43689547D01*
X79489547Y-43689551D01*
X79397301Y-43809768D01*
X79339314Y-43949761D01*
X79339312Y-43949767D01*
X79319534Y-44099999D01*
X79319534Y-44100000D01*
X72700500Y-44100000D01*
X72700500Y-37472500D01*
X86874892Y-37472500D01*
X86893283Y-37670969D01*
X86947829Y-37862680D01*
X87036674Y-38041104D01*
X87156791Y-38200164D01*
X87304090Y-38334445D01*
X87473554Y-38439373D01*
X87659414Y-38511376D01*
X87855340Y-38548000D01*
X88054660Y-38548000D01*
X88250586Y-38511376D01*
X88436446Y-38439373D01*
X88605910Y-38334445D01*
X88753209Y-38200164D01*
X88873326Y-38041104D01*
X88962171Y-37862680D01*
X89016717Y-37670969D01*
X89035108Y-37472500D01*
X89414892Y-37472500D01*
X89433283Y-37670969D01*
X89487829Y-37862680D01*
X89576674Y-38041104D01*
X89696791Y-38200164D01*
X89844090Y-38334445D01*
X90013554Y-38439373D01*
X90199414Y-38511376D01*
X90395340Y-38548000D01*
X90594660Y-38548000D01*
X90790586Y-38511376D01*
X90976446Y-38439373D01*
X91145910Y-38334445D01*
X91293209Y-38200164D01*
X91413326Y-38041104D01*
X91502171Y-37862680D01*
X91556717Y-37670969D01*
X91575108Y-37472500D01*
X91954892Y-37472500D01*
X91973283Y-37670969D01*
X92027829Y-37862680D01*
X92116674Y-38041104D01*
X92236791Y-38200164D01*
X92384090Y-38334445D01*
X92553554Y-38439373D01*
X92739414Y-38511376D01*
X92935340Y-38548000D01*
X93134660Y-38548000D01*
X93330586Y-38511376D01*
X93516446Y-38439373D01*
X93685910Y-38334445D01*
X93833209Y-38200164D01*
X93953326Y-38041104D01*
X94042171Y-37862680D01*
X94096717Y-37670969D01*
X94115108Y-37472500D01*
X94494892Y-37472500D01*
X94513283Y-37670969D01*
X94567829Y-37862680D01*
X94656674Y-38041104D01*
X94776791Y-38200164D01*
X94924090Y-38334445D01*
X95093554Y-38439373D01*
X95279414Y-38511376D01*
X95475340Y-38548000D01*
X95674660Y-38548000D01*
X95870586Y-38511376D01*
X96056446Y-38439373D01*
X96225910Y-38334445D01*
X96373209Y-38200164D01*
X96493326Y-38041104D01*
X96582171Y-37862680D01*
X96636717Y-37670969D01*
X96655108Y-37472500D01*
X96636717Y-37274031D01*
X96582171Y-37082320D01*
X96493326Y-36903896D01*
X96373209Y-36744836D01*
X96225910Y-36610555D01*
X96056446Y-36505627D01*
X95870586Y-36433624D01*
X95870585Y-36433623D01*
X95870583Y-36433623D01*
X95674660Y-36397000D01*
X95475340Y-36397000D01*
X95279416Y-36433623D01*
X95093553Y-36505627D01*
X95093548Y-36505630D01*
X94924094Y-36610552D01*
X94924092Y-36610553D01*
X94924090Y-36610555D01*
X94831998Y-36694508D01*
X94776789Y-36744838D01*
X94656680Y-36903887D01*
X94656670Y-36903903D01*
X94567829Y-37082319D01*
X94513283Y-37274029D01*
X94509479Y-37315077D01*
X94494892Y-37472500D01*
X94115108Y-37472500D01*
X94096717Y-37274031D01*
X94042171Y-37082320D01*
X93953326Y-36903896D01*
X93833209Y-36744836D01*
X93685910Y-36610555D01*
X93516446Y-36505627D01*
X93330586Y-36433624D01*
X93330585Y-36433623D01*
X93330583Y-36433623D01*
X93134660Y-36397000D01*
X92935340Y-36397000D01*
X92739416Y-36433623D01*
X92553553Y-36505627D01*
X92553548Y-36505630D01*
X92384094Y-36610552D01*
X92384092Y-36610553D01*
X92384090Y-36610555D01*
X92291998Y-36694508D01*
X92236789Y-36744838D01*
X92116680Y-36903887D01*
X92116670Y-36903903D01*
X92027829Y-37082319D01*
X91973283Y-37274029D01*
X91969479Y-37315077D01*
X91954892Y-37472500D01*
X91575108Y-37472500D01*
X91556717Y-37274031D01*
X91502171Y-37082320D01*
X91413326Y-36903896D01*
X91293209Y-36744836D01*
X91145910Y-36610555D01*
X90976446Y-36505627D01*
X90790586Y-36433624D01*
X90790585Y-36433623D01*
X90790583Y-36433623D01*
X90594660Y-36397000D01*
X90395340Y-36397000D01*
X90199416Y-36433623D01*
X90013553Y-36505627D01*
X90013548Y-36505630D01*
X89844094Y-36610552D01*
X89844092Y-36610553D01*
X89844090Y-36610555D01*
X89751998Y-36694508D01*
X89696789Y-36744838D01*
X89576680Y-36903887D01*
X89576670Y-36903903D01*
X89487829Y-37082319D01*
X89433283Y-37274029D01*
X89429479Y-37315077D01*
X89414892Y-37472500D01*
X89035108Y-37472500D01*
X89016717Y-37274031D01*
X88962171Y-37082320D01*
X88873326Y-36903896D01*
X88753209Y-36744836D01*
X88605910Y-36610555D01*
X88436446Y-36505627D01*
X88250586Y-36433624D01*
X88250585Y-36433623D01*
X88250583Y-36433623D01*
X88054660Y-36397000D01*
X87855340Y-36397000D01*
X87659416Y-36433623D01*
X87473553Y-36505627D01*
X87473548Y-36505630D01*
X87304094Y-36610552D01*
X87304092Y-36610553D01*
X87304090Y-36610555D01*
X87211998Y-36694508D01*
X87156789Y-36744838D01*
X87036680Y-36903887D01*
X87036670Y-36903903D01*
X86947829Y-37082319D01*
X86893283Y-37274029D01*
X86889479Y-37315077D01*
X86874892Y-37472500D01*
X72700500Y-37472500D01*
X72700500Y-34932500D01*
X88144892Y-34932500D01*
X88163283Y-35130969D01*
X88217829Y-35322680D01*
X88306674Y-35501104D01*
X88426791Y-35660164D01*
X88574090Y-35794445D01*
X88743554Y-35899373D01*
X88929414Y-35971376D01*
X89125340Y-36008000D01*
X89324660Y-36008000D01*
X89520586Y-35971376D01*
X89706446Y-35899373D01*
X89875910Y-35794445D01*
X90023209Y-35660164D01*
X90143326Y-35501104D01*
X90232171Y-35322680D01*
X90286717Y-35130969D01*
X90305108Y-34932500D01*
X90684892Y-34932500D01*
X90703283Y-35130969D01*
X90757829Y-35322680D01*
X90846674Y-35501104D01*
X90966791Y-35660164D01*
X91114090Y-35794445D01*
X91283554Y-35899373D01*
X91469414Y-35971376D01*
X91665340Y-36008000D01*
X91864660Y-36008000D01*
X92060586Y-35971376D01*
X92246446Y-35899373D01*
X92415910Y-35794445D01*
X92563209Y-35660164D01*
X92683326Y-35501104D01*
X92772171Y-35322680D01*
X92826717Y-35130969D01*
X92845108Y-34932500D01*
X93224892Y-34932500D01*
X93243283Y-35130969D01*
X93297829Y-35322680D01*
X93386674Y-35501104D01*
X93506791Y-35660164D01*
X93654090Y-35794445D01*
X93823554Y-35899373D01*
X94009414Y-35971376D01*
X94205340Y-36008000D01*
X94404660Y-36008000D01*
X94600586Y-35971376D01*
X94786446Y-35899373D01*
X94955910Y-35794445D01*
X95103209Y-35660164D01*
X95223326Y-35501104D01*
X95312171Y-35322680D01*
X95366717Y-35130969D01*
X95385108Y-34932500D01*
X95764892Y-34932500D01*
X95783283Y-35130969D01*
X95837829Y-35322680D01*
X95926674Y-35501104D01*
X96046791Y-35660164D01*
X96194090Y-35794445D01*
X96363554Y-35899373D01*
X96549414Y-35971376D01*
X96745340Y-36008000D01*
X96944660Y-36008000D01*
X97140586Y-35971376D01*
X97326446Y-35899373D01*
X97495910Y-35794445D01*
X97643209Y-35660164D01*
X97763326Y-35501104D01*
X97852171Y-35322680D01*
X97906717Y-35130969D01*
X97925108Y-34932500D01*
X97906717Y-34734031D01*
X97852171Y-34542320D01*
X97763326Y-34363896D01*
X97643209Y-34204836D01*
X97495910Y-34070555D01*
X97326446Y-33965627D01*
X97140586Y-33893624D01*
X97140585Y-33893623D01*
X97140583Y-33893623D01*
X96944660Y-33857000D01*
X96745340Y-33857000D01*
X96549416Y-33893623D01*
X96363553Y-33965627D01*
X96363548Y-33965630D01*
X96194094Y-34070552D01*
X96194092Y-34070553D01*
X96194090Y-34070555D01*
X96095220Y-34160687D01*
X96046789Y-34204838D01*
X95926680Y-34363887D01*
X95926670Y-34363903D01*
X95837829Y-34542319D01*
X95783283Y-34734029D01*
X95783283Y-34734031D01*
X95764892Y-34932500D01*
X95385108Y-34932500D01*
X95366717Y-34734031D01*
X95312171Y-34542320D01*
X95223326Y-34363896D01*
X95103209Y-34204836D01*
X94955910Y-34070555D01*
X94786446Y-33965627D01*
X94600586Y-33893624D01*
X94600585Y-33893623D01*
X94600583Y-33893623D01*
X94404660Y-33857000D01*
X94205340Y-33857000D01*
X94009416Y-33893623D01*
X93823553Y-33965627D01*
X93823548Y-33965630D01*
X93654094Y-34070552D01*
X93654092Y-34070553D01*
X93654090Y-34070555D01*
X93555220Y-34160687D01*
X93506789Y-34204838D01*
X93386680Y-34363887D01*
X93386670Y-34363903D01*
X93297829Y-34542319D01*
X93243283Y-34734029D01*
X93243283Y-34734031D01*
X93224892Y-34932500D01*
X92845108Y-34932500D01*
X92826717Y-34734031D01*
X92772171Y-34542320D01*
X92683326Y-34363896D01*
X92563209Y-34204836D01*
X92415910Y-34070555D01*
X92246446Y-33965627D01*
X92060586Y-33893624D01*
X92060585Y-33893623D01*
X92060583Y-33893623D01*
X91864660Y-33857000D01*
X91665340Y-33857000D01*
X91469416Y-33893623D01*
X91283553Y-33965627D01*
X91283548Y-33965630D01*
X91114094Y-34070552D01*
X91114092Y-34070553D01*
X91114090Y-34070555D01*
X91015220Y-34160687D01*
X90966789Y-34204838D01*
X90846680Y-34363887D01*
X90846670Y-34363903D01*
X90757829Y-34542319D01*
X90703283Y-34734029D01*
X90703283Y-34734031D01*
X90684892Y-34932500D01*
X90305108Y-34932500D01*
X90286717Y-34734031D01*
X90232171Y-34542320D01*
X90143326Y-34363896D01*
X90023209Y-34204836D01*
X89875910Y-34070555D01*
X89706446Y-33965627D01*
X89520586Y-33893624D01*
X89520585Y-33893623D01*
X89520583Y-33893623D01*
X89324660Y-33857000D01*
X89125340Y-33857000D01*
X88929416Y-33893623D01*
X88743553Y-33965627D01*
X88743548Y-33965630D01*
X88574094Y-34070552D01*
X88574092Y-34070553D01*
X88574090Y-34070555D01*
X88475220Y-34160687D01*
X88426789Y-34204838D01*
X88306680Y-34363887D01*
X88306670Y-34363903D01*
X88217829Y-34542319D01*
X88163283Y-34734029D01*
X88163283Y-34734031D01*
X88144892Y-34932500D01*
X72700500Y-34932500D01*
X72700500Y-33600000D01*
X120319534Y-33600000D01*
X120339313Y-33750236D01*
X120397302Y-33890233D01*
X120489549Y-34010451D01*
X120609767Y-34102698D01*
X120749764Y-34160687D01*
X120862441Y-34175521D01*
X120899999Y-34180466D01*
X120900000Y-34180466D01*
X120900001Y-34180466D01*
X120930047Y-34176510D01*
X121050236Y-34160687D01*
X121190233Y-34102698D01*
X121310451Y-34010451D01*
X121402698Y-33890233D01*
X121460687Y-33750236D01*
X121480466Y-33600000D01*
X121819534Y-33600000D01*
X121839313Y-33750236D01*
X121897302Y-33890233D01*
X121989549Y-34010451D01*
X122109767Y-34102698D01*
X122249764Y-34160687D01*
X122362441Y-34175521D01*
X122399999Y-34180466D01*
X122400000Y-34180466D01*
X122400001Y-34180466D01*
X122430047Y-34176510D01*
X122550236Y-34160687D01*
X122690233Y-34102698D01*
X122810451Y-34010451D01*
X122902698Y-33890233D01*
X122960687Y-33750236D01*
X122980466Y-33600000D01*
X122960687Y-33449764D01*
X122902698Y-33309767D01*
X122810451Y-33189549D01*
X122690233Y-33097302D01*
X122550236Y-33039313D01*
X122550234Y-33039312D01*
X122550232Y-33039312D01*
X122400001Y-33019534D01*
X122399999Y-33019534D01*
X122249767Y-33039312D01*
X122249761Y-33039314D01*
X122109768Y-33097301D01*
X121989551Y-33189547D01*
X121989547Y-33189551D01*
X121897301Y-33309768D01*
X121839314Y-33449761D01*
X121839312Y-33449767D01*
X121819534Y-33599999D01*
X121819534Y-33600000D01*
X121480466Y-33600000D01*
X121460687Y-33449764D01*
X121402698Y-33309767D01*
X121310451Y-33189549D01*
X121190233Y-33097302D01*
X121050236Y-33039313D01*
X121050234Y-33039312D01*
X121050232Y-33039312D01*
X120900001Y-33019534D01*
X120899999Y-33019534D01*
X120749767Y-33039312D01*
X120749761Y-33039314D01*
X120609768Y-33097301D01*
X120489551Y-33189547D01*
X120489547Y-33189551D01*
X120397301Y-33309768D01*
X120339314Y-33449761D01*
X120339312Y-33449767D01*
X120319534Y-33599999D01*
X120319534Y-33600000D01*
X72700500Y-33600000D01*
X72700500Y-31612503D01*
X83194439Y-31612503D01*
X83214651Y-31843542D01*
X83214652Y-31843549D01*
X83214653Y-31843550D01*
X83274682Y-32067579D01*
X83372701Y-32277782D01*
X83505732Y-32467769D01*
X83669733Y-32631770D01*
X83859720Y-32764801D01*
X84069923Y-32862820D01*
X84293952Y-32922849D01*
X84293956Y-32922849D01*
X84293959Y-32922850D01*
X84524999Y-32943063D01*
X84525002Y-32943063D01*
X84525005Y-32943063D01*
X84756044Y-32922850D01*
X84756045Y-32922849D01*
X84756052Y-32922849D01*
X84980081Y-32862820D01*
X85190284Y-32764801D01*
X85380271Y-32631770D01*
X85544272Y-32467769D01*
X85677303Y-32277782D01*
X85775322Y-32067579D01*
X85835351Y-31843550D01*
X85837546Y-31818469D01*
X85855565Y-31612503D01*
X85855565Y-31612496D01*
X85835352Y-31381457D01*
X85835351Y-31381454D01*
X85835351Y-31381450D01*
X85775322Y-31157421D01*
X85677303Y-30947219D01*
X85625371Y-30873052D01*
X85590029Y-30822578D01*
X85572140Y-30764066D01*
X85592060Y-30706214D01*
X85642181Y-30671120D01*
X85703357Y-30672188D01*
X85714905Y-30677001D01*
X85793154Y-30715589D01*
X85793157Y-30715591D01*
X86081818Y-30813578D01*
X86081820Y-30813578D01*
X86081825Y-30813580D01*
X86380810Y-30873052D01*
X86685000Y-30892990D01*
X86989190Y-30873052D01*
X87288175Y-30813580D01*
X87576840Y-30715592D01*
X87850245Y-30580764D01*
X88103712Y-30411402D01*
X88332905Y-30210405D01*
X88533902Y-29981212D01*
X88703264Y-29727745D01*
X88838092Y-29454340D01*
X88936080Y-29165675D01*
X88995552Y-28866690D01*
X89015490Y-28562500D01*
X95784510Y-28562500D01*
X95804447Y-28866687D01*
X95863921Y-29165681D01*
X95961908Y-29454342D01*
X95961910Y-29454346D01*
X96038078Y-29608798D01*
X96096736Y-29727745D01*
X96266098Y-29981212D01*
X96266101Y-29981215D01*
X96266105Y-29981221D01*
X96467086Y-30210395D01*
X96467095Y-30210405D01*
X96467103Y-30210412D01*
X96467104Y-30210413D01*
X96696278Y-30411394D01*
X96696282Y-30411397D01*
X96696288Y-30411402D01*
X96949755Y-30580764D01*
X97094273Y-30652032D01*
X97223153Y-30715589D01*
X97223157Y-30715591D01*
X97511818Y-30813578D01*
X97511820Y-30813578D01*
X97511825Y-30813580D01*
X97810810Y-30873052D01*
X98115000Y-30892990D01*
X98419190Y-30873052D01*
X98718175Y-30813580D01*
X99006840Y-30715592D01*
X99085090Y-30677003D01*
X99145638Y-30668224D01*
X99199787Y-30696712D01*
X99226849Y-30751587D01*
X99216488Y-30811889D01*
X99209971Y-30822577D01*
X99122695Y-30947221D01*
X99064238Y-31072585D01*
X99024678Y-31157421D01*
X98988422Y-31292728D01*
X98964647Y-31381457D01*
X98944435Y-31612496D01*
X98944435Y-31612503D01*
X98964647Y-31843542D01*
X98964648Y-31843549D01*
X98964649Y-31843550D01*
X99024678Y-32067579D01*
X99122697Y-32277782D01*
X99255728Y-32467769D01*
X99419729Y-32631770D01*
X99609716Y-32764801D01*
X99819919Y-32862820D01*
X100043948Y-32922849D01*
X100043952Y-32922849D01*
X100043955Y-32922850D01*
X100274995Y-32943063D01*
X100274998Y-32943063D01*
X100275001Y-32943063D01*
X100506040Y-32922850D01*
X100506041Y-32922849D01*
X100506048Y-32922849D01*
X100730077Y-32862820D01*
X100940280Y-32764801D01*
X101130267Y-32631770D01*
X101294268Y-32467769D01*
X101427299Y-32277782D01*
X101525318Y-32067579D01*
X101585347Y-31843550D01*
X101587542Y-31818469D01*
X101605561Y-31612503D01*
X101605561Y-31612496D01*
X101585348Y-31381457D01*
X101585347Y-31381454D01*
X101585347Y-31381450D01*
X101525318Y-31157421D01*
X101427299Y-30947219D01*
X101294268Y-30757231D01*
X101137037Y-30600000D01*
X108117029Y-30600000D01*
X108136879Y-30839561D01*
X108136879Y-30839562D01*
X108164142Y-30947220D01*
X108195890Y-31072591D01*
X108233100Y-31157421D01*
X108292450Y-31292727D01*
X108292453Y-31292732D01*
X108423925Y-31493964D01*
X108423927Y-31493966D01*
X108423929Y-31493969D01*
X108586736Y-31670825D01*
X108776433Y-31818472D01*
X108871179Y-31869746D01*
X108979249Y-31928231D01*
X108987844Y-31932882D01*
X109215203Y-32010934D01*
X109452308Y-32050500D01*
X109692692Y-32050500D01*
X109929797Y-32010934D01*
X110157156Y-31932882D01*
X110273821Y-31869746D01*
X113202000Y-31869746D01*
X113202001Y-31869758D01*
X113213632Y-31928227D01*
X113213634Y-31928233D01*
X113257945Y-31994548D01*
X113257948Y-31994552D01*
X113324269Y-32038867D01*
X113368731Y-32047711D01*
X113382741Y-32050498D01*
X113382746Y-32050498D01*
X113382752Y-32050500D01*
X113382753Y-32050500D01*
X115922247Y-32050500D01*
X115922248Y-32050500D01*
X115980731Y-32038867D01*
X116047052Y-31994552D01*
X116091367Y-31928231D01*
X116103000Y-31869748D01*
X116103000Y-29330252D01*
X116091367Y-29271769D01*
X116047052Y-29205448D01*
X116032221Y-29195538D01*
X115980733Y-29161134D01*
X115980731Y-29161133D01*
X115980728Y-29161132D01*
X115980727Y-29161132D01*
X115922258Y-29149501D01*
X115922248Y-29149500D01*
X113382752Y-29149500D01*
X113382751Y-29149500D01*
X113382741Y-29149501D01*
X113324272Y-29161132D01*
X113324266Y-29161134D01*
X113257951Y-29205445D01*
X113257945Y-29205451D01*
X113213634Y-29271766D01*
X113213632Y-29271772D01*
X113202001Y-29330241D01*
X113202000Y-29330253D01*
X113202000Y-31869746D01*
X110273821Y-31869746D01*
X110368567Y-31818472D01*
X110558264Y-31670825D01*
X110721071Y-31493969D01*
X110852549Y-31292728D01*
X110949110Y-31072591D01*
X111008120Y-30839563D01*
X111027971Y-30600000D01*
X111008120Y-30360437D01*
X110949110Y-30127409D01*
X110852549Y-29907272D01*
X110835624Y-29881366D01*
X110721074Y-29706035D01*
X110721072Y-29706033D01*
X110721071Y-29706031D01*
X110558264Y-29529175D01*
X110462124Y-29454346D01*
X110368570Y-29381530D01*
X110368567Y-29381528D01*
X110157159Y-29267119D01*
X110140296Y-29261330D01*
X109929797Y-29189066D01*
X109929794Y-29189065D01*
X109929793Y-29189065D01*
X109692692Y-29149500D01*
X109452308Y-29149500D01*
X109215206Y-29189065D01*
X108987840Y-29267119D01*
X108776432Y-29381528D01*
X108776429Y-29381530D01*
X108586739Y-29529172D01*
X108423925Y-29706035D01*
X108292453Y-29907267D01*
X108292450Y-29907272D01*
X108195888Y-30127414D01*
X108136879Y-30360437D01*
X108136879Y-30360438D01*
X108117029Y-30600000D01*
X101137037Y-30600000D01*
X101130267Y-30593230D01*
X101130263Y-30593227D01*
X101130262Y-30593226D01*
X101024863Y-30519425D01*
X100940280Y-30460199D01*
X100730077Y-30362180D01*
X100506048Y-30302151D01*
X100506047Y-30302150D01*
X100506040Y-30302149D01*
X100275001Y-30281937D01*
X100274995Y-30281937D01*
X100043955Y-30302149D01*
X99886643Y-30344301D01*
X99825541Y-30341098D01*
X99777991Y-30302593D01*
X99762156Y-30243492D01*
X99784083Y-30186371D01*
X99786550Y-30183442D01*
X99963902Y-29981212D01*
X100133264Y-29727745D01*
X100268092Y-29454340D01*
X100366080Y-29165675D01*
X100425552Y-28866690D01*
X100445490Y-28562500D01*
X100425552Y-28258310D01*
X100366080Y-27959325D01*
X100268092Y-27670660D01*
X100133264Y-27397255D01*
X99963902Y-27143788D01*
X99963897Y-27143782D01*
X99963894Y-27143778D01*
X99762913Y-26914604D01*
X99762912Y-26914603D01*
X99762905Y-26914595D01*
X99762895Y-26914586D01*
X99533721Y-26713605D01*
X99533715Y-26713601D01*
X99533712Y-26713598D01*
X99363701Y-26600000D01*
X123994506Y-26600000D01*
X124014468Y-26968197D01*
X124074126Y-27332087D01*
X124172768Y-27687365D01*
X124172772Y-27687376D01*
X124309255Y-28029927D01*
X124309257Y-28029930D01*
X124481978Y-28355716D01*
X124688910Y-28660917D01*
X124688914Y-28660922D01*
X124688915Y-28660923D01*
X124927622Y-28941951D01*
X124927632Y-28941961D01*
X125195326Y-29195535D01*
X125195330Y-29195538D01*
X125488881Y-29418690D01*
X125804838Y-29608795D01*
X126139497Y-29763625D01*
X126488934Y-29881364D01*
X126488939Y-29881365D01*
X126488942Y-29881366D01*
X126849047Y-29960631D01*
X126849048Y-29960631D01*
X126849052Y-29960632D01*
X127215630Y-30000500D01*
X127584370Y-30000500D01*
X127950948Y-29960632D01*
X128311057Y-29881366D01*
X128311058Y-29881366D01*
X128311060Y-29881365D01*
X128311066Y-29881364D01*
X128660503Y-29763625D01*
X128995162Y-29608795D01*
X129311119Y-29418690D01*
X129604670Y-29195538D01*
X129872373Y-28941956D01*
X130111090Y-28660917D01*
X130318022Y-28355716D01*
X130490743Y-28029930D01*
X130627227Y-27687379D01*
X130725875Y-27332081D01*
X130785531Y-26968199D01*
X130805494Y-26600000D01*
X130785531Y-26231801D01*
X130782910Y-26215815D01*
X130738316Y-25943807D01*
X130725875Y-25867919D01*
X130698997Y-25771112D01*
X130627231Y-25512634D01*
X130627229Y-25512629D01*
X130627227Y-25512621D01*
X130490743Y-25170070D01*
X130318022Y-24844284D01*
X130111090Y-24539083D01*
X129962751Y-24364445D01*
X129872377Y-24258048D01*
X129872367Y-24258038D01*
X129604673Y-24004464D01*
X129311123Y-23781313D01*
X129311122Y-23781312D01*
X129311119Y-23781310D01*
X128995162Y-23591205D01*
X128880226Y-23538029D01*
X128660508Y-23436377D01*
X128660505Y-23436376D01*
X128660503Y-23436375D01*
X128311066Y-23318636D01*
X128311065Y-23318635D01*
X128311057Y-23318633D01*
X127950952Y-23239368D01*
X127950953Y-23239368D01*
X127584370Y-23199500D01*
X127215630Y-23199500D01*
X126849046Y-23239368D01*
X126488943Y-23318633D01*
X126488941Y-23318633D01*
X126139491Y-23436377D01*
X125804846Y-23591201D01*
X125804840Y-23591204D01*
X125804838Y-23591205D01*
X125622409Y-23700969D01*
X125488881Y-23781310D01*
X125488876Y-23781313D01*
X125195326Y-24004464D01*
X124927632Y-24258038D01*
X124927622Y-24258048D01*
X124688915Y-24539076D01*
X124688908Y-24539086D01*
X124481981Y-24844278D01*
X124309255Y-25170072D01*
X124172772Y-25512623D01*
X124172768Y-25512634D01*
X124074126Y-25867912D01*
X124014469Y-26231798D01*
X123994506Y-26600000D01*
X99363701Y-26600000D01*
X99280245Y-26544236D01*
X99279416Y-26543827D01*
X99006846Y-26409410D01*
X99006842Y-26409408D01*
X98718181Y-26311421D01*
X98419187Y-26251947D01*
X98115000Y-26232010D01*
X97810812Y-26251947D01*
X97511818Y-26311421D01*
X97223157Y-26409408D01*
X97223153Y-26409410D01*
X96949754Y-26544236D01*
X96696292Y-26713595D01*
X96696278Y-26713605D01*
X96467104Y-26914586D01*
X96467086Y-26914604D01*
X96266105Y-27143778D01*
X96266095Y-27143792D01*
X96096736Y-27397254D01*
X95961910Y-27670653D01*
X95961908Y-27670657D01*
X95863921Y-27959318D01*
X95804447Y-28258312D01*
X95784510Y-28562499D01*
X95784510Y-28562500D01*
X89015490Y-28562500D01*
X88995552Y-28258310D01*
X88936080Y-27959325D01*
X88838092Y-27670660D01*
X88703264Y-27397255D01*
X88533902Y-27143788D01*
X88533897Y-27143782D01*
X88533894Y-27143778D01*
X88332913Y-26914604D01*
X88332912Y-26914603D01*
X88332905Y-26914595D01*
X88332895Y-26914586D01*
X88103721Y-26713605D01*
X88103715Y-26713601D01*
X88103712Y-26713598D01*
X87850245Y-26544236D01*
X87849416Y-26543827D01*
X87576846Y-26409410D01*
X87576842Y-26409408D01*
X87288181Y-26311421D01*
X86989187Y-26251947D01*
X86792266Y-26239040D01*
X86783832Y-26238487D01*
X86727003Y-26215815D01*
X86694354Y-26164069D01*
X86698356Y-26103015D01*
X86723612Y-26066538D01*
X86725903Y-26064449D01*
X86725910Y-26064445D01*
X86873209Y-25930164D01*
X86993326Y-25771104D01*
X87082171Y-25592680D01*
X87136717Y-25400969D01*
X87155108Y-25202500D01*
X95104892Y-25202500D01*
X95123283Y-25400969D01*
X95177829Y-25592680D01*
X95266674Y-25771104D01*
X95386791Y-25930164D01*
X95534090Y-26064445D01*
X95703554Y-26169373D01*
X95889414Y-26241376D01*
X96085340Y-26278000D01*
X96284660Y-26278000D01*
X96480586Y-26241376D01*
X96666446Y-26169373D01*
X96835910Y-26064445D01*
X96983209Y-25930164D01*
X97103326Y-25771104D01*
X97192171Y-25592680D01*
X97246717Y-25400969D01*
X97265108Y-25202500D01*
X97246717Y-25004031D01*
X97192171Y-24812320D01*
X97103326Y-24633896D01*
X96983209Y-24474836D01*
X96835910Y-24340555D01*
X96690063Y-24250250D01*
X96666451Y-24235630D01*
X96666446Y-24235627D01*
X96480583Y-24163623D01*
X96284660Y-24127000D01*
X96085340Y-24127000D01*
X95889416Y-24163623D01*
X95703553Y-24235627D01*
X95703548Y-24235630D01*
X95534094Y-24340552D01*
X95534092Y-24340553D01*
X95534090Y-24340555D01*
X95507882Y-24364447D01*
X95386789Y-24474838D01*
X95266680Y-24633887D01*
X95266670Y-24633903D01*
X95177829Y-24812319D01*
X95123283Y-25004029D01*
X95123283Y-25004031D01*
X95104892Y-25202500D01*
X87155108Y-25202500D01*
X87136717Y-25004031D01*
X87082171Y-24812320D01*
X86993326Y-24633896D01*
X86873209Y-24474836D01*
X86725910Y-24340555D01*
X86580063Y-24250250D01*
X86556451Y-24235630D01*
X86556446Y-24235627D01*
X86370583Y-24163623D01*
X86174660Y-24127000D01*
X85975340Y-24127000D01*
X85779416Y-24163623D01*
X85593553Y-24235627D01*
X85593548Y-24235630D01*
X85424094Y-24340552D01*
X85424092Y-24340553D01*
X85424090Y-24340555D01*
X85397882Y-24364447D01*
X85276789Y-24474838D01*
X85156680Y-24633887D01*
X85156670Y-24633903D01*
X85067829Y-24812319D01*
X85013283Y-25004029D01*
X85013283Y-25004031D01*
X84994892Y-25202500D01*
X85013283Y-25400969D01*
X85067829Y-25592680D01*
X85156674Y-25771104D01*
X85276791Y-25930164D01*
X85424090Y-26064445D01*
X85593554Y-26169373D01*
X85767773Y-26236866D01*
X85815203Y-26275517D01*
X85830857Y-26334666D01*
X85808754Y-26391719D01*
X85775796Y-26417970D01*
X85519754Y-26544236D01*
X85266292Y-26713595D01*
X85266278Y-26713605D01*
X85037104Y-26914586D01*
X85037086Y-26914604D01*
X84836105Y-27143778D01*
X84836095Y-27143792D01*
X84666736Y-27397254D01*
X84531910Y-27670653D01*
X84531908Y-27670657D01*
X84433921Y-27959318D01*
X84374447Y-28258312D01*
X84354510Y-28562499D01*
X84354510Y-28562500D01*
X84374447Y-28866687D01*
X84433921Y-29165681D01*
X84531908Y-29454342D01*
X84531910Y-29454346D01*
X84608078Y-29608798D01*
X84666736Y-29727745D01*
X84836098Y-29981212D01*
X84836101Y-29981215D01*
X84836105Y-29981221D01*
X85013411Y-30183399D01*
X85037564Y-30239615D01*
X85024060Y-30299292D01*
X84978059Y-30339634D01*
X84917130Y-30345233D01*
X84913356Y-30344301D01*
X84756052Y-30302151D01*
X84756051Y-30302150D01*
X84756044Y-30302149D01*
X84525005Y-30281937D01*
X84524999Y-30281937D01*
X84293959Y-30302149D01*
X84293952Y-30302151D01*
X84069923Y-30362180D01*
X83971905Y-30407886D01*
X83859722Y-30460198D01*
X83669737Y-30593226D01*
X83505728Y-30757235D01*
X83372700Y-30947220D01*
X83372700Y-30947221D01*
X83274682Y-31157421D01*
X83238426Y-31292728D01*
X83214651Y-31381457D01*
X83194439Y-31612496D01*
X83194439Y-31612503D01*
X72700500Y-31612503D01*
X72700500Y-26602165D01*
X72700547Y-26600000D01*
X73994506Y-26600000D01*
X74014468Y-26968197D01*
X74074126Y-27332087D01*
X74172768Y-27687365D01*
X74172772Y-27687376D01*
X74309255Y-28029927D01*
X74309257Y-28029930D01*
X74481978Y-28355716D01*
X74688910Y-28660917D01*
X74688914Y-28660922D01*
X74688915Y-28660923D01*
X74927622Y-28941951D01*
X74927632Y-28941961D01*
X75195326Y-29195535D01*
X75195330Y-29195538D01*
X75488881Y-29418690D01*
X75804838Y-29608795D01*
X76139497Y-29763625D01*
X76488934Y-29881364D01*
X76488939Y-29881365D01*
X76488942Y-29881366D01*
X76849047Y-29960631D01*
X76849048Y-29960631D01*
X76849052Y-29960632D01*
X77215630Y-30000500D01*
X77584370Y-30000500D01*
X77950948Y-29960632D01*
X78311057Y-29881366D01*
X78311058Y-29881366D01*
X78311060Y-29881365D01*
X78311066Y-29881364D01*
X78660503Y-29763625D01*
X78995162Y-29608795D01*
X79311119Y-29418690D01*
X79604670Y-29195538D01*
X79872373Y-28941956D01*
X80111090Y-28660917D01*
X80318022Y-28355716D01*
X80490743Y-28029930D01*
X80627227Y-27687379D01*
X80725875Y-27332081D01*
X80785531Y-26968199D01*
X80805494Y-26600000D01*
X80785531Y-26231801D01*
X80782910Y-26215815D01*
X80738316Y-25943807D01*
X80725875Y-25867919D01*
X80698997Y-25771112D01*
X80627231Y-25512634D01*
X80627229Y-25512629D01*
X80627227Y-25512621D01*
X80490743Y-25170070D01*
X80318022Y-24844284D01*
X80111090Y-24539083D01*
X79962751Y-24364445D01*
X79872377Y-24258048D01*
X79872367Y-24258038D01*
X79604673Y-24004464D01*
X79311123Y-23781313D01*
X79311122Y-23781312D01*
X79311119Y-23781310D01*
X78995162Y-23591205D01*
X78880226Y-23538029D01*
X78803431Y-23502500D01*
X87534892Y-23502500D01*
X87553283Y-23700970D01*
X87602139Y-23872680D01*
X87607829Y-23892680D01*
X87696674Y-24071104D01*
X87816791Y-24230164D01*
X87964090Y-24364445D01*
X88133554Y-24469373D01*
X88319414Y-24541376D01*
X88515340Y-24578000D01*
X88714660Y-24578000D01*
X88910586Y-24541376D01*
X89096446Y-24469373D01*
X89265910Y-24364445D01*
X89413209Y-24230164D01*
X89533326Y-24071104D01*
X89622171Y-23892680D01*
X89676717Y-23700969D01*
X89695108Y-23502500D01*
X89693255Y-23482500D01*
X97644892Y-23482500D01*
X97663283Y-23680970D01*
X97691832Y-23781310D01*
X97717829Y-23872680D01*
X97806674Y-24051104D01*
X97926791Y-24210164D01*
X98074090Y-24344445D01*
X98243554Y-24449373D01*
X98429414Y-24521376D01*
X98625340Y-24558000D01*
X98824660Y-24558000D01*
X99020586Y-24521376D01*
X99206446Y-24449373D01*
X99375910Y-24344445D01*
X99523209Y-24210164D01*
X99643326Y-24051104D01*
X99732171Y-23872680D01*
X99786717Y-23680969D01*
X99805108Y-23482500D01*
X99786717Y-23284031D01*
X99732171Y-23092320D01*
X99643326Y-22913896D01*
X99523209Y-22754836D01*
X99375910Y-22620555D01*
X99206446Y-22515627D01*
X99020586Y-22443624D01*
X99020585Y-22443623D01*
X99020583Y-22443623D01*
X98824660Y-22407000D01*
X98625340Y-22407000D01*
X98429416Y-22443623D01*
X98243553Y-22515627D01*
X98243548Y-22515630D01*
X98074094Y-22620552D01*
X98074092Y-22620553D01*
X98074090Y-22620555D01*
X97931663Y-22750395D01*
X97926789Y-22754838D01*
X97806680Y-22913887D01*
X97806670Y-22913903D01*
X97717829Y-23092319D01*
X97663283Y-23284029D01*
X97644892Y-23482500D01*
X89693255Y-23482500D01*
X89676717Y-23304031D01*
X89622171Y-23112320D01*
X89533326Y-22933896D01*
X89413209Y-22774836D01*
X89265910Y-22640555D01*
X89181178Y-22588091D01*
X89096451Y-22535630D01*
X89096446Y-22535627D01*
X88910583Y-22463623D01*
X88714660Y-22427000D01*
X88515340Y-22427000D01*
X88319416Y-22463623D01*
X88133553Y-22535627D01*
X88133548Y-22535630D01*
X87964094Y-22640552D01*
X87964092Y-22640553D01*
X87964090Y-22640555D01*
X87840711Y-22753030D01*
X87816789Y-22774838D01*
X87696680Y-22933887D01*
X87696670Y-22933903D01*
X87607829Y-23112319D01*
X87553283Y-23304029D01*
X87534892Y-23502500D01*
X78803431Y-23502500D01*
X78660508Y-23436377D01*
X78660505Y-23436376D01*
X78660503Y-23436375D01*
X78311066Y-23318636D01*
X78311065Y-23318635D01*
X78311057Y-23318633D01*
X77950952Y-23239368D01*
X77950953Y-23239368D01*
X77584370Y-23199500D01*
X77215630Y-23199500D01*
X76849046Y-23239368D01*
X76488943Y-23318633D01*
X76488941Y-23318633D01*
X76139491Y-23436377D01*
X75804846Y-23591201D01*
X75804840Y-23591204D01*
X75804838Y-23591205D01*
X75622409Y-23700969D01*
X75488881Y-23781310D01*
X75488876Y-23781313D01*
X75195326Y-24004464D01*
X74927632Y-24258038D01*
X74927622Y-24258048D01*
X74688915Y-24539076D01*
X74688908Y-24539086D01*
X74481981Y-24844278D01*
X74309255Y-25170072D01*
X74172772Y-25512623D01*
X74172768Y-25512634D01*
X74074126Y-25867912D01*
X74014469Y-26231798D01*
X73994506Y-26600000D01*
X72700547Y-26600000D01*
X72700594Y-26597847D01*
X72702935Y-26544236D01*
X72718195Y-26194713D01*
X72718945Y-26186137D01*
X72771332Y-25788220D01*
X72772832Y-25779718D01*
X72774743Y-25771096D01*
X72859699Y-25387886D01*
X72861924Y-25379581D01*
X72982617Y-24996791D01*
X72985569Y-24988682D01*
X73139160Y-24617879D01*
X73142795Y-24610085D01*
X73328120Y-24254079D01*
X73332427Y-24246618D01*
X73548083Y-23908105D01*
X73553021Y-23901054D01*
X73797355Y-23582632D01*
X73802885Y-23576042D01*
X74074049Y-23280119D01*
X74080119Y-23274049D01*
X74376042Y-23002885D01*
X74382632Y-22997355D01*
X74701054Y-22753021D01*
X74708105Y-22748083D01*
X75046618Y-22532427D01*
X75054079Y-22528120D01*
X75410085Y-22342795D01*
X75417879Y-22339160D01*
X75788689Y-22185566D01*
X75796791Y-22182617D01*
X76179581Y-22061924D01*
X76187886Y-22059699D01*
X76579718Y-21972831D01*
X76588220Y-21971332D01*
X76986137Y-21918945D01*
X76994713Y-21918195D01*
X77397847Y-21900593D01*
X77402165Y-21900500D01*
X77447595Y-21900500D01*
X127352405Y-21900500D01*
X127397835Y-21900500D01*
X127402152Y-21900593D01*
G37*
G04 #@! TD.AperFunction*
M02*
