M48
; DRILL file {KiCad 7.0.11} date Mon 26 Aug 2024 03:04:32 PM EDT
; FORMAT={-:-/ absolute / metric / decimal}
; #@! TF.CreationDate,2024-08-26T15:04:32-04:00
; #@! TF.GenerationSoftware,Kicad,Pcbnew,7.0.11
; #@! TF.FileFunction,Plated,1,4,PTH
FMAT,2
METRIC
; #@! TA.AperFunction,Plated,PTH,ViaDrill
T1C0.200
; #@! TA.AperFunction,Plated,PTH,ViaDrill
T2C0.250
; #@! TA.AperFunction,Plated,PTH,ComponentDrill
T3C1.000
; #@! TA.AperFunction,Plated,PTH,ComponentDrill
T4C1.500
; #@! TA.AperFunction,Plated,PTH,ComponentDrill
T5C2.000
; #@! TA.AperFunction,Plated,PTH,ComponentDrill
T6C3.200
; #@! TA.AperFunction,Plated,PTH,ComponentDrill
T7C3.750
%
G90
G05
T1
X118.4Y-38.1
X118.4Y-58.1
X118.4Y-78.1
X118.4Y-98.1
X118.4Y-118.1
X118.4Y-138.1
X118.4Y-158.1
X118.9Y-37.6
X118.9Y-57.6
X118.9Y-77.6
X118.9Y-97.6
X118.9Y-117.6
X118.9Y-137.6
X118.9Y-157.6
X119.4Y-37.1
X119.4Y-57.1
X119.4Y-77.1
X119.4Y-97.1
X119.4Y-117.1
X119.4Y-137.1
X119.4Y-157.1
X119.9Y-38.6
X119.9Y-58.6
X119.9Y-78.6
X119.9Y-98.6
X119.9Y-118.6
X119.9Y-138.6
X119.9Y-158.6
T2
X73.4Y-93.1
X79.9Y-44.1
X120.9Y-33.6
X120.9Y-53.6
X120.9Y-73.6
X120.9Y-93.6
X120.9Y-113.6
X120.9Y-133.6
X120.9Y-153.6
X122.4Y-33.6
X122.4Y-53.6
X122.4Y-73.6
X122.4Y-93.6
X122.4Y-113.6
X122.4Y-133.6
X122.4Y-153.6
X123.9Y-33.6
X123.9Y-53.6
X123.9Y-73.6
X123.9Y-93.6
X123.9Y-113.6
X123.9Y-133.6
X123.9Y-153.6
X125.9Y-39.1
X125.9Y-40.1
X125.9Y-41.1
X125.9Y-42.1
X125.9Y-59.1
X125.9Y-60.1
X125.9Y-61.1
X125.9Y-62.1
X125.9Y-79.1
X125.9Y-80.1
X125.9Y-81.1
X125.9Y-82.1
X125.9Y-99.1
X125.9Y-100.1
X125.9Y-101.1
X125.9Y-102.1
X125.9Y-119.1
X125.9Y-120.1
X125.9Y-121.1
X125.9Y-122.1
X125.9Y-139.1
X125.9Y-140.1
X125.9Y-141.1
X125.9Y-142.1
X125.9Y-159.1
X125.9Y-160.1
X125.9Y-161.1
X125.9Y-162.1
T3
X83.51Y-47.203
X83.51Y-49.742
X83.51Y-52.282
X83.51Y-54.822
X83.51Y-57.362
X83.51Y-59.902
X83.51Y-62.442
X83.51Y-64.983
X83.51Y-67.522
X83.51Y-70.062
X83.51Y-72.602
X83.51Y-75.142
X83.51Y-77.682
X83.51Y-80.222
X83.51Y-82.763
X83.51Y-85.302
X83.51Y-87.843
X83.51Y-90.382
X83.51Y-92.922
X83.51Y-95.462
X101.29Y-47.203
X101.29Y-49.742
X101.29Y-52.282
X101.29Y-54.822
X101.29Y-57.362
X101.29Y-59.902
X101.29Y-62.442
X101.29Y-64.983
X101.29Y-67.522
X101.29Y-70.062
X101.29Y-72.602
X101.29Y-75.142
X101.29Y-77.682
X101.29Y-80.222
X101.29Y-82.763
X101.29Y-85.302
X101.29Y-87.843
X101.29Y-90.382
X101.29Y-92.922
X101.29Y-95.462
T4
X86.075Y-25.203
X87.955Y-37.472
X88.615Y-23.502
X89.225Y-34.932
X90.495Y-37.472
X91.765Y-34.932
X93.035Y-37.472
X94.305Y-34.932
X95.575Y-37.472
X96.185Y-25.203
X96.845Y-34.932
X98.725Y-23.482
X109.572Y-30.6
X114.652Y-30.6
T5
X84.525Y-31.612
X100.275Y-31.612
T6
X77.4Y-26.6
X77.4Y-176.6
X127.4Y-26.6
X127.4Y-176.6
T7
X86.685Y-28.562
X98.115Y-28.562
M30
