%TF.GenerationSoftware,KiCad,Pcbnew,7.0.11*%
%TF.CreationDate,2024-07-26T17:40:04-04:00*%
%TF.ProjectId,cluster-pcb,636c7573-7465-4722-9d70-63622e6b6963,1.0*%
%TF.SameCoordinates,Original*%
%TF.FileFunction,Drillmap*%
%TF.FilePolarity,Positive*%
%FSLAX45Y45*%
G04 Gerber Fmt 4.5, Leading zero omitted, Abs format (unit mm)*
G04 Created by KiCad (PCBNEW 7.0.11) date 2024-07-26 17:40:04*
%MOMM*%
%LPD*%
G01*
G04 APERTURE LIST*
%ADD10C,0.100000*%
%ADD11C,0.200000*%
%ADD12C,0.150000*%
%ADD13C,0.320000*%
%ADD14C,0.375000*%
G04 APERTURE END LIST*
D10*
X7740000Y-2160000D02*
G75*
G03*
X7240000Y-2660000I0J-500000D01*
G01*
X7240000Y-17660000D02*
X7240000Y-2660000D01*
X13240000Y-2660000D02*
X13240000Y-17660000D01*
X12740000Y-18160000D02*
G75*
G03*
X13240000Y-17660000I0J500000D01*
G01*
X13240000Y-2660000D02*
G75*
G03*
X12740000Y-2160000I-500000J0D01*
G01*
X7240000Y-17660000D02*
G75*
G03*
X7740000Y-18160000I500000J0D01*
G01*
X12740000Y-18160000D02*
X7740000Y-18160000D01*
X7740000Y-2160000D02*
X12740000Y-2160000D01*
D11*
D10*
X7930000Y-6200000D02*
X7950000Y-6220000D01*
X7950000Y-6200000D02*
X7930000Y-6220000D01*
X10930000Y-3700000D02*
X10950000Y-3720000D01*
X10950000Y-3700000D02*
X10930000Y-3720000D01*
X11830000Y-3700000D02*
X11850000Y-3720000D01*
X11850000Y-3700000D02*
X11830000Y-3720000D01*
X11830000Y-5700000D02*
X11850000Y-5720000D01*
X11850000Y-5700000D02*
X11830000Y-5720000D01*
X11830000Y-7700000D02*
X11850000Y-7720000D01*
X11850000Y-7700000D02*
X11830000Y-7720000D01*
X11830000Y-9700000D02*
X11850000Y-9720000D01*
X11850000Y-9700000D02*
X11830000Y-9720000D01*
X11830000Y-11700000D02*
X11850000Y-11720000D01*
X11850000Y-11700000D02*
X11830000Y-11720000D01*
X11830000Y-13700000D02*
X11850000Y-13720000D01*
X11850000Y-13700000D02*
X11830000Y-13720000D01*
X11830000Y-15700000D02*
X11850000Y-15720000D01*
X11850000Y-15700000D02*
X11830000Y-15720000D01*
X11880000Y-3650000D02*
X11900000Y-3670000D01*
X11900000Y-3650000D02*
X11880000Y-3670000D01*
X11880000Y-5650000D02*
X11900000Y-5670000D01*
X11900000Y-5650000D02*
X11880000Y-5670000D01*
X11880000Y-7650000D02*
X11900000Y-7670000D01*
X11900000Y-7650000D02*
X11880000Y-7670000D01*
X11880000Y-9650000D02*
X11900000Y-9670000D01*
X11900000Y-9650000D02*
X11880000Y-9670000D01*
X11880000Y-11650000D02*
X11900000Y-11670000D01*
X11900000Y-11650000D02*
X11880000Y-11670000D01*
X11880000Y-13650000D02*
X11900000Y-13670000D01*
X11900000Y-13650000D02*
X11880000Y-13670000D01*
X11880000Y-15650000D02*
X11900000Y-15670000D01*
X11900000Y-15650000D02*
X11880000Y-15670000D01*
X11930000Y-3600000D02*
X11950000Y-3620000D01*
X11950000Y-3600000D02*
X11930000Y-3620000D01*
X11930000Y-5600000D02*
X11950000Y-5620000D01*
X11950000Y-5600000D02*
X11930000Y-5620000D01*
X11930000Y-7600000D02*
X11950000Y-7620000D01*
X11950000Y-7600000D02*
X11930000Y-7620000D01*
X11930000Y-9600000D02*
X11950000Y-9620000D01*
X11950000Y-9600000D02*
X11930000Y-9620000D01*
X11930000Y-11600000D02*
X11950000Y-11620000D01*
X11950000Y-11600000D02*
X11930000Y-11620000D01*
X11930000Y-13600000D02*
X11950000Y-13620000D01*
X11950000Y-13600000D02*
X11930000Y-13620000D01*
X11930000Y-15600000D02*
X11950000Y-15620000D01*
X11950000Y-15600000D02*
X11930000Y-15620000D01*
X11980000Y-3750000D02*
X12000000Y-3770000D01*
X12000000Y-3750000D02*
X11980000Y-3770000D01*
X11980000Y-5750000D02*
X12000000Y-5770000D01*
X12000000Y-5750000D02*
X11980000Y-5770000D01*
X11980000Y-7750000D02*
X12000000Y-7770000D01*
X12000000Y-7750000D02*
X11980000Y-7770000D01*
X11980000Y-9750000D02*
X12000000Y-9770000D01*
X12000000Y-9750000D02*
X11980000Y-9770000D01*
X11980000Y-11750000D02*
X12000000Y-11770000D01*
X12000000Y-11750000D02*
X11980000Y-11770000D01*
X11980000Y-13750000D02*
X12000000Y-13770000D01*
X12000000Y-13750000D02*
X11980000Y-13770000D01*
X11980000Y-15750000D02*
X12000000Y-15770000D01*
X12000000Y-15750000D02*
X11980000Y-15770000D01*
X7552500Y-4060000D02*
G75*
G03*
X7527500Y-4060000I-12500J0D01*
G01*
X7527500Y-4060000D02*
G75*
G03*
X7552500Y-4060000I12500J0D01*
G01*
X7752500Y-3660000D02*
G75*
G03*
X7727500Y-3660000I-12500J0D01*
G01*
X7727500Y-3660000D02*
G75*
G03*
X7752500Y-3660000I12500J0D01*
G01*
X7952500Y-4610000D02*
G75*
G03*
X7927500Y-4610000I-12500J0D01*
G01*
X7927500Y-4610000D02*
G75*
G03*
X7952500Y-4610000I12500J0D01*
G01*
X8102500Y-6410000D02*
G75*
G03*
X8077500Y-6410000I-12500J0D01*
G01*
X8077500Y-6410000D02*
G75*
G03*
X8102500Y-6410000I12500J0D01*
G01*
X8152500Y-4360000D02*
G75*
G03*
X8127500Y-4360000I-12500J0D01*
G01*
X8127500Y-4360000D02*
G75*
G03*
X8152500Y-4360000I12500J0D01*
G01*
X12102500Y-3260000D02*
G75*
G03*
X12077500Y-3260000I-12500J0D01*
G01*
X12077500Y-3260000D02*
G75*
G03*
X12102500Y-3260000I12500J0D01*
G01*
X12102500Y-5260000D02*
G75*
G03*
X12077500Y-5260000I-12500J0D01*
G01*
X12077500Y-5260000D02*
G75*
G03*
X12102500Y-5260000I12500J0D01*
G01*
X12102500Y-7260000D02*
G75*
G03*
X12077500Y-7260000I-12500J0D01*
G01*
X12077500Y-7260000D02*
G75*
G03*
X12102500Y-7260000I12500J0D01*
G01*
X12102500Y-9260000D02*
G75*
G03*
X12077500Y-9260000I-12500J0D01*
G01*
X12077500Y-9260000D02*
G75*
G03*
X12102500Y-9260000I12500J0D01*
G01*
X12102500Y-11260000D02*
G75*
G03*
X12077500Y-11260000I-12500J0D01*
G01*
X12077500Y-11260000D02*
G75*
G03*
X12102500Y-11260000I12500J0D01*
G01*
X12102500Y-13260000D02*
G75*
G03*
X12077500Y-13260000I-12500J0D01*
G01*
X12077500Y-13260000D02*
G75*
G03*
X12102500Y-13260000I12500J0D01*
G01*
X12102500Y-15260000D02*
G75*
G03*
X12077500Y-15260000I-12500J0D01*
G01*
X12077500Y-15260000D02*
G75*
G03*
X12102500Y-15260000I12500J0D01*
G01*
X12402500Y-3260000D02*
G75*
G03*
X12377500Y-3260000I-12500J0D01*
G01*
X12377500Y-3260000D02*
G75*
G03*
X12402500Y-3260000I12500J0D01*
G01*
X12402500Y-5260000D02*
G75*
G03*
X12377500Y-5260000I-12500J0D01*
G01*
X12377500Y-5260000D02*
G75*
G03*
X12402500Y-5260000I12500J0D01*
G01*
X12402500Y-7260000D02*
G75*
G03*
X12377500Y-7260000I-12500J0D01*
G01*
X12377500Y-7260000D02*
G75*
G03*
X12402500Y-7260000I12500J0D01*
G01*
X12402500Y-9260000D02*
G75*
G03*
X12377500Y-9260000I-12500J0D01*
G01*
X12377500Y-9260000D02*
G75*
G03*
X12402500Y-9260000I12500J0D01*
G01*
X12402500Y-11260000D02*
G75*
G03*
X12377500Y-11260000I-12500J0D01*
G01*
X12377500Y-11260000D02*
G75*
G03*
X12402500Y-11260000I12500J0D01*
G01*
X12402500Y-13260000D02*
G75*
G03*
X12377500Y-13260000I-12500J0D01*
G01*
X12377500Y-13260000D02*
G75*
G03*
X12402500Y-13260000I12500J0D01*
G01*
X12402500Y-15260000D02*
G75*
G03*
X12377500Y-15260000I-12500J0D01*
G01*
X12377500Y-15260000D02*
G75*
G03*
X12402500Y-15260000I12500J0D01*
G01*
X12602500Y-3910000D02*
G75*
G03*
X12577500Y-3910000I-12500J0D01*
G01*
X12577500Y-3910000D02*
G75*
G03*
X12602500Y-3910000I12500J0D01*
G01*
X12602500Y-4010000D02*
G75*
G03*
X12577500Y-4010000I-12500J0D01*
G01*
X12577500Y-4010000D02*
G75*
G03*
X12602500Y-4010000I12500J0D01*
G01*
X12602500Y-4110000D02*
G75*
G03*
X12577500Y-4110000I-12500J0D01*
G01*
X12577500Y-4110000D02*
G75*
G03*
X12602500Y-4110000I12500J0D01*
G01*
X12602500Y-4210000D02*
G75*
G03*
X12577500Y-4210000I-12500J0D01*
G01*
X12577500Y-4210000D02*
G75*
G03*
X12602500Y-4210000I12500J0D01*
G01*
X12602500Y-5910000D02*
G75*
G03*
X12577500Y-5910000I-12500J0D01*
G01*
X12577500Y-5910000D02*
G75*
G03*
X12602500Y-5910000I12500J0D01*
G01*
X12602500Y-6010000D02*
G75*
G03*
X12577500Y-6010000I-12500J0D01*
G01*
X12577500Y-6010000D02*
G75*
G03*
X12602500Y-6010000I12500J0D01*
G01*
X12602500Y-6110000D02*
G75*
G03*
X12577500Y-6110000I-12500J0D01*
G01*
X12577500Y-6110000D02*
G75*
G03*
X12602500Y-6110000I12500J0D01*
G01*
X12602500Y-6210000D02*
G75*
G03*
X12577500Y-6210000I-12500J0D01*
G01*
X12577500Y-6210000D02*
G75*
G03*
X12602500Y-6210000I12500J0D01*
G01*
X12602500Y-7910000D02*
G75*
G03*
X12577500Y-7910000I-12500J0D01*
G01*
X12577500Y-7910000D02*
G75*
G03*
X12602500Y-7910000I12500J0D01*
G01*
X12602500Y-8010000D02*
G75*
G03*
X12577500Y-8010000I-12500J0D01*
G01*
X12577500Y-8010000D02*
G75*
G03*
X12602500Y-8010000I12500J0D01*
G01*
X12602500Y-8110000D02*
G75*
G03*
X12577500Y-8110000I-12500J0D01*
G01*
X12577500Y-8110000D02*
G75*
G03*
X12602500Y-8110000I12500J0D01*
G01*
X12602500Y-8210000D02*
G75*
G03*
X12577500Y-8210000I-12500J0D01*
G01*
X12577500Y-8210000D02*
G75*
G03*
X12602500Y-8210000I12500J0D01*
G01*
X12602500Y-9910000D02*
G75*
G03*
X12577500Y-9910000I-12500J0D01*
G01*
X12577500Y-9910000D02*
G75*
G03*
X12602500Y-9910000I12500J0D01*
G01*
X12602500Y-10010000D02*
G75*
G03*
X12577500Y-10010000I-12500J0D01*
G01*
X12577500Y-10010000D02*
G75*
G03*
X12602500Y-10010000I12500J0D01*
G01*
X12602500Y-10110000D02*
G75*
G03*
X12577500Y-10110000I-12500J0D01*
G01*
X12577500Y-10110000D02*
G75*
G03*
X12602500Y-10110000I12500J0D01*
G01*
X12602500Y-10210000D02*
G75*
G03*
X12577500Y-10210000I-12500J0D01*
G01*
X12577500Y-10210000D02*
G75*
G03*
X12602500Y-10210000I12500J0D01*
G01*
X12602500Y-11910000D02*
G75*
G03*
X12577500Y-11910000I-12500J0D01*
G01*
X12577500Y-11910000D02*
G75*
G03*
X12602500Y-11910000I12500J0D01*
G01*
X12602500Y-12010000D02*
G75*
G03*
X12577500Y-12010000I-12500J0D01*
G01*
X12577500Y-12010000D02*
G75*
G03*
X12602500Y-12010000I12500J0D01*
G01*
X12602500Y-12110000D02*
G75*
G03*
X12577500Y-12110000I-12500J0D01*
G01*
X12577500Y-12110000D02*
G75*
G03*
X12602500Y-12110000I12500J0D01*
G01*
X12602500Y-12210000D02*
G75*
G03*
X12577500Y-12210000I-12500J0D01*
G01*
X12577500Y-12210000D02*
G75*
G03*
X12602500Y-12210000I12500J0D01*
G01*
X12602500Y-13910000D02*
G75*
G03*
X12577500Y-13910000I-12500J0D01*
G01*
X12577500Y-13910000D02*
G75*
G03*
X12602500Y-13910000I12500J0D01*
G01*
X12602500Y-14010000D02*
G75*
G03*
X12577500Y-14010000I-12500J0D01*
G01*
X12577500Y-14010000D02*
G75*
G03*
X12602500Y-14010000I12500J0D01*
G01*
X12602500Y-14110000D02*
G75*
G03*
X12577500Y-14110000I-12500J0D01*
G01*
X12577500Y-14110000D02*
G75*
G03*
X12602500Y-14110000I12500J0D01*
G01*
X12602500Y-14210000D02*
G75*
G03*
X12577500Y-14210000I-12500J0D01*
G01*
X12577500Y-14210000D02*
G75*
G03*
X12602500Y-14210000I12500J0D01*
G01*
X12602500Y-15910000D02*
G75*
G03*
X12577500Y-15910000I-12500J0D01*
G01*
X12577500Y-15910000D02*
G75*
G03*
X12602500Y-15910000I12500J0D01*
G01*
X12602500Y-16010000D02*
G75*
G03*
X12577500Y-16010000I-12500J0D01*
G01*
X12577500Y-16010000D02*
G75*
G03*
X12602500Y-16010000I12500J0D01*
G01*
X12602500Y-16110000D02*
G75*
G03*
X12577500Y-16110000I-12500J0D01*
G01*
X12577500Y-16110000D02*
G75*
G03*
X12602500Y-16110000I12500J0D01*
G01*
X12602500Y-16210000D02*
G75*
G03*
X12577500Y-16210000I-12500J0D01*
G01*
X12577500Y-16210000D02*
G75*
G03*
X12602500Y-16210000I12500J0D01*
G01*
X8351000Y-4670250D02*
X8351000Y-4770250D01*
X8301000Y-4720250D02*
X8401000Y-4720250D01*
X8351000Y-4924250D02*
X8351000Y-5024250D01*
X8301000Y-4974250D02*
X8401000Y-4974250D01*
X8351000Y-5178250D02*
X8351000Y-5278250D01*
X8301000Y-5228250D02*
X8401000Y-5228250D01*
X8351000Y-5432250D02*
X8351000Y-5532250D01*
X8301000Y-5482250D02*
X8401000Y-5482250D01*
X8351000Y-5686250D02*
X8351000Y-5786250D01*
X8301000Y-5736250D02*
X8401000Y-5736250D01*
X8351000Y-5940250D02*
X8351000Y-6040250D01*
X8301000Y-5990250D02*
X8401000Y-5990250D01*
X8351000Y-6194250D02*
X8351000Y-6294250D01*
X8301000Y-6244250D02*
X8401000Y-6244250D01*
X8351000Y-6448250D02*
X8351000Y-6548250D01*
X8301000Y-6498250D02*
X8401000Y-6498250D01*
X8351000Y-6702250D02*
X8351000Y-6802250D01*
X8301000Y-6752250D02*
X8401000Y-6752250D01*
X8351000Y-6956250D02*
X8351000Y-7056250D01*
X8301000Y-7006250D02*
X8401000Y-7006250D01*
X8351000Y-7210250D02*
X8351000Y-7310250D01*
X8301000Y-7260250D02*
X8401000Y-7260250D01*
X8351000Y-7464250D02*
X8351000Y-7564250D01*
X8301000Y-7514250D02*
X8401000Y-7514250D01*
X8351000Y-7718250D02*
X8351000Y-7818250D01*
X8301000Y-7768250D02*
X8401000Y-7768250D01*
X8351000Y-7972250D02*
X8351000Y-8072250D01*
X8301000Y-8022250D02*
X8401000Y-8022250D01*
X8351000Y-8226250D02*
X8351000Y-8326250D01*
X8301000Y-8276250D02*
X8401000Y-8276250D01*
X8351000Y-8480250D02*
X8351000Y-8580250D01*
X8301000Y-8530250D02*
X8401000Y-8530250D01*
X8351000Y-8734250D02*
X8351000Y-8834250D01*
X8301000Y-8784250D02*
X8401000Y-8784250D01*
X8351000Y-8988250D02*
X8351000Y-9088250D01*
X8301000Y-9038250D02*
X8401000Y-9038250D01*
X8351000Y-9242250D02*
X8351000Y-9342250D01*
X8301000Y-9292250D02*
X8401000Y-9292250D01*
X8351000Y-9496250D02*
X8351000Y-9596250D01*
X8301000Y-9546250D02*
X8401000Y-9546250D01*
X10129000Y-4670250D02*
X10129000Y-4770250D01*
X10079000Y-4720250D02*
X10179000Y-4720250D01*
X10129000Y-4924250D02*
X10129000Y-5024250D01*
X10079000Y-4974250D02*
X10179000Y-4974250D01*
X10129000Y-5178250D02*
X10129000Y-5278250D01*
X10079000Y-5228250D02*
X10179000Y-5228250D01*
X10129000Y-5432250D02*
X10129000Y-5532250D01*
X10079000Y-5482250D02*
X10179000Y-5482250D01*
X10129000Y-5686250D02*
X10129000Y-5786250D01*
X10079000Y-5736250D02*
X10179000Y-5736250D01*
X10129000Y-5940250D02*
X10129000Y-6040250D01*
X10079000Y-5990250D02*
X10179000Y-5990250D01*
X10129000Y-6194250D02*
X10129000Y-6294250D01*
X10079000Y-6244250D02*
X10179000Y-6244250D01*
X10129000Y-6448250D02*
X10129000Y-6548250D01*
X10079000Y-6498250D02*
X10179000Y-6498250D01*
X10129000Y-6702250D02*
X10129000Y-6802250D01*
X10079000Y-6752250D02*
X10179000Y-6752250D01*
X10129000Y-6956250D02*
X10129000Y-7056250D01*
X10079000Y-7006250D02*
X10179000Y-7006250D01*
X10129000Y-7210250D02*
X10129000Y-7310250D01*
X10079000Y-7260250D02*
X10179000Y-7260250D01*
X10129000Y-7464250D02*
X10129000Y-7564250D01*
X10079000Y-7514250D02*
X10179000Y-7514250D01*
X10129000Y-7718250D02*
X10129000Y-7818250D01*
X10079000Y-7768250D02*
X10179000Y-7768250D01*
X10129000Y-7972250D02*
X10129000Y-8072250D01*
X10079000Y-8022250D02*
X10179000Y-8022250D01*
X10129000Y-8226250D02*
X10129000Y-8326250D01*
X10079000Y-8276250D02*
X10179000Y-8276250D01*
X10129000Y-8480250D02*
X10129000Y-8580250D01*
X10079000Y-8530250D02*
X10179000Y-8530250D01*
X10129000Y-8734250D02*
X10129000Y-8834250D01*
X10079000Y-8784250D02*
X10179000Y-8784250D01*
X10129000Y-8988250D02*
X10129000Y-9088250D01*
X10079000Y-9038250D02*
X10179000Y-9038250D01*
X10129000Y-9242250D02*
X10129000Y-9342250D01*
X10079000Y-9292250D02*
X10179000Y-9292250D01*
X10129000Y-9496250D02*
X10129000Y-9596250D01*
X10079000Y-9546250D02*
X10179000Y-9546250D01*
D12*
X8660534Y-2573284D02*
X8660534Y-2467217D01*
X8554467Y-2467217D01*
X8554467Y-2573284D01*
X8660534Y-2573284D01*
X8848534Y-3800283D02*
X8848534Y-3694216D01*
X8742467Y-3694216D01*
X8742467Y-3800283D01*
X8848534Y-3800283D01*
X8914534Y-2403284D02*
X8914534Y-2297217D01*
X8808467Y-2297217D01*
X8808467Y-2403284D01*
X8914534Y-2403284D01*
X8975534Y-3546283D02*
X8975534Y-3440216D01*
X8869467Y-3440216D01*
X8869467Y-3546283D01*
X8975534Y-3546283D01*
X9102534Y-3800283D02*
X9102534Y-3694216D01*
X8996467Y-3694216D01*
X8996467Y-3800283D01*
X9102534Y-3800283D01*
X9229534Y-3546283D02*
X9229534Y-3440216D01*
X9123467Y-3440216D01*
X9123467Y-3546283D01*
X9229534Y-3546283D01*
X9356534Y-3800283D02*
X9356534Y-3694216D01*
X9250467Y-3694216D01*
X9250467Y-3800283D01*
X9356534Y-3800283D01*
X9483534Y-3546283D02*
X9483534Y-3440216D01*
X9377467Y-3440216D01*
X9377467Y-3546283D01*
X9483534Y-3546283D01*
X9610534Y-3800283D02*
X9610534Y-3694216D01*
X9504467Y-3694216D01*
X9504467Y-3800283D01*
X9610534Y-3800283D01*
X9671534Y-2573284D02*
X9671534Y-2467217D01*
X9565467Y-2467217D01*
X9565467Y-2573284D01*
X9671534Y-2573284D01*
X9737534Y-3546283D02*
X9737534Y-3440216D01*
X9631467Y-3440216D01*
X9631467Y-3546283D01*
X9737534Y-3546283D01*
X9925534Y-2401284D02*
X9925534Y-2295217D01*
X9819467Y-2295217D01*
X9819467Y-2401284D01*
X9925534Y-2401284D01*
X11010284Y-3113033D02*
X11010284Y-3006966D01*
X10904217Y-3006966D01*
X10904217Y-3113033D01*
X11010284Y-3113033D01*
X11518283Y-3113033D02*
X11518283Y-3006966D01*
X11412216Y-3006966D01*
X11412216Y-3113033D01*
X11518283Y-3113033D01*
D11*
X8452500Y-3261250D02*
X8552500Y-3161250D01*
X8452500Y-3061250D01*
X8352500Y-3161250D01*
X8452500Y-3261250D01*
X10027500Y-3261250D02*
X10127500Y-3161250D01*
X10027500Y-3061250D01*
X9927500Y-3161250D01*
X10027500Y-3261250D01*
D13*
X7580000Y-2500000D02*
X7900000Y-2820000D01*
X7900000Y-2500000D02*
X7580000Y-2820000D01*
X7900000Y-2660000D02*
G75*
G03*
X7580000Y-2660000I-160000J0D01*
G01*
X7580000Y-2660000D02*
G75*
G03*
X7900000Y-2660000I160000J0D01*
G01*
X7580000Y-17500000D02*
X7900000Y-17820000D01*
X7900000Y-17500000D02*
X7580000Y-17820000D01*
X7900000Y-17660000D02*
G75*
G03*
X7580000Y-17660000I-160000J0D01*
G01*
X7580000Y-17660000D02*
G75*
G03*
X7900000Y-17660000I160000J0D01*
G01*
X12580000Y-2500000D02*
X12900000Y-2820000D01*
X12900000Y-2500000D02*
X12580000Y-2820000D01*
X12900000Y-2660000D02*
G75*
G03*
X12580000Y-2660000I-160000J0D01*
G01*
X12580000Y-2660000D02*
G75*
G03*
X12900000Y-2660000I160000J0D01*
G01*
X12580000Y-17500000D02*
X12900000Y-17820000D01*
X12900000Y-17500000D02*
X12580000Y-17820000D01*
X12900000Y-17660000D02*
G75*
G03*
X12580000Y-17660000I-160000J0D01*
G01*
X12580000Y-17660000D02*
G75*
G03*
X12900000Y-17660000I160000J0D01*
G01*
D14*
X8481000Y-2668750D02*
X8856000Y-3043750D01*
X8856000Y-2668750D02*
X8481000Y-3043750D01*
X8668500Y-2668750D02*
X8668500Y-3043750D01*
X8481000Y-2856250D02*
X8856000Y-2856250D01*
X9624000Y-2668750D02*
X9999000Y-3043750D01*
X9999000Y-2668750D02*
X9624000Y-3043750D01*
X9811500Y-2668750D02*
X9811500Y-3043750D01*
X9624000Y-2856250D02*
X9999000Y-2856250D01*
D11*
X7495777Y-18476484D02*
X7495777Y-18276484D01*
X7495777Y-18276484D02*
X7543396Y-18276484D01*
X7543396Y-18276484D02*
X7571967Y-18286008D01*
X7571967Y-18286008D02*
X7591015Y-18305055D01*
X7591015Y-18305055D02*
X7600539Y-18324103D01*
X7600539Y-18324103D02*
X7610062Y-18362198D01*
X7610062Y-18362198D02*
X7610062Y-18390770D01*
X7610062Y-18390770D02*
X7600539Y-18428865D01*
X7600539Y-18428865D02*
X7591015Y-18447912D01*
X7591015Y-18447912D02*
X7571967Y-18466960D01*
X7571967Y-18466960D02*
X7543396Y-18476484D01*
X7543396Y-18476484D02*
X7495777Y-18476484D01*
X7695777Y-18476484D02*
X7695777Y-18343150D01*
X7695777Y-18381246D02*
X7705301Y-18362198D01*
X7705301Y-18362198D02*
X7714824Y-18352674D01*
X7714824Y-18352674D02*
X7733872Y-18343150D01*
X7733872Y-18343150D02*
X7752920Y-18343150D01*
X7819586Y-18476484D02*
X7819586Y-18343150D01*
X7819586Y-18276484D02*
X7810062Y-18286008D01*
X7810062Y-18286008D02*
X7819586Y-18295531D01*
X7819586Y-18295531D02*
X7829110Y-18286008D01*
X7829110Y-18286008D02*
X7819586Y-18276484D01*
X7819586Y-18276484D02*
X7819586Y-18295531D01*
X7943396Y-18476484D02*
X7924348Y-18466960D01*
X7924348Y-18466960D02*
X7914824Y-18447912D01*
X7914824Y-18447912D02*
X7914824Y-18276484D01*
X8048158Y-18476484D02*
X8029110Y-18466960D01*
X8029110Y-18466960D02*
X8019586Y-18447912D01*
X8019586Y-18447912D02*
X8019586Y-18276484D01*
X8276729Y-18476484D02*
X8276729Y-18276484D01*
X8276729Y-18276484D02*
X8343396Y-18419341D01*
X8343396Y-18419341D02*
X8410063Y-18276484D01*
X8410063Y-18276484D02*
X8410063Y-18476484D01*
X8591015Y-18476484D02*
X8591015Y-18371722D01*
X8591015Y-18371722D02*
X8581491Y-18352674D01*
X8581491Y-18352674D02*
X8562444Y-18343150D01*
X8562444Y-18343150D02*
X8524348Y-18343150D01*
X8524348Y-18343150D02*
X8505301Y-18352674D01*
X8591015Y-18466960D02*
X8571967Y-18476484D01*
X8571967Y-18476484D02*
X8524348Y-18476484D01*
X8524348Y-18476484D02*
X8505301Y-18466960D01*
X8505301Y-18466960D02*
X8495777Y-18447912D01*
X8495777Y-18447912D02*
X8495777Y-18428865D01*
X8495777Y-18428865D02*
X8505301Y-18409817D01*
X8505301Y-18409817D02*
X8524348Y-18400293D01*
X8524348Y-18400293D02*
X8571967Y-18400293D01*
X8571967Y-18400293D02*
X8591015Y-18390770D01*
X8686253Y-18343150D02*
X8686253Y-18543150D01*
X8686253Y-18352674D02*
X8705301Y-18343150D01*
X8705301Y-18343150D02*
X8743396Y-18343150D01*
X8743396Y-18343150D02*
X8762444Y-18352674D01*
X8762444Y-18352674D02*
X8771967Y-18362198D01*
X8771967Y-18362198D02*
X8781491Y-18381246D01*
X8781491Y-18381246D02*
X8781491Y-18438389D01*
X8781491Y-18438389D02*
X8771967Y-18457436D01*
X8771967Y-18457436D02*
X8762444Y-18466960D01*
X8762444Y-18466960D02*
X8743396Y-18476484D01*
X8743396Y-18476484D02*
X8705301Y-18476484D01*
X8705301Y-18476484D02*
X8686253Y-18466960D01*
X8867205Y-18457436D02*
X8876729Y-18466960D01*
X8876729Y-18466960D02*
X8867205Y-18476484D01*
X8867205Y-18476484D02*
X8857682Y-18466960D01*
X8857682Y-18466960D02*
X8867205Y-18457436D01*
X8867205Y-18457436D02*
X8867205Y-18476484D01*
X8867205Y-18352674D02*
X8876729Y-18362198D01*
X8876729Y-18362198D02*
X8867205Y-18371722D01*
X8867205Y-18371722D02*
X8857682Y-18362198D01*
X8857682Y-18362198D02*
X8867205Y-18352674D01*
X8867205Y-18352674D02*
X8867205Y-18371722D01*
D10*
X7215000Y-18795000D02*
X7235000Y-18815000D01*
X7235000Y-18795000D02*
X7215000Y-18815000D01*
D11*
X7533872Y-18696484D02*
X7552920Y-18696484D01*
X7552920Y-18696484D02*
X7571967Y-18706008D01*
X7571967Y-18706008D02*
X7581491Y-18715531D01*
X7581491Y-18715531D02*
X7591015Y-18734579D01*
X7591015Y-18734579D02*
X7600539Y-18772674D01*
X7600539Y-18772674D02*
X7600539Y-18820293D01*
X7600539Y-18820293D02*
X7591015Y-18858389D01*
X7591015Y-18858389D02*
X7581491Y-18877436D01*
X7581491Y-18877436D02*
X7571967Y-18886960D01*
X7571967Y-18886960D02*
X7552920Y-18896484D01*
X7552920Y-18896484D02*
X7533872Y-18896484D01*
X7533872Y-18896484D02*
X7514824Y-18886960D01*
X7514824Y-18886960D02*
X7505301Y-18877436D01*
X7505301Y-18877436D02*
X7495777Y-18858389D01*
X7495777Y-18858389D02*
X7486253Y-18820293D01*
X7486253Y-18820293D02*
X7486253Y-18772674D01*
X7486253Y-18772674D02*
X7495777Y-18734579D01*
X7495777Y-18734579D02*
X7505301Y-18715531D01*
X7505301Y-18715531D02*
X7514824Y-18706008D01*
X7514824Y-18706008D02*
X7533872Y-18696484D01*
X7686253Y-18877436D02*
X7695777Y-18886960D01*
X7695777Y-18886960D02*
X7686253Y-18896484D01*
X7686253Y-18896484D02*
X7676729Y-18886960D01*
X7676729Y-18886960D02*
X7686253Y-18877436D01*
X7686253Y-18877436D02*
X7686253Y-18896484D01*
X7771967Y-18715531D02*
X7781491Y-18706008D01*
X7781491Y-18706008D02*
X7800539Y-18696484D01*
X7800539Y-18696484D02*
X7848158Y-18696484D01*
X7848158Y-18696484D02*
X7867205Y-18706008D01*
X7867205Y-18706008D02*
X7876729Y-18715531D01*
X7876729Y-18715531D02*
X7886253Y-18734579D01*
X7886253Y-18734579D02*
X7886253Y-18753627D01*
X7886253Y-18753627D02*
X7876729Y-18782198D01*
X7876729Y-18782198D02*
X7762443Y-18896484D01*
X7762443Y-18896484D02*
X7886253Y-18896484D01*
X8010062Y-18696484D02*
X8029110Y-18696484D01*
X8029110Y-18696484D02*
X8048158Y-18706008D01*
X8048158Y-18706008D02*
X8057682Y-18715531D01*
X8057682Y-18715531D02*
X8067205Y-18734579D01*
X8067205Y-18734579D02*
X8076729Y-18772674D01*
X8076729Y-18772674D02*
X8076729Y-18820293D01*
X8076729Y-18820293D02*
X8067205Y-18858389D01*
X8067205Y-18858389D02*
X8057682Y-18877436D01*
X8057682Y-18877436D02*
X8048158Y-18886960D01*
X8048158Y-18886960D02*
X8029110Y-18896484D01*
X8029110Y-18896484D02*
X8010062Y-18896484D01*
X8010062Y-18896484D02*
X7991015Y-18886960D01*
X7991015Y-18886960D02*
X7981491Y-18877436D01*
X7981491Y-18877436D02*
X7971967Y-18858389D01*
X7971967Y-18858389D02*
X7962443Y-18820293D01*
X7962443Y-18820293D02*
X7962443Y-18772674D01*
X7962443Y-18772674D02*
X7971967Y-18734579D01*
X7971967Y-18734579D02*
X7981491Y-18715531D01*
X7981491Y-18715531D02*
X7991015Y-18706008D01*
X7991015Y-18706008D02*
X8010062Y-18696484D01*
X8200539Y-18696484D02*
X8219586Y-18696484D01*
X8219586Y-18696484D02*
X8238634Y-18706008D01*
X8238634Y-18706008D02*
X8248158Y-18715531D01*
X8248158Y-18715531D02*
X8257682Y-18734579D01*
X8257682Y-18734579D02*
X8267205Y-18772674D01*
X8267205Y-18772674D02*
X8267205Y-18820293D01*
X8267205Y-18820293D02*
X8257682Y-18858389D01*
X8257682Y-18858389D02*
X8248158Y-18877436D01*
X8248158Y-18877436D02*
X8238634Y-18886960D01*
X8238634Y-18886960D02*
X8219586Y-18896484D01*
X8219586Y-18896484D02*
X8200539Y-18896484D01*
X8200539Y-18896484D02*
X8181491Y-18886960D01*
X8181491Y-18886960D02*
X8171967Y-18877436D01*
X8171967Y-18877436D02*
X8162443Y-18858389D01*
X8162443Y-18858389D02*
X8152920Y-18820293D01*
X8152920Y-18820293D02*
X8152920Y-18772674D01*
X8152920Y-18772674D02*
X8162443Y-18734579D01*
X8162443Y-18734579D02*
X8171967Y-18715531D01*
X8171967Y-18715531D02*
X8181491Y-18706008D01*
X8181491Y-18706008D02*
X8200539Y-18696484D01*
X8352920Y-18896484D02*
X8352920Y-18763150D01*
X8352920Y-18782198D02*
X8362443Y-18772674D01*
X8362443Y-18772674D02*
X8381491Y-18763150D01*
X8381491Y-18763150D02*
X8410063Y-18763150D01*
X8410063Y-18763150D02*
X8429110Y-18772674D01*
X8429110Y-18772674D02*
X8438634Y-18791722D01*
X8438634Y-18791722D02*
X8438634Y-18896484D01*
X8438634Y-18791722D02*
X8448158Y-18772674D01*
X8448158Y-18772674D02*
X8467205Y-18763150D01*
X8467205Y-18763150D02*
X8495777Y-18763150D01*
X8495777Y-18763150D02*
X8514825Y-18772674D01*
X8514825Y-18772674D02*
X8524348Y-18791722D01*
X8524348Y-18791722D02*
X8524348Y-18896484D01*
X8619586Y-18896484D02*
X8619586Y-18763150D01*
X8619586Y-18782198D02*
X8629110Y-18772674D01*
X8629110Y-18772674D02*
X8648158Y-18763150D01*
X8648158Y-18763150D02*
X8676729Y-18763150D01*
X8676729Y-18763150D02*
X8695777Y-18772674D01*
X8695777Y-18772674D02*
X8705301Y-18791722D01*
X8705301Y-18791722D02*
X8705301Y-18896484D01*
X8705301Y-18791722D02*
X8714825Y-18772674D01*
X8714825Y-18772674D02*
X8733872Y-18763150D01*
X8733872Y-18763150D02*
X8762444Y-18763150D01*
X8762444Y-18763150D02*
X8781491Y-18772674D01*
X8781491Y-18772674D02*
X8791015Y-18791722D01*
X8791015Y-18791722D02*
X8791015Y-18896484D01*
X9181491Y-18686960D02*
X9010063Y-18944103D01*
X9438634Y-18696484D02*
X9457682Y-18696484D01*
X9457682Y-18696484D02*
X9476729Y-18706008D01*
X9476729Y-18706008D02*
X9486253Y-18715531D01*
X9486253Y-18715531D02*
X9495777Y-18734579D01*
X9495777Y-18734579D02*
X9505301Y-18772674D01*
X9505301Y-18772674D02*
X9505301Y-18820293D01*
X9505301Y-18820293D02*
X9495777Y-18858389D01*
X9495777Y-18858389D02*
X9486253Y-18877436D01*
X9486253Y-18877436D02*
X9476729Y-18886960D01*
X9476729Y-18886960D02*
X9457682Y-18896484D01*
X9457682Y-18896484D02*
X9438634Y-18896484D01*
X9438634Y-18896484D02*
X9419587Y-18886960D01*
X9419587Y-18886960D02*
X9410063Y-18877436D01*
X9410063Y-18877436D02*
X9400539Y-18858389D01*
X9400539Y-18858389D02*
X9391015Y-18820293D01*
X9391015Y-18820293D02*
X9391015Y-18772674D01*
X9391015Y-18772674D02*
X9400539Y-18734579D01*
X9400539Y-18734579D02*
X9410063Y-18715531D01*
X9410063Y-18715531D02*
X9419587Y-18706008D01*
X9419587Y-18706008D02*
X9438634Y-18696484D01*
X9591015Y-18877436D02*
X9600539Y-18886960D01*
X9600539Y-18886960D02*
X9591015Y-18896484D01*
X9591015Y-18896484D02*
X9581491Y-18886960D01*
X9581491Y-18886960D02*
X9591015Y-18877436D01*
X9591015Y-18877436D02*
X9591015Y-18896484D01*
X9724348Y-18696484D02*
X9743396Y-18696484D01*
X9743396Y-18696484D02*
X9762444Y-18706008D01*
X9762444Y-18706008D02*
X9771968Y-18715531D01*
X9771968Y-18715531D02*
X9781491Y-18734579D01*
X9781491Y-18734579D02*
X9791015Y-18772674D01*
X9791015Y-18772674D02*
X9791015Y-18820293D01*
X9791015Y-18820293D02*
X9781491Y-18858389D01*
X9781491Y-18858389D02*
X9771968Y-18877436D01*
X9771968Y-18877436D02*
X9762444Y-18886960D01*
X9762444Y-18886960D02*
X9743396Y-18896484D01*
X9743396Y-18896484D02*
X9724348Y-18896484D01*
X9724348Y-18896484D02*
X9705301Y-18886960D01*
X9705301Y-18886960D02*
X9695777Y-18877436D01*
X9695777Y-18877436D02*
X9686253Y-18858389D01*
X9686253Y-18858389D02*
X9676729Y-18820293D01*
X9676729Y-18820293D02*
X9676729Y-18772674D01*
X9676729Y-18772674D02*
X9686253Y-18734579D01*
X9686253Y-18734579D02*
X9695777Y-18715531D01*
X9695777Y-18715531D02*
X9705301Y-18706008D01*
X9705301Y-18706008D02*
X9724348Y-18696484D01*
X9914825Y-18696484D02*
X9933872Y-18696484D01*
X9933872Y-18696484D02*
X9952920Y-18706008D01*
X9952920Y-18706008D02*
X9962444Y-18715531D01*
X9962444Y-18715531D02*
X9971968Y-18734579D01*
X9971968Y-18734579D02*
X9981491Y-18772674D01*
X9981491Y-18772674D02*
X9981491Y-18820293D01*
X9981491Y-18820293D02*
X9971968Y-18858389D01*
X9971968Y-18858389D02*
X9962444Y-18877436D01*
X9962444Y-18877436D02*
X9952920Y-18886960D01*
X9952920Y-18886960D02*
X9933872Y-18896484D01*
X9933872Y-18896484D02*
X9914825Y-18896484D01*
X9914825Y-18896484D02*
X9895777Y-18886960D01*
X9895777Y-18886960D02*
X9886253Y-18877436D01*
X9886253Y-18877436D02*
X9876729Y-18858389D01*
X9876729Y-18858389D02*
X9867206Y-18820293D01*
X9867206Y-18820293D02*
X9867206Y-18772674D01*
X9867206Y-18772674D02*
X9876729Y-18734579D01*
X9876729Y-18734579D02*
X9886253Y-18715531D01*
X9886253Y-18715531D02*
X9895777Y-18706008D01*
X9895777Y-18706008D02*
X9914825Y-18696484D01*
X10048158Y-18696484D02*
X10181491Y-18696484D01*
X10181491Y-18696484D02*
X10095777Y-18896484D01*
X10267206Y-18896484D02*
X10305301Y-18896484D01*
X10305301Y-18896484D02*
X10324349Y-18886960D01*
X10324349Y-18886960D02*
X10333872Y-18877436D01*
X10333872Y-18877436D02*
X10352920Y-18848865D01*
X10352920Y-18848865D02*
X10362444Y-18810770D01*
X10362444Y-18810770D02*
X10362444Y-18734579D01*
X10362444Y-18734579D02*
X10352920Y-18715531D01*
X10352920Y-18715531D02*
X10343396Y-18706008D01*
X10343396Y-18706008D02*
X10324349Y-18696484D01*
X10324349Y-18696484D02*
X10286253Y-18696484D01*
X10286253Y-18696484D02*
X10267206Y-18706008D01*
X10267206Y-18706008D02*
X10257682Y-18715531D01*
X10257682Y-18715531D02*
X10248158Y-18734579D01*
X10248158Y-18734579D02*
X10248158Y-18782198D01*
X10248158Y-18782198D02*
X10257682Y-18801246D01*
X10257682Y-18801246D02*
X10267206Y-18810770D01*
X10267206Y-18810770D02*
X10286253Y-18820293D01*
X10286253Y-18820293D02*
X10324349Y-18820293D01*
X10324349Y-18820293D02*
X10343396Y-18810770D01*
X10343396Y-18810770D02*
X10352920Y-18801246D01*
X10352920Y-18801246D02*
X10362444Y-18782198D01*
X10438634Y-18696484D02*
X10438634Y-18734579D01*
X10514825Y-18696484D02*
X10514825Y-18734579D01*
X10810063Y-18972674D02*
X10800539Y-18963150D01*
X10800539Y-18963150D02*
X10781491Y-18934579D01*
X10781491Y-18934579D02*
X10771968Y-18915531D01*
X10771968Y-18915531D02*
X10762444Y-18886960D01*
X10762444Y-18886960D02*
X10752920Y-18839341D01*
X10752920Y-18839341D02*
X10752920Y-18801246D01*
X10752920Y-18801246D02*
X10762444Y-18753627D01*
X10762444Y-18753627D02*
X10771968Y-18725055D01*
X10771968Y-18725055D02*
X10781491Y-18706008D01*
X10781491Y-18706008D02*
X10800539Y-18677436D01*
X10800539Y-18677436D02*
X10810063Y-18667912D01*
X10867206Y-18696484D02*
X10991015Y-18696484D01*
X10991015Y-18696484D02*
X10924349Y-18772674D01*
X10924349Y-18772674D02*
X10952920Y-18772674D01*
X10952920Y-18772674D02*
X10971968Y-18782198D01*
X10971968Y-18782198D02*
X10981491Y-18791722D01*
X10981491Y-18791722D02*
X10991015Y-18810770D01*
X10991015Y-18810770D02*
X10991015Y-18858389D01*
X10991015Y-18858389D02*
X10981491Y-18877436D01*
X10981491Y-18877436D02*
X10971968Y-18886960D01*
X10971968Y-18886960D02*
X10952920Y-18896484D01*
X10952920Y-18896484D02*
X10895777Y-18896484D01*
X10895777Y-18896484D02*
X10876730Y-18886960D01*
X10876730Y-18886960D02*
X10867206Y-18877436D01*
X11114825Y-18696484D02*
X11133872Y-18696484D01*
X11133872Y-18696484D02*
X11152920Y-18706008D01*
X11152920Y-18706008D02*
X11162444Y-18715531D01*
X11162444Y-18715531D02*
X11171968Y-18734579D01*
X11171968Y-18734579D02*
X11181491Y-18772674D01*
X11181491Y-18772674D02*
X11181491Y-18820293D01*
X11181491Y-18820293D02*
X11171968Y-18858389D01*
X11171968Y-18858389D02*
X11162444Y-18877436D01*
X11162444Y-18877436D02*
X11152920Y-18886960D01*
X11152920Y-18886960D02*
X11133872Y-18896484D01*
X11133872Y-18896484D02*
X11114825Y-18896484D01*
X11114825Y-18896484D02*
X11095777Y-18886960D01*
X11095777Y-18886960D02*
X11086253Y-18877436D01*
X11086253Y-18877436D02*
X11076730Y-18858389D01*
X11076730Y-18858389D02*
X11067206Y-18820293D01*
X11067206Y-18820293D02*
X11067206Y-18772674D01*
X11067206Y-18772674D02*
X11076730Y-18734579D01*
X11076730Y-18734579D02*
X11086253Y-18715531D01*
X11086253Y-18715531D02*
X11095777Y-18706008D01*
X11095777Y-18706008D02*
X11114825Y-18696484D01*
X11419587Y-18896484D02*
X11419587Y-18696484D01*
X11505301Y-18896484D02*
X11505301Y-18791722D01*
X11505301Y-18791722D02*
X11495777Y-18772674D01*
X11495777Y-18772674D02*
X11476730Y-18763150D01*
X11476730Y-18763150D02*
X11448158Y-18763150D01*
X11448158Y-18763150D02*
X11429110Y-18772674D01*
X11429110Y-18772674D02*
X11419587Y-18782198D01*
X11629110Y-18896484D02*
X11610063Y-18886960D01*
X11610063Y-18886960D02*
X11600539Y-18877436D01*
X11600539Y-18877436D02*
X11591015Y-18858389D01*
X11591015Y-18858389D02*
X11591015Y-18801246D01*
X11591015Y-18801246D02*
X11600539Y-18782198D01*
X11600539Y-18782198D02*
X11610063Y-18772674D01*
X11610063Y-18772674D02*
X11629110Y-18763150D01*
X11629110Y-18763150D02*
X11657682Y-18763150D01*
X11657682Y-18763150D02*
X11676730Y-18772674D01*
X11676730Y-18772674D02*
X11686253Y-18782198D01*
X11686253Y-18782198D02*
X11695777Y-18801246D01*
X11695777Y-18801246D02*
X11695777Y-18858389D01*
X11695777Y-18858389D02*
X11686253Y-18877436D01*
X11686253Y-18877436D02*
X11676730Y-18886960D01*
X11676730Y-18886960D02*
X11657682Y-18896484D01*
X11657682Y-18896484D02*
X11629110Y-18896484D01*
X11810063Y-18896484D02*
X11791015Y-18886960D01*
X11791015Y-18886960D02*
X11781491Y-18867912D01*
X11781491Y-18867912D02*
X11781491Y-18696484D01*
X11962444Y-18886960D02*
X11943396Y-18896484D01*
X11943396Y-18896484D02*
X11905301Y-18896484D01*
X11905301Y-18896484D02*
X11886253Y-18886960D01*
X11886253Y-18886960D02*
X11876730Y-18867912D01*
X11876730Y-18867912D02*
X11876730Y-18791722D01*
X11876730Y-18791722D02*
X11886253Y-18772674D01*
X11886253Y-18772674D02*
X11905301Y-18763150D01*
X11905301Y-18763150D02*
X11943396Y-18763150D01*
X11943396Y-18763150D02*
X11962444Y-18772674D01*
X11962444Y-18772674D02*
X11971968Y-18791722D01*
X11971968Y-18791722D02*
X11971968Y-18810770D01*
X11971968Y-18810770D02*
X11876730Y-18829817D01*
X12048158Y-18886960D02*
X12067206Y-18896484D01*
X12067206Y-18896484D02*
X12105301Y-18896484D01*
X12105301Y-18896484D02*
X12124349Y-18886960D01*
X12124349Y-18886960D02*
X12133872Y-18867912D01*
X12133872Y-18867912D02*
X12133872Y-18858389D01*
X12133872Y-18858389D02*
X12124349Y-18839341D01*
X12124349Y-18839341D02*
X12105301Y-18829817D01*
X12105301Y-18829817D02*
X12076730Y-18829817D01*
X12076730Y-18829817D02*
X12057682Y-18820293D01*
X12057682Y-18820293D02*
X12048158Y-18801246D01*
X12048158Y-18801246D02*
X12048158Y-18791722D01*
X12048158Y-18791722D02*
X12057682Y-18772674D01*
X12057682Y-18772674D02*
X12076730Y-18763150D01*
X12076730Y-18763150D02*
X12105301Y-18763150D01*
X12105301Y-18763150D02*
X12124349Y-18772674D01*
X12200539Y-18972674D02*
X12210063Y-18963150D01*
X12210063Y-18963150D02*
X12229111Y-18934579D01*
X12229111Y-18934579D02*
X12238634Y-18915531D01*
X12238634Y-18915531D02*
X12248158Y-18886960D01*
X12248158Y-18886960D02*
X12257682Y-18839341D01*
X12257682Y-18839341D02*
X12257682Y-18801246D01*
X12257682Y-18801246D02*
X12248158Y-18753627D01*
X12248158Y-18753627D02*
X12238634Y-18725055D01*
X12238634Y-18725055D02*
X12229111Y-18706008D01*
X12229111Y-18706008D02*
X12210063Y-18677436D01*
X12210063Y-18677436D02*
X12200539Y-18667912D01*
D10*
X7235000Y-19069000D02*
G75*
G03*
X7210000Y-19069000I-12500J0D01*
G01*
X7210000Y-19069000D02*
G75*
G03*
X7235000Y-19069000I12500J0D01*
G01*
D11*
X7533872Y-18960484D02*
X7552920Y-18960484D01*
X7552920Y-18960484D02*
X7571967Y-18970008D01*
X7571967Y-18970008D02*
X7581491Y-18979531D01*
X7581491Y-18979531D02*
X7591015Y-18998579D01*
X7591015Y-18998579D02*
X7600539Y-19036674D01*
X7600539Y-19036674D02*
X7600539Y-19084293D01*
X7600539Y-19084293D02*
X7591015Y-19122389D01*
X7591015Y-19122389D02*
X7581491Y-19141436D01*
X7581491Y-19141436D02*
X7571967Y-19150960D01*
X7571967Y-19150960D02*
X7552920Y-19160484D01*
X7552920Y-19160484D02*
X7533872Y-19160484D01*
X7533872Y-19160484D02*
X7514824Y-19150960D01*
X7514824Y-19150960D02*
X7505301Y-19141436D01*
X7505301Y-19141436D02*
X7495777Y-19122389D01*
X7495777Y-19122389D02*
X7486253Y-19084293D01*
X7486253Y-19084293D02*
X7486253Y-19036674D01*
X7486253Y-19036674D02*
X7495777Y-18998579D01*
X7495777Y-18998579D02*
X7505301Y-18979531D01*
X7505301Y-18979531D02*
X7514824Y-18970008D01*
X7514824Y-18970008D02*
X7533872Y-18960484D01*
X7686253Y-19141436D02*
X7695777Y-19150960D01*
X7695777Y-19150960D02*
X7686253Y-19160484D01*
X7686253Y-19160484D02*
X7676729Y-19150960D01*
X7676729Y-19150960D02*
X7686253Y-19141436D01*
X7686253Y-19141436D02*
X7686253Y-19160484D01*
X7771967Y-18979531D02*
X7781491Y-18970008D01*
X7781491Y-18970008D02*
X7800539Y-18960484D01*
X7800539Y-18960484D02*
X7848158Y-18960484D01*
X7848158Y-18960484D02*
X7867205Y-18970008D01*
X7867205Y-18970008D02*
X7876729Y-18979531D01*
X7876729Y-18979531D02*
X7886253Y-18998579D01*
X7886253Y-18998579D02*
X7886253Y-19017627D01*
X7886253Y-19017627D02*
X7876729Y-19046198D01*
X7876729Y-19046198D02*
X7762443Y-19160484D01*
X7762443Y-19160484D02*
X7886253Y-19160484D01*
X8067205Y-18960484D02*
X7971967Y-18960484D01*
X7971967Y-18960484D02*
X7962443Y-19055722D01*
X7962443Y-19055722D02*
X7971967Y-19046198D01*
X7971967Y-19046198D02*
X7991015Y-19036674D01*
X7991015Y-19036674D02*
X8038634Y-19036674D01*
X8038634Y-19036674D02*
X8057682Y-19046198D01*
X8057682Y-19046198D02*
X8067205Y-19055722D01*
X8067205Y-19055722D02*
X8076729Y-19074770D01*
X8076729Y-19074770D02*
X8076729Y-19122389D01*
X8076729Y-19122389D02*
X8067205Y-19141436D01*
X8067205Y-19141436D02*
X8057682Y-19150960D01*
X8057682Y-19150960D02*
X8038634Y-19160484D01*
X8038634Y-19160484D02*
X7991015Y-19160484D01*
X7991015Y-19160484D02*
X7971967Y-19150960D01*
X7971967Y-19150960D02*
X7962443Y-19141436D01*
X8200539Y-18960484D02*
X8219586Y-18960484D01*
X8219586Y-18960484D02*
X8238634Y-18970008D01*
X8238634Y-18970008D02*
X8248158Y-18979531D01*
X8248158Y-18979531D02*
X8257682Y-18998579D01*
X8257682Y-18998579D02*
X8267205Y-19036674D01*
X8267205Y-19036674D02*
X8267205Y-19084293D01*
X8267205Y-19084293D02*
X8257682Y-19122389D01*
X8257682Y-19122389D02*
X8248158Y-19141436D01*
X8248158Y-19141436D02*
X8238634Y-19150960D01*
X8238634Y-19150960D02*
X8219586Y-19160484D01*
X8219586Y-19160484D02*
X8200539Y-19160484D01*
X8200539Y-19160484D02*
X8181491Y-19150960D01*
X8181491Y-19150960D02*
X8171967Y-19141436D01*
X8171967Y-19141436D02*
X8162443Y-19122389D01*
X8162443Y-19122389D02*
X8152920Y-19084293D01*
X8152920Y-19084293D02*
X8152920Y-19036674D01*
X8152920Y-19036674D02*
X8162443Y-18998579D01*
X8162443Y-18998579D02*
X8171967Y-18979531D01*
X8171967Y-18979531D02*
X8181491Y-18970008D01*
X8181491Y-18970008D02*
X8200539Y-18960484D01*
X8352920Y-19160484D02*
X8352920Y-19027150D01*
X8352920Y-19046198D02*
X8362443Y-19036674D01*
X8362443Y-19036674D02*
X8381491Y-19027150D01*
X8381491Y-19027150D02*
X8410063Y-19027150D01*
X8410063Y-19027150D02*
X8429110Y-19036674D01*
X8429110Y-19036674D02*
X8438634Y-19055722D01*
X8438634Y-19055722D02*
X8438634Y-19160484D01*
X8438634Y-19055722D02*
X8448158Y-19036674D01*
X8448158Y-19036674D02*
X8467205Y-19027150D01*
X8467205Y-19027150D02*
X8495777Y-19027150D01*
X8495777Y-19027150D02*
X8514825Y-19036674D01*
X8514825Y-19036674D02*
X8524348Y-19055722D01*
X8524348Y-19055722D02*
X8524348Y-19160484D01*
X8619586Y-19160484D02*
X8619586Y-19027150D01*
X8619586Y-19046198D02*
X8629110Y-19036674D01*
X8629110Y-19036674D02*
X8648158Y-19027150D01*
X8648158Y-19027150D02*
X8676729Y-19027150D01*
X8676729Y-19027150D02*
X8695777Y-19036674D01*
X8695777Y-19036674D02*
X8705301Y-19055722D01*
X8705301Y-19055722D02*
X8705301Y-19160484D01*
X8705301Y-19055722D02*
X8714825Y-19036674D01*
X8714825Y-19036674D02*
X8733872Y-19027150D01*
X8733872Y-19027150D02*
X8762444Y-19027150D01*
X8762444Y-19027150D02*
X8781491Y-19036674D01*
X8781491Y-19036674D02*
X8791015Y-19055722D01*
X8791015Y-19055722D02*
X8791015Y-19160484D01*
X9181491Y-18950960D02*
X9010063Y-19208103D01*
X9438634Y-18960484D02*
X9457682Y-18960484D01*
X9457682Y-18960484D02*
X9476729Y-18970008D01*
X9476729Y-18970008D02*
X9486253Y-18979531D01*
X9486253Y-18979531D02*
X9495777Y-18998579D01*
X9495777Y-18998579D02*
X9505301Y-19036674D01*
X9505301Y-19036674D02*
X9505301Y-19084293D01*
X9505301Y-19084293D02*
X9495777Y-19122389D01*
X9495777Y-19122389D02*
X9486253Y-19141436D01*
X9486253Y-19141436D02*
X9476729Y-19150960D01*
X9476729Y-19150960D02*
X9457682Y-19160484D01*
X9457682Y-19160484D02*
X9438634Y-19160484D01*
X9438634Y-19160484D02*
X9419587Y-19150960D01*
X9419587Y-19150960D02*
X9410063Y-19141436D01*
X9410063Y-19141436D02*
X9400539Y-19122389D01*
X9400539Y-19122389D02*
X9391015Y-19084293D01*
X9391015Y-19084293D02*
X9391015Y-19036674D01*
X9391015Y-19036674D02*
X9400539Y-18998579D01*
X9400539Y-18998579D02*
X9410063Y-18979531D01*
X9410063Y-18979531D02*
X9419587Y-18970008D01*
X9419587Y-18970008D02*
X9438634Y-18960484D01*
X9591015Y-19141436D02*
X9600539Y-19150960D01*
X9600539Y-19150960D02*
X9591015Y-19160484D01*
X9591015Y-19160484D02*
X9581491Y-19150960D01*
X9581491Y-19150960D02*
X9591015Y-19141436D01*
X9591015Y-19141436D02*
X9591015Y-19160484D01*
X9724348Y-18960484D02*
X9743396Y-18960484D01*
X9743396Y-18960484D02*
X9762444Y-18970008D01*
X9762444Y-18970008D02*
X9771968Y-18979531D01*
X9771968Y-18979531D02*
X9781491Y-18998579D01*
X9781491Y-18998579D02*
X9791015Y-19036674D01*
X9791015Y-19036674D02*
X9791015Y-19084293D01*
X9791015Y-19084293D02*
X9781491Y-19122389D01*
X9781491Y-19122389D02*
X9771968Y-19141436D01*
X9771968Y-19141436D02*
X9762444Y-19150960D01*
X9762444Y-19150960D02*
X9743396Y-19160484D01*
X9743396Y-19160484D02*
X9724348Y-19160484D01*
X9724348Y-19160484D02*
X9705301Y-19150960D01*
X9705301Y-19150960D02*
X9695777Y-19141436D01*
X9695777Y-19141436D02*
X9686253Y-19122389D01*
X9686253Y-19122389D02*
X9676729Y-19084293D01*
X9676729Y-19084293D02*
X9676729Y-19036674D01*
X9676729Y-19036674D02*
X9686253Y-18998579D01*
X9686253Y-18998579D02*
X9695777Y-18979531D01*
X9695777Y-18979531D02*
X9705301Y-18970008D01*
X9705301Y-18970008D02*
X9724348Y-18960484D01*
X9914825Y-18960484D02*
X9933872Y-18960484D01*
X9933872Y-18960484D02*
X9952920Y-18970008D01*
X9952920Y-18970008D02*
X9962444Y-18979531D01*
X9962444Y-18979531D02*
X9971968Y-18998579D01*
X9971968Y-18998579D02*
X9981491Y-19036674D01*
X9981491Y-19036674D02*
X9981491Y-19084293D01*
X9981491Y-19084293D02*
X9971968Y-19122389D01*
X9971968Y-19122389D02*
X9962444Y-19141436D01*
X9962444Y-19141436D02*
X9952920Y-19150960D01*
X9952920Y-19150960D02*
X9933872Y-19160484D01*
X9933872Y-19160484D02*
X9914825Y-19160484D01*
X9914825Y-19160484D02*
X9895777Y-19150960D01*
X9895777Y-19150960D02*
X9886253Y-19141436D01*
X9886253Y-19141436D02*
X9876729Y-19122389D01*
X9876729Y-19122389D02*
X9867206Y-19084293D01*
X9867206Y-19084293D02*
X9867206Y-19036674D01*
X9867206Y-19036674D02*
X9876729Y-18998579D01*
X9876729Y-18998579D02*
X9886253Y-18979531D01*
X9886253Y-18979531D02*
X9895777Y-18970008D01*
X9895777Y-18970008D02*
X9914825Y-18960484D01*
X10076729Y-19160484D02*
X10114825Y-19160484D01*
X10114825Y-19160484D02*
X10133872Y-19150960D01*
X10133872Y-19150960D02*
X10143396Y-19141436D01*
X10143396Y-19141436D02*
X10162444Y-19112865D01*
X10162444Y-19112865D02*
X10171968Y-19074770D01*
X10171968Y-19074770D02*
X10171968Y-18998579D01*
X10171968Y-18998579D02*
X10162444Y-18979531D01*
X10162444Y-18979531D02*
X10152920Y-18970008D01*
X10152920Y-18970008D02*
X10133872Y-18960484D01*
X10133872Y-18960484D02*
X10095777Y-18960484D01*
X10095777Y-18960484D02*
X10076729Y-18970008D01*
X10076729Y-18970008D02*
X10067206Y-18979531D01*
X10067206Y-18979531D02*
X10057682Y-18998579D01*
X10057682Y-18998579D02*
X10057682Y-19046198D01*
X10057682Y-19046198D02*
X10067206Y-19065246D01*
X10067206Y-19065246D02*
X10076729Y-19074770D01*
X10076729Y-19074770D02*
X10095777Y-19084293D01*
X10095777Y-19084293D02*
X10133872Y-19084293D01*
X10133872Y-19084293D02*
X10152920Y-19074770D01*
X10152920Y-19074770D02*
X10162444Y-19065246D01*
X10162444Y-19065246D02*
X10171968Y-19046198D01*
X10286253Y-19046198D02*
X10267206Y-19036674D01*
X10267206Y-19036674D02*
X10257682Y-19027150D01*
X10257682Y-19027150D02*
X10248158Y-19008103D01*
X10248158Y-19008103D02*
X10248158Y-18998579D01*
X10248158Y-18998579D02*
X10257682Y-18979531D01*
X10257682Y-18979531D02*
X10267206Y-18970008D01*
X10267206Y-18970008D02*
X10286253Y-18960484D01*
X10286253Y-18960484D02*
X10324349Y-18960484D01*
X10324349Y-18960484D02*
X10343396Y-18970008D01*
X10343396Y-18970008D02*
X10352920Y-18979531D01*
X10352920Y-18979531D02*
X10362444Y-18998579D01*
X10362444Y-18998579D02*
X10362444Y-19008103D01*
X10362444Y-19008103D02*
X10352920Y-19027150D01*
X10352920Y-19027150D02*
X10343396Y-19036674D01*
X10343396Y-19036674D02*
X10324349Y-19046198D01*
X10324349Y-19046198D02*
X10286253Y-19046198D01*
X10286253Y-19046198D02*
X10267206Y-19055722D01*
X10267206Y-19055722D02*
X10257682Y-19065246D01*
X10257682Y-19065246D02*
X10248158Y-19084293D01*
X10248158Y-19084293D02*
X10248158Y-19122389D01*
X10248158Y-19122389D02*
X10257682Y-19141436D01*
X10257682Y-19141436D02*
X10267206Y-19150960D01*
X10267206Y-19150960D02*
X10286253Y-19160484D01*
X10286253Y-19160484D02*
X10324349Y-19160484D01*
X10324349Y-19160484D02*
X10343396Y-19150960D01*
X10343396Y-19150960D02*
X10352920Y-19141436D01*
X10352920Y-19141436D02*
X10362444Y-19122389D01*
X10362444Y-19122389D02*
X10362444Y-19084293D01*
X10362444Y-19084293D02*
X10352920Y-19065246D01*
X10352920Y-19065246D02*
X10343396Y-19055722D01*
X10343396Y-19055722D02*
X10324349Y-19046198D01*
X10438634Y-18960484D02*
X10438634Y-18998579D01*
X10514825Y-18960484D02*
X10514825Y-18998579D01*
X10810063Y-19236674D02*
X10800539Y-19227150D01*
X10800539Y-19227150D02*
X10781491Y-19198579D01*
X10781491Y-19198579D02*
X10771968Y-19179531D01*
X10771968Y-19179531D02*
X10762444Y-19150960D01*
X10762444Y-19150960D02*
X10752920Y-19103341D01*
X10752920Y-19103341D02*
X10752920Y-19065246D01*
X10752920Y-19065246D02*
X10762444Y-19017627D01*
X10762444Y-19017627D02*
X10771968Y-18989055D01*
X10771968Y-18989055D02*
X10781491Y-18970008D01*
X10781491Y-18970008D02*
X10800539Y-18941436D01*
X10800539Y-18941436D02*
X10810063Y-18931912D01*
X10971968Y-19027150D02*
X10971968Y-19160484D01*
X10924349Y-18950960D02*
X10876730Y-19093817D01*
X10876730Y-19093817D02*
X11000539Y-19093817D01*
X11057682Y-18960484D02*
X11191015Y-18960484D01*
X11191015Y-18960484D02*
X11105301Y-19160484D01*
X11419587Y-19160484D02*
X11419587Y-18960484D01*
X11505301Y-19160484D02*
X11505301Y-19055722D01*
X11505301Y-19055722D02*
X11495777Y-19036674D01*
X11495777Y-19036674D02*
X11476730Y-19027150D01*
X11476730Y-19027150D02*
X11448158Y-19027150D01*
X11448158Y-19027150D02*
X11429110Y-19036674D01*
X11429110Y-19036674D02*
X11419587Y-19046198D01*
X11629110Y-19160484D02*
X11610063Y-19150960D01*
X11610063Y-19150960D02*
X11600539Y-19141436D01*
X11600539Y-19141436D02*
X11591015Y-19122389D01*
X11591015Y-19122389D02*
X11591015Y-19065246D01*
X11591015Y-19065246D02*
X11600539Y-19046198D01*
X11600539Y-19046198D02*
X11610063Y-19036674D01*
X11610063Y-19036674D02*
X11629110Y-19027150D01*
X11629110Y-19027150D02*
X11657682Y-19027150D01*
X11657682Y-19027150D02*
X11676730Y-19036674D01*
X11676730Y-19036674D02*
X11686253Y-19046198D01*
X11686253Y-19046198D02*
X11695777Y-19065246D01*
X11695777Y-19065246D02*
X11695777Y-19122389D01*
X11695777Y-19122389D02*
X11686253Y-19141436D01*
X11686253Y-19141436D02*
X11676730Y-19150960D01*
X11676730Y-19150960D02*
X11657682Y-19160484D01*
X11657682Y-19160484D02*
X11629110Y-19160484D01*
X11810063Y-19160484D02*
X11791015Y-19150960D01*
X11791015Y-19150960D02*
X11781491Y-19131912D01*
X11781491Y-19131912D02*
X11781491Y-18960484D01*
X11962444Y-19150960D02*
X11943396Y-19160484D01*
X11943396Y-19160484D02*
X11905301Y-19160484D01*
X11905301Y-19160484D02*
X11886253Y-19150960D01*
X11886253Y-19150960D02*
X11876730Y-19131912D01*
X11876730Y-19131912D02*
X11876730Y-19055722D01*
X11876730Y-19055722D02*
X11886253Y-19036674D01*
X11886253Y-19036674D02*
X11905301Y-19027150D01*
X11905301Y-19027150D02*
X11943396Y-19027150D01*
X11943396Y-19027150D02*
X11962444Y-19036674D01*
X11962444Y-19036674D02*
X11971968Y-19055722D01*
X11971968Y-19055722D02*
X11971968Y-19074770D01*
X11971968Y-19074770D02*
X11876730Y-19093817D01*
X12048158Y-19150960D02*
X12067206Y-19160484D01*
X12067206Y-19160484D02*
X12105301Y-19160484D01*
X12105301Y-19160484D02*
X12124349Y-19150960D01*
X12124349Y-19150960D02*
X12133872Y-19131912D01*
X12133872Y-19131912D02*
X12133872Y-19122389D01*
X12133872Y-19122389D02*
X12124349Y-19103341D01*
X12124349Y-19103341D02*
X12105301Y-19093817D01*
X12105301Y-19093817D02*
X12076730Y-19093817D01*
X12076730Y-19093817D02*
X12057682Y-19084293D01*
X12057682Y-19084293D02*
X12048158Y-19065246D01*
X12048158Y-19065246D02*
X12048158Y-19055722D01*
X12048158Y-19055722D02*
X12057682Y-19036674D01*
X12057682Y-19036674D02*
X12076730Y-19027150D01*
X12076730Y-19027150D02*
X12105301Y-19027150D01*
X12105301Y-19027150D02*
X12124349Y-19036674D01*
X12200539Y-19236674D02*
X12210063Y-19227150D01*
X12210063Y-19227150D02*
X12229111Y-19198579D01*
X12229111Y-19198579D02*
X12238634Y-19179531D01*
X12238634Y-19179531D02*
X12248158Y-19150960D01*
X12248158Y-19150960D02*
X12257682Y-19103341D01*
X12257682Y-19103341D02*
X12257682Y-19065246D01*
X12257682Y-19065246D02*
X12248158Y-19017627D01*
X12248158Y-19017627D02*
X12238634Y-18989055D01*
X12238634Y-18989055D02*
X12229111Y-18970008D01*
X12229111Y-18970008D02*
X12210063Y-18941436D01*
X12210063Y-18941436D02*
X12200539Y-18931912D01*
D10*
X7185000Y-19283000D02*
X7185000Y-19383000D01*
X7135000Y-19333000D02*
X7235000Y-19333000D01*
D11*
X7600539Y-19424484D02*
X7486253Y-19424484D01*
X7543396Y-19424484D02*
X7543396Y-19224484D01*
X7543396Y-19224484D02*
X7524348Y-19253055D01*
X7524348Y-19253055D02*
X7505301Y-19272103D01*
X7505301Y-19272103D02*
X7486253Y-19281627D01*
X7686253Y-19405436D02*
X7695777Y-19414960D01*
X7695777Y-19414960D02*
X7686253Y-19424484D01*
X7686253Y-19424484D02*
X7676729Y-19414960D01*
X7676729Y-19414960D02*
X7686253Y-19405436D01*
X7686253Y-19405436D02*
X7686253Y-19424484D01*
X7819586Y-19224484D02*
X7838634Y-19224484D01*
X7838634Y-19224484D02*
X7857682Y-19234008D01*
X7857682Y-19234008D02*
X7867205Y-19243531D01*
X7867205Y-19243531D02*
X7876729Y-19262579D01*
X7876729Y-19262579D02*
X7886253Y-19300674D01*
X7886253Y-19300674D02*
X7886253Y-19348293D01*
X7886253Y-19348293D02*
X7876729Y-19386389D01*
X7876729Y-19386389D02*
X7867205Y-19405436D01*
X7867205Y-19405436D02*
X7857682Y-19414960D01*
X7857682Y-19414960D02*
X7838634Y-19424484D01*
X7838634Y-19424484D02*
X7819586Y-19424484D01*
X7819586Y-19424484D02*
X7800539Y-19414960D01*
X7800539Y-19414960D02*
X7791015Y-19405436D01*
X7791015Y-19405436D02*
X7781491Y-19386389D01*
X7781491Y-19386389D02*
X7771967Y-19348293D01*
X7771967Y-19348293D02*
X7771967Y-19300674D01*
X7771967Y-19300674D02*
X7781491Y-19262579D01*
X7781491Y-19262579D02*
X7791015Y-19243531D01*
X7791015Y-19243531D02*
X7800539Y-19234008D01*
X7800539Y-19234008D02*
X7819586Y-19224484D01*
X8010062Y-19224484D02*
X8029110Y-19224484D01*
X8029110Y-19224484D02*
X8048158Y-19234008D01*
X8048158Y-19234008D02*
X8057682Y-19243531D01*
X8057682Y-19243531D02*
X8067205Y-19262579D01*
X8067205Y-19262579D02*
X8076729Y-19300674D01*
X8076729Y-19300674D02*
X8076729Y-19348293D01*
X8076729Y-19348293D02*
X8067205Y-19386389D01*
X8067205Y-19386389D02*
X8057682Y-19405436D01*
X8057682Y-19405436D02*
X8048158Y-19414960D01*
X8048158Y-19414960D02*
X8029110Y-19424484D01*
X8029110Y-19424484D02*
X8010062Y-19424484D01*
X8010062Y-19424484D02*
X7991015Y-19414960D01*
X7991015Y-19414960D02*
X7981491Y-19405436D01*
X7981491Y-19405436D02*
X7971967Y-19386389D01*
X7971967Y-19386389D02*
X7962443Y-19348293D01*
X7962443Y-19348293D02*
X7962443Y-19300674D01*
X7962443Y-19300674D02*
X7971967Y-19262579D01*
X7971967Y-19262579D02*
X7981491Y-19243531D01*
X7981491Y-19243531D02*
X7991015Y-19234008D01*
X7991015Y-19234008D02*
X8010062Y-19224484D01*
X8200539Y-19224484D02*
X8219586Y-19224484D01*
X8219586Y-19224484D02*
X8238634Y-19234008D01*
X8238634Y-19234008D02*
X8248158Y-19243531D01*
X8248158Y-19243531D02*
X8257682Y-19262579D01*
X8257682Y-19262579D02*
X8267205Y-19300674D01*
X8267205Y-19300674D02*
X8267205Y-19348293D01*
X8267205Y-19348293D02*
X8257682Y-19386389D01*
X8257682Y-19386389D02*
X8248158Y-19405436D01*
X8248158Y-19405436D02*
X8238634Y-19414960D01*
X8238634Y-19414960D02*
X8219586Y-19424484D01*
X8219586Y-19424484D02*
X8200539Y-19424484D01*
X8200539Y-19424484D02*
X8181491Y-19414960D01*
X8181491Y-19414960D02*
X8171967Y-19405436D01*
X8171967Y-19405436D02*
X8162443Y-19386389D01*
X8162443Y-19386389D02*
X8152920Y-19348293D01*
X8152920Y-19348293D02*
X8152920Y-19300674D01*
X8152920Y-19300674D02*
X8162443Y-19262579D01*
X8162443Y-19262579D02*
X8171967Y-19243531D01*
X8171967Y-19243531D02*
X8181491Y-19234008D01*
X8181491Y-19234008D02*
X8200539Y-19224484D01*
X8352920Y-19424484D02*
X8352920Y-19291150D01*
X8352920Y-19310198D02*
X8362443Y-19300674D01*
X8362443Y-19300674D02*
X8381491Y-19291150D01*
X8381491Y-19291150D02*
X8410063Y-19291150D01*
X8410063Y-19291150D02*
X8429110Y-19300674D01*
X8429110Y-19300674D02*
X8438634Y-19319722D01*
X8438634Y-19319722D02*
X8438634Y-19424484D01*
X8438634Y-19319722D02*
X8448158Y-19300674D01*
X8448158Y-19300674D02*
X8467205Y-19291150D01*
X8467205Y-19291150D02*
X8495777Y-19291150D01*
X8495777Y-19291150D02*
X8514825Y-19300674D01*
X8514825Y-19300674D02*
X8524348Y-19319722D01*
X8524348Y-19319722D02*
X8524348Y-19424484D01*
X8619586Y-19424484D02*
X8619586Y-19291150D01*
X8619586Y-19310198D02*
X8629110Y-19300674D01*
X8629110Y-19300674D02*
X8648158Y-19291150D01*
X8648158Y-19291150D02*
X8676729Y-19291150D01*
X8676729Y-19291150D02*
X8695777Y-19300674D01*
X8695777Y-19300674D02*
X8705301Y-19319722D01*
X8705301Y-19319722D02*
X8705301Y-19424484D01*
X8705301Y-19319722D02*
X8714825Y-19300674D01*
X8714825Y-19300674D02*
X8733872Y-19291150D01*
X8733872Y-19291150D02*
X8762444Y-19291150D01*
X8762444Y-19291150D02*
X8781491Y-19300674D01*
X8781491Y-19300674D02*
X8791015Y-19319722D01*
X8791015Y-19319722D02*
X8791015Y-19424484D01*
X9181491Y-19214960D02*
X9010063Y-19472103D01*
X9438634Y-19224484D02*
X9457682Y-19224484D01*
X9457682Y-19224484D02*
X9476729Y-19234008D01*
X9476729Y-19234008D02*
X9486253Y-19243531D01*
X9486253Y-19243531D02*
X9495777Y-19262579D01*
X9495777Y-19262579D02*
X9505301Y-19300674D01*
X9505301Y-19300674D02*
X9505301Y-19348293D01*
X9505301Y-19348293D02*
X9495777Y-19386389D01*
X9495777Y-19386389D02*
X9486253Y-19405436D01*
X9486253Y-19405436D02*
X9476729Y-19414960D01*
X9476729Y-19414960D02*
X9457682Y-19424484D01*
X9457682Y-19424484D02*
X9438634Y-19424484D01*
X9438634Y-19424484D02*
X9419587Y-19414960D01*
X9419587Y-19414960D02*
X9410063Y-19405436D01*
X9410063Y-19405436D02*
X9400539Y-19386389D01*
X9400539Y-19386389D02*
X9391015Y-19348293D01*
X9391015Y-19348293D02*
X9391015Y-19300674D01*
X9391015Y-19300674D02*
X9400539Y-19262579D01*
X9400539Y-19262579D02*
X9410063Y-19243531D01*
X9410063Y-19243531D02*
X9419587Y-19234008D01*
X9419587Y-19234008D02*
X9438634Y-19224484D01*
X9591015Y-19405436D02*
X9600539Y-19414960D01*
X9600539Y-19414960D02*
X9591015Y-19424484D01*
X9591015Y-19424484D02*
X9581491Y-19414960D01*
X9581491Y-19414960D02*
X9591015Y-19405436D01*
X9591015Y-19405436D02*
X9591015Y-19424484D01*
X9724348Y-19224484D02*
X9743396Y-19224484D01*
X9743396Y-19224484D02*
X9762444Y-19234008D01*
X9762444Y-19234008D02*
X9771968Y-19243531D01*
X9771968Y-19243531D02*
X9781491Y-19262579D01*
X9781491Y-19262579D02*
X9791015Y-19300674D01*
X9791015Y-19300674D02*
X9791015Y-19348293D01*
X9791015Y-19348293D02*
X9781491Y-19386389D01*
X9781491Y-19386389D02*
X9771968Y-19405436D01*
X9771968Y-19405436D02*
X9762444Y-19414960D01*
X9762444Y-19414960D02*
X9743396Y-19424484D01*
X9743396Y-19424484D02*
X9724348Y-19424484D01*
X9724348Y-19424484D02*
X9705301Y-19414960D01*
X9705301Y-19414960D02*
X9695777Y-19405436D01*
X9695777Y-19405436D02*
X9686253Y-19386389D01*
X9686253Y-19386389D02*
X9676729Y-19348293D01*
X9676729Y-19348293D02*
X9676729Y-19300674D01*
X9676729Y-19300674D02*
X9686253Y-19262579D01*
X9686253Y-19262579D02*
X9695777Y-19243531D01*
X9695777Y-19243531D02*
X9705301Y-19234008D01*
X9705301Y-19234008D02*
X9724348Y-19224484D01*
X9857682Y-19224484D02*
X9981491Y-19224484D01*
X9981491Y-19224484D02*
X9914825Y-19300674D01*
X9914825Y-19300674D02*
X9943396Y-19300674D01*
X9943396Y-19300674D02*
X9962444Y-19310198D01*
X9962444Y-19310198D02*
X9971968Y-19319722D01*
X9971968Y-19319722D02*
X9981491Y-19338770D01*
X9981491Y-19338770D02*
X9981491Y-19386389D01*
X9981491Y-19386389D02*
X9971968Y-19405436D01*
X9971968Y-19405436D02*
X9962444Y-19414960D01*
X9962444Y-19414960D02*
X9943396Y-19424484D01*
X9943396Y-19424484D02*
X9886253Y-19424484D01*
X9886253Y-19424484D02*
X9867206Y-19414960D01*
X9867206Y-19414960D02*
X9857682Y-19405436D01*
X10076729Y-19424484D02*
X10114825Y-19424484D01*
X10114825Y-19424484D02*
X10133872Y-19414960D01*
X10133872Y-19414960D02*
X10143396Y-19405436D01*
X10143396Y-19405436D02*
X10162444Y-19376865D01*
X10162444Y-19376865D02*
X10171968Y-19338770D01*
X10171968Y-19338770D02*
X10171968Y-19262579D01*
X10171968Y-19262579D02*
X10162444Y-19243531D01*
X10162444Y-19243531D02*
X10152920Y-19234008D01*
X10152920Y-19234008D02*
X10133872Y-19224484D01*
X10133872Y-19224484D02*
X10095777Y-19224484D01*
X10095777Y-19224484D02*
X10076729Y-19234008D01*
X10076729Y-19234008D02*
X10067206Y-19243531D01*
X10067206Y-19243531D02*
X10057682Y-19262579D01*
X10057682Y-19262579D02*
X10057682Y-19310198D01*
X10057682Y-19310198D02*
X10067206Y-19329246D01*
X10067206Y-19329246D02*
X10076729Y-19338770D01*
X10076729Y-19338770D02*
X10095777Y-19348293D01*
X10095777Y-19348293D02*
X10133872Y-19348293D01*
X10133872Y-19348293D02*
X10152920Y-19338770D01*
X10152920Y-19338770D02*
X10162444Y-19329246D01*
X10162444Y-19329246D02*
X10171968Y-19310198D01*
X10343396Y-19291150D02*
X10343396Y-19424484D01*
X10295777Y-19214960D02*
X10248158Y-19357817D01*
X10248158Y-19357817D02*
X10371968Y-19357817D01*
X10438634Y-19224484D02*
X10438634Y-19262579D01*
X10514825Y-19224484D02*
X10514825Y-19262579D01*
X10810063Y-19500674D02*
X10800539Y-19491150D01*
X10800539Y-19491150D02*
X10781491Y-19462579D01*
X10781491Y-19462579D02*
X10771968Y-19443531D01*
X10771968Y-19443531D02*
X10762444Y-19414960D01*
X10762444Y-19414960D02*
X10752920Y-19367341D01*
X10752920Y-19367341D02*
X10752920Y-19329246D01*
X10752920Y-19329246D02*
X10762444Y-19281627D01*
X10762444Y-19281627D02*
X10771968Y-19253055D01*
X10771968Y-19253055D02*
X10781491Y-19234008D01*
X10781491Y-19234008D02*
X10800539Y-19205436D01*
X10800539Y-19205436D02*
X10810063Y-19195912D01*
X10971968Y-19291150D02*
X10971968Y-19424484D01*
X10924349Y-19214960D02*
X10876730Y-19357817D01*
X10876730Y-19357817D02*
X11000539Y-19357817D01*
X11114825Y-19224484D02*
X11133872Y-19224484D01*
X11133872Y-19224484D02*
X11152920Y-19234008D01*
X11152920Y-19234008D02*
X11162444Y-19243531D01*
X11162444Y-19243531D02*
X11171968Y-19262579D01*
X11171968Y-19262579D02*
X11181491Y-19300674D01*
X11181491Y-19300674D02*
X11181491Y-19348293D01*
X11181491Y-19348293D02*
X11171968Y-19386389D01*
X11171968Y-19386389D02*
X11162444Y-19405436D01*
X11162444Y-19405436D02*
X11152920Y-19414960D01*
X11152920Y-19414960D02*
X11133872Y-19424484D01*
X11133872Y-19424484D02*
X11114825Y-19424484D01*
X11114825Y-19424484D02*
X11095777Y-19414960D01*
X11095777Y-19414960D02*
X11086253Y-19405436D01*
X11086253Y-19405436D02*
X11076730Y-19386389D01*
X11076730Y-19386389D02*
X11067206Y-19348293D01*
X11067206Y-19348293D02*
X11067206Y-19300674D01*
X11067206Y-19300674D02*
X11076730Y-19262579D01*
X11076730Y-19262579D02*
X11086253Y-19243531D01*
X11086253Y-19243531D02*
X11095777Y-19234008D01*
X11095777Y-19234008D02*
X11114825Y-19224484D01*
X11419587Y-19424484D02*
X11419587Y-19224484D01*
X11505301Y-19424484D02*
X11505301Y-19319722D01*
X11505301Y-19319722D02*
X11495777Y-19300674D01*
X11495777Y-19300674D02*
X11476730Y-19291150D01*
X11476730Y-19291150D02*
X11448158Y-19291150D01*
X11448158Y-19291150D02*
X11429110Y-19300674D01*
X11429110Y-19300674D02*
X11419587Y-19310198D01*
X11629110Y-19424484D02*
X11610063Y-19414960D01*
X11610063Y-19414960D02*
X11600539Y-19405436D01*
X11600539Y-19405436D02*
X11591015Y-19386389D01*
X11591015Y-19386389D02*
X11591015Y-19329246D01*
X11591015Y-19329246D02*
X11600539Y-19310198D01*
X11600539Y-19310198D02*
X11610063Y-19300674D01*
X11610063Y-19300674D02*
X11629110Y-19291150D01*
X11629110Y-19291150D02*
X11657682Y-19291150D01*
X11657682Y-19291150D02*
X11676730Y-19300674D01*
X11676730Y-19300674D02*
X11686253Y-19310198D01*
X11686253Y-19310198D02*
X11695777Y-19329246D01*
X11695777Y-19329246D02*
X11695777Y-19386389D01*
X11695777Y-19386389D02*
X11686253Y-19405436D01*
X11686253Y-19405436D02*
X11676730Y-19414960D01*
X11676730Y-19414960D02*
X11657682Y-19424484D01*
X11657682Y-19424484D02*
X11629110Y-19424484D01*
X11810063Y-19424484D02*
X11791015Y-19414960D01*
X11791015Y-19414960D02*
X11781491Y-19395912D01*
X11781491Y-19395912D02*
X11781491Y-19224484D01*
X11962444Y-19414960D02*
X11943396Y-19424484D01*
X11943396Y-19424484D02*
X11905301Y-19424484D01*
X11905301Y-19424484D02*
X11886253Y-19414960D01*
X11886253Y-19414960D02*
X11876730Y-19395912D01*
X11876730Y-19395912D02*
X11876730Y-19319722D01*
X11876730Y-19319722D02*
X11886253Y-19300674D01*
X11886253Y-19300674D02*
X11905301Y-19291150D01*
X11905301Y-19291150D02*
X11943396Y-19291150D01*
X11943396Y-19291150D02*
X11962444Y-19300674D01*
X11962444Y-19300674D02*
X11971968Y-19319722D01*
X11971968Y-19319722D02*
X11971968Y-19338770D01*
X11971968Y-19338770D02*
X11876730Y-19357817D01*
X12048158Y-19414960D02*
X12067206Y-19424484D01*
X12067206Y-19424484D02*
X12105301Y-19424484D01*
X12105301Y-19424484D02*
X12124349Y-19414960D01*
X12124349Y-19414960D02*
X12133872Y-19395912D01*
X12133872Y-19395912D02*
X12133872Y-19386389D01*
X12133872Y-19386389D02*
X12124349Y-19367341D01*
X12124349Y-19367341D02*
X12105301Y-19357817D01*
X12105301Y-19357817D02*
X12076730Y-19357817D01*
X12076730Y-19357817D02*
X12057682Y-19348293D01*
X12057682Y-19348293D02*
X12048158Y-19329246D01*
X12048158Y-19329246D02*
X12048158Y-19319722D01*
X12048158Y-19319722D02*
X12057682Y-19300674D01*
X12057682Y-19300674D02*
X12076730Y-19291150D01*
X12076730Y-19291150D02*
X12105301Y-19291150D01*
X12105301Y-19291150D02*
X12124349Y-19300674D01*
X12200539Y-19500674D02*
X12210063Y-19491150D01*
X12210063Y-19491150D02*
X12229111Y-19462579D01*
X12229111Y-19462579D02*
X12238634Y-19443531D01*
X12238634Y-19443531D02*
X12248158Y-19414960D01*
X12248158Y-19414960D02*
X12257682Y-19367341D01*
X12257682Y-19367341D02*
X12257682Y-19329246D01*
X12257682Y-19329246D02*
X12248158Y-19281627D01*
X12248158Y-19281627D02*
X12238634Y-19253055D01*
X12238634Y-19253055D02*
X12229111Y-19234008D01*
X12229111Y-19234008D02*
X12210063Y-19205436D01*
X12210063Y-19205436D02*
X12200539Y-19195912D01*
D12*
X7213033Y-19650034D02*
X7213033Y-19543967D01*
X7106966Y-19543967D01*
X7106966Y-19650034D01*
X7213033Y-19650034D01*
D11*
X7600539Y-19688484D02*
X7486253Y-19688484D01*
X7543396Y-19688484D02*
X7543396Y-19488484D01*
X7543396Y-19488484D02*
X7524348Y-19517055D01*
X7524348Y-19517055D02*
X7505301Y-19536103D01*
X7505301Y-19536103D02*
X7486253Y-19545627D01*
X7686253Y-19669436D02*
X7695777Y-19678960D01*
X7695777Y-19678960D02*
X7686253Y-19688484D01*
X7686253Y-19688484D02*
X7676729Y-19678960D01*
X7676729Y-19678960D02*
X7686253Y-19669436D01*
X7686253Y-19669436D02*
X7686253Y-19688484D01*
X7876729Y-19488484D02*
X7781491Y-19488484D01*
X7781491Y-19488484D02*
X7771967Y-19583722D01*
X7771967Y-19583722D02*
X7781491Y-19574198D01*
X7781491Y-19574198D02*
X7800539Y-19564674D01*
X7800539Y-19564674D02*
X7848158Y-19564674D01*
X7848158Y-19564674D02*
X7867205Y-19574198D01*
X7867205Y-19574198D02*
X7876729Y-19583722D01*
X7876729Y-19583722D02*
X7886253Y-19602770D01*
X7886253Y-19602770D02*
X7886253Y-19650389D01*
X7886253Y-19650389D02*
X7876729Y-19669436D01*
X7876729Y-19669436D02*
X7867205Y-19678960D01*
X7867205Y-19678960D02*
X7848158Y-19688484D01*
X7848158Y-19688484D02*
X7800539Y-19688484D01*
X7800539Y-19688484D02*
X7781491Y-19678960D01*
X7781491Y-19678960D02*
X7771967Y-19669436D01*
X8010062Y-19488484D02*
X8029110Y-19488484D01*
X8029110Y-19488484D02*
X8048158Y-19498008D01*
X8048158Y-19498008D02*
X8057682Y-19507531D01*
X8057682Y-19507531D02*
X8067205Y-19526579D01*
X8067205Y-19526579D02*
X8076729Y-19564674D01*
X8076729Y-19564674D02*
X8076729Y-19612293D01*
X8076729Y-19612293D02*
X8067205Y-19650389D01*
X8067205Y-19650389D02*
X8057682Y-19669436D01*
X8057682Y-19669436D02*
X8048158Y-19678960D01*
X8048158Y-19678960D02*
X8029110Y-19688484D01*
X8029110Y-19688484D02*
X8010062Y-19688484D01*
X8010062Y-19688484D02*
X7991015Y-19678960D01*
X7991015Y-19678960D02*
X7981491Y-19669436D01*
X7981491Y-19669436D02*
X7971967Y-19650389D01*
X7971967Y-19650389D02*
X7962443Y-19612293D01*
X7962443Y-19612293D02*
X7962443Y-19564674D01*
X7962443Y-19564674D02*
X7971967Y-19526579D01*
X7971967Y-19526579D02*
X7981491Y-19507531D01*
X7981491Y-19507531D02*
X7991015Y-19498008D01*
X7991015Y-19498008D02*
X8010062Y-19488484D01*
X8200539Y-19488484D02*
X8219586Y-19488484D01*
X8219586Y-19488484D02*
X8238634Y-19498008D01*
X8238634Y-19498008D02*
X8248158Y-19507531D01*
X8248158Y-19507531D02*
X8257682Y-19526579D01*
X8257682Y-19526579D02*
X8267205Y-19564674D01*
X8267205Y-19564674D02*
X8267205Y-19612293D01*
X8267205Y-19612293D02*
X8257682Y-19650389D01*
X8257682Y-19650389D02*
X8248158Y-19669436D01*
X8248158Y-19669436D02*
X8238634Y-19678960D01*
X8238634Y-19678960D02*
X8219586Y-19688484D01*
X8219586Y-19688484D02*
X8200539Y-19688484D01*
X8200539Y-19688484D02*
X8181491Y-19678960D01*
X8181491Y-19678960D02*
X8171967Y-19669436D01*
X8171967Y-19669436D02*
X8162443Y-19650389D01*
X8162443Y-19650389D02*
X8152920Y-19612293D01*
X8152920Y-19612293D02*
X8152920Y-19564674D01*
X8152920Y-19564674D02*
X8162443Y-19526579D01*
X8162443Y-19526579D02*
X8171967Y-19507531D01*
X8171967Y-19507531D02*
X8181491Y-19498008D01*
X8181491Y-19498008D02*
X8200539Y-19488484D01*
X8352920Y-19688484D02*
X8352920Y-19555150D01*
X8352920Y-19574198D02*
X8362443Y-19564674D01*
X8362443Y-19564674D02*
X8381491Y-19555150D01*
X8381491Y-19555150D02*
X8410063Y-19555150D01*
X8410063Y-19555150D02*
X8429110Y-19564674D01*
X8429110Y-19564674D02*
X8438634Y-19583722D01*
X8438634Y-19583722D02*
X8438634Y-19688484D01*
X8438634Y-19583722D02*
X8448158Y-19564674D01*
X8448158Y-19564674D02*
X8467205Y-19555150D01*
X8467205Y-19555150D02*
X8495777Y-19555150D01*
X8495777Y-19555150D02*
X8514825Y-19564674D01*
X8514825Y-19564674D02*
X8524348Y-19583722D01*
X8524348Y-19583722D02*
X8524348Y-19688484D01*
X8619586Y-19688484D02*
X8619586Y-19555150D01*
X8619586Y-19574198D02*
X8629110Y-19564674D01*
X8629110Y-19564674D02*
X8648158Y-19555150D01*
X8648158Y-19555150D02*
X8676729Y-19555150D01*
X8676729Y-19555150D02*
X8695777Y-19564674D01*
X8695777Y-19564674D02*
X8705301Y-19583722D01*
X8705301Y-19583722D02*
X8705301Y-19688484D01*
X8705301Y-19583722D02*
X8714825Y-19564674D01*
X8714825Y-19564674D02*
X8733872Y-19555150D01*
X8733872Y-19555150D02*
X8762444Y-19555150D01*
X8762444Y-19555150D02*
X8781491Y-19564674D01*
X8781491Y-19564674D02*
X8791015Y-19583722D01*
X8791015Y-19583722D02*
X8791015Y-19688484D01*
X9181491Y-19478960D02*
X9010063Y-19736103D01*
X9438634Y-19488484D02*
X9457682Y-19488484D01*
X9457682Y-19488484D02*
X9476729Y-19498008D01*
X9476729Y-19498008D02*
X9486253Y-19507531D01*
X9486253Y-19507531D02*
X9495777Y-19526579D01*
X9495777Y-19526579D02*
X9505301Y-19564674D01*
X9505301Y-19564674D02*
X9505301Y-19612293D01*
X9505301Y-19612293D02*
X9495777Y-19650389D01*
X9495777Y-19650389D02*
X9486253Y-19669436D01*
X9486253Y-19669436D02*
X9476729Y-19678960D01*
X9476729Y-19678960D02*
X9457682Y-19688484D01*
X9457682Y-19688484D02*
X9438634Y-19688484D01*
X9438634Y-19688484D02*
X9419587Y-19678960D01*
X9419587Y-19678960D02*
X9410063Y-19669436D01*
X9410063Y-19669436D02*
X9400539Y-19650389D01*
X9400539Y-19650389D02*
X9391015Y-19612293D01*
X9391015Y-19612293D02*
X9391015Y-19564674D01*
X9391015Y-19564674D02*
X9400539Y-19526579D01*
X9400539Y-19526579D02*
X9410063Y-19507531D01*
X9410063Y-19507531D02*
X9419587Y-19498008D01*
X9419587Y-19498008D02*
X9438634Y-19488484D01*
X9591015Y-19669436D02*
X9600539Y-19678960D01*
X9600539Y-19678960D02*
X9591015Y-19688484D01*
X9591015Y-19688484D02*
X9581491Y-19678960D01*
X9581491Y-19678960D02*
X9591015Y-19669436D01*
X9591015Y-19669436D02*
X9591015Y-19688484D01*
X9724348Y-19488484D02*
X9743396Y-19488484D01*
X9743396Y-19488484D02*
X9762444Y-19498008D01*
X9762444Y-19498008D02*
X9771968Y-19507531D01*
X9771968Y-19507531D02*
X9781491Y-19526579D01*
X9781491Y-19526579D02*
X9791015Y-19564674D01*
X9791015Y-19564674D02*
X9791015Y-19612293D01*
X9791015Y-19612293D02*
X9781491Y-19650389D01*
X9781491Y-19650389D02*
X9771968Y-19669436D01*
X9771968Y-19669436D02*
X9762444Y-19678960D01*
X9762444Y-19678960D02*
X9743396Y-19688484D01*
X9743396Y-19688484D02*
X9724348Y-19688484D01*
X9724348Y-19688484D02*
X9705301Y-19678960D01*
X9705301Y-19678960D02*
X9695777Y-19669436D01*
X9695777Y-19669436D02*
X9686253Y-19650389D01*
X9686253Y-19650389D02*
X9676729Y-19612293D01*
X9676729Y-19612293D02*
X9676729Y-19564674D01*
X9676729Y-19564674D02*
X9686253Y-19526579D01*
X9686253Y-19526579D02*
X9695777Y-19507531D01*
X9695777Y-19507531D02*
X9705301Y-19498008D01*
X9705301Y-19498008D02*
X9724348Y-19488484D01*
X9971968Y-19488484D02*
X9876729Y-19488484D01*
X9876729Y-19488484D02*
X9867206Y-19583722D01*
X9867206Y-19583722D02*
X9876729Y-19574198D01*
X9876729Y-19574198D02*
X9895777Y-19564674D01*
X9895777Y-19564674D02*
X9943396Y-19564674D01*
X9943396Y-19564674D02*
X9962444Y-19574198D01*
X9962444Y-19574198D02*
X9971968Y-19583722D01*
X9971968Y-19583722D02*
X9981491Y-19602770D01*
X9981491Y-19602770D02*
X9981491Y-19650389D01*
X9981491Y-19650389D02*
X9971968Y-19669436D01*
X9971968Y-19669436D02*
X9962444Y-19678960D01*
X9962444Y-19678960D02*
X9943396Y-19688484D01*
X9943396Y-19688484D02*
X9895777Y-19688484D01*
X9895777Y-19688484D02*
X9876729Y-19678960D01*
X9876729Y-19678960D02*
X9867206Y-19669436D01*
X10076729Y-19688484D02*
X10114825Y-19688484D01*
X10114825Y-19688484D02*
X10133872Y-19678960D01*
X10133872Y-19678960D02*
X10143396Y-19669436D01*
X10143396Y-19669436D02*
X10162444Y-19640865D01*
X10162444Y-19640865D02*
X10171968Y-19602770D01*
X10171968Y-19602770D02*
X10171968Y-19526579D01*
X10171968Y-19526579D02*
X10162444Y-19507531D01*
X10162444Y-19507531D02*
X10152920Y-19498008D01*
X10152920Y-19498008D02*
X10133872Y-19488484D01*
X10133872Y-19488484D02*
X10095777Y-19488484D01*
X10095777Y-19488484D02*
X10076729Y-19498008D01*
X10076729Y-19498008D02*
X10067206Y-19507531D01*
X10067206Y-19507531D02*
X10057682Y-19526579D01*
X10057682Y-19526579D02*
X10057682Y-19574198D01*
X10057682Y-19574198D02*
X10067206Y-19593246D01*
X10067206Y-19593246D02*
X10076729Y-19602770D01*
X10076729Y-19602770D02*
X10095777Y-19612293D01*
X10095777Y-19612293D02*
X10133872Y-19612293D01*
X10133872Y-19612293D02*
X10152920Y-19602770D01*
X10152920Y-19602770D02*
X10162444Y-19593246D01*
X10162444Y-19593246D02*
X10171968Y-19574198D01*
X10362444Y-19688484D02*
X10248158Y-19688484D01*
X10305301Y-19688484D02*
X10305301Y-19488484D01*
X10305301Y-19488484D02*
X10286253Y-19517055D01*
X10286253Y-19517055D02*
X10267206Y-19536103D01*
X10267206Y-19536103D02*
X10248158Y-19545627D01*
X10438634Y-19488484D02*
X10438634Y-19526579D01*
X10514825Y-19488484D02*
X10514825Y-19526579D01*
X10810063Y-19764674D02*
X10800539Y-19755150D01*
X10800539Y-19755150D02*
X10781491Y-19726579D01*
X10781491Y-19726579D02*
X10771968Y-19707531D01*
X10771968Y-19707531D02*
X10762444Y-19678960D01*
X10762444Y-19678960D02*
X10752920Y-19631341D01*
X10752920Y-19631341D02*
X10752920Y-19593246D01*
X10752920Y-19593246D02*
X10762444Y-19545627D01*
X10762444Y-19545627D02*
X10771968Y-19517055D01*
X10771968Y-19517055D02*
X10781491Y-19498008D01*
X10781491Y-19498008D02*
X10800539Y-19469436D01*
X10800539Y-19469436D02*
X10810063Y-19459912D01*
X10991015Y-19688484D02*
X10876730Y-19688484D01*
X10933872Y-19688484D02*
X10933872Y-19488484D01*
X10933872Y-19488484D02*
X10914825Y-19517055D01*
X10914825Y-19517055D02*
X10895777Y-19536103D01*
X10895777Y-19536103D02*
X10876730Y-19545627D01*
X11162444Y-19555150D02*
X11162444Y-19688484D01*
X11114825Y-19478960D02*
X11067206Y-19621817D01*
X11067206Y-19621817D02*
X11191015Y-19621817D01*
X11419587Y-19688484D02*
X11419587Y-19488484D01*
X11505301Y-19688484D02*
X11505301Y-19583722D01*
X11505301Y-19583722D02*
X11495777Y-19564674D01*
X11495777Y-19564674D02*
X11476730Y-19555150D01*
X11476730Y-19555150D02*
X11448158Y-19555150D01*
X11448158Y-19555150D02*
X11429110Y-19564674D01*
X11429110Y-19564674D02*
X11419587Y-19574198D01*
X11629110Y-19688484D02*
X11610063Y-19678960D01*
X11610063Y-19678960D02*
X11600539Y-19669436D01*
X11600539Y-19669436D02*
X11591015Y-19650389D01*
X11591015Y-19650389D02*
X11591015Y-19593246D01*
X11591015Y-19593246D02*
X11600539Y-19574198D01*
X11600539Y-19574198D02*
X11610063Y-19564674D01*
X11610063Y-19564674D02*
X11629110Y-19555150D01*
X11629110Y-19555150D02*
X11657682Y-19555150D01*
X11657682Y-19555150D02*
X11676730Y-19564674D01*
X11676730Y-19564674D02*
X11686253Y-19574198D01*
X11686253Y-19574198D02*
X11695777Y-19593246D01*
X11695777Y-19593246D02*
X11695777Y-19650389D01*
X11695777Y-19650389D02*
X11686253Y-19669436D01*
X11686253Y-19669436D02*
X11676730Y-19678960D01*
X11676730Y-19678960D02*
X11657682Y-19688484D01*
X11657682Y-19688484D02*
X11629110Y-19688484D01*
X11810063Y-19688484D02*
X11791015Y-19678960D01*
X11791015Y-19678960D02*
X11781491Y-19659912D01*
X11781491Y-19659912D02*
X11781491Y-19488484D01*
X11962444Y-19678960D02*
X11943396Y-19688484D01*
X11943396Y-19688484D02*
X11905301Y-19688484D01*
X11905301Y-19688484D02*
X11886253Y-19678960D01*
X11886253Y-19678960D02*
X11876730Y-19659912D01*
X11876730Y-19659912D02*
X11876730Y-19583722D01*
X11876730Y-19583722D02*
X11886253Y-19564674D01*
X11886253Y-19564674D02*
X11905301Y-19555150D01*
X11905301Y-19555150D02*
X11943396Y-19555150D01*
X11943396Y-19555150D02*
X11962444Y-19564674D01*
X11962444Y-19564674D02*
X11971968Y-19583722D01*
X11971968Y-19583722D02*
X11971968Y-19602770D01*
X11971968Y-19602770D02*
X11876730Y-19621817D01*
X12048158Y-19678960D02*
X12067206Y-19688484D01*
X12067206Y-19688484D02*
X12105301Y-19688484D01*
X12105301Y-19688484D02*
X12124349Y-19678960D01*
X12124349Y-19678960D02*
X12133872Y-19659912D01*
X12133872Y-19659912D02*
X12133872Y-19650389D01*
X12133872Y-19650389D02*
X12124349Y-19631341D01*
X12124349Y-19631341D02*
X12105301Y-19621817D01*
X12105301Y-19621817D02*
X12076730Y-19621817D01*
X12076730Y-19621817D02*
X12057682Y-19612293D01*
X12057682Y-19612293D02*
X12048158Y-19593246D01*
X12048158Y-19593246D02*
X12048158Y-19583722D01*
X12048158Y-19583722D02*
X12057682Y-19564674D01*
X12057682Y-19564674D02*
X12076730Y-19555150D01*
X12076730Y-19555150D02*
X12105301Y-19555150D01*
X12105301Y-19555150D02*
X12124349Y-19564674D01*
X12200539Y-19764674D02*
X12210063Y-19755150D01*
X12210063Y-19755150D02*
X12229111Y-19726579D01*
X12229111Y-19726579D02*
X12238634Y-19707531D01*
X12238634Y-19707531D02*
X12248158Y-19678960D01*
X12248158Y-19678960D02*
X12257682Y-19631341D01*
X12257682Y-19631341D02*
X12257682Y-19593246D01*
X12257682Y-19593246D02*
X12248158Y-19545627D01*
X12248158Y-19545627D02*
X12238634Y-19517055D01*
X12238634Y-19517055D02*
X12229111Y-19498008D01*
X12229111Y-19498008D02*
X12210063Y-19469436D01*
X12210063Y-19469436D02*
X12200539Y-19459912D01*
X7135000Y-19967000D02*
X7235000Y-19867000D01*
X7135000Y-19767000D01*
X7035000Y-19867000D01*
X7135000Y-19967000D01*
X7486253Y-19777531D02*
X7495777Y-19768008D01*
X7495777Y-19768008D02*
X7514824Y-19758484D01*
X7514824Y-19758484D02*
X7562443Y-19758484D01*
X7562443Y-19758484D02*
X7581491Y-19768008D01*
X7581491Y-19768008D02*
X7591015Y-19777531D01*
X7591015Y-19777531D02*
X7600539Y-19796579D01*
X7600539Y-19796579D02*
X7600539Y-19815627D01*
X7600539Y-19815627D02*
X7591015Y-19844198D01*
X7591015Y-19844198D02*
X7476729Y-19958484D01*
X7476729Y-19958484D02*
X7600539Y-19958484D01*
X7686253Y-19939436D02*
X7695777Y-19948960D01*
X7695777Y-19948960D02*
X7686253Y-19958484D01*
X7686253Y-19958484D02*
X7676729Y-19948960D01*
X7676729Y-19948960D02*
X7686253Y-19939436D01*
X7686253Y-19939436D02*
X7686253Y-19958484D01*
X7819586Y-19758484D02*
X7838634Y-19758484D01*
X7838634Y-19758484D02*
X7857682Y-19768008D01*
X7857682Y-19768008D02*
X7867205Y-19777531D01*
X7867205Y-19777531D02*
X7876729Y-19796579D01*
X7876729Y-19796579D02*
X7886253Y-19834674D01*
X7886253Y-19834674D02*
X7886253Y-19882293D01*
X7886253Y-19882293D02*
X7876729Y-19920389D01*
X7876729Y-19920389D02*
X7867205Y-19939436D01*
X7867205Y-19939436D02*
X7857682Y-19948960D01*
X7857682Y-19948960D02*
X7838634Y-19958484D01*
X7838634Y-19958484D02*
X7819586Y-19958484D01*
X7819586Y-19958484D02*
X7800539Y-19948960D01*
X7800539Y-19948960D02*
X7791015Y-19939436D01*
X7791015Y-19939436D02*
X7781491Y-19920389D01*
X7781491Y-19920389D02*
X7771967Y-19882293D01*
X7771967Y-19882293D02*
X7771967Y-19834674D01*
X7771967Y-19834674D02*
X7781491Y-19796579D01*
X7781491Y-19796579D02*
X7791015Y-19777531D01*
X7791015Y-19777531D02*
X7800539Y-19768008D01*
X7800539Y-19768008D02*
X7819586Y-19758484D01*
X8010062Y-19758484D02*
X8029110Y-19758484D01*
X8029110Y-19758484D02*
X8048158Y-19768008D01*
X8048158Y-19768008D02*
X8057682Y-19777531D01*
X8057682Y-19777531D02*
X8067205Y-19796579D01*
X8067205Y-19796579D02*
X8076729Y-19834674D01*
X8076729Y-19834674D02*
X8076729Y-19882293D01*
X8076729Y-19882293D02*
X8067205Y-19920389D01*
X8067205Y-19920389D02*
X8057682Y-19939436D01*
X8057682Y-19939436D02*
X8048158Y-19948960D01*
X8048158Y-19948960D02*
X8029110Y-19958484D01*
X8029110Y-19958484D02*
X8010062Y-19958484D01*
X8010062Y-19958484D02*
X7991015Y-19948960D01*
X7991015Y-19948960D02*
X7981491Y-19939436D01*
X7981491Y-19939436D02*
X7971967Y-19920389D01*
X7971967Y-19920389D02*
X7962443Y-19882293D01*
X7962443Y-19882293D02*
X7962443Y-19834674D01*
X7962443Y-19834674D02*
X7971967Y-19796579D01*
X7971967Y-19796579D02*
X7981491Y-19777531D01*
X7981491Y-19777531D02*
X7991015Y-19768008D01*
X7991015Y-19768008D02*
X8010062Y-19758484D01*
X8200539Y-19758484D02*
X8219586Y-19758484D01*
X8219586Y-19758484D02*
X8238634Y-19768008D01*
X8238634Y-19768008D02*
X8248158Y-19777531D01*
X8248158Y-19777531D02*
X8257682Y-19796579D01*
X8257682Y-19796579D02*
X8267205Y-19834674D01*
X8267205Y-19834674D02*
X8267205Y-19882293D01*
X8267205Y-19882293D02*
X8257682Y-19920389D01*
X8257682Y-19920389D02*
X8248158Y-19939436D01*
X8248158Y-19939436D02*
X8238634Y-19948960D01*
X8238634Y-19948960D02*
X8219586Y-19958484D01*
X8219586Y-19958484D02*
X8200539Y-19958484D01*
X8200539Y-19958484D02*
X8181491Y-19948960D01*
X8181491Y-19948960D02*
X8171967Y-19939436D01*
X8171967Y-19939436D02*
X8162443Y-19920389D01*
X8162443Y-19920389D02*
X8152920Y-19882293D01*
X8152920Y-19882293D02*
X8152920Y-19834674D01*
X8152920Y-19834674D02*
X8162443Y-19796579D01*
X8162443Y-19796579D02*
X8171967Y-19777531D01*
X8171967Y-19777531D02*
X8181491Y-19768008D01*
X8181491Y-19768008D02*
X8200539Y-19758484D01*
X8352920Y-19958484D02*
X8352920Y-19825150D01*
X8352920Y-19844198D02*
X8362443Y-19834674D01*
X8362443Y-19834674D02*
X8381491Y-19825150D01*
X8381491Y-19825150D02*
X8410063Y-19825150D01*
X8410063Y-19825150D02*
X8429110Y-19834674D01*
X8429110Y-19834674D02*
X8438634Y-19853722D01*
X8438634Y-19853722D02*
X8438634Y-19958484D01*
X8438634Y-19853722D02*
X8448158Y-19834674D01*
X8448158Y-19834674D02*
X8467205Y-19825150D01*
X8467205Y-19825150D02*
X8495777Y-19825150D01*
X8495777Y-19825150D02*
X8514825Y-19834674D01*
X8514825Y-19834674D02*
X8524348Y-19853722D01*
X8524348Y-19853722D02*
X8524348Y-19958484D01*
X8619586Y-19958484D02*
X8619586Y-19825150D01*
X8619586Y-19844198D02*
X8629110Y-19834674D01*
X8629110Y-19834674D02*
X8648158Y-19825150D01*
X8648158Y-19825150D02*
X8676729Y-19825150D01*
X8676729Y-19825150D02*
X8695777Y-19834674D01*
X8695777Y-19834674D02*
X8705301Y-19853722D01*
X8705301Y-19853722D02*
X8705301Y-19958484D01*
X8705301Y-19853722D02*
X8714825Y-19834674D01*
X8714825Y-19834674D02*
X8733872Y-19825150D01*
X8733872Y-19825150D02*
X8762444Y-19825150D01*
X8762444Y-19825150D02*
X8781491Y-19834674D01*
X8781491Y-19834674D02*
X8791015Y-19853722D01*
X8791015Y-19853722D02*
X8791015Y-19958484D01*
X9181491Y-19748960D02*
X9010063Y-20006103D01*
X9438634Y-19758484D02*
X9457682Y-19758484D01*
X9457682Y-19758484D02*
X9476729Y-19768008D01*
X9476729Y-19768008D02*
X9486253Y-19777531D01*
X9486253Y-19777531D02*
X9495777Y-19796579D01*
X9495777Y-19796579D02*
X9505301Y-19834674D01*
X9505301Y-19834674D02*
X9505301Y-19882293D01*
X9505301Y-19882293D02*
X9495777Y-19920389D01*
X9495777Y-19920389D02*
X9486253Y-19939436D01*
X9486253Y-19939436D02*
X9476729Y-19948960D01*
X9476729Y-19948960D02*
X9457682Y-19958484D01*
X9457682Y-19958484D02*
X9438634Y-19958484D01*
X9438634Y-19958484D02*
X9419587Y-19948960D01*
X9419587Y-19948960D02*
X9410063Y-19939436D01*
X9410063Y-19939436D02*
X9400539Y-19920389D01*
X9400539Y-19920389D02*
X9391015Y-19882293D01*
X9391015Y-19882293D02*
X9391015Y-19834674D01*
X9391015Y-19834674D02*
X9400539Y-19796579D01*
X9400539Y-19796579D02*
X9410063Y-19777531D01*
X9410063Y-19777531D02*
X9419587Y-19768008D01*
X9419587Y-19768008D02*
X9438634Y-19758484D01*
X9591015Y-19939436D02*
X9600539Y-19948960D01*
X9600539Y-19948960D02*
X9591015Y-19958484D01*
X9591015Y-19958484D02*
X9581491Y-19948960D01*
X9581491Y-19948960D02*
X9591015Y-19939436D01*
X9591015Y-19939436D02*
X9591015Y-19958484D01*
X9724348Y-19758484D02*
X9743396Y-19758484D01*
X9743396Y-19758484D02*
X9762444Y-19768008D01*
X9762444Y-19768008D02*
X9771968Y-19777531D01*
X9771968Y-19777531D02*
X9781491Y-19796579D01*
X9781491Y-19796579D02*
X9791015Y-19834674D01*
X9791015Y-19834674D02*
X9791015Y-19882293D01*
X9791015Y-19882293D02*
X9781491Y-19920389D01*
X9781491Y-19920389D02*
X9771968Y-19939436D01*
X9771968Y-19939436D02*
X9762444Y-19948960D01*
X9762444Y-19948960D02*
X9743396Y-19958484D01*
X9743396Y-19958484D02*
X9724348Y-19958484D01*
X9724348Y-19958484D02*
X9705301Y-19948960D01*
X9705301Y-19948960D02*
X9695777Y-19939436D01*
X9695777Y-19939436D02*
X9686253Y-19920389D01*
X9686253Y-19920389D02*
X9676729Y-19882293D01*
X9676729Y-19882293D02*
X9676729Y-19834674D01*
X9676729Y-19834674D02*
X9686253Y-19796579D01*
X9686253Y-19796579D02*
X9695777Y-19777531D01*
X9695777Y-19777531D02*
X9705301Y-19768008D01*
X9705301Y-19768008D02*
X9724348Y-19758484D01*
X9857682Y-19758484D02*
X9991015Y-19758484D01*
X9991015Y-19758484D02*
X9905301Y-19958484D01*
X10095777Y-19844198D02*
X10076729Y-19834674D01*
X10076729Y-19834674D02*
X10067206Y-19825150D01*
X10067206Y-19825150D02*
X10057682Y-19806103D01*
X10057682Y-19806103D02*
X10057682Y-19796579D01*
X10057682Y-19796579D02*
X10067206Y-19777531D01*
X10067206Y-19777531D02*
X10076729Y-19768008D01*
X10076729Y-19768008D02*
X10095777Y-19758484D01*
X10095777Y-19758484D02*
X10133872Y-19758484D01*
X10133872Y-19758484D02*
X10152920Y-19768008D01*
X10152920Y-19768008D02*
X10162444Y-19777531D01*
X10162444Y-19777531D02*
X10171968Y-19796579D01*
X10171968Y-19796579D02*
X10171968Y-19806103D01*
X10171968Y-19806103D02*
X10162444Y-19825150D01*
X10162444Y-19825150D02*
X10152920Y-19834674D01*
X10152920Y-19834674D02*
X10133872Y-19844198D01*
X10133872Y-19844198D02*
X10095777Y-19844198D01*
X10095777Y-19844198D02*
X10076729Y-19853722D01*
X10076729Y-19853722D02*
X10067206Y-19863246D01*
X10067206Y-19863246D02*
X10057682Y-19882293D01*
X10057682Y-19882293D02*
X10057682Y-19920389D01*
X10057682Y-19920389D02*
X10067206Y-19939436D01*
X10067206Y-19939436D02*
X10076729Y-19948960D01*
X10076729Y-19948960D02*
X10095777Y-19958484D01*
X10095777Y-19958484D02*
X10133872Y-19958484D01*
X10133872Y-19958484D02*
X10152920Y-19948960D01*
X10152920Y-19948960D02*
X10162444Y-19939436D01*
X10162444Y-19939436D02*
X10171968Y-19920389D01*
X10171968Y-19920389D02*
X10171968Y-19882293D01*
X10171968Y-19882293D02*
X10162444Y-19863246D01*
X10162444Y-19863246D02*
X10152920Y-19853722D01*
X10152920Y-19853722D02*
X10133872Y-19844198D01*
X10238634Y-19758484D02*
X10371968Y-19758484D01*
X10371968Y-19758484D02*
X10286253Y-19958484D01*
X10438634Y-19758484D02*
X10438634Y-19796579D01*
X10514825Y-19758484D02*
X10514825Y-19796579D01*
X10810063Y-20034674D02*
X10800539Y-20025150D01*
X10800539Y-20025150D02*
X10781491Y-19996579D01*
X10781491Y-19996579D02*
X10771968Y-19977531D01*
X10771968Y-19977531D02*
X10762444Y-19948960D01*
X10762444Y-19948960D02*
X10752920Y-19901341D01*
X10752920Y-19901341D02*
X10752920Y-19863246D01*
X10752920Y-19863246D02*
X10762444Y-19815627D01*
X10762444Y-19815627D02*
X10771968Y-19787055D01*
X10771968Y-19787055D02*
X10781491Y-19768008D01*
X10781491Y-19768008D02*
X10800539Y-19739436D01*
X10800539Y-19739436D02*
X10810063Y-19729912D01*
X10876730Y-19777531D02*
X10886253Y-19768008D01*
X10886253Y-19768008D02*
X10905301Y-19758484D01*
X10905301Y-19758484D02*
X10952920Y-19758484D01*
X10952920Y-19758484D02*
X10971968Y-19768008D01*
X10971968Y-19768008D02*
X10981491Y-19777531D01*
X10981491Y-19777531D02*
X10991015Y-19796579D01*
X10991015Y-19796579D02*
X10991015Y-19815627D01*
X10991015Y-19815627D02*
X10981491Y-19844198D01*
X10981491Y-19844198D02*
X10867206Y-19958484D01*
X10867206Y-19958484D02*
X10991015Y-19958484D01*
X11229110Y-19958484D02*
X11229110Y-19758484D01*
X11314825Y-19958484D02*
X11314825Y-19853722D01*
X11314825Y-19853722D02*
X11305301Y-19834674D01*
X11305301Y-19834674D02*
X11286253Y-19825150D01*
X11286253Y-19825150D02*
X11257682Y-19825150D01*
X11257682Y-19825150D02*
X11238634Y-19834674D01*
X11238634Y-19834674D02*
X11229110Y-19844198D01*
X11438634Y-19958484D02*
X11419587Y-19948960D01*
X11419587Y-19948960D02*
X11410063Y-19939436D01*
X11410063Y-19939436D02*
X11400539Y-19920389D01*
X11400539Y-19920389D02*
X11400539Y-19863246D01*
X11400539Y-19863246D02*
X11410063Y-19844198D01*
X11410063Y-19844198D02*
X11419587Y-19834674D01*
X11419587Y-19834674D02*
X11438634Y-19825150D01*
X11438634Y-19825150D02*
X11467206Y-19825150D01*
X11467206Y-19825150D02*
X11486253Y-19834674D01*
X11486253Y-19834674D02*
X11495777Y-19844198D01*
X11495777Y-19844198D02*
X11505301Y-19863246D01*
X11505301Y-19863246D02*
X11505301Y-19920389D01*
X11505301Y-19920389D02*
X11495777Y-19939436D01*
X11495777Y-19939436D02*
X11486253Y-19948960D01*
X11486253Y-19948960D02*
X11467206Y-19958484D01*
X11467206Y-19958484D02*
X11438634Y-19958484D01*
X11619587Y-19958484D02*
X11600539Y-19948960D01*
X11600539Y-19948960D02*
X11591015Y-19929912D01*
X11591015Y-19929912D02*
X11591015Y-19758484D01*
X11771968Y-19948960D02*
X11752920Y-19958484D01*
X11752920Y-19958484D02*
X11714825Y-19958484D01*
X11714825Y-19958484D02*
X11695777Y-19948960D01*
X11695777Y-19948960D02*
X11686253Y-19929912D01*
X11686253Y-19929912D02*
X11686253Y-19853722D01*
X11686253Y-19853722D02*
X11695777Y-19834674D01*
X11695777Y-19834674D02*
X11714825Y-19825150D01*
X11714825Y-19825150D02*
X11752920Y-19825150D01*
X11752920Y-19825150D02*
X11771968Y-19834674D01*
X11771968Y-19834674D02*
X11781491Y-19853722D01*
X11781491Y-19853722D02*
X11781491Y-19872770D01*
X11781491Y-19872770D02*
X11686253Y-19891817D01*
X11857682Y-19948960D02*
X11876730Y-19958484D01*
X11876730Y-19958484D02*
X11914825Y-19958484D01*
X11914825Y-19958484D02*
X11933872Y-19948960D01*
X11933872Y-19948960D02*
X11943396Y-19929912D01*
X11943396Y-19929912D02*
X11943396Y-19920389D01*
X11943396Y-19920389D02*
X11933872Y-19901341D01*
X11933872Y-19901341D02*
X11914825Y-19891817D01*
X11914825Y-19891817D02*
X11886253Y-19891817D01*
X11886253Y-19891817D02*
X11867206Y-19882293D01*
X11867206Y-19882293D02*
X11857682Y-19863246D01*
X11857682Y-19863246D02*
X11857682Y-19853722D01*
X11857682Y-19853722D02*
X11867206Y-19834674D01*
X11867206Y-19834674D02*
X11886253Y-19825150D01*
X11886253Y-19825150D02*
X11914825Y-19825150D01*
X11914825Y-19825150D02*
X11933872Y-19834674D01*
X12010063Y-20034674D02*
X12019587Y-20025150D01*
X12019587Y-20025150D02*
X12038634Y-19996579D01*
X12038634Y-19996579D02*
X12048158Y-19977531D01*
X12048158Y-19977531D02*
X12057682Y-19948960D01*
X12057682Y-19948960D02*
X12067206Y-19901341D01*
X12067206Y-19901341D02*
X12067206Y-19863246D01*
X12067206Y-19863246D02*
X12057682Y-19815627D01*
X12057682Y-19815627D02*
X12048158Y-19787055D01*
X12048158Y-19787055D02*
X12038634Y-19768008D01*
X12038634Y-19768008D02*
X12019587Y-19739436D01*
X12019587Y-19739436D02*
X12010063Y-19729912D01*
X7035000Y-20087000D02*
X7235000Y-20287000D01*
X7235000Y-20087000D02*
X7035000Y-20287000D01*
X7235000Y-20187000D02*
G75*
G03*
X7035000Y-20187000I-100000J0D01*
G01*
X7035000Y-20187000D02*
G75*
G03*
X7235000Y-20187000I100000J0D01*
G01*
X7476729Y-20078484D02*
X7600539Y-20078484D01*
X7600539Y-20078484D02*
X7533872Y-20154674D01*
X7533872Y-20154674D02*
X7562443Y-20154674D01*
X7562443Y-20154674D02*
X7581491Y-20164198D01*
X7581491Y-20164198D02*
X7591015Y-20173722D01*
X7591015Y-20173722D02*
X7600539Y-20192770D01*
X7600539Y-20192770D02*
X7600539Y-20240389D01*
X7600539Y-20240389D02*
X7591015Y-20259436D01*
X7591015Y-20259436D02*
X7581491Y-20268960D01*
X7581491Y-20268960D02*
X7562443Y-20278484D01*
X7562443Y-20278484D02*
X7505301Y-20278484D01*
X7505301Y-20278484D02*
X7486253Y-20268960D01*
X7486253Y-20268960D02*
X7476729Y-20259436D01*
X7686253Y-20259436D02*
X7695777Y-20268960D01*
X7695777Y-20268960D02*
X7686253Y-20278484D01*
X7686253Y-20278484D02*
X7676729Y-20268960D01*
X7676729Y-20268960D02*
X7686253Y-20259436D01*
X7686253Y-20259436D02*
X7686253Y-20278484D01*
X7771967Y-20097531D02*
X7781491Y-20088008D01*
X7781491Y-20088008D02*
X7800539Y-20078484D01*
X7800539Y-20078484D02*
X7848158Y-20078484D01*
X7848158Y-20078484D02*
X7867205Y-20088008D01*
X7867205Y-20088008D02*
X7876729Y-20097531D01*
X7876729Y-20097531D02*
X7886253Y-20116579D01*
X7886253Y-20116579D02*
X7886253Y-20135627D01*
X7886253Y-20135627D02*
X7876729Y-20164198D01*
X7876729Y-20164198D02*
X7762443Y-20278484D01*
X7762443Y-20278484D02*
X7886253Y-20278484D01*
X8010062Y-20078484D02*
X8029110Y-20078484D01*
X8029110Y-20078484D02*
X8048158Y-20088008D01*
X8048158Y-20088008D02*
X8057682Y-20097531D01*
X8057682Y-20097531D02*
X8067205Y-20116579D01*
X8067205Y-20116579D02*
X8076729Y-20154674D01*
X8076729Y-20154674D02*
X8076729Y-20202293D01*
X8076729Y-20202293D02*
X8067205Y-20240389D01*
X8067205Y-20240389D02*
X8057682Y-20259436D01*
X8057682Y-20259436D02*
X8048158Y-20268960D01*
X8048158Y-20268960D02*
X8029110Y-20278484D01*
X8029110Y-20278484D02*
X8010062Y-20278484D01*
X8010062Y-20278484D02*
X7991015Y-20268960D01*
X7991015Y-20268960D02*
X7981491Y-20259436D01*
X7981491Y-20259436D02*
X7971967Y-20240389D01*
X7971967Y-20240389D02*
X7962443Y-20202293D01*
X7962443Y-20202293D02*
X7962443Y-20154674D01*
X7962443Y-20154674D02*
X7971967Y-20116579D01*
X7971967Y-20116579D02*
X7981491Y-20097531D01*
X7981491Y-20097531D02*
X7991015Y-20088008D01*
X7991015Y-20088008D02*
X8010062Y-20078484D01*
X8200539Y-20078484D02*
X8219586Y-20078484D01*
X8219586Y-20078484D02*
X8238634Y-20088008D01*
X8238634Y-20088008D02*
X8248158Y-20097531D01*
X8248158Y-20097531D02*
X8257682Y-20116579D01*
X8257682Y-20116579D02*
X8267205Y-20154674D01*
X8267205Y-20154674D02*
X8267205Y-20202293D01*
X8267205Y-20202293D02*
X8257682Y-20240389D01*
X8257682Y-20240389D02*
X8248158Y-20259436D01*
X8248158Y-20259436D02*
X8238634Y-20268960D01*
X8238634Y-20268960D02*
X8219586Y-20278484D01*
X8219586Y-20278484D02*
X8200539Y-20278484D01*
X8200539Y-20278484D02*
X8181491Y-20268960D01*
X8181491Y-20268960D02*
X8171967Y-20259436D01*
X8171967Y-20259436D02*
X8162443Y-20240389D01*
X8162443Y-20240389D02*
X8152920Y-20202293D01*
X8152920Y-20202293D02*
X8152920Y-20154674D01*
X8152920Y-20154674D02*
X8162443Y-20116579D01*
X8162443Y-20116579D02*
X8171967Y-20097531D01*
X8171967Y-20097531D02*
X8181491Y-20088008D01*
X8181491Y-20088008D02*
X8200539Y-20078484D01*
X8352920Y-20278484D02*
X8352920Y-20145150D01*
X8352920Y-20164198D02*
X8362443Y-20154674D01*
X8362443Y-20154674D02*
X8381491Y-20145150D01*
X8381491Y-20145150D02*
X8410063Y-20145150D01*
X8410063Y-20145150D02*
X8429110Y-20154674D01*
X8429110Y-20154674D02*
X8438634Y-20173722D01*
X8438634Y-20173722D02*
X8438634Y-20278484D01*
X8438634Y-20173722D02*
X8448158Y-20154674D01*
X8448158Y-20154674D02*
X8467205Y-20145150D01*
X8467205Y-20145150D02*
X8495777Y-20145150D01*
X8495777Y-20145150D02*
X8514825Y-20154674D01*
X8514825Y-20154674D02*
X8524348Y-20173722D01*
X8524348Y-20173722D02*
X8524348Y-20278484D01*
X8619586Y-20278484D02*
X8619586Y-20145150D01*
X8619586Y-20164198D02*
X8629110Y-20154674D01*
X8629110Y-20154674D02*
X8648158Y-20145150D01*
X8648158Y-20145150D02*
X8676729Y-20145150D01*
X8676729Y-20145150D02*
X8695777Y-20154674D01*
X8695777Y-20154674D02*
X8705301Y-20173722D01*
X8705301Y-20173722D02*
X8705301Y-20278484D01*
X8705301Y-20173722D02*
X8714825Y-20154674D01*
X8714825Y-20154674D02*
X8733872Y-20145150D01*
X8733872Y-20145150D02*
X8762444Y-20145150D01*
X8762444Y-20145150D02*
X8781491Y-20154674D01*
X8781491Y-20154674D02*
X8791015Y-20173722D01*
X8791015Y-20173722D02*
X8791015Y-20278484D01*
X9181491Y-20068960D02*
X9010063Y-20326103D01*
X9438634Y-20078484D02*
X9457682Y-20078484D01*
X9457682Y-20078484D02*
X9476729Y-20088008D01*
X9476729Y-20088008D02*
X9486253Y-20097531D01*
X9486253Y-20097531D02*
X9495777Y-20116579D01*
X9495777Y-20116579D02*
X9505301Y-20154674D01*
X9505301Y-20154674D02*
X9505301Y-20202293D01*
X9505301Y-20202293D02*
X9495777Y-20240389D01*
X9495777Y-20240389D02*
X9486253Y-20259436D01*
X9486253Y-20259436D02*
X9476729Y-20268960D01*
X9476729Y-20268960D02*
X9457682Y-20278484D01*
X9457682Y-20278484D02*
X9438634Y-20278484D01*
X9438634Y-20278484D02*
X9419587Y-20268960D01*
X9419587Y-20268960D02*
X9410063Y-20259436D01*
X9410063Y-20259436D02*
X9400539Y-20240389D01*
X9400539Y-20240389D02*
X9391015Y-20202293D01*
X9391015Y-20202293D02*
X9391015Y-20154674D01*
X9391015Y-20154674D02*
X9400539Y-20116579D01*
X9400539Y-20116579D02*
X9410063Y-20097531D01*
X9410063Y-20097531D02*
X9419587Y-20088008D01*
X9419587Y-20088008D02*
X9438634Y-20078484D01*
X9591015Y-20259436D02*
X9600539Y-20268960D01*
X9600539Y-20268960D02*
X9591015Y-20278484D01*
X9591015Y-20278484D02*
X9581491Y-20268960D01*
X9581491Y-20268960D02*
X9591015Y-20259436D01*
X9591015Y-20259436D02*
X9591015Y-20278484D01*
X9791015Y-20278484D02*
X9676729Y-20278484D01*
X9733872Y-20278484D02*
X9733872Y-20078484D01*
X9733872Y-20078484D02*
X9714825Y-20107055D01*
X9714825Y-20107055D02*
X9695777Y-20126103D01*
X9695777Y-20126103D02*
X9676729Y-20135627D01*
X9867206Y-20097531D02*
X9876729Y-20088008D01*
X9876729Y-20088008D02*
X9895777Y-20078484D01*
X9895777Y-20078484D02*
X9943396Y-20078484D01*
X9943396Y-20078484D02*
X9962444Y-20088008D01*
X9962444Y-20088008D02*
X9971968Y-20097531D01*
X9971968Y-20097531D02*
X9981491Y-20116579D01*
X9981491Y-20116579D02*
X9981491Y-20135627D01*
X9981491Y-20135627D02*
X9971968Y-20164198D01*
X9971968Y-20164198D02*
X9857682Y-20278484D01*
X9857682Y-20278484D02*
X9981491Y-20278484D01*
X10152920Y-20078484D02*
X10114825Y-20078484D01*
X10114825Y-20078484D02*
X10095777Y-20088008D01*
X10095777Y-20088008D02*
X10086253Y-20097531D01*
X10086253Y-20097531D02*
X10067206Y-20126103D01*
X10067206Y-20126103D02*
X10057682Y-20164198D01*
X10057682Y-20164198D02*
X10057682Y-20240389D01*
X10057682Y-20240389D02*
X10067206Y-20259436D01*
X10067206Y-20259436D02*
X10076729Y-20268960D01*
X10076729Y-20268960D02*
X10095777Y-20278484D01*
X10095777Y-20278484D02*
X10133872Y-20278484D01*
X10133872Y-20278484D02*
X10152920Y-20268960D01*
X10152920Y-20268960D02*
X10162444Y-20259436D01*
X10162444Y-20259436D02*
X10171968Y-20240389D01*
X10171968Y-20240389D02*
X10171968Y-20192770D01*
X10171968Y-20192770D02*
X10162444Y-20173722D01*
X10162444Y-20173722D02*
X10152920Y-20164198D01*
X10152920Y-20164198D02*
X10133872Y-20154674D01*
X10133872Y-20154674D02*
X10095777Y-20154674D01*
X10095777Y-20154674D02*
X10076729Y-20164198D01*
X10076729Y-20164198D02*
X10067206Y-20173722D01*
X10067206Y-20173722D02*
X10057682Y-20192770D01*
X10295777Y-20078484D02*
X10314825Y-20078484D01*
X10314825Y-20078484D02*
X10333872Y-20088008D01*
X10333872Y-20088008D02*
X10343396Y-20097531D01*
X10343396Y-20097531D02*
X10352920Y-20116579D01*
X10352920Y-20116579D02*
X10362444Y-20154674D01*
X10362444Y-20154674D02*
X10362444Y-20202293D01*
X10362444Y-20202293D02*
X10352920Y-20240389D01*
X10352920Y-20240389D02*
X10343396Y-20259436D01*
X10343396Y-20259436D02*
X10333872Y-20268960D01*
X10333872Y-20268960D02*
X10314825Y-20278484D01*
X10314825Y-20278484D02*
X10295777Y-20278484D01*
X10295777Y-20278484D02*
X10276729Y-20268960D01*
X10276729Y-20268960D02*
X10267206Y-20259436D01*
X10267206Y-20259436D02*
X10257682Y-20240389D01*
X10257682Y-20240389D02*
X10248158Y-20202293D01*
X10248158Y-20202293D02*
X10248158Y-20154674D01*
X10248158Y-20154674D02*
X10257682Y-20116579D01*
X10257682Y-20116579D02*
X10267206Y-20097531D01*
X10267206Y-20097531D02*
X10276729Y-20088008D01*
X10276729Y-20088008D02*
X10295777Y-20078484D01*
X10438634Y-20078484D02*
X10438634Y-20116579D01*
X10514825Y-20078484D02*
X10514825Y-20116579D01*
X10810063Y-20354674D02*
X10800539Y-20345150D01*
X10800539Y-20345150D02*
X10781491Y-20316579D01*
X10781491Y-20316579D02*
X10771968Y-20297531D01*
X10771968Y-20297531D02*
X10762444Y-20268960D01*
X10762444Y-20268960D02*
X10752920Y-20221341D01*
X10752920Y-20221341D02*
X10752920Y-20183246D01*
X10752920Y-20183246D02*
X10762444Y-20135627D01*
X10762444Y-20135627D02*
X10771968Y-20107055D01*
X10771968Y-20107055D02*
X10781491Y-20088008D01*
X10781491Y-20088008D02*
X10800539Y-20059436D01*
X10800539Y-20059436D02*
X10810063Y-20049912D01*
X10971968Y-20145150D02*
X10971968Y-20278484D01*
X10924349Y-20068960D02*
X10876730Y-20211817D01*
X10876730Y-20211817D02*
X11000539Y-20211817D01*
X11229110Y-20278484D02*
X11229110Y-20078484D01*
X11314825Y-20278484D02*
X11314825Y-20173722D01*
X11314825Y-20173722D02*
X11305301Y-20154674D01*
X11305301Y-20154674D02*
X11286253Y-20145150D01*
X11286253Y-20145150D02*
X11257682Y-20145150D01*
X11257682Y-20145150D02*
X11238634Y-20154674D01*
X11238634Y-20154674D02*
X11229110Y-20164198D01*
X11438634Y-20278484D02*
X11419587Y-20268960D01*
X11419587Y-20268960D02*
X11410063Y-20259436D01*
X11410063Y-20259436D02*
X11400539Y-20240389D01*
X11400539Y-20240389D02*
X11400539Y-20183246D01*
X11400539Y-20183246D02*
X11410063Y-20164198D01*
X11410063Y-20164198D02*
X11419587Y-20154674D01*
X11419587Y-20154674D02*
X11438634Y-20145150D01*
X11438634Y-20145150D02*
X11467206Y-20145150D01*
X11467206Y-20145150D02*
X11486253Y-20154674D01*
X11486253Y-20154674D02*
X11495777Y-20164198D01*
X11495777Y-20164198D02*
X11505301Y-20183246D01*
X11505301Y-20183246D02*
X11505301Y-20240389D01*
X11505301Y-20240389D02*
X11495777Y-20259436D01*
X11495777Y-20259436D02*
X11486253Y-20268960D01*
X11486253Y-20268960D02*
X11467206Y-20278484D01*
X11467206Y-20278484D02*
X11438634Y-20278484D01*
X11619587Y-20278484D02*
X11600539Y-20268960D01*
X11600539Y-20268960D02*
X11591015Y-20249912D01*
X11591015Y-20249912D02*
X11591015Y-20078484D01*
X11771968Y-20268960D02*
X11752920Y-20278484D01*
X11752920Y-20278484D02*
X11714825Y-20278484D01*
X11714825Y-20278484D02*
X11695777Y-20268960D01*
X11695777Y-20268960D02*
X11686253Y-20249912D01*
X11686253Y-20249912D02*
X11686253Y-20173722D01*
X11686253Y-20173722D02*
X11695777Y-20154674D01*
X11695777Y-20154674D02*
X11714825Y-20145150D01*
X11714825Y-20145150D02*
X11752920Y-20145150D01*
X11752920Y-20145150D02*
X11771968Y-20154674D01*
X11771968Y-20154674D02*
X11781491Y-20173722D01*
X11781491Y-20173722D02*
X11781491Y-20192770D01*
X11781491Y-20192770D02*
X11686253Y-20211817D01*
X11857682Y-20268960D02*
X11876730Y-20278484D01*
X11876730Y-20278484D02*
X11914825Y-20278484D01*
X11914825Y-20278484D02*
X11933872Y-20268960D01*
X11933872Y-20268960D02*
X11943396Y-20249912D01*
X11943396Y-20249912D02*
X11943396Y-20240389D01*
X11943396Y-20240389D02*
X11933872Y-20221341D01*
X11933872Y-20221341D02*
X11914825Y-20211817D01*
X11914825Y-20211817D02*
X11886253Y-20211817D01*
X11886253Y-20211817D02*
X11867206Y-20202293D01*
X11867206Y-20202293D02*
X11857682Y-20183246D01*
X11857682Y-20183246D02*
X11857682Y-20173722D01*
X11857682Y-20173722D02*
X11867206Y-20154674D01*
X11867206Y-20154674D02*
X11886253Y-20145150D01*
X11886253Y-20145150D02*
X11914825Y-20145150D01*
X11914825Y-20145150D02*
X11933872Y-20154674D01*
X12010063Y-20354674D02*
X12019587Y-20345150D01*
X12019587Y-20345150D02*
X12038634Y-20316579D01*
X12038634Y-20316579D02*
X12048158Y-20297531D01*
X12048158Y-20297531D02*
X12057682Y-20268960D01*
X12057682Y-20268960D02*
X12067206Y-20221341D01*
X12067206Y-20221341D02*
X12067206Y-20183246D01*
X12067206Y-20183246D02*
X12057682Y-20135627D01*
X12057682Y-20135627D02*
X12048158Y-20107055D01*
X12048158Y-20107055D02*
X12038634Y-20088008D01*
X12038634Y-20088008D02*
X12019587Y-20059436D01*
X12019587Y-20059436D02*
X12010063Y-20049912D01*
X7035000Y-20407000D02*
X7235000Y-20607000D01*
X7235000Y-20407000D02*
X7035000Y-20607000D01*
X7135000Y-20407000D02*
X7135000Y-20607000D01*
X7035000Y-20507000D02*
X7235000Y-20507000D01*
X7476729Y-20398484D02*
X7600539Y-20398484D01*
X7600539Y-20398484D02*
X7533872Y-20474674D01*
X7533872Y-20474674D02*
X7562443Y-20474674D01*
X7562443Y-20474674D02*
X7581491Y-20484198D01*
X7581491Y-20484198D02*
X7591015Y-20493722D01*
X7591015Y-20493722D02*
X7600539Y-20512770D01*
X7600539Y-20512770D02*
X7600539Y-20560389D01*
X7600539Y-20560389D02*
X7591015Y-20579436D01*
X7591015Y-20579436D02*
X7581491Y-20588960D01*
X7581491Y-20588960D02*
X7562443Y-20598484D01*
X7562443Y-20598484D02*
X7505301Y-20598484D01*
X7505301Y-20598484D02*
X7486253Y-20588960D01*
X7486253Y-20588960D02*
X7476729Y-20579436D01*
X7686253Y-20579436D02*
X7695777Y-20588960D01*
X7695777Y-20588960D02*
X7686253Y-20598484D01*
X7686253Y-20598484D02*
X7676729Y-20588960D01*
X7676729Y-20588960D02*
X7686253Y-20579436D01*
X7686253Y-20579436D02*
X7686253Y-20598484D01*
X7762443Y-20398484D02*
X7895777Y-20398484D01*
X7895777Y-20398484D02*
X7810062Y-20598484D01*
X8067205Y-20398484D02*
X7971967Y-20398484D01*
X7971967Y-20398484D02*
X7962443Y-20493722D01*
X7962443Y-20493722D02*
X7971967Y-20484198D01*
X7971967Y-20484198D02*
X7991015Y-20474674D01*
X7991015Y-20474674D02*
X8038634Y-20474674D01*
X8038634Y-20474674D02*
X8057682Y-20484198D01*
X8057682Y-20484198D02*
X8067205Y-20493722D01*
X8067205Y-20493722D02*
X8076729Y-20512770D01*
X8076729Y-20512770D02*
X8076729Y-20560389D01*
X8076729Y-20560389D02*
X8067205Y-20579436D01*
X8067205Y-20579436D02*
X8057682Y-20588960D01*
X8057682Y-20588960D02*
X8038634Y-20598484D01*
X8038634Y-20598484D02*
X7991015Y-20598484D01*
X7991015Y-20598484D02*
X7971967Y-20588960D01*
X7971967Y-20588960D02*
X7962443Y-20579436D01*
X8200539Y-20398484D02*
X8219586Y-20398484D01*
X8219586Y-20398484D02*
X8238634Y-20408008D01*
X8238634Y-20408008D02*
X8248158Y-20417531D01*
X8248158Y-20417531D02*
X8257682Y-20436579D01*
X8257682Y-20436579D02*
X8267205Y-20474674D01*
X8267205Y-20474674D02*
X8267205Y-20522293D01*
X8267205Y-20522293D02*
X8257682Y-20560389D01*
X8257682Y-20560389D02*
X8248158Y-20579436D01*
X8248158Y-20579436D02*
X8238634Y-20588960D01*
X8238634Y-20588960D02*
X8219586Y-20598484D01*
X8219586Y-20598484D02*
X8200539Y-20598484D01*
X8200539Y-20598484D02*
X8181491Y-20588960D01*
X8181491Y-20588960D02*
X8171967Y-20579436D01*
X8171967Y-20579436D02*
X8162443Y-20560389D01*
X8162443Y-20560389D02*
X8152920Y-20522293D01*
X8152920Y-20522293D02*
X8152920Y-20474674D01*
X8152920Y-20474674D02*
X8162443Y-20436579D01*
X8162443Y-20436579D02*
X8171967Y-20417531D01*
X8171967Y-20417531D02*
X8181491Y-20408008D01*
X8181491Y-20408008D02*
X8200539Y-20398484D01*
X8352920Y-20598484D02*
X8352920Y-20465150D01*
X8352920Y-20484198D02*
X8362443Y-20474674D01*
X8362443Y-20474674D02*
X8381491Y-20465150D01*
X8381491Y-20465150D02*
X8410063Y-20465150D01*
X8410063Y-20465150D02*
X8429110Y-20474674D01*
X8429110Y-20474674D02*
X8438634Y-20493722D01*
X8438634Y-20493722D02*
X8438634Y-20598484D01*
X8438634Y-20493722D02*
X8448158Y-20474674D01*
X8448158Y-20474674D02*
X8467205Y-20465150D01*
X8467205Y-20465150D02*
X8495777Y-20465150D01*
X8495777Y-20465150D02*
X8514825Y-20474674D01*
X8514825Y-20474674D02*
X8524348Y-20493722D01*
X8524348Y-20493722D02*
X8524348Y-20598484D01*
X8619586Y-20598484D02*
X8619586Y-20465150D01*
X8619586Y-20484198D02*
X8629110Y-20474674D01*
X8629110Y-20474674D02*
X8648158Y-20465150D01*
X8648158Y-20465150D02*
X8676729Y-20465150D01*
X8676729Y-20465150D02*
X8695777Y-20474674D01*
X8695777Y-20474674D02*
X8705301Y-20493722D01*
X8705301Y-20493722D02*
X8705301Y-20598484D01*
X8705301Y-20493722D02*
X8714825Y-20474674D01*
X8714825Y-20474674D02*
X8733872Y-20465150D01*
X8733872Y-20465150D02*
X8762444Y-20465150D01*
X8762444Y-20465150D02*
X8781491Y-20474674D01*
X8781491Y-20474674D02*
X8791015Y-20493722D01*
X8791015Y-20493722D02*
X8791015Y-20598484D01*
X9181491Y-20388960D02*
X9010063Y-20646103D01*
X9438634Y-20398484D02*
X9457682Y-20398484D01*
X9457682Y-20398484D02*
X9476729Y-20408008D01*
X9476729Y-20408008D02*
X9486253Y-20417531D01*
X9486253Y-20417531D02*
X9495777Y-20436579D01*
X9495777Y-20436579D02*
X9505301Y-20474674D01*
X9505301Y-20474674D02*
X9505301Y-20522293D01*
X9505301Y-20522293D02*
X9495777Y-20560389D01*
X9495777Y-20560389D02*
X9486253Y-20579436D01*
X9486253Y-20579436D02*
X9476729Y-20588960D01*
X9476729Y-20588960D02*
X9457682Y-20598484D01*
X9457682Y-20598484D02*
X9438634Y-20598484D01*
X9438634Y-20598484D02*
X9419587Y-20588960D01*
X9419587Y-20588960D02*
X9410063Y-20579436D01*
X9410063Y-20579436D02*
X9400539Y-20560389D01*
X9400539Y-20560389D02*
X9391015Y-20522293D01*
X9391015Y-20522293D02*
X9391015Y-20474674D01*
X9391015Y-20474674D02*
X9400539Y-20436579D01*
X9400539Y-20436579D02*
X9410063Y-20417531D01*
X9410063Y-20417531D02*
X9419587Y-20408008D01*
X9419587Y-20408008D02*
X9438634Y-20398484D01*
X9591015Y-20579436D02*
X9600539Y-20588960D01*
X9600539Y-20588960D02*
X9591015Y-20598484D01*
X9591015Y-20598484D02*
X9581491Y-20588960D01*
X9581491Y-20588960D02*
X9591015Y-20579436D01*
X9591015Y-20579436D02*
X9591015Y-20598484D01*
X9791015Y-20598484D02*
X9676729Y-20598484D01*
X9733872Y-20598484D02*
X9733872Y-20398484D01*
X9733872Y-20398484D02*
X9714825Y-20427055D01*
X9714825Y-20427055D02*
X9695777Y-20446103D01*
X9695777Y-20446103D02*
X9676729Y-20455627D01*
X9962444Y-20465150D02*
X9962444Y-20598484D01*
X9914825Y-20388960D02*
X9867206Y-20531817D01*
X9867206Y-20531817D02*
X9991015Y-20531817D01*
X10048158Y-20398484D02*
X10181491Y-20398484D01*
X10181491Y-20398484D02*
X10095777Y-20598484D01*
X10343396Y-20398484D02*
X10305301Y-20398484D01*
X10305301Y-20398484D02*
X10286253Y-20408008D01*
X10286253Y-20408008D02*
X10276729Y-20417531D01*
X10276729Y-20417531D02*
X10257682Y-20446103D01*
X10257682Y-20446103D02*
X10248158Y-20484198D01*
X10248158Y-20484198D02*
X10248158Y-20560389D01*
X10248158Y-20560389D02*
X10257682Y-20579436D01*
X10257682Y-20579436D02*
X10267206Y-20588960D01*
X10267206Y-20588960D02*
X10286253Y-20598484D01*
X10286253Y-20598484D02*
X10324349Y-20598484D01*
X10324349Y-20598484D02*
X10343396Y-20588960D01*
X10343396Y-20588960D02*
X10352920Y-20579436D01*
X10352920Y-20579436D02*
X10362444Y-20560389D01*
X10362444Y-20560389D02*
X10362444Y-20512770D01*
X10362444Y-20512770D02*
X10352920Y-20493722D01*
X10352920Y-20493722D02*
X10343396Y-20484198D01*
X10343396Y-20484198D02*
X10324349Y-20474674D01*
X10324349Y-20474674D02*
X10286253Y-20474674D01*
X10286253Y-20474674D02*
X10267206Y-20484198D01*
X10267206Y-20484198D02*
X10257682Y-20493722D01*
X10257682Y-20493722D02*
X10248158Y-20512770D01*
X10438634Y-20398484D02*
X10438634Y-20436579D01*
X10514825Y-20398484D02*
X10514825Y-20436579D01*
X10810063Y-20674674D02*
X10800539Y-20665150D01*
X10800539Y-20665150D02*
X10781491Y-20636579D01*
X10781491Y-20636579D02*
X10771968Y-20617531D01*
X10771968Y-20617531D02*
X10762444Y-20588960D01*
X10762444Y-20588960D02*
X10752920Y-20541341D01*
X10752920Y-20541341D02*
X10752920Y-20503246D01*
X10752920Y-20503246D02*
X10762444Y-20455627D01*
X10762444Y-20455627D02*
X10771968Y-20427055D01*
X10771968Y-20427055D02*
X10781491Y-20408008D01*
X10781491Y-20408008D02*
X10800539Y-20379436D01*
X10800539Y-20379436D02*
X10810063Y-20369912D01*
X10876730Y-20417531D02*
X10886253Y-20408008D01*
X10886253Y-20408008D02*
X10905301Y-20398484D01*
X10905301Y-20398484D02*
X10952920Y-20398484D01*
X10952920Y-20398484D02*
X10971968Y-20408008D01*
X10971968Y-20408008D02*
X10981491Y-20417531D01*
X10981491Y-20417531D02*
X10991015Y-20436579D01*
X10991015Y-20436579D02*
X10991015Y-20455627D01*
X10991015Y-20455627D02*
X10981491Y-20484198D01*
X10981491Y-20484198D02*
X10867206Y-20598484D01*
X10867206Y-20598484D02*
X10991015Y-20598484D01*
X11229110Y-20598484D02*
X11229110Y-20398484D01*
X11314825Y-20598484D02*
X11314825Y-20493722D01*
X11314825Y-20493722D02*
X11305301Y-20474674D01*
X11305301Y-20474674D02*
X11286253Y-20465150D01*
X11286253Y-20465150D02*
X11257682Y-20465150D01*
X11257682Y-20465150D02*
X11238634Y-20474674D01*
X11238634Y-20474674D02*
X11229110Y-20484198D01*
X11438634Y-20598484D02*
X11419587Y-20588960D01*
X11419587Y-20588960D02*
X11410063Y-20579436D01*
X11410063Y-20579436D02*
X11400539Y-20560389D01*
X11400539Y-20560389D02*
X11400539Y-20503246D01*
X11400539Y-20503246D02*
X11410063Y-20484198D01*
X11410063Y-20484198D02*
X11419587Y-20474674D01*
X11419587Y-20474674D02*
X11438634Y-20465150D01*
X11438634Y-20465150D02*
X11467206Y-20465150D01*
X11467206Y-20465150D02*
X11486253Y-20474674D01*
X11486253Y-20474674D02*
X11495777Y-20484198D01*
X11495777Y-20484198D02*
X11505301Y-20503246D01*
X11505301Y-20503246D02*
X11505301Y-20560389D01*
X11505301Y-20560389D02*
X11495777Y-20579436D01*
X11495777Y-20579436D02*
X11486253Y-20588960D01*
X11486253Y-20588960D02*
X11467206Y-20598484D01*
X11467206Y-20598484D02*
X11438634Y-20598484D01*
X11619587Y-20598484D02*
X11600539Y-20588960D01*
X11600539Y-20588960D02*
X11591015Y-20569912D01*
X11591015Y-20569912D02*
X11591015Y-20398484D01*
X11771968Y-20588960D02*
X11752920Y-20598484D01*
X11752920Y-20598484D02*
X11714825Y-20598484D01*
X11714825Y-20598484D02*
X11695777Y-20588960D01*
X11695777Y-20588960D02*
X11686253Y-20569912D01*
X11686253Y-20569912D02*
X11686253Y-20493722D01*
X11686253Y-20493722D02*
X11695777Y-20474674D01*
X11695777Y-20474674D02*
X11714825Y-20465150D01*
X11714825Y-20465150D02*
X11752920Y-20465150D01*
X11752920Y-20465150D02*
X11771968Y-20474674D01*
X11771968Y-20474674D02*
X11781491Y-20493722D01*
X11781491Y-20493722D02*
X11781491Y-20512770D01*
X11781491Y-20512770D02*
X11686253Y-20531817D01*
X11857682Y-20588960D02*
X11876730Y-20598484D01*
X11876730Y-20598484D02*
X11914825Y-20598484D01*
X11914825Y-20598484D02*
X11933872Y-20588960D01*
X11933872Y-20588960D02*
X11943396Y-20569912D01*
X11943396Y-20569912D02*
X11943396Y-20560389D01*
X11943396Y-20560389D02*
X11933872Y-20541341D01*
X11933872Y-20541341D02*
X11914825Y-20531817D01*
X11914825Y-20531817D02*
X11886253Y-20531817D01*
X11886253Y-20531817D02*
X11867206Y-20522293D01*
X11867206Y-20522293D02*
X11857682Y-20503246D01*
X11857682Y-20503246D02*
X11857682Y-20493722D01*
X11857682Y-20493722D02*
X11867206Y-20474674D01*
X11867206Y-20474674D02*
X11886253Y-20465150D01*
X11886253Y-20465150D02*
X11914825Y-20465150D01*
X11914825Y-20465150D02*
X11933872Y-20474674D01*
X12010063Y-20674674D02*
X12019587Y-20665150D01*
X12019587Y-20665150D02*
X12038634Y-20636579D01*
X12038634Y-20636579D02*
X12048158Y-20617531D01*
X12048158Y-20617531D02*
X12057682Y-20588960D01*
X12057682Y-20588960D02*
X12067206Y-20541341D01*
X12067206Y-20541341D02*
X12067206Y-20503246D01*
X12067206Y-20503246D02*
X12057682Y-20455627D01*
X12057682Y-20455627D02*
X12048158Y-20427055D01*
X12048158Y-20427055D02*
X12038634Y-20408008D01*
X12038634Y-20408008D02*
X12019587Y-20379436D01*
X12019587Y-20379436D02*
X12010063Y-20369912D01*
M02*
