G04 #@! TF.GenerationSoftware,KiCad,Pcbnew,7.0.11*
G04 #@! TF.CreationDate,2024-08-26T15:04:01-04:00*
G04 #@! TF.ProjectId,cluster-pcb,636c7573-7465-4722-9d70-63622e6b6963,1.1*
G04 #@! TF.SameCoordinates,Original*
G04 #@! TF.FileFunction,Paste,Top*
G04 #@! TF.FilePolarity,Positive*
%FSLAX46Y46*%
G04 Gerber Fmt 4.6, Leading zero omitted, Abs format (unit mm)*
G04 Created by KiCad (PCBNEW 7.0.11) date 2024-08-26 15:04:01*
%MOMM*%
%LPD*%
G01*
G04 APERTURE LIST*
G04 Aperture macros list*
%AMRoundRect*
0 Rectangle with rounded corners*
0 $1 Rounding radius*
0 $2 $3 $4 $5 $6 $7 $8 $9 X,Y pos of 4 corners*
0 Add a 4 corners polygon primitive as box body*
4,1,4,$2,$3,$4,$5,$6,$7,$8,$9,$2,$3,0*
0 Add four circle primitives for the rounded corners*
1,1,$1+$1,$2,$3*
1,1,$1+$1,$4,$5*
1,1,$1+$1,$6,$7*
1,1,$1+$1,$8,$9*
0 Add four rect primitives between the rounded corners*
20,1,$1+$1,$2,$3,$4,$5,0*
20,1,$1+$1,$4,$5,$6,$7,0*
20,1,$1+$1,$6,$7,$8,$9,0*
20,1,$1+$1,$8,$9,$2,$3,0*%
G04 Aperture macros list end*
%ADD10R,2.600000X2.300000*%
%ADD11R,1.500000X0.600000*%
%ADD12RoundRect,0.135000X0.185000X-0.135000X0.185000X0.135000X-0.185000X0.135000X-0.185000X-0.135000X0*%
%ADD13RoundRect,0.250000X-1.100000X0.325000X-1.100000X-0.325000X1.100000X-0.325000X1.100000X0.325000X0*%
%ADD14RoundRect,0.140000X-0.140000X-0.170000X0.140000X-0.170000X0.140000X0.170000X-0.140000X0.170000X0*%
%ADD15R,0.711200X0.254000*%
%ADD16R,1.600200X2.387600*%
%ADD17RoundRect,0.135000X-0.135000X-0.185000X0.135000X-0.185000X0.135000X0.185000X-0.135000X0.185000X0*%
%ADD18RoundRect,0.150000X-0.150000X0.587500X-0.150000X-0.587500X0.150000X-0.587500X0.150000X0.587500X0*%
%ADD19RoundRect,0.140000X0.140000X0.170000X-0.140000X0.170000X-0.140000X-0.170000X0.140000X-0.170000X0*%
%ADD20RoundRect,0.140000X0.170000X-0.140000X0.170000X0.140000X-0.170000X0.140000X-0.170000X-0.140000X0*%
%ADD21RoundRect,0.250000X-0.262500X-0.450000X0.262500X-0.450000X0.262500X0.450000X-0.262500X0.450000X0*%
%ADD22RoundRect,0.250000X-0.350000X0.850000X-0.350000X-0.850000X0.350000X-0.850000X0.350000X0.850000X0*%
%ADD23RoundRect,0.250000X-1.125000X1.275000X-1.125000X-1.275000X1.125000X-1.275000X1.125000X1.275000X0*%
%ADD24RoundRect,0.250000X-0.250000X-0.475000X0.250000X-0.475000X0.250000X0.475000X-0.250000X0.475000X0*%
%ADD25R,1.680000X1.010000*%
%ADD26RoundRect,0.140000X-0.170000X0.140000X-0.170000X-0.140000X0.170000X-0.140000X0.170000X0.140000X0*%
%ADD27R,3.098800X5.207000*%
%ADD28R,0.990600X1.143000*%
%ADD29R,0.700000X0.500000*%
G04 APERTURE END LIST*
G36*
X78549500Y-42200001D02*
G01*
X78549500Y-43199999D01*
X78499500Y-43249999D01*
X78224500Y-43249999D01*
X78174500Y-43199999D01*
X78174500Y-42200001D01*
X78224500Y-42149999D01*
X78499500Y-42149999D01*
X78549500Y-42200001D01*
G37*
G36*
X77675001Y-42200001D02*
G01*
X77675001Y-43199999D01*
X77624999Y-43249999D01*
X77474999Y-43249999D01*
X77424999Y-43199999D01*
X77424999Y-42200001D01*
X77474999Y-42149999D01*
X77624999Y-42149999D01*
X77675001Y-42200001D01*
G37*
G36*
X76224999Y-42200499D02*
G01*
X76224999Y-42475500D01*
X76174999Y-42525500D01*
X76024999Y-42525500D01*
X75975000Y-42475500D01*
X75975000Y-42200499D01*
X76024999Y-42150499D01*
X76174999Y-42150499D01*
X76224999Y-42200499D01*
G37*
G36*
X75725000Y-42200499D02*
G01*
X75725000Y-42475500D01*
X75675000Y-42525500D01*
X75525000Y-42525500D01*
X75475001Y-42475500D01*
X75475001Y-42200499D01*
X75525000Y-42150499D01*
X75675000Y-42150499D01*
X75725000Y-42200499D01*
G37*
G36*
X75225001Y-42200499D02*
G01*
X75225001Y-42475500D01*
X75175001Y-42525500D01*
X75024999Y-42525500D01*
X74974999Y-42475500D01*
X74974999Y-42200499D01*
X75024999Y-42150499D01*
X75175001Y-42150499D01*
X75225001Y-42200499D01*
G37*
G36*
X74725000Y-42200499D02*
G01*
X74725000Y-42475500D01*
X74675000Y-42525500D01*
X74525000Y-42525500D01*
X74475000Y-42475500D01*
X74475000Y-42200499D01*
X74525000Y-42150499D01*
X74675000Y-42150499D01*
X74725000Y-42200499D01*
G37*
G36*
X76422499Y-42770000D02*
G01*
X76422499Y-43600001D01*
X76372499Y-43650001D01*
X75957499Y-43650001D01*
X75907499Y-43600001D01*
X75907499Y-42770000D01*
X75957499Y-42720000D01*
X76372499Y-42720000D01*
X76422499Y-42770000D01*
G37*
G36*
X75709999Y-42770000D02*
G01*
X75709999Y-43600001D01*
X75659999Y-43650001D01*
X75140000Y-43650001D01*
X75090000Y-43600001D01*
X75090000Y-42770000D01*
X75140000Y-42720000D01*
X75659999Y-42720000D01*
X75709999Y-42770000D01*
G37*
G36*
X74887501Y-42770000D02*
G01*
X74887501Y-43600001D01*
X74837501Y-43650001D01*
X74422501Y-43650001D01*
X74372501Y-43600001D01*
X74372501Y-42770000D01*
X74422501Y-42720000D01*
X74837501Y-42720000D01*
X74887501Y-42770000D01*
G37*
G36*
X77175000Y-42200001D02*
G01*
X77175000Y-43199999D01*
X77125000Y-43249999D01*
X76975000Y-43249999D01*
X76925000Y-43199999D01*
X76925000Y-42200001D01*
X76975000Y-42150001D01*
X77125000Y-42150001D01*
X77175000Y-42200001D01*
G37*
G36*
X78850000Y-43525000D02*
G01*
X78850000Y-43675000D01*
X78799998Y-43724999D01*
X78099999Y-43724999D01*
X78049999Y-43675000D01*
X78049999Y-43525000D01*
X78099999Y-43475000D01*
X78799998Y-43475000D01*
X78850000Y-43525000D01*
G37*
G36*
X78849500Y-44000000D02*
G01*
X78849500Y-44200000D01*
X78799500Y-44250000D01*
X77374499Y-44250000D01*
X77324499Y-44200000D01*
X77324499Y-44000000D01*
X77374499Y-43950000D01*
X78799500Y-43950000D01*
X78849500Y-44000000D01*
G37*
G36*
X75709999Y-44599999D02*
G01*
X75709999Y-45430000D01*
X75659999Y-45480000D01*
X75140000Y-45480000D01*
X75090000Y-45430000D01*
X75090000Y-44599999D01*
X75140000Y-44549999D01*
X75659999Y-44549999D01*
X75709999Y-44599999D01*
G37*
G36*
X78849998Y-44525000D02*
G01*
X78849998Y-44675000D01*
X78799998Y-44725000D01*
X78099999Y-44725000D01*
X78049999Y-44675000D01*
X78049999Y-44525000D01*
X78099999Y-44475001D01*
X78799998Y-44475001D01*
X78849998Y-44525000D01*
G37*
G36*
X77675001Y-45000001D02*
G01*
X77675001Y-45999999D01*
X77624999Y-46050001D01*
X77474999Y-46050001D01*
X77424999Y-45999999D01*
X77424999Y-45000001D01*
X77474999Y-44950001D01*
X77624999Y-44950001D01*
X77675001Y-45000001D01*
G37*
G36*
X77175000Y-45000001D02*
G01*
X77175000Y-45999999D01*
X77125000Y-46049999D01*
X76975000Y-46049999D01*
X76925000Y-45999999D01*
X76925000Y-45000001D01*
X76975000Y-44950001D01*
X77125000Y-44950001D01*
X77175000Y-45000001D01*
G37*
G36*
X76422499Y-44599999D02*
G01*
X76422499Y-45430000D01*
X76372499Y-45480000D01*
X75957499Y-45480000D01*
X75907499Y-45430000D01*
X75907499Y-44599999D01*
X75957499Y-44549999D01*
X76372499Y-44549999D01*
X76422499Y-44599999D01*
G37*
G36*
X74887501Y-44599999D02*
G01*
X74887501Y-45430000D01*
X74837501Y-45480000D01*
X74422501Y-45480000D01*
X74372501Y-45430000D01*
X74372501Y-44599999D01*
X74422501Y-44549999D01*
X74837501Y-44549999D01*
X74887501Y-44599999D01*
G37*
G36*
X76224999Y-45724500D02*
G01*
X76224999Y-45999501D01*
X76174999Y-46049501D01*
X76024999Y-46049501D01*
X75975000Y-45999501D01*
X75975000Y-45724500D01*
X76024999Y-45674500D01*
X76174999Y-45674500D01*
X76224999Y-45724500D01*
G37*
G36*
X75725000Y-45724500D02*
G01*
X75725000Y-45999501D01*
X75675000Y-46049501D01*
X75525000Y-46049501D01*
X75475001Y-45999501D01*
X75475001Y-45724500D01*
X75525000Y-45674500D01*
X75675000Y-45674500D01*
X75725000Y-45724500D01*
G37*
G36*
X75225001Y-45724500D02*
G01*
X75225001Y-45999501D01*
X75175001Y-46049501D01*
X75024999Y-46049501D01*
X74974999Y-45999501D01*
X74974999Y-45724500D01*
X75024999Y-45674500D01*
X75175001Y-45674500D01*
X75225001Y-45724500D01*
G37*
G36*
X74725000Y-45724500D02*
G01*
X74725000Y-45999501D01*
X74675000Y-46049501D01*
X74525000Y-46049501D01*
X74475000Y-45999501D01*
X74475000Y-45724500D01*
X74525000Y-45674500D01*
X74675000Y-45674500D01*
X74725000Y-45724500D01*
G37*
G36*
X78549500Y-45000001D02*
G01*
X78549500Y-45999999D01*
X78499500Y-46050001D01*
X78224500Y-46050001D01*
X78174500Y-45999999D01*
X78174500Y-45000001D01*
X78224500Y-44950001D01*
X78499500Y-44950001D01*
X78549500Y-45000001D01*
G37*
D10*
X130150000Y-134450000D03*
X130150000Y-148750000D03*
D11*
X127400000Y-146100000D03*
X127400000Y-145099999D03*
X127400000Y-144099999D03*
X127400000Y-143099998D03*
X127400000Y-142099998D03*
X127400000Y-141100000D03*
X127400000Y-140099999D03*
X127400000Y-139099999D03*
X127400000Y-138099998D03*
X127400000Y-137099998D03*
D12*
X125400000Y-58110000D03*
X125400000Y-57090000D03*
D13*
X80400000Y-37625000D03*
X80400000Y-40575000D03*
D12*
X125400000Y-138110000D03*
X125400000Y-137090000D03*
D14*
X120920000Y-74600000D03*
X121880000Y-74600000D03*
D12*
X125400000Y-158110000D03*
X125400000Y-157090000D03*
D15*
X120901400Y-36599999D03*
X120901400Y-37100001D03*
X120901400Y-37600000D03*
X120901400Y-38099999D03*
X120901400Y-38600001D03*
X123898600Y-38600001D03*
X123898600Y-38099999D03*
X123898600Y-37600000D03*
X123898600Y-37100001D03*
X123898600Y-36599999D03*
D16*
X122400000Y-37600000D03*
D17*
X78890000Y-65100000D03*
X79910000Y-65100000D03*
D18*
X80350000Y-67662500D03*
X78450000Y-67662500D03*
X79400000Y-69537500D03*
D10*
X130150000Y-34450000D03*
X130150000Y-48750000D03*
D11*
X127400000Y-46100000D03*
X127400000Y-45099999D03*
X127400000Y-44099999D03*
X127400000Y-43099998D03*
X127400000Y-42099998D03*
X127400000Y-41100000D03*
X127400000Y-40099999D03*
X127400000Y-39099999D03*
X127400000Y-38099998D03*
X127400000Y-37099998D03*
D14*
X120920000Y-54600000D03*
X121880000Y-54600000D03*
D19*
X123880000Y-154600000D03*
X122920000Y-154600000D03*
D14*
X120920000Y-114600000D03*
X121880000Y-114600000D03*
X120920000Y-94600000D03*
X121880000Y-94600000D03*
D15*
X120901400Y-96599999D03*
X120901400Y-97100001D03*
X120901400Y-97600000D03*
X120901400Y-98099999D03*
X120901400Y-98600001D03*
X123898600Y-98600001D03*
X123898600Y-98099999D03*
X123898600Y-97600000D03*
X123898600Y-97100001D03*
X123898600Y-96599999D03*
D16*
X122400000Y-97600000D03*
D14*
X120920000Y-154600000D03*
X121880000Y-154600000D03*
D15*
X120901400Y-116599999D03*
X120901400Y-117100001D03*
X120901400Y-117600000D03*
X120901400Y-118099999D03*
X120901400Y-118600001D03*
X123898600Y-118600001D03*
X123898600Y-118099999D03*
X123898600Y-117600000D03*
X123898600Y-117100001D03*
X123898600Y-116599999D03*
D16*
X122400000Y-117600000D03*
D12*
X125400000Y-118110000D03*
X125400000Y-117090000D03*
X125400000Y-38110000D03*
X125400000Y-37090000D03*
D15*
X120901400Y-136599999D03*
X120901400Y-137100001D03*
X120901400Y-137600000D03*
X120901400Y-138099999D03*
X120901400Y-138600001D03*
X123898600Y-138600001D03*
X123898600Y-138099999D03*
X123898600Y-137600000D03*
X123898600Y-137100001D03*
X123898600Y-136599999D03*
D16*
X122400000Y-137600000D03*
D10*
X130150000Y-54450000D03*
X130150000Y-68750000D03*
D11*
X127400000Y-66100000D03*
X127400000Y-65099999D03*
X127400000Y-64099999D03*
X127400000Y-63099998D03*
X127400000Y-62099998D03*
X127400000Y-61100000D03*
X127400000Y-60099999D03*
X127400000Y-59099999D03*
X127400000Y-58099998D03*
X127400000Y-57099998D03*
D10*
X130150000Y-114450000D03*
X130150000Y-128750000D03*
D11*
X127400000Y-126100000D03*
X127400000Y-125099999D03*
X127400000Y-124099999D03*
X127400000Y-123099998D03*
X127400000Y-122099998D03*
X127400000Y-121100000D03*
X127400000Y-120099999D03*
X127400000Y-119099999D03*
X127400000Y-118099998D03*
X127400000Y-117099998D03*
D19*
X123880000Y-114600000D03*
X122920000Y-114600000D03*
D20*
X79900000Y-46080000D03*
X79900000Y-45120000D03*
D19*
X123880000Y-54600000D03*
X122920000Y-54600000D03*
D21*
X120237500Y-23350000D03*
X122062500Y-23350000D03*
D22*
X111680000Y-36560000D03*
D23*
X110925000Y-41185000D03*
X107875000Y-41185000D03*
X110925000Y-44535000D03*
X107875000Y-44535000D03*
D22*
X107120000Y-36560000D03*
D24*
X75450000Y-49100000D03*
X77350000Y-49100000D03*
D15*
X120901400Y-156599999D03*
X120901400Y-157100001D03*
X120901400Y-157600000D03*
X120901400Y-158099999D03*
X120901400Y-158600001D03*
X123898600Y-158600001D03*
X123898600Y-158099999D03*
X123898600Y-157600000D03*
X123898600Y-157100001D03*
X123898600Y-156599999D03*
D16*
X122400000Y-157600000D03*
D25*
X78470000Y-93100000D03*
X75330000Y-93100000D03*
D14*
X120920000Y-34600000D03*
X121880000Y-34600000D03*
D19*
X123880000Y-134600000D03*
X122920000Y-134600000D03*
D10*
X130150000Y-154450000D03*
X130150000Y-168750000D03*
D11*
X127400000Y-166100000D03*
X127400000Y-165099999D03*
X127400000Y-164099999D03*
X127400000Y-163099998D03*
X127400000Y-162099998D03*
X127400000Y-161100000D03*
X127400000Y-160099999D03*
X127400000Y-159099999D03*
X127400000Y-158099998D03*
X127400000Y-157099998D03*
D15*
X120901400Y-76599999D03*
X120901400Y-77100001D03*
X120901400Y-77600000D03*
X120901400Y-78099999D03*
X120901400Y-78600001D03*
X123898600Y-78600001D03*
X123898600Y-78099999D03*
X123898600Y-77600000D03*
X123898600Y-77100001D03*
X123898600Y-76599999D03*
D16*
X122400000Y-77600000D03*
D26*
X77900000Y-38620000D03*
X77900000Y-39580000D03*
D15*
X120901400Y-56599999D03*
X120901400Y-57100001D03*
X120901400Y-57600000D03*
X120901400Y-58099999D03*
X120901400Y-58600001D03*
X123898600Y-58600001D03*
X123898600Y-58099999D03*
X123898600Y-57600000D03*
X123898600Y-57100001D03*
X123898600Y-56599999D03*
D16*
X122400000Y-57600000D03*
D12*
X125400000Y-78110000D03*
X125400000Y-77090000D03*
D19*
X123880000Y-94600000D03*
X122920000Y-94600000D03*
D17*
X108890000Y-34600000D03*
X109910000Y-34600000D03*
D27*
X121400000Y-27545900D03*
D28*
X120479999Y-31533700D03*
X122320001Y-31533700D03*
D12*
X125400000Y-98110000D03*
X125400000Y-97090000D03*
D10*
X130150000Y-94450000D03*
X130150000Y-108750000D03*
D11*
X127400000Y-106100000D03*
X127400000Y-105099999D03*
X127400000Y-104099999D03*
X127400000Y-103099998D03*
X127400000Y-102099998D03*
X127400000Y-101100000D03*
X127400000Y-100099999D03*
X127400000Y-99099999D03*
X127400000Y-98099998D03*
X127400000Y-97099998D03*
D19*
X123880000Y-34600000D03*
X122920000Y-34600000D03*
X123880000Y-74600000D03*
X122920000Y-74600000D03*
D29*
X124350000Y-23350000D03*
X123450000Y-23350000D03*
D10*
X130150000Y-74450000D03*
X130150000Y-88750000D03*
D11*
X127400000Y-86100000D03*
X127400000Y-85099999D03*
X127400000Y-84099999D03*
X127400000Y-83099998D03*
X127400000Y-82099998D03*
X127400000Y-81100000D03*
X127400000Y-80099999D03*
X127400000Y-79099999D03*
X127400000Y-78099998D03*
X127400000Y-77099998D03*
D14*
X120920000Y-134600000D03*
X121880000Y-134600000D03*
X75920000Y-47100000D03*
X76880000Y-47100000D03*
M02*
