G04 #@! TF.GenerationSoftware,KiCad,Pcbnew,7.0.11*
G04 #@! TF.CreationDate,2024-10-21T14:29:13-04:00*
G04 #@! TF.ProjectId,cluster-pcb,636c7573-7465-4722-9d70-63622e6b6963,1.3*
G04 #@! TF.SameCoordinates,Original*
G04 #@! TF.FileFunction,Paste,Top*
G04 #@! TF.FilePolarity,Positive*
%FSLAX46Y46*%
G04 Gerber Fmt 4.6, Leading zero omitted, Abs format (unit mm)*
G04 Created by KiCad (PCBNEW 7.0.11) date 2024-10-21 14:29:13*
%MOMM*%
%LPD*%
G01*
G04 APERTURE LIST*
G04 Aperture macros list*
%AMRoundRect*
0 Rectangle with rounded corners*
0 $1 Rounding radius*
0 $2 $3 $4 $5 $6 $7 $8 $9 X,Y pos of 4 corners*
0 Add a 4 corners polygon primitive as box body*
4,1,4,$2,$3,$4,$5,$6,$7,$8,$9,$2,$3,0*
0 Add four circle primitives for the rounded corners*
1,1,$1+$1,$2,$3*
1,1,$1+$1,$4,$5*
1,1,$1+$1,$6,$7*
1,1,$1+$1,$8,$9*
0 Add four rect primitives between the rounded corners*
20,1,$1+$1,$2,$3,$4,$5,0*
20,1,$1+$1,$4,$5,$6,$7,0*
20,1,$1+$1,$6,$7,$8,$9,0*
20,1,$1+$1,$8,$9,$2,$3,0*%
G04 Aperture macros list end*
%ADD10C,0.010000*%
%ADD11RoundRect,0.056250X0.168750X-0.643750X0.168750X0.643750X-0.168750X0.643750X-0.168750X-0.643750X0*%
%ADD12RoundRect,0.135000X-0.135000X-0.185000X0.135000X-0.185000X0.135000X0.185000X-0.135000X0.185000X0*%
%ADD13RoundRect,0.135000X0.185000X-0.135000X0.185000X0.135000X-0.185000X0.135000X-0.185000X-0.135000X0*%
%ADD14R,1.700000X1.700000*%
%ADD15O,2.000000X1.100000*%
%ADD16RoundRect,0.150000X0.425000X-0.150000X0.425000X0.150000X-0.425000X0.150000X-0.425000X-0.150000X0*%
%ADD17RoundRect,0.075000X0.500000X-0.075000X0.500000X0.075000X-0.500000X0.075000X-0.500000X-0.075000X0*%
%ADD18R,1.200000X1.200000*%
%ADD19RoundRect,0.250000X-1.100000X0.325000X-1.100000X-0.325000X1.100000X-0.325000X1.100000X0.325000X0*%
%ADD20RoundRect,0.140000X-0.140000X-0.170000X0.140000X-0.170000X0.140000X0.170000X-0.140000X0.170000X0*%
%ADD21R,2.150000X1.500000*%
%ADD22R,2.000000X0.600000*%
%ADD23R,0.711200X0.254000*%
%ADD24R,1.600200X2.387600*%
%ADD25RoundRect,0.140000X0.140000X0.170000X-0.140000X0.170000X-0.140000X-0.170000X0.140000X-0.170000X0*%
%ADD26RoundRect,0.135000X0.135000X0.185000X-0.135000X0.185000X-0.135000X-0.185000X0.135000X-0.185000X0*%
%ADD27RoundRect,0.200000X-0.275000X0.200000X-0.275000X-0.200000X0.275000X-0.200000X0.275000X0.200000X0*%
%ADD28RoundRect,0.140000X0.170000X-0.140000X0.170000X0.140000X-0.170000X0.140000X-0.170000X-0.140000X0*%
%ADD29R,2.000000X3.200000*%
%ADD30RoundRect,0.140000X-0.170000X0.140000X-0.170000X-0.140000X0.170000X-0.140000X0.170000X0.140000X0*%
%ADD31RoundRect,0.032500X-0.097500X0.397500X-0.097500X-0.397500X0.097500X-0.397500X0.097500X0.397500X0*%
%ADD32RoundRect,0.032500X-0.397500X0.097500X-0.397500X-0.097500X0.397500X-0.097500X0.397500X0.097500X0*%
%ADD33RoundRect,0.250000X-0.250000X-0.475000X0.250000X-0.475000X0.250000X0.475000X-0.250000X0.475000X0*%
%ADD34RoundRect,0.250000X-0.262500X-0.450000X0.262500X-0.450000X0.262500X0.450000X-0.262500X0.450000X0*%
%ADD35R,5.207000X3.098800*%
%ADD36R,1.143000X0.990600*%
%ADD37R,0.700000X0.500000*%
%ADD38R,0.310000X0.600000*%
%ADD39R,0.825000X0.230000*%
G04 APERTURE END LIST*
D10*
X115840000Y-120456000D02*
X114960000Y-120456000D01*
X114960000Y-119744000D01*
X115840000Y-119744000D01*
X115840000Y-120456000D01*
G36*
X115840000Y-120456000D02*
G01*
X114960000Y-120456000D01*
X114960000Y-119744000D01*
X115840000Y-119744000D01*
X115840000Y-120456000D01*
G37*
X115840000Y-60456000D02*
X114960000Y-60456000D01*
X114960000Y-59744000D01*
X115840000Y-59744000D01*
X115840000Y-60456000D01*
G36*
X115840000Y-60456000D02*
G01*
X114960000Y-60456000D01*
X114960000Y-59744000D01*
X115840000Y-59744000D01*
X115840000Y-60456000D01*
G37*
X115840000Y-140456000D02*
X114960000Y-140456000D01*
X114960000Y-139744000D01*
X115840000Y-139744000D01*
X115840000Y-140456000D01*
G36*
X115840000Y-140456000D02*
G01*
X114960000Y-140456000D01*
X114960000Y-139744000D01*
X115840000Y-139744000D01*
X115840000Y-140456000D01*
G37*
X76930000Y-152130000D02*
X75870000Y-152130000D01*
X75870000Y-151070000D01*
X76930000Y-151070000D01*
X76930000Y-152130000D01*
G36*
X76930000Y-152130000D02*
G01*
X75870000Y-152130000D01*
X75870000Y-151070000D01*
X76930000Y-151070000D01*
X76930000Y-152130000D01*
G37*
X115840000Y-160456000D02*
X114960000Y-160456000D01*
X114960000Y-159744000D01*
X115840000Y-159744000D01*
X115840000Y-160456000D01*
G36*
X115840000Y-160456000D02*
G01*
X114960000Y-160456000D01*
X114960000Y-159744000D01*
X115840000Y-159744000D01*
X115840000Y-160456000D01*
G37*
X115840000Y-100456000D02*
X114960000Y-100456000D01*
X114960000Y-99744000D01*
X115840000Y-99744000D01*
X115840000Y-100456000D01*
G36*
X115840000Y-100456000D02*
G01*
X114960000Y-100456000D01*
X114960000Y-99744000D01*
X115840000Y-99744000D01*
X115840000Y-100456000D01*
G37*
X115840000Y-40456000D02*
X114960000Y-40456000D01*
X114960000Y-39744000D01*
X115840000Y-39744000D01*
X115840000Y-40456000D01*
G36*
X115840000Y-40456000D02*
G01*
X114960000Y-40456000D01*
X114960000Y-39744000D01*
X115840000Y-39744000D01*
X115840000Y-40456000D01*
G37*
G36*
X78549500Y-42200001D02*
G01*
X78549500Y-43199999D01*
X78499500Y-43249999D01*
X78224500Y-43249999D01*
X78174500Y-43199999D01*
X78174500Y-42200001D01*
X78224500Y-42149999D01*
X78499500Y-42149999D01*
X78549500Y-42200001D01*
G37*
G36*
X77675001Y-42200001D02*
G01*
X77675001Y-43199999D01*
X77624999Y-43249999D01*
X77474999Y-43249999D01*
X77424999Y-43199999D01*
X77424999Y-42200001D01*
X77474999Y-42149999D01*
X77624999Y-42149999D01*
X77675001Y-42200001D01*
G37*
G36*
X76224999Y-42200499D02*
G01*
X76224999Y-42475500D01*
X76174999Y-42525500D01*
X76024999Y-42525500D01*
X75975000Y-42475500D01*
X75975000Y-42200499D01*
X76024999Y-42150499D01*
X76174999Y-42150499D01*
X76224999Y-42200499D01*
G37*
G36*
X75725000Y-42200499D02*
G01*
X75725000Y-42475500D01*
X75675000Y-42525500D01*
X75525000Y-42525500D01*
X75475001Y-42475500D01*
X75475001Y-42200499D01*
X75525000Y-42150499D01*
X75675000Y-42150499D01*
X75725000Y-42200499D01*
G37*
G36*
X75225001Y-42200499D02*
G01*
X75225001Y-42475500D01*
X75175001Y-42525500D01*
X75024999Y-42525500D01*
X74974999Y-42475500D01*
X74974999Y-42200499D01*
X75024999Y-42150499D01*
X75175001Y-42150499D01*
X75225001Y-42200499D01*
G37*
G36*
X74725000Y-42200499D02*
G01*
X74725000Y-42475500D01*
X74675000Y-42525500D01*
X74525000Y-42525500D01*
X74475000Y-42475500D01*
X74475000Y-42200499D01*
X74525000Y-42150499D01*
X74675000Y-42150499D01*
X74725000Y-42200499D01*
G37*
G36*
X76422499Y-42770000D02*
G01*
X76422499Y-43600001D01*
X76372499Y-43650001D01*
X75957499Y-43650001D01*
X75907499Y-43600001D01*
X75907499Y-42770000D01*
X75957499Y-42720000D01*
X76372499Y-42720000D01*
X76422499Y-42770000D01*
G37*
G36*
X75709999Y-42770000D02*
G01*
X75709999Y-43600001D01*
X75659999Y-43650001D01*
X75140000Y-43650001D01*
X75090000Y-43600001D01*
X75090000Y-42770000D01*
X75140000Y-42720000D01*
X75659999Y-42720000D01*
X75709999Y-42770000D01*
G37*
G36*
X74887501Y-42770000D02*
G01*
X74887501Y-43600001D01*
X74837501Y-43650001D01*
X74422501Y-43650001D01*
X74372501Y-43600001D01*
X74372501Y-42770000D01*
X74422501Y-42720000D01*
X74837501Y-42720000D01*
X74887501Y-42770000D01*
G37*
G36*
X77175000Y-42200001D02*
G01*
X77175000Y-43199999D01*
X77125000Y-43249999D01*
X76975000Y-43249999D01*
X76925000Y-43199999D01*
X76925000Y-42200001D01*
X76975000Y-42150001D01*
X77125000Y-42150001D01*
X77175000Y-42200001D01*
G37*
G36*
X78850000Y-43525000D02*
G01*
X78850000Y-43675000D01*
X78799998Y-43724999D01*
X78099999Y-43724999D01*
X78049999Y-43675000D01*
X78049999Y-43525000D01*
X78099999Y-43475000D01*
X78799998Y-43475000D01*
X78850000Y-43525000D01*
G37*
G36*
X78849500Y-44000000D02*
G01*
X78849500Y-44200000D01*
X78799500Y-44250000D01*
X77374499Y-44250000D01*
X77324499Y-44200000D01*
X77324499Y-44000000D01*
X77374499Y-43950000D01*
X78799500Y-43950000D01*
X78849500Y-44000000D01*
G37*
G36*
X75709999Y-44599999D02*
G01*
X75709999Y-45430000D01*
X75659999Y-45480000D01*
X75140000Y-45480000D01*
X75090000Y-45430000D01*
X75090000Y-44599999D01*
X75140000Y-44549999D01*
X75659999Y-44549999D01*
X75709999Y-44599999D01*
G37*
G36*
X78849998Y-44525000D02*
G01*
X78849998Y-44675000D01*
X78799998Y-44725000D01*
X78099999Y-44725000D01*
X78049999Y-44675000D01*
X78049999Y-44525000D01*
X78099999Y-44475001D01*
X78799998Y-44475001D01*
X78849998Y-44525000D01*
G37*
G36*
X77675001Y-45000001D02*
G01*
X77675001Y-45999999D01*
X77624999Y-46050001D01*
X77474999Y-46050001D01*
X77424999Y-45999999D01*
X77424999Y-45000001D01*
X77474999Y-44950001D01*
X77624999Y-44950001D01*
X77675001Y-45000001D01*
G37*
G36*
X77175000Y-45000001D02*
G01*
X77175000Y-45999999D01*
X77125000Y-46049999D01*
X76975000Y-46049999D01*
X76925000Y-45999999D01*
X76925000Y-45000001D01*
X76975000Y-44950001D01*
X77125000Y-44950001D01*
X77175000Y-45000001D01*
G37*
G36*
X76422499Y-44599999D02*
G01*
X76422499Y-45430000D01*
X76372499Y-45480000D01*
X75957499Y-45480000D01*
X75907499Y-45430000D01*
X75907499Y-44599999D01*
X75957499Y-44549999D01*
X76372499Y-44549999D01*
X76422499Y-44599999D01*
G37*
G36*
X74887501Y-44599999D02*
G01*
X74887501Y-45430000D01*
X74837501Y-45480000D01*
X74422501Y-45480000D01*
X74372501Y-45430000D01*
X74372501Y-44599999D01*
X74422501Y-44549999D01*
X74837501Y-44549999D01*
X74887501Y-44599999D01*
G37*
G36*
X76224999Y-45724500D02*
G01*
X76224999Y-45999501D01*
X76174999Y-46049501D01*
X76024999Y-46049501D01*
X75975000Y-45999501D01*
X75975000Y-45724500D01*
X76024999Y-45674500D01*
X76174999Y-45674500D01*
X76224999Y-45724500D01*
G37*
G36*
X75725000Y-45724500D02*
G01*
X75725000Y-45999501D01*
X75675000Y-46049501D01*
X75525000Y-46049501D01*
X75475001Y-45999501D01*
X75475001Y-45724500D01*
X75525000Y-45674500D01*
X75675000Y-45674500D01*
X75725000Y-45724500D01*
G37*
G36*
X75225001Y-45724500D02*
G01*
X75225001Y-45999501D01*
X75175001Y-46049501D01*
X75024999Y-46049501D01*
X74974999Y-45999501D01*
X74974999Y-45724500D01*
X75024999Y-45674500D01*
X75175001Y-45674500D01*
X75225001Y-45724500D01*
G37*
G36*
X74725000Y-45724500D02*
G01*
X74725000Y-45999501D01*
X74675000Y-46049501D01*
X74525000Y-46049501D01*
X74475000Y-45999501D01*
X74475000Y-45724500D01*
X74525000Y-45674500D01*
X74675000Y-45674500D01*
X74725000Y-45724500D01*
G37*
G36*
X78549500Y-45000001D02*
G01*
X78549500Y-45999999D01*
X78499500Y-46050001D01*
X78224500Y-46050001D01*
X78174500Y-45999999D01*
X78174500Y-45000001D01*
X78224500Y-44950001D01*
X78499500Y-44950001D01*
X78549500Y-45000001D01*
G37*
X115840000Y-80456000D02*
X114960000Y-80456000D01*
X114960000Y-79744000D01*
X115840000Y-79744000D01*
X115840000Y-80456000D01*
G36*
X115840000Y-80456000D02*
G01*
X114960000Y-80456000D01*
X114960000Y-79744000D01*
X115840000Y-79744000D01*
X115840000Y-80456000D01*
G37*
G36*
X81700070Y-111000000D02*
G01*
X81535121Y-111000000D01*
X81393700Y-110858579D01*
X81393700Y-110424930D01*
X81700070Y-110424930D01*
X81700070Y-111000000D01*
G37*
G36*
X80406300Y-110858579D02*
G01*
X80264879Y-111000000D01*
X80099930Y-111000000D01*
X80099930Y-110424930D01*
X80406300Y-110424930D01*
X80406300Y-110858579D01*
G37*
G36*
X81700070Y-111775070D02*
G01*
X81393700Y-111775070D01*
X81393700Y-111341421D01*
X81535121Y-111200000D01*
X81700070Y-111200000D01*
X81700070Y-111775070D01*
G37*
G36*
X80406300Y-111341421D02*
G01*
X80406300Y-111775070D01*
X80099930Y-111775070D01*
X80099930Y-111200000D01*
X80264879Y-111200000D01*
X80406300Y-111341421D01*
G37*
G36*
X81193700Y-110858579D02*
G01*
X81052279Y-111000000D01*
X80747721Y-111000000D01*
X80606300Y-110858579D01*
X80606300Y-110424930D01*
X81193700Y-110424930D01*
X81193700Y-110858579D01*
G37*
G36*
X81193700Y-111341421D02*
G01*
X81193700Y-111775070D01*
X80606300Y-111775070D01*
X80606300Y-111341421D01*
X80747721Y-111200000D01*
X81052279Y-111200000D01*
X81193700Y-111341421D01*
G37*
D11*
X114425000Y-122300000D03*
X115075000Y-122300000D03*
X115725000Y-122300000D03*
X116375000Y-122300000D03*
X116375000Y-117900000D03*
X115725000Y-117900000D03*
X115075000Y-117900000D03*
X114425000Y-117900000D03*
D12*
X79890000Y-72600000D03*
X80910000Y-72600000D03*
D13*
X121900000Y-67610000D03*
X121900000Y-66590000D03*
D14*
X129350000Y-146620000D03*
D15*
X125400000Y-137280000D03*
D14*
X129350000Y-136580000D03*
D16*
X124825000Y-144800000D03*
X124825000Y-144000000D03*
D17*
X124825000Y-142850000D03*
X124825000Y-141850000D03*
X124825000Y-141350000D03*
X124825000Y-140350000D03*
D16*
X124825000Y-139200000D03*
X124825000Y-138400000D03*
X124825000Y-138400000D03*
X124825000Y-139200000D03*
D17*
X124825000Y-139850000D03*
X124825000Y-140850000D03*
X124825000Y-142350000D03*
X124825000Y-143350000D03*
D16*
X124825000Y-144000000D03*
X124825000Y-144800000D03*
D15*
X125400000Y-145920000D03*
D18*
X122000000Y-156600000D03*
X118800000Y-156600000D03*
D13*
X113400000Y-65110000D03*
X113400000Y-64090000D03*
D19*
X80400000Y-37625000D03*
X80400000Y-40575000D03*
D13*
X113400000Y-145110000D03*
X113400000Y-144090000D03*
D20*
X116920000Y-84610000D03*
X117880000Y-84610000D03*
D21*
X88275000Y-142710000D03*
X88275000Y-145250000D03*
X88275000Y-147790000D03*
X88275000Y-150330000D03*
X88275000Y-152870000D03*
X88275000Y-155410000D03*
X88275000Y-157950000D03*
X88275000Y-160490000D03*
X96525000Y-160490000D03*
X96525000Y-157950000D03*
X96525000Y-155410000D03*
X96525000Y-152870000D03*
X96525000Y-150330000D03*
X96525000Y-147790000D03*
X96525000Y-145250000D03*
X96525000Y-142710000D03*
D22*
X100100000Y-129855000D03*
X100100000Y-128585000D03*
X100100000Y-127315000D03*
X100100000Y-126045000D03*
X100100000Y-124775000D03*
X100100000Y-123505000D03*
X100100000Y-122235000D03*
X100100000Y-120965000D03*
X100100000Y-119695000D03*
X100100000Y-118425000D03*
X100100000Y-117155000D03*
X100100000Y-115885000D03*
X100100000Y-114615000D03*
X100100000Y-113345000D03*
X90700000Y-113345000D03*
X90700000Y-114615000D03*
X90700000Y-115885000D03*
X90700000Y-117155000D03*
X90700000Y-118425000D03*
X90700000Y-119695000D03*
X90700000Y-120965000D03*
X90700000Y-122235000D03*
X90700000Y-123505000D03*
X90700000Y-124775000D03*
X90700000Y-126045000D03*
X90700000Y-127315000D03*
X90700000Y-128585000D03*
X90700000Y-129855000D03*
D13*
X121900000Y-167610000D03*
X121900000Y-166590000D03*
X113400000Y-165110000D03*
X113400000Y-164090000D03*
D23*
X116901400Y-46099999D03*
X116901400Y-46600001D03*
X116901400Y-47100000D03*
X116901400Y-47599999D03*
X116901400Y-48100001D03*
X119898600Y-48100001D03*
X119898600Y-47599999D03*
X119898600Y-47100000D03*
X119898600Y-46600001D03*
X119898600Y-46099999D03*
D24*
X118400000Y-47100000D03*
D25*
X83880000Y-107100000D03*
X82920000Y-107100000D03*
D14*
X129350000Y-46620000D03*
D15*
X125400000Y-37280000D03*
D14*
X129350000Y-36580000D03*
D16*
X124825000Y-44800000D03*
X124825000Y-44000000D03*
D17*
X124825000Y-42850000D03*
X124825000Y-41850000D03*
X124825000Y-41350000D03*
X124825000Y-40350000D03*
D16*
X124825000Y-39200000D03*
X124825000Y-38400000D03*
X124825000Y-38400000D03*
X124825000Y-39200000D03*
D17*
X124825000Y-39850000D03*
X124825000Y-40850000D03*
X124825000Y-42350000D03*
X124825000Y-43350000D03*
D16*
X124825000Y-44000000D03*
X124825000Y-44800000D03*
D15*
X125400000Y-45920000D03*
D26*
X85925000Y-152870000D03*
X84905000Y-152870000D03*
X85925000Y-157950000D03*
X84905000Y-157950000D03*
D27*
X80400000Y-106275000D03*
X80400000Y-107925000D03*
D13*
X121900000Y-47610000D03*
X121900000Y-46590000D03*
D12*
X79890000Y-75100000D03*
X80910000Y-75100000D03*
D20*
X116920000Y-64600000D03*
X117880000Y-64600000D03*
D25*
X119880000Y-164610000D03*
X118920000Y-164610000D03*
D20*
X116920000Y-124610000D03*
X117880000Y-124610000D03*
X116920000Y-104610000D03*
X117880000Y-104610000D03*
D25*
X95880000Y-132100000D03*
X94920000Y-132100000D03*
D28*
X80400000Y-151080000D03*
X80400000Y-150120000D03*
D23*
X116901400Y-106099999D03*
X116901400Y-106600001D03*
X116901400Y-107100000D03*
X116901400Y-107599999D03*
X116901400Y-108100001D03*
X119898600Y-108100001D03*
X119898600Y-107599999D03*
X119898600Y-107100000D03*
X119898600Y-106600001D03*
X119898600Y-106099999D03*
D24*
X118400000Y-107100000D03*
D26*
X85925000Y-145250000D03*
X84905000Y-145250000D03*
D20*
X80420000Y-114100000D03*
X81380000Y-114100000D03*
D13*
X121900000Y-107610000D03*
X121900000Y-106590000D03*
D18*
X122000000Y-56600000D03*
X118800000Y-56600000D03*
D20*
X94920000Y-111100000D03*
X95880000Y-111100000D03*
X116920000Y-164610000D03*
X117880000Y-164610000D03*
D23*
X116901400Y-126099999D03*
X116901400Y-126600001D03*
X116901400Y-127100000D03*
X116901400Y-127599999D03*
X116901400Y-128100001D03*
X119898600Y-128100001D03*
X119898600Y-127599999D03*
X119898600Y-127100000D03*
X119898600Y-126600001D03*
X119898600Y-126099999D03*
D24*
X118400000Y-127100000D03*
D13*
X121900000Y-87610000D03*
X121900000Y-86590000D03*
X113400000Y-125110000D03*
X113400000Y-124090000D03*
D29*
X75200000Y-125950000D03*
X86600000Y-125950000D03*
X86600000Y-117250000D03*
X75200000Y-117250000D03*
D11*
X114425000Y-62300000D03*
X115075000Y-62300000D03*
X115725000Y-62300000D03*
X116375000Y-62300000D03*
X116375000Y-57900000D03*
X115725000Y-57900000D03*
X115075000Y-57900000D03*
X114425000Y-57900000D03*
D13*
X113400000Y-45110000D03*
X113400000Y-44090000D03*
D23*
X116901400Y-146099999D03*
X116901400Y-146600001D03*
X116901400Y-147100000D03*
X116901400Y-147599999D03*
X116901400Y-148100001D03*
X119898600Y-148100001D03*
X119898600Y-147599999D03*
X119898600Y-147100000D03*
X119898600Y-146600001D03*
X119898600Y-146099999D03*
D24*
X118400000Y-147100000D03*
D14*
X129350000Y-66620000D03*
D15*
X125400000Y-57280000D03*
D14*
X129350000Y-56580000D03*
D16*
X124825000Y-64800000D03*
X124825000Y-64000000D03*
D17*
X124825000Y-62850000D03*
X124825000Y-61850000D03*
X124825000Y-61350000D03*
X124825000Y-60350000D03*
D16*
X124825000Y-59200000D03*
X124825000Y-58400000D03*
X124825000Y-58400000D03*
X124825000Y-59200000D03*
D17*
X124825000Y-59850000D03*
X124825000Y-60850000D03*
X124825000Y-62350000D03*
X124825000Y-63350000D03*
D16*
X124825000Y-64000000D03*
X124825000Y-64800000D03*
D15*
X125400000Y-65920000D03*
D14*
X129350000Y-126620000D03*
D15*
X125400000Y-117280000D03*
D14*
X129350000Y-116580000D03*
D16*
X124825000Y-124800000D03*
X124825000Y-124000000D03*
D17*
X124825000Y-122850000D03*
X124825000Y-121850000D03*
X124825000Y-121350000D03*
X124825000Y-120350000D03*
D16*
X124825000Y-119200000D03*
X124825000Y-118400000D03*
X124825000Y-118400000D03*
X124825000Y-119200000D03*
D17*
X124825000Y-119850000D03*
X124825000Y-120850000D03*
X124825000Y-122350000D03*
X124825000Y-123350000D03*
D16*
X124825000Y-124000000D03*
X124825000Y-124800000D03*
D15*
X125400000Y-125920000D03*
D30*
X80400000Y-104120000D03*
X80400000Y-105080000D03*
D25*
X119880000Y-124610000D03*
X118920000Y-124610000D03*
D28*
X79900000Y-46080000D03*
X79900000Y-45120000D03*
D11*
X114425000Y-142300000D03*
X115075000Y-142300000D03*
X115725000Y-142300000D03*
X116375000Y-142300000D03*
X116375000Y-137900000D03*
X115725000Y-137900000D03*
X115075000Y-137900000D03*
X114425000Y-137900000D03*
D25*
X119880000Y-64600000D03*
X118920000Y-64600000D03*
D26*
X85925000Y-155410000D03*
X84905000Y-155410000D03*
D13*
X99400000Y-99110000D03*
X99400000Y-98090000D03*
D31*
X77150000Y-150165000D03*
X76650000Y-150165000D03*
X76150000Y-150165000D03*
X75650000Y-150165000D03*
D32*
X74965000Y-150850000D03*
X74965000Y-151350000D03*
X74965000Y-151850000D03*
X74965000Y-152350000D03*
D31*
X75650000Y-153035000D03*
X76150000Y-153035000D03*
X76650000Y-153035000D03*
X77150000Y-153035000D03*
D32*
X77835000Y-152350000D03*
X77835000Y-151850000D03*
X77835000Y-151350000D03*
X77835000Y-150850000D03*
D27*
X78400000Y-106275000D03*
X78400000Y-107925000D03*
D13*
X97400000Y-99110000D03*
X97400000Y-98090000D03*
D33*
X75450000Y-49100000D03*
X77350000Y-49100000D03*
D23*
X116901400Y-166099999D03*
X116901400Y-166600001D03*
X116901400Y-167100000D03*
X116901400Y-167599999D03*
X116901400Y-168100001D03*
X119898600Y-168100001D03*
X119898600Y-167599999D03*
X119898600Y-167100000D03*
X119898600Y-166600001D03*
X119898600Y-166099999D03*
D24*
X118400000Y-167100000D03*
D18*
X122000000Y-116600000D03*
X118800000Y-116600000D03*
X78500000Y-93100000D03*
X75300000Y-93100000D03*
D20*
X116920000Y-44600000D03*
X117880000Y-44600000D03*
D25*
X119880000Y-144610000D03*
X118920000Y-144610000D03*
D26*
X85925000Y-150330000D03*
X84905000Y-150330000D03*
D14*
X129350000Y-166620000D03*
D15*
X125400000Y-157280000D03*
D14*
X129350000Y-156580000D03*
D16*
X124825000Y-164800000D03*
X124825000Y-164000000D03*
D17*
X124825000Y-162850000D03*
X124825000Y-161850000D03*
X124825000Y-161350000D03*
X124825000Y-160350000D03*
D16*
X124825000Y-159200000D03*
X124825000Y-158400000D03*
X124825000Y-158400000D03*
X124825000Y-159200000D03*
D17*
X124825000Y-159850000D03*
X124825000Y-160850000D03*
X124825000Y-162350000D03*
X124825000Y-163350000D03*
D16*
X124825000Y-164000000D03*
X124825000Y-164800000D03*
D15*
X125400000Y-165920000D03*
D18*
X122000000Y-36600000D03*
X118800000Y-36600000D03*
D23*
X116901400Y-86099999D03*
X116901400Y-86600001D03*
X116901400Y-87100000D03*
X116901400Y-87599999D03*
X116901400Y-88100001D03*
X119898600Y-88100001D03*
X119898600Y-87599999D03*
X119898600Y-87100000D03*
X119898600Y-86600001D03*
X119898600Y-86099999D03*
D24*
X118400000Y-87100000D03*
D30*
X77900000Y-38620000D03*
X77900000Y-39580000D03*
D23*
X116901400Y-66099999D03*
X116901400Y-66600001D03*
X116901400Y-67100000D03*
X116901400Y-67599999D03*
X116901400Y-68100001D03*
X119898600Y-68100001D03*
X119898600Y-67599999D03*
X119898600Y-67100000D03*
X119898600Y-66600001D03*
X119898600Y-66099999D03*
D24*
X118400000Y-67100000D03*
D11*
X114425000Y-162300000D03*
X115075000Y-162300000D03*
X115725000Y-162300000D03*
X116375000Y-162300000D03*
X116375000Y-157900000D03*
X115725000Y-157900000D03*
X115075000Y-157900000D03*
X114425000Y-157900000D03*
X114425000Y-102300000D03*
X115075000Y-102300000D03*
X115725000Y-102300000D03*
X116375000Y-102300000D03*
X116375000Y-97900000D03*
X115725000Y-97900000D03*
X115075000Y-97900000D03*
X114425000Y-97900000D03*
D13*
X113400000Y-85110000D03*
X113400000Y-84090000D03*
D25*
X119880000Y-104610000D03*
X118920000Y-104610000D03*
D30*
X78400000Y-104120000D03*
X78400000Y-105080000D03*
D13*
X121900000Y-147610000D03*
X121900000Y-146590000D03*
D34*
X103987500Y-24100000D03*
X105812500Y-24100000D03*
D11*
X114425000Y-42300000D03*
X115075000Y-42300000D03*
X115725000Y-42300000D03*
X116375000Y-42300000D03*
X116375000Y-37900000D03*
X115725000Y-37900000D03*
X115075000Y-37900000D03*
X114425000Y-37900000D03*
D18*
X122000000Y-136600000D03*
X118800000Y-136600000D03*
D35*
X105845900Y-30600000D03*
D36*
X109833700Y-31520001D03*
X109833700Y-29679999D03*
D13*
X113400000Y-105110000D03*
X113400000Y-104090000D03*
D14*
X129350000Y-106620000D03*
D15*
X125400000Y-97280000D03*
D14*
X129350000Y-96580000D03*
D16*
X124825000Y-104800000D03*
X124825000Y-104000000D03*
D17*
X124825000Y-102850000D03*
X124825000Y-101850000D03*
X124825000Y-101350000D03*
X124825000Y-100350000D03*
D16*
X124825000Y-99200000D03*
X124825000Y-98400000D03*
X124825000Y-98400000D03*
X124825000Y-99200000D03*
D17*
X124825000Y-99850000D03*
X124825000Y-100850000D03*
X124825000Y-102350000D03*
X124825000Y-103350000D03*
D16*
X124825000Y-104000000D03*
X124825000Y-104800000D03*
D15*
X125400000Y-105920000D03*
D25*
X119880000Y-44600000D03*
X118920000Y-44600000D03*
X119880000Y-84610000D03*
X118920000Y-84610000D03*
D26*
X85925000Y-147790000D03*
X84905000Y-147790000D03*
D13*
X121900000Y-127610000D03*
X121900000Y-126590000D03*
D26*
X85925000Y-142710000D03*
X84905000Y-142710000D03*
D28*
X81900000Y-151080000D03*
X81900000Y-150120000D03*
D37*
X108850000Y-24100000D03*
X107950000Y-24100000D03*
D18*
X122000000Y-76600000D03*
X118800000Y-76600000D03*
D14*
X129350000Y-86620000D03*
D15*
X125400000Y-77280000D03*
D14*
X129350000Y-76580000D03*
D16*
X124825000Y-84800000D03*
X124825000Y-84000000D03*
D17*
X124825000Y-82850000D03*
X124825000Y-81850000D03*
X124825000Y-81350000D03*
X124825000Y-80350000D03*
D16*
X124825000Y-79200000D03*
X124825000Y-78400000D03*
X124825000Y-78400000D03*
X124825000Y-79200000D03*
D17*
X124825000Y-79850000D03*
X124825000Y-80850000D03*
X124825000Y-82350000D03*
X124825000Y-83350000D03*
D16*
X124825000Y-84000000D03*
X124825000Y-84800000D03*
D15*
X125400000Y-85920000D03*
D11*
X114425000Y-82300000D03*
X115075000Y-82300000D03*
X115725000Y-82300000D03*
X116375000Y-82300000D03*
X116375000Y-77900000D03*
X115725000Y-77900000D03*
X115075000Y-77900000D03*
X114425000Y-77900000D03*
D20*
X116920000Y-144610000D03*
X117880000Y-144610000D03*
D38*
X81875000Y-109700000D03*
X81225000Y-109700000D03*
X80575000Y-109700000D03*
X79925000Y-109700000D03*
X79925000Y-112500000D03*
X80575000Y-112500000D03*
X81225000Y-112500000D03*
X81875000Y-112500000D03*
D39*
X82187500Y-110775000D03*
X79612500Y-110775000D03*
X82187500Y-111425000D03*
X79612500Y-111425000D03*
D26*
X85925000Y-160490000D03*
X84905000Y-160490000D03*
D18*
X122000000Y-96600000D03*
X118800000Y-96600000D03*
D20*
X75920000Y-47100000D03*
X76880000Y-47100000D03*
M02*
