%TF.GenerationSoftware,KiCad,Pcbnew,7.0.11*%
%TF.CreationDate,2024-10-21T14:29:46-04:00*%
%TF.ProjectId,cluster-pcb,636c7573-7465-4722-9d70-63622e6b6963,1.3*%
%TF.SameCoordinates,Original*%
%TF.FileFunction,Drillmap*%
%TF.FilePolarity,Positive*%
%FSLAX45Y45*%
G04 Gerber Fmt 4.5, Leading zero omitted, Abs format (unit mm)*
G04 Created by KiCad (PCBNEW 7.0.11) date 2024-10-21 14:29:46*
%MOMM*%
%LPD*%
G01*
G04 APERTURE LIST*
%ADD10C,0.100000*%
%ADD11C,0.200000*%
%ADD12C,0.150000*%
%ADD13C,0.320000*%
%ADD14C,0.375000*%
G04 APERTURE END LIST*
D10*
X7740000Y-2160000D02*
G75*
G03*
X7240000Y-2660000I0J-500000D01*
G01*
X7240000Y-17660000D02*
X7240000Y-2660000D01*
X13240000Y-2660000D02*
X13240000Y-17660000D01*
X12740000Y-18160000D02*
G75*
G03*
X13240000Y-17660000I0J500000D01*
G01*
X13240000Y-2660000D02*
G75*
G03*
X12740000Y-2160000I-500000J0D01*
G01*
X7240000Y-17660000D02*
G75*
G03*
X7740000Y-18160000I500000J0D01*
G01*
X12740000Y-18160000D02*
X7740000Y-18160000D01*
X7740000Y-2160000D02*
X12740000Y-2160000D01*
D11*
D10*
X7380000Y-15050000D02*
X7400000Y-15070000D01*
X7400000Y-15050000D02*
X7380000Y-15070000D01*
X7380000Y-15200000D02*
X7400000Y-15220000D01*
X7400000Y-15200000D02*
X7380000Y-15220000D01*
X7380000Y-15300000D02*
X7400000Y-15320000D01*
X7400000Y-15300000D02*
X7380000Y-15320000D01*
X7480000Y-15400000D02*
X7500000Y-15420000D01*
X7500000Y-15400000D02*
X7480000Y-15420000D01*
X7630000Y-14750000D02*
X7650000Y-14770000D01*
X7650000Y-14750000D02*
X7630000Y-14770000D01*
X7630000Y-14850000D02*
X7650000Y-14870000D01*
X7650000Y-14850000D02*
X7630000Y-14870000D01*
X7680000Y-15450000D02*
X7700000Y-15470000D01*
X7700000Y-15450000D02*
X7680000Y-15470000D01*
X7780000Y-15350000D02*
X7800000Y-15370000D01*
X7800000Y-15350000D02*
X7780000Y-15370000D01*
X7780000Y-15450000D02*
X7800000Y-15470000D01*
X7800000Y-15450000D02*
X7780000Y-15470000D01*
X7830000Y-14900000D02*
X7850000Y-14920000D01*
X7850000Y-14900000D02*
X7830000Y-14920000D01*
X8180380Y-14597450D02*
X8200380Y-14617450D01*
X8200380Y-14597450D02*
X8180380Y-14617450D01*
X8431090Y-14465200D02*
X8451090Y-14485200D01*
X8451090Y-14465200D02*
X8431090Y-14485200D01*
X8630000Y-14650000D02*
X8650000Y-14670000D01*
X8650000Y-14650000D02*
X8630000Y-14670000D01*
X8630000Y-14900000D02*
X8650000Y-14920000D01*
X8650000Y-14900000D02*
X8630000Y-14920000D01*
X8630000Y-15150000D02*
X8650000Y-15170000D01*
X8650000Y-15150000D02*
X8630000Y-15170000D01*
X8630000Y-15400000D02*
X8650000Y-15420000D01*
X8650000Y-15400000D02*
X8630000Y-15420000D01*
X8630000Y-15650000D02*
X8650000Y-15670000D01*
X8650000Y-15650000D02*
X8630000Y-15670000D01*
X8630000Y-15900000D02*
X8650000Y-15920000D01*
X8650000Y-15900000D02*
X8630000Y-15920000D01*
X9121370Y-8903180D02*
X9141370Y-8923180D01*
X9141370Y-8903180D02*
X9121370Y-8923180D01*
X9212500Y-9771920D02*
X9232500Y-9791920D01*
X9232500Y-9771920D02*
X9212500Y-9791920D01*
X9212500Y-11324500D02*
X9232500Y-11344500D01*
X9232500Y-11324500D02*
X9212500Y-11344500D01*
X9212500Y-11451500D02*
X9232500Y-11471500D01*
X9232500Y-11451500D02*
X9212500Y-11471500D01*
X9212500Y-11578500D02*
X9232500Y-11598500D01*
X9232500Y-11578500D02*
X9212500Y-11598500D01*
X9212500Y-11832500D02*
X9232500Y-11852500D01*
X9232500Y-11832500D02*
X9212500Y-11852500D01*
X9212500Y-11959500D02*
X9232500Y-11979500D01*
X9232500Y-11959500D02*
X9212500Y-11979500D01*
X9212500Y-12086500D02*
X9232500Y-12106500D01*
X9232500Y-12086500D02*
X9212500Y-12106500D01*
X9212500Y-12213500D02*
X9232500Y-12233500D01*
X9232500Y-12213500D02*
X9212500Y-12233500D01*
X9212500Y-12340500D02*
X9232500Y-12360500D01*
X9232500Y-12340500D02*
X9212500Y-12360500D01*
X9212500Y-12467500D02*
X9232500Y-12487500D01*
X9232500Y-12467500D02*
X9212500Y-12487500D01*
X9212500Y-12594500D02*
X9232500Y-12614500D01*
X9232500Y-12594500D02*
X9212500Y-12614500D01*
X9212500Y-12975500D02*
X9232500Y-12995500D01*
X9232500Y-12975500D02*
X9212500Y-12995500D01*
X9281690Y-5175660D02*
X9301690Y-5195660D01*
X9301690Y-5175660D02*
X9281690Y-5195660D01*
X9329230Y-9401190D02*
X9349230Y-9421190D01*
X9349230Y-9401190D02*
X9329230Y-9421190D01*
X9847500Y-11705500D02*
X9867500Y-11725500D01*
X9867500Y-11705500D02*
X9847500Y-11725500D01*
X9847500Y-11832500D02*
X9867500Y-11852500D01*
X9867500Y-11832500D02*
X9847500Y-11852500D01*
X9847500Y-11959500D02*
X9867500Y-11979500D01*
X9867500Y-11959500D02*
X9847500Y-11979500D01*
X9847500Y-12086500D02*
X9867500Y-12106500D01*
X9867500Y-12086500D02*
X9847500Y-12106500D01*
X9847500Y-12213500D02*
X9867500Y-12233500D01*
X9867500Y-12213500D02*
X9847500Y-12233500D01*
X9847500Y-12340500D02*
X9867500Y-12360500D01*
X9867500Y-12340500D02*
X9847500Y-12360500D01*
X9847500Y-12467500D02*
X9867500Y-12487500D01*
X9867500Y-12467500D02*
X9847500Y-12487500D01*
X9847500Y-12848500D02*
X9867500Y-12868500D01*
X9867500Y-12848500D02*
X9847500Y-12868500D01*
X9976900Y-12912000D02*
X9996900Y-12932000D01*
X9996900Y-12912000D02*
X9976900Y-12932000D01*
X10155850Y-10074150D02*
X10175850Y-10094150D01*
X10175850Y-10074150D02*
X10155850Y-10094150D01*
X10236540Y-13376210D02*
X10256540Y-13396210D01*
X10256540Y-13376210D02*
X10236540Y-13396210D01*
X10284550Y-12271990D02*
X10304550Y-12291990D01*
X10304550Y-12271990D02*
X10284550Y-12291990D01*
X10352380Y-7297380D02*
X10372380Y-7317380D01*
X10372380Y-7297380D02*
X10352380Y-7317380D01*
X10505000Y-7225000D02*
X10525000Y-7245000D01*
X10525000Y-7225000D02*
X10505000Y-7245000D01*
X11330000Y-4600000D02*
X11350000Y-4620000D01*
X11350000Y-4600000D02*
X11330000Y-4620000D01*
X11330000Y-6600000D02*
X11350000Y-6620000D01*
X11350000Y-6600000D02*
X11330000Y-6620000D01*
X11330000Y-8600000D02*
X11350000Y-8620000D01*
X11350000Y-8600000D02*
X11330000Y-8620000D01*
X11330000Y-10600000D02*
X11350000Y-10620000D01*
X11350000Y-10600000D02*
X11330000Y-10620000D01*
X11330000Y-12600000D02*
X11350000Y-12620000D01*
X11350000Y-12600000D02*
X11330000Y-12620000D01*
X11330000Y-14600000D02*
X11350000Y-14620000D01*
X11350000Y-14600000D02*
X11330000Y-14620000D01*
X11330000Y-16600000D02*
X11350000Y-16620000D01*
X11350000Y-16600000D02*
X11330000Y-16620000D01*
X11426210Y-8444460D02*
X11446210Y-8464460D01*
X11446210Y-8444460D02*
X11426210Y-8464460D01*
X11430000Y-12700000D02*
X11450000Y-12720000D01*
X11450000Y-12700000D02*
X11430000Y-12720000D01*
X11476000Y-7277980D02*
X11496000Y-7297980D01*
X11496000Y-7277980D02*
X11476000Y-7297980D01*
X11480000Y-10700000D02*
X11500000Y-10720000D01*
X11500000Y-10700000D02*
X11480000Y-10720000D01*
X11580000Y-4650000D02*
X11600000Y-4670000D01*
X11600000Y-4650000D02*
X11580000Y-4670000D01*
X11580000Y-4725000D02*
X11600000Y-4745000D01*
X11600000Y-4725000D02*
X11580000Y-4745000D01*
X11580000Y-4800000D02*
X11600000Y-4820000D01*
X11600000Y-4800000D02*
X11580000Y-4820000D01*
X11580000Y-6650000D02*
X11600000Y-6670000D01*
X11600000Y-6650000D02*
X11580000Y-6670000D01*
X11580000Y-6725000D02*
X11600000Y-6745000D01*
X11600000Y-6725000D02*
X11580000Y-6745000D01*
X11580000Y-6800000D02*
X11600000Y-6820000D01*
X11600000Y-6800000D02*
X11580000Y-6820000D01*
X11580000Y-8650000D02*
X11600000Y-8670000D01*
X11600000Y-8650000D02*
X11580000Y-8670000D01*
X11580000Y-8725000D02*
X11600000Y-8745000D01*
X11600000Y-8725000D02*
X11580000Y-8745000D01*
X11580000Y-8800000D02*
X11600000Y-8820000D01*
X11600000Y-8800000D02*
X11580000Y-8820000D01*
X11580000Y-10650000D02*
X11600000Y-10670000D01*
X11600000Y-10650000D02*
X11580000Y-10670000D01*
X11580000Y-10725000D02*
X11600000Y-10745000D01*
X11600000Y-10725000D02*
X11580000Y-10745000D01*
X11580000Y-10800000D02*
X11600000Y-10820000D01*
X11600000Y-10800000D02*
X11580000Y-10820000D01*
X11580000Y-12650000D02*
X11600000Y-12670000D01*
X11600000Y-12650000D02*
X11580000Y-12670000D01*
X11580000Y-12725000D02*
X11600000Y-12745000D01*
X11600000Y-12725000D02*
X11580000Y-12745000D01*
X11580000Y-12800000D02*
X11600000Y-12820000D01*
X11600000Y-12800000D02*
X11580000Y-12820000D01*
X11580000Y-14650000D02*
X11600000Y-14670000D01*
X11600000Y-14650000D02*
X11580000Y-14670000D01*
X11580000Y-14725000D02*
X11600000Y-14745000D01*
X11600000Y-14725000D02*
X11580000Y-14745000D01*
X11580000Y-14800000D02*
X11600000Y-14820000D01*
X11600000Y-14800000D02*
X11580000Y-14820000D01*
X11580000Y-16650000D02*
X11600000Y-16670000D01*
X11600000Y-16650000D02*
X11580000Y-16670000D01*
X11580000Y-16725000D02*
X11600000Y-16745000D01*
X11600000Y-16725000D02*
X11580000Y-16745000D01*
X11580000Y-16800000D02*
X11600000Y-16820000D01*
X11600000Y-16800000D02*
X11580000Y-16820000D01*
X12255000Y-4650000D02*
X12275000Y-4670000D01*
X12275000Y-4650000D02*
X12255000Y-4670000D01*
X12255000Y-4750000D02*
X12275000Y-4770000D01*
X12275000Y-4750000D02*
X12255000Y-4770000D01*
X12255000Y-6650000D02*
X12275000Y-6670000D01*
X12275000Y-6650000D02*
X12255000Y-6670000D01*
X12255000Y-6750000D02*
X12275000Y-6770000D01*
X12275000Y-6750000D02*
X12255000Y-6770000D01*
X12255000Y-8650000D02*
X12275000Y-8670000D01*
X12275000Y-8650000D02*
X12255000Y-8670000D01*
X12255000Y-8750000D02*
X12275000Y-8770000D01*
X12275000Y-8750000D02*
X12255000Y-8770000D01*
X12255000Y-10650000D02*
X12275000Y-10670000D01*
X12275000Y-10650000D02*
X12255000Y-10670000D01*
X12255000Y-10750000D02*
X12275000Y-10770000D01*
X12275000Y-10750000D02*
X12255000Y-10770000D01*
X12255000Y-12650000D02*
X12275000Y-12670000D01*
X12275000Y-12650000D02*
X12255000Y-12670000D01*
X12255000Y-12750000D02*
X12275000Y-12770000D01*
X12275000Y-12750000D02*
X12255000Y-12770000D01*
X12255000Y-14650000D02*
X12275000Y-14670000D01*
X12275000Y-14650000D02*
X12255000Y-14670000D01*
X12255000Y-14750000D02*
X12275000Y-14770000D01*
X12275000Y-14750000D02*
X12255000Y-14770000D01*
X12255000Y-16650000D02*
X12275000Y-16670000D01*
X12275000Y-16650000D02*
X12255000Y-16670000D01*
X12255000Y-16750000D02*
X12275000Y-16770000D01*
X12275000Y-16750000D02*
X12255000Y-16770000D01*
X12355000Y-4175000D02*
X12375000Y-4195000D01*
X12375000Y-4175000D02*
X12355000Y-4195000D01*
X12355000Y-6175000D02*
X12375000Y-6195000D01*
X12375000Y-6175000D02*
X12355000Y-6195000D01*
X12355000Y-8175000D02*
X12375000Y-8195000D01*
X12375000Y-8175000D02*
X12355000Y-8195000D01*
X12355000Y-10175000D02*
X12375000Y-10195000D01*
X12375000Y-10175000D02*
X12355000Y-10195000D01*
X12355000Y-12175000D02*
X12375000Y-12195000D01*
X12375000Y-12175000D02*
X12355000Y-12195000D01*
X12355000Y-14175000D02*
X12375000Y-14195000D01*
X12375000Y-14175000D02*
X12355000Y-14195000D01*
X12355000Y-16175000D02*
X12375000Y-16195000D01*
X12375000Y-16175000D02*
X12355000Y-16195000D01*
X12580000Y-4125000D02*
X12600000Y-4145000D01*
X12600000Y-4125000D02*
X12580000Y-4145000D01*
X12580000Y-6125000D02*
X12600000Y-6145000D01*
X12600000Y-6125000D02*
X12580000Y-6145000D01*
X12580000Y-8125000D02*
X12600000Y-8145000D01*
X12600000Y-8125000D02*
X12580000Y-8145000D01*
X12580000Y-10125000D02*
X12600000Y-10145000D01*
X12600000Y-10125000D02*
X12580000Y-10145000D01*
X12580000Y-12125000D02*
X12600000Y-12145000D01*
X12600000Y-12125000D02*
X12580000Y-12145000D01*
X12580000Y-14125000D02*
X12600000Y-14145000D01*
X12600000Y-14125000D02*
X12580000Y-14145000D01*
X12580000Y-16125000D02*
X12600000Y-16145000D01*
X12600000Y-16125000D02*
X12580000Y-16145000D01*
X7600000Y-15110000D02*
G75*
G03*
X7580000Y-15110000I-10000J0D01*
G01*
X7580000Y-15110000D02*
G75*
G03*
X7600000Y-15110000I10000J0D01*
G01*
X7600000Y-15210000D02*
G75*
G03*
X7580000Y-15210000I-10000J0D01*
G01*
X7580000Y-15210000D02*
G75*
G03*
X7600000Y-15210000I10000J0D01*
G01*
X7650000Y-15160000D02*
G75*
G03*
X7630000Y-15160000I-10000J0D01*
G01*
X7630000Y-15160000D02*
G75*
G03*
X7650000Y-15160000I10000J0D01*
G01*
X7700000Y-15110000D02*
G75*
G03*
X7680000Y-15110000I-10000J0D01*
G01*
X7680000Y-15110000D02*
G75*
G03*
X7700000Y-15110000I10000J0D01*
G01*
X7700000Y-15210000D02*
G75*
G03*
X7680000Y-15210000I-10000J0D01*
G01*
X7680000Y-15210000D02*
G75*
G03*
X7700000Y-15210000I10000J0D01*
G01*
X8060630Y-11110000D02*
G75*
G03*
X8040630Y-11110000I-10000J0D01*
G01*
X8040630Y-11110000D02*
G75*
G03*
X8060630Y-11110000I10000J0D01*
G01*
X8139370Y-11110000D02*
G75*
G03*
X8119370Y-11110000I-10000J0D01*
G01*
X8119370Y-11110000D02*
G75*
G03*
X8139370Y-11110000I10000J0D01*
G01*
X7540000Y-9547500D02*
X7540000Y-9572500D01*
X7527500Y-9560000D02*
X7552500Y-9560000D01*
X7890000Y-4897500D02*
X7890000Y-4922500D01*
X7877500Y-4910000D02*
X7902500Y-4910000D01*
X7990000Y-4397500D02*
X7990000Y-4422500D01*
X7977500Y-4410000D02*
X8002500Y-4410000D01*
X8040000Y-4197500D02*
X8040000Y-4222500D01*
X8027500Y-4210000D02*
X8052500Y-4210000D01*
X8040000Y-11597500D02*
X8040000Y-11622500D01*
X8027500Y-11610000D02*
X8052500Y-11610000D01*
X8090000Y-11697500D02*
X8090000Y-11722500D01*
X8077500Y-11710000D02*
X8102500Y-11710000D01*
X8275230Y-15095500D02*
X8275230Y-15120500D01*
X8262730Y-15108000D02*
X8287730Y-15108000D01*
X8340000Y-10997500D02*
X8340000Y-11022500D01*
X8327500Y-11010000D02*
X8352500Y-11010000D01*
X9240000Y-12847500D02*
X9240000Y-12872500D01*
X9227500Y-12860000D02*
X9252500Y-12860000D01*
X9390000Y-13197500D02*
X9390000Y-13222500D01*
X9377500Y-13210000D02*
X9402500Y-13210000D01*
X9657500Y-14893500D02*
X9657500Y-14918500D01*
X9645000Y-14906000D02*
X9670000Y-14906000D01*
X9690000Y-11097500D02*
X9690000Y-11122500D01*
X9677500Y-11110000D02*
X9702500Y-11110000D01*
X9840000Y-11547500D02*
X9840000Y-11572500D01*
X9827500Y-11560000D02*
X9852500Y-11560000D01*
X10076110Y-10377190D02*
X10076110Y-10402190D01*
X10063610Y-10389690D02*
X10088610Y-10389690D01*
X10990000Y-2397500D02*
X10990000Y-2422500D01*
X10977500Y-2410000D02*
X11002500Y-2410000D01*
X11690000Y-4347500D02*
X11690000Y-4372500D01*
X11677500Y-4360000D02*
X11702500Y-4360000D01*
X11690000Y-6347500D02*
X11690000Y-6372500D01*
X11677500Y-6360000D02*
X11702500Y-6360000D01*
X11690000Y-8347500D02*
X11690000Y-8372500D01*
X11677500Y-8360000D02*
X11702500Y-8360000D01*
X11690000Y-10347500D02*
X11690000Y-10372500D01*
X11677500Y-10360000D02*
X11702500Y-10360000D01*
X11690000Y-12347500D02*
X11690000Y-12372500D01*
X11677500Y-12360000D02*
X11702500Y-12360000D01*
X11690000Y-14347500D02*
X11690000Y-14372500D01*
X11677500Y-14360000D02*
X11702500Y-14360000D01*
X11690000Y-16347500D02*
X11690000Y-16372500D01*
X11677500Y-16360000D02*
X11702500Y-16360000D01*
X11990000Y-4347500D02*
X11990000Y-4372500D01*
X11977500Y-4360000D02*
X12002500Y-4360000D01*
X11990000Y-6347500D02*
X11990000Y-6372500D01*
X11977500Y-6360000D02*
X12002500Y-6360000D01*
X11990000Y-8347500D02*
X11990000Y-8372500D01*
X11977500Y-8360000D02*
X12002500Y-8360000D01*
X11990000Y-10347500D02*
X11990000Y-10372500D01*
X11977500Y-10360000D02*
X12002500Y-10360000D01*
X11990000Y-12347500D02*
X11990000Y-12372500D01*
X11977500Y-12360000D02*
X12002500Y-12360000D01*
X11990000Y-14347500D02*
X11990000Y-14372500D01*
X11977500Y-14360000D02*
X12002500Y-14360000D01*
X11990000Y-16347500D02*
X11990000Y-16372500D01*
X11977500Y-16360000D02*
X12002500Y-16360000D01*
X12365000Y-3822500D02*
X12365000Y-3847500D01*
X12352500Y-3835000D02*
X12377500Y-3835000D01*
X12365000Y-5822500D02*
X12365000Y-5847500D01*
X12352500Y-5835000D02*
X12377500Y-5835000D01*
X12365000Y-7822500D02*
X12365000Y-7847500D01*
X12352500Y-7835000D02*
X12377500Y-7835000D01*
X12365000Y-9822500D02*
X12365000Y-9847500D01*
X12352500Y-9835000D02*
X12377500Y-9835000D01*
X12365000Y-11822500D02*
X12365000Y-11847500D01*
X12352500Y-11835000D02*
X12377500Y-11835000D01*
X12365000Y-13822500D02*
X12365000Y-13847500D01*
X12352500Y-13835000D02*
X12377500Y-13835000D01*
X12365000Y-15822500D02*
X12365000Y-15847500D01*
X12352500Y-15835000D02*
X12377500Y-15835000D01*
X12561213Y-3749213D02*
X12561213Y-3706787D01*
X12518787Y-3706787D01*
X12518787Y-3749213D01*
X12561213Y-3749213D01*
X12495000Y-3758000D02*
X12585000Y-3758000D01*
X12585000Y-3758000D02*
G75*
G03*
X12585000Y-3698000I0J30000D01*
G01*
X12585000Y-3698000D02*
X12495000Y-3698000D01*
X12495000Y-3698000D02*
G75*
G03*
X12495000Y-3758000I0J-30000D01*
G01*
X12561213Y-4613213D02*
X12561213Y-4570787D01*
X12518787Y-4570787D01*
X12518787Y-4613213D01*
X12561213Y-4613213D01*
X12495000Y-4622000D02*
X12585000Y-4622000D01*
X12585000Y-4622000D02*
G75*
G03*
X12585000Y-4562000I0J30000D01*
G01*
X12585000Y-4562000D02*
X12495000Y-4562000D01*
X12495000Y-4562000D02*
G75*
G03*
X12495000Y-4622000I0J-30000D01*
G01*
X12561213Y-5749213D02*
X12561213Y-5706787D01*
X12518787Y-5706787D01*
X12518787Y-5749213D01*
X12561213Y-5749213D01*
X12495000Y-5758000D02*
X12585000Y-5758000D01*
X12585000Y-5758000D02*
G75*
G03*
X12585000Y-5698000I0J30000D01*
G01*
X12585000Y-5698000D02*
X12495000Y-5698000D01*
X12495000Y-5698000D02*
G75*
G03*
X12495000Y-5758000I0J-30000D01*
G01*
X12561213Y-6613213D02*
X12561213Y-6570787D01*
X12518787Y-6570787D01*
X12518787Y-6613213D01*
X12561213Y-6613213D01*
X12495000Y-6622000D02*
X12585000Y-6622000D01*
X12585000Y-6622000D02*
G75*
G03*
X12585000Y-6562000I0J30000D01*
G01*
X12585000Y-6562000D02*
X12495000Y-6562000D01*
X12495000Y-6562000D02*
G75*
G03*
X12495000Y-6622000I0J-30000D01*
G01*
X12561213Y-7749213D02*
X12561213Y-7706787D01*
X12518787Y-7706787D01*
X12518787Y-7749213D01*
X12561213Y-7749213D01*
X12495000Y-7758000D02*
X12585000Y-7758000D01*
X12585000Y-7758000D02*
G75*
G03*
X12585000Y-7698000I0J30000D01*
G01*
X12585000Y-7698000D02*
X12495000Y-7698000D01*
X12495000Y-7698000D02*
G75*
G03*
X12495000Y-7758000I0J-30000D01*
G01*
X12561213Y-8613213D02*
X12561213Y-8570787D01*
X12518787Y-8570787D01*
X12518787Y-8613213D01*
X12561213Y-8613213D01*
X12495000Y-8622000D02*
X12585000Y-8622000D01*
X12585000Y-8622000D02*
G75*
G03*
X12585000Y-8562000I0J30000D01*
G01*
X12585000Y-8562000D02*
X12495000Y-8562000D01*
X12495000Y-8562000D02*
G75*
G03*
X12495000Y-8622000I0J-30000D01*
G01*
X12561213Y-9749213D02*
X12561213Y-9706787D01*
X12518787Y-9706787D01*
X12518787Y-9749213D01*
X12561213Y-9749213D01*
X12495000Y-9758000D02*
X12585000Y-9758000D01*
X12585000Y-9758000D02*
G75*
G03*
X12585000Y-9698000I0J30000D01*
G01*
X12585000Y-9698000D02*
X12495000Y-9698000D01*
X12495000Y-9698000D02*
G75*
G03*
X12495000Y-9758000I0J-30000D01*
G01*
X12561213Y-10613213D02*
X12561213Y-10570787D01*
X12518787Y-10570787D01*
X12518787Y-10613213D01*
X12561213Y-10613213D01*
X12495000Y-10622000D02*
X12585000Y-10622000D01*
X12585000Y-10622000D02*
G75*
G03*
X12585000Y-10562000I0J30000D01*
G01*
X12585000Y-10562000D02*
X12495000Y-10562000D01*
X12495000Y-10562000D02*
G75*
G03*
X12495000Y-10622000I0J-30000D01*
G01*
X12561213Y-11749213D02*
X12561213Y-11706787D01*
X12518787Y-11706787D01*
X12518787Y-11749213D01*
X12561213Y-11749213D01*
X12495000Y-11758000D02*
X12585000Y-11758000D01*
X12585000Y-11758000D02*
G75*
G03*
X12585000Y-11698000I0J30000D01*
G01*
X12585000Y-11698000D02*
X12495000Y-11698000D01*
X12495000Y-11698000D02*
G75*
G03*
X12495000Y-11758000I0J-30000D01*
G01*
X12561213Y-12613213D02*
X12561213Y-12570787D01*
X12518787Y-12570787D01*
X12518787Y-12613213D01*
X12561213Y-12613213D01*
X12495000Y-12622000D02*
X12585000Y-12622000D01*
X12585000Y-12622000D02*
G75*
G03*
X12585000Y-12562000I0J30000D01*
G01*
X12585000Y-12562000D02*
X12495000Y-12562000D01*
X12495000Y-12562000D02*
G75*
G03*
X12495000Y-12622000I0J-30000D01*
G01*
X12561213Y-13749213D02*
X12561213Y-13706787D01*
X12518787Y-13706787D01*
X12518787Y-13749213D01*
X12561213Y-13749213D01*
X12495000Y-13758000D02*
X12585000Y-13758000D01*
X12585000Y-13758000D02*
G75*
G03*
X12585000Y-13698000I0J30000D01*
G01*
X12585000Y-13698000D02*
X12495000Y-13698000D01*
X12495000Y-13698000D02*
G75*
G03*
X12495000Y-13758000I0J-30000D01*
G01*
X12561213Y-14613213D02*
X12561213Y-14570787D01*
X12518787Y-14570787D01*
X12518787Y-14613213D01*
X12561213Y-14613213D01*
X12495000Y-14622000D02*
X12585000Y-14622000D01*
X12585000Y-14622000D02*
G75*
G03*
X12585000Y-14562000I0J30000D01*
G01*
X12585000Y-14562000D02*
X12495000Y-14562000D01*
X12495000Y-14562000D02*
G75*
G03*
X12495000Y-14622000I0J-30000D01*
G01*
X12561213Y-15749213D02*
X12561213Y-15706787D01*
X12518787Y-15706787D01*
X12518787Y-15749213D01*
X12561213Y-15749213D01*
X12495000Y-15758000D02*
X12585000Y-15758000D01*
X12585000Y-15758000D02*
G75*
G03*
X12585000Y-15698000I0J30000D01*
G01*
X12585000Y-15698000D02*
X12495000Y-15698000D01*
X12495000Y-15698000D02*
G75*
G03*
X12495000Y-15758000I0J-30000D01*
G01*
X12561213Y-16613213D02*
X12561213Y-16570787D01*
X12518787Y-16570787D01*
X12518787Y-16613213D01*
X12561213Y-16613213D01*
X12495000Y-16622000D02*
X12585000Y-16622000D01*
X12585000Y-16622000D02*
G75*
G03*
X12585000Y-16562000I0J30000D01*
G01*
X12585000Y-16562000D02*
X12495000Y-16562000D01*
X12495000Y-16562000D02*
G75*
G03*
X12495000Y-16622000I0J-30000D01*
G01*
X8351000Y-4770250D02*
X8401000Y-4720250D01*
X8351000Y-4670250D01*
X8301000Y-4720250D01*
X8351000Y-4770250D01*
X8351000Y-5024250D02*
X8401000Y-4974250D01*
X8351000Y-4924250D01*
X8301000Y-4974250D01*
X8351000Y-5024250D01*
X8351000Y-5278250D02*
X8401000Y-5228250D01*
X8351000Y-5178250D01*
X8301000Y-5228250D01*
X8351000Y-5278250D01*
X8351000Y-5532250D02*
X8401000Y-5482250D01*
X8351000Y-5432250D01*
X8301000Y-5482250D01*
X8351000Y-5532250D01*
X8351000Y-5786250D02*
X8401000Y-5736250D01*
X8351000Y-5686250D01*
X8301000Y-5736250D01*
X8351000Y-5786250D01*
X8351000Y-6040250D02*
X8401000Y-5990250D01*
X8351000Y-5940250D01*
X8301000Y-5990250D01*
X8351000Y-6040250D01*
X8351000Y-6294250D02*
X8401000Y-6244250D01*
X8351000Y-6194250D01*
X8301000Y-6244250D01*
X8351000Y-6294250D01*
X8351000Y-6548250D02*
X8401000Y-6498250D01*
X8351000Y-6448250D01*
X8301000Y-6498250D01*
X8351000Y-6548250D01*
X8351000Y-6802250D02*
X8401000Y-6752250D01*
X8351000Y-6702250D01*
X8301000Y-6752250D01*
X8351000Y-6802250D01*
X8351000Y-7056250D02*
X8401000Y-7006250D01*
X8351000Y-6956250D01*
X8301000Y-7006250D01*
X8351000Y-7056250D01*
X8351000Y-7310250D02*
X8401000Y-7260250D01*
X8351000Y-7210250D01*
X8301000Y-7260250D01*
X8351000Y-7310250D01*
X8351000Y-7564250D02*
X8401000Y-7514250D01*
X8351000Y-7464250D01*
X8301000Y-7514250D01*
X8351000Y-7564250D01*
X8351000Y-7818250D02*
X8401000Y-7768250D01*
X8351000Y-7718250D01*
X8301000Y-7768250D01*
X8351000Y-7818250D01*
X8351000Y-8072250D02*
X8401000Y-8022250D01*
X8351000Y-7972250D01*
X8301000Y-8022250D01*
X8351000Y-8072250D01*
X8351000Y-8326250D02*
X8401000Y-8276250D01*
X8351000Y-8226250D01*
X8301000Y-8276250D01*
X8351000Y-8326250D01*
X8351000Y-8580250D02*
X8401000Y-8530250D01*
X8351000Y-8480250D01*
X8301000Y-8530250D01*
X8351000Y-8580250D01*
X8351000Y-8834250D02*
X8401000Y-8784250D01*
X8351000Y-8734250D01*
X8301000Y-8784250D01*
X8351000Y-8834250D01*
X8351000Y-9088250D02*
X8401000Y-9038250D01*
X8351000Y-8988250D01*
X8301000Y-9038250D01*
X8351000Y-9088250D01*
X8351000Y-9342250D02*
X8401000Y-9292250D01*
X8351000Y-9242250D01*
X8301000Y-9292250D01*
X8351000Y-9342250D01*
X8351000Y-9596250D02*
X8401000Y-9546250D01*
X8351000Y-9496250D01*
X8301000Y-9546250D01*
X8351000Y-9596250D01*
X10129000Y-4770250D02*
X10179000Y-4720250D01*
X10129000Y-4670250D01*
X10079000Y-4720250D01*
X10129000Y-4770250D01*
X10129000Y-5024250D02*
X10179000Y-4974250D01*
X10129000Y-4924250D01*
X10079000Y-4974250D01*
X10129000Y-5024250D01*
X10129000Y-5278250D02*
X10179000Y-5228250D01*
X10129000Y-5178250D01*
X10079000Y-5228250D01*
X10129000Y-5278250D01*
X10129000Y-5532250D02*
X10179000Y-5482250D01*
X10129000Y-5432250D01*
X10079000Y-5482250D01*
X10129000Y-5532250D01*
X10129000Y-5786250D02*
X10179000Y-5736250D01*
X10129000Y-5686250D01*
X10079000Y-5736250D01*
X10129000Y-5786250D01*
X10129000Y-6040250D02*
X10179000Y-5990250D01*
X10129000Y-5940250D01*
X10079000Y-5990250D01*
X10129000Y-6040250D01*
X10129000Y-6294250D02*
X10179000Y-6244250D01*
X10129000Y-6194250D01*
X10079000Y-6244250D01*
X10129000Y-6294250D01*
X10129000Y-6548250D02*
X10179000Y-6498250D01*
X10129000Y-6448250D01*
X10079000Y-6498250D01*
X10129000Y-6548250D01*
X10129000Y-6802250D02*
X10179000Y-6752250D01*
X10129000Y-6702250D01*
X10079000Y-6752250D01*
X10129000Y-6802250D01*
X10129000Y-7056250D02*
X10179000Y-7006250D01*
X10129000Y-6956250D01*
X10079000Y-7006250D01*
X10129000Y-7056250D01*
X10129000Y-7310250D02*
X10179000Y-7260250D01*
X10129000Y-7210250D01*
X10079000Y-7260250D01*
X10129000Y-7310250D01*
X10129000Y-7564250D02*
X10179000Y-7514250D01*
X10129000Y-7464250D01*
X10079000Y-7514250D01*
X10129000Y-7564250D01*
X10129000Y-7818250D02*
X10179000Y-7768250D01*
X10129000Y-7718250D01*
X10079000Y-7768250D01*
X10129000Y-7818250D01*
X10129000Y-8072250D02*
X10179000Y-8022250D01*
X10129000Y-7972250D01*
X10079000Y-8022250D01*
X10129000Y-8072250D01*
X10129000Y-8326250D02*
X10179000Y-8276250D01*
X10129000Y-8226250D01*
X10079000Y-8276250D01*
X10129000Y-8326250D01*
X10129000Y-8580250D02*
X10179000Y-8530250D01*
X10129000Y-8480250D01*
X10079000Y-8530250D01*
X10129000Y-8580250D01*
X10129000Y-8834250D02*
X10179000Y-8784250D01*
X10129000Y-8734250D01*
X10079000Y-8784250D01*
X10129000Y-8834250D01*
X10129000Y-9088250D02*
X10179000Y-9038250D01*
X10129000Y-8988250D01*
X10079000Y-9038250D01*
X10129000Y-9088250D01*
X10129000Y-9342250D02*
X10179000Y-9292250D01*
X10129000Y-9242250D01*
X10079000Y-9292250D01*
X10129000Y-9342250D01*
X10129000Y-9596250D02*
X10179000Y-9546250D01*
X10129000Y-9496250D01*
X10079000Y-9546250D01*
X10129000Y-9596250D01*
D12*
X8532500Y-2445250D02*
X8682500Y-2595250D01*
X8682500Y-2445250D02*
X8532500Y-2595250D01*
X8682500Y-2520250D02*
G75*
G03*
X8532500Y-2520250I-75000J0D01*
G01*
X8532500Y-2520250D02*
G75*
G03*
X8682500Y-2520250I75000J0D01*
G01*
X8720500Y-3672250D02*
X8870500Y-3822250D01*
X8870500Y-3672250D02*
X8720500Y-3822250D01*
X8870500Y-3747250D02*
G75*
G03*
X8720500Y-3747250I-75000J0D01*
G01*
X8720500Y-3747250D02*
G75*
G03*
X8870500Y-3747250I75000J0D01*
G01*
X8786500Y-2275250D02*
X8936500Y-2425250D01*
X8936500Y-2275250D02*
X8786500Y-2425250D01*
X8936500Y-2350250D02*
G75*
G03*
X8786500Y-2350250I-75000J0D01*
G01*
X8786500Y-2350250D02*
G75*
G03*
X8936500Y-2350250I75000J0D01*
G01*
X8847500Y-3418250D02*
X8997500Y-3568250D01*
X8997500Y-3418250D02*
X8847500Y-3568250D01*
X8997500Y-3493250D02*
G75*
G03*
X8847500Y-3493250I-75000J0D01*
G01*
X8847500Y-3493250D02*
G75*
G03*
X8997500Y-3493250I75000J0D01*
G01*
X8974500Y-3672250D02*
X9124500Y-3822250D01*
X9124500Y-3672250D02*
X8974500Y-3822250D01*
X9124500Y-3747250D02*
G75*
G03*
X8974500Y-3747250I-75000J0D01*
G01*
X8974500Y-3747250D02*
G75*
G03*
X9124500Y-3747250I75000J0D01*
G01*
X9101500Y-3418250D02*
X9251500Y-3568250D01*
X9251500Y-3418250D02*
X9101500Y-3568250D01*
X9251500Y-3493250D02*
G75*
G03*
X9101500Y-3493250I-75000J0D01*
G01*
X9101500Y-3493250D02*
G75*
G03*
X9251500Y-3493250I75000J0D01*
G01*
X9228500Y-3672250D02*
X9378500Y-3822250D01*
X9378500Y-3672250D02*
X9228500Y-3822250D01*
X9378500Y-3747250D02*
G75*
G03*
X9228500Y-3747250I-75000J0D01*
G01*
X9228500Y-3747250D02*
G75*
G03*
X9378500Y-3747250I75000J0D01*
G01*
X9355500Y-3418250D02*
X9505500Y-3568250D01*
X9505500Y-3418250D02*
X9355500Y-3568250D01*
X9505500Y-3493250D02*
G75*
G03*
X9355500Y-3493250I-75000J0D01*
G01*
X9355500Y-3493250D02*
G75*
G03*
X9505500Y-3493250I75000J0D01*
G01*
X9482500Y-3672250D02*
X9632500Y-3822250D01*
X9632500Y-3672250D02*
X9482500Y-3822250D01*
X9632500Y-3747250D02*
G75*
G03*
X9482500Y-3747250I-75000J0D01*
G01*
X9482500Y-3747250D02*
G75*
G03*
X9632500Y-3747250I75000J0D01*
G01*
X9543500Y-2445250D02*
X9693500Y-2595250D01*
X9693500Y-2445250D02*
X9543500Y-2595250D01*
X9693500Y-2520250D02*
G75*
G03*
X9543500Y-2520250I-75000J0D01*
G01*
X9543500Y-2520250D02*
G75*
G03*
X9693500Y-2520250I75000J0D01*
G01*
X9609500Y-3418250D02*
X9759500Y-3568250D01*
X9759500Y-3418250D02*
X9609500Y-3568250D01*
X9759500Y-3493250D02*
G75*
G03*
X9609500Y-3493250I-75000J0D01*
G01*
X9609500Y-3493250D02*
G75*
G03*
X9759500Y-3493250I75000J0D01*
G01*
X9797500Y-2273250D02*
X9947500Y-2423250D01*
X9947500Y-2273250D02*
X9797500Y-2423250D01*
X9947500Y-2348250D02*
G75*
G03*
X9797500Y-2348250I-75000J0D01*
G01*
X9797500Y-2348250D02*
G75*
G03*
X9947500Y-2348250I75000J0D01*
G01*
X11411000Y-2985000D02*
X11561000Y-3135000D01*
X11561000Y-2985000D02*
X11411000Y-3135000D01*
X11561000Y-3060000D02*
G75*
G03*
X11411000Y-3060000I-75000J0D01*
G01*
X11411000Y-3060000D02*
G75*
G03*
X11561000Y-3060000I75000J0D01*
G01*
X11919000Y-2985000D02*
X12069000Y-3135000D01*
X12069000Y-2985000D02*
X11919000Y-3135000D01*
X12069000Y-3060000D02*
G75*
G03*
X11919000Y-3060000I-75000J0D01*
G01*
X11919000Y-3060000D02*
G75*
G03*
X12069000Y-3060000I75000J0D01*
G01*
D11*
X8352500Y-3061250D02*
X8552500Y-3261250D01*
X8552500Y-3061250D02*
X8352500Y-3261250D01*
X8452500Y-3061250D02*
X8452500Y-3261250D01*
X8352500Y-3161250D02*
X8552500Y-3161250D01*
X9927500Y-3061250D02*
X10127500Y-3261250D01*
X10127500Y-3061250D02*
X9927500Y-3261250D01*
X10027500Y-3061250D02*
X10027500Y-3261250D01*
X9927500Y-3161250D02*
X10127500Y-3161250D01*
D13*
X7580000Y-2500000D02*
X7900000Y-2820000D01*
X7900000Y-2500000D02*
X7580000Y-2820000D01*
X7853138Y-2773138D02*
X7853138Y-2546862D01*
X7626862Y-2546862D01*
X7626862Y-2773138D01*
X7853138Y-2773138D01*
X7580000Y-17500000D02*
X7900000Y-17820000D01*
X7900000Y-17500000D02*
X7580000Y-17820000D01*
X7853138Y-17773138D02*
X7853138Y-17546862D01*
X7626862Y-17546862D01*
X7626862Y-17773138D01*
X7853138Y-17773138D01*
X12580000Y-2500000D02*
X12900000Y-2820000D01*
X12900000Y-2500000D02*
X12580000Y-2820000D01*
X12853138Y-2773138D02*
X12853138Y-2546862D01*
X12626862Y-2546862D01*
X12626862Y-2773138D01*
X12853138Y-2773138D01*
X12580000Y-17500000D02*
X12900000Y-17820000D01*
X12900000Y-17500000D02*
X12580000Y-17820000D01*
X12853138Y-17773138D02*
X12853138Y-17546862D01*
X12626862Y-17546862D01*
X12626862Y-17773138D01*
X12853138Y-17773138D01*
D14*
X8481000Y-2668750D02*
X8856000Y-3043750D01*
X8856000Y-2668750D02*
X8481000Y-3043750D01*
X8668500Y-3043750D02*
X8856000Y-2856250D01*
X8668500Y-2668750D01*
X8481000Y-2856250D01*
X8668500Y-3043750D01*
X9624000Y-2668750D02*
X9999000Y-3043750D01*
X9999000Y-2668750D02*
X9624000Y-3043750D01*
X9811500Y-3043750D02*
X9999000Y-2856250D01*
X9811500Y-2668750D01*
X9624000Y-2856250D01*
X9811500Y-3043750D01*
D11*
X7495777Y-18476484D02*
X7495777Y-18276484D01*
X7495777Y-18276484D02*
X7543396Y-18276484D01*
X7543396Y-18276484D02*
X7571967Y-18286008D01*
X7571967Y-18286008D02*
X7591015Y-18305055D01*
X7591015Y-18305055D02*
X7600539Y-18324103D01*
X7600539Y-18324103D02*
X7610062Y-18362198D01*
X7610062Y-18362198D02*
X7610062Y-18390770D01*
X7610062Y-18390770D02*
X7600539Y-18428865D01*
X7600539Y-18428865D02*
X7591015Y-18447912D01*
X7591015Y-18447912D02*
X7571967Y-18466960D01*
X7571967Y-18466960D02*
X7543396Y-18476484D01*
X7543396Y-18476484D02*
X7495777Y-18476484D01*
X7695777Y-18476484D02*
X7695777Y-18343150D01*
X7695777Y-18381246D02*
X7705301Y-18362198D01*
X7705301Y-18362198D02*
X7714824Y-18352674D01*
X7714824Y-18352674D02*
X7733872Y-18343150D01*
X7733872Y-18343150D02*
X7752920Y-18343150D01*
X7819586Y-18476484D02*
X7819586Y-18343150D01*
X7819586Y-18276484D02*
X7810062Y-18286008D01*
X7810062Y-18286008D02*
X7819586Y-18295531D01*
X7819586Y-18295531D02*
X7829110Y-18286008D01*
X7829110Y-18286008D02*
X7819586Y-18276484D01*
X7819586Y-18276484D02*
X7819586Y-18295531D01*
X7943396Y-18476484D02*
X7924348Y-18466960D01*
X7924348Y-18466960D02*
X7914824Y-18447912D01*
X7914824Y-18447912D02*
X7914824Y-18276484D01*
X8048158Y-18476484D02*
X8029110Y-18466960D01*
X8029110Y-18466960D02*
X8019586Y-18447912D01*
X8019586Y-18447912D02*
X8019586Y-18276484D01*
X8276729Y-18476484D02*
X8276729Y-18276484D01*
X8276729Y-18276484D02*
X8343396Y-18419341D01*
X8343396Y-18419341D02*
X8410063Y-18276484D01*
X8410063Y-18276484D02*
X8410063Y-18476484D01*
X8591015Y-18476484D02*
X8591015Y-18371722D01*
X8591015Y-18371722D02*
X8581491Y-18352674D01*
X8581491Y-18352674D02*
X8562444Y-18343150D01*
X8562444Y-18343150D02*
X8524348Y-18343150D01*
X8524348Y-18343150D02*
X8505301Y-18352674D01*
X8591015Y-18466960D02*
X8571967Y-18476484D01*
X8571967Y-18476484D02*
X8524348Y-18476484D01*
X8524348Y-18476484D02*
X8505301Y-18466960D01*
X8505301Y-18466960D02*
X8495777Y-18447912D01*
X8495777Y-18447912D02*
X8495777Y-18428865D01*
X8495777Y-18428865D02*
X8505301Y-18409817D01*
X8505301Y-18409817D02*
X8524348Y-18400293D01*
X8524348Y-18400293D02*
X8571967Y-18400293D01*
X8571967Y-18400293D02*
X8591015Y-18390770D01*
X8686253Y-18343150D02*
X8686253Y-18543150D01*
X8686253Y-18352674D02*
X8705301Y-18343150D01*
X8705301Y-18343150D02*
X8743396Y-18343150D01*
X8743396Y-18343150D02*
X8762444Y-18352674D01*
X8762444Y-18352674D02*
X8771967Y-18362198D01*
X8771967Y-18362198D02*
X8781491Y-18381246D01*
X8781491Y-18381246D02*
X8781491Y-18438389D01*
X8781491Y-18438389D02*
X8771967Y-18457436D01*
X8771967Y-18457436D02*
X8762444Y-18466960D01*
X8762444Y-18466960D02*
X8743396Y-18476484D01*
X8743396Y-18476484D02*
X8705301Y-18476484D01*
X8705301Y-18476484D02*
X8686253Y-18466960D01*
X8867205Y-18457436D02*
X8876729Y-18466960D01*
X8876729Y-18466960D02*
X8867205Y-18476484D01*
X8867205Y-18476484D02*
X8857682Y-18466960D01*
X8857682Y-18466960D02*
X8867205Y-18457436D01*
X8867205Y-18457436D02*
X8867205Y-18476484D01*
X8867205Y-18352674D02*
X8876729Y-18362198D01*
X8876729Y-18362198D02*
X8867205Y-18371722D01*
X8867205Y-18371722D02*
X8857682Y-18362198D01*
X8857682Y-18362198D02*
X8867205Y-18352674D01*
X8867205Y-18352674D02*
X8867205Y-18371722D01*
D10*
X7215000Y-18795000D02*
X7235000Y-18815000D01*
X7235000Y-18795000D02*
X7215000Y-18815000D01*
D11*
X7533872Y-18696484D02*
X7552920Y-18696484D01*
X7552920Y-18696484D02*
X7571967Y-18706008D01*
X7571967Y-18706008D02*
X7581491Y-18715531D01*
X7581491Y-18715531D02*
X7591015Y-18734579D01*
X7591015Y-18734579D02*
X7600539Y-18772674D01*
X7600539Y-18772674D02*
X7600539Y-18820293D01*
X7600539Y-18820293D02*
X7591015Y-18858389D01*
X7591015Y-18858389D02*
X7581491Y-18877436D01*
X7581491Y-18877436D02*
X7571967Y-18886960D01*
X7571967Y-18886960D02*
X7552920Y-18896484D01*
X7552920Y-18896484D02*
X7533872Y-18896484D01*
X7533872Y-18896484D02*
X7514824Y-18886960D01*
X7514824Y-18886960D02*
X7505301Y-18877436D01*
X7505301Y-18877436D02*
X7495777Y-18858389D01*
X7495777Y-18858389D02*
X7486253Y-18820293D01*
X7486253Y-18820293D02*
X7486253Y-18772674D01*
X7486253Y-18772674D02*
X7495777Y-18734579D01*
X7495777Y-18734579D02*
X7505301Y-18715531D01*
X7505301Y-18715531D02*
X7514824Y-18706008D01*
X7514824Y-18706008D02*
X7533872Y-18696484D01*
X7686253Y-18877436D02*
X7695777Y-18886960D01*
X7695777Y-18886960D02*
X7686253Y-18896484D01*
X7686253Y-18896484D02*
X7676729Y-18886960D01*
X7676729Y-18886960D02*
X7686253Y-18877436D01*
X7686253Y-18877436D02*
X7686253Y-18896484D01*
X7771967Y-18715531D02*
X7781491Y-18706008D01*
X7781491Y-18706008D02*
X7800539Y-18696484D01*
X7800539Y-18696484D02*
X7848158Y-18696484D01*
X7848158Y-18696484D02*
X7867205Y-18706008D01*
X7867205Y-18706008D02*
X7876729Y-18715531D01*
X7876729Y-18715531D02*
X7886253Y-18734579D01*
X7886253Y-18734579D02*
X7886253Y-18753627D01*
X7886253Y-18753627D02*
X7876729Y-18782198D01*
X7876729Y-18782198D02*
X7762443Y-18896484D01*
X7762443Y-18896484D02*
X7886253Y-18896484D01*
X8010062Y-18696484D02*
X8029110Y-18696484D01*
X8029110Y-18696484D02*
X8048158Y-18706008D01*
X8048158Y-18706008D02*
X8057682Y-18715531D01*
X8057682Y-18715531D02*
X8067205Y-18734579D01*
X8067205Y-18734579D02*
X8076729Y-18772674D01*
X8076729Y-18772674D02*
X8076729Y-18820293D01*
X8076729Y-18820293D02*
X8067205Y-18858389D01*
X8067205Y-18858389D02*
X8057682Y-18877436D01*
X8057682Y-18877436D02*
X8048158Y-18886960D01*
X8048158Y-18886960D02*
X8029110Y-18896484D01*
X8029110Y-18896484D02*
X8010062Y-18896484D01*
X8010062Y-18896484D02*
X7991015Y-18886960D01*
X7991015Y-18886960D02*
X7981491Y-18877436D01*
X7981491Y-18877436D02*
X7971967Y-18858389D01*
X7971967Y-18858389D02*
X7962443Y-18820293D01*
X7962443Y-18820293D02*
X7962443Y-18772674D01*
X7962443Y-18772674D02*
X7971967Y-18734579D01*
X7971967Y-18734579D02*
X7981491Y-18715531D01*
X7981491Y-18715531D02*
X7991015Y-18706008D01*
X7991015Y-18706008D02*
X8010062Y-18696484D01*
X8200539Y-18696484D02*
X8219586Y-18696484D01*
X8219586Y-18696484D02*
X8238634Y-18706008D01*
X8238634Y-18706008D02*
X8248158Y-18715531D01*
X8248158Y-18715531D02*
X8257682Y-18734579D01*
X8257682Y-18734579D02*
X8267205Y-18772674D01*
X8267205Y-18772674D02*
X8267205Y-18820293D01*
X8267205Y-18820293D02*
X8257682Y-18858389D01*
X8257682Y-18858389D02*
X8248158Y-18877436D01*
X8248158Y-18877436D02*
X8238634Y-18886960D01*
X8238634Y-18886960D02*
X8219586Y-18896484D01*
X8219586Y-18896484D02*
X8200539Y-18896484D01*
X8200539Y-18896484D02*
X8181491Y-18886960D01*
X8181491Y-18886960D02*
X8171967Y-18877436D01*
X8171967Y-18877436D02*
X8162443Y-18858389D01*
X8162443Y-18858389D02*
X8152920Y-18820293D01*
X8152920Y-18820293D02*
X8152920Y-18772674D01*
X8152920Y-18772674D02*
X8162443Y-18734579D01*
X8162443Y-18734579D02*
X8171967Y-18715531D01*
X8171967Y-18715531D02*
X8181491Y-18706008D01*
X8181491Y-18706008D02*
X8200539Y-18696484D01*
X8352920Y-18896484D02*
X8352920Y-18763150D01*
X8352920Y-18782198D02*
X8362443Y-18772674D01*
X8362443Y-18772674D02*
X8381491Y-18763150D01*
X8381491Y-18763150D02*
X8410063Y-18763150D01*
X8410063Y-18763150D02*
X8429110Y-18772674D01*
X8429110Y-18772674D02*
X8438634Y-18791722D01*
X8438634Y-18791722D02*
X8438634Y-18896484D01*
X8438634Y-18791722D02*
X8448158Y-18772674D01*
X8448158Y-18772674D02*
X8467205Y-18763150D01*
X8467205Y-18763150D02*
X8495777Y-18763150D01*
X8495777Y-18763150D02*
X8514825Y-18772674D01*
X8514825Y-18772674D02*
X8524348Y-18791722D01*
X8524348Y-18791722D02*
X8524348Y-18896484D01*
X8619586Y-18896484D02*
X8619586Y-18763150D01*
X8619586Y-18782198D02*
X8629110Y-18772674D01*
X8629110Y-18772674D02*
X8648158Y-18763150D01*
X8648158Y-18763150D02*
X8676729Y-18763150D01*
X8676729Y-18763150D02*
X8695777Y-18772674D01*
X8695777Y-18772674D02*
X8705301Y-18791722D01*
X8705301Y-18791722D02*
X8705301Y-18896484D01*
X8705301Y-18791722D02*
X8714825Y-18772674D01*
X8714825Y-18772674D02*
X8733872Y-18763150D01*
X8733872Y-18763150D02*
X8762444Y-18763150D01*
X8762444Y-18763150D02*
X8781491Y-18772674D01*
X8781491Y-18772674D02*
X8791015Y-18791722D01*
X8791015Y-18791722D02*
X8791015Y-18896484D01*
X9181491Y-18686960D02*
X9010063Y-18944103D01*
X9438634Y-18696484D02*
X9457682Y-18696484D01*
X9457682Y-18696484D02*
X9476729Y-18706008D01*
X9476729Y-18706008D02*
X9486253Y-18715531D01*
X9486253Y-18715531D02*
X9495777Y-18734579D01*
X9495777Y-18734579D02*
X9505301Y-18772674D01*
X9505301Y-18772674D02*
X9505301Y-18820293D01*
X9505301Y-18820293D02*
X9495777Y-18858389D01*
X9495777Y-18858389D02*
X9486253Y-18877436D01*
X9486253Y-18877436D02*
X9476729Y-18886960D01*
X9476729Y-18886960D02*
X9457682Y-18896484D01*
X9457682Y-18896484D02*
X9438634Y-18896484D01*
X9438634Y-18896484D02*
X9419587Y-18886960D01*
X9419587Y-18886960D02*
X9410063Y-18877436D01*
X9410063Y-18877436D02*
X9400539Y-18858389D01*
X9400539Y-18858389D02*
X9391015Y-18820293D01*
X9391015Y-18820293D02*
X9391015Y-18772674D01*
X9391015Y-18772674D02*
X9400539Y-18734579D01*
X9400539Y-18734579D02*
X9410063Y-18715531D01*
X9410063Y-18715531D02*
X9419587Y-18706008D01*
X9419587Y-18706008D02*
X9438634Y-18696484D01*
X9591015Y-18877436D02*
X9600539Y-18886960D01*
X9600539Y-18886960D02*
X9591015Y-18896484D01*
X9591015Y-18896484D02*
X9581491Y-18886960D01*
X9581491Y-18886960D02*
X9591015Y-18877436D01*
X9591015Y-18877436D02*
X9591015Y-18896484D01*
X9724348Y-18696484D02*
X9743396Y-18696484D01*
X9743396Y-18696484D02*
X9762444Y-18706008D01*
X9762444Y-18706008D02*
X9771968Y-18715531D01*
X9771968Y-18715531D02*
X9781491Y-18734579D01*
X9781491Y-18734579D02*
X9791015Y-18772674D01*
X9791015Y-18772674D02*
X9791015Y-18820293D01*
X9791015Y-18820293D02*
X9781491Y-18858389D01*
X9781491Y-18858389D02*
X9771968Y-18877436D01*
X9771968Y-18877436D02*
X9762444Y-18886960D01*
X9762444Y-18886960D02*
X9743396Y-18896484D01*
X9743396Y-18896484D02*
X9724348Y-18896484D01*
X9724348Y-18896484D02*
X9705301Y-18886960D01*
X9705301Y-18886960D02*
X9695777Y-18877436D01*
X9695777Y-18877436D02*
X9686253Y-18858389D01*
X9686253Y-18858389D02*
X9676729Y-18820293D01*
X9676729Y-18820293D02*
X9676729Y-18772674D01*
X9676729Y-18772674D02*
X9686253Y-18734579D01*
X9686253Y-18734579D02*
X9695777Y-18715531D01*
X9695777Y-18715531D02*
X9705301Y-18706008D01*
X9705301Y-18706008D02*
X9724348Y-18696484D01*
X9914825Y-18696484D02*
X9933872Y-18696484D01*
X9933872Y-18696484D02*
X9952920Y-18706008D01*
X9952920Y-18706008D02*
X9962444Y-18715531D01*
X9962444Y-18715531D02*
X9971968Y-18734579D01*
X9971968Y-18734579D02*
X9981491Y-18772674D01*
X9981491Y-18772674D02*
X9981491Y-18820293D01*
X9981491Y-18820293D02*
X9971968Y-18858389D01*
X9971968Y-18858389D02*
X9962444Y-18877436D01*
X9962444Y-18877436D02*
X9952920Y-18886960D01*
X9952920Y-18886960D02*
X9933872Y-18896484D01*
X9933872Y-18896484D02*
X9914825Y-18896484D01*
X9914825Y-18896484D02*
X9895777Y-18886960D01*
X9895777Y-18886960D02*
X9886253Y-18877436D01*
X9886253Y-18877436D02*
X9876729Y-18858389D01*
X9876729Y-18858389D02*
X9867206Y-18820293D01*
X9867206Y-18820293D02*
X9867206Y-18772674D01*
X9867206Y-18772674D02*
X9876729Y-18734579D01*
X9876729Y-18734579D02*
X9886253Y-18715531D01*
X9886253Y-18715531D02*
X9895777Y-18706008D01*
X9895777Y-18706008D02*
X9914825Y-18696484D01*
X10048158Y-18696484D02*
X10181491Y-18696484D01*
X10181491Y-18696484D02*
X10095777Y-18896484D01*
X10267206Y-18896484D02*
X10305301Y-18896484D01*
X10305301Y-18896484D02*
X10324349Y-18886960D01*
X10324349Y-18886960D02*
X10333872Y-18877436D01*
X10333872Y-18877436D02*
X10352920Y-18848865D01*
X10352920Y-18848865D02*
X10362444Y-18810770D01*
X10362444Y-18810770D02*
X10362444Y-18734579D01*
X10362444Y-18734579D02*
X10352920Y-18715531D01*
X10352920Y-18715531D02*
X10343396Y-18706008D01*
X10343396Y-18706008D02*
X10324349Y-18696484D01*
X10324349Y-18696484D02*
X10286253Y-18696484D01*
X10286253Y-18696484D02*
X10267206Y-18706008D01*
X10267206Y-18706008D02*
X10257682Y-18715531D01*
X10257682Y-18715531D02*
X10248158Y-18734579D01*
X10248158Y-18734579D02*
X10248158Y-18782198D01*
X10248158Y-18782198D02*
X10257682Y-18801246D01*
X10257682Y-18801246D02*
X10267206Y-18810770D01*
X10267206Y-18810770D02*
X10286253Y-18820293D01*
X10286253Y-18820293D02*
X10324349Y-18820293D01*
X10324349Y-18820293D02*
X10343396Y-18810770D01*
X10343396Y-18810770D02*
X10352920Y-18801246D01*
X10352920Y-18801246D02*
X10362444Y-18782198D01*
X10438634Y-18696484D02*
X10438634Y-18734579D01*
X10514825Y-18696484D02*
X10514825Y-18734579D01*
X10810063Y-18972674D02*
X10800539Y-18963150D01*
X10800539Y-18963150D02*
X10781491Y-18934579D01*
X10781491Y-18934579D02*
X10771968Y-18915531D01*
X10771968Y-18915531D02*
X10762444Y-18886960D01*
X10762444Y-18886960D02*
X10752920Y-18839341D01*
X10752920Y-18839341D02*
X10752920Y-18801246D01*
X10752920Y-18801246D02*
X10762444Y-18753627D01*
X10762444Y-18753627D02*
X10771968Y-18725055D01*
X10771968Y-18725055D02*
X10781491Y-18706008D01*
X10781491Y-18706008D02*
X10800539Y-18677436D01*
X10800539Y-18677436D02*
X10810063Y-18667912D01*
X10991015Y-18896484D02*
X10876730Y-18896484D01*
X10933872Y-18896484D02*
X10933872Y-18696484D01*
X10933872Y-18696484D02*
X10914825Y-18725055D01*
X10914825Y-18725055D02*
X10895777Y-18744103D01*
X10895777Y-18744103D02*
X10876730Y-18753627D01*
X11114825Y-18696484D02*
X11133872Y-18696484D01*
X11133872Y-18696484D02*
X11152920Y-18706008D01*
X11152920Y-18706008D02*
X11162444Y-18715531D01*
X11162444Y-18715531D02*
X11171968Y-18734579D01*
X11171968Y-18734579D02*
X11181491Y-18772674D01*
X11181491Y-18772674D02*
X11181491Y-18820293D01*
X11181491Y-18820293D02*
X11171968Y-18858389D01*
X11171968Y-18858389D02*
X11162444Y-18877436D01*
X11162444Y-18877436D02*
X11152920Y-18886960D01*
X11152920Y-18886960D02*
X11133872Y-18896484D01*
X11133872Y-18896484D02*
X11114825Y-18896484D01*
X11114825Y-18896484D02*
X11095777Y-18886960D01*
X11095777Y-18886960D02*
X11086253Y-18877436D01*
X11086253Y-18877436D02*
X11076730Y-18858389D01*
X11076730Y-18858389D02*
X11067206Y-18820293D01*
X11067206Y-18820293D02*
X11067206Y-18772674D01*
X11067206Y-18772674D02*
X11076730Y-18734579D01*
X11076730Y-18734579D02*
X11086253Y-18715531D01*
X11086253Y-18715531D02*
X11095777Y-18706008D01*
X11095777Y-18706008D02*
X11114825Y-18696484D01*
X11248158Y-18696484D02*
X11381491Y-18696484D01*
X11381491Y-18696484D02*
X11295777Y-18896484D01*
X11610063Y-18896484D02*
X11610063Y-18696484D01*
X11695777Y-18896484D02*
X11695777Y-18791722D01*
X11695777Y-18791722D02*
X11686253Y-18772674D01*
X11686253Y-18772674D02*
X11667206Y-18763150D01*
X11667206Y-18763150D02*
X11638634Y-18763150D01*
X11638634Y-18763150D02*
X11619587Y-18772674D01*
X11619587Y-18772674D02*
X11610063Y-18782198D01*
X11819587Y-18896484D02*
X11800539Y-18886960D01*
X11800539Y-18886960D02*
X11791015Y-18877436D01*
X11791015Y-18877436D02*
X11781491Y-18858389D01*
X11781491Y-18858389D02*
X11781491Y-18801246D01*
X11781491Y-18801246D02*
X11791015Y-18782198D01*
X11791015Y-18782198D02*
X11800539Y-18772674D01*
X11800539Y-18772674D02*
X11819587Y-18763150D01*
X11819587Y-18763150D02*
X11848158Y-18763150D01*
X11848158Y-18763150D02*
X11867206Y-18772674D01*
X11867206Y-18772674D02*
X11876730Y-18782198D01*
X11876730Y-18782198D02*
X11886253Y-18801246D01*
X11886253Y-18801246D02*
X11886253Y-18858389D01*
X11886253Y-18858389D02*
X11876730Y-18877436D01*
X11876730Y-18877436D02*
X11867206Y-18886960D01*
X11867206Y-18886960D02*
X11848158Y-18896484D01*
X11848158Y-18896484D02*
X11819587Y-18896484D01*
X12000539Y-18896484D02*
X11981491Y-18886960D01*
X11981491Y-18886960D02*
X11971968Y-18867912D01*
X11971968Y-18867912D02*
X11971968Y-18696484D01*
X12152920Y-18886960D02*
X12133872Y-18896484D01*
X12133872Y-18896484D02*
X12095777Y-18896484D01*
X12095777Y-18896484D02*
X12076730Y-18886960D01*
X12076730Y-18886960D02*
X12067206Y-18867912D01*
X12067206Y-18867912D02*
X12067206Y-18791722D01*
X12067206Y-18791722D02*
X12076730Y-18772674D01*
X12076730Y-18772674D02*
X12095777Y-18763150D01*
X12095777Y-18763150D02*
X12133872Y-18763150D01*
X12133872Y-18763150D02*
X12152920Y-18772674D01*
X12152920Y-18772674D02*
X12162444Y-18791722D01*
X12162444Y-18791722D02*
X12162444Y-18810770D01*
X12162444Y-18810770D02*
X12067206Y-18829817D01*
X12238634Y-18886960D02*
X12257682Y-18896484D01*
X12257682Y-18896484D02*
X12295777Y-18896484D01*
X12295777Y-18896484D02*
X12314825Y-18886960D01*
X12314825Y-18886960D02*
X12324349Y-18867912D01*
X12324349Y-18867912D02*
X12324349Y-18858389D01*
X12324349Y-18858389D02*
X12314825Y-18839341D01*
X12314825Y-18839341D02*
X12295777Y-18829817D01*
X12295777Y-18829817D02*
X12267206Y-18829817D01*
X12267206Y-18829817D02*
X12248158Y-18820293D01*
X12248158Y-18820293D02*
X12238634Y-18801246D01*
X12238634Y-18801246D02*
X12238634Y-18791722D01*
X12238634Y-18791722D02*
X12248158Y-18772674D01*
X12248158Y-18772674D02*
X12267206Y-18763150D01*
X12267206Y-18763150D02*
X12295777Y-18763150D01*
X12295777Y-18763150D02*
X12314825Y-18772674D01*
X12391015Y-18972674D02*
X12400539Y-18963150D01*
X12400539Y-18963150D02*
X12419587Y-18934579D01*
X12419587Y-18934579D02*
X12429111Y-18915531D01*
X12429111Y-18915531D02*
X12438634Y-18886960D01*
X12438634Y-18886960D02*
X12448158Y-18839341D01*
X12448158Y-18839341D02*
X12448158Y-18801246D01*
X12448158Y-18801246D02*
X12438634Y-18753627D01*
X12438634Y-18753627D02*
X12429111Y-18725055D01*
X12429111Y-18725055D02*
X12419587Y-18706008D01*
X12419587Y-18706008D02*
X12400539Y-18677436D01*
X12400539Y-18677436D02*
X12391015Y-18667912D01*
D10*
X7235000Y-19069000D02*
G75*
G03*
X7215000Y-19069000I-10000J0D01*
G01*
X7215000Y-19069000D02*
G75*
G03*
X7235000Y-19069000I10000J0D01*
G01*
D11*
X7533872Y-18960484D02*
X7552920Y-18960484D01*
X7552920Y-18960484D02*
X7571967Y-18970008D01*
X7571967Y-18970008D02*
X7581491Y-18979531D01*
X7581491Y-18979531D02*
X7591015Y-18998579D01*
X7591015Y-18998579D02*
X7600539Y-19036674D01*
X7600539Y-19036674D02*
X7600539Y-19084293D01*
X7600539Y-19084293D02*
X7591015Y-19122389D01*
X7591015Y-19122389D02*
X7581491Y-19141436D01*
X7581491Y-19141436D02*
X7571967Y-19150960D01*
X7571967Y-19150960D02*
X7552920Y-19160484D01*
X7552920Y-19160484D02*
X7533872Y-19160484D01*
X7533872Y-19160484D02*
X7514824Y-19150960D01*
X7514824Y-19150960D02*
X7505301Y-19141436D01*
X7505301Y-19141436D02*
X7495777Y-19122389D01*
X7495777Y-19122389D02*
X7486253Y-19084293D01*
X7486253Y-19084293D02*
X7486253Y-19036674D01*
X7486253Y-19036674D02*
X7495777Y-18998579D01*
X7495777Y-18998579D02*
X7505301Y-18979531D01*
X7505301Y-18979531D02*
X7514824Y-18970008D01*
X7514824Y-18970008D02*
X7533872Y-18960484D01*
X7686253Y-19141436D02*
X7695777Y-19150960D01*
X7695777Y-19150960D02*
X7686253Y-19160484D01*
X7686253Y-19160484D02*
X7676729Y-19150960D01*
X7676729Y-19150960D02*
X7686253Y-19141436D01*
X7686253Y-19141436D02*
X7686253Y-19160484D01*
X7771967Y-18979531D02*
X7781491Y-18970008D01*
X7781491Y-18970008D02*
X7800539Y-18960484D01*
X7800539Y-18960484D02*
X7848158Y-18960484D01*
X7848158Y-18960484D02*
X7867205Y-18970008D01*
X7867205Y-18970008D02*
X7876729Y-18979531D01*
X7876729Y-18979531D02*
X7886253Y-18998579D01*
X7886253Y-18998579D02*
X7886253Y-19017627D01*
X7886253Y-19017627D02*
X7876729Y-19046198D01*
X7876729Y-19046198D02*
X7762443Y-19160484D01*
X7762443Y-19160484D02*
X7886253Y-19160484D01*
X8010062Y-18960484D02*
X8029110Y-18960484D01*
X8029110Y-18960484D02*
X8048158Y-18970008D01*
X8048158Y-18970008D02*
X8057682Y-18979531D01*
X8057682Y-18979531D02*
X8067205Y-18998579D01*
X8067205Y-18998579D02*
X8076729Y-19036674D01*
X8076729Y-19036674D02*
X8076729Y-19084293D01*
X8076729Y-19084293D02*
X8067205Y-19122389D01*
X8067205Y-19122389D02*
X8057682Y-19141436D01*
X8057682Y-19141436D02*
X8048158Y-19150960D01*
X8048158Y-19150960D02*
X8029110Y-19160484D01*
X8029110Y-19160484D02*
X8010062Y-19160484D01*
X8010062Y-19160484D02*
X7991015Y-19150960D01*
X7991015Y-19150960D02*
X7981491Y-19141436D01*
X7981491Y-19141436D02*
X7971967Y-19122389D01*
X7971967Y-19122389D02*
X7962443Y-19084293D01*
X7962443Y-19084293D02*
X7962443Y-19036674D01*
X7962443Y-19036674D02*
X7971967Y-18998579D01*
X7971967Y-18998579D02*
X7981491Y-18979531D01*
X7981491Y-18979531D02*
X7991015Y-18970008D01*
X7991015Y-18970008D02*
X8010062Y-18960484D01*
X8200539Y-18960484D02*
X8219586Y-18960484D01*
X8219586Y-18960484D02*
X8238634Y-18970008D01*
X8238634Y-18970008D02*
X8248158Y-18979531D01*
X8248158Y-18979531D02*
X8257682Y-18998579D01*
X8257682Y-18998579D02*
X8267205Y-19036674D01*
X8267205Y-19036674D02*
X8267205Y-19084293D01*
X8267205Y-19084293D02*
X8257682Y-19122389D01*
X8257682Y-19122389D02*
X8248158Y-19141436D01*
X8248158Y-19141436D02*
X8238634Y-19150960D01*
X8238634Y-19150960D02*
X8219586Y-19160484D01*
X8219586Y-19160484D02*
X8200539Y-19160484D01*
X8200539Y-19160484D02*
X8181491Y-19150960D01*
X8181491Y-19150960D02*
X8171967Y-19141436D01*
X8171967Y-19141436D02*
X8162443Y-19122389D01*
X8162443Y-19122389D02*
X8152920Y-19084293D01*
X8152920Y-19084293D02*
X8152920Y-19036674D01*
X8152920Y-19036674D02*
X8162443Y-18998579D01*
X8162443Y-18998579D02*
X8171967Y-18979531D01*
X8171967Y-18979531D02*
X8181491Y-18970008D01*
X8181491Y-18970008D02*
X8200539Y-18960484D01*
X8352920Y-19160484D02*
X8352920Y-19027150D01*
X8352920Y-19046198D02*
X8362443Y-19036674D01*
X8362443Y-19036674D02*
X8381491Y-19027150D01*
X8381491Y-19027150D02*
X8410063Y-19027150D01*
X8410063Y-19027150D02*
X8429110Y-19036674D01*
X8429110Y-19036674D02*
X8438634Y-19055722D01*
X8438634Y-19055722D02*
X8438634Y-19160484D01*
X8438634Y-19055722D02*
X8448158Y-19036674D01*
X8448158Y-19036674D02*
X8467205Y-19027150D01*
X8467205Y-19027150D02*
X8495777Y-19027150D01*
X8495777Y-19027150D02*
X8514825Y-19036674D01*
X8514825Y-19036674D02*
X8524348Y-19055722D01*
X8524348Y-19055722D02*
X8524348Y-19160484D01*
X8619586Y-19160484D02*
X8619586Y-19027150D01*
X8619586Y-19046198D02*
X8629110Y-19036674D01*
X8629110Y-19036674D02*
X8648158Y-19027150D01*
X8648158Y-19027150D02*
X8676729Y-19027150D01*
X8676729Y-19027150D02*
X8695777Y-19036674D01*
X8695777Y-19036674D02*
X8705301Y-19055722D01*
X8705301Y-19055722D02*
X8705301Y-19160484D01*
X8705301Y-19055722D02*
X8714825Y-19036674D01*
X8714825Y-19036674D02*
X8733872Y-19027150D01*
X8733872Y-19027150D02*
X8762444Y-19027150D01*
X8762444Y-19027150D02*
X8781491Y-19036674D01*
X8781491Y-19036674D02*
X8791015Y-19055722D01*
X8791015Y-19055722D02*
X8791015Y-19160484D01*
X9181491Y-18950960D02*
X9010063Y-19208103D01*
X9438634Y-18960484D02*
X9457682Y-18960484D01*
X9457682Y-18960484D02*
X9476729Y-18970008D01*
X9476729Y-18970008D02*
X9486253Y-18979531D01*
X9486253Y-18979531D02*
X9495777Y-18998579D01*
X9495777Y-18998579D02*
X9505301Y-19036674D01*
X9505301Y-19036674D02*
X9505301Y-19084293D01*
X9505301Y-19084293D02*
X9495777Y-19122389D01*
X9495777Y-19122389D02*
X9486253Y-19141436D01*
X9486253Y-19141436D02*
X9476729Y-19150960D01*
X9476729Y-19150960D02*
X9457682Y-19160484D01*
X9457682Y-19160484D02*
X9438634Y-19160484D01*
X9438634Y-19160484D02*
X9419587Y-19150960D01*
X9419587Y-19150960D02*
X9410063Y-19141436D01*
X9410063Y-19141436D02*
X9400539Y-19122389D01*
X9400539Y-19122389D02*
X9391015Y-19084293D01*
X9391015Y-19084293D02*
X9391015Y-19036674D01*
X9391015Y-19036674D02*
X9400539Y-18998579D01*
X9400539Y-18998579D02*
X9410063Y-18979531D01*
X9410063Y-18979531D02*
X9419587Y-18970008D01*
X9419587Y-18970008D02*
X9438634Y-18960484D01*
X9591015Y-19141436D02*
X9600539Y-19150960D01*
X9600539Y-19150960D02*
X9591015Y-19160484D01*
X9591015Y-19160484D02*
X9581491Y-19150960D01*
X9581491Y-19150960D02*
X9591015Y-19141436D01*
X9591015Y-19141436D02*
X9591015Y-19160484D01*
X9724348Y-18960484D02*
X9743396Y-18960484D01*
X9743396Y-18960484D02*
X9762444Y-18970008D01*
X9762444Y-18970008D02*
X9771968Y-18979531D01*
X9771968Y-18979531D02*
X9781491Y-18998579D01*
X9781491Y-18998579D02*
X9791015Y-19036674D01*
X9791015Y-19036674D02*
X9791015Y-19084293D01*
X9791015Y-19084293D02*
X9781491Y-19122389D01*
X9781491Y-19122389D02*
X9771968Y-19141436D01*
X9771968Y-19141436D02*
X9762444Y-19150960D01*
X9762444Y-19150960D02*
X9743396Y-19160484D01*
X9743396Y-19160484D02*
X9724348Y-19160484D01*
X9724348Y-19160484D02*
X9705301Y-19150960D01*
X9705301Y-19150960D02*
X9695777Y-19141436D01*
X9695777Y-19141436D02*
X9686253Y-19122389D01*
X9686253Y-19122389D02*
X9676729Y-19084293D01*
X9676729Y-19084293D02*
X9676729Y-19036674D01*
X9676729Y-19036674D02*
X9686253Y-18998579D01*
X9686253Y-18998579D02*
X9695777Y-18979531D01*
X9695777Y-18979531D02*
X9705301Y-18970008D01*
X9705301Y-18970008D02*
X9724348Y-18960484D01*
X9914825Y-18960484D02*
X9933872Y-18960484D01*
X9933872Y-18960484D02*
X9952920Y-18970008D01*
X9952920Y-18970008D02*
X9962444Y-18979531D01*
X9962444Y-18979531D02*
X9971968Y-18998579D01*
X9971968Y-18998579D02*
X9981491Y-19036674D01*
X9981491Y-19036674D02*
X9981491Y-19084293D01*
X9981491Y-19084293D02*
X9971968Y-19122389D01*
X9971968Y-19122389D02*
X9962444Y-19141436D01*
X9962444Y-19141436D02*
X9952920Y-19150960D01*
X9952920Y-19150960D02*
X9933872Y-19160484D01*
X9933872Y-19160484D02*
X9914825Y-19160484D01*
X9914825Y-19160484D02*
X9895777Y-19150960D01*
X9895777Y-19150960D02*
X9886253Y-19141436D01*
X9886253Y-19141436D02*
X9876729Y-19122389D01*
X9876729Y-19122389D02*
X9867206Y-19084293D01*
X9867206Y-19084293D02*
X9867206Y-19036674D01*
X9867206Y-19036674D02*
X9876729Y-18998579D01*
X9876729Y-18998579D02*
X9886253Y-18979531D01*
X9886253Y-18979531D02*
X9895777Y-18970008D01*
X9895777Y-18970008D02*
X9914825Y-18960484D01*
X10048158Y-18960484D02*
X10181491Y-18960484D01*
X10181491Y-18960484D02*
X10095777Y-19160484D01*
X10267206Y-19160484D02*
X10305301Y-19160484D01*
X10305301Y-19160484D02*
X10324349Y-19150960D01*
X10324349Y-19150960D02*
X10333872Y-19141436D01*
X10333872Y-19141436D02*
X10352920Y-19112865D01*
X10352920Y-19112865D02*
X10362444Y-19074770D01*
X10362444Y-19074770D02*
X10362444Y-18998579D01*
X10362444Y-18998579D02*
X10352920Y-18979531D01*
X10352920Y-18979531D02*
X10343396Y-18970008D01*
X10343396Y-18970008D02*
X10324349Y-18960484D01*
X10324349Y-18960484D02*
X10286253Y-18960484D01*
X10286253Y-18960484D02*
X10267206Y-18970008D01*
X10267206Y-18970008D02*
X10257682Y-18979531D01*
X10257682Y-18979531D02*
X10248158Y-18998579D01*
X10248158Y-18998579D02*
X10248158Y-19046198D01*
X10248158Y-19046198D02*
X10257682Y-19065246D01*
X10257682Y-19065246D02*
X10267206Y-19074770D01*
X10267206Y-19074770D02*
X10286253Y-19084293D01*
X10286253Y-19084293D02*
X10324349Y-19084293D01*
X10324349Y-19084293D02*
X10343396Y-19074770D01*
X10343396Y-19074770D02*
X10352920Y-19065246D01*
X10352920Y-19065246D02*
X10362444Y-19046198D01*
X10438634Y-18960484D02*
X10438634Y-18998579D01*
X10514825Y-18960484D02*
X10514825Y-18998579D01*
X10810063Y-19236674D02*
X10800539Y-19227150D01*
X10800539Y-19227150D02*
X10781491Y-19198579D01*
X10781491Y-19198579D02*
X10771968Y-19179531D01*
X10771968Y-19179531D02*
X10762444Y-19150960D01*
X10762444Y-19150960D02*
X10752920Y-19103341D01*
X10752920Y-19103341D02*
X10752920Y-19065246D01*
X10752920Y-19065246D02*
X10762444Y-19017627D01*
X10762444Y-19017627D02*
X10771968Y-18989055D01*
X10771968Y-18989055D02*
X10781491Y-18970008D01*
X10781491Y-18970008D02*
X10800539Y-18941436D01*
X10800539Y-18941436D02*
X10810063Y-18931912D01*
X10867206Y-18960484D02*
X11000539Y-18960484D01*
X11000539Y-18960484D02*
X10914825Y-19160484D01*
X11229110Y-19160484D02*
X11229110Y-18960484D01*
X11314825Y-19160484D02*
X11314825Y-19055722D01*
X11314825Y-19055722D02*
X11305301Y-19036674D01*
X11305301Y-19036674D02*
X11286253Y-19027150D01*
X11286253Y-19027150D02*
X11257682Y-19027150D01*
X11257682Y-19027150D02*
X11238634Y-19036674D01*
X11238634Y-19036674D02*
X11229110Y-19046198D01*
X11438634Y-19160484D02*
X11419587Y-19150960D01*
X11419587Y-19150960D02*
X11410063Y-19141436D01*
X11410063Y-19141436D02*
X11400539Y-19122389D01*
X11400539Y-19122389D02*
X11400539Y-19065246D01*
X11400539Y-19065246D02*
X11410063Y-19046198D01*
X11410063Y-19046198D02*
X11419587Y-19036674D01*
X11419587Y-19036674D02*
X11438634Y-19027150D01*
X11438634Y-19027150D02*
X11467206Y-19027150D01*
X11467206Y-19027150D02*
X11486253Y-19036674D01*
X11486253Y-19036674D02*
X11495777Y-19046198D01*
X11495777Y-19046198D02*
X11505301Y-19065246D01*
X11505301Y-19065246D02*
X11505301Y-19122389D01*
X11505301Y-19122389D02*
X11495777Y-19141436D01*
X11495777Y-19141436D02*
X11486253Y-19150960D01*
X11486253Y-19150960D02*
X11467206Y-19160484D01*
X11467206Y-19160484D02*
X11438634Y-19160484D01*
X11619587Y-19160484D02*
X11600539Y-19150960D01*
X11600539Y-19150960D02*
X11591015Y-19131912D01*
X11591015Y-19131912D02*
X11591015Y-18960484D01*
X11771968Y-19150960D02*
X11752920Y-19160484D01*
X11752920Y-19160484D02*
X11714825Y-19160484D01*
X11714825Y-19160484D02*
X11695777Y-19150960D01*
X11695777Y-19150960D02*
X11686253Y-19131912D01*
X11686253Y-19131912D02*
X11686253Y-19055722D01*
X11686253Y-19055722D02*
X11695777Y-19036674D01*
X11695777Y-19036674D02*
X11714825Y-19027150D01*
X11714825Y-19027150D02*
X11752920Y-19027150D01*
X11752920Y-19027150D02*
X11771968Y-19036674D01*
X11771968Y-19036674D02*
X11781491Y-19055722D01*
X11781491Y-19055722D02*
X11781491Y-19074770D01*
X11781491Y-19074770D02*
X11686253Y-19093817D01*
X11857682Y-19150960D02*
X11876730Y-19160484D01*
X11876730Y-19160484D02*
X11914825Y-19160484D01*
X11914825Y-19160484D02*
X11933872Y-19150960D01*
X11933872Y-19150960D02*
X11943396Y-19131912D01*
X11943396Y-19131912D02*
X11943396Y-19122389D01*
X11943396Y-19122389D02*
X11933872Y-19103341D01*
X11933872Y-19103341D02*
X11914825Y-19093817D01*
X11914825Y-19093817D02*
X11886253Y-19093817D01*
X11886253Y-19093817D02*
X11867206Y-19084293D01*
X11867206Y-19084293D02*
X11857682Y-19065246D01*
X11857682Y-19065246D02*
X11857682Y-19055722D01*
X11857682Y-19055722D02*
X11867206Y-19036674D01*
X11867206Y-19036674D02*
X11886253Y-19027150D01*
X11886253Y-19027150D02*
X11914825Y-19027150D01*
X11914825Y-19027150D02*
X11933872Y-19036674D01*
X12010063Y-19236674D02*
X12019587Y-19227150D01*
X12019587Y-19227150D02*
X12038634Y-19198579D01*
X12038634Y-19198579D02*
X12048158Y-19179531D01*
X12048158Y-19179531D02*
X12057682Y-19150960D01*
X12057682Y-19150960D02*
X12067206Y-19103341D01*
X12067206Y-19103341D02*
X12067206Y-19065246D01*
X12067206Y-19065246D02*
X12057682Y-19017627D01*
X12057682Y-19017627D02*
X12048158Y-18989055D01*
X12048158Y-18989055D02*
X12038634Y-18970008D01*
X12038634Y-18970008D02*
X12019587Y-18941436D01*
X12019587Y-18941436D02*
X12010063Y-18931912D01*
D10*
X7222500Y-19320500D02*
X7222500Y-19345500D01*
X7210000Y-19333000D02*
X7235000Y-19333000D01*
D11*
X7533872Y-19224484D02*
X7552920Y-19224484D01*
X7552920Y-19224484D02*
X7571967Y-19234008D01*
X7571967Y-19234008D02*
X7581491Y-19243531D01*
X7581491Y-19243531D02*
X7591015Y-19262579D01*
X7591015Y-19262579D02*
X7600539Y-19300674D01*
X7600539Y-19300674D02*
X7600539Y-19348293D01*
X7600539Y-19348293D02*
X7591015Y-19386389D01*
X7591015Y-19386389D02*
X7581491Y-19405436D01*
X7581491Y-19405436D02*
X7571967Y-19414960D01*
X7571967Y-19414960D02*
X7552920Y-19424484D01*
X7552920Y-19424484D02*
X7533872Y-19424484D01*
X7533872Y-19424484D02*
X7514824Y-19414960D01*
X7514824Y-19414960D02*
X7505301Y-19405436D01*
X7505301Y-19405436D02*
X7495777Y-19386389D01*
X7495777Y-19386389D02*
X7486253Y-19348293D01*
X7486253Y-19348293D02*
X7486253Y-19300674D01*
X7486253Y-19300674D02*
X7495777Y-19262579D01*
X7495777Y-19262579D02*
X7505301Y-19243531D01*
X7505301Y-19243531D02*
X7514824Y-19234008D01*
X7514824Y-19234008D02*
X7533872Y-19224484D01*
X7686253Y-19405436D02*
X7695777Y-19414960D01*
X7695777Y-19414960D02*
X7686253Y-19424484D01*
X7686253Y-19424484D02*
X7676729Y-19414960D01*
X7676729Y-19414960D02*
X7686253Y-19405436D01*
X7686253Y-19405436D02*
X7686253Y-19424484D01*
X7771967Y-19243531D02*
X7781491Y-19234008D01*
X7781491Y-19234008D02*
X7800539Y-19224484D01*
X7800539Y-19224484D02*
X7848158Y-19224484D01*
X7848158Y-19224484D02*
X7867205Y-19234008D01*
X7867205Y-19234008D02*
X7876729Y-19243531D01*
X7876729Y-19243531D02*
X7886253Y-19262579D01*
X7886253Y-19262579D02*
X7886253Y-19281627D01*
X7886253Y-19281627D02*
X7876729Y-19310198D01*
X7876729Y-19310198D02*
X7762443Y-19424484D01*
X7762443Y-19424484D02*
X7886253Y-19424484D01*
X8067205Y-19224484D02*
X7971967Y-19224484D01*
X7971967Y-19224484D02*
X7962443Y-19319722D01*
X7962443Y-19319722D02*
X7971967Y-19310198D01*
X7971967Y-19310198D02*
X7991015Y-19300674D01*
X7991015Y-19300674D02*
X8038634Y-19300674D01*
X8038634Y-19300674D02*
X8057682Y-19310198D01*
X8057682Y-19310198D02*
X8067205Y-19319722D01*
X8067205Y-19319722D02*
X8076729Y-19338770D01*
X8076729Y-19338770D02*
X8076729Y-19386389D01*
X8076729Y-19386389D02*
X8067205Y-19405436D01*
X8067205Y-19405436D02*
X8057682Y-19414960D01*
X8057682Y-19414960D02*
X8038634Y-19424484D01*
X8038634Y-19424484D02*
X7991015Y-19424484D01*
X7991015Y-19424484D02*
X7971967Y-19414960D01*
X7971967Y-19414960D02*
X7962443Y-19405436D01*
X8200539Y-19224484D02*
X8219586Y-19224484D01*
X8219586Y-19224484D02*
X8238634Y-19234008D01*
X8238634Y-19234008D02*
X8248158Y-19243531D01*
X8248158Y-19243531D02*
X8257682Y-19262579D01*
X8257682Y-19262579D02*
X8267205Y-19300674D01*
X8267205Y-19300674D02*
X8267205Y-19348293D01*
X8267205Y-19348293D02*
X8257682Y-19386389D01*
X8257682Y-19386389D02*
X8248158Y-19405436D01*
X8248158Y-19405436D02*
X8238634Y-19414960D01*
X8238634Y-19414960D02*
X8219586Y-19424484D01*
X8219586Y-19424484D02*
X8200539Y-19424484D01*
X8200539Y-19424484D02*
X8181491Y-19414960D01*
X8181491Y-19414960D02*
X8171967Y-19405436D01*
X8171967Y-19405436D02*
X8162443Y-19386389D01*
X8162443Y-19386389D02*
X8152920Y-19348293D01*
X8152920Y-19348293D02*
X8152920Y-19300674D01*
X8152920Y-19300674D02*
X8162443Y-19262579D01*
X8162443Y-19262579D02*
X8171967Y-19243531D01*
X8171967Y-19243531D02*
X8181491Y-19234008D01*
X8181491Y-19234008D02*
X8200539Y-19224484D01*
X8352920Y-19424484D02*
X8352920Y-19291150D01*
X8352920Y-19310198D02*
X8362443Y-19300674D01*
X8362443Y-19300674D02*
X8381491Y-19291150D01*
X8381491Y-19291150D02*
X8410063Y-19291150D01*
X8410063Y-19291150D02*
X8429110Y-19300674D01*
X8429110Y-19300674D02*
X8438634Y-19319722D01*
X8438634Y-19319722D02*
X8438634Y-19424484D01*
X8438634Y-19319722D02*
X8448158Y-19300674D01*
X8448158Y-19300674D02*
X8467205Y-19291150D01*
X8467205Y-19291150D02*
X8495777Y-19291150D01*
X8495777Y-19291150D02*
X8514825Y-19300674D01*
X8514825Y-19300674D02*
X8524348Y-19319722D01*
X8524348Y-19319722D02*
X8524348Y-19424484D01*
X8619586Y-19424484D02*
X8619586Y-19291150D01*
X8619586Y-19310198D02*
X8629110Y-19300674D01*
X8629110Y-19300674D02*
X8648158Y-19291150D01*
X8648158Y-19291150D02*
X8676729Y-19291150D01*
X8676729Y-19291150D02*
X8695777Y-19300674D01*
X8695777Y-19300674D02*
X8705301Y-19319722D01*
X8705301Y-19319722D02*
X8705301Y-19424484D01*
X8705301Y-19319722D02*
X8714825Y-19300674D01*
X8714825Y-19300674D02*
X8733872Y-19291150D01*
X8733872Y-19291150D02*
X8762444Y-19291150D01*
X8762444Y-19291150D02*
X8781491Y-19300674D01*
X8781491Y-19300674D02*
X8791015Y-19319722D01*
X8791015Y-19319722D02*
X8791015Y-19424484D01*
X9181491Y-19214960D02*
X9010063Y-19472103D01*
X9438634Y-19224484D02*
X9457682Y-19224484D01*
X9457682Y-19224484D02*
X9476729Y-19234008D01*
X9476729Y-19234008D02*
X9486253Y-19243531D01*
X9486253Y-19243531D02*
X9495777Y-19262579D01*
X9495777Y-19262579D02*
X9505301Y-19300674D01*
X9505301Y-19300674D02*
X9505301Y-19348293D01*
X9505301Y-19348293D02*
X9495777Y-19386389D01*
X9495777Y-19386389D02*
X9486253Y-19405436D01*
X9486253Y-19405436D02*
X9476729Y-19414960D01*
X9476729Y-19414960D02*
X9457682Y-19424484D01*
X9457682Y-19424484D02*
X9438634Y-19424484D01*
X9438634Y-19424484D02*
X9419587Y-19414960D01*
X9419587Y-19414960D02*
X9410063Y-19405436D01*
X9410063Y-19405436D02*
X9400539Y-19386389D01*
X9400539Y-19386389D02*
X9391015Y-19348293D01*
X9391015Y-19348293D02*
X9391015Y-19300674D01*
X9391015Y-19300674D02*
X9400539Y-19262579D01*
X9400539Y-19262579D02*
X9410063Y-19243531D01*
X9410063Y-19243531D02*
X9419587Y-19234008D01*
X9419587Y-19234008D02*
X9438634Y-19224484D01*
X9591015Y-19405436D02*
X9600539Y-19414960D01*
X9600539Y-19414960D02*
X9591015Y-19424484D01*
X9591015Y-19424484D02*
X9581491Y-19414960D01*
X9581491Y-19414960D02*
X9591015Y-19405436D01*
X9591015Y-19405436D02*
X9591015Y-19424484D01*
X9724348Y-19224484D02*
X9743396Y-19224484D01*
X9743396Y-19224484D02*
X9762444Y-19234008D01*
X9762444Y-19234008D02*
X9771968Y-19243531D01*
X9771968Y-19243531D02*
X9781491Y-19262579D01*
X9781491Y-19262579D02*
X9791015Y-19300674D01*
X9791015Y-19300674D02*
X9791015Y-19348293D01*
X9791015Y-19348293D02*
X9781491Y-19386389D01*
X9781491Y-19386389D02*
X9771968Y-19405436D01*
X9771968Y-19405436D02*
X9762444Y-19414960D01*
X9762444Y-19414960D02*
X9743396Y-19424484D01*
X9743396Y-19424484D02*
X9724348Y-19424484D01*
X9724348Y-19424484D02*
X9705301Y-19414960D01*
X9705301Y-19414960D02*
X9695777Y-19405436D01*
X9695777Y-19405436D02*
X9686253Y-19386389D01*
X9686253Y-19386389D02*
X9676729Y-19348293D01*
X9676729Y-19348293D02*
X9676729Y-19300674D01*
X9676729Y-19300674D02*
X9686253Y-19262579D01*
X9686253Y-19262579D02*
X9695777Y-19243531D01*
X9695777Y-19243531D02*
X9705301Y-19234008D01*
X9705301Y-19234008D02*
X9724348Y-19224484D01*
X9914825Y-19224484D02*
X9933872Y-19224484D01*
X9933872Y-19224484D02*
X9952920Y-19234008D01*
X9952920Y-19234008D02*
X9962444Y-19243531D01*
X9962444Y-19243531D02*
X9971968Y-19262579D01*
X9971968Y-19262579D02*
X9981491Y-19300674D01*
X9981491Y-19300674D02*
X9981491Y-19348293D01*
X9981491Y-19348293D02*
X9971968Y-19386389D01*
X9971968Y-19386389D02*
X9962444Y-19405436D01*
X9962444Y-19405436D02*
X9952920Y-19414960D01*
X9952920Y-19414960D02*
X9933872Y-19424484D01*
X9933872Y-19424484D02*
X9914825Y-19424484D01*
X9914825Y-19424484D02*
X9895777Y-19414960D01*
X9895777Y-19414960D02*
X9886253Y-19405436D01*
X9886253Y-19405436D02*
X9876729Y-19386389D01*
X9876729Y-19386389D02*
X9867206Y-19348293D01*
X9867206Y-19348293D02*
X9867206Y-19300674D01*
X9867206Y-19300674D02*
X9876729Y-19262579D01*
X9876729Y-19262579D02*
X9886253Y-19243531D01*
X9886253Y-19243531D02*
X9895777Y-19234008D01*
X9895777Y-19234008D02*
X9914825Y-19224484D01*
X10076729Y-19424484D02*
X10114825Y-19424484D01*
X10114825Y-19424484D02*
X10133872Y-19414960D01*
X10133872Y-19414960D02*
X10143396Y-19405436D01*
X10143396Y-19405436D02*
X10162444Y-19376865D01*
X10162444Y-19376865D02*
X10171968Y-19338770D01*
X10171968Y-19338770D02*
X10171968Y-19262579D01*
X10171968Y-19262579D02*
X10162444Y-19243531D01*
X10162444Y-19243531D02*
X10152920Y-19234008D01*
X10152920Y-19234008D02*
X10133872Y-19224484D01*
X10133872Y-19224484D02*
X10095777Y-19224484D01*
X10095777Y-19224484D02*
X10076729Y-19234008D01*
X10076729Y-19234008D02*
X10067206Y-19243531D01*
X10067206Y-19243531D02*
X10057682Y-19262579D01*
X10057682Y-19262579D02*
X10057682Y-19310198D01*
X10057682Y-19310198D02*
X10067206Y-19329246D01*
X10067206Y-19329246D02*
X10076729Y-19338770D01*
X10076729Y-19338770D02*
X10095777Y-19348293D01*
X10095777Y-19348293D02*
X10133872Y-19348293D01*
X10133872Y-19348293D02*
X10152920Y-19338770D01*
X10152920Y-19338770D02*
X10162444Y-19329246D01*
X10162444Y-19329246D02*
X10171968Y-19310198D01*
X10286253Y-19310198D02*
X10267206Y-19300674D01*
X10267206Y-19300674D02*
X10257682Y-19291150D01*
X10257682Y-19291150D02*
X10248158Y-19272103D01*
X10248158Y-19272103D02*
X10248158Y-19262579D01*
X10248158Y-19262579D02*
X10257682Y-19243531D01*
X10257682Y-19243531D02*
X10267206Y-19234008D01*
X10267206Y-19234008D02*
X10286253Y-19224484D01*
X10286253Y-19224484D02*
X10324349Y-19224484D01*
X10324349Y-19224484D02*
X10343396Y-19234008D01*
X10343396Y-19234008D02*
X10352920Y-19243531D01*
X10352920Y-19243531D02*
X10362444Y-19262579D01*
X10362444Y-19262579D02*
X10362444Y-19272103D01*
X10362444Y-19272103D02*
X10352920Y-19291150D01*
X10352920Y-19291150D02*
X10343396Y-19300674D01*
X10343396Y-19300674D02*
X10324349Y-19310198D01*
X10324349Y-19310198D02*
X10286253Y-19310198D01*
X10286253Y-19310198D02*
X10267206Y-19319722D01*
X10267206Y-19319722D02*
X10257682Y-19329246D01*
X10257682Y-19329246D02*
X10248158Y-19348293D01*
X10248158Y-19348293D02*
X10248158Y-19386389D01*
X10248158Y-19386389D02*
X10257682Y-19405436D01*
X10257682Y-19405436D02*
X10267206Y-19414960D01*
X10267206Y-19414960D02*
X10286253Y-19424484D01*
X10286253Y-19424484D02*
X10324349Y-19424484D01*
X10324349Y-19424484D02*
X10343396Y-19414960D01*
X10343396Y-19414960D02*
X10352920Y-19405436D01*
X10352920Y-19405436D02*
X10362444Y-19386389D01*
X10362444Y-19386389D02*
X10362444Y-19348293D01*
X10362444Y-19348293D02*
X10352920Y-19329246D01*
X10352920Y-19329246D02*
X10343396Y-19319722D01*
X10343396Y-19319722D02*
X10324349Y-19310198D01*
X10438634Y-19224484D02*
X10438634Y-19262579D01*
X10514825Y-19224484D02*
X10514825Y-19262579D01*
X10810063Y-19500674D02*
X10800539Y-19491150D01*
X10800539Y-19491150D02*
X10781491Y-19462579D01*
X10781491Y-19462579D02*
X10771968Y-19443531D01*
X10771968Y-19443531D02*
X10762444Y-19414960D01*
X10762444Y-19414960D02*
X10752920Y-19367341D01*
X10752920Y-19367341D02*
X10752920Y-19329246D01*
X10752920Y-19329246D02*
X10762444Y-19281627D01*
X10762444Y-19281627D02*
X10771968Y-19253055D01*
X10771968Y-19253055D02*
X10781491Y-19234008D01*
X10781491Y-19234008D02*
X10800539Y-19205436D01*
X10800539Y-19205436D02*
X10810063Y-19195912D01*
X10867206Y-19224484D02*
X10991015Y-19224484D01*
X10991015Y-19224484D02*
X10924349Y-19300674D01*
X10924349Y-19300674D02*
X10952920Y-19300674D01*
X10952920Y-19300674D02*
X10971968Y-19310198D01*
X10971968Y-19310198D02*
X10981491Y-19319722D01*
X10981491Y-19319722D02*
X10991015Y-19338770D01*
X10991015Y-19338770D02*
X10991015Y-19386389D01*
X10991015Y-19386389D02*
X10981491Y-19405436D01*
X10981491Y-19405436D02*
X10971968Y-19414960D01*
X10971968Y-19414960D02*
X10952920Y-19424484D01*
X10952920Y-19424484D02*
X10895777Y-19424484D01*
X10895777Y-19424484D02*
X10876730Y-19414960D01*
X10876730Y-19414960D02*
X10867206Y-19405436D01*
X11162444Y-19224484D02*
X11124349Y-19224484D01*
X11124349Y-19224484D02*
X11105301Y-19234008D01*
X11105301Y-19234008D02*
X11095777Y-19243531D01*
X11095777Y-19243531D02*
X11076730Y-19272103D01*
X11076730Y-19272103D02*
X11067206Y-19310198D01*
X11067206Y-19310198D02*
X11067206Y-19386389D01*
X11067206Y-19386389D02*
X11076730Y-19405436D01*
X11076730Y-19405436D02*
X11086253Y-19414960D01*
X11086253Y-19414960D02*
X11105301Y-19424484D01*
X11105301Y-19424484D02*
X11143396Y-19424484D01*
X11143396Y-19424484D02*
X11162444Y-19414960D01*
X11162444Y-19414960D02*
X11171968Y-19405436D01*
X11171968Y-19405436D02*
X11181491Y-19386389D01*
X11181491Y-19386389D02*
X11181491Y-19338770D01*
X11181491Y-19338770D02*
X11171968Y-19319722D01*
X11171968Y-19319722D02*
X11162444Y-19310198D01*
X11162444Y-19310198D02*
X11143396Y-19300674D01*
X11143396Y-19300674D02*
X11105301Y-19300674D01*
X11105301Y-19300674D02*
X11086253Y-19310198D01*
X11086253Y-19310198D02*
X11076730Y-19319722D01*
X11076730Y-19319722D02*
X11067206Y-19338770D01*
X11419587Y-19424484D02*
X11419587Y-19224484D01*
X11505301Y-19424484D02*
X11505301Y-19319722D01*
X11505301Y-19319722D02*
X11495777Y-19300674D01*
X11495777Y-19300674D02*
X11476730Y-19291150D01*
X11476730Y-19291150D02*
X11448158Y-19291150D01*
X11448158Y-19291150D02*
X11429110Y-19300674D01*
X11429110Y-19300674D02*
X11419587Y-19310198D01*
X11629110Y-19424484D02*
X11610063Y-19414960D01*
X11610063Y-19414960D02*
X11600539Y-19405436D01*
X11600539Y-19405436D02*
X11591015Y-19386389D01*
X11591015Y-19386389D02*
X11591015Y-19329246D01*
X11591015Y-19329246D02*
X11600539Y-19310198D01*
X11600539Y-19310198D02*
X11610063Y-19300674D01*
X11610063Y-19300674D02*
X11629110Y-19291150D01*
X11629110Y-19291150D02*
X11657682Y-19291150D01*
X11657682Y-19291150D02*
X11676730Y-19300674D01*
X11676730Y-19300674D02*
X11686253Y-19310198D01*
X11686253Y-19310198D02*
X11695777Y-19329246D01*
X11695777Y-19329246D02*
X11695777Y-19386389D01*
X11695777Y-19386389D02*
X11686253Y-19405436D01*
X11686253Y-19405436D02*
X11676730Y-19414960D01*
X11676730Y-19414960D02*
X11657682Y-19424484D01*
X11657682Y-19424484D02*
X11629110Y-19424484D01*
X11810063Y-19424484D02*
X11791015Y-19414960D01*
X11791015Y-19414960D02*
X11781491Y-19395912D01*
X11781491Y-19395912D02*
X11781491Y-19224484D01*
X11962444Y-19414960D02*
X11943396Y-19424484D01*
X11943396Y-19424484D02*
X11905301Y-19424484D01*
X11905301Y-19424484D02*
X11886253Y-19414960D01*
X11886253Y-19414960D02*
X11876730Y-19395912D01*
X11876730Y-19395912D02*
X11876730Y-19319722D01*
X11876730Y-19319722D02*
X11886253Y-19300674D01*
X11886253Y-19300674D02*
X11905301Y-19291150D01*
X11905301Y-19291150D02*
X11943396Y-19291150D01*
X11943396Y-19291150D02*
X11962444Y-19300674D01*
X11962444Y-19300674D02*
X11971968Y-19319722D01*
X11971968Y-19319722D02*
X11971968Y-19338770D01*
X11971968Y-19338770D02*
X11876730Y-19357817D01*
X12048158Y-19414960D02*
X12067206Y-19424484D01*
X12067206Y-19424484D02*
X12105301Y-19424484D01*
X12105301Y-19424484D02*
X12124349Y-19414960D01*
X12124349Y-19414960D02*
X12133872Y-19395912D01*
X12133872Y-19395912D02*
X12133872Y-19386389D01*
X12133872Y-19386389D02*
X12124349Y-19367341D01*
X12124349Y-19367341D02*
X12105301Y-19357817D01*
X12105301Y-19357817D02*
X12076730Y-19357817D01*
X12076730Y-19357817D02*
X12057682Y-19348293D01*
X12057682Y-19348293D02*
X12048158Y-19329246D01*
X12048158Y-19329246D02*
X12048158Y-19319722D01*
X12048158Y-19319722D02*
X12057682Y-19300674D01*
X12057682Y-19300674D02*
X12076730Y-19291150D01*
X12076730Y-19291150D02*
X12105301Y-19291150D01*
X12105301Y-19291150D02*
X12124349Y-19300674D01*
X12200539Y-19500674D02*
X12210063Y-19491150D01*
X12210063Y-19491150D02*
X12229111Y-19462579D01*
X12229111Y-19462579D02*
X12238634Y-19443531D01*
X12238634Y-19443531D02*
X12248158Y-19414960D01*
X12248158Y-19414960D02*
X12257682Y-19367341D01*
X12257682Y-19367341D02*
X12257682Y-19329246D01*
X12257682Y-19329246D02*
X12248158Y-19281627D01*
X12248158Y-19281627D02*
X12238634Y-19253055D01*
X12238634Y-19253055D02*
X12229111Y-19234008D01*
X12229111Y-19234008D02*
X12210063Y-19205436D01*
X12210063Y-19205436D02*
X12200539Y-19195912D01*
D10*
X7226213Y-19618213D02*
X7226213Y-19575787D01*
X7183787Y-19575787D01*
X7183787Y-19618213D01*
X7226213Y-19618213D01*
D11*
X7533872Y-19488484D02*
X7552920Y-19488484D01*
X7552920Y-19488484D02*
X7571967Y-19498008D01*
X7571967Y-19498008D02*
X7581491Y-19507531D01*
X7581491Y-19507531D02*
X7591015Y-19526579D01*
X7591015Y-19526579D02*
X7600539Y-19564674D01*
X7600539Y-19564674D02*
X7600539Y-19612293D01*
X7600539Y-19612293D02*
X7591015Y-19650389D01*
X7591015Y-19650389D02*
X7581491Y-19669436D01*
X7581491Y-19669436D02*
X7571967Y-19678960D01*
X7571967Y-19678960D02*
X7552920Y-19688484D01*
X7552920Y-19688484D02*
X7533872Y-19688484D01*
X7533872Y-19688484D02*
X7514824Y-19678960D01*
X7514824Y-19678960D02*
X7505301Y-19669436D01*
X7505301Y-19669436D02*
X7495777Y-19650389D01*
X7495777Y-19650389D02*
X7486253Y-19612293D01*
X7486253Y-19612293D02*
X7486253Y-19564674D01*
X7486253Y-19564674D02*
X7495777Y-19526579D01*
X7495777Y-19526579D02*
X7505301Y-19507531D01*
X7505301Y-19507531D02*
X7514824Y-19498008D01*
X7514824Y-19498008D02*
X7533872Y-19488484D01*
X7686253Y-19669436D02*
X7695777Y-19678960D01*
X7695777Y-19678960D02*
X7686253Y-19688484D01*
X7686253Y-19688484D02*
X7676729Y-19678960D01*
X7676729Y-19678960D02*
X7686253Y-19669436D01*
X7686253Y-19669436D02*
X7686253Y-19688484D01*
X7867205Y-19488484D02*
X7829110Y-19488484D01*
X7829110Y-19488484D02*
X7810062Y-19498008D01*
X7810062Y-19498008D02*
X7800539Y-19507531D01*
X7800539Y-19507531D02*
X7781491Y-19536103D01*
X7781491Y-19536103D02*
X7771967Y-19574198D01*
X7771967Y-19574198D02*
X7771967Y-19650389D01*
X7771967Y-19650389D02*
X7781491Y-19669436D01*
X7781491Y-19669436D02*
X7791015Y-19678960D01*
X7791015Y-19678960D02*
X7810062Y-19688484D01*
X7810062Y-19688484D02*
X7848158Y-19688484D01*
X7848158Y-19688484D02*
X7867205Y-19678960D01*
X7867205Y-19678960D02*
X7876729Y-19669436D01*
X7876729Y-19669436D02*
X7886253Y-19650389D01*
X7886253Y-19650389D02*
X7886253Y-19602770D01*
X7886253Y-19602770D02*
X7876729Y-19583722D01*
X7876729Y-19583722D02*
X7867205Y-19574198D01*
X7867205Y-19574198D02*
X7848158Y-19564674D01*
X7848158Y-19564674D02*
X7810062Y-19564674D01*
X7810062Y-19564674D02*
X7791015Y-19574198D01*
X7791015Y-19574198D02*
X7781491Y-19583722D01*
X7781491Y-19583722D02*
X7771967Y-19602770D01*
X8010062Y-19488484D02*
X8029110Y-19488484D01*
X8029110Y-19488484D02*
X8048158Y-19498008D01*
X8048158Y-19498008D02*
X8057682Y-19507531D01*
X8057682Y-19507531D02*
X8067205Y-19526579D01*
X8067205Y-19526579D02*
X8076729Y-19564674D01*
X8076729Y-19564674D02*
X8076729Y-19612293D01*
X8076729Y-19612293D02*
X8067205Y-19650389D01*
X8067205Y-19650389D02*
X8057682Y-19669436D01*
X8057682Y-19669436D02*
X8048158Y-19678960D01*
X8048158Y-19678960D02*
X8029110Y-19688484D01*
X8029110Y-19688484D02*
X8010062Y-19688484D01*
X8010062Y-19688484D02*
X7991015Y-19678960D01*
X7991015Y-19678960D02*
X7981491Y-19669436D01*
X7981491Y-19669436D02*
X7971967Y-19650389D01*
X7971967Y-19650389D02*
X7962443Y-19612293D01*
X7962443Y-19612293D02*
X7962443Y-19564674D01*
X7962443Y-19564674D02*
X7971967Y-19526579D01*
X7971967Y-19526579D02*
X7981491Y-19507531D01*
X7981491Y-19507531D02*
X7991015Y-19498008D01*
X7991015Y-19498008D02*
X8010062Y-19488484D01*
X8200539Y-19488484D02*
X8219586Y-19488484D01*
X8219586Y-19488484D02*
X8238634Y-19498008D01*
X8238634Y-19498008D02*
X8248158Y-19507531D01*
X8248158Y-19507531D02*
X8257682Y-19526579D01*
X8257682Y-19526579D02*
X8267205Y-19564674D01*
X8267205Y-19564674D02*
X8267205Y-19612293D01*
X8267205Y-19612293D02*
X8257682Y-19650389D01*
X8257682Y-19650389D02*
X8248158Y-19669436D01*
X8248158Y-19669436D02*
X8238634Y-19678960D01*
X8238634Y-19678960D02*
X8219586Y-19688484D01*
X8219586Y-19688484D02*
X8200539Y-19688484D01*
X8200539Y-19688484D02*
X8181491Y-19678960D01*
X8181491Y-19678960D02*
X8171967Y-19669436D01*
X8171967Y-19669436D02*
X8162443Y-19650389D01*
X8162443Y-19650389D02*
X8152920Y-19612293D01*
X8152920Y-19612293D02*
X8152920Y-19564674D01*
X8152920Y-19564674D02*
X8162443Y-19526579D01*
X8162443Y-19526579D02*
X8171967Y-19507531D01*
X8171967Y-19507531D02*
X8181491Y-19498008D01*
X8181491Y-19498008D02*
X8200539Y-19488484D01*
X8352920Y-19688484D02*
X8352920Y-19555150D01*
X8352920Y-19574198D02*
X8362443Y-19564674D01*
X8362443Y-19564674D02*
X8381491Y-19555150D01*
X8381491Y-19555150D02*
X8410063Y-19555150D01*
X8410063Y-19555150D02*
X8429110Y-19564674D01*
X8429110Y-19564674D02*
X8438634Y-19583722D01*
X8438634Y-19583722D02*
X8438634Y-19688484D01*
X8438634Y-19583722D02*
X8448158Y-19564674D01*
X8448158Y-19564674D02*
X8467205Y-19555150D01*
X8467205Y-19555150D02*
X8495777Y-19555150D01*
X8495777Y-19555150D02*
X8514825Y-19564674D01*
X8514825Y-19564674D02*
X8524348Y-19583722D01*
X8524348Y-19583722D02*
X8524348Y-19688484D01*
X8619586Y-19688484D02*
X8619586Y-19555150D01*
X8619586Y-19574198D02*
X8629110Y-19564674D01*
X8629110Y-19564674D02*
X8648158Y-19555150D01*
X8648158Y-19555150D02*
X8676729Y-19555150D01*
X8676729Y-19555150D02*
X8695777Y-19564674D01*
X8695777Y-19564674D02*
X8705301Y-19583722D01*
X8705301Y-19583722D02*
X8705301Y-19688484D01*
X8705301Y-19583722D02*
X8714825Y-19564674D01*
X8714825Y-19564674D02*
X8733872Y-19555150D01*
X8733872Y-19555150D02*
X8762444Y-19555150D01*
X8762444Y-19555150D02*
X8781491Y-19564674D01*
X8781491Y-19564674D02*
X8791015Y-19583722D01*
X8791015Y-19583722D02*
X8791015Y-19688484D01*
X9181491Y-19478960D02*
X9010063Y-19736103D01*
X9438634Y-19488484D02*
X9457682Y-19488484D01*
X9457682Y-19488484D02*
X9476729Y-19498008D01*
X9476729Y-19498008D02*
X9486253Y-19507531D01*
X9486253Y-19507531D02*
X9495777Y-19526579D01*
X9495777Y-19526579D02*
X9505301Y-19564674D01*
X9505301Y-19564674D02*
X9505301Y-19612293D01*
X9505301Y-19612293D02*
X9495777Y-19650389D01*
X9495777Y-19650389D02*
X9486253Y-19669436D01*
X9486253Y-19669436D02*
X9476729Y-19678960D01*
X9476729Y-19678960D02*
X9457682Y-19688484D01*
X9457682Y-19688484D02*
X9438634Y-19688484D01*
X9438634Y-19688484D02*
X9419587Y-19678960D01*
X9419587Y-19678960D02*
X9410063Y-19669436D01*
X9410063Y-19669436D02*
X9400539Y-19650389D01*
X9400539Y-19650389D02*
X9391015Y-19612293D01*
X9391015Y-19612293D02*
X9391015Y-19564674D01*
X9391015Y-19564674D02*
X9400539Y-19526579D01*
X9400539Y-19526579D02*
X9410063Y-19507531D01*
X9410063Y-19507531D02*
X9419587Y-19498008D01*
X9419587Y-19498008D02*
X9438634Y-19488484D01*
X9591015Y-19669436D02*
X9600539Y-19678960D01*
X9600539Y-19678960D02*
X9591015Y-19688484D01*
X9591015Y-19688484D02*
X9581491Y-19678960D01*
X9581491Y-19678960D02*
X9591015Y-19669436D01*
X9591015Y-19669436D02*
X9591015Y-19688484D01*
X9724348Y-19488484D02*
X9743396Y-19488484D01*
X9743396Y-19488484D02*
X9762444Y-19498008D01*
X9762444Y-19498008D02*
X9771968Y-19507531D01*
X9771968Y-19507531D02*
X9781491Y-19526579D01*
X9781491Y-19526579D02*
X9791015Y-19564674D01*
X9791015Y-19564674D02*
X9791015Y-19612293D01*
X9791015Y-19612293D02*
X9781491Y-19650389D01*
X9781491Y-19650389D02*
X9771968Y-19669436D01*
X9771968Y-19669436D02*
X9762444Y-19678960D01*
X9762444Y-19678960D02*
X9743396Y-19688484D01*
X9743396Y-19688484D02*
X9724348Y-19688484D01*
X9724348Y-19688484D02*
X9705301Y-19678960D01*
X9705301Y-19678960D02*
X9695777Y-19669436D01*
X9695777Y-19669436D02*
X9686253Y-19650389D01*
X9686253Y-19650389D02*
X9676729Y-19612293D01*
X9676729Y-19612293D02*
X9676729Y-19564674D01*
X9676729Y-19564674D02*
X9686253Y-19526579D01*
X9686253Y-19526579D02*
X9695777Y-19507531D01*
X9695777Y-19507531D02*
X9705301Y-19498008D01*
X9705301Y-19498008D02*
X9724348Y-19488484D01*
X9867206Y-19507531D02*
X9876729Y-19498008D01*
X9876729Y-19498008D02*
X9895777Y-19488484D01*
X9895777Y-19488484D02*
X9943396Y-19488484D01*
X9943396Y-19488484D02*
X9962444Y-19498008D01*
X9962444Y-19498008D02*
X9971968Y-19507531D01*
X9971968Y-19507531D02*
X9981491Y-19526579D01*
X9981491Y-19526579D02*
X9981491Y-19545627D01*
X9981491Y-19545627D02*
X9971968Y-19574198D01*
X9971968Y-19574198D02*
X9857682Y-19688484D01*
X9857682Y-19688484D02*
X9981491Y-19688484D01*
X10048158Y-19488484D02*
X10171968Y-19488484D01*
X10171968Y-19488484D02*
X10105301Y-19564674D01*
X10105301Y-19564674D02*
X10133872Y-19564674D01*
X10133872Y-19564674D02*
X10152920Y-19574198D01*
X10152920Y-19574198D02*
X10162444Y-19583722D01*
X10162444Y-19583722D02*
X10171968Y-19602770D01*
X10171968Y-19602770D02*
X10171968Y-19650389D01*
X10171968Y-19650389D02*
X10162444Y-19669436D01*
X10162444Y-19669436D02*
X10152920Y-19678960D01*
X10152920Y-19678960D02*
X10133872Y-19688484D01*
X10133872Y-19688484D02*
X10076729Y-19688484D01*
X10076729Y-19688484D02*
X10057682Y-19678960D01*
X10057682Y-19678960D02*
X10048158Y-19669436D01*
X10343396Y-19488484D02*
X10305301Y-19488484D01*
X10305301Y-19488484D02*
X10286253Y-19498008D01*
X10286253Y-19498008D02*
X10276729Y-19507531D01*
X10276729Y-19507531D02*
X10257682Y-19536103D01*
X10257682Y-19536103D02*
X10248158Y-19574198D01*
X10248158Y-19574198D02*
X10248158Y-19650389D01*
X10248158Y-19650389D02*
X10257682Y-19669436D01*
X10257682Y-19669436D02*
X10267206Y-19678960D01*
X10267206Y-19678960D02*
X10286253Y-19688484D01*
X10286253Y-19688484D02*
X10324349Y-19688484D01*
X10324349Y-19688484D02*
X10343396Y-19678960D01*
X10343396Y-19678960D02*
X10352920Y-19669436D01*
X10352920Y-19669436D02*
X10362444Y-19650389D01*
X10362444Y-19650389D02*
X10362444Y-19602770D01*
X10362444Y-19602770D02*
X10352920Y-19583722D01*
X10352920Y-19583722D02*
X10343396Y-19574198D01*
X10343396Y-19574198D02*
X10324349Y-19564674D01*
X10324349Y-19564674D02*
X10286253Y-19564674D01*
X10286253Y-19564674D02*
X10267206Y-19574198D01*
X10267206Y-19574198D02*
X10257682Y-19583722D01*
X10257682Y-19583722D02*
X10248158Y-19602770D01*
X10438634Y-19488484D02*
X10438634Y-19526579D01*
X10514825Y-19488484D02*
X10514825Y-19526579D01*
X10810063Y-19764674D02*
X10800539Y-19755150D01*
X10800539Y-19755150D02*
X10781491Y-19726579D01*
X10781491Y-19726579D02*
X10771968Y-19707531D01*
X10771968Y-19707531D02*
X10762444Y-19678960D01*
X10762444Y-19678960D02*
X10752920Y-19631341D01*
X10752920Y-19631341D02*
X10752920Y-19593246D01*
X10752920Y-19593246D02*
X10762444Y-19545627D01*
X10762444Y-19545627D02*
X10771968Y-19517055D01*
X10771968Y-19517055D02*
X10781491Y-19498008D01*
X10781491Y-19498008D02*
X10800539Y-19469436D01*
X10800539Y-19469436D02*
X10810063Y-19459912D01*
X10924349Y-19488484D02*
X10943396Y-19488484D01*
X10943396Y-19488484D02*
X10962444Y-19498008D01*
X10962444Y-19498008D02*
X10971968Y-19507531D01*
X10971968Y-19507531D02*
X10981491Y-19526579D01*
X10981491Y-19526579D02*
X10991015Y-19564674D01*
X10991015Y-19564674D02*
X10991015Y-19612293D01*
X10991015Y-19612293D02*
X10981491Y-19650389D01*
X10981491Y-19650389D02*
X10971968Y-19669436D01*
X10971968Y-19669436D02*
X10962444Y-19678960D01*
X10962444Y-19678960D02*
X10943396Y-19688484D01*
X10943396Y-19688484D02*
X10924349Y-19688484D01*
X10924349Y-19688484D02*
X10905301Y-19678960D01*
X10905301Y-19678960D02*
X10895777Y-19669436D01*
X10895777Y-19669436D02*
X10886253Y-19650389D01*
X10886253Y-19650389D02*
X10876730Y-19612293D01*
X10876730Y-19612293D02*
X10876730Y-19564674D01*
X10876730Y-19564674D02*
X10886253Y-19526579D01*
X10886253Y-19526579D02*
X10895777Y-19507531D01*
X10895777Y-19507531D02*
X10905301Y-19498008D01*
X10905301Y-19498008D02*
X10924349Y-19488484D01*
X11229110Y-19688484D02*
X11229110Y-19488484D01*
X11314825Y-19688484D02*
X11314825Y-19583722D01*
X11314825Y-19583722D02*
X11305301Y-19564674D01*
X11305301Y-19564674D02*
X11286253Y-19555150D01*
X11286253Y-19555150D02*
X11257682Y-19555150D01*
X11257682Y-19555150D02*
X11238634Y-19564674D01*
X11238634Y-19564674D02*
X11229110Y-19574198D01*
X11438634Y-19688484D02*
X11419587Y-19678960D01*
X11419587Y-19678960D02*
X11410063Y-19669436D01*
X11410063Y-19669436D02*
X11400539Y-19650389D01*
X11400539Y-19650389D02*
X11400539Y-19593246D01*
X11400539Y-19593246D02*
X11410063Y-19574198D01*
X11410063Y-19574198D02*
X11419587Y-19564674D01*
X11419587Y-19564674D02*
X11438634Y-19555150D01*
X11438634Y-19555150D02*
X11467206Y-19555150D01*
X11467206Y-19555150D02*
X11486253Y-19564674D01*
X11486253Y-19564674D02*
X11495777Y-19574198D01*
X11495777Y-19574198D02*
X11505301Y-19593246D01*
X11505301Y-19593246D02*
X11505301Y-19650389D01*
X11505301Y-19650389D02*
X11495777Y-19669436D01*
X11495777Y-19669436D02*
X11486253Y-19678960D01*
X11486253Y-19678960D02*
X11467206Y-19688484D01*
X11467206Y-19688484D02*
X11438634Y-19688484D01*
X11619587Y-19688484D02*
X11600539Y-19678960D01*
X11600539Y-19678960D02*
X11591015Y-19659912D01*
X11591015Y-19659912D02*
X11591015Y-19488484D01*
X11771968Y-19678960D02*
X11752920Y-19688484D01*
X11752920Y-19688484D02*
X11714825Y-19688484D01*
X11714825Y-19688484D02*
X11695777Y-19678960D01*
X11695777Y-19678960D02*
X11686253Y-19659912D01*
X11686253Y-19659912D02*
X11686253Y-19583722D01*
X11686253Y-19583722D02*
X11695777Y-19564674D01*
X11695777Y-19564674D02*
X11714825Y-19555150D01*
X11714825Y-19555150D02*
X11752920Y-19555150D01*
X11752920Y-19555150D02*
X11771968Y-19564674D01*
X11771968Y-19564674D02*
X11781491Y-19583722D01*
X11781491Y-19583722D02*
X11781491Y-19602770D01*
X11781491Y-19602770D02*
X11686253Y-19621817D01*
X11857682Y-19678960D02*
X11876730Y-19688484D01*
X11876730Y-19688484D02*
X11914825Y-19688484D01*
X11914825Y-19688484D02*
X11933872Y-19678960D01*
X11933872Y-19678960D02*
X11943396Y-19659912D01*
X11943396Y-19659912D02*
X11943396Y-19650389D01*
X11943396Y-19650389D02*
X11933872Y-19631341D01*
X11933872Y-19631341D02*
X11914825Y-19621817D01*
X11914825Y-19621817D02*
X11886253Y-19621817D01*
X11886253Y-19621817D02*
X11867206Y-19612293D01*
X11867206Y-19612293D02*
X11857682Y-19593246D01*
X11857682Y-19593246D02*
X11857682Y-19583722D01*
X11857682Y-19583722D02*
X11867206Y-19564674D01*
X11867206Y-19564674D02*
X11886253Y-19555150D01*
X11886253Y-19555150D02*
X11914825Y-19555150D01*
X11914825Y-19555150D02*
X11933872Y-19564674D01*
X12181492Y-19612293D02*
X12333873Y-19612293D01*
X12257682Y-19688484D02*
X12257682Y-19536103D01*
X12686253Y-19688484D02*
X12571968Y-19688484D01*
X12629111Y-19688484D02*
X12629111Y-19488484D01*
X12629111Y-19488484D02*
X12610063Y-19517055D01*
X12610063Y-19517055D02*
X12591015Y-19536103D01*
X12591015Y-19536103D02*
X12571968Y-19545627D01*
X12857682Y-19555150D02*
X12857682Y-19688484D01*
X12810063Y-19478960D02*
X12762444Y-19621817D01*
X12762444Y-19621817D02*
X12886253Y-19621817D01*
X13105301Y-19678960D02*
X13124349Y-19688484D01*
X13124349Y-19688484D02*
X13162444Y-19688484D01*
X13162444Y-19688484D02*
X13181492Y-19678960D01*
X13181492Y-19678960D02*
X13191015Y-19659912D01*
X13191015Y-19659912D02*
X13191015Y-19650389D01*
X13191015Y-19650389D02*
X13181492Y-19631341D01*
X13181492Y-19631341D02*
X13162444Y-19621817D01*
X13162444Y-19621817D02*
X13133873Y-19621817D01*
X13133873Y-19621817D02*
X13114825Y-19612293D01*
X13114825Y-19612293D02*
X13105301Y-19593246D01*
X13105301Y-19593246D02*
X13105301Y-19583722D01*
X13105301Y-19583722D02*
X13114825Y-19564674D01*
X13114825Y-19564674D02*
X13133873Y-19555150D01*
X13133873Y-19555150D02*
X13162444Y-19555150D01*
X13162444Y-19555150D02*
X13181492Y-19564674D01*
X13305301Y-19688484D02*
X13286254Y-19678960D01*
X13286254Y-19678960D02*
X13276730Y-19659912D01*
X13276730Y-19659912D02*
X13276730Y-19488484D01*
X13410063Y-19688484D02*
X13391015Y-19678960D01*
X13391015Y-19678960D02*
X13381492Y-19669436D01*
X13381492Y-19669436D02*
X13371968Y-19650389D01*
X13371968Y-19650389D02*
X13371968Y-19593246D01*
X13371968Y-19593246D02*
X13381492Y-19574198D01*
X13381492Y-19574198D02*
X13391015Y-19564674D01*
X13391015Y-19564674D02*
X13410063Y-19555150D01*
X13410063Y-19555150D02*
X13438635Y-19555150D01*
X13438635Y-19555150D02*
X13457682Y-19564674D01*
X13457682Y-19564674D02*
X13467206Y-19574198D01*
X13467206Y-19574198D02*
X13476730Y-19593246D01*
X13476730Y-19593246D02*
X13476730Y-19650389D01*
X13476730Y-19650389D02*
X13467206Y-19669436D01*
X13467206Y-19669436D02*
X13457682Y-19678960D01*
X13457682Y-19678960D02*
X13438635Y-19688484D01*
X13438635Y-19688484D02*
X13410063Y-19688484D01*
X13533873Y-19555150D02*
X13610063Y-19555150D01*
X13562444Y-19488484D02*
X13562444Y-19659912D01*
X13562444Y-19659912D02*
X13571968Y-19678960D01*
X13571968Y-19678960D02*
X13591015Y-19688484D01*
X13591015Y-19688484D02*
X13610063Y-19688484D01*
X13667206Y-19678960D02*
X13686254Y-19688484D01*
X13686254Y-19688484D02*
X13724349Y-19688484D01*
X13724349Y-19688484D02*
X13743396Y-19678960D01*
X13743396Y-19678960D02*
X13752920Y-19659912D01*
X13752920Y-19659912D02*
X13752920Y-19650389D01*
X13752920Y-19650389D02*
X13743396Y-19631341D01*
X13743396Y-19631341D02*
X13724349Y-19621817D01*
X13724349Y-19621817D02*
X13695777Y-19621817D01*
X13695777Y-19621817D02*
X13676730Y-19612293D01*
X13676730Y-19612293D02*
X13667206Y-19593246D01*
X13667206Y-19593246D02*
X13667206Y-19583722D01*
X13667206Y-19583722D02*
X13676730Y-19564674D01*
X13676730Y-19564674D02*
X13695777Y-19555150D01*
X13695777Y-19555150D02*
X13724349Y-19555150D01*
X13724349Y-19555150D02*
X13743396Y-19564674D01*
X13819587Y-19764674D02*
X13829111Y-19755150D01*
X13829111Y-19755150D02*
X13848158Y-19726579D01*
X13848158Y-19726579D02*
X13857682Y-19707531D01*
X13857682Y-19707531D02*
X13867206Y-19678960D01*
X13867206Y-19678960D02*
X13876730Y-19631341D01*
X13876730Y-19631341D02*
X13876730Y-19593246D01*
X13876730Y-19593246D02*
X13867206Y-19545627D01*
X13867206Y-19545627D02*
X13857682Y-19517055D01*
X13857682Y-19517055D02*
X13848158Y-19498008D01*
X13848158Y-19498008D02*
X13829111Y-19469436D01*
X13829111Y-19469436D02*
X13819587Y-19459912D01*
D10*
X7185000Y-19911000D02*
X7235000Y-19861000D01*
X7185000Y-19811000D01*
X7135000Y-19861000D01*
X7185000Y-19911000D01*
D11*
X7600539Y-19952484D02*
X7486253Y-19952484D01*
X7543396Y-19952484D02*
X7543396Y-19752484D01*
X7543396Y-19752484D02*
X7524348Y-19781055D01*
X7524348Y-19781055D02*
X7505301Y-19800103D01*
X7505301Y-19800103D02*
X7486253Y-19809627D01*
X7686253Y-19933436D02*
X7695777Y-19942960D01*
X7695777Y-19942960D02*
X7686253Y-19952484D01*
X7686253Y-19952484D02*
X7676729Y-19942960D01*
X7676729Y-19942960D02*
X7686253Y-19933436D01*
X7686253Y-19933436D02*
X7686253Y-19952484D01*
X7819586Y-19752484D02*
X7838634Y-19752484D01*
X7838634Y-19752484D02*
X7857682Y-19762008D01*
X7857682Y-19762008D02*
X7867205Y-19771531D01*
X7867205Y-19771531D02*
X7876729Y-19790579D01*
X7876729Y-19790579D02*
X7886253Y-19828674D01*
X7886253Y-19828674D02*
X7886253Y-19876293D01*
X7886253Y-19876293D02*
X7876729Y-19914389D01*
X7876729Y-19914389D02*
X7867205Y-19933436D01*
X7867205Y-19933436D02*
X7857682Y-19942960D01*
X7857682Y-19942960D02*
X7838634Y-19952484D01*
X7838634Y-19952484D02*
X7819586Y-19952484D01*
X7819586Y-19952484D02*
X7800539Y-19942960D01*
X7800539Y-19942960D02*
X7791015Y-19933436D01*
X7791015Y-19933436D02*
X7781491Y-19914389D01*
X7781491Y-19914389D02*
X7771967Y-19876293D01*
X7771967Y-19876293D02*
X7771967Y-19828674D01*
X7771967Y-19828674D02*
X7781491Y-19790579D01*
X7781491Y-19790579D02*
X7791015Y-19771531D01*
X7791015Y-19771531D02*
X7800539Y-19762008D01*
X7800539Y-19762008D02*
X7819586Y-19752484D01*
X8010062Y-19752484D02*
X8029110Y-19752484D01*
X8029110Y-19752484D02*
X8048158Y-19762008D01*
X8048158Y-19762008D02*
X8057682Y-19771531D01*
X8057682Y-19771531D02*
X8067205Y-19790579D01*
X8067205Y-19790579D02*
X8076729Y-19828674D01*
X8076729Y-19828674D02*
X8076729Y-19876293D01*
X8076729Y-19876293D02*
X8067205Y-19914389D01*
X8067205Y-19914389D02*
X8057682Y-19933436D01*
X8057682Y-19933436D02*
X8048158Y-19942960D01*
X8048158Y-19942960D02*
X8029110Y-19952484D01*
X8029110Y-19952484D02*
X8010062Y-19952484D01*
X8010062Y-19952484D02*
X7991015Y-19942960D01*
X7991015Y-19942960D02*
X7981491Y-19933436D01*
X7981491Y-19933436D02*
X7971967Y-19914389D01*
X7971967Y-19914389D02*
X7962443Y-19876293D01*
X7962443Y-19876293D02*
X7962443Y-19828674D01*
X7962443Y-19828674D02*
X7971967Y-19790579D01*
X7971967Y-19790579D02*
X7981491Y-19771531D01*
X7981491Y-19771531D02*
X7991015Y-19762008D01*
X7991015Y-19762008D02*
X8010062Y-19752484D01*
X8200539Y-19752484D02*
X8219586Y-19752484D01*
X8219586Y-19752484D02*
X8238634Y-19762008D01*
X8238634Y-19762008D02*
X8248158Y-19771531D01*
X8248158Y-19771531D02*
X8257682Y-19790579D01*
X8257682Y-19790579D02*
X8267205Y-19828674D01*
X8267205Y-19828674D02*
X8267205Y-19876293D01*
X8267205Y-19876293D02*
X8257682Y-19914389D01*
X8257682Y-19914389D02*
X8248158Y-19933436D01*
X8248158Y-19933436D02*
X8238634Y-19942960D01*
X8238634Y-19942960D02*
X8219586Y-19952484D01*
X8219586Y-19952484D02*
X8200539Y-19952484D01*
X8200539Y-19952484D02*
X8181491Y-19942960D01*
X8181491Y-19942960D02*
X8171967Y-19933436D01*
X8171967Y-19933436D02*
X8162443Y-19914389D01*
X8162443Y-19914389D02*
X8152920Y-19876293D01*
X8152920Y-19876293D02*
X8152920Y-19828674D01*
X8152920Y-19828674D02*
X8162443Y-19790579D01*
X8162443Y-19790579D02*
X8171967Y-19771531D01*
X8171967Y-19771531D02*
X8181491Y-19762008D01*
X8181491Y-19762008D02*
X8200539Y-19752484D01*
X8352920Y-19952484D02*
X8352920Y-19819150D01*
X8352920Y-19838198D02*
X8362443Y-19828674D01*
X8362443Y-19828674D02*
X8381491Y-19819150D01*
X8381491Y-19819150D02*
X8410063Y-19819150D01*
X8410063Y-19819150D02*
X8429110Y-19828674D01*
X8429110Y-19828674D02*
X8438634Y-19847722D01*
X8438634Y-19847722D02*
X8438634Y-19952484D01*
X8438634Y-19847722D02*
X8448158Y-19828674D01*
X8448158Y-19828674D02*
X8467205Y-19819150D01*
X8467205Y-19819150D02*
X8495777Y-19819150D01*
X8495777Y-19819150D02*
X8514825Y-19828674D01*
X8514825Y-19828674D02*
X8524348Y-19847722D01*
X8524348Y-19847722D02*
X8524348Y-19952484D01*
X8619586Y-19952484D02*
X8619586Y-19819150D01*
X8619586Y-19838198D02*
X8629110Y-19828674D01*
X8629110Y-19828674D02*
X8648158Y-19819150D01*
X8648158Y-19819150D02*
X8676729Y-19819150D01*
X8676729Y-19819150D02*
X8695777Y-19828674D01*
X8695777Y-19828674D02*
X8705301Y-19847722D01*
X8705301Y-19847722D02*
X8705301Y-19952484D01*
X8705301Y-19847722D02*
X8714825Y-19828674D01*
X8714825Y-19828674D02*
X8733872Y-19819150D01*
X8733872Y-19819150D02*
X8762444Y-19819150D01*
X8762444Y-19819150D02*
X8781491Y-19828674D01*
X8781491Y-19828674D02*
X8791015Y-19847722D01*
X8791015Y-19847722D02*
X8791015Y-19952484D01*
X9181491Y-19742960D02*
X9010063Y-20000103D01*
X9438634Y-19752484D02*
X9457682Y-19752484D01*
X9457682Y-19752484D02*
X9476729Y-19762008D01*
X9476729Y-19762008D02*
X9486253Y-19771531D01*
X9486253Y-19771531D02*
X9495777Y-19790579D01*
X9495777Y-19790579D02*
X9505301Y-19828674D01*
X9505301Y-19828674D02*
X9505301Y-19876293D01*
X9505301Y-19876293D02*
X9495777Y-19914389D01*
X9495777Y-19914389D02*
X9486253Y-19933436D01*
X9486253Y-19933436D02*
X9476729Y-19942960D01*
X9476729Y-19942960D02*
X9457682Y-19952484D01*
X9457682Y-19952484D02*
X9438634Y-19952484D01*
X9438634Y-19952484D02*
X9419587Y-19942960D01*
X9419587Y-19942960D02*
X9410063Y-19933436D01*
X9410063Y-19933436D02*
X9400539Y-19914389D01*
X9400539Y-19914389D02*
X9391015Y-19876293D01*
X9391015Y-19876293D02*
X9391015Y-19828674D01*
X9391015Y-19828674D02*
X9400539Y-19790579D01*
X9400539Y-19790579D02*
X9410063Y-19771531D01*
X9410063Y-19771531D02*
X9419587Y-19762008D01*
X9419587Y-19762008D02*
X9438634Y-19752484D01*
X9591015Y-19933436D02*
X9600539Y-19942960D01*
X9600539Y-19942960D02*
X9591015Y-19952484D01*
X9591015Y-19952484D02*
X9581491Y-19942960D01*
X9581491Y-19942960D02*
X9591015Y-19933436D01*
X9591015Y-19933436D02*
X9591015Y-19952484D01*
X9724348Y-19752484D02*
X9743396Y-19752484D01*
X9743396Y-19752484D02*
X9762444Y-19762008D01*
X9762444Y-19762008D02*
X9771968Y-19771531D01*
X9771968Y-19771531D02*
X9781491Y-19790579D01*
X9781491Y-19790579D02*
X9791015Y-19828674D01*
X9791015Y-19828674D02*
X9791015Y-19876293D01*
X9791015Y-19876293D02*
X9781491Y-19914389D01*
X9781491Y-19914389D02*
X9771968Y-19933436D01*
X9771968Y-19933436D02*
X9762444Y-19942960D01*
X9762444Y-19942960D02*
X9743396Y-19952484D01*
X9743396Y-19952484D02*
X9724348Y-19952484D01*
X9724348Y-19952484D02*
X9705301Y-19942960D01*
X9705301Y-19942960D02*
X9695777Y-19933436D01*
X9695777Y-19933436D02*
X9686253Y-19914389D01*
X9686253Y-19914389D02*
X9676729Y-19876293D01*
X9676729Y-19876293D02*
X9676729Y-19828674D01*
X9676729Y-19828674D02*
X9686253Y-19790579D01*
X9686253Y-19790579D02*
X9695777Y-19771531D01*
X9695777Y-19771531D02*
X9705301Y-19762008D01*
X9705301Y-19762008D02*
X9724348Y-19752484D01*
X9857682Y-19752484D02*
X9981491Y-19752484D01*
X9981491Y-19752484D02*
X9914825Y-19828674D01*
X9914825Y-19828674D02*
X9943396Y-19828674D01*
X9943396Y-19828674D02*
X9962444Y-19838198D01*
X9962444Y-19838198D02*
X9971968Y-19847722D01*
X9971968Y-19847722D02*
X9981491Y-19866770D01*
X9981491Y-19866770D02*
X9981491Y-19914389D01*
X9981491Y-19914389D02*
X9971968Y-19933436D01*
X9971968Y-19933436D02*
X9962444Y-19942960D01*
X9962444Y-19942960D02*
X9943396Y-19952484D01*
X9943396Y-19952484D02*
X9886253Y-19952484D01*
X9886253Y-19952484D02*
X9867206Y-19942960D01*
X9867206Y-19942960D02*
X9857682Y-19933436D01*
X10076729Y-19952484D02*
X10114825Y-19952484D01*
X10114825Y-19952484D02*
X10133872Y-19942960D01*
X10133872Y-19942960D02*
X10143396Y-19933436D01*
X10143396Y-19933436D02*
X10162444Y-19904865D01*
X10162444Y-19904865D02*
X10171968Y-19866770D01*
X10171968Y-19866770D02*
X10171968Y-19790579D01*
X10171968Y-19790579D02*
X10162444Y-19771531D01*
X10162444Y-19771531D02*
X10152920Y-19762008D01*
X10152920Y-19762008D02*
X10133872Y-19752484D01*
X10133872Y-19752484D02*
X10095777Y-19752484D01*
X10095777Y-19752484D02*
X10076729Y-19762008D01*
X10076729Y-19762008D02*
X10067206Y-19771531D01*
X10067206Y-19771531D02*
X10057682Y-19790579D01*
X10057682Y-19790579D02*
X10057682Y-19838198D01*
X10057682Y-19838198D02*
X10067206Y-19857246D01*
X10067206Y-19857246D02*
X10076729Y-19866770D01*
X10076729Y-19866770D02*
X10095777Y-19876293D01*
X10095777Y-19876293D02*
X10133872Y-19876293D01*
X10133872Y-19876293D02*
X10152920Y-19866770D01*
X10152920Y-19866770D02*
X10162444Y-19857246D01*
X10162444Y-19857246D02*
X10171968Y-19838198D01*
X10343396Y-19819150D02*
X10343396Y-19952484D01*
X10295777Y-19742960D02*
X10248158Y-19885817D01*
X10248158Y-19885817D02*
X10371968Y-19885817D01*
X10438634Y-19752484D02*
X10438634Y-19790579D01*
X10514825Y-19752484D02*
X10514825Y-19790579D01*
X10810063Y-20028674D02*
X10800539Y-20019150D01*
X10800539Y-20019150D02*
X10781491Y-19990579D01*
X10781491Y-19990579D02*
X10771968Y-19971531D01*
X10771968Y-19971531D02*
X10762444Y-19942960D01*
X10762444Y-19942960D02*
X10752920Y-19895341D01*
X10752920Y-19895341D02*
X10752920Y-19857246D01*
X10752920Y-19857246D02*
X10762444Y-19809627D01*
X10762444Y-19809627D02*
X10771968Y-19781055D01*
X10771968Y-19781055D02*
X10781491Y-19762008D01*
X10781491Y-19762008D02*
X10800539Y-19733436D01*
X10800539Y-19733436D02*
X10810063Y-19723912D01*
X10971968Y-19819150D02*
X10971968Y-19952484D01*
X10924349Y-19742960D02*
X10876730Y-19885817D01*
X10876730Y-19885817D02*
X11000539Y-19885817D01*
X11114825Y-19752484D02*
X11133872Y-19752484D01*
X11133872Y-19752484D02*
X11152920Y-19762008D01*
X11152920Y-19762008D02*
X11162444Y-19771531D01*
X11162444Y-19771531D02*
X11171968Y-19790579D01*
X11171968Y-19790579D02*
X11181491Y-19828674D01*
X11181491Y-19828674D02*
X11181491Y-19876293D01*
X11181491Y-19876293D02*
X11171968Y-19914389D01*
X11171968Y-19914389D02*
X11162444Y-19933436D01*
X11162444Y-19933436D02*
X11152920Y-19942960D01*
X11152920Y-19942960D02*
X11133872Y-19952484D01*
X11133872Y-19952484D02*
X11114825Y-19952484D01*
X11114825Y-19952484D02*
X11095777Y-19942960D01*
X11095777Y-19942960D02*
X11086253Y-19933436D01*
X11086253Y-19933436D02*
X11076730Y-19914389D01*
X11076730Y-19914389D02*
X11067206Y-19876293D01*
X11067206Y-19876293D02*
X11067206Y-19828674D01*
X11067206Y-19828674D02*
X11076730Y-19790579D01*
X11076730Y-19790579D02*
X11086253Y-19771531D01*
X11086253Y-19771531D02*
X11095777Y-19762008D01*
X11095777Y-19762008D02*
X11114825Y-19752484D01*
X11419587Y-19952484D02*
X11419587Y-19752484D01*
X11505301Y-19952484D02*
X11505301Y-19847722D01*
X11505301Y-19847722D02*
X11495777Y-19828674D01*
X11495777Y-19828674D02*
X11476730Y-19819150D01*
X11476730Y-19819150D02*
X11448158Y-19819150D01*
X11448158Y-19819150D02*
X11429110Y-19828674D01*
X11429110Y-19828674D02*
X11419587Y-19838198D01*
X11629110Y-19952484D02*
X11610063Y-19942960D01*
X11610063Y-19942960D02*
X11600539Y-19933436D01*
X11600539Y-19933436D02*
X11591015Y-19914389D01*
X11591015Y-19914389D02*
X11591015Y-19857246D01*
X11591015Y-19857246D02*
X11600539Y-19838198D01*
X11600539Y-19838198D02*
X11610063Y-19828674D01*
X11610063Y-19828674D02*
X11629110Y-19819150D01*
X11629110Y-19819150D02*
X11657682Y-19819150D01*
X11657682Y-19819150D02*
X11676730Y-19828674D01*
X11676730Y-19828674D02*
X11686253Y-19838198D01*
X11686253Y-19838198D02*
X11695777Y-19857246D01*
X11695777Y-19857246D02*
X11695777Y-19914389D01*
X11695777Y-19914389D02*
X11686253Y-19933436D01*
X11686253Y-19933436D02*
X11676730Y-19942960D01*
X11676730Y-19942960D02*
X11657682Y-19952484D01*
X11657682Y-19952484D02*
X11629110Y-19952484D01*
X11810063Y-19952484D02*
X11791015Y-19942960D01*
X11791015Y-19942960D02*
X11781491Y-19923912D01*
X11781491Y-19923912D02*
X11781491Y-19752484D01*
X11962444Y-19942960D02*
X11943396Y-19952484D01*
X11943396Y-19952484D02*
X11905301Y-19952484D01*
X11905301Y-19952484D02*
X11886253Y-19942960D01*
X11886253Y-19942960D02*
X11876730Y-19923912D01*
X11876730Y-19923912D02*
X11876730Y-19847722D01*
X11876730Y-19847722D02*
X11886253Y-19828674D01*
X11886253Y-19828674D02*
X11905301Y-19819150D01*
X11905301Y-19819150D02*
X11943396Y-19819150D01*
X11943396Y-19819150D02*
X11962444Y-19828674D01*
X11962444Y-19828674D02*
X11971968Y-19847722D01*
X11971968Y-19847722D02*
X11971968Y-19866770D01*
X11971968Y-19866770D02*
X11876730Y-19885817D01*
X12048158Y-19942960D02*
X12067206Y-19952484D01*
X12067206Y-19952484D02*
X12105301Y-19952484D01*
X12105301Y-19952484D02*
X12124349Y-19942960D01*
X12124349Y-19942960D02*
X12133872Y-19923912D01*
X12133872Y-19923912D02*
X12133872Y-19914389D01*
X12133872Y-19914389D02*
X12124349Y-19895341D01*
X12124349Y-19895341D02*
X12105301Y-19885817D01*
X12105301Y-19885817D02*
X12076730Y-19885817D01*
X12076730Y-19885817D02*
X12057682Y-19876293D01*
X12057682Y-19876293D02*
X12048158Y-19857246D01*
X12048158Y-19857246D02*
X12048158Y-19847722D01*
X12048158Y-19847722D02*
X12057682Y-19828674D01*
X12057682Y-19828674D02*
X12076730Y-19819150D01*
X12076730Y-19819150D02*
X12105301Y-19819150D01*
X12105301Y-19819150D02*
X12124349Y-19828674D01*
X12200539Y-20028674D02*
X12210063Y-20019150D01*
X12210063Y-20019150D02*
X12229111Y-19990579D01*
X12229111Y-19990579D02*
X12238634Y-19971531D01*
X12238634Y-19971531D02*
X12248158Y-19942960D01*
X12248158Y-19942960D02*
X12257682Y-19895341D01*
X12257682Y-19895341D02*
X12257682Y-19857246D01*
X12257682Y-19857246D02*
X12248158Y-19809627D01*
X12248158Y-19809627D02*
X12238634Y-19781055D01*
X12238634Y-19781055D02*
X12229111Y-19762008D01*
X12229111Y-19762008D02*
X12210063Y-19733436D01*
X12210063Y-19733436D02*
X12200539Y-19723912D01*
D12*
X7085000Y-20050000D02*
X7235000Y-20200000D01*
X7235000Y-20050000D02*
X7085000Y-20200000D01*
X7235000Y-20125000D02*
G75*
G03*
X7085000Y-20125000I-75000J0D01*
G01*
X7085000Y-20125000D02*
G75*
G03*
X7235000Y-20125000I75000J0D01*
G01*
D11*
X7600539Y-20216484D02*
X7486253Y-20216484D01*
X7543396Y-20216484D02*
X7543396Y-20016484D01*
X7543396Y-20016484D02*
X7524348Y-20045055D01*
X7524348Y-20045055D02*
X7505301Y-20064103D01*
X7505301Y-20064103D02*
X7486253Y-20073627D01*
X7686253Y-20197436D02*
X7695777Y-20206960D01*
X7695777Y-20206960D02*
X7686253Y-20216484D01*
X7686253Y-20216484D02*
X7676729Y-20206960D01*
X7676729Y-20206960D02*
X7686253Y-20197436D01*
X7686253Y-20197436D02*
X7686253Y-20216484D01*
X7876729Y-20016484D02*
X7781491Y-20016484D01*
X7781491Y-20016484D02*
X7771967Y-20111722D01*
X7771967Y-20111722D02*
X7781491Y-20102198D01*
X7781491Y-20102198D02*
X7800539Y-20092674D01*
X7800539Y-20092674D02*
X7848158Y-20092674D01*
X7848158Y-20092674D02*
X7867205Y-20102198D01*
X7867205Y-20102198D02*
X7876729Y-20111722D01*
X7876729Y-20111722D02*
X7886253Y-20130770D01*
X7886253Y-20130770D02*
X7886253Y-20178389D01*
X7886253Y-20178389D02*
X7876729Y-20197436D01*
X7876729Y-20197436D02*
X7867205Y-20206960D01*
X7867205Y-20206960D02*
X7848158Y-20216484D01*
X7848158Y-20216484D02*
X7800539Y-20216484D01*
X7800539Y-20216484D02*
X7781491Y-20206960D01*
X7781491Y-20206960D02*
X7771967Y-20197436D01*
X8010062Y-20016484D02*
X8029110Y-20016484D01*
X8029110Y-20016484D02*
X8048158Y-20026008D01*
X8048158Y-20026008D02*
X8057682Y-20035531D01*
X8057682Y-20035531D02*
X8067205Y-20054579D01*
X8067205Y-20054579D02*
X8076729Y-20092674D01*
X8076729Y-20092674D02*
X8076729Y-20140293D01*
X8076729Y-20140293D02*
X8067205Y-20178389D01*
X8067205Y-20178389D02*
X8057682Y-20197436D01*
X8057682Y-20197436D02*
X8048158Y-20206960D01*
X8048158Y-20206960D02*
X8029110Y-20216484D01*
X8029110Y-20216484D02*
X8010062Y-20216484D01*
X8010062Y-20216484D02*
X7991015Y-20206960D01*
X7991015Y-20206960D02*
X7981491Y-20197436D01*
X7981491Y-20197436D02*
X7971967Y-20178389D01*
X7971967Y-20178389D02*
X7962443Y-20140293D01*
X7962443Y-20140293D02*
X7962443Y-20092674D01*
X7962443Y-20092674D02*
X7971967Y-20054579D01*
X7971967Y-20054579D02*
X7981491Y-20035531D01*
X7981491Y-20035531D02*
X7991015Y-20026008D01*
X7991015Y-20026008D02*
X8010062Y-20016484D01*
X8200539Y-20016484D02*
X8219586Y-20016484D01*
X8219586Y-20016484D02*
X8238634Y-20026008D01*
X8238634Y-20026008D02*
X8248158Y-20035531D01*
X8248158Y-20035531D02*
X8257682Y-20054579D01*
X8257682Y-20054579D02*
X8267205Y-20092674D01*
X8267205Y-20092674D02*
X8267205Y-20140293D01*
X8267205Y-20140293D02*
X8257682Y-20178389D01*
X8257682Y-20178389D02*
X8248158Y-20197436D01*
X8248158Y-20197436D02*
X8238634Y-20206960D01*
X8238634Y-20206960D02*
X8219586Y-20216484D01*
X8219586Y-20216484D02*
X8200539Y-20216484D01*
X8200539Y-20216484D02*
X8181491Y-20206960D01*
X8181491Y-20206960D02*
X8171967Y-20197436D01*
X8171967Y-20197436D02*
X8162443Y-20178389D01*
X8162443Y-20178389D02*
X8152920Y-20140293D01*
X8152920Y-20140293D02*
X8152920Y-20092674D01*
X8152920Y-20092674D02*
X8162443Y-20054579D01*
X8162443Y-20054579D02*
X8171967Y-20035531D01*
X8171967Y-20035531D02*
X8181491Y-20026008D01*
X8181491Y-20026008D02*
X8200539Y-20016484D01*
X8352920Y-20216484D02*
X8352920Y-20083150D01*
X8352920Y-20102198D02*
X8362443Y-20092674D01*
X8362443Y-20092674D02*
X8381491Y-20083150D01*
X8381491Y-20083150D02*
X8410063Y-20083150D01*
X8410063Y-20083150D02*
X8429110Y-20092674D01*
X8429110Y-20092674D02*
X8438634Y-20111722D01*
X8438634Y-20111722D02*
X8438634Y-20216484D01*
X8438634Y-20111722D02*
X8448158Y-20092674D01*
X8448158Y-20092674D02*
X8467205Y-20083150D01*
X8467205Y-20083150D02*
X8495777Y-20083150D01*
X8495777Y-20083150D02*
X8514825Y-20092674D01*
X8514825Y-20092674D02*
X8524348Y-20111722D01*
X8524348Y-20111722D02*
X8524348Y-20216484D01*
X8619586Y-20216484D02*
X8619586Y-20083150D01*
X8619586Y-20102198D02*
X8629110Y-20092674D01*
X8629110Y-20092674D02*
X8648158Y-20083150D01*
X8648158Y-20083150D02*
X8676729Y-20083150D01*
X8676729Y-20083150D02*
X8695777Y-20092674D01*
X8695777Y-20092674D02*
X8705301Y-20111722D01*
X8705301Y-20111722D02*
X8705301Y-20216484D01*
X8705301Y-20111722D02*
X8714825Y-20092674D01*
X8714825Y-20092674D02*
X8733872Y-20083150D01*
X8733872Y-20083150D02*
X8762444Y-20083150D01*
X8762444Y-20083150D02*
X8781491Y-20092674D01*
X8781491Y-20092674D02*
X8791015Y-20111722D01*
X8791015Y-20111722D02*
X8791015Y-20216484D01*
X9181491Y-20006960D02*
X9010063Y-20264103D01*
X9438634Y-20016484D02*
X9457682Y-20016484D01*
X9457682Y-20016484D02*
X9476729Y-20026008D01*
X9476729Y-20026008D02*
X9486253Y-20035531D01*
X9486253Y-20035531D02*
X9495777Y-20054579D01*
X9495777Y-20054579D02*
X9505301Y-20092674D01*
X9505301Y-20092674D02*
X9505301Y-20140293D01*
X9505301Y-20140293D02*
X9495777Y-20178389D01*
X9495777Y-20178389D02*
X9486253Y-20197436D01*
X9486253Y-20197436D02*
X9476729Y-20206960D01*
X9476729Y-20206960D02*
X9457682Y-20216484D01*
X9457682Y-20216484D02*
X9438634Y-20216484D01*
X9438634Y-20216484D02*
X9419587Y-20206960D01*
X9419587Y-20206960D02*
X9410063Y-20197436D01*
X9410063Y-20197436D02*
X9400539Y-20178389D01*
X9400539Y-20178389D02*
X9391015Y-20140293D01*
X9391015Y-20140293D02*
X9391015Y-20092674D01*
X9391015Y-20092674D02*
X9400539Y-20054579D01*
X9400539Y-20054579D02*
X9410063Y-20035531D01*
X9410063Y-20035531D02*
X9419587Y-20026008D01*
X9419587Y-20026008D02*
X9438634Y-20016484D01*
X9591015Y-20197436D02*
X9600539Y-20206960D01*
X9600539Y-20206960D02*
X9591015Y-20216484D01*
X9591015Y-20216484D02*
X9581491Y-20206960D01*
X9581491Y-20206960D02*
X9591015Y-20197436D01*
X9591015Y-20197436D02*
X9591015Y-20216484D01*
X9724348Y-20016484D02*
X9743396Y-20016484D01*
X9743396Y-20016484D02*
X9762444Y-20026008D01*
X9762444Y-20026008D02*
X9771968Y-20035531D01*
X9771968Y-20035531D02*
X9781491Y-20054579D01*
X9781491Y-20054579D02*
X9791015Y-20092674D01*
X9791015Y-20092674D02*
X9791015Y-20140293D01*
X9791015Y-20140293D02*
X9781491Y-20178389D01*
X9781491Y-20178389D02*
X9771968Y-20197436D01*
X9771968Y-20197436D02*
X9762444Y-20206960D01*
X9762444Y-20206960D02*
X9743396Y-20216484D01*
X9743396Y-20216484D02*
X9724348Y-20216484D01*
X9724348Y-20216484D02*
X9705301Y-20206960D01*
X9705301Y-20206960D02*
X9695777Y-20197436D01*
X9695777Y-20197436D02*
X9686253Y-20178389D01*
X9686253Y-20178389D02*
X9676729Y-20140293D01*
X9676729Y-20140293D02*
X9676729Y-20092674D01*
X9676729Y-20092674D02*
X9686253Y-20054579D01*
X9686253Y-20054579D02*
X9695777Y-20035531D01*
X9695777Y-20035531D02*
X9705301Y-20026008D01*
X9705301Y-20026008D02*
X9724348Y-20016484D01*
X9971968Y-20016484D02*
X9876729Y-20016484D01*
X9876729Y-20016484D02*
X9867206Y-20111722D01*
X9867206Y-20111722D02*
X9876729Y-20102198D01*
X9876729Y-20102198D02*
X9895777Y-20092674D01*
X9895777Y-20092674D02*
X9943396Y-20092674D01*
X9943396Y-20092674D02*
X9962444Y-20102198D01*
X9962444Y-20102198D02*
X9971968Y-20111722D01*
X9971968Y-20111722D02*
X9981491Y-20130770D01*
X9981491Y-20130770D02*
X9981491Y-20178389D01*
X9981491Y-20178389D02*
X9971968Y-20197436D01*
X9971968Y-20197436D02*
X9962444Y-20206960D01*
X9962444Y-20206960D02*
X9943396Y-20216484D01*
X9943396Y-20216484D02*
X9895777Y-20216484D01*
X9895777Y-20216484D02*
X9876729Y-20206960D01*
X9876729Y-20206960D02*
X9867206Y-20197436D01*
X10076729Y-20216484D02*
X10114825Y-20216484D01*
X10114825Y-20216484D02*
X10133872Y-20206960D01*
X10133872Y-20206960D02*
X10143396Y-20197436D01*
X10143396Y-20197436D02*
X10162444Y-20168865D01*
X10162444Y-20168865D02*
X10171968Y-20130770D01*
X10171968Y-20130770D02*
X10171968Y-20054579D01*
X10171968Y-20054579D02*
X10162444Y-20035531D01*
X10162444Y-20035531D02*
X10152920Y-20026008D01*
X10152920Y-20026008D02*
X10133872Y-20016484D01*
X10133872Y-20016484D02*
X10095777Y-20016484D01*
X10095777Y-20016484D02*
X10076729Y-20026008D01*
X10076729Y-20026008D02*
X10067206Y-20035531D01*
X10067206Y-20035531D02*
X10057682Y-20054579D01*
X10057682Y-20054579D02*
X10057682Y-20102198D01*
X10057682Y-20102198D02*
X10067206Y-20121246D01*
X10067206Y-20121246D02*
X10076729Y-20130770D01*
X10076729Y-20130770D02*
X10095777Y-20140293D01*
X10095777Y-20140293D02*
X10133872Y-20140293D01*
X10133872Y-20140293D02*
X10152920Y-20130770D01*
X10152920Y-20130770D02*
X10162444Y-20121246D01*
X10162444Y-20121246D02*
X10171968Y-20102198D01*
X10362444Y-20216484D02*
X10248158Y-20216484D01*
X10305301Y-20216484D02*
X10305301Y-20016484D01*
X10305301Y-20016484D02*
X10286253Y-20045055D01*
X10286253Y-20045055D02*
X10267206Y-20064103D01*
X10267206Y-20064103D02*
X10248158Y-20073627D01*
X10438634Y-20016484D02*
X10438634Y-20054579D01*
X10514825Y-20016484D02*
X10514825Y-20054579D01*
X10810063Y-20292674D02*
X10800539Y-20283150D01*
X10800539Y-20283150D02*
X10781491Y-20254579D01*
X10781491Y-20254579D02*
X10771968Y-20235531D01*
X10771968Y-20235531D02*
X10762444Y-20206960D01*
X10762444Y-20206960D02*
X10752920Y-20159341D01*
X10752920Y-20159341D02*
X10752920Y-20121246D01*
X10752920Y-20121246D02*
X10762444Y-20073627D01*
X10762444Y-20073627D02*
X10771968Y-20045055D01*
X10771968Y-20045055D02*
X10781491Y-20026008D01*
X10781491Y-20026008D02*
X10800539Y-19997436D01*
X10800539Y-19997436D02*
X10810063Y-19987912D01*
X10991015Y-20216484D02*
X10876730Y-20216484D01*
X10933872Y-20216484D02*
X10933872Y-20016484D01*
X10933872Y-20016484D02*
X10914825Y-20045055D01*
X10914825Y-20045055D02*
X10895777Y-20064103D01*
X10895777Y-20064103D02*
X10876730Y-20073627D01*
X11162444Y-20083150D02*
X11162444Y-20216484D01*
X11114825Y-20006960D02*
X11067206Y-20149817D01*
X11067206Y-20149817D02*
X11191015Y-20149817D01*
X11419587Y-20216484D02*
X11419587Y-20016484D01*
X11505301Y-20216484D02*
X11505301Y-20111722D01*
X11505301Y-20111722D02*
X11495777Y-20092674D01*
X11495777Y-20092674D02*
X11476730Y-20083150D01*
X11476730Y-20083150D02*
X11448158Y-20083150D01*
X11448158Y-20083150D02*
X11429110Y-20092674D01*
X11429110Y-20092674D02*
X11419587Y-20102198D01*
X11629110Y-20216484D02*
X11610063Y-20206960D01*
X11610063Y-20206960D02*
X11600539Y-20197436D01*
X11600539Y-20197436D02*
X11591015Y-20178389D01*
X11591015Y-20178389D02*
X11591015Y-20121246D01*
X11591015Y-20121246D02*
X11600539Y-20102198D01*
X11600539Y-20102198D02*
X11610063Y-20092674D01*
X11610063Y-20092674D02*
X11629110Y-20083150D01*
X11629110Y-20083150D02*
X11657682Y-20083150D01*
X11657682Y-20083150D02*
X11676730Y-20092674D01*
X11676730Y-20092674D02*
X11686253Y-20102198D01*
X11686253Y-20102198D02*
X11695777Y-20121246D01*
X11695777Y-20121246D02*
X11695777Y-20178389D01*
X11695777Y-20178389D02*
X11686253Y-20197436D01*
X11686253Y-20197436D02*
X11676730Y-20206960D01*
X11676730Y-20206960D02*
X11657682Y-20216484D01*
X11657682Y-20216484D02*
X11629110Y-20216484D01*
X11810063Y-20216484D02*
X11791015Y-20206960D01*
X11791015Y-20206960D02*
X11781491Y-20187912D01*
X11781491Y-20187912D02*
X11781491Y-20016484D01*
X11962444Y-20206960D02*
X11943396Y-20216484D01*
X11943396Y-20216484D02*
X11905301Y-20216484D01*
X11905301Y-20216484D02*
X11886253Y-20206960D01*
X11886253Y-20206960D02*
X11876730Y-20187912D01*
X11876730Y-20187912D02*
X11876730Y-20111722D01*
X11876730Y-20111722D02*
X11886253Y-20092674D01*
X11886253Y-20092674D02*
X11905301Y-20083150D01*
X11905301Y-20083150D02*
X11943396Y-20083150D01*
X11943396Y-20083150D02*
X11962444Y-20092674D01*
X11962444Y-20092674D02*
X11971968Y-20111722D01*
X11971968Y-20111722D02*
X11971968Y-20130770D01*
X11971968Y-20130770D02*
X11876730Y-20149817D01*
X12048158Y-20206960D02*
X12067206Y-20216484D01*
X12067206Y-20216484D02*
X12105301Y-20216484D01*
X12105301Y-20216484D02*
X12124349Y-20206960D01*
X12124349Y-20206960D02*
X12133872Y-20187912D01*
X12133872Y-20187912D02*
X12133872Y-20178389D01*
X12133872Y-20178389D02*
X12124349Y-20159341D01*
X12124349Y-20159341D02*
X12105301Y-20149817D01*
X12105301Y-20149817D02*
X12076730Y-20149817D01*
X12076730Y-20149817D02*
X12057682Y-20140293D01*
X12057682Y-20140293D02*
X12048158Y-20121246D01*
X12048158Y-20121246D02*
X12048158Y-20111722D01*
X12048158Y-20111722D02*
X12057682Y-20092674D01*
X12057682Y-20092674D02*
X12076730Y-20083150D01*
X12076730Y-20083150D02*
X12105301Y-20083150D01*
X12105301Y-20083150D02*
X12124349Y-20092674D01*
X12200539Y-20292674D02*
X12210063Y-20283150D01*
X12210063Y-20283150D02*
X12229111Y-20254579D01*
X12229111Y-20254579D02*
X12238634Y-20235531D01*
X12238634Y-20235531D02*
X12248158Y-20206960D01*
X12248158Y-20206960D02*
X12257682Y-20159341D01*
X12257682Y-20159341D02*
X12257682Y-20121246D01*
X12257682Y-20121246D02*
X12248158Y-20073627D01*
X12248158Y-20073627D02*
X12238634Y-20045055D01*
X12238634Y-20045055D02*
X12229111Y-20026008D01*
X12229111Y-20026008D02*
X12210063Y-19997436D01*
X12210063Y-19997436D02*
X12200539Y-19987912D01*
X7035000Y-20295000D02*
X7235000Y-20495000D01*
X7235000Y-20295000D02*
X7035000Y-20495000D01*
X7135000Y-20295000D02*
X7135000Y-20495000D01*
X7035000Y-20395000D02*
X7235000Y-20395000D01*
X7486253Y-20305531D02*
X7495777Y-20296008D01*
X7495777Y-20296008D02*
X7514824Y-20286484D01*
X7514824Y-20286484D02*
X7562443Y-20286484D01*
X7562443Y-20286484D02*
X7581491Y-20296008D01*
X7581491Y-20296008D02*
X7591015Y-20305531D01*
X7591015Y-20305531D02*
X7600539Y-20324579D01*
X7600539Y-20324579D02*
X7600539Y-20343627D01*
X7600539Y-20343627D02*
X7591015Y-20372198D01*
X7591015Y-20372198D02*
X7476729Y-20486484D01*
X7476729Y-20486484D02*
X7600539Y-20486484D01*
X7686253Y-20467436D02*
X7695777Y-20476960D01*
X7695777Y-20476960D02*
X7686253Y-20486484D01*
X7686253Y-20486484D02*
X7676729Y-20476960D01*
X7676729Y-20476960D02*
X7686253Y-20467436D01*
X7686253Y-20467436D02*
X7686253Y-20486484D01*
X7819586Y-20286484D02*
X7838634Y-20286484D01*
X7838634Y-20286484D02*
X7857682Y-20296008D01*
X7857682Y-20296008D02*
X7867205Y-20305531D01*
X7867205Y-20305531D02*
X7876729Y-20324579D01*
X7876729Y-20324579D02*
X7886253Y-20362674D01*
X7886253Y-20362674D02*
X7886253Y-20410293D01*
X7886253Y-20410293D02*
X7876729Y-20448389D01*
X7876729Y-20448389D02*
X7867205Y-20467436D01*
X7867205Y-20467436D02*
X7857682Y-20476960D01*
X7857682Y-20476960D02*
X7838634Y-20486484D01*
X7838634Y-20486484D02*
X7819586Y-20486484D01*
X7819586Y-20486484D02*
X7800539Y-20476960D01*
X7800539Y-20476960D02*
X7791015Y-20467436D01*
X7791015Y-20467436D02*
X7781491Y-20448389D01*
X7781491Y-20448389D02*
X7771967Y-20410293D01*
X7771967Y-20410293D02*
X7771967Y-20362674D01*
X7771967Y-20362674D02*
X7781491Y-20324579D01*
X7781491Y-20324579D02*
X7791015Y-20305531D01*
X7791015Y-20305531D02*
X7800539Y-20296008D01*
X7800539Y-20296008D02*
X7819586Y-20286484D01*
X8010062Y-20286484D02*
X8029110Y-20286484D01*
X8029110Y-20286484D02*
X8048158Y-20296008D01*
X8048158Y-20296008D02*
X8057682Y-20305531D01*
X8057682Y-20305531D02*
X8067205Y-20324579D01*
X8067205Y-20324579D02*
X8076729Y-20362674D01*
X8076729Y-20362674D02*
X8076729Y-20410293D01*
X8076729Y-20410293D02*
X8067205Y-20448389D01*
X8067205Y-20448389D02*
X8057682Y-20467436D01*
X8057682Y-20467436D02*
X8048158Y-20476960D01*
X8048158Y-20476960D02*
X8029110Y-20486484D01*
X8029110Y-20486484D02*
X8010062Y-20486484D01*
X8010062Y-20486484D02*
X7991015Y-20476960D01*
X7991015Y-20476960D02*
X7981491Y-20467436D01*
X7981491Y-20467436D02*
X7971967Y-20448389D01*
X7971967Y-20448389D02*
X7962443Y-20410293D01*
X7962443Y-20410293D02*
X7962443Y-20362674D01*
X7962443Y-20362674D02*
X7971967Y-20324579D01*
X7971967Y-20324579D02*
X7981491Y-20305531D01*
X7981491Y-20305531D02*
X7991015Y-20296008D01*
X7991015Y-20296008D02*
X8010062Y-20286484D01*
X8200539Y-20286484D02*
X8219586Y-20286484D01*
X8219586Y-20286484D02*
X8238634Y-20296008D01*
X8238634Y-20296008D02*
X8248158Y-20305531D01*
X8248158Y-20305531D02*
X8257682Y-20324579D01*
X8257682Y-20324579D02*
X8267205Y-20362674D01*
X8267205Y-20362674D02*
X8267205Y-20410293D01*
X8267205Y-20410293D02*
X8257682Y-20448389D01*
X8257682Y-20448389D02*
X8248158Y-20467436D01*
X8248158Y-20467436D02*
X8238634Y-20476960D01*
X8238634Y-20476960D02*
X8219586Y-20486484D01*
X8219586Y-20486484D02*
X8200539Y-20486484D01*
X8200539Y-20486484D02*
X8181491Y-20476960D01*
X8181491Y-20476960D02*
X8171967Y-20467436D01*
X8171967Y-20467436D02*
X8162443Y-20448389D01*
X8162443Y-20448389D02*
X8152920Y-20410293D01*
X8152920Y-20410293D02*
X8152920Y-20362674D01*
X8152920Y-20362674D02*
X8162443Y-20324579D01*
X8162443Y-20324579D02*
X8171967Y-20305531D01*
X8171967Y-20305531D02*
X8181491Y-20296008D01*
X8181491Y-20296008D02*
X8200539Y-20286484D01*
X8352920Y-20486484D02*
X8352920Y-20353150D01*
X8352920Y-20372198D02*
X8362443Y-20362674D01*
X8362443Y-20362674D02*
X8381491Y-20353150D01*
X8381491Y-20353150D02*
X8410063Y-20353150D01*
X8410063Y-20353150D02*
X8429110Y-20362674D01*
X8429110Y-20362674D02*
X8438634Y-20381722D01*
X8438634Y-20381722D02*
X8438634Y-20486484D01*
X8438634Y-20381722D02*
X8448158Y-20362674D01*
X8448158Y-20362674D02*
X8467205Y-20353150D01*
X8467205Y-20353150D02*
X8495777Y-20353150D01*
X8495777Y-20353150D02*
X8514825Y-20362674D01*
X8514825Y-20362674D02*
X8524348Y-20381722D01*
X8524348Y-20381722D02*
X8524348Y-20486484D01*
X8619586Y-20486484D02*
X8619586Y-20353150D01*
X8619586Y-20372198D02*
X8629110Y-20362674D01*
X8629110Y-20362674D02*
X8648158Y-20353150D01*
X8648158Y-20353150D02*
X8676729Y-20353150D01*
X8676729Y-20353150D02*
X8695777Y-20362674D01*
X8695777Y-20362674D02*
X8705301Y-20381722D01*
X8705301Y-20381722D02*
X8705301Y-20486484D01*
X8705301Y-20381722D02*
X8714825Y-20362674D01*
X8714825Y-20362674D02*
X8733872Y-20353150D01*
X8733872Y-20353150D02*
X8762444Y-20353150D01*
X8762444Y-20353150D02*
X8781491Y-20362674D01*
X8781491Y-20362674D02*
X8791015Y-20381722D01*
X8791015Y-20381722D02*
X8791015Y-20486484D01*
X9181491Y-20276960D02*
X9010063Y-20534103D01*
X9438634Y-20286484D02*
X9457682Y-20286484D01*
X9457682Y-20286484D02*
X9476729Y-20296008D01*
X9476729Y-20296008D02*
X9486253Y-20305531D01*
X9486253Y-20305531D02*
X9495777Y-20324579D01*
X9495777Y-20324579D02*
X9505301Y-20362674D01*
X9505301Y-20362674D02*
X9505301Y-20410293D01*
X9505301Y-20410293D02*
X9495777Y-20448389D01*
X9495777Y-20448389D02*
X9486253Y-20467436D01*
X9486253Y-20467436D02*
X9476729Y-20476960D01*
X9476729Y-20476960D02*
X9457682Y-20486484D01*
X9457682Y-20486484D02*
X9438634Y-20486484D01*
X9438634Y-20486484D02*
X9419587Y-20476960D01*
X9419587Y-20476960D02*
X9410063Y-20467436D01*
X9410063Y-20467436D02*
X9400539Y-20448389D01*
X9400539Y-20448389D02*
X9391015Y-20410293D01*
X9391015Y-20410293D02*
X9391015Y-20362674D01*
X9391015Y-20362674D02*
X9400539Y-20324579D01*
X9400539Y-20324579D02*
X9410063Y-20305531D01*
X9410063Y-20305531D02*
X9419587Y-20296008D01*
X9419587Y-20296008D02*
X9438634Y-20286484D01*
X9591015Y-20467436D02*
X9600539Y-20476960D01*
X9600539Y-20476960D02*
X9591015Y-20486484D01*
X9591015Y-20486484D02*
X9581491Y-20476960D01*
X9581491Y-20476960D02*
X9591015Y-20467436D01*
X9591015Y-20467436D02*
X9591015Y-20486484D01*
X9724348Y-20286484D02*
X9743396Y-20286484D01*
X9743396Y-20286484D02*
X9762444Y-20296008D01*
X9762444Y-20296008D02*
X9771968Y-20305531D01*
X9771968Y-20305531D02*
X9781491Y-20324579D01*
X9781491Y-20324579D02*
X9791015Y-20362674D01*
X9791015Y-20362674D02*
X9791015Y-20410293D01*
X9791015Y-20410293D02*
X9781491Y-20448389D01*
X9781491Y-20448389D02*
X9771968Y-20467436D01*
X9771968Y-20467436D02*
X9762444Y-20476960D01*
X9762444Y-20476960D02*
X9743396Y-20486484D01*
X9743396Y-20486484D02*
X9724348Y-20486484D01*
X9724348Y-20486484D02*
X9705301Y-20476960D01*
X9705301Y-20476960D02*
X9695777Y-20467436D01*
X9695777Y-20467436D02*
X9686253Y-20448389D01*
X9686253Y-20448389D02*
X9676729Y-20410293D01*
X9676729Y-20410293D02*
X9676729Y-20362674D01*
X9676729Y-20362674D02*
X9686253Y-20324579D01*
X9686253Y-20324579D02*
X9695777Y-20305531D01*
X9695777Y-20305531D02*
X9705301Y-20296008D01*
X9705301Y-20296008D02*
X9724348Y-20286484D01*
X9857682Y-20286484D02*
X9991015Y-20286484D01*
X9991015Y-20286484D02*
X9905301Y-20486484D01*
X10095777Y-20372198D02*
X10076729Y-20362674D01*
X10076729Y-20362674D02*
X10067206Y-20353150D01*
X10067206Y-20353150D02*
X10057682Y-20334103D01*
X10057682Y-20334103D02*
X10057682Y-20324579D01*
X10057682Y-20324579D02*
X10067206Y-20305531D01*
X10067206Y-20305531D02*
X10076729Y-20296008D01*
X10076729Y-20296008D02*
X10095777Y-20286484D01*
X10095777Y-20286484D02*
X10133872Y-20286484D01*
X10133872Y-20286484D02*
X10152920Y-20296008D01*
X10152920Y-20296008D02*
X10162444Y-20305531D01*
X10162444Y-20305531D02*
X10171968Y-20324579D01*
X10171968Y-20324579D02*
X10171968Y-20334103D01*
X10171968Y-20334103D02*
X10162444Y-20353150D01*
X10162444Y-20353150D02*
X10152920Y-20362674D01*
X10152920Y-20362674D02*
X10133872Y-20372198D01*
X10133872Y-20372198D02*
X10095777Y-20372198D01*
X10095777Y-20372198D02*
X10076729Y-20381722D01*
X10076729Y-20381722D02*
X10067206Y-20391246D01*
X10067206Y-20391246D02*
X10057682Y-20410293D01*
X10057682Y-20410293D02*
X10057682Y-20448389D01*
X10057682Y-20448389D02*
X10067206Y-20467436D01*
X10067206Y-20467436D02*
X10076729Y-20476960D01*
X10076729Y-20476960D02*
X10095777Y-20486484D01*
X10095777Y-20486484D02*
X10133872Y-20486484D01*
X10133872Y-20486484D02*
X10152920Y-20476960D01*
X10152920Y-20476960D02*
X10162444Y-20467436D01*
X10162444Y-20467436D02*
X10171968Y-20448389D01*
X10171968Y-20448389D02*
X10171968Y-20410293D01*
X10171968Y-20410293D02*
X10162444Y-20391246D01*
X10162444Y-20391246D02*
X10152920Y-20381722D01*
X10152920Y-20381722D02*
X10133872Y-20372198D01*
X10238634Y-20286484D02*
X10371968Y-20286484D01*
X10371968Y-20286484D02*
X10286253Y-20486484D01*
X10438634Y-20286484D02*
X10438634Y-20324579D01*
X10514825Y-20286484D02*
X10514825Y-20324579D01*
X10810063Y-20562674D02*
X10800539Y-20553150D01*
X10800539Y-20553150D02*
X10781491Y-20524579D01*
X10781491Y-20524579D02*
X10771968Y-20505531D01*
X10771968Y-20505531D02*
X10762444Y-20476960D01*
X10762444Y-20476960D02*
X10752920Y-20429341D01*
X10752920Y-20429341D02*
X10752920Y-20391246D01*
X10752920Y-20391246D02*
X10762444Y-20343627D01*
X10762444Y-20343627D02*
X10771968Y-20315055D01*
X10771968Y-20315055D02*
X10781491Y-20296008D01*
X10781491Y-20296008D02*
X10800539Y-20267436D01*
X10800539Y-20267436D02*
X10810063Y-20257912D01*
X10876730Y-20305531D02*
X10886253Y-20296008D01*
X10886253Y-20296008D02*
X10905301Y-20286484D01*
X10905301Y-20286484D02*
X10952920Y-20286484D01*
X10952920Y-20286484D02*
X10971968Y-20296008D01*
X10971968Y-20296008D02*
X10981491Y-20305531D01*
X10981491Y-20305531D02*
X10991015Y-20324579D01*
X10991015Y-20324579D02*
X10991015Y-20343627D01*
X10991015Y-20343627D02*
X10981491Y-20372198D01*
X10981491Y-20372198D02*
X10867206Y-20486484D01*
X10867206Y-20486484D02*
X10991015Y-20486484D01*
X11229110Y-20486484D02*
X11229110Y-20286484D01*
X11314825Y-20486484D02*
X11314825Y-20381722D01*
X11314825Y-20381722D02*
X11305301Y-20362674D01*
X11305301Y-20362674D02*
X11286253Y-20353150D01*
X11286253Y-20353150D02*
X11257682Y-20353150D01*
X11257682Y-20353150D02*
X11238634Y-20362674D01*
X11238634Y-20362674D02*
X11229110Y-20372198D01*
X11438634Y-20486484D02*
X11419587Y-20476960D01*
X11419587Y-20476960D02*
X11410063Y-20467436D01*
X11410063Y-20467436D02*
X11400539Y-20448389D01*
X11400539Y-20448389D02*
X11400539Y-20391246D01*
X11400539Y-20391246D02*
X11410063Y-20372198D01*
X11410063Y-20372198D02*
X11419587Y-20362674D01*
X11419587Y-20362674D02*
X11438634Y-20353150D01*
X11438634Y-20353150D02*
X11467206Y-20353150D01*
X11467206Y-20353150D02*
X11486253Y-20362674D01*
X11486253Y-20362674D02*
X11495777Y-20372198D01*
X11495777Y-20372198D02*
X11505301Y-20391246D01*
X11505301Y-20391246D02*
X11505301Y-20448389D01*
X11505301Y-20448389D02*
X11495777Y-20467436D01*
X11495777Y-20467436D02*
X11486253Y-20476960D01*
X11486253Y-20476960D02*
X11467206Y-20486484D01*
X11467206Y-20486484D02*
X11438634Y-20486484D01*
X11619587Y-20486484D02*
X11600539Y-20476960D01*
X11600539Y-20476960D02*
X11591015Y-20457912D01*
X11591015Y-20457912D02*
X11591015Y-20286484D01*
X11771968Y-20476960D02*
X11752920Y-20486484D01*
X11752920Y-20486484D02*
X11714825Y-20486484D01*
X11714825Y-20486484D02*
X11695777Y-20476960D01*
X11695777Y-20476960D02*
X11686253Y-20457912D01*
X11686253Y-20457912D02*
X11686253Y-20381722D01*
X11686253Y-20381722D02*
X11695777Y-20362674D01*
X11695777Y-20362674D02*
X11714825Y-20353150D01*
X11714825Y-20353150D02*
X11752920Y-20353150D01*
X11752920Y-20353150D02*
X11771968Y-20362674D01*
X11771968Y-20362674D02*
X11781491Y-20381722D01*
X11781491Y-20381722D02*
X11781491Y-20400770D01*
X11781491Y-20400770D02*
X11686253Y-20419817D01*
X11857682Y-20476960D02*
X11876730Y-20486484D01*
X11876730Y-20486484D02*
X11914825Y-20486484D01*
X11914825Y-20486484D02*
X11933872Y-20476960D01*
X11933872Y-20476960D02*
X11943396Y-20457912D01*
X11943396Y-20457912D02*
X11943396Y-20448389D01*
X11943396Y-20448389D02*
X11933872Y-20429341D01*
X11933872Y-20429341D02*
X11914825Y-20419817D01*
X11914825Y-20419817D02*
X11886253Y-20419817D01*
X11886253Y-20419817D02*
X11867206Y-20410293D01*
X11867206Y-20410293D02*
X11857682Y-20391246D01*
X11857682Y-20391246D02*
X11857682Y-20381722D01*
X11857682Y-20381722D02*
X11867206Y-20362674D01*
X11867206Y-20362674D02*
X11886253Y-20353150D01*
X11886253Y-20353150D02*
X11914825Y-20353150D01*
X11914825Y-20353150D02*
X11933872Y-20362674D01*
X12010063Y-20562674D02*
X12019587Y-20553150D01*
X12019587Y-20553150D02*
X12038634Y-20524579D01*
X12038634Y-20524579D02*
X12048158Y-20505531D01*
X12048158Y-20505531D02*
X12057682Y-20476960D01*
X12057682Y-20476960D02*
X12067206Y-20429341D01*
X12067206Y-20429341D02*
X12067206Y-20391246D01*
X12067206Y-20391246D02*
X12057682Y-20343627D01*
X12057682Y-20343627D02*
X12048158Y-20315055D01*
X12048158Y-20315055D02*
X12038634Y-20296008D01*
X12038634Y-20296008D02*
X12019587Y-20267436D01*
X12019587Y-20267436D02*
X12010063Y-20257912D01*
X7035000Y-20615000D02*
X7235000Y-20815000D01*
X7235000Y-20615000D02*
X7035000Y-20815000D01*
X7205711Y-20785711D02*
X7205711Y-20644289D01*
X7064289Y-20644289D01*
X7064289Y-20785711D01*
X7205711Y-20785711D01*
X7476729Y-20606484D02*
X7600539Y-20606484D01*
X7600539Y-20606484D02*
X7533872Y-20682674D01*
X7533872Y-20682674D02*
X7562443Y-20682674D01*
X7562443Y-20682674D02*
X7581491Y-20692198D01*
X7581491Y-20692198D02*
X7591015Y-20701722D01*
X7591015Y-20701722D02*
X7600539Y-20720770D01*
X7600539Y-20720770D02*
X7600539Y-20768389D01*
X7600539Y-20768389D02*
X7591015Y-20787436D01*
X7591015Y-20787436D02*
X7581491Y-20796960D01*
X7581491Y-20796960D02*
X7562443Y-20806484D01*
X7562443Y-20806484D02*
X7505301Y-20806484D01*
X7505301Y-20806484D02*
X7486253Y-20796960D01*
X7486253Y-20796960D02*
X7476729Y-20787436D01*
X7686253Y-20787436D02*
X7695777Y-20796960D01*
X7695777Y-20796960D02*
X7686253Y-20806484D01*
X7686253Y-20806484D02*
X7676729Y-20796960D01*
X7676729Y-20796960D02*
X7686253Y-20787436D01*
X7686253Y-20787436D02*
X7686253Y-20806484D01*
X7771967Y-20625531D02*
X7781491Y-20616008D01*
X7781491Y-20616008D02*
X7800539Y-20606484D01*
X7800539Y-20606484D02*
X7848158Y-20606484D01*
X7848158Y-20606484D02*
X7867205Y-20616008D01*
X7867205Y-20616008D02*
X7876729Y-20625531D01*
X7876729Y-20625531D02*
X7886253Y-20644579D01*
X7886253Y-20644579D02*
X7886253Y-20663627D01*
X7886253Y-20663627D02*
X7876729Y-20692198D01*
X7876729Y-20692198D02*
X7762443Y-20806484D01*
X7762443Y-20806484D02*
X7886253Y-20806484D01*
X8010062Y-20606484D02*
X8029110Y-20606484D01*
X8029110Y-20606484D02*
X8048158Y-20616008D01*
X8048158Y-20616008D02*
X8057682Y-20625531D01*
X8057682Y-20625531D02*
X8067205Y-20644579D01*
X8067205Y-20644579D02*
X8076729Y-20682674D01*
X8076729Y-20682674D02*
X8076729Y-20730293D01*
X8076729Y-20730293D02*
X8067205Y-20768389D01*
X8067205Y-20768389D02*
X8057682Y-20787436D01*
X8057682Y-20787436D02*
X8048158Y-20796960D01*
X8048158Y-20796960D02*
X8029110Y-20806484D01*
X8029110Y-20806484D02*
X8010062Y-20806484D01*
X8010062Y-20806484D02*
X7991015Y-20796960D01*
X7991015Y-20796960D02*
X7981491Y-20787436D01*
X7981491Y-20787436D02*
X7971967Y-20768389D01*
X7971967Y-20768389D02*
X7962443Y-20730293D01*
X7962443Y-20730293D02*
X7962443Y-20682674D01*
X7962443Y-20682674D02*
X7971967Y-20644579D01*
X7971967Y-20644579D02*
X7981491Y-20625531D01*
X7981491Y-20625531D02*
X7991015Y-20616008D01*
X7991015Y-20616008D02*
X8010062Y-20606484D01*
X8200539Y-20606484D02*
X8219586Y-20606484D01*
X8219586Y-20606484D02*
X8238634Y-20616008D01*
X8238634Y-20616008D02*
X8248158Y-20625531D01*
X8248158Y-20625531D02*
X8257682Y-20644579D01*
X8257682Y-20644579D02*
X8267205Y-20682674D01*
X8267205Y-20682674D02*
X8267205Y-20730293D01*
X8267205Y-20730293D02*
X8257682Y-20768389D01*
X8257682Y-20768389D02*
X8248158Y-20787436D01*
X8248158Y-20787436D02*
X8238634Y-20796960D01*
X8238634Y-20796960D02*
X8219586Y-20806484D01*
X8219586Y-20806484D02*
X8200539Y-20806484D01*
X8200539Y-20806484D02*
X8181491Y-20796960D01*
X8181491Y-20796960D02*
X8171967Y-20787436D01*
X8171967Y-20787436D02*
X8162443Y-20768389D01*
X8162443Y-20768389D02*
X8152920Y-20730293D01*
X8152920Y-20730293D02*
X8152920Y-20682674D01*
X8152920Y-20682674D02*
X8162443Y-20644579D01*
X8162443Y-20644579D02*
X8171967Y-20625531D01*
X8171967Y-20625531D02*
X8181491Y-20616008D01*
X8181491Y-20616008D02*
X8200539Y-20606484D01*
X8352920Y-20806484D02*
X8352920Y-20673150D01*
X8352920Y-20692198D02*
X8362443Y-20682674D01*
X8362443Y-20682674D02*
X8381491Y-20673150D01*
X8381491Y-20673150D02*
X8410063Y-20673150D01*
X8410063Y-20673150D02*
X8429110Y-20682674D01*
X8429110Y-20682674D02*
X8438634Y-20701722D01*
X8438634Y-20701722D02*
X8438634Y-20806484D01*
X8438634Y-20701722D02*
X8448158Y-20682674D01*
X8448158Y-20682674D02*
X8467205Y-20673150D01*
X8467205Y-20673150D02*
X8495777Y-20673150D01*
X8495777Y-20673150D02*
X8514825Y-20682674D01*
X8514825Y-20682674D02*
X8524348Y-20701722D01*
X8524348Y-20701722D02*
X8524348Y-20806484D01*
X8619586Y-20806484D02*
X8619586Y-20673150D01*
X8619586Y-20692198D02*
X8629110Y-20682674D01*
X8629110Y-20682674D02*
X8648158Y-20673150D01*
X8648158Y-20673150D02*
X8676729Y-20673150D01*
X8676729Y-20673150D02*
X8695777Y-20682674D01*
X8695777Y-20682674D02*
X8705301Y-20701722D01*
X8705301Y-20701722D02*
X8705301Y-20806484D01*
X8705301Y-20701722D02*
X8714825Y-20682674D01*
X8714825Y-20682674D02*
X8733872Y-20673150D01*
X8733872Y-20673150D02*
X8762444Y-20673150D01*
X8762444Y-20673150D02*
X8781491Y-20682674D01*
X8781491Y-20682674D02*
X8791015Y-20701722D01*
X8791015Y-20701722D02*
X8791015Y-20806484D01*
X9181491Y-20596960D02*
X9010063Y-20854103D01*
X9438634Y-20606484D02*
X9457682Y-20606484D01*
X9457682Y-20606484D02*
X9476729Y-20616008D01*
X9476729Y-20616008D02*
X9486253Y-20625531D01*
X9486253Y-20625531D02*
X9495777Y-20644579D01*
X9495777Y-20644579D02*
X9505301Y-20682674D01*
X9505301Y-20682674D02*
X9505301Y-20730293D01*
X9505301Y-20730293D02*
X9495777Y-20768389D01*
X9495777Y-20768389D02*
X9486253Y-20787436D01*
X9486253Y-20787436D02*
X9476729Y-20796960D01*
X9476729Y-20796960D02*
X9457682Y-20806484D01*
X9457682Y-20806484D02*
X9438634Y-20806484D01*
X9438634Y-20806484D02*
X9419587Y-20796960D01*
X9419587Y-20796960D02*
X9410063Y-20787436D01*
X9410063Y-20787436D02*
X9400539Y-20768389D01*
X9400539Y-20768389D02*
X9391015Y-20730293D01*
X9391015Y-20730293D02*
X9391015Y-20682674D01*
X9391015Y-20682674D02*
X9400539Y-20644579D01*
X9400539Y-20644579D02*
X9410063Y-20625531D01*
X9410063Y-20625531D02*
X9419587Y-20616008D01*
X9419587Y-20616008D02*
X9438634Y-20606484D01*
X9591015Y-20787436D02*
X9600539Y-20796960D01*
X9600539Y-20796960D02*
X9591015Y-20806484D01*
X9591015Y-20806484D02*
X9581491Y-20796960D01*
X9581491Y-20796960D02*
X9591015Y-20787436D01*
X9591015Y-20787436D02*
X9591015Y-20806484D01*
X9791015Y-20806484D02*
X9676729Y-20806484D01*
X9733872Y-20806484D02*
X9733872Y-20606484D01*
X9733872Y-20606484D02*
X9714825Y-20635055D01*
X9714825Y-20635055D02*
X9695777Y-20654103D01*
X9695777Y-20654103D02*
X9676729Y-20663627D01*
X9867206Y-20625531D02*
X9876729Y-20616008D01*
X9876729Y-20616008D02*
X9895777Y-20606484D01*
X9895777Y-20606484D02*
X9943396Y-20606484D01*
X9943396Y-20606484D02*
X9962444Y-20616008D01*
X9962444Y-20616008D02*
X9971968Y-20625531D01*
X9971968Y-20625531D02*
X9981491Y-20644579D01*
X9981491Y-20644579D02*
X9981491Y-20663627D01*
X9981491Y-20663627D02*
X9971968Y-20692198D01*
X9971968Y-20692198D02*
X9857682Y-20806484D01*
X9857682Y-20806484D02*
X9981491Y-20806484D01*
X10152920Y-20606484D02*
X10114825Y-20606484D01*
X10114825Y-20606484D02*
X10095777Y-20616008D01*
X10095777Y-20616008D02*
X10086253Y-20625531D01*
X10086253Y-20625531D02*
X10067206Y-20654103D01*
X10067206Y-20654103D02*
X10057682Y-20692198D01*
X10057682Y-20692198D02*
X10057682Y-20768389D01*
X10057682Y-20768389D02*
X10067206Y-20787436D01*
X10067206Y-20787436D02*
X10076729Y-20796960D01*
X10076729Y-20796960D02*
X10095777Y-20806484D01*
X10095777Y-20806484D02*
X10133872Y-20806484D01*
X10133872Y-20806484D02*
X10152920Y-20796960D01*
X10152920Y-20796960D02*
X10162444Y-20787436D01*
X10162444Y-20787436D02*
X10171968Y-20768389D01*
X10171968Y-20768389D02*
X10171968Y-20720770D01*
X10171968Y-20720770D02*
X10162444Y-20701722D01*
X10162444Y-20701722D02*
X10152920Y-20692198D01*
X10152920Y-20692198D02*
X10133872Y-20682674D01*
X10133872Y-20682674D02*
X10095777Y-20682674D01*
X10095777Y-20682674D02*
X10076729Y-20692198D01*
X10076729Y-20692198D02*
X10067206Y-20701722D01*
X10067206Y-20701722D02*
X10057682Y-20720770D01*
X10295777Y-20606484D02*
X10314825Y-20606484D01*
X10314825Y-20606484D02*
X10333872Y-20616008D01*
X10333872Y-20616008D02*
X10343396Y-20625531D01*
X10343396Y-20625531D02*
X10352920Y-20644579D01*
X10352920Y-20644579D02*
X10362444Y-20682674D01*
X10362444Y-20682674D02*
X10362444Y-20730293D01*
X10362444Y-20730293D02*
X10352920Y-20768389D01*
X10352920Y-20768389D02*
X10343396Y-20787436D01*
X10343396Y-20787436D02*
X10333872Y-20796960D01*
X10333872Y-20796960D02*
X10314825Y-20806484D01*
X10314825Y-20806484D02*
X10295777Y-20806484D01*
X10295777Y-20806484D02*
X10276729Y-20796960D01*
X10276729Y-20796960D02*
X10267206Y-20787436D01*
X10267206Y-20787436D02*
X10257682Y-20768389D01*
X10257682Y-20768389D02*
X10248158Y-20730293D01*
X10248158Y-20730293D02*
X10248158Y-20682674D01*
X10248158Y-20682674D02*
X10257682Y-20644579D01*
X10257682Y-20644579D02*
X10267206Y-20625531D01*
X10267206Y-20625531D02*
X10276729Y-20616008D01*
X10276729Y-20616008D02*
X10295777Y-20606484D01*
X10438634Y-20606484D02*
X10438634Y-20644579D01*
X10514825Y-20606484D02*
X10514825Y-20644579D01*
X10810063Y-20882674D02*
X10800539Y-20873150D01*
X10800539Y-20873150D02*
X10781491Y-20844579D01*
X10781491Y-20844579D02*
X10771968Y-20825531D01*
X10771968Y-20825531D02*
X10762444Y-20796960D01*
X10762444Y-20796960D02*
X10752920Y-20749341D01*
X10752920Y-20749341D02*
X10752920Y-20711246D01*
X10752920Y-20711246D02*
X10762444Y-20663627D01*
X10762444Y-20663627D02*
X10771968Y-20635055D01*
X10771968Y-20635055D02*
X10781491Y-20616008D01*
X10781491Y-20616008D02*
X10800539Y-20587436D01*
X10800539Y-20587436D02*
X10810063Y-20577912D01*
X10971968Y-20673150D02*
X10971968Y-20806484D01*
X10924349Y-20596960D02*
X10876730Y-20739817D01*
X10876730Y-20739817D02*
X11000539Y-20739817D01*
X11229110Y-20806484D02*
X11229110Y-20606484D01*
X11314825Y-20806484D02*
X11314825Y-20701722D01*
X11314825Y-20701722D02*
X11305301Y-20682674D01*
X11305301Y-20682674D02*
X11286253Y-20673150D01*
X11286253Y-20673150D02*
X11257682Y-20673150D01*
X11257682Y-20673150D02*
X11238634Y-20682674D01*
X11238634Y-20682674D02*
X11229110Y-20692198D01*
X11438634Y-20806484D02*
X11419587Y-20796960D01*
X11419587Y-20796960D02*
X11410063Y-20787436D01*
X11410063Y-20787436D02*
X11400539Y-20768389D01*
X11400539Y-20768389D02*
X11400539Y-20711246D01*
X11400539Y-20711246D02*
X11410063Y-20692198D01*
X11410063Y-20692198D02*
X11419587Y-20682674D01*
X11419587Y-20682674D02*
X11438634Y-20673150D01*
X11438634Y-20673150D02*
X11467206Y-20673150D01*
X11467206Y-20673150D02*
X11486253Y-20682674D01*
X11486253Y-20682674D02*
X11495777Y-20692198D01*
X11495777Y-20692198D02*
X11505301Y-20711246D01*
X11505301Y-20711246D02*
X11505301Y-20768389D01*
X11505301Y-20768389D02*
X11495777Y-20787436D01*
X11495777Y-20787436D02*
X11486253Y-20796960D01*
X11486253Y-20796960D02*
X11467206Y-20806484D01*
X11467206Y-20806484D02*
X11438634Y-20806484D01*
X11619587Y-20806484D02*
X11600539Y-20796960D01*
X11600539Y-20796960D02*
X11591015Y-20777912D01*
X11591015Y-20777912D02*
X11591015Y-20606484D01*
X11771968Y-20796960D02*
X11752920Y-20806484D01*
X11752920Y-20806484D02*
X11714825Y-20806484D01*
X11714825Y-20806484D02*
X11695777Y-20796960D01*
X11695777Y-20796960D02*
X11686253Y-20777912D01*
X11686253Y-20777912D02*
X11686253Y-20701722D01*
X11686253Y-20701722D02*
X11695777Y-20682674D01*
X11695777Y-20682674D02*
X11714825Y-20673150D01*
X11714825Y-20673150D02*
X11752920Y-20673150D01*
X11752920Y-20673150D02*
X11771968Y-20682674D01*
X11771968Y-20682674D02*
X11781491Y-20701722D01*
X11781491Y-20701722D02*
X11781491Y-20720770D01*
X11781491Y-20720770D02*
X11686253Y-20739817D01*
X11857682Y-20796960D02*
X11876730Y-20806484D01*
X11876730Y-20806484D02*
X11914825Y-20806484D01*
X11914825Y-20806484D02*
X11933872Y-20796960D01*
X11933872Y-20796960D02*
X11943396Y-20777912D01*
X11943396Y-20777912D02*
X11943396Y-20768389D01*
X11943396Y-20768389D02*
X11933872Y-20749341D01*
X11933872Y-20749341D02*
X11914825Y-20739817D01*
X11914825Y-20739817D02*
X11886253Y-20739817D01*
X11886253Y-20739817D02*
X11867206Y-20730293D01*
X11867206Y-20730293D02*
X11857682Y-20711246D01*
X11857682Y-20711246D02*
X11857682Y-20701722D01*
X11857682Y-20701722D02*
X11867206Y-20682674D01*
X11867206Y-20682674D02*
X11886253Y-20673150D01*
X11886253Y-20673150D02*
X11914825Y-20673150D01*
X11914825Y-20673150D02*
X11933872Y-20682674D01*
X12010063Y-20882674D02*
X12019587Y-20873150D01*
X12019587Y-20873150D02*
X12038634Y-20844579D01*
X12038634Y-20844579D02*
X12048158Y-20825531D01*
X12048158Y-20825531D02*
X12057682Y-20796960D01*
X12057682Y-20796960D02*
X12067206Y-20749341D01*
X12067206Y-20749341D02*
X12067206Y-20711246D01*
X12067206Y-20711246D02*
X12057682Y-20663627D01*
X12057682Y-20663627D02*
X12048158Y-20635055D01*
X12048158Y-20635055D02*
X12038634Y-20616008D01*
X12038634Y-20616008D02*
X12019587Y-20587436D01*
X12019587Y-20587436D02*
X12010063Y-20577912D01*
X7035000Y-20935000D02*
X7235000Y-21135000D01*
X7235000Y-20935000D02*
X7035000Y-21135000D01*
X7135000Y-21135000D02*
X7235000Y-21035000D01*
X7135000Y-20935000D01*
X7035000Y-21035000D01*
X7135000Y-21135000D01*
X7476729Y-20926484D02*
X7600539Y-20926484D01*
X7600539Y-20926484D02*
X7533872Y-21002674D01*
X7533872Y-21002674D02*
X7562443Y-21002674D01*
X7562443Y-21002674D02*
X7581491Y-21012198D01*
X7581491Y-21012198D02*
X7591015Y-21021722D01*
X7591015Y-21021722D02*
X7600539Y-21040770D01*
X7600539Y-21040770D02*
X7600539Y-21088389D01*
X7600539Y-21088389D02*
X7591015Y-21107436D01*
X7591015Y-21107436D02*
X7581491Y-21116960D01*
X7581491Y-21116960D02*
X7562443Y-21126484D01*
X7562443Y-21126484D02*
X7505301Y-21126484D01*
X7505301Y-21126484D02*
X7486253Y-21116960D01*
X7486253Y-21116960D02*
X7476729Y-21107436D01*
X7686253Y-21107436D02*
X7695777Y-21116960D01*
X7695777Y-21116960D02*
X7686253Y-21126484D01*
X7686253Y-21126484D02*
X7676729Y-21116960D01*
X7676729Y-21116960D02*
X7686253Y-21107436D01*
X7686253Y-21107436D02*
X7686253Y-21126484D01*
X7762443Y-20926484D02*
X7895777Y-20926484D01*
X7895777Y-20926484D02*
X7810062Y-21126484D01*
X8067205Y-20926484D02*
X7971967Y-20926484D01*
X7971967Y-20926484D02*
X7962443Y-21021722D01*
X7962443Y-21021722D02*
X7971967Y-21012198D01*
X7971967Y-21012198D02*
X7991015Y-21002674D01*
X7991015Y-21002674D02*
X8038634Y-21002674D01*
X8038634Y-21002674D02*
X8057682Y-21012198D01*
X8057682Y-21012198D02*
X8067205Y-21021722D01*
X8067205Y-21021722D02*
X8076729Y-21040770D01*
X8076729Y-21040770D02*
X8076729Y-21088389D01*
X8076729Y-21088389D02*
X8067205Y-21107436D01*
X8067205Y-21107436D02*
X8057682Y-21116960D01*
X8057682Y-21116960D02*
X8038634Y-21126484D01*
X8038634Y-21126484D02*
X7991015Y-21126484D01*
X7991015Y-21126484D02*
X7971967Y-21116960D01*
X7971967Y-21116960D02*
X7962443Y-21107436D01*
X8200539Y-20926484D02*
X8219586Y-20926484D01*
X8219586Y-20926484D02*
X8238634Y-20936008D01*
X8238634Y-20936008D02*
X8248158Y-20945531D01*
X8248158Y-20945531D02*
X8257682Y-20964579D01*
X8257682Y-20964579D02*
X8267205Y-21002674D01*
X8267205Y-21002674D02*
X8267205Y-21050293D01*
X8267205Y-21050293D02*
X8257682Y-21088389D01*
X8257682Y-21088389D02*
X8248158Y-21107436D01*
X8248158Y-21107436D02*
X8238634Y-21116960D01*
X8238634Y-21116960D02*
X8219586Y-21126484D01*
X8219586Y-21126484D02*
X8200539Y-21126484D01*
X8200539Y-21126484D02*
X8181491Y-21116960D01*
X8181491Y-21116960D02*
X8171967Y-21107436D01*
X8171967Y-21107436D02*
X8162443Y-21088389D01*
X8162443Y-21088389D02*
X8152920Y-21050293D01*
X8152920Y-21050293D02*
X8152920Y-21002674D01*
X8152920Y-21002674D02*
X8162443Y-20964579D01*
X8162443Y-20964579D02*
X8171967Y-20945531D01*
X8171967Y-20945531D02*
X8181491Y-20936008D01*
X8181491Y-20936008D02*
X8200539Y-20926484D01*
X8352920Y-21126484D02*
X8352920Y-20993150D01*
X8352920Y-21012198D02*
X8362443Y-21002674D01*
X8362443Y-21002674D02*
X8381491Y-20993150D01*
X8381491Y-20993150D02*
X8410063Y-20993150D01*
X8410063Y-20993150D02*
X8429110Y-21002674D01*
X8429110Y-21002674D02*
X8438634Y-21021722D01*
X8438634Y-21021722D02*
X8438634Y-21126484D01*
X8438634Y-21021722D02*
X8448158Y-21002674D01*
X8448158Y-21002674D02*
X8467205Y-20993150D01*
X8467205Y-20993150D02*
X8495777Y-20993150D01*
X8495777Y-20993150D02*
X8514825Y-21002674D01*
X8514825Y-21002674D02*
X8524348Y-21021722D01*
X8524348Y-21021722D02*
X8524348Y-21126484D01*
X8619586Y-21126484D02*
X8619586Y-20993150D01*
X8619586Y-21012198D02*
X8629110Y-21002674D01*
X8629110Y-21002674D02*
X8648158Y-20993150D01*
X8648158Y-20993150D02*
X8676729Y-20993150D01*
X8676729Y-20993150D02*
X8695777Y-21002674D01*
X8695777Y-21002674D02*
X8705301Y-21021722D01*
X8705301Y-21021722D02*
X8705301Y-21126484D01*
X8705301Y-21021722D02*
X8714825Y-21002674D01*
X8714825Y-21002674D02*
X8733872Y-20993150D01*
X8733872Y-20993150D02*
X8762444Y-20993150D01*
X8762444Y-20993150D02*
X8781491Y-21002674D01*
X8781491Y-21002674D02*
X8791015Y-21021722D01*
X8791015Y-21021722D02*
X8791015Y-21126484D01*
X9181491Y-20916960D02*
X9010063Y-21174103D01*
X9438634Y-20926484D02*
X9457682Y-20926484D01*
X9457682Y-20926484D02*
X9476729Y-20936008D01*
X9476729Y-20936008D02*
X9486253Y-20945531D01*
X9486253Y-20945531D02*
X9495777Y-20964579D01*
X9495777Y-20964579D02*
X9505301Y-21002674D01*
X9505301Y-21002674D02*
X9505301Y-21050293D01*
X9505301Y-21050293D02*
X9495777Y-21088389D01*
X9495777Y-21088389D02*
X9486253Y-21107436D01*
X9486253Y-21107436D02*
X9476729Y-21116960D01*
X9476729Y-21116960D02*
X9457682Y-21126484D01*
X9457682Y-21126484D02*
X9438634Y-21126484D01*
X9438634Y-21126484D02*
X9419587Y-21116960D01*
X9419587Y-21116960D02*
X9410063Y-21107436D01*
X9410063Y-21107436D02*
X9400539Y-21088389D01*
X9400539Y-21088389D02*
X9391015Y-21050293D01*
X9391015Y-21050293D02*
X9391015Y-21002674D01*
X9391015Y-21002674D02*
X9400539Y-20964579D01*
X9400539Y-20964579D02*
X9410063Y-20945531D01*
X9410063Y-20945531D02*
X9419587Y-20936008D01*
X9419587Y-20936008D02*
X9438634Y-20926484D01*
X9591015Y-21107436D02*
X9600539Y-21116960D01*
X9600539Y-21116960D02*
X9591015Y-21126484D01*
X9591015Y-21126484D02*
X9581491Y-21116960D01*
X9581491Y-21116960D02*
X9591015Y-21107436D01*
X9591015Y-21107436D02*
X9591015Y-21126484D01*
X9791015Y-21126484D02*
X9676729Y-21126484D01*
X9733872Y-21126484D02*
X9733872Y-20926484D01*
X9733872Y-20926484D02*
X9714825Y-20955055D01*
X9714825Y-20955055D02*
X9695777Y-20974103D01*
X9695777Y-20974103D02*
X9676729Y-20983627D01*
X9962444Y-20993150D02*
X9962444Y-21126484D01*
X9914825Y-20916960D02*
X9867206Y-21059817D01*
X9867206Y-21059817D02*
X9991015Y-21059817D01*
X10048158Y-20926484D02*
X10181491Y-20926484D01*
X10181491Y-20926484D02*
X10095777Y-21126484D01*
X10343396Y-20926484D02*
X10305301Y-20926484D01*
X10305301Y-20926484D02*
X10286253Y-20936008D01*
X10286253Y-20936008D02*
X10276729Y-20945531D01*
X10276729Y-20945531D02*
X10257682Y-20974103D01*
X10257682Y-20974103D02*
X10248158Y-21012198D01*
X10248158Y-21012198D02*
X10248158Y-21088389D01*
X10248158Y-21088389D02*
X10257682Y-21107436D01*
X10257682Y-21107436D02*
X10267206Y-21116960D01*
X10267206Y-21116960D02*
X10286253Y-21126484D01*
X10286253Y-21126484D02*
X10324349Y-21126484D01*
X10324349Y-21126484D02*
X10343396Y-21116960D01*
X10343396Y-21116960D02*
X10352920Y-21107436D01*
X10352920Y-21107436D02*
X10362444Y-21088389D01*
X10362444Y-21088389D02*
X10362444Y-21040770D01*
X10362444Y-21040770D02*
X10352920Y-21021722D01*
X10352920Y-21021722D02*
X10343396Y-21012198D01*
X10343396Y-21012198D02*
X10324349Y-21002674D01*
X10324349Y-21002674D02*
X10286253Y-21002674D01*
X10286253Y-21002674D02*
X10267206Y-21012198D01*
X10267206Y-21012198D02*
X10257682Y-21021722D01*
X10257682Y-21021722D02*
X10248158Y-21040770D01*
X10438634Y-20926484D02*
X10438634Y-20964579D01*
X10514825Y-20926484D02*
X10514825Y-20964579D01*
X10810063Y-21202674D02*
X10800539Y-21193150D01*
X10800539Y-21193150D02*
X10781491Y-21164579D01*
X10781491Y-21164579D02*
X10771968Y-21145531D01*
X10771968Y-21145531D02*
X10762444Y-21116960D01*
X10762444Y-21116960D02*
X10752920Y-21069341D01*
X10752920Y-21069341D02*
X10752920Y-21031246D01*
X10752920Y-21031246D02*
X10762444Y-20983627D01*
X10762444Y-20983627D02*
X10771968Y-20955055D01*
X10771968Y-20955055D02*
X10781491Y-20936008D01*
X10781491Y-20936008D02*
X10800539Y-20907436D01*
X10800539Y-20907436D02*
X10810063Y-20897912D01*
X10876730Y-20945531D02*
X10886253Y-20936008D01*
X10886253Y-20936008D02*
X10905301Y-20926484D01*
X10905301Y-20926484D02*
X10952920Y-20926484D01*
X10952920Y-20926484D02*
X10971968Y-20936008D01*
X10971968Y-20936008D02*
X10981491Y-20945531D01*
X10981491Y-20945531D02*
X10991015Y-20964579D01*
X10991015Y-20964579D02*
X10991015Y-20983627D01*
X10991015Y-20983627D02*
X10981491Y-21012198D01*
X10981491Y-21012198D02*
X10867206Y-21126484D01*
X10867206Y-21126484D02*
X10991015Y-21126484D01*
X11229110Y-21126484D02*
X11229110Y-20926484D01*
X11314825Y-21126484D02*
X11314825Y-21021722D01*
X11314825Y-21021722D02*
X11305301Y-21002674D01*
X11305301Y-21002674D02*
X11286253Y-20993150D01*
X11286253Y-20993150D02*
X11257682Y-20993150D01*
X11257682Y-20993150D02*
X11238634Y-21002674D01*
X11238634Y-21002674D02*
X11229110Y-21012198D01*
X11438634Y-21126484D02*
X11419587Y-21116960D01*
X11419587Y-21116960D02*
X11410063Y-21107436D01*
X11410063Y-21107436D02*
X11400539Y-21088389D01*
X11400539Y-21088389D02*
X11400539Y-21031246D01*
X11400539Y-21031246D02*
X11410063Y-21012198D01*
X11410063Y-21012198D02*
X11419587Y-21002674D01*
X11419587Y-21002674D02*
X11438634Y-20993150D01*
X11438634Y-20993150D02*
X11467206Y-20993150D01*
X11467206Y-20993150D02*
X11486253Y-21002674D01*
X11486253Y-21002674D02*
X11495777Y-21012198D01*
X11495777Y-21012198D02*
X11505301Y-21031246D01*
X11505301Y-21031246D02*
X11505301Y-21088389D01*
X11505301Y-21088389D02*
X11495777Y-21107436D01*
X11495777Y-21107436D02*
X11486253Y-21116960D01*
X11486253Y-21116960D02*
X11467206Y-21126484D01*
X11467206Y-21126484D02*
X11438634Y-21126484D01*
X11619587Y-21126484D02*
X11600539Y-21116960D01*
X11600539Y-21116960D02*
X11591015Y-21097912D01*
X11591015Y-21097912D02*
X11591015Y-20926484D01*
X11771968Y-21116960D02*
X11752920Y-21126484D01*
X11752920Y-21126484D02*
X11714825Y-21126484D01*
X11714825Y-21126484D02*
X11695777Y-21116960D01*
X11695777Y-21116960D02*
X11686253Y-21097912D01*
X11686253Y-21097912D02*
X11686253Y-21021722D01*
X11686253Y-21021722D02*
X11695777Y-21002674D01*
X11695777Y-21002674D02*
X11714825Y-20993150D01*
X11714825Y-20993150D02*
X11752920Y-20993150D01*
X11752920Y-20993150D02*
X11771968Y-21002674D01*
X11771968Y-21002674D02*
X11781491Y-21021722D01*
X11781491Y-21021722D02*
X11781491Y-21040770D01*
X11781491Y-21040770D02*
X11686253Y-21059817D01*
X11857682Y-21116960D02*
X11876730Y-21126484D01*
X11876730Y-21126484D02*
X11914825Y-21126484D01*
X11914825Y-21126484D02*
X11933872Y-21116960D01*
X11933872Y-21116960D02*
X11943396Y-21097912D01*
X11943396Y-21097912D02*
X11943396Y-21088389D01*
X11943396Y-21088389D02*
X11933872Y-21069341D01*
X11933872Y-21069341D02*
X11914825Y-21059817D01*
X11914825Y-21059817D02*
X11886253Y-21059817D01*
X11886253Y-21059817D02*
X11867206Y-21050293D01*
X11867206Y-21050293D02*
X11857682Y-21031246D01*
X11857682Y-21031246D02*
X11857682Y-21021722D01*
X11857682Y-21021722D02*
X11867206Y-21002674D01*
X11867206Y-21002674D02*
X11886253Y-20993150D01*
X11886253Y-20993150D02*
X11914825Y-20993150D01*
X11914825Y-20993150D02*
X11933872Y-21002674D01*
X12010063Y-21202674D02*
X12019587Y-21193150D01*
X12019587Y-21193150D02*
X12038634Y-21164579D01*
X12038634Y-21164579D02*
X12048158Y-21145531D01*
X12048158Y-21145531D02*
X12057682Y-21116960D01*
X12057682Y-21116960D02*
X12067206Y-21069341D01*
X12067206Y-21069341D02*
X12067206Y-21031246D01*
X12067206Y-21031246D02*
X12057682Y-20983627D01*
X12057682Y-20983627D02*
X12048158Y-20955055D01*
X12048158Y-20955055D02*
X12038634Y-20936008D01*
X12038634Y-20936008D02*
X12019587Y-20907436D01*
X12019587Y-20907436D02*
X12010063Y-20897912D01*
M02*
