G04 #@! TF.GenerationSoftware,KiCad,Pcbnew,7.0.11*
G04 #@! TF.CreationDate,2024-09-13T15:18:52-04:00*
G04 #@! TF.ProjectId,cluster-pcb,636c7573-7465-4722-9d70-63622e6b6963,1.2*
G04 #@! TF.SameCoordinates,Original*
G04 #@! TF.FileFunction,Soldermask,Top*
G04 #@! TF.FilePolarity,Negative*
%FSLAX46Y46*%
G04 Gerber Fmt 4.6, Leading zero omitted, Abs format (unit mm)*
G04 Created by KiCad (PCBNEW 7.0.11) date 2024-09-13 15:18:52*
%MOMM*%
%LPD*%
G01*
G04 APERTURE LIST*
G04 Aperture macros list*
%AMRoundRect*
0 Rectangle with rounded corners*
0 $1 Rounding radius*
0 $2 $3 $4 $5 $6 $7 $8 $9 X,Y pos of 4 corners*
0 Add a 4 corners polygon primitive as box body*
4,1,4,$2,$3,$4,$5,$6,$7,$8,$9,$2,$3,0*
0 Add four circle primitives for the rounded corners*
1,1,$1+$1,$2,$3*
1,1,$1+$1,$4,$5*
1,1,$1+$1,$6,$7*
1,1,$1+$1,$8,$9*
0 Add four rect primitives between the rounded corners*
20,1,$1+$1,$2,$3,$4,$5,0*
20,1,$1+$1,$4,$5,$6,$7,0*
20,1,$1+$1,$6,$7,$8,$9,0*
20,1,$1+$1,$8,$9,$2,$3,0*%
G04 Aperture macros list end*
%ADD10RoundRect,0.032500X-0.097500X0.397500X-0.097500X-0.397500X0.097500X-0.397500X0.097500X0.397500X0*%
%ADD11RoundRect,0.032500X-0.397500X0.097500X-0.397500X-0.097500X0.397500X-0.097500X0.397500X0.097500X0*%
%ADD12R,1.680000X1.680000*%
%ADD13C,1.000000*%
%ADD14RoundRect,0.068750X0.206250X-0.681250X0.206250X0.681250X-0.206250X0.681250X-0.206250X-0.681250X0*%
%ADD15RoundRect,0.050000X0.945000X-0.785000X0.945000X0.785000X-0.945000X0.785000X-0.945000X-0.785000X0*%
%ADD16RoundRect,0.135000X-0.135000X-0.185000X0.135000X-0.185000X0.135000X0.185000X-0.135000X0.185000X0*%
%ADD17RoundRect,0.135000X0.185000X-0.135000X0.185000X0.135000X-0.185000X0.135000X-0.185000X-0.135000X0*%
%ADD18RoundRect,0.250000X1.550000X-0.650000X1.550000X0.650000X-1.550000X0.650000X-1.550000X-0.650000X0*%
%ADD19O,3.600000X1.800000*%
%ADD20RoundRect,0.102000X0.600000X0.600000X-0.600000X0.600000X-0.600000X-0.600000X0.600000X-0.600000X0*%
%ADD21RoundRect,0.250000X-1.100000X0.325000X-1.100000X-0.325000X1.100000X-0.325000X1.100000X0.325000X0*%
%ADD22RoundRect,0.140000X-0.140000X-0.170000X0.140000X-0.170000X0.140000X0.170000X-0.140000X0.170000X0*%
%ADD23R,2.150000X1.500000*%
%ADD24RoundRect,0.070000X1.000000X0.300000X-1.000000X0.300000X-1.000000X-0.300000X1.000000X-0.300000X0*%
%ADD25R,0.711200X0.254000*%
%ADD26R,1.600200X2.387600*%
%ADD27RoundRect,0.140000X0.140000X0.170000X-0.140000X0.170000X-0.140000X-0.170000X0.140000X-0.170000X0*%
%ADD28RoundRect,0.135000X0.135000X0.185000X-0.135000X0.185000X-0.135000X-0.185000X0.135000X-0.185000X0*%
%ADD29RoundRect,0.200000X-0.275000X0.200000X-0.275000X-0.200000X0.275000X-0.200000X0.275000X0.200000X0*%
%ADD30RoundRect,0.102000X1.250000X1.250000X-1.250000X1.250000X-1.250000X-1.250000X1.250000X-1.250000X0*%
%ADD31C,2.704000*%
%ADD32C,6.400000*%
%ADD33RoundRect,0.140000X0.170000X-0.140000X0.170000X0.140000X-0.170000X0.140000X-0.170000X-0.140000X0*%
%ADD34RoundRect,0.102000X-1.000000X-1.600000X1.000000X-1.600000X1.000000X1.600000X-1.000000X1.600000X0*%
%ADD35RoundRect,0.140000X-0.170000X0.140000X-0.170000X-0.140000X0.170000X-0.140000X0.170000X0.140000X0*%
%ADD36C,2.250000*%
%ADD37C,1.750000*%
%ADD38C,4.250000*%
%ADD39R,1.700000X1.700000*%
%ADD40O,1.700000X1.700000*%
%ADD41C,1.700000*%
%ADD42RoundRect,0.250000X-0.250000X-0.475000X0.250000X-0.475000X0.250000X0.475000X-0.250000X0.475000X0*%
%ADD43RoundRect,0.250000X-0.262500X-0.450000X0.262500X-0.450000X0.262500X0.450000X-0.262500X0.450000X0*%
%ADD44R,5.207000X3.098800*%
%ADD45R,1.143000X0.990600*%
%ADD46R,0.700000X0.500000*%
%ADD47RoundRect,0.070000X-0.155000X0.300000X-0.155000X-0.300000X0.155000X-0.300000X0.155000X0.300000X0*%
%ADD48R,0.825000X0.230000*%
%ADD49C,0.508000*%
%ADD50R,1.750000X1.500000*%
G04 APERTURE END LIST*
G36*
X78549500Y-42200001D02*
G01*
X78549500Y-43199999D01*
X78499500Y-43249999D01*
X78224500Y-43249999D01*
X78174500Y-43199999D01*
X78174500Y-42200001D01*
X78224500Y-42149999D01*
X78499500Y-42149999D01*
X78549500Y-42200001D01*
G37*
G36*
X77675001Y-42200001D02*
G01*
X77675001Y-43199999D01*
X77624999Y-43249999D01*
X77474999Y-43249999D01*
X77424999Y-43199999D01*
X77424999Y-42200001D01*
X77474999Y-42149999D01*
X77624999Y-42149999D01*
X77675001Y-42200001D01*
G37*
G36*
X77175000Y-42200001D02*
G01*
X77175000Y-43199999D01*
X77125000Y-43249999D01*
X76975000Y-43249999D01*
X76925000Y-43199999D01*
X76925000Y-42200001D01*
X76975000Y-42150001D01*
X77125000Y-42150001D01*
X77175000Y-42200001D01*
G37*
G36*
X78850000Y-43525000D02*
G01*
X78850000Y-43675000D01*
X78799998Y-43724999D01*
X78099999Y-43724999D01*
X78049999Y-43675000D01*
X78049999Y-43525000D01*
X78099999Y-43475000D01*
X78799998Y-43475000D01*
X78850000Y-43525000D01*
G37*
G36*
X78849500Y-44000000D02*
G01*
X78849500Y-44200000D01*
X78799500Y-44250000D01*
X77374499Y-44250000D01*
X77324499Y-44200000D01*
X77324499Y-44000000D01*
X77374499Y-43950000D01*
X78799500Y-43950000D01*
X78849500Y-44000000D01*
G37*
G36*
X78849998Y-44525000D02*
G01*
X78849998Y-44675000D01*
X78799998Y-44725000D01*
X78099999Y-44725000D01*
X78049999Y-44675000D01*
X78049999Y-44525000D01*
X78099999Y-44475001D01*
X78799998Y-44475001D01*
X78849998Y-44525000D01*
G37*
G36*
X77675001Y-45000001D02*
G01*
X77675001Y-45999999D01*
X77624999Y-46050001D01*
X77474999Y-46050001D01*
X77424999Y-45999999D01*
X77424999Y-45000001D01*
X77474999Y-44950001D01*
X77624999Y-44950001D01*
X77675001Y-45000001D01*
G37*
G36*
X77175000Y-45000001D02*
G01*
X77175000Y-45999999D01*
X77125000Y-46049999D01*
X76975000Y-46049999D01*
X76925000Y-45999999D01*
X76925000Y-45000001D01*
X76975000Y-44950001D01*
X77125000Y-44950001D01*
X77175000Y-45000001D01*
G37*
G36*
X78549500Y-45000001D02*
G01*
X78549500Y-45999999D01*
X78499500Y-46050001D01*
X78224500Y-46050001D01*
X78174500Y-45999999D01*
X78174500Y-45000001D01*
X78224500Y-44950001D01*
X78499500Y-44950001D01*
X78549500Y-45000001D01*
G37*
G36*
X74725000Y-42200001D02*
G01*
X74725000Y-42474999D01*
X74774999Y-42524999D01*
X74924999Y-42524999D01*
X74975002Y-42474999D01*
X74974999Y-42200001D01*
X75024999Y-42149999D01*
X75175001Y-42149999D01*
X75224999Y-42200001D01*
X75225001Y-42474999D01*
X75275001Y-42524999D01*
X75425001Y-42524999D01*
X75475001Y-42474999D01*
X75475001Y-42200001D01*
X75525000Y-42149999D01*
X75675000Y-42149999D01*
X75725000Y-42200001D01*
X75725000Y-42474999D01*
X75775000Y-42524999D01*
X75925002Y-42525002D01*
X75975000Y-42474999D01*
X75975002Y-42200001D01*
X76024999Y-42149999D01*
X76175002Y-42149999D01*
X76224999Y-42200001D01*
X76225002Y-42475002D01*
X76275002Y-42524999D01*
X76375027Y-42525004D01*
X76424999Y-42574999D01*
X76424989Y-43600001D01*
X76374999Y-43650001D01*
X74425003Y-43650003D01*
X74375000Y-43600004D01*
X74375000Y-42575002D01*
X74425003Y-42524999D01*
X74425000Y-42524999D01*
X74475000Y-42474999D01*
X74475000Y-42200001D01*
X74525000Y-42149999D01*
X74675000Y-42149999D01*
X74725000Y-42200001D01*
G37*
G36*
X76374999Y-44549999D02*
G01*
X76424994Y-44599999D01*
X76424999Y-45625001D01*
X76375022Y-45674996D01*
X76275002Y-45675001D01*
X76224999Y-45724998D01*
X76224999Y-45999999D01*
X76174999Y-46050001D01*
X76024999Y-46050001D01*
X75975002Y-45999999D01*
X75975000Y-45725001D01*
X75925002Y-45675001D01*
X75775000Y-45675001D01*
X75725000Y-45725001D01*
X75725000Y-45999999D01*
X75675000Y-46050001D01*
X75525000Y-46049999D01*
X75475001Y-45999999D01*
X75475001Y-45725001D01*
X75425001Y-45675001D01*
X75275001Y-45675001D01*
X75225001Y-45725001D01*
X75224999Y-45999999D01*
X75175001Y-46050001D01*
X75024999Y-46050001D01*
X74974999Y-45999999D01*
X74974999Y-45725001D01*
X74924999Y-45675001D01*
X74774999Y-45675001D01*
X74725000Y-45725001D01*
X74725000Y-45999999D01*
X74675000Y-46050001D01*
X74525000Y-46049999D01*
X74475000Y-45999999D01*
X74475000Y-45725001D01*
X74425000Y-45675001D01*
X74425003Y-45675001D01*
X74375000Y-45625001D01*
X74375000Y-44599999D01*
X74425003Y-44549997D01*
X76374999Y-44549999D01*
G37*
D10*
X77150000Y-150165000D03*
X76650000Y-150165000D03*
X76150000Y-150165000D03*
X75650000Y-150165000D03*
D11*
X74965000Y-150850000D03*
X74965000Y-151350000D03*
X74965000Y-151850000D03*
X74965000Y-152350000D03*
D10*
X75650000Y-153035000D03*
X76150000Y-153035000D03*
X76650000Y-153035000D03*
X77150000Y-153035000D03*
D11*
X77835000Y-152350000D03*
X77835000Y-151850000D03*
X77835000Y-151350000D03*
X77835000Y-150850000D03*
D12*
X76400000Y-151600000D03*
D13*
X77400000Y-31600000D03*
D14*
X114425000Y-122300000D03*
X115075000Y-122300000D03*
X115725000Y-122300000D03*
X116375000Y-122300000D03*
X116375000Y-117900000D03*
X115725000Y-117900000D03*
X115075000Y-117900000D03*
X114425000Y-117900000D03*
D15*
X115400000Y-120100000D03*
D16*
X79890000Y-72600000D03*
X80910000Y-72600000D03*
D17*
X121900000Y-67610000D03*
X121900000Y-66590000D03*
D18*
X125400000Y-146850000D03*
D19*
X125400000Y-143350000D03*
X125400000Y-139850000D03*
X125400000Y-136350000D03*
D20*
X122000000Y-156600000D03*
X118800000Y-156600000D03*
D17*
X113400000Y-65110000D03*
X113400000Y-64090000D03*
D21*
X80400000Y-37625000D03*
X80400000Y-40575000D03*
D17*
X113400000Y-145110000D03*
X113400000Y-144090000D03*
D22*
X116920000Y-84610000D03*
X117880000Y-84610000D03*
D23*
X88275000Y-142710000D03*
X88275000Y-145250000D03*
X88275000Y-147790000D03*
X88275000Y-150330000D03*
X88275000Y-152870000D03*
X88275000Y-155410000D03*
X88275000Y-157950000D03*
X88275000Y-160490000D03*
X96525000Y-160490000D03*
X96525000Y-157950000D03*
X96525000Y-155410000D03*
X96525000Y-152870000D03*
X96525000Y-150330000D03*
X96525000Y-147790000D03*
X96525000Y-145250000D03*
X96525000Y-142710000D03*
D24*
X100100000Y-129855000D03*
X100100000Y-128585000D03*
X100100000Y-127315000D03*
X100100000Y-126045000D03*
X100100000Y-124775000D03*
X100100000Y-123505000D03*
X100100000Y-122235000D03*
X100100000Y-120965000D03*
X100100000Y-119695000D03*
X100100000Y-118425000D03*
X100100000Y-117155000D03*
X100100000Y-115885000D03*
X100100000Y-114615000D03*
X100100000Y-113345000D03*
X90700000Y-113345000D03*
X90700000Y-114615000D03*
X90700000Y-115885000D03*
X90700000Y-117155000D03*
X90700000Y-118425000D03*
X90700000Y-119695000D03*
X90700000Y-120965000D03*
X90700000Y-122235000D03*
X90700000Y-123505000D03*
X90700000Y-124775000D03*
X90700000Y-126045000D03*
X90700000Y-127315000D03*
X90700000Y-128585000D03*
X90700000Y-129855000D03*
D17*
X121900000Y-167610000D03*
X121900000Y-166590000D03*
X113400000Y-165110000D03*
X113400000Y-164090000D03*
D25*
X116901400Y-46099999D03*
X116901400Y-46600001D03*
X116901400Y-47100000D03*
X116901400Y-47599999D03*
X116901400Y-48100001D03*
X119898600Y-48100001D03*
X119898600Y-47599999D03*
X119898600Y-47100000D03*
X119898600Y-46600001D03*
X119898600Y-46099999D03*
D26*
X118400000Y-47100000D03*
D27*
X83880000Y-107100000D03*
X82920000Y-107100000D03*
D18*
X125400000Y-46850000D03*
D19*
X125400000Y-43350000D03*
X125400000Y-39850000D03*
X125400000Y-36350000D03*
D28*
X85925000Y-152870000D03*
X84905000Y-152870000D03*
X85925000Y-157950000D03*
X84905000Y-157950000D03*
D29*
X80400000Y-106275000D03*
X80400000Y-107925000D03*
D17*
X121900000Y-47610000D03*
X121900000Y-46590000D03*
D16*
X79890000Y-75100000D03*
X80910000Y-75100000D03*
D22*
X116920000Y-64600000D03*
X117880000Y-64600000D03*
D27*
X119880000Y-164610000D03*
X118920000Y-164610000D03*
D30*
X119940000Y-30600000D03*
D31*
X114860000Y-30600000D03*
D22*
X116920000Y-124610000D03*
X117880000Y-124610000D03*
X116920000Y-104610000D03*
X117880000Y-104610000D03*
D27*
X95880000Y-132100000D03*
X94920000Y-132100000D03*
D32*
X127400000Y-176600000D03*
D33*
X80400000Y-151080000D03*
X80400000Y-150120000D03*
D25*
X116901400Y-106099999D03*
X116901400Y-106600001D03*
X116901400Y-107100000D03*
X116901400Y-107599999D03*
X116901400Y-108100001D03*
X119898600Y-108100001D03*
X119898600Y-107599999D03*
X119898600Y-107100000D03*
X119898600Y-106600001D03*
X119898600Y-106099999D03*
D26*
X118400000Y-107100000D03*
D28*
X85925000Y-145250000D03*
X84905000Y-145250000D03*
D22*
X80420000Y-114100000D03*
X81380000Y-114100000D03*
D17*
X121900000Y-107610000D03*
X121900000Y-106590000D03*
D20*
X122000000Y-56600000D03*
X118800000Y-56600000D03*
D22*
X94920000Y-111100000D03*
X95880000Y-111100000D03*
X116920000Y-164610000D03*
X117880000Y-164610000D03*
D25*
X116901400Y-126099999D03*
X116901400Y-126600001D03*
X116901400Y-127100000D03*
X116901400Y-127599999D03*
X116901400Y-128100001D03*
X119898600Y-128100001D03*
X119898600Y-127599999D03*
X119898600Y-127100000D03*
X119898600Y-126600001D03*
X119898600Y-126099999D03*
D26*
X118400000Y-127100000D03*
D17*
X121900000Y-87610000D03*
X121900000Y-86590000D03*
X113400000Y-125110000D03*
X113400000Y-124090000D03*
D34*
X75200000Y-125950000D03*
X86600000Y-125950000D03*
X86600000Y-117250000D03*
X75200000Y-117250000D03*
D14*
X114425000Y-62300000D03*
X115075000Y-62300000D03*
X115725000Y-62300000D03*
X116375000Y-62300000D03*
X116375000Y-57900000D03*
X115725000Y-57900000D03*
X115075000Y-57900000D03*
X114425000Y-57900000D03*
D15*
X115400000Y-60100000D03*
D17*
X113400000Y-45110000D03*
X113400000Y-44090000D03*
D25*
X116901400Y-146099999D03*
X116901400Y-146600001D03*
X116901400Y-147100000D03*
X116901400Y-147599999D03*
X116901400Y-148100001D03*
X119898600Y-148100001D03*
X119898600Y-147599999D03*
X119898600Y-147100000D03*
X119898600Y-146600001D03*
X119898600Y-146099999D03*
D26*
X118400000Y-147100000D03*
D18*
X125400000Y-66850000D03*
D19*
X125400000Y-63350000D03*
X125400000Y-59850000D03*
X125400000Y-56350000D03*
D18*
X125400000Y-126850000D03*
D19*
X125400000Y-123350000D03*
X125400000Y-119850000D03*
X125400000Y-116350000D03*
D35*
X80400000Y-104120000D03*
X80400000Y-105080000D03*
D27*
X119880000Y-124610000D03*
X118920000Y-124610000D03*
D33*
X79900000Y-46080000D03*
X79900000Y-45120000D03*
D14*
X114425000Y-142300000D03*
X115075000Y-142300000D03*
X115725000Y-142300000D03*
X116375000Y-142300000D03*
X116375000Y-137900000D03*
X115725000Y-137900000D03*
X115075000Y-137900000D03*
X114425000Y-137900000D03*
D15*
X115400000Y-140100000D03*
D27*
X119880000Y-64600000D03*
X118920000Y-64600000D03*
D36*
X100274998Y-31612500D03*
D37*
X98725000Y-23482500D03*
D38*
X98115000Y-28562500D03*
D37*
X96845000Y-34932500D03*
X96185000Y-25202500D03*
X95575000Y-37472500D03*
X94305000Y-34932500D03*
X93035000Y-37472500D03*
X91765000Y-34932500D03*
X90495000Y-37472500D03*
X89225000Y-34932500D03*
X88615000Y-23502500D03*
X87955000Y-37472500D03*
D38*
X86685000Y-28562500D03*
D37*
X86075000Y-25202500D03*
D36*
X84525002Y-31612500D03*
D39*
X101290000Y-95462500D03*
D40*
X101290000Y-92922500D03*
X101290000Y-90382500D03*
X101290000Y-87842500D03*
X101290000Y-85302500D03*
X101290000Y-82762500D03*
X101290000Y-80222500D03*
X101290000Y-77682500D03*
X101290000Y-75142500D03*
X101290000Y-72602500D03*
X101290000Y-70062500D03*
X101290000Y-67522500D03*
X101290000Y-64982500D03*
X101290000Y-62442500D03*
X101290000Y-59902500D03*
X101290000Y-57362500D03*
X101290000Y-54822500D03*
X101290000Y-52282500D03*
X101290000Y-49742500D03*
X101290000Y-47202500D03*
X83510000Y-47202500D03*
X83510000Y-49742500D03*
X83510000Y-52282500D03*
X83510000Y-54822500D03*
X83510000Y-57362500D03*
X83510000Y-59902500D03*
X83510000Y-62442500D03*
X83510000Y-64982500D03*
X83510000Y-67522500D03*
X83510000Y-70062500D03*
X83510000Y-72602500D03*
X83510000Y-75142500D03*
X83510000Y-77682500D03*
X83510000Y-80222500D03*
X83510000Y-82762500D03*
X83510000Y-85302500D03*
X83510000Y-87842500D03*
X83510000Y-90382500D03*
X83510000Y-92922500D03*
D41*
X83510000Y-95462500D03*
D28*
X85925000Y-155410000D03*
X84905000Y-155410000D03*
D17*
X99400000Y-99110000D03*
X99400000Y-98090000D03*
D29*
X78400000Y-106275000D03*
X78400000Y-107925000D03*
D17*
X97400000Y-99110000D03*
X97400000Y-98090000D03*
D42*
X75450000Y-49100000D03*
X77350000Y-49100000D03*
D25*
X116901400Y-166099999D03*
X116901400Y-166600001D03*
X116901400Y-167100000D03*
X116901400Y-167599999D03*
X116901400Y-168100001D03*
X119898600Y-168100001D03*
X119898600Y-167599999D03*
X119898600Y-167100000D03*
X119898600Y-166600001D03*
X119898600Y-166099999D03*
D26*
X118400000Y-167100000D03*
D20*
X122000000Y-116600000D03*
X118800000Y-116600000D03*
X78500000Y-93100000D03*
X75300000Y-93100000D03*
D22*
X116920000Y-44600000D03*
X117880000Y-44600000D03*
D27*
X119880000Y-144610000D03*
X118920000Y-144610000D03*
D28*
X85925000Y-150330000D03*
X84905000Y-150330000D03*
D18*
X125400000Y-166850000D03*
D19*
X125400000Y-163350000D03*
X125400000Y-159850000D03*
X125400000Y-156350000D03*
D20*
X122000000Y-36600000D03*
X118800000Y-36600000D03*
D25*
X116901400Y-86099999D03*
X116901400Y-86600001D03*
X116901400Y-87100000D03*
X116901400Y-87599999D03*
X116901400Y-88100001D03*
X119898600Y-88100001D03*
X119898600Y-87599999D03*
X119898600Y-87100000D03*
X119898600Y-86600001D03*
X119898600Y-86099999D03*
D26*
X118400000Y-87100000D03*
D35*
X77900000Y-38620000D03*
X77900000Y-39580000D03*
D32*
X77400000Y-26600000D03*
D25*
X116901400Y-66099999D03*
X116901400Y-66600001D03*
X116901400Y-67100000D03*
X116901400Y-67599999D03*
X116901400Y-68100001D03*
X119898600Y-68100001D03*
X119898600Y-67599999D03*
X119898600Y-67100000D03*
X119898600Y-66600001D03*
X119898600Y-66099999D03*
D26*
X118400000Y-67100000D03*
D14*
X114425000Y-162300000D03*
X115075000Y-162300000D03*
X115725000Y-162300000D03*
X116375000Y-162300000D03*
X116375000Y-157900000D03*
X115725000Y-157900000D03*
X115075000Y-157900000D03*
X114425000Y-157900000D03*
D15*
X115400000Y-160100000D03*
D14*
X114425000Y-102300000D03*
X115075000Y-102300000D03*
X115725000Y-102300000D03*
X116375000Y-102300000D03*
X116375000Y-97900000D03*
X115725000Y-97900000D03*
X115075000Y-97900000D03*
X114425000Y-97900000D03*
D15*
X115400000Y-100100000D03*
D17*
X113400000Y-85110000D03*
X113400000Y-84090000D03*
D27*
X119880000Y-104610000D03*
X118920000Y-104610000D03*
D35*
X78400000Y-104120000D03*
X78400000Y-105080000D03*
D17*
X121900000Y-147610000D03*
X121900000Y-146590000D03*
D43*
X103987500Y-24100000D03*
X105812500Y-24100000D03*
D14*
X114425000Y-42300000D03*
X115075000Y-42300000D03*
X115725000Y-42300000D03*
X116375000Y-42300000D03*
X116375000Y-37900000D03*
X115725000Y-37900000D03*
X115075000Y-37900000D03*
X114425000Y-37900000D03*
D15*
X115400000Y-40100000D03*
D20*
X122000000Y-136600000D03*
X118800000Y-136600000D03*
D13*
X130400000Y-173600000D03*
D44*
X105845900Y-30600000D03*
D45*
X109833700Y-31520001D03*
X109833700Y-29679999D03*
D17*
X113400000Y-105110000D03*
X113400000Y-104090000D03*
D18*
X125400000Y-106850000D03*
D19*
X125400000Y-103350000D03*
X125400000Y-99850000D03*
X125400000Y-96350000D03*
D27*
X119880000Y-44600000D03*
X118920000Y-44600000D03*
X119880000Y-84610000D03*
X118920000Y-84610000D03*
D32*
X127400000Y-26600000D03*
D28*
X85925000Y-147790000D03*
X84905000Y-147790000D03*
D13*
X130400000Y-29600000D03*
D17*
X121900000Y-127610000D03*
X121900000Y-126590000D03*
D28*
X85925000Y-142710000D03*
X84905000Y-142710000D03*
D13*
X77400000Y-171600000D03*
D33*
X81900000Y-151080000D03*
X81900000Y-150120000D03*
D46*
X108850000Y-24100000D03*
X107950000Y-24100000D03*
D20*
X122000000Y-76600000D03*
X118800000Y-76600000D03*
D18*
X125400000Y-86850000D03*
D19*
X125400000Y-83350000D03*
X125400000Y-79850000D03*
X125400000Y-76350000D03*
D14*
X114425000Y-82300000D03*
X115075000Y-82300000D03*
X115725000Y-82300000D03*
X116375000Y-82300000D03*
X116375000Y-77900000D03*
X115725000Y-77900000D03*
X115075000Y-77900000D03*
X114425000Y-77900000D03*
D15*
X115400000Y-80100000D03*
D22*
X116920000Y-144610000D03*
X117880000Y-144610000D03*
D47*
X81875000Y-109700000D03*
X81225000Y-109700000D03*
X80575000Y-109700000D03*
X79925000Y-109700000D03*
X79925000Y-112500000D03*
X80575000Y-112500000D03*
X81225000Y-112500000D03*
X81875000Y-112500000D03*
D48*
X82187500Y-110775000D03*
X79612500Y-110775000D03*
D49*
X81293700Y-111100000D03*
D50*
X80900000Y-111100000D03*
D49*
X80506300Y-111100000D03*
D48*
X82187500Y-111425000D03*
X79612500Y-111425000D03*
D28*
X85925000Y-160490000D03*
X84905000Y-160490000D03*
D32*
X77400000Y-176600000D03*
D20*
X122000000Y-96600000D03*
X118800000Y-96600000D03*
D22*
X75920000Y-47100000D03*
X76880000Y-47100000D03*
M02*
