G04 #@! TF.GenerationSoftware,KiCad,Pcbnew,7.0.11*
G04 #@! TF.CreationDate,2024-09-13T15:18:52-04:00*
G04 #@! TF.ProjectId,cluster-pcb,636c7573-7465-4722-9d70-63622e6b6963,1.2*
G04 #@! TF.SameCoordinates,Original*
G04 #@! TF.FileFunction,Legend,Bot*
G04 #@! TF.FilePolarity,Positive*
%FSLAX46Y46*%
G04 Gerber Fmt 4.6, Leading zero omitted, Abs format (unit mm)*
G04 Created by KiCad (PCBNEW 7.0.11) date 2024-09-13 15:18:52*
%MOMM*%
%LPD*%
G01*
G04 APERTURE LIST*
G04 Aperture macros list*
%AMRoundRect*
0 Rectangle with rounded corners*
0 $1 Rounding radius*
0 $2 $3 $4 $5 $6 $7 $8 $9 X,Y pos of 4 corners*
0 Add a 4 corners polygon primitive as box body*
4,1,4,$2,$3,$4,$5,$6,$7,$8,$9,$2,$3,0*
0 Add four circle primitives for the rounded corners*
1,1,$1+$1,$2,$3*
1,1,$1+$1,$4,$5*
1,1,$1+$1,$6,$7*
1,1,$1+$1,$8,$9*
0 Add four rect primitives between the rounded corners*
20,1,$1+$1,$2,$3,$4,$5,0*
20,1,$1+$1,$4,$5,$6,$7,0*
20,1,$1+$1,$6,$7,$8,$9,0*
20,1,$1+$1,$8,$9,$2,$3,0*%
G04 Aperture macros list end*
%ADD10RoundRect,0.250000X1.550000X-0.650000X1.550000X0.650000X-1.550000X0.650000X-1.550000X-0.650000X0*%
%ADD11O,3.600000X1.800000*%
%ADD12RoundRect,0.102000X1.250000X1.250000X-1.250000X1.250000X-1.250000X-1.250000X1.250000X-1.250000X0*%
%ADD13C,2.704000*%
%ADD14C,6.400000*%
%ADD15C,2.250000*%
%ADD16C,1.750000*%
%ADD17C,4.250000*%
%ADD18R,1.700000X1.700000*%
%ADD19O,1.700000X1.700000*%
%ADD20C,1.700000*%
%ADD21C,0.508000*%
G04 APERTURE END LIST*
%LPC*%
D10*
X125400000Y-146850000D03*
D11*
X125400000Y-143350000D03*
X125400000Y-139850000D03*
X125400000Y-136350000D03*
D10*
X125400000Y-46850000D03*
D11*
X125400000Y-43350000D03*
X125400000Y-39850000D03*
X125400000Y-36350000D03*
D12*
X119940000Y-30600000D03*
D13*
X114860000Y-30600000D03*
D14*
X127400000Y-176600000D03*
D10*
X125400000Y-66850000D03*
D11*
X125400000Y-63350000D03*
X125400000Y-59850000D03*
X125400000Y-56350000D03*
D10*
X125400000Y-126850000D03*
D11*
X125400000Y-123350000D03*
X125400000Y-119850000D03*
X125400000Y-116350000D03*
D15*
X100274998Y-31612500D03*
D16*
X98725000Y-23482500D03*
D17*
X98115000Y-28562500D03*
D16*
X96845000Y-34932500D03*
X96185000Y-25202500D03*
X95575000Y-37472500D03*
X94305000Y-34932500D03*
X93035000Y-37472500D03*
X91765000Y-34932500D03*
X90495000Y-37472500D03*
X89225000Y-34932500D03*
X88615000Y-23502500D03*
X87955000Y-37472500D03*
D17*
X86685000Y-28562500D03*
D16*
X86075000Y-25202500D03*
D15*
X84525002Y-31612500D03*
D18*
X101290000Y-95462500D03*
D19*
X101290000Y-92922500D03*
X101290000Y-90382500D03*
X101290000Y-87842500D03*
X101290000Y-85302500D03*
X101290000Y-82762500D03*
X101290000Y-80222500D03*
X101290000Y-77682500D03*
X101290000Y-75142500D03*
X101290000Y-72602500D03*
X101290000Y-70062500D03*
X101290000Y-67522500D03*
X101290000Y-64982500D03*
X101290000Y-62442500D03*
X101290000Y-59902500D03*
X101290000Y-57362500D03*
X101290000Y-54822500D03*
X101290000Y-52282500D03*
X101290000Y-49742500D03*
X101290000Y-47202500D03*
X83510000Y-47202500D03*
X83510000Y-49742500D03*
X83510000Y-52282500D03*
X83510000Y-54822500D03*
X83510000Y-57362500D03*
X83510000Y-59902500D03*
X83510000Y-62442500D03*
X83510000Y-64982500D03*
X83510000Y-67522500D03*
X83510000Y-70062500D03*
X83510000Y-72602500D03*
X83510000Y-75142500D03*
X83510000Y-77682500D03*
X83510000Y-80222500D03*
X83510000Y-82762500D03*
X83510000Y-85302500D03*
X83510000Y-87842500D03*
X83510000Y-90382500D03*
X83510000Y-92922500D03*
D20*
X83510000Y-95462500D03*
D10*
X125400000Y-166850000D03*
D11*
X125400000Y-163350000D03*
X125400000Y-159850000D03*
X125400000Y-156350000D03*
D14*
X77400000Y-26600000D03*
D10*
X125400000Y-106850000D03*
D11*
X125400000Y-103350000D03*
X125400000Y-99850000D03*
X125400000Y-96350000D03*
D14*
X127400000Y-26600000D03*
D10*
X125400000Y-86850000D03*
D11*
X125400000Y-83350000D03*
X125400000Y-79850000D03*
X125400000Y-76350000D03*
D21*
X81293700Y-111100000D03*
X80506300Y-111100000D03*
D14*
X77400000Y-176600000D03*
%LPD*%
M02*
